<?xml version="1.0" encoding="UTF-8" standalone="no"?>
<!-- Created with Inkscape (http://www.inkscape.org/) -->

<svg
   width="210mm"
   height="297mm"
   viewBox="0 0 210 297"
   version="1.1"
   id="svg1"
   inkscape:version="1.4 (86a8ad7, 2024-10-11)"
   sodipodi:docname="DSHL-50.svg"
   xmlns:inkscape="http://www.inkscape.org/namespaces/inkscape"
   xmlns:sodipodi="http://sodipodi.sourceforge.net/DTD/sodipodi-0.dtd"
   xmlns="http://www.w3.org/2000/svg"
   xmlns:svg="http://www.w3.org/2000/svg">
  <sodipodi:namedview
     id="namedview1"
     pagecolor="#ffffff"
     bordercolor="#000000"
     borderopacity="0.25"
     inkscape:showpageshadow="2"
     inkscape:pageopacity="0.0"
     inkscape:pagecheckerboard="0"
     inkscape:deskcolor="#d1d1d1"
     inkscape:document-units="mm"
     inkscape:zoom="1.4803312"
     inkscape:cx="365.45875"
     inkscape:cy="277.3028"
     inkscape:window-width="2560"
     inkscape:window-height="1377"
     inkscape:window-x="-8"
     inkscape:window-y="-8"
     inkscape:window-maximized="1"
     inkscape:current-layer="svg1" />
  <defs
     id="defs1">
    <inkscape:path-effect
       effect="fillet_chamfer"
       id="path-effect1"
       is_visible="true"
       lpeversion="1"
       nodesatellites_param="F,0,0,1,0,0,0,1 @ F,0,0,1,0,0.052223123,0,1 @ F,0,0,1,0,0,0,1 @ F,0,0,1,0,0,0,1 @ F,0,0,1,0,0,0,1 @ F,0,0,1,0,0,0,1 @ F,0,0,1,0,0,0,1 @ F,0,0,1,0,0,0,1 @ F,0,0,1,0,0,0,1 @ F,0,0,1,0,0,0,1 @ F,0,0,1,0,0,0,1 @ F,0,0,1,0,0,0,1 @ F,0,0,1,0,0,0,1 @ F,0,0,1,0,0,0,1 @ F,0,0,1,0,0,0,1 @ F,0,0,1,0,0,0,1 @ F,0,0,1,0,0,0,1 @ F,0,0,1,0,0,0,1 @ F,0,0,1,0,0,0,1 @ F,0,0,1,0,0,0,1 @ F,0,0,1,0,0,0,1 @ F,0,0,1,0,0,0,1 @ F,0,0,1,0,0,0,1 @ F,0,0,1,0,0,0,1 @ F,0,0,1,0,0,0,1 @ F,0,0,1,0,0,0,1 @ F,0,0,1,0,0,0,1 @ F,0,0,1,0,0,0,1 @ F,0,0,1,0,0,0,1 @ F,0,0,1,0,0,0,1 @ F,0,0,1,0,0,0,1 @ F,0,0,1,0,0,0,1 @ F,0,0,1,0,0,0,1 @ F,0,0,1,0,0,0,1 @ F,0,0,1,0,0,0,1 @ F,0,0,1,0,0,0,1 @ F,0,0,1,0,0,0,1 @ F,0,0,1,0,0,0,1 @ F,0,0,1,0,0,0,1 @ F,0,0,1,0,0,0,1 @ F,0,0,1,0,0,0,1 @ F,0,0,1,0,0,0,1 @ F,0,0,1,0,0,0,1 @ F,0,0,1,0,0,0,1 @ F,0,0,1,0,0,0,1 @ F,0,0,1,0,0,0,1 @ F,0,0,1,0,0,0,1 @ F,0,0,1,0,0,0,1 @ F,0,0,1,0,0,0,1 @ F,0,0,1,0,0,0,1 @ F,0,0,1,0,0,0,1 @ F,0,0,1,0,0,0,1 @ F,0,0,1,0,0,0,1 @ F,0,0,1,0,0,0,1 @ F,0,0,1,0,0,0,1 @ F,0,0,1,0,0,0,1 @ F,0,0,1,0,0,0,1 @ F,0,0,1,0,0,0,1 @ F,0,0,1,0,0,0,1"
       radius="0"
       unit="px"
       method="auto"
       mode="F"
       chamfer_steps="1"
       flexible="false"
       use_knot_distance="true"
       apply_no_radius="true"
       apply_with_radius="true"
       only_selected="true"
       hide_knots="false" />
    <inkscape:path-effect
       effect="fillet_chamfer"
       id="path-effect1-2"
       is_visible="true"
       lpeversion="1"
       nodesatellites_param="F,0,0,1,0,0,0,1 @ F,0,0,1,0,0.052223123,0,1 @ F,0,0,1,0,0,0,1 @ F,0,0,1,0,0,0,1 @ F,0,0,1,0,0,0,1 @ F,0,0,1,0,0,0,1 @ F,0,0,1,0,0,0,1 @ F,0,0,1,0,0,0,1 @ F,0,0,1,0,0,0,1 @ F,0,0,1,0,0,0,1 @ F,0,0,1,0,0,0,1 @ F,0,0,1,0,0,0,1 @ F,0,0,1,0,0,0,1 @ F,0,0,1,0,0,0,1 @ F,0,0,1,0,0,0,1 @ F,0,0,1,0,0,0,1 @ F,0,0,1,0,0,0,1 @ F,0,0,1,0,0,0,1 @ F,0,0,1,0,0,0,1 @ F,0,0,1,0,0,0,1 @ F,0,0,1,0,0,0,1 @ F,0,0,1,0,0,0,1 @ F,0,0,1,0,0,0,1 @ F,0,0,1,0,0,0,1 @ F,0,0,1,0,0,0,1 @ F,0,0,1,0,0,0,1 @ F,0,0,1,0,0,0,1 @ F,0,0,1,0,0,0,1 @ F,0,0,1,0,0,0,1 @ F,0,0,1,0,0,0,1 @ F,0,0,1,0,0,0,1 @ F,0,0,1,0,0,0,1 @ F,0,0,1,0,0,0,1 @ F,0,0,1,0,0,0,1 @ F,0,0,1,0,0,0,1 @ F,0,0,1,0,0,0,1 @ F,0,0,1,0,0,0,1 @ F,0,0,1,0,0,0,1 @ F,0,0,1,0,0,0,1 @ F,0,0,1,0,0,0,1 @ F,0,0,1,0,0,0,1 @ F,0,0,1,0,0,0,1 @ F,0,0,1,0,0,0,1 @ F,0,0,1,0,0,0,1 @ F,0,0,1,0,0,0,1 @ F,0,0,1,0,0,0,1 @ F,0,0,1,0,0,0,1 @ F,0,0,1,0,0,0,1 @ F,0,0,1,0,0,0,1 @ F,0,0,1,0,0,0,1 @ F,0,0,1,0,0,0,1 @ F,0,0,1,0,0,0,1 @ F,0,0,1,0,0,0,1 @ F,0,0,1,0,0,0,1 @ F,0,0,1,0,0,0,1 @ F,0,0,1,0,0,0,1 @ F,0,0,1,0,0,0,1 @ F,0,0,1,0,0,0,1 @ F,0,0,1,0,0,0,1"
       radius="0"
       unit="px"
       method="auto"
       mode="F"
       chamfer_steps="1"
       flexible="false"
       use_knot_distance="true"
       apply_no_radius="true"
       apply_with_radius="true"
       only_selected="true"
       hide_knots="false" />
    <inkscape:path-effect
       effect="fillet_chamfer"
       id="path-effect1-2-3"
       is_visible="true"
       lpeversion="1"
       nodesatellites_param="F,0,0,1,0,0,0,1 @ F,0,0,1,0,0.052223123,0,1 @ F,0,0,1,0,0,0,1 @ F,0,0,1,0,0,0,1 @ F,0,0,1,0,0,0,1 @ F,0,0,1,0,0,0,1 @ F,0,0,1,0,0,0,1 @ F,0,0,1,0,0,0,1 @ F,0,0,1,0,0,0,1 @ F,0,0,1,0,0,0,1 @ F,0,0,1,0,0,0,1 @ F,0,0,1,0,0,0,1 @ F,0,0,1,0,0,0,1 @ F,0,0,1,0,0,0,1 @ F,0,0,1,0,0,0,1 @ F,0,0,1,0,0,0,1 @ F,0,0,1,0,0,0,1 @ F,0,0,1,0,0,0,1 @ F,0,0,1,0,0,0,1 @ F,0,0,1,0,0,0,1 @ F,0,0,1,0,0,0,1 @ F,0,0,1,0,0,0,1 @ F,0,0,1,0,0,0,1 @ F,0,0,1,0,0,0,1 @ F,0,0,1,0,0,0,1 @ F,0,0,1,0,0,0,1 @ F,0,0,1,0,0,0,1 @ F,0,0,1,0,0,0,1 @ F,0,0,1,0,0,0,1 @ F,0,0,1,0,0,0,1 @ F,0,0,1,0,0,0,1 @ F,0,0,1,0,0,0,1 @ F,0,0,1,0,0,0,1 @ F,0,0,1,0,0,0,1 @ F,0,0,1,0,0,0,1 @ F,0,0,1,0,0,0,1 @ F,0,0,1,0,0,0,1 @ F,0,0,1,0,0,0,1 @ F,0,0,1,0,0,0,1 @ F,0,0,1,0,0,0,1 @ F,0,0,1,0,0,0,1 @ F,0,0,1,0,0,0,1 @ F,0,0,1,0,0,0,1 @ F,0,0,1,0,0,0,1 @ F,0,0,1,0,0,0,1 @ F,0,0,1,0,0,0,1 @ F,0,0,1,0,0,0,1 @ F,0,0,1,0,0,0,1 @ F,0,0,1,0,0,0,1 @ F,0,0,1,0,0,0,1 @ F,0,0,1,0,0,0,1 @ F,0,0,1,0,0,0,1 @ F,0,0,1,0,0,0,1 @ F,0,0,1,0,0,0,1 @ F,0,0,1,0,0,0,1 @ F,0,0,1,0,0,0,1 @ F,0,0,1,0,0,0,1 @ F,0,0,1,0,0,0,1 @ F,0,0,1,0,0,0,1"
       radius="0"
       unit="px"
       method="auto"
       mode="F"
       chamfer_steps="1"
       flexible="false"
       use_knot_distance="true"
       apply_no_radius="true"
       apply_with_radius="true"
       only_selected="true"
       hide_knots="false" />
    <inkscape:path-effect
       effect="fillet_chamfer"
       id="path-effect1-2-38"
       is_visible="true"
       lpeversion="1"
       nodesatellites_param="F,0,0,1,0,0,0,1 @ F,0,0,1,0,0.052223123,0,1 @ F,0,0,1,0,0,0,1 @ F,0,0,1,0,0,0,1 @ F,0,0,1,0,0,0,1 @ F,0,0,1,0,0,0,1 @ F,0,0,1,0,0,0,1 @ F,0,0,1,0,0,0,1 @ F,0,0,1,0,0,0,1 @ F,0,0,1,0,0,0,1 @ F,0,0,1,0,0,0,1 @ F,0,0,1,0,0,0,1 @ F,0,0,1,0,0,0,1 @ F,0,0,1,0,0,0,1 @ F,0,0,1,0,0,0,1 @ F,0,0,1,0,0,0,1 @ F,0,0,1,0,0,0,1 @ F,0,0,1,0,0,0,1 @ F,0,0,1,0,0,0,1 @ F,0,0,1,0,0,0,1 @ F,0,0,1,0,0,0,1 @ F,0,0,1,0,0,0,1 @ F,0,0,1,0,0,0,1 @ F,0,0,1,0,0,0,1 @ F,0,0,1,0,0,0,1 @ F,0,0,1,0,0,0,1 @ F,0,0,1,0,0,0,1 @ F,0,0,1,0,0,0,1 @ F,0,0,1,0,0,0,1 @ F,0,0,1,0,0,0,1 @ F,0,0,1,0,0,0,1 @ F,0,0,1,0,0,0,1 @ F,0,0,1,0,0,0,1 @ F,0,0,1,0,0,0,1 @ F,0,0,1,0,0,0,1 @ F,0,0,1,0,0,0,1 @ F,0,0,1,0,0,0,1 @ F,0,0,1,0,0,0,1 @ F,0,0,1,0,0,0,1 @ F,0,0,1,0,0,0,1 @ F,0,0,1,0,0,0,1 @ F,0,0,1,0,0,0,1 @ F,0,0,1,0,0,0,1 @ F,0,0,1,0,0,0,1 @ F,0,0,1,0,0,0,1 @ F,0,0,1,0,0,0,1 @ F,0,0,1,0,0,0,1 @ F,0,0,1,0,0,0,1 @ F,0,0,1,0,0,0,1 @ F,0,0,1,0,0,0,1 @ F,0,0,1,0,0,0,1 @ F,0,0,1,0,0,0,1 @ F,0,0,1,0,0,0,1 @ F,0,0,1,0,0,0,1 @ F,0,0,1,0,0,0,1 @ F,0,0,1,0,0,0,1 @ F,0,0,1,0,0,0,1 @ F,0,0,1,0,0,0,1 @ F,0,0,1,0,0,0,1"
       radius="0"
       unit="px"
       method="auto"
       mode="F"
       chamfer_steps="1"
       flexible="false"
       use_knot_distance="true"
       apply_no_radius="true"
       apply_with_radius="true"
       only_selected="true"
       hide_knots="false" />
  </defs>
  <path
     style="fill:#5e5e5e;fill-rule:evenodd;stroke:#000000;stroke-width:0.0102192"
     d="m 39.42756,149.46573 h 13.81602 a 0.05222312,0.05222312 135 0 0 0.05222,-0.0522 V 134.418 h 0.558538 v 1.20644 l -0.04876,0.12467 c 0.02918,0.0399 0.07687,0.0772 0.08294,0.12046 0.0087,0.0448 -0.04803,0.0765 -0.07306,0.11453 0.0219,0.039 0.07484,0.0594 0.06319,0.11849 0.01658,0.0534 -0.03523,0.0726 -0.05332,0.10861 0.01923,0.0401 0.04926,0.0532 0.05529,0.12638 0.01244,0.0596 -0.04343,0.0737 -0.06516,0.11059 0.02463,0.036 0.06631,0.0692 0.07109,0.10861 0.01622,0.0519 -0.04508,0.0715 -0.06911,0.10663 0.0229,0.0444 0.0783,0.0694 0.06714,0.13429 0.01436,0.0329 -0.04258,0.0658 -0.06517,0.0987 0.0273,0.0387 0.07057,0.0358 0.08096,0.11849 0.0036,0.0526 -0.04917,0.0744 -0.08294,0.10663 0.04415,0.0519 0.05788,0.0977 0.06517,0.14218 0.0042,0.039 -0.04068,0.0501 -0.06122,0.075 0.0191,0.0434 0.0683,0.0869 0.05727,0.13033 0.01694,0.0456 -0.04079,0.0764 -0.06122,0.11454 0.02297,0.0405 0.07202,0.0753 0.06517,0.12243 0.0021,0.0363 -0.04969,0.0658 -0.07504,0.0987 l 0.0395,0.11058 0.0039,0.16786 c 0.07061,0.3146 0.219364,0.57169 0.681284,0.59834 0.1672,-0.0739 0.312415,-0.002 0.556873,-0.58847 l -0.0059,-0.21524 0.03555,-0.0612 c -0.02114,-0.042 -0.06354,-0.0414 -0.06319,-0.12638 -0.02765,-0.0369 0.04001,-0.0737 0.06517,-0.11059 -0.03515,-0.0402 -0.06937,-0.0803 -0.07899,-0.12046 0.0055,-0.0563 0.05134,-0.0803 0.07701,-0.12046 -0.02818,-0.0249 -0.06377,-0.0386 -0.07109,-0.0948 -0.002,-0.0382 0.0465,-0.0763 0.07109,-0.11453 -0.02787,-0.0443 -0.07559,-0.0787 -0.07701,-0.13626 -0.0022,-0.0498 0.05792,-0.0685 0.08689,-0.10268 -0.03197,-0.0367 -0.0813,-0.0677 -0.08294,-0.11454 -0.0086,-0.0411 0.0473,-0.0751 0.07109,-0.11256 -0.02313,-0.0406 -0.07099,-0.0318 -0.06911,-0.12243 -0.02031,-0.0268 0.03858,-0.0719 0.06122,-0.10861 -0.02023,-0.0417 -0.06285,-0.0734 -0.05332,-0.12836 -0.01157,-0.0635 0.05134,-0.0711 0.07701,-0.10664 -0.02639,-0.0413 -0.06317,-0.0514 -0.07899,-0.1244 -0.0059,-0.0459 0.03809,-0.0633 0.05727,-0.0948 -0.02576,-0.0417 -0.06033,-0.0799 -0.06911,-0.12836 0.0041,-0.0382 0.05166,-0.0763 0.07899,-0.11453 -0.02367,-0.0204 -0.04034,-0.0479 -0.04542,-0.0869 v -0.0928 h 0.655611 v 0.43839 h -0.260665 v 2.2275 c 0.0031,0.26675 -0.09272,0.4637 -0.215246,0.64179 -0.13715,0.26848 -0.430789,0.37559 -0.805691,0.39889 h -0.58847 v 10.75691 H 39.427266 Z"
     id="profile_left"
     sodipodi:nodetypes="cccccccccccccccccccccccccccccccccccccccccccccccccccccccccccc"
     inkscape:path-effect="#path-effect1-2"
     inkscape:original-d="M 39.42756,149.46573 H 53.295803 V 134.418 h 0.558538 v 1.20644 l -0.04876,0.12467 c 0.02918,0.0399 0.07687,0.0772 0.08294,0.12046 0.0087,0.0448 -0.04803,0.0765 -0.07306,0.11453 0.0219,0.039 0.07484,0.0594 0.06319,0.11849 0.01658,0.0534 -0.03523,0.0726 -0.05332,0.10861 0.01923,0.0401 0.04926,0.0532 0.05529,0.12638 0.01244,0.0596 -0.04343,0.0737 -0.06516,0.11059 0.02463,0.036 0.06631,0.0692 0.07109,0.10861 0.01622,0.0519 -0.04508,0.0715 -0.06911,0.10663 0.0229,0.0444 0.0783,0.0694 0.06714,0.13429 0.01436,0.0329 -0.04258,0.0658 -0.06517,0.0987 0.0273,0.0387 0.07057,0.0358 0.08096,0.11849 0.0036,0.0526 -0.04917,0.0744 -0.08294,0.10663 0.04415,0.0519 0.05788,0.0977 0.06517,0.14218 0.0042,0.039 -0.04068,0.0501 -0.06122,0.075 0.0191,0.0434 0.0683,0.0869 0.05727,0.13033 0.01694,0.0456 -0.04079,0.0764 -0.06122,0.11454 0.02297,0.0405 0.07202,0.0753 0.06517,0.12243 0.0021,0.0363 -0.04969,0.0658 -0.07504,0.0987 l 0.0395,0.11058 0.0039,0.16786 c 0.07061,0.3146 0.219364,0.57169 0.681284,0.59834 0.1672,-0.0739 0.312415,-0.002 0.556873,-0.58847 l -0.0059,-0.21524 0.03555,-0.0612 c -0.02114,-0.042 -0.06354,-0.0414 -0.06319,-0.12638 -0.02765,-0.0369 0.04001,-0.0737 0.06517,-0.11059 -0.03515,-0.0402 -0.06937,-0.0803 -0.07899,-0.12046 0.0055,-0.0563 0.05134,-0.0803 0.07701,-0.12046 -0.02818,-0.0249 -0.06377,-0.0386 -0.07109,-0.0948 -0.002,-0.0382 0.0465,-0.0763 0.07109,-0.11453 -0.02787,-0.0443 -0.07559,-0.0787 -0.07701,-0.13626 -0.0022,-0.0498 0.05792,-0.0685 0.08689,-0.10268 -0.03197,-0.0367 -0.0813,-0.0677 -0.08294,-0.11454 -0.0086,-0.0411 0.0473,-0.0751 0.07109,-0.11256 -0.02313,-0.0406 -0.07099,-0.0318 -0.06911,-0.12243 -0.02031,-0.0268 0.03858,-0.0719 0.06122,-0.10861 -0.02023,-0.0417 -0.06285,-0.0734 -0.05332,-0.12836 -0.01157,-0.0635 0.05134,-0.0711 0.07701,-0.10664 -0.02639,-0.0413 -0.06317,-0.0514 -0.07899,-0.1244 -0.0059,-0.0459 0.03809,-0.0633 0.05727,-0.0948 -0.02576,-0.0417 -0.06033,-0.0799 -0.06911,-0.12836 0.0041,-0.0382 0.05166,-0.0763 0.07899,-0.11453 -0.02367,-0.0204 -0.04034,-0.0479 -0.04542,-0.0869 v -0.0928 h 0.655611 v 0.43839 h -0.260665 v 2.2275 c 0.0031,0.26675 -0.09272,0.4637 -0.215246,0.64179 -0.13715,0.26848 -0.430789,0.37559 -0.805691,0.39889 h -0.58847 v 10.75691 H 39.427266 Z"
     transform="matrix(3.2211171,0,0,3.2211171,-72.383163,-413.50763)"
     inkscape:label="profile_left" />
  <path
     style="fill:#5e5e5e;fill-rule:evenodd;stroke:#000000;stroke-width:0.0102192"
     d="m 39.42756,149.46573 h 13.81602 a 0.05222312,0.05222312 135 0 0 0.05222,-0.0522 V 134.418 h 0.558538 v 1.20644 l -0.04876,0.12467 c 0.02918,0.0399 0.07687,0.0772 0.08294,0.12046 0.0087,0.0448 -0.04803,0.0765 -0.07306,0.11453 0.0219,0.039 0.07484,0.0594 0.06319,0.11849 0.01658,0.0534 -0.03523,0.0726 -0.05332,0.10861 0.01923,0.0401 0.04926,0.0532 0.05529,0.12638 0.01244,0.0596 -0.04343,0.0737 -0.06516,0.11059 0.02463,0.036 0.06631,0.0692 0.07109,0.10861 0.01622,0.0519 -0.04508,0.0715 -0.06911,0.10663 0.0229,0.0444 0.0783,0.0694 0.06714,0.13429 0.01436,0.0329 -0.04258,0.0658 -0.06517,0.0987 0.0273,0.0387 0.07057,0.0358 0.08096,0.11849 0.0036,0.0526 -0.04917,0.0744 -0.08294,0.10663 0.04415,0.0519 0.05788,0.0977 0.06517,0.14218 0.0042,0.039 -0.04068,0.0501 -0.06122,0.075 0.0191,0.0434 0.0683,0.0869 0.05727,0.13033 0.01694,0.0456 -0.04079,0.0764 -0.06122,0.11454 0.02297,0.0405 0.07202,0.0753 0.06517,0.12243 0.0021,0.0363 -0.04969,0.0658 -0.07504,0.0987 l 0.0395,0.11058 0.0039,0.16786 c 0.07061,0.3146 0.219364,0.57169 0.681284,0.59834 0.1672,-0.0739 0.312415,-0.002 0.556873,-0.58847 l -0.0059,-0.21524 0.03555,-0.0612 c -0.02114,-0.042 -0.06354,-0.0414 -0.06319,-0.12638 -0.02765,-0.0369 0.04001,-0.0737 0.06517,-0.11059 -0.03515,-0.0402 -0.06937,-0.0803 -0.07899,-0.12046 0.0055,-0.0563 0.05134,-0.0803 0.07701,-0.12046 -0.02818,-0.0249 -0.06377,-0.0386 -0.07109,-0.0948 -0.002,-0.0382 0.0465,-0.0763 0.07109,-0.11453 -0.02787,-0.0443 -0.07559,-0.0787 -0.07701,-0.13626 -0.0022,-0.0498 0.05792,-0.0685 0.08689,-0.10268 -0.03197,-0.0367 -0.0813,-0.0677 -0.08294,-0.11454 -0.0086,-0.0411 0.0473,-0.0751 0.07109,-0.11256 -0.02313,-0.0406 -0.07099,-0.0318 -0.06911,-0.12243 -0.02031,-0.0268 0.03858,-0.0719 0.06122,-0.10861 -0.02023,-0.0417 -0.06285,-0.0734 -0.05332,-0.12836 -0.01157,-0.0635 0.05134,-0.0711 0.07701,-0.10664 -0.02639,-0.0413 -0.06317,-0.0514 -0.07899,-0.1244 -0.0059,-0.0459 0.03809,-0.0633 0.05727,-0.0948 -0.02576,-0.0417 -0.06033,-0.0799 -0.06911,-0.12836 0.0041,-0.0382 0.05166,-0.0763 0.07899,-0.11453 -0.02367,-0.0204 -0.04034,-0.0479 -0.04542,-0.0869 v -0.0928 h 0.655611 v 0.43839 h -0.260665 v 2.2275 c 0.0031,0.26675 -0.09272,0.4637 -0.215246,0.64179 -0.13715,0.26848 -0.430789,0.37559 -0.805691,0.39889 h -0.58847 v 10.75691 H 39.427266 Z"
     id="profile_right"
     sodipodi:nodetypes="cccccccccccccccccccccccccccccccccccccccccccccccccccccccccccc"
     inkscape:path-effect="#path-effect1-2-38"
     inkscape:original-d="M 39.42756,149.46573 H 53.295803 V 134.418 h 0.558538 v 1.20644 l -0.04876,0.12467 c 0.02918,0.0399 0.07687,0.0772 0.08294,0.12046 0.0087,0.0448 -0.04803,0.0765 -0.07306,0.11453 0.0219,0.039 0.07484,0.0594 0.06319,0.11849 0.01658,0.0534 -0.03523,0.0726 -0.05332,0.10861 0.01923,0.0401 0.04926,0.0532 0.05529,0.12638 0.01244,0.0596 -0.04343,0.0737 -0.06516,0.11059 0.02463,0.036 0.06631,0.0692 0.07109,0.10861 0.01622,0.0519 -0.04508,0.0715 -0.06911,0.10663 0.0229,0.0444 0.0783,0.0694 0.06714,0.13429 0.01436,0.0329 -0.04258,0.0658 -0.06517,0.0987 0.0273,0.0387 0.07057,0.0358 0.08096,0.11849 0.0036,0.0526 -0.04917,0.0744 -0.08294,0.10663 0.04415,0.0519 0.05788,0.0977 0.06517,0.14218 0.0042,0.039 -0.04068,0.0501 -0.06122,0.075 0.0191,0.0434 0.0683,0.0869 0.05727,0.13033 0.01694,0.0456 -0.04079,0.0764 -0.06122,0.11454 0.02297,0.0405 0.07202,0.0753 0.06517,0.12243 0.0021,0.0363 -0.04969,0.0658 -0.07504,0.0987 l 0.0395,0.11058 0.0039,0.16786 c 0.07061,0.3146 0.219364,0.57169 0.681284,0.59834 0.1672,-0.0739 0.312415,-0.002 0.556873,-0.58847 l -0.0059,-0.21524 0.03555,-0.0612 c -0.02114,-0.042 -0.06354,-0.0414 -0.06319,-0.12638 -0.02765,-0.0369 0.04001,-0.0737 0.06517,-0.11059 -0.03515,-0.0402 -0.06937,-0.0803 -0.07899,-0.12046 0.0055,-0.0563 0.05134,-0.0803 0.07701,-0.12046 -0.02818,-0.0249 -0.06377,-0.0386 -0.07109,-0.0948 -0.002,-0.0382 0.0465,-0.0763 0.07109,-0.11453 -0.02787,-0.0443 -0.07559,-0.0787 -0.07701,-0.13626 -0.0022,-0.0498 0.05792,-0.0685 0.08689,-0.10268 -0.03197,-0.0367 -0.0813,-0.0677 -0.08294,-0.11454 -0.0086,-0.0411 0.0473,-0.0751 0.07109,-0.11256 -0.02313,-0.0406 -0.07099,-0.0318 -0.06911,-0.12243 -0.02031,-0.0268 0.03858,-0.0719 0.06122,-0.10861 -0.02023,-0.0417 -0.06285,-0.0734 -0.05332,-0.12836 -0.01157,-0.0635 0.05134,-0.0711 0.07701,-0.10664 -0.02639,-0.0413 -0.06317,-0.0514 -0.07899,-0.1244 -0.0059,-0.0459 0.03809,-0.0633 0.05727,-0.0948 -0.02576,-0.0417 -0.06033,-0.0799 -0.06911,-0.12836 0.0041,-0.0382 0.05166,-0.0763 0.07899,-0.11453 -0.02367,-0.0204 -0.04034,-0.0479 -0.04542,-0.0869 v -0.0928 h 0.655611 v 0.43839 h -0.260665 v 2.2275 c 0.0031,0.26675 -0.09272,0.4637 -0.215246,0.64179 -0.13715,0.26848 -0.430789,0.37559 -0.805691,0.39889 h -0.58847 v 10.75691 H 39.427266 Z"
     transform="matrix(-3.2211171,0,0,3.2211171,290.29546,-413.50766)"
     inkscape:label="profile_right" />
</svg>
