<?xml version="1.0" encoding="UTF-8" standalone="no"?>
<!-- Created with Inkscape (http://www.inkscape.org/) -->

<svg
   width="210mm"
   height="297mm"
   viewBox="0 0 210 297"
   version="1.1"
   id="svg1"
   inkscape:version="1.4 (86a8ad7, 2024-10-11)"
   sodipodi:docname="DSHL-0-corner.svg"
   xmlns:inkscape="http://www.inkscape.org/namespaces/inkscape"
   xmlns:sodipodi="http://sodipodi.sourceforge.net/DTD/sodipodi-0.dtd"
   xmlns="http://www.w3.org/2000/svg"
   xmlns:svg="http://www.w3.org/2000/svg">
  <sodipodi:namedview
     id="namedview1"
     pagecolor="#ffffff"
     bordercolor="#000000"
     borderopacity="0.25"
     inkscape:showpageshadow="2"
     inkscape:pageopacity="0.0"
     inkscape:pagecheckerboard="0"
     inkscape:deskcolor="#d1d1d1"
     inkscape:document-units="mm"
     inkscape:zoom="1.4803312"
     inkscape:cx="34.789511"
     inkscape:cy="46.948952"
     inkscape:window-width="2560"
     inkscape:window-height="1377"
     inkscape:window-x="-8"
     inkscape:window-y="-8"
     inkscape:window-maximized="1"
     inkscape:current-layer="layer1" />
  <defs
     id="defs1" />
  <g
     inkscape:label="Слой 1"
     inkscape:groupmode="layer"
     id="layer1">
    <path
       style="fill:#4a8db7;fill-opacity:0.768047;fill-rule:evenodd;stroke:#b81e1e;stroke-width:0.0379312"
       d="m 94.417623,33.983337 h -2.47746 v 0.35187 c 0.10509,0.10728 0.21847,0.20972 0.23456,0.36637 -0.22517,0.0712 -0.28191,0.18224 -0.33719,0.29323 0.0723,0.17594 0.1318,0.35187 0.32252,0.52773 -0.10727,0.14846 -0.26795,0.20118 -0.30785,0.39582 0.0614,0.17484 0.12259,0.35003 0.26387,0.42512 -0.13667,0.16926 -0.2851,0.33925 -0.2932,0.49842 0.0747,0.13547 0.18511,0.2394 0.35185,0.29322 l -0.33719,0.51308 0.35184,0.45447 c -0.20909,0.0754 -0.34906,0.19894 -0.42513,0.36635 0.11601,0.18522 0.23011,0.37355 0.39581,0.4691 -0.1825,0.0894 -0.3404,0.19969 -0.38115,0.41047 0.1068,0.16221 0.19651,0.3504 0.38115,0.39579 -0.14806,0.14328 -0.29326,0.28655 -0.38115,0.43981 0.10601,0.16963 0.23314,0.29991 0.41047,0.33704 -0.16213,0.10651 -0.33799,0.19969 -0.35184,0.45442 0.0554,0.30029 0.17891,0.38468 0.29319,0.49841 -0.12379,0.0924 -0.23492,0.20267 -0.30785,0.36636 0.0305,0.13844 0.0185,0.26575 0.27367,0.46286 l -0.16068,0.4457 -0.005,1.3113 c -0.462866,0.8834 -1.186336,1.36682 -2.088716,1.5756 -1.00877,-0.0408 -1.72059,-0.66812 -2.30121,-1.55485 l -0.16069,-1.60156 -0.10367,-0.26948 c 0.17234,-0.12175 0.3175,-0.25239 0.36798,-0.41459 -0.14067,-0.11396 -0.26722,-0.23978 -0.33688,-0.41465 0.16882,-0.16591 0.37819,-0.1351 0.30582,-0.33702 0.006,-0.25277 -0.18634,-0.28692 -0.27988,-0.4302 0.0454,-0.17112 0.27363,-0.20675 0.28507,-0.39389 -0.0322,-0.25871 -0.2001,-0.30475 -0.30062,-0.45611 0.0978,-0.25203 0.37118,-0.36783 0.33172,-0.4872 -2.2e-4,-0.1867 -0.2018,-0.30586 -0.31097,-0.45609 0.10368,-0.1173 0.33113,-0.13364 0.31097,-0.35226 -0.11402,-0.2821 -0.22804,-0.3322 -0.34206,-0.48721 0.0619,-0.21973 0.28665,-0.22419 0.3006,-0.35261 0.0341,-0.0854 -0.36063,-0.45139 -0.32132,-0.44572 0.0416,0.007 0.40788,-0.32626 0.33171,-0.38354 0.0305,-0.24942 -0.22091,-0.2973 -0.33171,-0.44574 0.10712,-0.14512 0.3194,-0.23754 0.32132,-0.43534 -0.005,-0.40488 -0.30711,-0.21121 -0.3006,-0.47686 0.10021,-0.11396 0.32566,-0.19041 0.3006,-0.34222 -0.009,-0.15962 -0.24427,-0.1726 -0.25915,-0.45607 v -4.74758 l -2.674386,-0.0223 c -0.15887,-0.22346 -0.312011,-0.46628 -0.570122,-0.35226 -0.289183,-0.004 -0.356923,0.64993 -0.642683,0.79814 -0.257186,-0.0111 -0.475408,-0.71244 -0.943283,-0.84999 -0.274561,0.0876 -0.290149,0.74996 -0.663423,0.84999 -0.485552,-0.10541 -0.523684,-0.76937 -0.901826,-0.87071 -0.355695,0.1971 -0.392154,0.62251 -0.704871,0.79818 -0.439942,-0.0185 -0.221816,-0.37529 -0.829276,-0.74635 -0.436243,0.13139 -0.30507,0.63579 -0.777432,0.80853 -0.364829,-0.0805 -0.451131,-0.85274 -0.912188,-0.85001 -0.210754,0.0519 -0.196207,0.48121 -0.632319,0.79818 -0.361344,-0.0743 -0.401785,-0.67334 -0.870732,-0.71524 -0.373136,0.0657 -0.457008,0.5476 -0.756707,0.76707 -0.465128,-0.24943 -0.459195,-0.70698 -0.798172,-0.79814 -0.357142,0.055 -0.192266,0.36263 -0.870732,0.76703 -0.320399,-0.59496 -0.49298,-0.85687 -0.808533,-0.76703 -0.347049,0.0149 -0.182879,0.64588 -0.694511,0.78779 -0.568326,-0.1637 -0.210193,-0.64245 -0.912196,-0.80853 -0.272294,0.10614 -0.412643,0.52554 -0.704872,0.76705 -0.455237,-0.25574 -0.379654,-0.73191 -0.850007,-0.76705 -0.512192,0.13212 -0.131539,0.64898 -0.756707,0.78777 -0.324031,0.004 -0.254584,-0.85353 -0.92255,-0.77742 -0.255227,0.13621 -0.323779,0.70184 -0.725605,0.76706 -0.494337,-0.22085 -0.427361,-0.79966 -0.767077,-0.77741 -0.357776,0.0854 -0.370959,0.65864 -0.735975,0.80853 -0.537646,-0.15183 -0.242677,-0.62359 -0.901826,-0.75672 -0.287963,0.0657 -0.424149,0.67539 -0.684147,0.73596 -0.48538,-0.11878 -0.269888,-0.68223 -0.964024,-0.76703 -0.197808,0.026 -0.274229,0.73425 -0.642674,0.78779 -0.406595,-0.19191 -0.597593,-0.88582 -0.870741,-0.80853 -0.02113,-0.31254 -0.822405,1.07269 -0.860368,0.81888 -0.0256,-0.17037 -0.714667,-0.95734 -0.735969,-0.81888 -0.423282,0.0431 -0.384253,0.69212 -0.777436,0.81888 -0.446631,-0.15478 -0.318805,-0.72487 -0.839633,-0.79814 -0.386019,0.12174 -0.32708,0.63032 -0.735976,0.78779 -0.447487,-0.13882 -0.127723,-0.63862 -0.860363,-0.82929 -0.489558,0.0569 -0.231539,0.6287 -0.684141,0.81892 -0.382201,-0.026 -0.401642,-0.74802 -0.943297,-0.77742 -0.3289,0.0672 -0.372617,0.62962 -0.725606,0.72557 -0.464139,-0.0846 -0.420283,-0.57481 -0.777437,-0.71522 -0.526533,0.003 -0.426652,0.63679 -0.725614,0.79814 -0.52255,-0.10652 -0.489816,-0.69232 -0.860361,-0.84999 -0.494218,0.069 -0.422458,0.74428 -0.860366,0.82929 -0.443946,-0.1726 -0.480588,-0.70766 -0.849991,-0.8189 -0.312976,0.10207 -0.237182,0.69458 -0.642688,0.8189 -0.657396,-0.0754 -0.35852,-0.66846 -0.943291,-0.77744 -0.325262,0.0538 -0.324705,0.66459 -0.673778,0.76707 -0.441059,-0.10912 -0.168588,-0.6955 -0.932919,-0.77742 -0.504337,0.34593 -0.949307,0.89981 -1.513421,1.03657 -0.767151,-0.28915 -1.033661,-0.83124 -1.668897,-1.05731 -0.291336,0.0594 -0.315016,0.71394 -0.642684,0.78777 -0.577979,-0.10318 -0.39243,-0.73436 -0.984755,-0.77742 -0.338215,0.0758 -0.346457,0.76298 -0.684142,0.77742 -0.526158,-0.12472 -0.201771,-0.57336 -0.839631,-0.77742 -0.352728,0.13548 -0.355291,0.74275 -0.735974,0.80853 -0.24531,-0.1392 -0.49065,-0.36969 -0.735976,-0.41461 h -3.700602 l -7.701821,1.67925 -0.03117,0.55977 h 57.727304 l 0.0414,11.19509 c 0.29872,2.61354 1.7129,3.73984 4.00122,3.7006 1.951756,-0.36227 3.575996,-1.43186 3.596946,-3.7006 v -7.85732 h 0.88109 z"
       id="path2"
       sodipodi:nodetypes="cccccccccccccccccccccccccccccccccccccccscccccccccccccccccccccccccccccccccccccsccccccccccccccccccccccccccccccccccc"
       inkscape:label="profile_left" />
    <path
       style="fill:#4a8db7;fill-opacity:0.768047;fill-rule:evenodd;stroke:#b81e1e;stroke-width:0.0391564"
       d="m 106.57256,33.737505 h 2.4418 v 0.61605 l -0.11191,0.16782 c 0.13066,0.0984 0.27204,0.18968 0.28008,0.36976 -0.0659,-0.0344 -0.32875,0.44642 -0.22415,0.45926 0.10616,0.011 0.34984,0.39719 0.23527,0.44803 -0.12836,0.11069 -0.20308,0.31152 -0.26898,0.52643 0.26017,0.0892 0.29121,0.24101 0.32492,0.39206 -0.17319,0.0716 -0.30078,0.18123 -0.34714,0.35826 0.20499,0.20883 0.26246,0.31955 0.34714,0.44803 -0.19273,0.11719 -0.25518,0.29044 -0.30231,0.47045 0.21342,0.18545 0.21534,0.30079 0.24637,0.42563 -0.21802,0.0916 -0.28277,0.2387 -0.26898,0.41442 0.2046,0.16055 0.30768,0.3211 0.28009,0.48164 -0.1659,0.0916 -0.32991,0.18392 -0.26859,0.35826 0.28737,0.3414 0.3548,0.3119 0.33603,0.47045 0.002,0.24944 -0.20538,0.28776 -0.33603,0.40324 0.002,0.21304 0.21035,0.33757 0.34714,0.49283 -0.0463,0.28431 -0.26898,0.15671 -0.36976,0.39206 0.0697,0.28852 0.21612,0.30768 0.32493,0.45921 -0.20768,0.13066 -0.30193,0.28776 -0.23526,0.48164 v 1.04172 c 0.3276,1.79601 1.73497,2.36386 2.58739,2.32976 1.36717,-0.32569 2.03017,-1.12483 2.17297,-2.27378 v -0.78407 c 0.14293,-0.12569 0.1594,-0.24292 0.1456,-0.35826 -0.0398,-0.2506 0.11192,-0.0935 -0.34714,-0.44804 0.305,-0.12798 0.33106,-0.28928 0.38086,-0.44804 -0.10615,-0.2456 -0.25633,-0.35902 -0.41442,-0.44802 0.0555,-0.22531 0.4524,-0.20883 0.42561,-0.48164 -0.0598,-0.17242 -0.30079,-0.17128 -0.36975,-0.35826 0.0736,-0.26478 0.39768,-0.0878 0.36975,-0.45923 -0.082,-0.25059 -0.33489,-0.29887 -0.33603,-0.44804 0.0916,-0.34216 0.2092,-0.2912 0.31381,-0.43684 -0.0548,-0.27856 -0.36363,-0.2253 -0.34715,-0.47045 0.0525,-0.22071 0.33029,-0.26438 0.36975,-0.41444 -0.0697,-0.24483 -0.38664,-0.20651 -0.32492,-0.42561 0.0997,-0.16016 0.36631,-0.29235 0.2912,-0.48164 -0.0306,-0.16131 -0.28852,-0.15135 -0.31381,-0.34714 0.0414,-0.16514 0.42221,-0.30615 0.38086,-0.45923 -0.0919,-0.22722 -0.37626,-0.29963 -0.39204,-0.44807 0.0575,-0.2322 0.27856,-0.29121 0.39788,-0.43681 -0.12875,-0.17932 -0.42084,-0.34026 -0.38677,-0.53766 0.11952,-0.0858 0.35481,-0.14598 0.35826,-0.25749 0.0268,-0.27664 -0.17166,-0.32837 -0.25749,-0.49282 v -7.50459 c -0.21151,-0.13027 -0.42677,-0.25902 -0.38086,-0.48164 0.31725,-0.45022 0.79988,-0.27818 0.95208,-0.76165 -0.22109,-0.42348 -0.97964,-0.45394 -0.90725,-0.85129 0.0685,-0.71781 0.90437,-0.34292 0.80644,-0.81767 -0.1797,-0.4212 -0.87906,-0.47459 -0.85127,-0.87365 0.21188,-0.37474 0.82123,-0.3437 0.86246,-0.76166 -0.11424,-0.36094 -0.89124,-0.39926 -0.85124,-0.8289 0.21993,-0.43466 0.95573,-0.32224 0.81763,-0.86246 -0.069,-0.42237 -1.0647,-0.3801 -0.81763,-0.91848 0.28354,-0.2165 0.84921,-0.31075 0.85124,-0.64963 -0.082,-0.56563 -1.03347,-0.55252 -0.84005,-0.94089 0.13104,-0.45474 0.84032,-0.3257 0.82886,-0.78407 -0.0747,-0.34831 -1.01297,-0.43904 -0.86246,-0.86248 0.25979,-0.41006 0.83204,-0.36055 0.88488,-0.73923 -0.11731,-0.30615 -0.94324,-0.61233 -0.81768,-0.91848 0.097,-0.45869 0.9055,-0.33221 0.89607,-0.80646 -0.37244,-0.1433 -0.97917,-0.49029 -0.91848,-0.85127 0.15939,-0.48728 0.83166,-0.20116 0.87369,-0.75047 -0.18775,-0.50945 -1.04662,-0.45902 -0.89607,-0.86246 0.27665,-0.59372 0.85561,-0.36248 0.89607,-0.86247 -0.18621,-0.25748 -1.08432,-0.4577701 -0.88488,-0.7728801 0.21457,-0.67659 0.87499,-0.29389 0.87365,-0.84005 -0.26514,-0.29121 -0.98841,-0.38807 -0.79526,-0.8737 0.17435,-0.4916 0.91799,-0.23641 0.84009,-0.75046 -0.20575,-0.44176 -1.06906,-0.46757 -0.91848,-0.85124 0.30232,-0.25749 0.89438,-0.45735 0.90729,-0.77288 -0.15249,-0.28393 -1.30046,-0.59249 -0.87369,-0.92254 0.20155,-0.55085 0.83427,-0.44999 0.82886,-0.7576 -0.20078,-0.40229 -1.13424,-0.49478 -0.88487,-0.87365 0.223,-0.44854 0.91874,-0.34332 0.86246,-0.82887 -0.17128,-0.29236 -0.8935,-0.41788 -0.78403,-0.76165 0.12721,-0.46488994 0.77706,-0.56708994 0.77284,-0.87368994 -0.26055,-0.28623 -1.00596,-0.47919 -0.76165,-0.86248 0.16399,-0.49378 0.82005,-0.38366 0.84008,-0.72805006 -0.22261,-0.34177 -0.95553,-0.51102 -0.8289,-0.89606 0.26516,-0.26898 0.83872,-0.49651 0.79526,-0.80648 -0.27242,-0.27244 -0.94178,-0.43571 -0.81763,-0.81769 0.13603,-0.3881 0.92538,-0.23602 0.78403,-0.85123 -0.2912,-0.27627 -0.90112,-0.48662 -0.87365,-0.82887 0.223,-0.38764 1.0324,-0.16361 0.90725,-0.80648 -0.2912,-0.24637 -0.87059,-0.47682 -0.87365,-0.73924 0.20039,-0.54417 0.88971,-0.50329 0.87365,-0.90729 -0.30768,-0.27205 -0.83897,-0.49586 -0.91844,-0.81769 0.27358,-0.45581 1.01875,-0.39043 0.95208,-0.87364 -0.29159,-0.25404 -0.96277,-0.48666 -0.87369,-0.7616599 0.0153,-0.39588 0.65831,-0.48222 0.71687,-0.80648 -0.24638,-0.27627 -0.69281,-0.49375 -0.73928,-0.82887 0.27473,-0.26745 0.64383,-0.53417 0.63847,-0.82886 -0.20921,-0.32493 -0.59717,-0.64966 -0.62724,-0.97447 0.22031,-0.25404 0.72744,-0.39304 0.66084,-0.76169 -0.14676,-0.31113 -0.70288,-0.48149 -0.70567,-0.70564 0.0993,-0.53834 0.55995,-0.56888 0.61605,-0.87365 -0.20155,-0.27243 -0.6761,-0.54513 -0.60483,-0.81768 0.087,-0.5029 0.48536,-0.31381 0.72805,-0.47044 0.20423,-0.11192 0.20461,-0.31152 0.17932,-0.47045 -0.17932,-0.22033 -0.47248,-0.37819 -0.53765,-0.66085 l 0.0559,-3.57309 1.4225,-7.28059 c 0.0625,-0.13526 0.12759,-0.26821 0.33603,-0.25748 0.24409,0.0647 0.41945,0.16361 0.42567,0.34714 v 92.60912 h -2.24022 v -4.60357 c 0.12683,-0.10235 0.25098,-0.20576 0.24638,-0.38087 -0.27167,-0.17856 -0.26285,-0.31994 -0.32493,-0.47041 0.10542,-0.10579 0.31037,-0.1479 0.26898,-0.34714 -0.2686,-0.19312 -0.29351,-0.34332 -0.31381,-0.49287 0.21113,-0.18507 0.29963,-0.31458 0.34714,-0.42562 -0.15824,-0.1456 -0.36783,-0.2912 -0.31381,-0.43684 0.10616,-0.14561 0.31727,-0.2778 0.31381,-0.43681 -0.10419,-0.15941 -0.32415,-0.33796 -0.26898,-0.47046 0.095,-0.14139 0.29313,-0.27127 0.26898,-0.42565 -0.11608,-0.15327 -0.37855,-0.35022 -0.34714,-0.45922 0.10113,-0.12038 0.28546,-0.14407 0.31381,-0.35827 0.0153,-0.15671 -0.42619,-0.33373 -0.32492,-0.50405 0.11228,-0.14944 0.48049,-0.29848 0.33603,-0.44803 -0.10003,-0.14216 -0.33986,-0.29696 -0.29121,-0.42566 0.11915,-0.1456 0.41823,-0.29121 0.34716,-0.43681 -0.10849,-0.14178 -0.44543,-0.25328 -0.32493,-0.42565 0.10076,-0.13066 0.42282,-0.24791 0.2912,-0.39202 -0.11608,-0.15326 -0.42205,-0.35022 -0.34714,-0.45923 0.11192,-0.13448 0.42232,-0.24905 0.33604,-0.40323 l -0.21304,-0.41444 0.0231,-0.61605 c -0.21304,-1.35778 -0.75756,-2.3044 -2.02736,-2.35222 -2.36413,-0.0544 -2.33026,1.38718 -2.67703,2.4754 v 0.70568 l -0.0896,0.35826 c 0.21035,-0.0268 0.26476,0.13832 0.34714,0.26898 -0.0191,0.21726 -0.24139,0.29963 -0.38086,0.43685 0.10039,0.14023 0.12912,0.27205 0.33603,0.42562 0.0892,0.15326 -0.18584,0.30615 -0.28009,0.45925 -0.007,0.15557 0.22261,0.33528 0.34714,0.50402 -0.14292,0.10922 -0.34638,0.16592 -0.38086,0.36976 -0.0191,0.20613 0.19886,0.3073 0.30231,0.45922 -0.0984,0.13411 -0.27434,0.14599 -0.28009,0.42566 -0.011,0.223 0.205,0.29388 0.31381,0.43685 -0.1774,0.13372 -0.32147,0.27358 -0.33603,0.43681 0.0625,0.13448 0.0384,0.26897 0.29121,0.40323 -0.0344,0.32225 -0.18469,0.29734 -0.30233,0.36976 -10e-4,0.20691 0.1253,0.36017 0.30233,0.49283 0.11265,0.22415 -0.18622,0.28392 -0.2801,0.42562 -0.0582,0.19656 0.2027,0.32262 0.31382,0.48167 -0.007,0.21074 -0.19351,0.24523 -0.2801,0.41444 -0.0667,0.14254 0.15135,0.32032 0.23526,0.48164 0.0663,0.20306 -0.16936,0.25517 -0.25749,0.38086 v 0.61605 h -2.3522 v -1.47852 h 0.92966 v -8.00864 l 0.20155,-1.34414 0.86247,-1.78096 v -0.32492 l -0.84461,-1.46296 -0.24178,-1.31487 v -8.03107 l -0.95208,-0.023 z"
       id="path3"
       sodipodi:nodetypes="cccccscccccccccccccccccccccccccccccccccccccccccccccccccccccccccccccccccccccccccccccccccccccccccccccccccccccccccccccccccccccccccccccccccccccccccccccccccccccccccccccccc"
       inkscape:label="profile_right_corner" />
  </g>
</svg>
