<?xml version="1.0" encoding="UTF-8" standalone="no"?>
<!-- Created with Inkscape (http://www.inkscape.org/) -->

<svg
   width="210mm"
   height="297mm"
   viewBox="0 0 210 297"
   version="1.1"
   id="svg1"
   inkscape:version="1.4 (86a8ad7, 2024-10-11)"
   sodipodi:docname="DSHL-15-corner.svg"
   xmlns:inkscape="http://www.inkscape.org/namespaces/inkscape"
   xmlns:sodipodi="http://sodipodi.sourceforge.net/DTD/sodipodi-0.dtd"
   xmlns="http://www.w3.org/2000/svg"
   xmlns:svg="http://www.w3.org/2000/svg">
  <sodipodi:namedview
     id="namedview1"
     pagecolor="#ffffff"
     bordercolor="#000000"
     borderopacity="0.25"
     inkscape:showpageshadow="2"
     inkscape:pageopacity="0.0"
     inkscape:pagecheckerboard="0"
     inkscape:deskcolor="#d1d1d1"
     inkscape:document-units="mm"
     inkscape:zoom="2.0935044"
     inkscape:cx="206.83023"
     inkscape:cy="180.31966"
     inkscape:window-width="2560"
     inkscape:window-height="1377"
     inkscape:window-x="-8"
     inkscape:window-y="-8"
     inkscape:window-maximized="1"
     inkscape:current-layer="svg1" />
  <defs
     id="defs1" />
  <path
     style="fill:#4a8db7;fill-opacity:0.768047;fill-rule:evenodd;stroke:#b81e1e;stroke-width:0.041629"
     d="m 87.07508,18.143407 v 16.19515 l -0.20817,0.36092 H 30.773167 v 2.2114 H 93.0293 l 2.40754,-1.92661 0.62314,-2.21458 v -8.51721 h 0.95856 v -1.60166 h -2.56621 v 0.55372 c 0.0599,0.0876 0.17761,0.18331 0.13688,0.25623 -0.10551,0.11691 -0.33526,0.23423 -0.31571,0.35115 0.0163,0.17475 0.38007,0.36662 0.29167,0.52394 -0.0367,0.24523 -0.20653,0.26194 -0.30959,0.39311 0.0204,0.18086 0.25827,0.18005 0.33933,0.45844 -0.008,0.17883 -0.33526,0.30837 -0.3157,0.50016 0.003,0.28963 0.21019,0.32955 0.3157,0.49421 -0.0554,0.22567 -0.36662,0.30144 -0.33933,0.43465 0.0407,0.20816 0.20572,0.29045 0.3157,0.42867 -0.0285,0.17068 -0.30633,0.30348 -0.33363,0.47632 0.13117,0.30389 0.23831,0.29371 0.35726,0.44064 0.008,0.22976 -0.20205,0.32956 -0.30348,0.49417 -0.0245,0.25501 0.26804,0.34463 0.26804,0.53589 -0.0974,0.15072 -0.37436,0.1442 -0.29167,0.45249 0.0994,0.13688 0.33444,0.2986 0.29778,0.41083 -0.008,0.20082 -0.2876,0.27578 -0.30959,0.4287 0.0326,0.23994 0.25623,0.3597 0.29859,0.5169 -0.0974,0.14136 -0.23871,0.343 -0.29248,0.42386 0.0326,0.17109 0.18046,0.31407 0.29778,0.46443 0.0244,0.13728 -0.0591,0.20857 -0.14299,0.27986 v 0.89314 c -0.13687,1.84021 -1.22636,2.33564 -2.44713,2.51858 -1.55579,-0.0623 -2.40966,-1.00165 -2.62577,-2.59598 v -0.79191 l -0.11324,-0.26804 c 0.0285,-0.18372 0.29044,-0.27823 0.27374,-0.47034 -0.0953,-0.14665 -0.277,-0.19635 -0.28596,-0.44064 -0.0245,-0.24646 0.34218,-0.25542 0.26804,-0.48228 -0.0807,-0.14665 -0.26193,-0.29371 -0.23831,-0.4406 -0.0204,-0.16987 0.23912,-0.32467 0.25012,-0.4525 -0.0957,-0.16661 -0.30878,-0.33322 -0.28597,-0.50015 0.003,-0.22894 0.20206,-0.30593 0.30349,-0.45845 -0.10103,-0.16701 -0.36337,-0.38495 -0.29778,-0.50015 0.0326,-0.14217 0.37192,-0.25216 0.29167,-0.45849 -0.0929,-0.15317 -0.29412,-0.32589 -0.27375,-0.45844 0.003,-0.1328 0.25868,-0.25338 0.25623,-0.39881 -0.0872,-0.15683 -0.28189,-0.32385 -0.25623,-0.47038 0.0872,-0.16457 0.31123,-0.35684 0.26193,-0.49421 -0.0912,-0.17679 -0.31529,-0.34014 -0.27374,-0.52989 0.0892,-0.14502 0.37762,-0.20694 0.26804,-0.43465 -0.0892,-0.14869 -0.28434,-0.31082 -0.26804,-0.44655 0.0994,-0.13484 0.31407,-0.27008 0.29778,-0.40492 -0.10143,-0.16865 -0.37885,-0.33729 -0.30348,-0.5061 0.0538,-0.13891 0.18005,-0.29004 0.1609,-0.41677 v -4.82283 z"
     id="path3-8"
     sodipodi:nodetypes="ccccccccccccccccccccccccccccccccccccccccccccccccccccccccccc" />
  <path
     style="fill:#4a8db7;fill-opacity:0.768047;fill-rule:evenodd;stroke:#b81e1e;stroke-width:0.0339124"
     d="m 109.27493,22.462545 h 2.11478 v 0.53354 l -0.0969,0.14535 c 0.11316,0.0852 0.23561,0.16427 0.24258,0.32024 -0.0571,-0.0298 -0.28473,0.38663 -0.19413,0.39775 0.0919,0.01 0.30298,0.344 0.20375,0.38803 -0.11116,0.0959 -0.17588,0.2698 -0.23295,0.45592 0.22531,0.0772 0.2522,0.20874 0.2814,0.33956 -0.14999,0.062 -0.26049,0.15696 -0.30065,0.31028 0.17754,0.18086 0.2273,0.27675 0.30065,0.38802 -0.16692,0.1015 -0.22101,0.25155 -0.26182,0.40745 0.18483,0.16061 0.1865,0.26051 0.21337,0.36863 -0.18883,0.0793 -0.2449,0.20673 -0.23295,0.35891 0.17719,0.13905 0.26647,0.2781 0.24257,0.41714 -0.14368,0.0793 -0.28572,0.15929 -0.23261,0.31028 0.24888,0.29568 0.30728,0.27013 0.29102,0.40744 0.002,0.21604 -0.17786,0.24923 -0.29102,0.34924 0.002,0.18451 0.18218,0.29236 0.30064,0.42683 -0.0401,0.24623 -0.23296,0.13572 -0.32023,0.33955 0.0604,0.24988 0.18717,0.26647 0.28141,0.39771 -0.17987,0.11316 -0.2615,0.24922 -0.20376,0.41714 v 0.9022 c 0.28372,1.55549 1.50261,2.04729 2.24088,2.01775 1.18407,-0.28207 1.75827,-0.97419 1.88194,-1.96926 v -0.67907 c 0.12379,-0.10885 0.13806,-0.21038 0.12611,-0.31028 -0.0345,-0.21703 0.0969,-0.081 -0.30065,-0.38803 0.26415,-0.11084 0.28672,-0.25054 0.32985,-0.38804 -0.0919,-0.21271 -0.222,-0.31094 -0.35891,-0.38802 0.048,-0.19513 0.3918,-0.18086 0.36861,-0.41713 -0.0518,-0.14933 -0.26051,-0.14834 -0.32024,-0.31028 0.0638,-0.22932 0.34443,-0.076 0.32024,-0.39773 -0.071,-0.21703 -0.29004,-0.25884 -0.29103,-0.38804 0.0793,-0.29633 0.18118,-0.2522 0.27178,-0.37833 -0.0475,-0.24125 -0.31493,-0.19513 -0.30066,-0.40745 0.0455,-0.19115 0.28606,-0.22897 0.32023,-0.35893 -0.0604,-0.21204 -0.33486,-0.17885 -0.2814,-0.36861 0.0864,-0.13871 0.31726,-0.2532 0.2522,-0.41714 -0.0265,-0.1397 -0.24987,-0.13108 -0.27178,-0.30065 0.0359,-0.14302 0.36566,-0.26515 0.32986,-0.39772 -0.0796,-0.19679 -0.32587,-0.25951 -0.33954,-0.38807 0.0498,-0.2011 0.24126,-0.2522 0.34459,-0.37831 -0.11151,-0.1553 -0.36448,-0.29469 -0.33497,-0.46565 0.10351,-0.0743 0.30729,-0.12643 0.31028,-0.223 0.0232,-0.23959 -0.14868,-0.2844 -0.22301,-0.42682 v -6.49953 c -0.18318,-0.11283 -0.36961,-0.22433 -0.32985,-0.41714 0.27476,-0.38992 0.69275,-0.24092 0.82457,-0.65964 -0.19148,-0.36677 -0.84843,-0.39315 -0.78574,-0.73729 0.0593,-0.62167 0.78324,-0.29699 0.69844,-0.70816 -0.15565,-0.36479 -0.76134,-0.41103 -0.73727,-0.75664 0.18351,-0.32456 0.71125,-0.29767 0.74696,-0.65966 -0.0989,-0.3126 -0.77189,-0.34579 -0.73725,-0.71789 0.19049,-0.37644 0.82774,-0.27908 0.70813,-0.74695 -0.0598,-0.3658 -0.9221,-0.3292 -0.70813,-0.795471 0.24558,-0.1875095 0.73549,-0.2691295 0.73725,-0.5626295 -0.071,-0.48988 -0.89507,-0.47852 -0.72756,-0.81488 0.1135,-0.39384 0.72779,-0.28208 0.71787,-0.67906 -0.0647,-0.30167 -0.87731,-0.38025 -0.74696,-0.74698 0.225,-0.35514 0.72061,-0.31226 0.76638,-0.64022 -0.10162,-0.26515 -0.81692,-0.53033 -0.70818,-0.79548 0.084,-0.39725 0.78422,-0.28771 0.77607,-0.69845 -0.32257,-0.12411 -0.84804,-0.42463 -0.79548,-0.73726 0.13805,-0.42202 0.72028,-0.17422 0.75669,-0.64996 -0.16262,-0.44123 -0.90646,-0.39755 -0.77607,-0.74696 0.2396,-0.5142 0.74102,-0.31393 0.77607,-0.74696 -0.16128,-0.223 -0.93911,-0.39647 -0.76638,-0.66937 0.18583,-0.58597998 0.75781,-0.25453 0.75665,-0.72754998 -0.22963,-0.25221 -0.85604,-0.3361 -0.68876,-0.75669 0.151,-0.42576 0.79505,-0.20475 0.72759,-0.64995 -0.1782,-0.38260004 -0.9259,-0.40495002 -0.79548,-0.73724002 0.26183,-0.223 0.7746,-0.3961 0.78579,-0.66937 -0.13208,-0.2459 -1.1263,-0.51314 -0.75669,-0.79899 0.17456,-0.47708 0.72254,-0.38972 0.71785,-0.65614 -0.1739,-0.34841 -0.98233,-0.42851 -0.76636,-0.75664 0.19313,-0.38847 0.7957,-0.29734 0.74696,-0.71786 -0.14836,-0.25321 -0.77385,-0.36192 -0.67904,-0.65965 0.11017,-0.40263 0.67299,-0.49114 0.66935,-0.75668 -0.22566,-0.2479 -0.87125,-0.41501 -0.65966,-0.74697 0.14203,-0.42765 0.71024,-0.33228 0.72758,-0.63055 -0.1928,-0.29599 -0.82757,-0.44258 -0.71789,-0.77605 0.22965,-0.23296 0.72639,-0.43002 0.68875,-0.69847 -0.23594,-0.23596 -0.81565,-0.37736 -0.70813,-0.7081795 0.11781,-0.33613 0.80145,-0.20441 0.67904,-0.73723 -0.2522,-0.23927 -0.78044,-0.42145 -0.75665,-0.71786 0.19313,-0.33573 0.89413,-0.1417 0.78574,-0.69848 -0.2522,-0.21337 -0.75399,-0.41296 -0.75665,-0.64023 0.17356,-0.47129 0.77057,-0.43589 0.75665,-0.78578 -0.26648,-0.23562 -0.7266,-0.42945 -0.79543,-0.70818 0.23693,-0.39477 0.88231,-0.33814 0.82457,-0.75664 -0.25254,-0.22002 -0.80489,-0.58545 -0.72775,-0.82362 0.0133,-0.34286 0.67625,-0.69734 0.72696,-0.97817 -0.0205,-0.34536 0.0176,0.0256 -0.023,-0.26456 0.0933,-0.11589 -0.15609,-0.46263 -0.25721,-0.71785 -0.18118,-0.28142 -0.43039,-0.42763 -0.45642,-0.70894 0.1908,-0.22001 0.60108,-0.48507 0.5434,-0.80435 -0.12711,-0.26946 -0.60874,-0.417 -0.61116,-0.61113 0.086,-0.46624 0.48495,-0.49269 0.53354,-0.75665 -0.17456,-0.23594 -0.58555,-0.47212 -0.52382,-0.70817 0.0753,-0.43555 0.42035,-0.27178 0.63054,-0.40744 0.17687,-0.0969 0.1772,-0.26979 0.15531,-0.40744 -0.15531,-0.19082 -0.40921,-0.32754 -0.46566,-0.57234 l 0.0484,-3.09456 1.23199,-6.305541 c 0.0541,-0.117145 0.11051,-0.232289 0.29102,-0.222997 0.21141,0.05603 0.36329,0.141699 0.36868,0.30065 v 80.206357 h -1.9402 v -3.987029 c 0.10984,-0.0887 0.21736,-0.1782 0.21337,-0.32986 -0.23528,-0.15465 -0.22764,-0.27709 -0.28142,-0.40741 0.0913,-0.0916 0.26882,-0.12809 0.23297,-0.30065 -0.23263,-0.16725 -0.2542,-0.29734 -0.27178,-0.42686 0.18286,-0.16028 0.2595,-0.27245 0.30065,-0.36861 -0.13705,-0.1261 -0.31857,-0.2522 -0.27178,-0.37834 0.0919,-0.12611 0.27477,-0.24059 0.27178,-0.37831 -0.0902,-0.13806 -0.28075,-0.2927 -0.23296,-0.40745 0.0823,-0.12245 0.25387,-0.23494 0.23296,-0.36865 -0.10053,-0.13275 -0.32785,-0.30331 -0.30065,-0.39772 0.0876,-0.10425 0.24723,-0.12478 0.27178,-0.31029 0.0133,-0.13572 -0.36911,-0.28903 -0.2814,-0.43654 0.0972,-0.12943 0.41614,-0.25851 0.29103,-0.38803 -0.0867,-0.12312 -0.29435,-0.25719 -0.25222,-0.36865 0.10319,-0.12611 0.36222,-0.25221 0.30067,-0.37831 -0.094,-0.1228 -0.38578,-0.21936 -0.28141,-0.36865 0.0873,-0.11316 0.36619,-0.21471 0.2522,-0.33952 -0.10053,-0.13273 -0.36553,-0.30331 -0.30065,-0.39773 0.0969,-0.11647 0.36576,-0.21569 0.29103,-0.34922 l -0.18451,-0.35894 0.02,-0.53354 c -0.1845,-1.17594 -0.6561,-1.99578 -1.75584,-2.0372 -2.04751,-0.0471 -2.01818,1.2014 -2.3185,2.14388 v 0.61117 l -0.0776,0.31028 c 0.18218,-0.0232 0.2293,0.1198 0.30065,0.23296 -0.0166,0.18816 -0.20906,0.2595 -0.32986,0.37834 0.0869,0.12145 0.11183,0.23562 0.29103,0.36862 0.0772,0.13274 -0.16095,0.26515 -0.24259,0.39775 -0.006,0.13473 0.19281,0.29037 0.30066,0.43651 -0.12378,0.0946 -0.29999,0.1437 -0.32986,0.32024 -0.0166,0.17853 0.17223,0.26615 0.26184,0.39772 -0.0852,0.11615 -0.23761,0.12644 -0.2426,0.36866 -0.01,0.19313 0.17756,0.25452 0.27179,0.37834 -0.15365,0.11581 -0.27842,0.23694 -0.29103,0.37831 0.0541,0.11647 0.0332,0.23295 0.25222,0.34923 -0.0298,0.27909 -0.15996,0.25751 -0.26185,0.32024 -8.7e-4,0.1792 0.10852,0.31193 0.26185,0.42682 0.0976,0.19413 -0.16128,0.2459 -0.24259,0.36862 -0.0504,0.17024 0.17555,0.27941 0.27178,0.41716 -0.006,0.18252 -0.16759,0.21239 -0.24258,0.35894 -0.0577,0.12345 0.13108,0.27742 0.20376,0.41714 0.0574,0.17586 -0.14669,0.22099 -0.22302,0.32985 v 0.53354 h -2.03716 v -1.2805 h 0.80514 v -6.93608 l 0.17457,-1.16413 0.74695,-1.54244 v -0.2814 l -0.7315,-1.26704 -0.2094,-1.13877 v -6.9555 l -0.82456,-0.0199 z"
     id="profile_right"
     sodipodi:nodetypes="cccccscccccccccccccccccccccccccccccccccccccccccccccccccccccccccccccccccccccccccccccccccccccccccccccccccccccccccccccccccccccccccccccccccccccccccccccccccccccccccccccccc"
     inkscape:label="profile_right_corner" />
</svg>
