<?xml version="1.0" encoding="UTF-8" standalone="no"?>
<!-- Created with Inkscape (http://www.inkscape.org/) -->

<svg
   width="210mm"
   height="297mm"
   viewBox="0 0 210 297"
   version="1.1"
   id="svg1"
   inkscape:version="1.4 (86a8ad7, 2024-10-11)"
   sodipodi:docname="svg_file.svg"
   xmlns:inkscape="http://www.inkscape.org/namespaces/inkscape"
   xmlns:sodipodi="http://sodipodi.sourceforge.net/DTD/sodipodi-0.dtd"
   xmlns="http://www.w3.org/2000/svg"
   xmlns:svg="http://www.w3.org/2000/svg">
  <sodipodi:namedview
     id="namedview1"
     pagecolor="#ffffff"
     bordercolor="#000000"
     borderopacity="0.25"
     inkscape:showpageshadow="2"
     inkscape:pageopacity="0.0"
     inkscape:pagecheckerboard="0"
     inkscape:deskcolor="#d1d1d1"
     inkscape:document-units="mm"
     inkscape:zoom="2.9606624"
     inkscape:cx="208.56819"
     inkscape:cy="239.30456"
     inkscape:window-width="2560"
     inkscape:window-height="1377"
     inkscape:window-x="-8"
     inkscape:window-y="-8"
     inkscape:window-maximized="1"
     inkscape:current-layer="svg1" />
  <defs
     id="defs1">
    <linearGradient
       id="swatch7"
       inkscape:swatch="solid">
      <stop
         style="stop-color:#261a13;stop-opacity:1;"
         offset="0"
         id="stop7" />
    </linearGradient>
    <inkscape:perspective
       sodipodi:type="inkscape:persp3d"
       inkscape:vp_x="0 : 148.5 : 1"
       inkscape:vp_y="0 : 1000 : 0"
       inkscape:vp_z="210 : 148.5 : 1"
       inkscape:persp3d-origin="105 : 99 : 1"
       id="perspective2" />
    <clipPath
       id="clipId0">
      <path
         d="M 0,768 H 1024 V 0 H 0 Z"
         id="path1" />
    </clipPath>
    <clipPath
       id="clipPath2">
      <path
         d="M 0,768 H 1024 V 0 H 0 Z"
         id="path2" />
    </clipPath>
    <clipPath
       id="clipPath3">
      <path
         d="M 0,768 H 1024 V 0 H 0 Z"
         id="path3" />
    </clipPath>
    <clipPath
       id="clipPath4">
      <path
         d="M 0,768 H 1024 V 0 H 0 Z"
         id="path4" />
    </clipPath>
    <clipPath
       id="clipPath5">
      <path
         d="M 0,768 H 1024 V 0 H 0 Z"
         id="path5" />
    </clipPath>
    <clipPath
       id="clipPath6">
      <path
         d="M 0,768 H 1024 V 0 H 0 Z"
         id="path6" />
    </clipPath>
    <clipPath
       id="clipPath7">
      <path
         d="M 0,768 H 1024 V 0 H 0 Z"
         id="path7" />
    </clipPath>
    <clipPath
       id="clipPath8">
      <path
         d="M 0,768 H 1024 V 0 H 0 Z"
         id="path8" />
    </clipPath>
  </defs>
  <rect
     style="fill:#b8b8b8;fill-opacity:1;fill-rule:evenodd;stroke:#b81e1e;stroke-width:0.0221222"
     id="concrete_left"
     width="25.277342"
     height="40.260895"
     x="17.017006"
     y="25.564398" />
  <rect
     style="opacity:1;fill:#b8b8b8;fill-opacity:1;fill-rule:evenodd;stroke:#b81e1e;stroke-width:0.0221085"
     id="concrete_right"
     width="25.349407"
     height="40.096676"
     x="77.33847"
     y="25.71372" />
  <path
     d="m 59.777516,18.005456 h -2.52793 l -0.481837,2.73272 -0.0069,0.03254 -0.009,0.0315 -0.01152,0.0315 -0.01367,0.03044 -0.01585,0.02939 -0.01793,0.02835 -0.02007,0.02729 -0.02088,0.0252 -0.023,0.02416 -0.02407,0.02205 -0.02621,0.01995 -0.02729,0.01888 -0.02836,0.01687 -0.02939,0.0146 -0.03046,0.0126 -0.03149,0.01018 -0.03256,0.0078 -0.03256,0.0057 -0.03258,0.0035 -0.03257,0.0013 -0.0336,-0.0013 -0.03256,-0.0035 -0.03257,-0.0057 -0.03256,-0.0078 -0.03148,-0.01018 -0.03046,-0.0126 -0.02939,-0.0146 -0.02836,-0.01687 -0.02729,-0.01888 -0.02621,-0.01995 -0.02407,-0.02205 -0.02302,-0.02416 -0.02112,-0.0252 -0.02007,-0.02729 -0.01793,-0.02835 -0.01584,-0.02939 -0.01367,-0.03044 -0.01152,-0.0315 -0.01584,-0.06404 -0.481837,-2.732729 h -5.057655 l -0.481835,2.732729 -0.0069,0.03254 -0.009,0.0315 -0.01152,0.0315 -0.01367,0.03044 -0.01585,0.02939 -0.01792,0.02835 -0.02007,0.02729 -0.02112,0.0252 -0.023,0.02416 -0.02514,0.02205 -0.02621,0.01995 -0.02729,0.01888 -0.02836,0.01687 -0.02939,0.0146 -0.03046,0.0126 -0.03148,0.01018 -0.03257,0.0078 -0.03258,0.0057 -0.03256,0.0035 -0.03256,0.0013 -0.0336,-0.0013 -0.03258,-0.0035 -0.03258,-0.0057 -0.03256,-0.0078 -0.03149,-0.01018 -0.03045,-0.0126 -0.02939,-0.0146 -0.02836,-0.01687 -0.02729,-0.01888 -0.02621,-0.01995 -0.02514,-0.02205 -0.023,-0.02416 -0.02088,-0.0252 -0.02007,-0.02729 -0.01793,-0.02835 -0.01585,-0.02939 -0.01367,-0.03044 -0.01152,-0.0315 -0.01585,-0.06404 -0.481556,-2.732729 H 42.8614 v 1.42271 h 0.474276 v 0.379359 l -0.469655,0.316149 0.86476,1.359471 h 0.632298 l 0.869188,-1.359471 -0.474274,-0.316149 v -0.379359 h 0.948447 0.01152 l 0.01152,0.0013 0.01041,0.002 0.01041,0.0025 0.01041,0.0034 0.01018,0.0041 0.0098,0.0048 0.0097,0.0055 0.009,0.0061 0.0086,0.0068 0.0084,0.0074 0.0073,0.0078 0.0069,0.0085 0.0068,0.0089 0.0057,0.0094 0.0053,0.0098 0.0045,0.01 0.0039,0.0103 0.0034,0.01045 0.0034,0.01045 v 0.01045 0.01681 l -0.316029,1.897274 h 1.517999 l 0.0882,0.0034 0.0882,0.0094 0.08713,0.01583 0.08609,0.02088 0.084,0.0273 0.08188,0.03256 0.07981,0.03884 0.07665,0.04409 0.0735,0.04935 0.06929,0.05461 0.06508,0.05881 0.06089,0.063 0.05669,0.06721 0.05145,0.0714 0.04724,0.07457 0.04096,0.07769 0.03567,0.08085 0.03046,0.08296 0.02407,0.08506 0.004,0.0146 0.08609,0.312897 0.107197,0.30617 0.128311,0.297985 0.148776,0.288325 0.168526,0.277193 0.187405,0.264804 0.20549,0.251051 0.222482,0.236044 0.238451,0.219965 0.253138,0.20287 0.266703,0.184679 0.27898,0.165578 0.289795,0.145718 0.299244,0.125162 0.307224,0.103925 0.313734,0.08189 0.318773,0.05985 0.32224,0.03779 0.324023,0.01584 0.324339,-0.0072 0.322974,-0.03044 0.320139,-0.05248 0.315728,-0.07456 0.309744,-0.09661 0.302186,-0.117786 0.293258,-0.138605 0.282863,-0.158759 0.15099,-0.09554 0.01899,-0.01152 0.02007,-0.01018 0.02007,-0.0088 0.02088,-0.0076 0.02088,-0.0058 0.02088,-0.0045 0.02194,-0.003 0.02195,-0.0013 h 0.02195 l 0.02195,0.0015 0.02194,0.0034 0.02088,0.0048 0.02088,0.0062 0.02113,0.0077 0.02007,0.009 0.01899,0.01041 0.01899,0.01152 0.01793,0.0126 0.01687,0.0146 0.01585,0.01585 0.0053,0.0054 0.261539,0.268899 0.279716,0.250009 0.296411,0.229944 0.311737,0.20862 0.325493,0.186473 0.337779,0.16327 0.348277,0.139343 0.357202,0.114651 0.364344,0.08926 0.369697,0.06404 0.373163,0.03779 0.355943,0.01152 0.374948,-0.0126 0.37306,-0.03885 0.36938,-0.06508 0.364029,-0.09029 0.356785,-0.115926 0.347855,-0.140495 0.33715,-0.164425 0.324969,-0.18762 0.311002,-0.2098 0.295571,-0.230987 0.278768,-0.251053 0.247894,-0.255787 0.01585,-0.01584 0.01687,-0.0146 0.01793,-0.01367 0.01793,-0.0126 0.01899,-0.01041 0.02007,-0.0097 0.02088,-0.0084 0.02112,-0.0068 0.02088,-0.0054 0.02195,-0.0039 0.02195,-0.0023 0.02195,-8.07e-4 0.02194,9.68e-4 0.02195,0.0024 0.02195,0.004 0.02088,0.0054 0.02112,0.0069 0.02088,0.0084 0.02007,0.0098 0.01899,0.01152 0.0058,0.004 0.276564,0.169557 0.287695,0.149837 0.297459,0.129341 0.305754,0.108261 0.312579,0.08713 0.317829,0.0651 0.321608,0.04199 0.323814,0.02007 0.324339,-0.003 0.323392,-0.02514 0.320874,-0.0483 0.316675,-0.07032 0.311004,-0.0924 0.303863,-0.113593 0.295149,-0.134487 0.285069,-0.154764 0.273627,-0.174298 0.260709,-0.19289 0.246745,-0.210627 0.231308,-0.227323 0.214936,-0.242972 0.197494,-0.257339 0.179031,-0.270476 0.159793,-0.282341 0.13965,-0.292733 0.118862,-0.301767 0.09764,-0.309426 0.04408,-0.173253 0.023,-0.08506 0.02939,-0.08295 0.03465,-0.08085 0.04095,-0.07875 0.0462,-0.07559 0.05144,-0.07246 0.05564,-0.06825 0.06089,-0.06404 0.06508,-0.05985 0.06929,-0.05563 0.07245,-0.05041 0.07559,-0.04516 0.07873,-0.03988 0.08188,-0.0336 0.08399,-0.02836 0.08506,-0.02195 0.08715,-0.01688 0.08821,-0.01041 0.0882,-0.0043 h 0.01585 1.517997 l -0.307645,-1.845664 -0.0034,-0.01045 -0.0034,-0.01045 -0.0034,-0.01045 v -0.01045 -0.01152 -0.01152 -0.01045 l 0.0034,-0.01045 0.0034,-0.01045 0.0035,-0.01045 0.0045,-0.01014 0.0053,-0.0098 0.0057,-0.0094 0.0062,-0.0091 0.0069,-0.0086 0.0076,-0.0081 0.0084,-0.0075 0.0086,-0.0069 0.009,-0.0063 0.0097,-0.0057 0.0098,-0.0051 0.01018,-0.0043 0.01041,-0.0035 0.01041,-0.0029 0.01041,-0.0023 0.01152,-0.0013 0.01152,-8.05e-4 0.0034,-2e-5 h 0.948448 v 0.379357 l -0.474275,0.316149 0.869383,1.359472 h 0.632297 l 0.864498,-1.358915 -0.469659,-0.316149 v -0.379146 h 0.474276 v -1.422528 h -5.533233 l -0.481836,2.73273 -0.0069,0.03256 -0.009,0.0315 -0.01152,0.0315 -0.01367,0.03044 -0.01585,0.02939 -0.01793,0.02835 -0.02007,0.02625 -0.02088,0.0252 -0.023,0.02416 -0.02407,0.02205 -0.02622,0.01995 -0.02729,0.0189 -0.02836,0.01687 -0.02939,0.0146 -0.03045,0.0126 -0.03149,0.01018 -0.03258,0.0078 -0.03257,0.0057 -0.03256,0.0035 -0.03256,0.0013 -0.03258,-0.0013 -0.03257,-0.0035 -0.03256,-0.0057 -0.03256,-0.0078 -0.03149,-0.01018 -0.03046,-0.0126 -0.02939,-0.0146 -0.02836,-0.01687 -0.02729,-0.0189 -0.02622,-0.01995 -0.02407,-0.02205 -0.02302,-0.02416 -0.02112,-0.0252 -0.02007,-0.02625 -0.01793,-0.02835 -0.01585,-0.02939 -0.01367,-0.03044 -0.01152,-0.0315 -0.01583,-0.06404 -0.481836,-2.73273 h -5.057774 l -0.481835,2.73273 -0.0069,0.03254 -0.009,0.0315 -0.01152,0.0315 -0.01367,0.03044 -0.01584,0.02939 -0.01793,0.02835 -0.02007,0.02729 -0.02112,0.02519 -0.023,0.02416 -0.02514,0.02205 -0.02622,0.01995 -0.02729,0.01888 -0.02836,0.01686 -0.02939,0.0146 -0.03044,0.0126 -0.03149,0.01018 -0.03258,0.0078 -0.03257,0.0057 -0.03256,0.0035 -0.03256,0.0013 -0.03256,-0.0013 -0.03257,-0.0035 -0.03256,-0.0057 -0.03255,-0.0078 -0.03149,-0.01018 -0.03046,-0.0126 -0.02939,-0.0146 -0.02836,-0.01686 -0.02729,-0.01888 -0.02622,-0.01995 -0.02407,-0.02205 -0.023,-0.02416 -0.02088,-0.02519 -0.02007,-0.02729 -0.01793,-0.02835 -0.01584,-0.02939 -0.01367,-0.03044 -0.01152,-0.0315 -0.01585,-0.06404 -0.481836,-2.732729 h -2.536414 m 1.257265,1.580786 0.02195,8.07e-4 0.02195,0.0023 0.02195,0.0038 0.02194,0.0054 0.02088,0.0068 0.02088,0.0082 0.02007,0.0097 0.01899,0.01152 0.01793,0.0126 0.01793,0.01367 0.01687,0.01475 0.0146,0.01575 0.0146,0.01681 0.0126,0.01784 0.01152,0.01888 0.01041,0.01996 0.0088,0.01996 0.0073,0.021 0.01041,0.04305 0.195807,1.110279 0.02514,0.118754 0.0336,0.116649 0.042,0.114017 0.04935,0.110882 0.05669,0.107197 0.06404,0.102896 0.0714,0.09868 0.0777,0.09347 0.08399,0.08713 0.07666,0.06929 0.05248,0.320135 0.07456,0.315732 0.09661,0.309744 0.117725,0.302286 0.138513,0.293367 0.158639,0.282968 0.177964,0.271211 0.04935,0.06825 0.0126,0.01793 0.01152,0.01899 0.0098,0.02007 0.0084,0.02007 0.0069,0.02088 0.0054,0.02088 0.0043,0.02194 0.0034,0.02195 v 0.02195 0.02194 l -0.0034,0.02195 -0.004,0.02194 -0.0053,0.02112 -0.0067,0.02088 -0.0084,0.02088 -0.0097,0.02007 -0.01152,0.01899 -0.0126,0.01793 -0.01367,0.01793 -0.0069,0.0081 -0.205385,0.215766 -0.219964,0.200863 -0.233421,0.185106 -0.245809,0.168404 -0.256938,0.150789 -0.266809,0.132522 -0.275412,0.113593 -0.282653,0.0945 -0.288532,0.07457 -0.292947,0.05356 -0.296095,0.0336 -0.29767,0.0126 h -0.03044 l -0.297774,-0.01041 -0.296303,-0.0315 -0.293364,-0.05144 -0.289057,-0.07245 -0.283285,-0.0924 -0.276253,-0.111614 -0.267743,-0.1306 -0.257981,-0.148992 -0.24696,-0.166614 -0.234785,-0.183419 -0.221435,-0.199391 -0.206965,-0.214293 -0.02088,-0.023 -0.01367,-0.01688 -0.0126,-0.01793 -0.01152,-0.01899 -0.01018,-0.02007 -0.0088,-0.02007 -0.0072,-0.02088 -0.0058,-0.02088 -0.0045,-0.02194 -0.0034,-0.02195 v -0.02195 -0.02195 l 0.0034,-0.02195 0.0034,-0.02194 0.0048,-0.02195 0.0062,-0.02115 0.0076,-0.02088 0.009,-0.02007 0.01041,-0.01899 0.01152,-0.01899 0.0058,-0.0086 0.182911,-0.267956 0.163703,-0.280031 0.143737,-0.290737 0.123164,-0.300084 0.101855,-0.30796 0.07979,-0.314362 0.05777,-0.319197 0.01152,-0.08399 0.08926,-0.08188 0.08297,-0.0882 0.07666,-0.09347 0.07037,-0.09868 0.06301,-0.103925 0.05564,-0.107735 0.04829,-0.111396 0.03989,-0.114452 0.03258,-0.116971 0.02112,-0.10079 0.195727,-1.110278 0.0045,-0.02205 0.0058,-0.021 0.0076,-0.021 0.0088,-0.01996 0.01041,-0.01996 0.01152,-0.01888 0.0126,-0.01784 0.0146,-0.01681 0.0146,-0.01575 0.01687,-0.01475 0.01793,-0.01368 0.01793,-0.0126 0.01899,-0.01152 0.02007,-0.0097 0.02088,-0.0081 0.02088,-0.0068 0.02088,-0.0054 0.02195,-0.0038 0.04408,-0.0031 h 1.257269 1.257264 v 0 m 2.650788,2.754127 0.11645,-0.03464 0.113822,-0.042 0.110584,-0.05041 0.106774,-0.05776 0.102895,-0.06508 0.09764,-0.07246 0.0924,-0.07875 0.08713,-0.08506 0.08085,-0.09029 0.07457,-0.09661 0.06722,-0.100813 0.05984,-0.105504 0.05248,-0.109417 0.04516,-0.112758 0.03677,-0.115713 0.02836,-0.117908 0.0097,-0.04935 0.195809,-1.11028 0.0045,-0.02205 0.0058,-0.021 0.0073,-0.021 0.0088,-0.01996 0.01041,-0.01996 0.01152,-0.0189 0.0126,-0.01784 0.0146,-0.01681 0.01583,-0.01575 0.01687,-0.01475 0.01792,-0.01367 0.01793,-0.0126 0.01899,-0.01152 0.02007,-0.0097 0.02088,-0.0082 0.02088,-0.0068 0.02112,-0.0054 0.02194,-0.0038 0.04408,-0.0031 h 2.516298 l 0.02195,8.07e-4 0.02195,0.0023 0.02195,0.0038 0.02088,0.0054 0.02088,0.0068 0.02088,0.0083 0.02007,0.0097 0.01899,0.01152 0.01793,0.0126 0.01793,0.01368 0.01687,0.01475 0.0146,0.01575 0.0146,0.01681 0.0126,0.01784 0.01152,0.01888 0.01041,0.01996 0.0088,0.01996 0.0073,0.021 0.01041,0.04305 0.195835,1.110281 0.02514,0.118754 0.0336,0.116649 0.042,0.114016 0.04935,0.110893 0.05669,0.107198 0.06404,0.102895 0.0714,0.09869 0.07769,0.09347 0.08399,0.08713 0.09029,0.08085 0.09554,0.07457 0.100801,0.06825 0.105115,0.06089 0.109085,0.05356 0.112564,0.04516 0.115374,0.03779 0.04935,0.01367 0.02112,0.0062 0.02088,0.0077 0.02007,0.009 0.01899,0.01041 0.01899,0.01152 0.01793,0.0126 0.01686,0.0146 0.01585,0.01584 0.0146,0.01686 0.01367,0.01792 0.0126,0.01793 0.01152,0.01899 0.0097,0.02007 0.0084,0.02088 0.0068,0.02088 0.0054,0.02088 0.004,0.02195 0.0034,0.02194 v 0.02195 0.02195 l -0.0034,0.02195 -0.0043,0.02195 -0.0054,0.02088 -0.0069,0.02088 -0.0054,0.01367 -0.103948,0.224057 -0.119814,0.216193 -0.134503,0.207364 -0.148669,0.197384 -0.162118,0.186577 -0.174725,0.174834 -0.186471,0.162239 -0.197384,0.148776 -0.207258,0.134703 -0.216086,0.119907 -0.223951,0.105012 -0.230801,0.0882 -0.236363,0.07245 -0.240751,0.05564 -0.244124,0.03884 -0.246212,0.02195 -0.247171,0.0045 -0.246852,-0.0126 -0.245274,-0.03045 -0.242651,-0.04727 -0.238773,-0.06404 -0.233717,-0.08085 -0.227535,-0.09661 -0.220287,-0.112152 -0.211885,-0.127266 -0.202548,-0.141632 -0.192036,-0.155487 -0.180797,-0.168524 -0.168628,-0.180693 -0.155589,-0.192034 -0.141848,-0.20244 -0.127373,-0.211779 -0.112334,-0.220179 -0.05145,-0.115374 -0.0081,-0.02088 -0.0062,-0.02088 -0.0053,-0.02112 -0.0035,-0.02194 -0.0034,-0.02195 v -0.02195 -0.02195 l 0.0034,-0.02194 0.0043,-0.02195 0.0057,-0.02088 0.0072,-0.02088 0.0086,-0.02007 0.01018,-0.02007 0.01152,-0.01899 0.0126,-0.01793 0.01367,-0.01687 0.0146,-0.01584 0.01584,-0.0146 0.01687,-0.01367 0.01793,-0.0126 0.01899,-0.01152 0.02007,-0.01018 0.02007,-0.0086 0.02088,-0.0072 0.01367,-0.004 v 0 m -7.603413,0.429653 -0.10396,0.224057 -0.119706,0.216193 -0.134472,0.207364 -0.14867,0.197494 -0.162117,0.186575 -0.174724,0.174832 -0.186472,0.162239 -0.197278,0.148869 -0.207256,0.134703 -0.216085,0.119907 -0.223951,0.105012 -0.230694,0.0882 -0.236366,0.07246 -0.240752,0.05564 -0.244124,0.03886 -0.246209,0.02195 -0.247065,0.0045 -0.246853,-0.0126 -0.245381,-0.03043 -0.242652,-0.04724 -0.23877,-0.06404 -0.233718,-0.08085 -0.227538,-0.09661 -0.220284,-0.112151 -0.211885,-0.127159 -0.202549,-0.141616 -0.19214,-0.155488 -0.1808,-0.168525 -0.168628,-0.18069 -0.155589,-0.192035 -0.141848,-0.202442 -0.127357,-0.211778 -0.112221,-0.220178 -0.05144,-0.115281 -0.0081,-0.02088 -0.0062,-0.02112 -0.0053,-0.02088 -0.0035,-0.02195 -0.0034,-0.02195 v -0.02195 -0.02195 l 0.0034,-0.02194 0.0043,-0.02195 0.0057,-0.02088 0.0072,-0.02088 0.0086,-0.02007 0.01018,-0.02007 0.01152,-0.01899 0.0126,-0.01793 0.01367,-0.01688 0.0146,-0.01584 0.01584,-0.0146 0.01688,-0.01367 0.01792,-0.0126 0.01899,-0.01152 0.02007,-0.01018 0.02007,-0.0086 0.02088,-0.0072 0.0146,-0.004 0.116449,-0.0336 0.113811,-0.042 0.110676,-0.05041 0.106877,-0.05776 0.102895,-0.06508 0.09764,-0.0714 0.0924,-0.07877 0.08715,-0.08506 0.08085,-0.09029 0.07457,-0.09554 0.06718,-0.100813 0.05985,-0.105402 0.05248,-0.109417 0.04516,-0.112758 0.03677,-0.115603 0.02836,-0.117909 0.0097,-0.0504 0.195726,-1.11028 0.0045,-0.02205 0.0058,-0.021 0.0073,-0.021 0.0088,-0.01996 0.01041,-0.01996 0.01152,-0.0189 0.0126,-0.01784 0.0146,-0.01681 0.0146,-0.01575 0.01688,-0.01475 0.01792,-0.01367 0.01793,-0.0126 0.01899,-0.01152 0.02007,-0.0097 0.02088,-0.0082 0.02088,-0.0068 0.02112,-0.0054 0.02194,-0.0038 0.04409,-0.0031 h 2.516328 l 0.02195,8.06e-4 0.02194,0.0023 0.02195,0.0038 0.02088,0.0054 0.02112,0.0068 0.02088,0.0081 0.02007,0.0097 0.01899,0.01152 0.01793,0.0126 0.01793,0.01367 0.01686,0.01475 0.0146,0.01575 0.0146,0.01681 0.0126,0.01784 0.01152,0.01888 0.01041,0.01996 0.0088,0.01996 0.0076,0.021 0.01041,0.04305 0.195726,1.110279 0.02514,0.118755 0.0336,0.116648 0.04199,0.114017 0.04935,0.110893 0.05669,0.107197 0.06404,0.102896 0.0714,0.09868 0.07769,0.09343 0.08401,0.08713 0.09029,0.08085 0.09554,0.07457 0.100802,0.06825 0.105115,0.06089 0.109085,0.05356 0.112564,0.04516 0.115389,0.03779 0.0483,0.0126 0.02112,0.0062 0.02088,0.0077 0.02007,0.009 0.02007,0.01041 0.01899,0.01152 0.01792,0.0126 0.01686,0.0146 0.01585,0.01584 0.0146,0.01686 0.01367,0.01793 0.0126,0.01899 0.01041,0.01899 0.0097,0.02007 0.0084,0.02088 0.0068,0.02112 0.0053,0.02088 0.004,0.02194 0.0034,0.02195 v 0.02195 0.02195 l -0.0034,0.02195 -0.0043,0.02194 -0.0054,0.02088 -0.0069,0.02088 -0.0054,0.01367 v 0 M 75.301152,19.90313 v -0.01367 -0.01368 l 0.0034,-0.01367 0.0035,-0.01367 0.0045,-0.0126 0.0053,-0.0126 0.0058,-0.0126 0.0069,-0.01152 0.0076,-0.01152 0.0086,-0.01045 0.009,-0.0103 0.0098,-0.0095 0.01041,-0.0089 0.01152,-0.0082 0.01152,-0.0074 0.0126,-0.0065 0.0126,-0.0057 0.0126,-0.0046 0.01367,-0.0038 0.01367,-0.0028 0.01367,-0.002 0.01367,-9.66e-4 h 0.01367 l 0.01367,9.66e-4 0.01367,0.002 0.01367,0.0028 0.01367,0.0038 0.0126,0.0046 0.0126,0.0057 0.01152,0.0065 0.01152,0.0074 0.01152,0.0082 0.01041,0.0089 0.0098,0.0095 0.009,0.0103 0.0086,0.01045 0.0076,0.01152 0.0069,0.01152 0.0058,0.0126 0.0053,0.0126 0.0045,0.0126 0.0035,0.01367 0.0034,0.01367 0.0034,0.0273 v 0.711363 0.01368 0.01367 l -0.0034,0.01367 -0.0035,0.01368 -0.0045,0.0126 -0.0053,0.0126 -0.0058,0.0126 -0.0069,0.01152 -0.0076,0.01152 -0.0086,0.01045 -0.009,0.01014 -0.0098,0.0095 -0.01041,0.0089 -0.01152,0.0081 -0.01152,0.0072 -0.01152,0.0066 -0.0126,0.0057 -0.0126,0.0046 -0.01367,0.0038 -0.01367,0.0029 -0.01367,0.0018 -0.01367,9.66e-4 h -0.01367 l -0.01367,-9.66e-4 -0.01367,-0.0018 -0.01367,-0.0029 -0.01367,-0.0038 -0.0126,-0.0046 -0.0126,-0.0057 -0.0126,-0.0066 -0.01152,-0.0072 -0.01152,-0.0081 -0.01041,-0.0089 -0.0098,-0.0095 -0.009,-0.01014 -0.0086,-0.01045 -0.0073,-0.01152 -0.0069,-0.01152 -0.0058,-0.0126 -0.0053,-0.0126 -0.0045,-0.0126 -0.0035,-0.01368 -0.0034,-0.01367 -0.0034,-0.02729 v -0.711359 0 m -31.062462,0 v 0.711359 0.01367 0.01368 l -0.0034,0.01368 -0.0035,0.01367 -0.0045,0.0126 -0.0053,0.0126 -0.0058,0.0126 -0.0069,0.01152 -0.0073,0.01152 -0.0086,0.01045 -0.009,0.01014 -0.0098,0.0095 -0.01041,0.0089 -0.01152,0.0081 -0.01152,0.0072 -0.01152,0.0066 -0.0126,0.0057 -0.0126,0.0046 -0.01367,0.0038 -0.01367,0.0029 -0.01367,0.0018 -0.01367,9.68e-4 h -0.01367 l -0.01367,-9.68e-4 -0.01367,-0.0018 -0.01367,-0.0029 -0.01367,-0.0038 -0.0126,-0.0046 -0.0126,-0.0057 -0.0126,-0.0066 -0.01152,-0.0072 -0.01152,-0.0081 -0.01041,-0.0089 -0.0098,-0.0095 -0.009,-0.01014 -0.0086,-0.01045 -0.0073,-0.01152 -0.0069,-0.01152 -0.0058,-0.0126 -0.0053,-0.0126 -0.0045,-0.0126 -0.0035,-0.01367 -0.0034,-0.01368 -0.0034,-0.02729 v -0.711357 -0.01367 -0.01367 l 0.0034,-0.01367 0.0035,-0.01367 0.0045,-0.0126 0.0053,-0.0126 0.0058,-0.0126 0.0069,-0.01152 0.0073,-0.01152 0.0086,-0.01045 0.009,-0.0103 0.0098,-0.0095 0.01041,-0.0089 0.01152,-0.0082 0.01152,-0.0074 0.0126,-0.0066 0.0126,-0.0057 0.0126,-0.0046 0.01367,-0.0038 0.01367,-0.0028 0.01367,-0.002 0.01367,-9.67e-4 h 0.01367 l 0.01367,9.67e-4 0.01367,0.002 0.01367,0.0028 0.01367,0.0038 0.0126,0.0046 0.0126,0.0057 0.01152,0.0066 0.01152,0.0074 0.01152,0.0082 0.01041,0.0089 0.0098,0.0095 0.009,0.0103 0.0086,0.01045 0.0073,0.01152 0.0069,0.01152 0.0058,0.0126 0.0053,0.0126 0.0045,0.0126 0.0035,0.01367 0.0034,0.01367 0.0034,0.0273 v 0"
     stroke="#000000"
     stroke-width="0"
     stroke-opacity="1"
     fill="#000000"
     fill-rule="evenodd"
     fill-opacity="1"
     id="compens"
     style="fill:#4c3b3b;fill-opacity:1" />
  <path
     d="m 42.230787,24.739614 v -6.670927 0 l 0.0034,-0.01784 0.0072,-0.01575 0.01152,-0.01367 0.0146,-0.0098 0.01688,-0.0055 0.01152,-9.68e-4 v 0 h 0.505879 v 0 l 0.01793,0.0025 0.01584,0.0072 0.01367,0.01152 0.0098,0.01475 0.0054,0.01681 v 0.01045 0 1.359481 0 h 0.316151 v 0 l 0.04408,0.0061 0.03989,0.01784 0.0336,0.02835 0.02407,0.03675 0.01367,0.04201 0.0034,0.0273 v 0 0.252942 0 l -0.0034,0.01784 -0.0072,0.01575 -0.01152,0.01367 -0.0146,0.0098 -0.01686,0.0055 -0.01152,9.68e-4 v 0 h -0.347749 v 0 l -0.01793,0.0025 -0.01583,0.0072 -0.01367,0.01152 -0.0098,0.01475 -0.0054,0.01681 v 0.01045 0 1.454317 0 l 0.0034,0.01784 0.0072,0.01567 0.01152,0.01367 0.0146,0.0098 0.01687,0.0054 0.01152,9.68e-4 v 0 h 2.244712 v 0 l 0.01793,-0.0024 0.01585,-0.0072 0.01367,-0.01152 0.0098,-0.0146 0.0054,-0.01687 v -0.01041 0 -1.454315 0 l -0.0034,-0.01784 -0.0072,-0.01575 -0.01152,-0.01367 -0.0146,-0.0098 -0.01686,-0.0055 -0.01152,-9.68e-4 v 0 h -0.34775 v 0 l -0.01793,-0.0025 -0.01585,-0.0072 -0.01367,-0.01152 -0.0098,-0.01475 -0.0054,-0.01681 v -0.01045 0 -0.252941 0 l 0.0058,-0.0441 0.01793,-0.0399 0.02836,-0.0336 0.03676,-0.02415 0.042,-0.01367 0.02729,-0.0025 v 0 h 0.727217 v 0 l 0.01793,0.0025 0.01585,0.0072 0.01367,0.01152 0.0098,0.01475 0.0054,0.01681 v 0.01045 0 1.928561 0 l 0.0034,0.01784 0.0072,0.01567 0.01152,0.01367 0.0146,0.0098 0.01687,0.0054 0.01152,9.68e-4 v 0 h 0.980163 v 0 l 0.01793,0.0024 0.01584,0.0072 0.01367,0.01152 0.0098,0.0146 0.0054,0.01686 v 0.01041 0 0.252951 0 0.252952 0 l -0.0034,0.01793 -0.0072,0.01584 -0.01152,0.01367 -0.0146,0.0098 -0.01687,0.0054 -0.01152,8.87e-4 v 0 h -0.980425 v 0 l -0.01793,0.0024 -0.01585,0.0072 -0.01367,0.01152 -0.0098,0.0146 -0.0054,0.01688 v 0.01041 0 1.928561 0 l -0.0034,0.01793 -0.0072,0.01584 -0.01152,0.01367 -0.0146,0.0098 -0.01686,0.0054 -0.01152,8.86e-4 v 0 h -0.72711 v 0 l -0.04306,-0.0062 -0.03989,-0.01793 -0.0336,-0.02836 -0.02407,-0.03677 -0.01367,-0.042 -0.0034,-0.02729 v 0 -0.252952 0 l 0.0034,-0.01792 0.0072,-0.01584 0.01152,-0.01367 0.0146,-0.0098 0.01687,-0.0054 0.01152,-8.85e-4 v 0 h 0.347757 v 0 l 0.01793,-0.0024 0.01584,-0.0072 0.01367,-0.01152 0.0098,-0.0146 0.0054,-0.01686 v -0.01041 0 -1.454314 0 l -0.0034,-0.01793 -0.0072,-0.01584 -0.01152,-0.01367 -0.0146,-0.0098 -0.01686,-0.0054 -0.01152,-9.68e-4 v 0 h -2.244849 v 0 l -0.01792,0.0024 -0.01585,0.0072 -0.01367,0.01152 -0.0098,0.0146 -0.0054,0.01687 v 0.01041 0 1.454327 0 l 0.0034,0.01793 0.0072,0.01584 0.01152,0.01367 0.0146,0.0098 0.01688,0.0054 0.01152,8.88e-4 v 0 h 0.347754 v 0 l 0.01792,0.0024 0.01584,0.0072 0.01367,0.01152 0.0098,0.0146 0.0054,0.01686 v 0.01041 0 0.252951 0 l -0.0058,0.04306 -0.01793,0.03989 -0.02836,0.0336 -0.03676,0.02407 -0.04199,0.01367 -0.02729,0.0024 v 0 h -0.253252 v 0 l -0.01793,0.0024 -0.01584,0.0072 -0.01367,0.01152 -0.0098,0.0146 -0.0054,0.01687 v 0.01041 0 1.296251 0 l -0.0034,0.01792 -0.0072,0.01584 -0.01152,0.01367 -0.0146,0.0098 -0.01687,0.0054 -0.01152,9.68e-4 v 0 h -0.56909 v 0 l -0.01793,0.0024 -0.01583,0.0072 -0.01367,0.01152 -0.0035,0.0045 v 0 l -0.05669,0.07559 v 0 l -0.0126,0.0126 -0.01584,0.0086 -0.01688,0.004 -0.01793,-9.68e-4 -0.01687,-0.0057 -0.0146,-0.01018 -0.0073,-0.0084 v 0 l -0.05669,-0.07559 v 0 l -0.0126,-0.0126 -0.01584,-0.0086 -0.01687,-0.004 h -0.0057 v 0 l -0.01793,0.0024 -0.01585,0.0072 -0.01367,0.01152 -0.0035,0.0045 v 0 l -0.05669,0.0756 v 0 l -0.0126,0.0126 -0.01584,0.0086 -0.01688,0.004 -0.01793,-9.66e-4 -0.01687,-0.0057 -0.0146,-0.01018 -0.0076,-0.0084 v 0 l -0.05669,-0.07559 v 0 l -0.0126,-0.0126 -0.01585,-0.0086 -0.01687,-0.004 h -0.0057 v 0 l -0.01793,0.0024 -0.01584,0.0072 -0.01367,0.01152 -0.0035,0.0045 v 0 l -0.05669,0.0756 v 0 l -0.0126,0.0126 -0.01585,0.0086 -0.01687,0.004 -0.01793,-8.88e-4 -0.01687,-0.0057 -0.0146,-0.01018 -0.0073,-0.0084 v 0 l -0.05669,-0.0756 v 0 l -0.0126,-0.0126 -0.01585,-0.0086 -0.01687,-0.004 h -0.0057 v 0 l -0.01793,0.0024 -0.01583,0.0072 -0.01367,0.01152 -0.0035,0.0045 v 0 l -0.05669,0.0756 v 0 l -0.0126,0.0126 -0.01585,0.0086 -0.01686,0.004 -0.01793,-8.87e-4 -0.01688,-0.0057 -0.0146,-0.01018 -0.0073,-0.0084 v 0 l -0.05669,-0.0756 v 0 l -0.0126,-0.0126 -0.01584,-0.0086 -0.01688,-0.004 h -0.0057 v 0 l -0.01793,0.0024 -0.01583,0.0072 -0.01367,0.01152 -0.0035,0.0045 v 0 l -0.05669,0.0756 v 0 l -0.0126,0.0126 -0.01584,0.0086 -0.01688,0.004 -0.01793,-9.66e-4 -0.01687,-0.0057 -0.0146,-0.01018 -0.0073,-0.0084 v 0 l -0.05669,-0.0756 v 0 l -0.0126,-0.0126 -0.01583,-0.0086 -0.01687,-0.004 h -0.0057 v 0 l -0.01793,0.0024 -0.01585,0.0072 -0.01367,0.01152 -0.0035,0.0045 v 0 l -0.05669,0.0756 v 0 l -0.0126,0.0126 -0.01584,0.0086 -0.01688,0.004 -0.01793,-9.68e-4 -0.01687,-0.0057 -0.0146,-0.01018 -0.0073,-0.0084 v 0 l -0.05669,-0.07559 v 0 l -0.0126,-0.0126 -0.01585,-0.0086 -0.01687,-0.004 h -0.0057 v 0 l -0.01793,0.0024 -0.01585,0.0072 -0.01367,0.01152 -0.0035,0.0045 v 0 l -0.05669,0.07559 v 0 l -0.0126,0.0126 -0.01585,0.0086 -0.01686,0.004 -0.01793,-9.68e-4 -0.01687,-0.0057 -0.0146,-0.01018 -0.0073,-0.0084 v 0 l -0.05669,-0.07559 v 0 l -0.0126,-0.0126 -0.01584,-0.0086 -0.01687,-0.004 h -0.0057 v 0 l -0.01793,0.0024 -0.01584,0.0072 -0.01367,0.01152 -0.0035,0.0045 v 0 l -0.05669,0.07559 v 0 l -0.0126,0.0126 -0.01583,0.0086 -0.01687,0.004 -0.01792,-9.68e-4 -0.01686,-0.0057 -0.0146,-0.01018 -0.0073,-0.0084 v 0 l -0.05669,-0.0756 v 0 l -0.0126,-0.0126 -0.01585,-0.0086 -0.01686,-0.004 h -0.0057 v 0 l -0.01793,0.0024 -0.01584,0.0072 -0.01367,0.01152 -0.0035,0.0045 v 0 l -0.05669,0.0756 v 0 l -0.0126,0.0126 -0.01585,0.0086 -0.01687,0.004 -0.01793,-9.67e-4 -0.01686,-0.0057 -0.0146,-0.01018 -0.0073,-0.0084 v 0 l -0.05669,-0.0756 v 0 l -0.0126,-0.0126 -0.01584,-0.0086 -0.01688,-0.004 h -0.0057 v 0 l -0.01793,0.0024 -0.01584,0.0072 -0.01367,0.01152 -0.0035,0.0045 v 0 l -0.05669,0.0756 v 0 l -0.0126,0.0126 -0.01585,0.0086 -0.01687,0.004 -0.01792,-9.68e-4 -0.01686,-0.0057 -0.0146,-0.01018 -0.0076,-0.0084 v 0 l -0.05669,-0.07559 v 0 l -0.0126,-0.0126 -0.01584,-0.0086 -0.01688,-0.004 h -0.0057 v 0 l -0.01793,0.0024 -0.01585,0.0072 -0.01367,0.01152 -0.0035,0.0043 v 0 l -0.05669,0.0756 v 0 l -0.0126,0.0126 -0.01583,0.0086 -0.01688,0.004 -0.01793,-9.68e-4 -0.01687,-0.0057 -0.0146,-0.01018 -0.0073,-0.0086 v 0 l -0.05669,-0.0756 v 0 l -0.0126,-0.0126 -0.01585,-0.0086 -0.01687,-0.004 h -0.0057 v 0 l -0.01793,0.0024 -0.01585,0.0072 -0.01367,0.01152 -0.0035,0.0045 v 0 l -0.05669,0.0756 v 0 l -0.0126,0.0126 -0.01583,0.0086 -0.01687,0.004 -0.01793,-9.67e-4 -0.01686,-0.0057 -0.0146,-0.01018 -0.0073,-0.0084 v 0 l -0.05669,-0.0756 v 0 l -0.0126,-0.0126 -0.01584,-0.0086 -0.01686,-0.004 h -0.0057 v 0 l -0.01793,0.0024 -0.01584,0.0072 -0.01367,0.01152 -0.0035,0.0045 v 0 l -0.05669,0.0756 v 0 l -0.0126,0.0126 -0.01584,0.0086 -0.01687,0.004 -0.01793,-9.68e-4 -0.01686,-0.0057 -0.0146,-0.01018 -0.0076,-0.0084 v 0 l -0.05669,-0.07559 v 0 l -0.0126,-0.0126 -0.01584,-0.0086 -0.01688,-0.004 h -0.0057 v 0 l -0.01793,0.0024 -0.01584,0.0072 -0.01367,0.01152 -0.0035,0.0045 v 0 l -0.05669,0.07559 v 0 l -0.0126,0.0126 -0.01585,0.0086 -0.01687,0.004 -0.01793,-8.87e-4 -0.01688,-0.0057 -0.0146,-0.01018 -0.0073,-0.0084 v 0 l -0.05669,-0.07559 v 0 l -0.0126,-0.0126 -0.01584,-0.0086 -0.01687,-0.004 h -0.0057 v 0 l -0.01793,0.0024 -0.01585,0.0072 -0.01367,0.01152 -0.0035,0.0045 v 0 l -0.05669,0.07559 v 0 l -0.0126,0.0126 -0.01584,0.0086 -0.01688,0.004 -0.01793,-9.67e-4 -0.01686,-0.0057 -0.0146,-0.01018 -0.0073,-0.0084 v 0 l -0.05288,-0.07601 v 0 l -0.0126,-0.0126 -0.01585,-0.0086 -0.01686,-0.004 h -0.0057 v 0 l -0.01793,0.0024 -0.01584,0.0072 -0.01367,0.01152 -0.0035,0.0045 v 0 l -0.05669,0.07559 v 0 l -0.0126,0.0126 -0.01585,0.0086 -0.01687,0.004 -0.01793,-9.65e-4 -0.01686,-0.0057 -0.0146,-0.01018 -0.0073,-0.0084 v 0 l -0.05669,-0.07559 v 0 l -0.0126,-0.0126 -0.01584,-0.0086 -0.01688,-0.004 h -0.0057 v 0 l -0.01792,0.0024 -0.01584,0.0072 -0.01367,0.01152 -0.0035,0.0045 v 0 l -0.05669,0.07559 v 0 l -0.0126,0.0126 -0.01585,0.0086 -0.01687,0.004 -0.01793,-8.89e-4 -0.01686,-0.0057 -0.0146,-0.01018 -0.0073,-0.0084 v 0 l -0.05669,-0.0756 v 0 l -0.0126,-0.0126 -0.01585,-0.0086 -0.01686,-0.004 h -0.0057 v 0 l -0.01793,0.0024 -0.01585,0.0072 -0.01367,0.01152 -0.0035,0.0045 v 0 l -0.05669,0.0756 v 0 l -0.0126,0.0126 -0.01585,0.0086 -0.01687,0.004 -0.01793,-9.66e-4 -0.01688,-0.0057 -0.0146,-0.01018 -0.0076,-0.0084 v 0 l -0.05669,-0.0756 v 0 l -0.0126,-0.0126 -0.01585,-0.0086 -0.01687,-0.004 h -0.0057 v 0 l -0.01793,0.0024 -0.01585,0.0072 -0.01367,0.01152 -0.0035,0.0045 v 0 l -0.05669,0.0756 v 0 l -0.0126,0.0126 -0.01583,0.0086 -0.01687,0.004 -0.01793,-9.68e-4 -0.01687,-0.0057 -0.0146,-0.01018 -0.0073,-0.0084 v 0 l -0.05669,-0.0756 v 0 l -0.0126,-0.0126 -0.01585,-0.0086 -0.01687,-0.004 h -0.0057 v 0 l -0.01793,0.0024 -0.01584,0.0072 -0.01367,0.01152 -0.0035,0.0045 v 0 l -0.05669,0.07559 v 0 l -0.0126,0.0126 -0.01585,0.0086 -0.01687,0.004 -0.01792,-9.68e-4 -0.01686,-0.0057 -0.0146,-0.01018 -0.0073,-0.0084 v 0 l -0.05669,-0.07559 v 0 l -0.0126,-0.0126 -0.01585,-0.0086 -0.01686,-0.004 h -0.0057 v 0 l -0.01793,0.0024 -0.01585,0.0072 -0.01367,0.01152 -0.0035,0.0045 v 0 l -0.05669,0.07559 v 0 l -0.0126,0.0126 -0.01583,0.0086 -0.01688,0.004 -0.01792,-9.65e-4 -0.01687,-0.0057 -0.0146,-0.01018 -0.0076,-0.0084 v 0 l -0.05669,-0.07559 v 0 l -0.0126,-0.0126 -0.01584,-0.0086 -0.01688,-0.004 h -0.0057 v 0 l -0.01793,0.0024 -0.01584,0.0072 -0.01367,0.01152 -0.0035,0.0045 v 0 l -0.05669,0.07559 v 0 l -0.0126,0.0126 -0.01585,0.0086 -0.01687,0.004 -0.01793,-8.88e-4 -0.01686,-0.0057 -0.0146,-0.01018 -0.0076,-0.0084 v 0 l -0.05669,-0.07559 v 0 l -0.0126,-0.0126 -0.01584,-0.0086 -0.01688,-0.004 h -0.0088 v 0 l -0.01793,0.0024 -0.01584,0.0072 -0.01367,0.01152 -0.0035,0.0045 v 0 l -0.05669,0.07559 v 0 l -0.0126,0.0126 -0.01584,0.0086 -0.01688,0.004 -0.01793,-9.67e-4 -0.01688,-0.0057 -0.0146,-0.01018 -0.0073,-0.0086 v 0 l -0.05669,-0.07559 v 0 l -0.0126,-0.0126 -0.01584,-0.0086 -0.01688,-0.004 h -0.0057 v 0 l -0.01793,0.0024 -0.01584,0.0072 -0.01367,0.01152 -0.0035,0.0045 v 0 l -0.05669,0.07559 v 0 l -0.0126,0.0126 -0.01584,0.0086 -0.01687,0.004 -0.01793,-8.87e-4 -0.01688,-0.0057 -0.0146,-0.01018 -0.0073,-0.0084 v 0 l -0.05669,-0.07559 v 0 l -0.0126,-0.0126 -0.01584,-0.0086 -0.01686,-0.004 h -0.0057 v 0 l -0.01793,0.0024 -0.01584,0.0072 -0.01367,0.01152 -0.0035,0.0045 v 0 l -0.05669,0.0756 v 0 l -0.0126,0.0126 -0.01584,0.0086 -0.01687,0.004 -0.01792,-9.68e-4 -0.01688,-0.0057 -0.0146,-0.01018 -0.0073,-0.0084 v 0 l -0.05669,-0.0756 v 0 l -0.0126,-0.0126 -0.01583,-0.0086 -0.01688,-0.004 h -0.0057 v 0 l -0.01792,0.0024 -0.01583,0.0072 -0.01367,0.01152 -0.0035,0.0045 v 0 l -0.05669,0.0756 v 0 l -0.0126,0.0126 -0.01584,0.0086 -0.01687,0.004 -0.01793,-9.68e-4 -0.01687,-0.0057 -0.0146,-0.01018 -0.0073,-0.0084 v 0 l -0.05669,-0.07559 v 0 l -0.0126,-0.0126 -0.01584,-0.0086 -0.01688,-0.004 h -0.0057 v 0 l -0.01793,0.0024 -0.01584,0.0072 -0.01367,0.01152 -0.0035,0.0045 v 0 l -0.05669,0.07559 v 0 l -0.0126,0.0126 -0.01584,0.0086 -0.01686,0.004 -0.01793,-8.87e-4 -0.01688,-0.0057 -0.0146,-0.01018 -0.0076,-0.0084 v 0 l -0.05669,-0.07559 v 0 l -0.0126,-0.0126 -0.01583,-0.0086 -0.01688,-0.004 h -0.0057 v 0 l -0.01793,0.0024 -0.01584,0.0072 -0.01367,0.01152 -0.0035,0.0043 v 0 l -0.05669,0.0756 v 0 l -0.0126,0.0126 -0.01584,0.0086 -0.01688,0.004 -0.01793,-9.68e-4 -0.01687,-0.0057 -0.0146,-0.01018 -0.0076,-0.0084 v 0 l -0.05669,-0.0756 v 0 l -0.0126,-0.0126 -0.01583,-0.0086 -0.01686,-0.004 h -0.0057 v 0 l -0.01792,0.0024 -0.01584,0.0072 -0.01367,0.01152 -0.0035,0.0045 v 0 l -0.05669,0.0756 v 0 l -0.0126,0.0126 -0.01584,0.0086 -0.01686,0.004 -0.01793,-8.87e-4 -0.01688,-0.0057 -0.0146,-0.01018 -0.0073,-0.0084 v 0 l -0.05669,-0.0756 v 0 l -0.0126,-0.0126 -0.01583,-0.0086 -0.01688,-0.004 h -0.0057 v 0 l -0.01792,0.0024 -0.01583,0.0072 -0.01367,0.01152 -0.0035,0.0045 v 0 l -0.05669,0.0756 v 0 l -0.0126,0.0126 -0.01584,0.0086 -0.01688,0.004 -0.01793,-8.87e-4 -0.01688,-0.0057 -0.0146,-0.01018 -0.0076,-0.0084 v 0 l -0.05669,-0.0756 v 0 l -0.0126,-0.0126 -0.01583,-0.0086 -0.01688,-0.004 h -0.0057 v 0 l -0.01793,0.0024 -0.01583,0.0072 -0.01367,0.01152 -0.0035,0.0045 v 0 l -0.05669,0.07559 v 0 l -0.0126,0.0126 -0.01583,0.0086 -0.01687,0.004 -0.01792,-8.88e-4 -0.01688,-0.0057 -0.0146,-0.01018 -0.0076,-0.0084 v 0 l -0.05669,-0.07559 v 0 l -0.0126,-0.0126 -0.01583,-0.0086 -0.01688,-0.004 h -0.0057 v 0 l -0.01793,0.0024 -0.01583,0.0072 -0.01367,0.01152 -0.0035,0.0045 v 0 l -0.05669,0.07559 v 0 l -0.0126,0.0126 -0.01583,0.0086 -0.01688,0.004 -0.01793,-9.67e-4 -0.01686,-0.0057 -0.0146,-0.01018 -0.0076,-0.0084 v 0 l -0.05669,-0.0756 v 0 l -0.0126,-0.0126 -0.01584,-0.0086 -0.01688,-0.004 h -0.0057 v 0 l -0.01793,0.0024 -0.01584,0.0072 -0.01367,0.01152 -0.0035,0.0045 v 0 l -0.05669,0.07559 v 0 l -0.0126,0.0126 -0.01584,0.0086 -0.01686,0.004 -0.01792,-9.68e-4 -0.01688,-0.0057 -0.0146,-0.01018 -0.0073,-0.0084 v 0 l -0.05669,-0.07559 v 0 l -0.0126,-0.0126 -0.01584,-0.0086 -0.01686,-0.004 h -0.0057 v 0 l -0.01793,0.0024 -0.01583,0.0072 -0.01367,0.01152 -0.0035,0.0043 v 0 l -0.05669,0.07559 v 0 l -0.0126,0.0126 -0.01583,0.0086 -0.01687,0.004 -0.01793,-9.67e-4 -0.01686,-0.0057 -0.0146,-0.01018 -0.0076,-0.0084 v 0 l -0.05669,-0.07559 v 0 l -0.0126,-0.0126 -0.01584,-0.0086 -0.01688,-0.004 h -0.0057 v 0 l -0.01793,0.0024 -0.01583,0.0072 -0.01367,0.01152 -0.0035,0.0045 v 0 l -0.05669,0.07559 v 0 l -0.0126,0.0126 -0.01583,0.0086 -0.01687,0.004 -0.01792,-8.87e-4 -0.01686,-0.0057 -0.0146,-0.01018 -0.0073,-0.0084 v 0 l -0.05669,-0.0756 v 0 l -0.0126,-0.0126 -0.01583,-0.0086 -0.01686,-0.004 h -0.0057 v 0 l -0.01793,0.0024 -0.01583,0.0072 -0.01367,0.01152 -0.0035,0.0045 v 0 l -0.05669,0.07559 v 0 l -0.0126,0.0126 -0.01584,0.0086 -0.01686,0.004 -0.01793,-9.68e-4 -0.01686,-0.0057 -0.0146,-0.01018 -0.0076,-0.0084 v 0 l -0.05669,-0.07559 v 0 l -0.0126,-0.0126 -0.01584,-0.0086 -0.01688,-0.004 h -0.0057 v 0 l -0.01793,0.0024 -0.01583,0.0072 -0.01367,0.01152 -0.0035,0.0045 v 0 l -0.05669,0.07559 v 0 l -0.0126,0.0126 -0.01584,0.0086 -0.01686,0.004 -0.01793,-9.68e-4 -0.01688,-0.0057 -0.0146,-0.01018 -0.0076,-0.0084 v 0 l -0.05669,-0.0756 v 0 l -0.0126,-0.0126 -0.01583,-0.0086 -0.01688,-0.004 h -0.0057 v 0 l -0.01793,0.0024 -0.01584,0.0072 -0.01367,0.01152 -0.0035,0.0045 v 0 l -0.05669,0.0756 v 0 l -0.0126,0.0126 -0.01584,0.0086 -0.01686,0.004 -0.01792,-8.87e-4 -0.01687,-0.0057 -0.0146,-0.01018 -0.0076,-0.0084 v 0 l -0.05669,-0.0756 v 0 l -0.0126,-0.0126 -0.01584,-0.0086 -0.01687,-0.004 h -0.0057 v 0 l -0.01793,0.0024 -0.01583,0.0072 -0.01367,0.01152 -0.0035,0.0045 v 0 l -0.05669,0.0756 v 0 l -0.0126,0.0126 -0.01584,0.0086 -0.01686,0.004 -0.01793,-9.68e-4 -0.01686,-0.0057 -0.0146,-0.01018 -0.0076,-0.0084 v 0 l -0.05669,-0.07559 v 0 l -0.0126,-0.0126 -0.01583,-0.0086 -0.01688,-0.004 h -0.0057 v 0 l -0.01793,0.0024 -0.01583,0.0072 -0.01367,0.01152 -0.0035,0.0045 v 0 l -0.05669,0.07559 v 0 l -0.0126,0.0126 -0.01583,0.0086 -0.01688,0.004 -0.01793,-9.67e-4 -0.01686,-0.0057 -0.0146,-0.01018 -0.0073,-0.0084 v 0 l -0.05669,-0.07559 v 0 l -0.0126,-0.0126 -0.01584,-0.0086 -0.01687,-0.004 h -0.0057 v 0 l -0.01793,0.0024 -0.01583,0.0072 -0.01367,0.01152 -0.0035,0.0045 v 0 l -0.05669,0.07559 v 0 l -0.0126,0.0126 -0.01584,0.0086 -0.01688,0.004 -0.01793,-8.87e-4 -0.01688,-0.0057 -0.0146,-0.01018 -0.0076,-0.0084 v 0 l -0.05669,-0.07559 v 0 l -0.0126,-0.0126 -0.01583,-0.0086 -0.01688,-0.004 h -0.0057 v 0 l -0.01793,0.0024 -0.01584,0.0072 -0.01367,0.01152 -0.0035,0.0045 v 0 l -0.05669,0.07559 v 0 l -0.0126,0.0126 -0.01583,0.0086 -0.01686,0.004 -0.01793,-9.65e-4 -0.01688,-0.0057 -0.0146,-0.01018 -0.0073,-0.0084 v 0 l -0.05669,-0.07559 v 0 l -0.0126,-0.0126 -0.01583,-0.0086 -0.01687,-0.004 h -0.0057 v 0 l -0.01793,0.0024 -0.01583,0.0072 -0.01367,0.01152 -0.0035,0.0045 v 0 l -0.05669,0.07559 v 0 l -0.0126,0.0126 -0.01583,0.0086 -0.01686,0.004 -0.01793,-9.68e-4 -0.01687,-0.0057 -0.0146,-0.01018 -0.0073,-0.0084 v 0 l -0.05669,-0.0756 v 0 l -0.0126,-0.0126 -0.01584,-0.0086 -0.01686,-0.004 h -0.0057 v 0 l -0.01793,0.0024 -0.01584,0.0072 -0.01367,0.01152 -0.0035,0.0045 v 0 l -0.05669,0.0756 v 0 l -0.0126,0.0126 -0.01584,0.0086 -0.01686,0.004 -0.01792,-8.87e-4 -0.01687,-0.0057 -0.0146,-0.01018 -0.0073,-0.0084 v 0 l -0.05669,-0.0756 v 0 l -0.0126,-0.0126 -0.01583,-0.0086 -0.01686,-0.004 h -0.0057 v 0 l -0.01793,0.0024 -0.01584,0.0072 -0.01367,0.01152 -0.0035,0.0045 v 0 l -0.05669,0.0756 v 0 l -0.0126,0.0126 -0.01583,0.0086 -0.01688,0.004 -0.01793,-9.68e-4 -0.01688,-0.0057 -0.0146,-0.01018 -0.0076,-0.0084 v 0 l -0.05669,-0.07559 v 0 l -0.0126,-0.0126 -0.01584,-0.0086 -0.01688,-0.004 h -0.0057 v 0 l -0.01793,0.0024 -0.01584,0.0072 -0.01352,0.01152 -0.0035,0.0045 v 0 l -0.05669,0.07559 v 0 l -0.0126,0.0126 -0.01584,0.0086 -0.01686,0.004 -0.01793,-9.68e-4 -0.01686,-0.0057 -0.0146,-0.01018 -0.0073,-0.0084 v 0 l -0.05669,-0.07559 v 0 l -0.0126,-0.0126 -0.01583,-0.0086 -0.01687,-0.004 h -0.0057 v 0 l -0.01793,0.0024 -0.01584,0.0072 -0.01352,0.01152 -0.0035,0.0045 v 0 l -0.05669,0.07559 v 0 l -0.0126,0.0126 -0.01584,0.0086 -0.01686,0.004 -0.01793,-8.86e-4 -0.01688,-0.0057 -0.0146,-0.01018 -0.0076,-0.0084 v 0 l -0.05669,-0.07559 v 0 l -0.0126,-0.0126 -0.01583,-0.0086 -0.01688,-0.004 h -0.0057 v 0 l -0.01784,0.0024 -0.01568,0.0072 -0.01367,0.01152 -0.0035,0.0045 v 0 l -0.05669,0.07559 v 0 l -0.0126,0.0126 -0.01584,0.0086 -0.01687,0.004 -0.01784,-9.68e-4 -0.01688,-0.0057 -0.0146,-0.01018 -0.0076,-0.0084 v 0 l -0.05669,-0.0756 v 0 l -0.0126,-0.0126 -0.01568,-0.0086 -0.01686,-0.004 h -0.0057 v 0 l -0.01784,0.0024 -0.01568,0.0072 -0.01352,0.01152 -0.0035,0.0043 v 0 l -0.05669,0.07559 v 0 l -0.0126,0.0126 -0.01568,0.0086 -0.01686,0.004 -0.01784,-8.87e-4 -0.01688,-0.0057 -0.0146,-0.01018 -0.0076,-0.0084 v 0 l -0.05669,-0.07559 v 0 l -0.0126,-0.0126 -0.01568,-0.0086 -0.01688,-0.004 h -0.0057 v 0 l -0.01784,0.0024 -0.01583,0.0072 -0.01367,0.01152 -0.0035,0.0045 v 0 l -0.05669,0.07559 v 0 l -0.0126,0.0126 -0.01568,0.0086 -0.01688,0.004 -0.01784,-9.67e-4 -0.01686,-0.0057 -0.0146,-0.01018 -0.0076,-0.0084 v 0 l -0.05669,-0.07559 v 0 l -0.0126,-0.0126 -0.01568,-0.0086 -0.01686,-0.004 h -0.0057 v 0 l -0.01784,0.0024 -0.01584,0.0072 -0.01352,0.01152 -0.0035,0.0045 v 0 l -0.05669,0.07559 v 0 l -0.0126,0.0126 -0.01568,0.0086 -0.01688,0.004 -0.01784,-9.68e-4 -0.01686,-0.0057 -0.0146,-0.01018 -0.0076,-0.0084 v 0 l -0.05669,-0.0756 v 0 l -0.0126,-0.0126 -0.01568,-0.0086 -0.01688,-0.004 h -0.0057 v 0 l -0.01784,0.0024 -0.01567,0.0072 -0.01367,0.01152 -0.0035,0.0045 v 0 l -0.05669,0.0756 v 0 l -0.0126,0.0126 -0.01567,0.0086 -0.01688,0.004 -0.01784,-9.67e-4 -0.01688,-0.0057 -0.01475,-0.01018 -0.0076,-0.0084 v 0 l -0.05669,-0.0756 v 0 l -0.0126,-0.0126 -0.01574,-0.0086 -0.01681,-0.004 h -0.0057 v 0 l -0.01784,0.0024 -0.01574,0.0072 -0.01367,0.01152 -0.0034,0.0043 v 0 l -0.05669,0.0756 v 0 l -0.0126,0.0126 -0.01574,0.0086 -0.01681,0.004 -0.01784,-9.68e-4 -0.01681,-0.0057 -0.01475,-0.01018 -0.0076,-0.0084 v 0 l -0.05669,-0.07559 v 0 l -0.0126,-0.0126 -0.01574,-0.0086 -0.01681,-0.004 h -0.0057 v 0 l -0.01784,0.0024 -0.01574,0.0072 -0.01367,0.01152 -0.0034,0.0043 v 0 l -0.05669,0.07559 v 0 l -0.0126,0.0126 -0.01574,0.0086 -0.01681,0.004 -0.01784,-9.68e-4 -0.01681,-0.0057 -0.01475,-0.01018 -0.0076,-0.0084 v 0 l -0.05669,-0.07559 v 0 l -0.0126,-0.0126 -0.01574,-0.0086 -0.01681,-0.004 h -0.0057 v 0 l -0.01784,0.0024 -0.01574,0.0072 -0.01367,0.01152 -0.0034,0.0045 v 0 l -0.05669,0.07559 v 0 l -0.0126,0.0126 -0.01575,0.0086 -0.01681,0.004 -0.01784,-9.66e-4 -0.01681,-0.0057 -0.01475,-0.01018 -0.0076,-0.0084 v 0 l -0.05669,-0.07559 v 0 l -0.0126,-0.0126 -0.01574,-0.0086 -0.01681,-0.004 h -0.0057 v 0 l -0.01784,0.0024 -0.01574,0.0072 -0.01367,0.01152 -0.0034,0.0045 v 0 l -0.05669,0.07559 v 0 l -0.0126,0.0126 -0.01574,0.0086 -0.01681,0.004 -0.01784,-8.88e-4 -0.01681,-0.0057 -0.01475,-0.01018 -0.0076,-0.0084 v 0 l -0.05669,-0.0756 v 0 l -0.0126,-0.0126 -0.01574,-0.0086 -0.01681,-0.004 h -0.0057 v 0 l -0.01784,0.0024 -0.01575,0.0072 -0.01367,0.01152 -0.0034,0.0045 v 0 l -0.05669,0.0756 v 0 l -0.0126,0.0126 -0.01574,0.0086 -0.01681,0.004 -0.01784,-8.87e-4 -0.01681,-0.0057 -0.01475,-0.01018 -0.0076,-0.0084 v 0 l -0.05669,-0.0756 v 0 l -0.0126,-0.0126 -0.01574,-0.0086 -0.01681,-0.004 h -0.0057 v 0 l -0.01784,0.0024 -0.01574,0.0072 -0.01367,0.01152 -0.0034,0.0043 v 0 l -0.05669,0.07559 v 0 l -0.0126,0.0126 -0.01574,0.0086 -0.01681,0.004 -0.01784,-9.68e-4 -0.01681,-0.0057 -0.01475,-0.01018 v -8.07e-4 0 L 23.23056,25.044266 v 0 l -0.01152,-0.01367 -0.0068,-0.01686 -0.0031,-0.01793 0.0031,-0.01793 0.0076,-0.01584 0.01152,-0.01367 0.01475,-0.0094 0.01681,-0.0053 0.009,-8.07e-4 v 0 h 18.748647 v 0 l 0.04408,-0.0062 0.03989,-0.01792 0.0336,-0.02836 0.02407,-0.03677 0.01367,-0.042 0.0034,-0.02729"
     stroke="#c0c0c0"
     stroke-width="0"
     stroke-opacity="1"
     fill="#c0c0c0"
     fill-rule="evenodd"
     fill-opacity="1"
     id="left_profile"
     inkscape:label="left_profile" />
  <path
     d="m 77.32425,24.739614 v -6.670927 0 l -0.0034,-0.01784 -0.0072,-0.01575 -0.01152,-0.01367 -0.0146,-0.0098 -0.01688,-0.0055 -0.01152,-9.68e-4 v 0 h -0.505905 v 0 l -0.01793,0.0025 -0.01585,0.0072 -0.01367,0.01152 -0.0098,0.01475 -0.0054,0.01681 v 0.01045 0 1.359481 0 h -0.316151 v 0 l -0.04305,0.0061 -0.03989,0.01784 -0.0336,0.02835 -0.02514,0.03675 -0.01367,0.04201 -0.0034,0.0273 v 0 0.252942 0 l 0.0034,0.01784 0.0072,0.01575 0.01152,0.01367 0.0146,0.0098 0.01688,0.0055 0.01152,9.68e-4 v 0 h 0.347753 v 0 l 0.01793,0.0025 0.01585,0.0072 0.01367,0.01152 0.0098,0.01475 0.0054,0.01681 v 0.01045 0 1.454317 0 l -0.0034,0.01784 -0.0072,0.01567 -0.01152,0.01367 -0.0146,0.0098 -0.01688,0.0054 -0.01152,9.68e-4 v 0 h -2.244719 v 0 l -0.01793,-0.0024 -0.01585,-0.0072 -0.01367,-0.01152 -0.0098,-0.0146 -0.0054,-0.01687 v -0.01041 0 -1.454315 0 l 0.0034,-0.01784 0.0072,-0.01575 0.01152,-0.01367 0.0146,-0.0098 0.01688,-0.0055 0.01152,-9.68e-4 v 0 h 0.347756 v 0 l 0.01793,-0.0025 0.01584,-0.0072 0.01367,-0.01152 0.0098,-0.01475 0.0054,-0.01681 v -0.01045 0 -0.252941 0 l -0.0058,-0.0441 -0.01793,-0.0399 -0.02836,-0.0336 -0.03675,-0.02415 -0.042,-0.01367 -0.02729,-0.0025 v 0 h -0.727109 v 0 l -0.01793,0.0025 -0.01584,0.0072 -0.01367,0.01152 -0.0098,0.01475 -0.0054,0.01681 v 0.01045 0 1.928561 0 l -0.0034,0.01784 -0.0072,0.01567 -0.01152,0.01367 -0.0146,0.0098 -0.01686,0.0054 -0.01152,9.68e-4 v 0 h -0.98005 v 0 l -0.01793,0.0024 -0.01584,0.0072 -0.01367,0.01152 -0.0098,0.0146 -0.0054,0.01686 v 0.01041 0 0.252951 0 0.252952 0 l 0.0034,0.01793 0.0072,0.01584 0.01152,0.01367 0.0146,0.0098 0.01688,0.0054 0.01152,8.87e-4 v 0 h 0.980051 v 0 l 0.01793,0.0024 0.01585,0.0072 0.01367,0.01152 0.0098,0.0146 0.0054,0.01688 v 0.01041 0 1.928561 0 l 0.0034,0.01793 0.0072,0.01584 0.01152,0.01367 0.0146,0.0098 0.01688,0.0054 0.01152,8.86e-4 v 0 h 0.727214 v 0 l 0.04408,-0.0062 0.03989,-0.01793 0.0336,-0.02836 0.02514,-0.03677 0.01367,-0.042 0.0034,-0.02729 v 0 -0.252952 0 l -0.0034,-0.01792 -0.0072,-0.01584 -0.01152,-0.01367 -0.0146,-0.0098 -0.01687,-0.0054 -0.01152,-8.85e-4 v 0 h -0.347751 v 0 l -0.01793,-0.0024 -0.01584,-0.0072 -0.01367,-0.01152 -0.0098,-0.0146 -0.0054,-0.01686 v -0.01041 0 -1.454314 0 l 0.0034,-0.01793 0.0072,-0.01584 0.01152,-0.01367 0.0146,-0.0098 0.01688,-0.0054 0.01152,-9.68e-4 v 0 h 2.24472 v 0 l 0.01793,0.0024 0.01584,0.0072 0.01367,0.01152 0.0098,0.0146 0.0054,0.01687 v 0.01041 0 1.454327 0 l -0.0034,0.01793 -0.0072,0.01584 -0.01152,0.01367 -0.0146,0.0098 -0.01687,0.0054 -0.01152,8.88e-4 v 0 H 76.28245 v 0 l -0.01793,0.0024 -0.01585,0.0072 -0.01367,0.01152 -0.0098,0.0146 -0.0054,0.01686 v 0.01041 0 0.252951 0 l 0.0058,0.04306 0.01793,0.03989 0.02836,0.0336 0.03676,0.02407 0.04201,0.01367 0.02729,0.0024 v 0 h 0.252951 v 0 l 0.01793,0.0024 0.01585,0.0072 0.01367,0.01152 0.0098,0.0146 0.0054,0.01687 v 0.01041 0 1.296251 0 l 0.0034,0.01792 0.0072,0.01584 0.01152,0.01367 0.0146,0.0098 0.01688,0.0054 0.01152,9.68e-4 v 0 h 0.569087 v 0 l 0.01793,0.0024 0.01583,0.0072 0.01367,0.01152 0.0035,0.0045 v 0 l 0.05669,0.07559 v 0 l 0.0126,0.0126 0.01585,0.0086 0.01688,0.004 0.01792,-9.68e-4 0.01686,-0.0057 0.0146,-0.01018 0.0073,-0.0084 v 0 l 0.05669,-0.07559 v 0 l 0.0126,-0.0126 0.01585,-0.0086 0.01686,-0.004 h 0.0057 v 0 l 0.01793,0.0024 0.01585,0.0072 0.01367,0.01152 0.0035,0.0045 v 0 l 0.05669,0.0756 v 0 l 0.0126,0.0126 0.01585,0.0086 0.01687,0.004 0.01793,-9.66e-4 0.01688,-0.0057 0.0146,-0.01018 0.0076,-0.0084 v 0 l 0.05669,-0.07559 v 0 l 0.0126,-0.0126 0.01585,-0.0086 0.01688,-0.004 h 0.0057 v 0 l 0.01793,0.0024 0.01585,0.0072 0.01367,0.01152 0.0035,0.0045 v 0 l 0.05669,0.0756 v 0 l 0.0126,0.0126 0.01584,0.0086 0.01688,0.004 0.01793,-8.88e-4 0.01688,-0.0057 0.0146,-0.01018 0.0076,-0.0084 v 0 l 0.05669,-0.0756 v 0 l 0.0126,-0.0126 0.01585,-0.0086 0.01687,-0.004 h 0.0057 v 0 l 0.01793,0.0024 0.01584,0.0072 0.01367,0.01152 0.0035,0.0045 v 0 l 0.05669,0.0756 v 0 l 0.0126,0.0126 0.01585,0.0086 0.01686,0.004 0.01792,-8.87e-4 0.01686,-0.0057 0.0146,-0.01018 0.0073,-0.0084 v 0 l 0.05669,-0.0756 v 0 l 0.0126,-0.0126 0.01585,-0.0086 0.01686,-0.004 h 0.0057 v 0 l 0.01793,0.0024 0.01585,0.0072 0.01367,0.01152 0.0035,0.0045 v 0 l 0.05669,0.0756 v 0 l 0.0126,0.0126 0.01583,0.0086 0.01687,0.004 0.01793,-9.66e-4 0.01688,-0.0057 0.0146,-0.01018 0.0076,-0.0084 v 0 l 0.05669,-0.0756 v 0 l 0.0126,-0.0126 0.01584,-0.0086 0.01688,-0.004 h 0.0057 v 0 l 0.01793,0.0024 0.01585,0.0072 0.01367,0.01152 0.0035,0.0045 v 0 l 0.05669,0.0756 v 0 l 0.0126,0.0126 0.01584,0.0086 0.01688,0.004 0.01793,-9.68e-4 0.01688,-0.0057 0.0146,-0.01018 0.0076,-0.0084 v 0 l 0.05669,-0.07559 v 0 l 0.0126,-0.0126 0.01585,-0.0086 0.01688,-0.004 h 0.0057 v 0 l 0.01793,0.0024 0.01583,0.0072 0.01367,0.01152 0.0035,0.0045 v 0 l 0.05669,0.07559 v 0 l 0.0126,0.0126 0.01585,0.0086 0.01688,0.004 0.01793,-9.68e-4 0.01688,-0.0057 0.0146,-0.01018 0.0076,-0.0084 v 0 l 0.05669,-0.07559 v 0 l 0.0126,-0.0126 0.01585,-0.0086 0.01687,-0.004 h 0.0057 v 0 l 0.01793,0.0024 0.01585,0.0072 0.01367,0.01152 0.0035,0.0045 v 0 l 0.05669,0.07559 v 0 l 0.0126,0.0126 0.01585,0.0086 0.01686,0.004 0.01793,-9.68e-4 0.01686,-0.0057 0.0146,-0.01018 0.0076,-0.0084 v 0 l 0.05669,-0.0756 v 0 l 0.0126,-0.0126 0.01585,-0.0086 0.01687,-0.004 h 0.0057 v 0 l 0.01793,0.0024 0.01585,0.0072 0.01367,0.01152 0.0035,0.0045 v 0 l 0.05669,0.0756 v 0 l 0.0126,0.0126 0.01585,0.0086 0.01686,0.004 0.01793,-9.67e-4 0.01687,-0.0057 0.0146,-0.01018 0.0076,-0.0084 v 0 l 0.05669,-0.0756 v 0 l 0.0126,-0.0126 0.01583,-0.0086 0.01687,-0.004 h 0.0057 v 0 l 0.01793,0.0024 0.01585,0.0072 0.01367,0.01152 0.0035,0.0045 v 0 l 0.05669,0.0756 v 0 l 0.0126,0.0126 0.01585,0.0086 0.01687,0.004 0.01793,-8.87e-4 0.01686,-0.0057 0.0146,-0.01018 0.0076,-0.0084 v 0 l 0.05669,-0.0756 v 0 l 0.0126,-0.0126 0.01585,-0.0086 0.01688,-0.004 h 0.0057 v 0 l 0.01793,0.0024 0.01585,0.0072 0.01367,0.01152 0.0035,0.0045 v 0 l 0.05669,0.0756 v 0 l 0.0126,0.0126 0.01585,0.0086 0.01688,0.004 0.01793,-9.68e-4 0.01688,-0.0057 0.0146,-0.01018 0.0076,-0.0086 v 0 l 0.05669,-0.07559 v 0 l 0.0126,-0.0126 0.01585,-0.0086 0.01686,-0.004 h 0.0057 v 0 l 0.01793,0.0024 0.01585,0.0072 0.01367,0.01152 0.0035,0.0045 v 0 l 0.05669,0.0756 v 0 l 0.0126,0.0126 0.01585,0.0086 0.01688,0.004 0.01793,-8.87e-4 0.01687,-0.0057 0.0146,-0.01018 0.0076,-0.0084 v 0 l 0.05669,-0.07559 v 0 l 0.0126,-0.0126 0.01585,-0.0086 0.01686,-0.004 h 0.0057 v 0 l 0.01793,0.0024 0.01585,0.0072 0.01367,0.01152 0.0035,0.0045 v 0 l 0.05669,0.07559 v 0 l 0.0126,0.0126 0.01585,0.0086 0.01686,0.004 0.01793,-9.68e-4 0.01687,-0.0057 0.0146,-0.01018 0.0073,-0.0084 v 0 l 0.05669,-0.07559 v 0 l 0.0126,-0.0126 0.01585,-0.0086 0.01687,-0.004 h 0.0057 v 0 l 0.01793,0.0024 0.01584,0.0072 0.01367,0.01152 0.0035,0.0045 v 0 l 0.05669,0.07559 v 0 l 0.0126,0.0126 0.01585,0.0086 0.01687,0.004 0.01793,-9.65e-4 0.01688,-0.0057 0.0146,-0.01018 0.0073,-0.0084 v 0 l 0.05669,-0.07559 v 0 l 0.0126,-0.0126 0.01583,-0.0086 0.01688,-0.004 h 0.0057 v 0 l 0.01793,0.0024 0.01585,0.0072 0.01367,0.01152 0.0035,0.0045 v 0 l 0.05669,0.07559 v 0 l 0.0126,0.0126 0.01585,0.0086 0.01686,0.004 0.01793,-9.68e-4 0.01688,-0.0057 0.0146,-0.01018 0.0076,-0.0084 v 0 l 0.05669,-0.0756 v 0 l 0.0126,-0.0126 0.01585,-0.0086 0.01688,-0.004 h 0.0057 v 0 l 0.01793,0.0024 0.01585,0.0072 0.01367,0.01152 0.0035,0.0045 v 0 l 0.05669,0.0756 v 0 l 0.0126,0.0126 0.01583,0.0086 0.01686,0.004 0.01793,-9.68e-4 0.01687,-0.0057 0.0146,-0.01018 0.0073,-0.0084 v 0 l 0.05669,-0.0756 v 0 l 0.0126,-0.0126 0.01585,-0.0086 0.01686,-0.004 h 0.0057 v 0 l 0.01793,0.0024 0.01583,0.0072 0.01367,0.01152 0.0035,0.0045 v 0 l 0.05669,0.07559 v 0 l 0.0126,0.0126 0.01583,0.0086 0.01687,0.004 0.01793,-9.68e-4 0.01686,-0.0057 0.0146,-0.01018 0.0073,-0.0084 v 0 l 0.05669,-0.07559 v 0 l 0.0126,-0.0126 0.01585,-0.0086 0.01686,-0.004 h 0.0057 v 0 l 0.01793,0.0024 0.01583,0.0072 0.01367,0.01152 0.0035,0.0045 v 0 l 0.05669,0.07559 v 0 l 0.0126,0.0126 0.01585,0.0086 0.01688,0.004 0.01793,-8.86e-4 0.01686,-0.0057 0.0146,-0.01018 0.0076,-0.0084 v 0 l 0.05669,-0.07559 v 0 l 0.0126,-0.0126 0.01585,-0.0086 0.01687,-0.004 h 0.0057 v 0 l 0.01793,0.0024 0.01585,0.0072 0.01367,0.01152 0.0035,0.0043 v 0 l 0.05669,0.0756 v 0 l 0.0126,0.0126 0.01585,0.0086 0.01686,0.004 0.01793,-9.68e-4 0.01686,-0.0057 0.0146,-0.01018 0.0076,-0.0084 v 0 l 0.05669,-0.0756 v 0 l 0.0126,-0.0126 0.01585,-0.0086 0.01687,-0.004 h 0.0057 v 0 l 0.01793,0.0024 0.01585,0.0072 0.01367,0.01152 0.0035,0.0045 v 0 l 0.05669,0.07559 v 0 l 0.0126,0.0126 0.01585,0.0086 0.01686,0.004 0.01792,-9.68e-4 0.01688,-0.0057 0.0146,-0.01018 0.0073,-0.0084 v 0 l 0.05669,-0.07559 v 0 l 0.0126,-0.0126 0.01585,-0.0086 0.01688,-0.004 h 0.0057 v 0 l 0.01793,0.0024 0.01583,0.0072 0.01367,0.01152 0.0035,0.0045 v 0 l 0.05669,0.07559 v 0 l 0.0126,0.0126 0.01585,0.0086 0.01688,0.004 0.01792,-9.66e-4 0.01686,-0.0057 0.0146,-0.01018 0.0076,-0.0084 v 0 l 0.05669,-0.07559 v 0 l 0.0126,-0.0126 0.01584,-0.0086 0.01688,-0.004 h 0.0057 v 0 l 0.01793,0.0024 0.01585,0.0072 0.01367,0.01152 0.0035,0.0045 v 0 l 0.05669,0.07559 v 0 l 0.0126,0.0126 0.01584,0.0086 0.01688,0.004 0.01793,-9.68e-4 0.01688,-0.0057 0.0146,-0.01018 0.0076,-0.0084 v 0 l 0.05669,-0.0756 v 0 l 0.0126,-0.0126 0.01585,-0.0086 0.01686,-0.004 h 0.0057 v 0 l 0.01793,0.0024 0.01584,0.0072 0.01367,0.01152 0.0035,0.0045 v 0 l 0.05669,0.0756 v 0 l 0.0126,0.0126 0.01584,0.0086 0.01686,0.004 0.01793,-8.87e-4 0.01687,-0.0057 0.0146,-0.01018 0.0073,-0.0086 v 0 l 0.05669,-0.0756 v 0 l 0.0126,-0.0126 0.01585,-0.0086 0.01688,-0.004 h 0.0057 v 0 l 0.01793,0.0024 0.01584,0.0072 0.01367,0.01152 0.0035,0.0045 v 0 l 0.05669,0.0756 v 0 l 0.0126,0.0126 0.01585,0.0086 0.01688,0.004 0.01792,-9.68e-4 0.01687,-0.0057 0.0146,-0.01018 0.0073,-0.0084 v 0 l 0.05669,-0.0756 v 0 l 0.0126,-0.0126 0.01585,-0.0086 0.01686,-0.004 h 0.0057 v 0 l 0.01793,0.0024 0.01585,0.0072 0.01367,0.01152 0.0035,0.0045 v 0 l 0.05669,0.0756 v 0 l 0.0126,0.0126 0.01585,0.0086 0.01686,0.004 0.01792,-9.67e-4 0.01688,-0.0057 0.0146,-0.01018 0.0076,-0.0084 v 0 l 0.05669,-0.0756 v 0 l 0.0126,-0.0126 0.01585,-0.0086 0.01687,-0.004 h 0.0057 v 0 l 0.01793,0.0024 0.01584,0.0072 0.01367,0.01152 0.0035,0.0045 v 0 l 0.05669,0.07559 v 0 l 0.0126,0.0126 0.01585,0.0086 0.01686,0.004 0.01793,-8.88e-4 0.01686,-0.0057 0.0146,-0.01018 0.0076,-0.0084 v 0 l 0.05669,-0.0756 v 0 l 0.0126,-0.0126 0.01585,-0.0086 0.01687,-0.004 h 0.0057 v 0 l 0.01793,0.0024 0.01585,0.0072 0.01367,0.01152 0.0035,0.0045 v 0 l 0.05669,0.07559 v 0 l 0.0126,0.0126 0.01585,0.0086 0.01686,0.004 0.01793,-9.66e-4 0.01686,-0.0057 0.0146,-0.01018 0.0073,-0.0084 v 0 l 0.05669,-0.07559 v 0 l 0.0126,-0.0126 0.01585,-0.0086 0.01686,-0.004 h 0.0057 v 0 l 0.01793,0.0024 0.01585,0.0072 0.01367,0.01152 0.0035,0.0045 v 0 l 0.05669,0.07559 v 0 l 0.0126,0.0126 0.01585,0.0086 0.01687,0.004 0.01793,-8.86e-4 0.01686,-0.0057 0.0146,-0.01018 0.0076,-0.0084 v 0 l 0.05669,-0.07559 v 0 l 0.0126,-0.0126 0.01584,-0.0086 0.01688,-0.004 h 0.0057 v 0 l 0.01793,0.0024 0.01585,0.0072 0.01367,0.01152 0.0035,0.0045 v 0 l 0.05669,0.07559 v 0 l 0.0126,0.0126 0.01585,0.0086 0.01686,0.004 0.01793,-9.68e-4 0.01687,-0.0057 0.0146,-0.01018 0.0076,-0.0084 v 0 l 0.05669,-0.0756 v 0 l 0.0126,-0.0126 0.01585,-0.0086 0.01688,-0.004 h 0.0057 v 0 l 0.01792,0.0024 0.01585,0.0072 0.01367,0.01152 0.0035,0.0045 v 0 l 0.05669,0.0756 v 0 l 0.0126,0.0126 0.01585,0.0086 0.01686,0.004 0.01793,-9.68e-4 0.01687,-0.0057 0.0146,-0.01018 0.0073,-0.0084 v 0 l 0.05669,-0.0756 v 0 l 0.0126,-0.0126 0.01585,-0.0086 0.01686,-0.004 h 0.0057 v 0 l 0.01793,0.0024 0.01585,0.0072 0.01367,0.01152 0.0035,0.0045 v 0 l 0.05669,0.07559 v 0 l 0.0126,0.0126 0.01585,0.0086 0.01686,0.004 0.01793,-9.68e-4 0.01686,-0.0057 0.0146,-0.01018 0.0076,-0.0084 v 0 l 0.05669,-0.07559 v 0 l 0.0126,-0.0126 0.01584,-0.0086 0.01688,-0.004 h 0.0057 v 0 l 0.01793,0.0024 0.01585,0.0072 0.01367,0.01152 0.0035,0.0045 v 0 l 0.05669,0.07559 v 0 l 0.0126,0.0126 0.01583,0.0086 0.01688,0.004 0.01793,-8.86e-4 0.01688,-0.0057 0.0146,-0.01018 0.0076,-0.0084 v 0 l 0.05669,-0.07559 v 0 l 0.0126,-0.0126 0.01585,-0.0086 0.01688,-0.004 h 0.0057 v 0 l 0.01793,0.0024 0.01584,0.0072 0.01367,0.01152 0.0035,0.0045 v 0 l 0.05669,0.07559 v 0 l 0.0126,0.0126 0.01584,0.0086 0.01686,0.004 0.01793,-8.86e-4 0.01686,-0.0057 0.0146,-0.01018 0.0076,-0.0084 v 0 l 0.05669,-0.07559 v 0 l 0.0126,-0.0126 0.01585,-0.0086 0.01688,-0.004 h 0.0057 v 0 l 0.01793,0.0024 0.01585,0.0072 0.01367,0.01152 0.0035,0.0045 v 0 l 0.05669,0.07559 v 0 l 0.0126,0.0126 0.01585,0.0086 0.01688,0.004 0.01793,-9.68e-4 0.01688,-0.0057 0.0146,-0.01018 0.0076,-0.0084 v 0 l 0.05669,-0.0756 v 0 l 0.0126,-0.0126 0.01585,-0.0086 0.01686,-0.004 h 0.0057 v 0 l 0.01793,0.0024 0.01585,0.0072 0.01367,0.01152 0.0035,0.0045 v 0 l 0.05669,0.0756 v 0 l 0.0126,0.0126 0.01585,0.0086 0.01686,0.004 0.01793,-8.87e-4 0.01686,-0.0057 0.0146,-0.01018 0.0076,-0.0084 v 0 l 0.05669,-0.0756 v 0 l 0.0126,-0.0126 0.01584,-0.0086 0.01687,-0.004 h 0.0057 v 0 l 0.01792,0.0024 0.01584,0.0072 0.01367,0.01152 0.0035,0.0045 v 0 l 0.05669,0.0756 v 0 l 0.0126,0.0126 0.01585,0.0086 0.01688,0.004 0.01793,-9.68e-4 0.01688,-0.0057 0.0146,-0.01018 0.0073,-0.0084 v 0 l 0.05669,-0.07559 v 0 l 0.0126,-0.0126 0.01585,-0.0086 0.01688,-0.004 h 0.0057 v 0 l 0.01792,0.0024 0.01585,0.0072 0.01367,0.01152 0.0035,0.0045 v 0 l 0.05669,0.07559 v 0 l 0.0126,0.0126 0.01585,0.0086 0.01687,0.004 0.01793,-9.67e-4 0.01688,-0.0057 0.0146,-0.01018 0.0076,-0.0084 v 0 l 0.05669,-0.07559 v 0 l 0.0126,-0.0126 0.01585,-0.0086 0.01688,-0.004 h 0.0057 v 0 l 0.01793,0.0024 0.01585,0.0072 0.01367,0.01152 0.0035,0.0045 v 0 l 0.05669,0.07559 v 0 l 0.0126,0.0126 0.01584,0.0086 0.01688,0.004 0.01793,-9.67e-4 0.01688,-0.0057 0.0146,-0.01018 0.0076,-0.0084 v 0 l 0.05669,-0.07559 v 0 l 0.0126,-0.0126 0.01585,-0.0086 0.01688,-0.004 h 0.0057 v 0 l 0.01793,0.0024 0.01583,0.0072 0.01367,0.01152 0.0035,0.0045 v 0 l 0.05669,0.07559 v 0 l 0.0126,0.0126 0.01585,0.0086 0.01688,0.004 0.01793,-9.68e-4 0.01688,-0.0057 0.0146,-0.01018 0.0073,-0.0084 v 0 l 0.05669,-0.0756 v 0 l 0.0126,-0.0126 0.01585,-0.0086 0.01688,-0.004 h 0.0057 v 0 l 0.01793,0.0024 0.01583,0.0072 0.01367,0.01152 0.0035,0.0045 v 0 l 0.05669,0.0756 v 0 l 0.0126,0.0126 0.01585,0.0086 0.01688,0.004 0.01793,-8.87e-4 0.01688,-0.0057 0.0146,-0.01018 0.0076,-0.0084 v 0 l 0.05669,-0.0756 v 0 l 0.0126,-0.0126 0.01585,-0.0086 0.01686,-0.004 h 0.0057 v 0 l 0.01793,0.0024 0.01585,0.0072 0.01367,0.01152 0.0035,0.0045 v 0 l 0.05669,0.0756 v 0 l 0.0126,0.0126 0.01585,0.0086 0.01686,0.004 0.01793,-9.68e-4 0.01687,-0.0057 0.0146,-0.01018 0.0073,-0.0084 v 0 l 0.05669,-0.07559 v 0 l 0.0126,-0.0126 0.01585,-0.0086 0.01687,-0.004 h 0.0057 v 0 l 0.01793,0.0024 0.01585,0.0072 0.01367,0.01152 0.0035,0.0045 v 0 l 0.05669,0.07559 v 0 l 0.0126,0.0126 0.01585,0.0086 0.01686,0.004 0.01793,-9.66e-4 0.01686,-0.0057 0.0146,-0.01018 0.0073,-0.0084 v 0 l 0.05669,-0.07559 v 0 l 0.0126,-0.0126 0.01585,-0.0086 0.01686,-0.004 h 0.0057 v 0 l 0.01793,0.0024 0.01585,0.0072 0.01367,0.01152 0.0035,0.0045 v 0 l 0.05669,0.07559 v 0 l 0.0126,0.0126 0.01585,0.0086 0.01686,0.004 0.01793,-9.68e-4 0.01687,-0.0057 0.0146,-0.01018 0.0073,-0.0084 v 0 l 0.05669,-0.07559 v 0 l 0.0126,-0.0126 0.01584,-0.0086 0.01687,-0.004 h 0.0057 v 0 l 0.01793,0.0024 0.01585,0.0072 0.01367,0.01152 0.0035,0.0045 v 0 l 0.05669,0.07559 v 0 l 0.0126,0.0126 0.01585,0.0086 0.01686,0.004 0.01793,-9.68e-4 0.01688,-0.0057 0.0146,-0.01018 0.0073,-0.0084 v 0 l 0.05669,-0.0756 v 0 l 0.0126,-0.0126 0.01584,-0.0086 0.01688,-0.004 h 0.0057 v 0 l 0.01793,0.0024 0.01584,0.0072 0.01367,0.01152 0.0035,0.0045 v 0 l 0.05669,0.0756 v 0 l 0.0126,0.0126 0.01584,0.0086 0.01688,0.004 0.01793,-9.68e-4 0.01688,-0.0057 0.0146,-0.01018 0.0076,-0.0084 v 0 l 0.05669,-0.0756 v 0 l 0.0126,-0.0126 0.01585,-0.0086 0.01688,-0.004 h 0.0057 v 0 l 0.01793,0.0024 0.01583,0.0072 0.01367,0.01152 0.0035,0.0045 v 0 l 0.05669,0.0756 v 0 l 0.0126,0.0126 0.01585,0.0086 0.01688,0.004 0.01793,-8.87e-4 0.01688,-0.0057 0.0146,-0.01018 0.0073,-0.0084 v 0 l 0.05669,-0.0756 v 0 l 0.0126,-0.0126 0.01585,-0.0086 0.01688,-0.004 h 0.0057 v 0 l 0.01793,0.0024 0.01584,0.0072 0.01367,0.01152 0.0035,0.0045 v 0 l 0.05669,0.07559 v 0 l 0.0126,0.0126 0.01585,0.0086 0.01686,0.004 0.01793,-8.87e-4 0.01686,-0.0057 0.0146,-0.01018 0.0076,-0.0084 v 0 l 0.05669,-0.07559 v 0 l 0.0126,-0.0126 0.01585,-0.0086 0.01686,-0.004 h 0.0057 v 0 l 0.01793,0.0024 0.01585,0.0072 0.01367,0.01152 0.0035,0.0045 v 0 l 0.05669,0.07559 v 0 l 0.0126,0.0126 0.01585,0.0086 0.01688,0.004 0.01793,-9.68e-4 0.01686,-0.0057 0.0146,-0.01018 0.0076,-0.0084 v 0 l 0.05669,-0.07559 v 0 l 0.0126,-0.0126 0.01584,-0.0086 0.01688,-0.004 h 0.0057 v 0 l 0.01793,0.0024 0.01585,0.0072 0.01367,0.01152 0.0035,0.0045 v 0 l 0.05669,0.07559 v 0 l 0.0126,0.0126 0.01585,0.0086 0.01686,0.004 0.01793,-8.86e-4 0.01688,-0.0057 0.0146,-0.01018 0.0073,-0.0084 v 0 l 0.05882,-0.07559 v 0 l 0.0126,-0.0126 0.01585,-0.0086 0.01687,-0.004 h 0.0057 v 0 l 0.01793,0.0024 0.01585,0.0072 0.01367,0.01152 0.0035,0.0045 v 0 l 0.05669,0.07559 v 0 l 0.0126,0.0126 0.01585,0.0086 0.01686,0.004 0.01793,-9.68e-4 0.01686,-0.0057 0.0146,-0.01018 0.0073,-0.0084 v 0 l 0.05669,-0.0756 v 0 l 0.0126,-0.0126 0.01585,-0.0086 0.01686,-0.004 h 0.0057 v 0 l 0.01793,0.0024 0.01585,0.0072 0.01367,0.01152 0.0035,0.0045 v 0 l 0.05669,0.0756 v 0 l 0.0126,0.0126 0.01585,0.0086 0.01686,0.004 0.01793,-9.67e-4 0.01686,-0.0057 0.0146,-0.01018 0.0076,-0.0084 v 0 l 0.05669,-0.0756 v 0 l 0.0126,-0.0126 0.01583,-0.0086 0.01688,-0.004 h 0.0057 v 0 l 0.01793,0.0024 0.01585,0.0072 0.01367,0.01152 0.0035,0.0045 v 0 l 0.05669,0.0756 v 0 l 0.0126,0.0126 0.01584,0.0086 0.01688,0.004 0.01793,-9.68e-4 0.01688,-0.0057 0.0146,-0.01018 0.0073,-0.0084 v 0 l 0.05669,-0.0756 v 0 l 0.0126,-0.0126 0.01585,-0.0086 0.01688,-0.004 h 0.0057 v 0 l 0.01793,0.0024 0.01585,0.0072 0.01367,0.01152 0.0035,0.0045 v 0 l 0.05669,0.07559 v 0 l 0.0126,0.0126 0.01583,0.0086 0.01688,0.004 0.01793,-9.68e-4 0.01688,-0.0057 0.0146,-0.01018 0.0073,-0.0084 v 0 l 0.05669,-0.07559 v 0 l 0.0126,-0.0126 0.01585,-0.0086 0.01688,-0.004 h 0.0057 v 0 l 0.01793,0.0024 0.01584,0.0072 0.01367,0.01152 0.0035,0.0045 v 0 l 0.05669,0.07559 v 0 l 0.0126,0.0126 0.01584,0.0086 0.01688,0.004 0.01793,-8.86e-4 0.01688,-0.0057 0.0146,-0.01018 0.0076,-0.0084 v 0 l 0.05669,-0.07559 v 0 l 0.0126,-0.0126 0.01585,-0.0086 0.01688,-0.004 h 0.0057 v 0 l 0.01793,0.0024 0.01585,0.0072 0.01367,0.01152 0.0035,0.0045 v 0 l 0.05669,0.07559 v 0 l 0.0126,0.0126 0.01585,0.0086 0.01688,0.004 0.01793,-8.87e-4 0.01686,-0.0057 0.0146,-0.01018 0.0076,-0.0084 v 0 l 0.05669,-0.07559 v 0 l 0.0126,-0.0126 0.01585,-0.0086 0.01687,-0.004 h 0.0057 v 0 l 0.01793,0.0024 0.01585,0.0072 0.01367,0.01152 0.0035,0.0045 v 0 l 0.05669,0.0756 v 0 l 0.0126,0.0126 0.01585,0.0086 0.01686,0.004 0.01793,-9.68e-4 0.01686,-0.0057 0.0146,-0.01018 0.0073,-0.0084 v 0 l 0.05669,-0.0756 v 0 l 0.0126,-0.0126 0.01584,-0.0086 0.01688,-0.004 h 0.0057 v 0 l 0.01793,0.0024 0.01585,0.0072 0.01367,0.01152 0.0035,0.0045 v 0 l 0.05669,0.0756 v 0 l 0.0126,0.0126 0.01585,0.0086 0.01686,0.004 0.01793,-9.68e-4 0.01688,-0.0057 0.0146,-0.01018 0.0076,-0.0084 v 0 l 0.05669,-0.07559 v 0 l 0.0126,-0.0126 0.01581,-0.0086 0.01685,-0.004 h 0.0057 v 0 l 0.01789,0.0024 0.01581,0.0072 0.01367,0.01152 0.0032,0.0045 v 0 l 0.05668,0.07559 v 0 l 0.0126,0.0126 0.01581,0.0086 0.01685,0.004 0.01791,-8.87e-4 0.01685,-0.0057 0.0146,-0.01018 v -8.07e-4 0 l 0.727214,-0.695504 v 0 l 0.01041,-0.01367 0.0064,-0.01688 0.0032,-0.01793 -0.0032,-0.01792 -0.0072,-0.01584 -0.01152,-0.01367 -0.01475,-0.0094 -0.01685,-0.0053 -0.009,-8.07e-4 v 0 H 77.541561 v 0 l -0.04305,-0.0062 -0.03989,-0.01793 -0.0336,-0.02836 -0.02407,-0.03677 -0.01367,-0.042 -0.0034,-0.02729"
     stroke="#c0c0c0"
     stroke-width="0"
     stroke-opacity="1"
     fill="#c0c0c0"
     fill-rule="evenodd"
     fill-opacity="1"
     id="right_profile"
     inkscape:label="right_profile" />
  <rect
     style="fill:#a39a9a;fill-rule:evenodd;stroke:#b81e1e;stroke-width:0.0106152"
     id="finish_left"
     width="25.20089"
     height="6.7020741"
     x="16.979786"
     y="18.767113" />
  <rect
     style="fill:#a39a9a;fill-rule:evenodd;stroke:#b81e1e;stroke-width:0.0106152"
     id="finish_right"
     width="25.20089"
     height="6.7020741"
     x="77.464577"
     y="18.787577" />
  <rect
     style="fill:#a39a9a;fill-rule:evenodd;stroke:#b81e1e;stroke-width:0.00725189"
     id="cover_left"
     width="25.204252"
     height="0.62853116"
     x="16.978107"
     y="18.050503" />
  <rect
     style="fill:#a39a9a;fill-rule:evenodd;stroke:#b81e1e;stroke-width:0.00725189"
     id="cover_right"
     width="25.204252"
     height="0.62853116"
     x="77.408127"
     y="18.053389" />
  <rect
     style="fill:#414040;fill-rule:evenodd;stroke:#b81e1e;stroke-width:0.0102192;fill-opacity:0.76804733"
     id="rect1"
     width="85.880981"
     height="0.089366265"
     x="16.979589"
     y="65.773567" />
</svg>
