<?xml version="1.0" encoding="UTF-8" standalone="no"?>
<!-- Created with Inkscape (http://www.inkscape.org/) -->

<svg
   width="210mm"
   height="297mm"
   viewBox="0 0 210 297"
   version="1.1"
   id="svg1"
   inkscape:version="1.4 (86a8ad7, 2024-10-11)"
   sodipodi:docname="svg_file.svg"
   xmlns:inkscape="http://www.inkscape.org/namespaces/inkscape"
   xmlns:sodipodi="http://sodipodi.sourceforge.net/DTD/sodipodi-0.dtd"
   xmlns="http://www.w3.org/2000/svg"
   xmlns:svg="http://www.w3.org/2000/svg">
  <sodipodi:namedview
     id="namedview1"
     pagecolor="#ffffff"
     bordercolor="#000000"
     borderopacity="0.25"
     inkscape:showpageshadow="2"
     inkscape:pageopacity="0.0"
     inkscape:pagecheckerboard="0"
     inkscape:deskcolor="#d1d1d1"
     inkscape:document-units="mm"
     inkscape:zoom="2.9606624"
     inkscape:cx="370.69407"
     inkscape:cy="172.42763"
     inkscape:window-width="2560"
     inkscape:window-height="1377"
     inkscape:window-x="-8"
     inkscape:window-y="-8"
     inkscape:window-maximized="1"
     inkscape:current-layer="layer1" />
  <defs
     id="defs1">
    <linearGradient
       id="swatch7"
       inkscape:swatch="solid">
      <stop
         style="stop-color:#261a13;stop-opacity:1;"
         offset="0"
         id="stop7" />
    </linearGradient>
    <inkscape:perspective
       sodipodi:type="inkscape:persp3d"
       inkscape:vp_x="0 : 148.5 : 1"
       inkscape:vp_y="0 : 1000 : 0"
       inkscape:vp_z="210 : 148.5 : 1"
       inkscape:persp3d-origin="105 : 99 : 1"
       id="perspective2" />
  </defs>
  <g
     inkscape:label="Слой 1"
     inkscape:groupmode="layer"
     id="layer1">
    <path
       d="m 102.72979,25.838809 h -6.218663 l -1.185351,6.722452 -0.01717,0.07964 -0.02255,0.07827 -0.02799,0.07654 -0.03345,0.07434 -0.03812,0.07186 -0.04354,0.06907 -0.04821,0.06588 -0.05211,0.06236 -0.05678,0.05856 -0.06067,0.05452 -0.06377,0.05016 -0.06767,0.04557 -0.07076,0.04069 -0.07312,0.03571 -0.07544,0.03047 -0.07777,0.02521 -0.07902,0.01965 -0.08018,0.01406 -0.08096,0.0085 -0.08136,0.0031 -0.08144,-0.0031 -0.08096,-0.0085 -0.08018,-0.01406 -0.07902,-0.01965 -0.07777,-0.02521 -0.07544,-0.03047 -0.0731,-0.03571 -0.07079,-0.04069 -0.06766,-0.04557 -0.06377,-0.05016 -0.06067,-0.05452 -0.05676,-0.05856 -0.05213,-0.06236 -0.04821,-0.06588 -0.04355,-0.06907 -0.03812,-0.07186 -0.03343,-0.07434 -0.028,-0.07654 -0.03965,-0.157912 -1.185371,-6.722452 H 79.397271 l -1.185351,6.722452 -0.01717,0.07964 -0.02257,0.07827 -0.02799,0.07654 -0.03345,0.07434 -0.03811,0.07186 -0.04356,0.06907 -0.04821,0.06588 -0.05211,0.06236 -0.05678,0.05856 -0.06067,0.05452 -0.06377,0.05016 -0.06767,0.04557 -0.07076,0.04069 -0.07312,0.03571 -0.07544,0.03047 -0.07777,0.02521 -0.07902,0.01965 -0.08018,0.01406 -0.08096,0.0085 -0.08136,0.0031 -0.08142,-0.0031 -0.08096,-0.0085 -0.0802,-0.01406 -0.07902,-0.01965 -0.07777,-0.02521 -0.07544,-0.03047 -0.0731,-0.03571 -0.07079,-0.04069 -0.06767,-0.04557 -0.06377,-0.05016 -0.06067,-0.05452 -0.05676,-0.05856 -0.05211,-0.06236 -0.04824,-0.06588 -0.04354,-0.06907 -0.0381,-0.07186 -0.03345,-0.07434 -0.028,-0.07654 -0.03965,-0.157912 -1.185371,-6.722452 H 61.113516 v 3.499828 h 1.166609 v 0.9333 l -1.155254,0.777747 2.127442,3.344274 h 1.555472 l 2.138798,-3.344274 -1.16661,-0.777747 v -0.9333 h 2.333219 0.02722 l 0.02722,0.0031 0.02643,0.0048 0.02646,0.0062 0.02565,0.0085 0.02488,0.01013 0.02412,0.012 0.02333,0.01345 0.02255,0.0151 0.021,0.01675 0.02027,0.0182 0.01861,0.01944 0.01717,0.02077 0.01634,0.02193 0.01407,0.02302 0.01242,0.02396 0.01096,0.02482 0.0093,0.0255 0.0079,0.02604 0.0079,0.02654 v 0.02689 0.04069 L 67.719246,34.3929 h 3.734255 l 0.216989,0.0079 0.215974,0.02271 0.213886,0.03773 0.21068,0.0525 0.206502,0.06713 0.20135,0.08133 0.195145,0.09519 0.18805,0.108557 0.180045,0.121422 0.171109,0.13371 0.161386,0.145273 0.150797,0.156215 0.139605,0.16633 0.127628,0.175681 0.115031,0.18414 0.101958,0.191732 0.08835,0.198373 0.07389,0.204039 0.05989,0.208736 0.0093,0.03703 0.210535,0.769721 0.263737,0.753151 0.315617,0.732942 0.365922,0.709134 0.414617,0.68187 0.461034,0.651297 0.505465,0.617539 0.547209,0.580781 0.586512,0.541189 0.62273,0.498971 0.656014,0.454291 0.686214,0.407438 0.712878,0.358601 0.736127,0.307962 0.755882,0.255898 0.771831,0.202509 0.784117,0.14819 0.792599,0.09315 0.797107,0.03764 0.797812,-0.018 0.794543,-0.07364 0.787531,-0.128932 0.776588,-0.18354 0.761942,-0.237282 0.74345,-0.289842 0.721504,-0.341018 0.695936,-0.390497 0.371446,-0.23575 0.04667,-0.02838 0.04822,-0.02505 0.04977,-0.02162 0.05134,-0.0182 0.05211,-0.01448 0.05289,-0.01076 0.05365,-0.007 0.05445,-0.0031 h 0.05445 l 0.05445,0.0039 0.05366,0.0081 0.05289,0.01179 0.05211,0.01531 0.05055,0.01903 0.04977,0.02248 0.04746,0.0259 0.04588,0.02917 0.04355,0.03227 0.04122,0.03525 0.03889,0.03802 0.01242,0.01282 0.643416,0.661578 0.687993,0.615077 0.729219,0.565599 0.766845,0.513347 0.800832,0.458592 0.830949,0.401626 0.856826,0.342673 0.878711,0.282065 0.896194,0.220092 0.90941,0.157042 0.91811,0.09323 0.87568,0.029 0.92231,-0.03221 0.91781,-0.09645 0.90879,-0.160249 0.8955,-0.223257 0.87768,-0.285188 0.85567,-0.345692 0.82938,-0.404564 0.79928,-0.461427 0.76506,-0.516056 0.72719,-0.568163 0.68583,-0.617519 0.60974,-0.629143 0.0381,-0.03889 0.0404,-0.03616 0.0428,-0.0333 0.0451,-0.03016 0.0475,-0.02699 0.049,-0.02364 0.0506,-0.02006 0.0513,-0.01655 0.0529,-0.01303 0.0537,-0.0093 0.0536,-0.0054 0.0545,-0.002 0.0544,0.0023 0.0537,0.0062 0.0537,0.0097 0.0529,0.01324 0.0513,0.01696 0.0506,0.02048 0.049,0.02397 0.0467,0.02728 0.0147,0.0095 0.68044,0.416974 0.70783,0.368508 0.73176,0.318243 0.75225,0.266406 0.76895,0.213307 0.78195,0.159132 0.79119,0.104192 0.79649,0.04878 0.79795,-0.007 0.79556,-0.06261 0.78925,-0.117907 0.77907,-0.172681 0.76512,-0.226607 0.74751,-0.279417 0.72618,-0.330903 0.70127,-0.380733 0.67306,-0.428724 0.64149,-0.474644 0.60687,-0.518229 0.56915,-0.55929 0.52878,-0.597639 0.48586,-0.633074 0.44051,-0.665425 0.393,-0.694509 0.34352,-0.720241 0.29251,-0.742457 0.24001,-0.761054 0.10943,-0.426159 0.0575,-0.209438 0.0716,-0.20495 0.0858,-0.199427 0.0996,-0.192953 0.11277,-0.185547 0.12552,-0.177231 0.13752,-0.168047 0.14894,-0.158036 0.1595,-0.147259 0.16947,-0.135778 0.17858,-0.123615 0.18664,-0.110874 0.19399,-0.09757 0.20033,-0.0838 0.20572,-0.0696 0.21,-0.05515 0.21333,-0.04027 0.21566,-0.02536 0.21691,-0.01034 h 0.0382 3.73424 l -0.75667,-4.54032 -0.008,-0.02598 -0.008,-0.02643 -0.008,-0.02683 v -0.02707 -0.02714 -0.02714 -0.02691 l 0.008,-0.02668 0.008,-0.02621 0.008,-0.02565 0.0109,-0.02497 0.0124,-0.0242 0.0141,-0.02325 0.0156,-0.02223 0.0172,-0.02108 0.0186,-0.01986 0.0203,-0.01862 0.021,-0.01696 0.0225,-0.01551 0.0233,-0.01386 0.0241,-0.0122 0.0249,-0.01055 0.0256,-0.0087 0.0264,-0.007 0.0264,-0.0054 0.0272,-0.0031 0.0272,-0.002 0.008,-4.1e-5 h 2.33323 v 0.933279 l -1.16662,0.777746 2.1388,3.344296 h 1.55547 l 2.12744,-3.344296 -1.15525,-0.777746 v -0.933279 h 1.16661 V 25.83689 h -13.61165 l -1.18535,6.722453 -0.0172,0.07966 -0.0226,0.07827 -0.028,0.07652 -0.0335,0.07437 -0.0381,0.07186 -0.0428,0.06907 -0.0482,0.06586 -0.0522,0.06239 -0.0568,0.05856 -0.0607,0.05451 -0.0638,0.05018 -0.0677,0.04557 -0.0708,0.04067 -0.0731,0.03571 -0.0754,0.03049 -0.0778,0.0252 -0.079,0.01965 -0.0802,0.01428 -0.0811,0.0085 -0.0814,0.0031 -0.0814,-0.0031 -0.0811,-0.0085 -0.0802,-0.01428 -0.079,-0.01965 -0.0778,-0.0252 -0.0754,-0.03049 -0.0731,-0.03571 -0.0708,-0.04067 -0.0677,-0.04557 -0.0638,-0.05018 -0.0607,-0.05451 -0.0568,-0.05856 -0.0521,-0.06239 -0.0482,-0.06586 -0.0428,-0.06907 -0.0381,-0.07186 -0.0335,-0.07437 -0.028,-0.07652 -0.0396,-0.157932 -1.18535,-6.722453 H 113.6022 l -1.18537,6.722453 -0.0172,0.07966 -0.0225,0.07827 -0.028,0.07652 -0.0334,0.07437 -0.0381,0.07186 -0.0428,0.06907 -0.0482,0.06586 -0.0521,0.06239 -0.0568,0.05856 -0.0606,0.05451 -0.0638,0.05018 -0.0677,0.04557 -0.0708,0.04067 -0.0731,0.03571 -0.0754,0.03049 -0.0778,0.0252 -0.079,0.01965 -0.0802,0.01428 -0.081,0.0085 -0.0813,0.0031 -0.0814,-0.0031 -0.0811,-0.0085 -0.0802,-0.01428 -0.079,-0.01965 -0.0778,-0.0252 -0.0754,-0.03049 -0.0731,-0.03571 -0.0708,-0.04067 -0.0677,-0.04557 -0.0638,-0.05018 -0.0607,-0.05451 -0.0568,-0.05856 -0.0521,-0.06239 -0.0482,-0.06586 -0.0428,-0.06907 -0.0381,-0.07186 -0.0335,-0.07437 -0.028,-0.07652 -0.0397,-0.157932 -1.18535,-6.722453 h -6.21875 m 3.09285,3.888711 0.0544,0.002 0.0537,0.0054 0.0537,0.0093 0.0529,0.01324 0.0513,0.01675 0.0506,0.02027 0.049,0.02381 0.0467,0.02714 0.0451,0.03033 0.0428,0.03345 0.0404,0.03632 0.0373,0.03904 0.035,0.04162 0.0319,0.04394 0.0288,0.04605 0.0257,0.04791 0.0218,0.04962 0.0186,0.05101 0.0264,0.105288 0.48165,2.731266 0.0622,0.292035 0.0823,0.287009 0.10213,0.280554 0.1214,0.272777 0.14022,0.263613 0.15821,0.253209 0.17545,0.241543 0.19194,0.228716 0.20743,0.214776 0.18799,0.171026 0.12856,0.787572 0.18314,0.776671 0.23691,0.762026 0.28956,0.743636 0.34064,0.721627 0.39019,0.696102 0.4378,0.667183 0.12149,0.168524 0.0303,0.04488 0.0272,0.04689 0.0241,0.04869 0.0203,0.05025 0.0172,0.05155 0.0132,0.05258 0.0101,0.05343 0.008,0.05397 v 0.05422 0.05428 l -0.008,0.05407 -0.009,0.05349 -0.0124,0.05275 -0.0163,0.05172 -0.0203,0.05047 -0.0233,0.04892 -0.0272,0.04712 -0.0303,0.0452 -0.0334,0.04292 -0.0172,0.01965 -0.5053,0.530806 -0.54107,0.494254 -0.57428,0.455325 -0.60455,0.41414 -0.63206,0.37097 -0.65634,0.325959 -0.67757,0.279396 -0.6953,0.231448 -0.70985,0.182382 -0.72072,0.132428 -0.72829,0.08183 -0.73224,0.0308 h -0.0754 l -0.73241,-0.02559 -0.72882,-0.07659 -0.72174,-0.127256 -0.711096,-0.177294 -0.696929,-0.226462 -0.679512,-0.274536 -0.658682,-0.321263 -0.634708,-0.36644 -0.607568,-0.409797 -0.577472,-0.451187 -0.544664,-0.490386 -0.509024,-0.527165 -0.05055,-0.05608 -0.03421,-0.04185 -0.0319,-0.04416 -0.02799,-0.04628 -0.02488,-0.04815 -0.02178,-0.04977 -0.01779,-0.05118 -0.01469,-0.05227 -0.01096,-0.05318 -0.0079,-0.05382 v -0.05422 -0.05428 l 0.0079,-0.05413 0.0079,-0.05365 0.01159,-0.05306 0.01551,-0.05211 0.01861,-0.05086 0.02257,-0.04946 0.02567,-0.04776 0.02877,-0.0458 0.01468,-0.02108 0.449844,-0.659137 0.402722,-0.688882 0.353718,-0.715318 0.302999,-0.738258 0.250747,-0.757579 0.197234,-0.773237 0.142874,-0.78509 0.02801,-0.20586 0.21978,-0.202074 0.205157,-0.216927 0.18954,-0.230682 0.17297,-0.243384 0.155554,-0.254822 0.137433,-0.265061 0.118609,-0.274019 0.09923,-0.28161 0.07925,-0.287835 0.05134,-0.248844 0.481575,-2.731266 0.01096,-0.05312 0.01489,-0.05219 0.01861,-0.05101 0.02178,-0.04962 0.02567,-0.04791 0.02877,-0.04605 0.03187,-0.04394 0.035,-0.04162 0.03734,-0.03903 0.04044,-0.03632 0.04278,-0.03345 0.04512,-0.03033 0.04743,-0.02714 0.049,-0.02381 0.05056,-0.02048 0.05134,-0.01675 0.05287,-0.01324 0.05368,-0.0095 0.108184,-0.0079 h 3.092845 3.09285 v 0 m 6.52089,6.775118 0.28652,-0.08411 0.27991,-0.103861 0.27197,-0.12314 0.26272,-0.141818 0.25222,-0.159794 0.24049,-0.177003 0.22747,-0.193347 0.21349,-0.208735 0.19842,-0.223132 0.1823,-0.236433 0.16542,-0.248555 0.14769,-0.259496 0.12918,-0.269178 0.11013,-0.277514 0.0905,-0.284548 0.0708,-0.290131 0.0233,-0.120389 0.48165,-2.731265 0.011,-0.05312 0.0147,-0.05217 0.0186,-0.05103 0.0218,-0.04962 0.0257,-0.04791 0.0288,-0.04605 0.0319,-0.04394 0.035,-0.04162 0.0381,-0.03904 0.0404,-0.03632 0.0428,-0.03345 0.0451,-0.03033 0.0467,-0.02714 0.049,-0.02381 0.0506,-0.02048 0.0513,-0.01675 0.0529,-0.01324 0.0537,-0.0095 0.10826,-0.0079 h 6.19004 l 0.0544,0.002 0.0536,0.0054 0.0537,0.0093 0.0528,0.01324 0.0514,0.01675 0.0506,0.02048 0.049,0.02379 0.0467,0.02714 0.0451,0.03034 0.0428,0.03345 0.0404,0.0363 0.0374,0.03905 0.035,0.0416 0.0319,0.04395 0.0288,0.04605 0.0256,0.04791 0.0218,0.04961 0.0186,0.05103 0.0264,0.105268 0.48166,2.731266 0.0622,0.292056 0.0823,0.287008 0.1021,0.280555 0.12143,0.272756 0.14022,0.263635 0.15818,0.253188 0.17548,0.241542 0.19193,0.228717 0.20742,0.214796 0.22189,0.199779 0.23528,0.183809 0.24747,0.166972 0.25861,0.149286 0.26831,0.130875 0.27687,0.111846 0.28397,0.09228 0.12163,0.03298 0.0521,0.01531 0.0506,0.01883 0.0498,0.02232 0.0475,0.02573 0.0459,0.02902 0.0435,0.0321 0.0412,0.03516 0.0388,0.03796 0.0358,0.04052 0.0335,0.04292 0.0303,0.0452 0.0272,0.04712 0.0233,0.04892 0.0203,0.05047 0.0163,0.05172 0.0132,0.05275 0.009,0.05349 0.008,0.05407 v 0.05428 0.05422 l -0.008,0.05397 -0.0102,0.05343 -0.0132,0.05258 -0.0172,0.05154 -0.0132,0.03367 -0.25672,0.551118 -0.29463,0.531861 -0.331,0.510017 -0.36576,0.48567 -0.39875,0.458986 -0.42978,0.430047 -0.45871,0.39902 -0.48547,0.366067 -0.5098,0.331296 -0.53168,0.29491 -0.55095,0.257139 -0.56759,0.218064 -0.58136,0.177936 -0.59232,0.136936 -0.60049,0.0953 -0.60571,0.0532 -0.6079,0.01076 -0.60718,-0.03167 -0.60345,-0.07389 -0.59691,-0.115817 -0.58734,-0.157188 -0.57491,-0.197772 -0.55974,-0.237384 -0.54179,-0.275859 -0.52123,-0.31299 -0.49823,-0.348568 -0.47255,-0.382492 -0.4448,-0.414512 -0.41484,-0.444548 -0.38272,-0.47237 -0.3489,-0.497936 -0.31328,-0.521062 -0.27625,-0.541645 -0.1263,-0.283761 -0.0194,-0.0507 -0.0155,-0.05196 -0.0124,-0.05289 -0.008,-0.05358 -0.008,-0.05405 v -0.0543 -0.05419 l 0.008,-0.05391 0.0101,-0.05327 0.0141,-0.05242 0.0178,-0.05134 0.021,-0.04993 0.0249,-0.04836 0.028,-0.04652 0.0311,-0.04449 0.0342,-0.04214 0.0373,-0.03968 0.0397,-0.03703 0.042,-0.03413 0.0443,-0.03111 0.0467,-0.02793 0.0482,-0.02466 0.0498,-0.02116 0.0513,-0.01758 0.0342,-0.0095 v 0 m -18.704292,1.056998 -0.256663,0.55116 -0.294518,0.531901 -0.330923,0.510059 -0.365695,0.485731 -0.398668,0.459028 -0.429717,0.430109 -0.458717,0.399103 -0.48538,0.366109 -0.50981,0.331358 -0.531592,0.295013 -0.550952,0.257201 -0.567502,0.218126 -0.581381,0.178019 -0.592323,0.137039 -0.600494,0.09538 -0.605624,0.05326 -0.607879,0.01096 -0.607176,-0.03158 -0.603535,-0.0738 -0.596915,-0.115735 -0.587359,-0.157105 -0.574907,-0.197689 -0.559805,-0.237323 -0.541852,-0.275776 -0.521249,-0.312906 -0.498226,-0.348527 -0.4727,-0.382409 -0.444797,-0.414451 -0.414843,-0.444486 -0.382885,-0.472327 -0.348982,-0.497895 -0.313341,-0.521001 -0.276252,-0.541603 -0.126387,-0.283741 -0.01944,-0.05072 -0.01551,-0.05188 -0.01242,-0.05287 -0.0085,-0.05359 -0.0079,-0.05405 v -0.05428 -0.05422 l 0.0079,-0.05391 0.01014,-0.05326 0.01407,-0.05242 0.01779,-0.05134 0.02099,-0.04993 0.02488,-0.04836 0.02801,-0.04652 0.03111,-0.04448 0.03421,-0.04216 0.03734,-0.03968 0.03968,-0.037 0.04199,-0.03415 0.04433,-0.03111 0.04667,-0.02793 0.04822,-0.02466 0.04977,-0.02114 0.05134,-0.01758 0.035,-0.0097 0.286512,-0.08386 0.279996,-0.103654 0.272136,-0.122913 0.262868,-0.141611 0.252298,-0.159587 0.24055,-0.176818 0.227724,-0.193159 0.213659,-0.20857 0.198558,-0.222967 0.182527,-0.236267 0.165586,-0.248431 0.147921,-0.259373 0.129428,-0.269074 0.110273,-0.277431 0.09077,-0.284465 0.07076,-0.29009 0.02334,-0.12376 0.481574,-2.731266 0.01096,-0.05312 0.01469,-0.05219 0.01861,-0.05103 0.02176,-0.04962 0.02567,-0.04791 0.02877,-0.04603 0.0319,-0.04395 0.035,-0.0416 0.03732,-0.03905 0.04046,-0.03632 0.04278,-0.03343 0.04509,-0.03034 0.04746,-0.02714 0.04898,-0.02379 0.05055,-0.02047 0.05134,-0.01675 0.05289,-0.01324 0.05366,-0.0093 0.108184,-0.0079 h 6.190116 l 0.05445,0.002 0.05445,0.0054 0.05365,0.0095 0.05289,0.01324 0.05134,0.01675 0.05055,0.02048 0.04898,0.02379 0.04667,0.02716 0.04512,0.03033 0.04278,0.03345 0.04044,0.03632 0.03734,0.03903 0.035,0.04162 0.03187,0.04394 0.02877,0.04605 0.02567,0.04791 0.02178,0.04962 0.01862,0.05101 0.02646,0.105267 0.481574,2.731266 0.06222,0.292056 0.08235,0.287009 0.102124,0.280554 0.121402,0.272756 0.140163,0.263634 0.158264,0.253209 0.175452,0.241542 0.19196,0.228717 0.207328,0.214776 0.221892,0.199779 0.235274,0.183809 0.247562,0.166972 0.258587,0.149286 0.268329,0.130876 0.276873,0.111845 0.283947,0.09228 0.118217,0.03212 0.05211,0.01531 0.05055,0.01883 0.049,0.02241 0.04821,0.02575 0.04588,0.02908 0.04356,0.03219 0.04122,0.03517 0.03889,0.03796 0.03577,0.04058 0.03345,0.04301 0.03033,0.0452 0.02646,0.0472 0.02334,0.04892 0.02027,0.05047 0.01634,0.05173 0.01241,0.05273 0.0093,0.05351 0.0079,0.05405 v 0.05428 0.05422 l -0.0079,0.05397 -0.01013,0.05343 -0.01324,0.05258 -0.01717,0.05148 -0.01324,0.03298 v 0 M 140.91848,30.5017 v -0.03392 -0.03374 l 0.008,-0.03345 0.008,-0.03291 0.0109,-0.03226 0.0124,-0.03151 0.0147,-0.03047 0.0172,-0.02941 0.0186,-0.02815 0.021,-0.02675 0.0225,-0.0252 0.0241,-0.02358 0.0256,-0.02176 0.0272,-0.02006 0.0288,-0.018 0.0303,-0.01592 0.0311,-0.01365 0.0319,-0.01159 0.0327,-0.0093 0.0335,-0.007 0.0335,-0.0048 0.0335,-0.0023 h 0.0342 l 0.0342,0.0023 0.0335,0.0048 0.0334,0.007 0.0327,0.0093 0.0319,0.01159 0.0311,0.01365 0.0296,0.01592 0.0288,0.018 0.0272,0.02006 0.0256,0.02176 0.0241,0.02358 0.0226,0.0252 0.0209,0.02675 0.0186,0.02815 0.0172,0.02941 0.0148,0.03047 0.0124,0.03151 0.011,0.03226 0.008,0.03291 0.008,0.03345 0.008,0.06767 v 1.749915 0.03391 0.03376 l -0.008,0.03345 -0.009,0.03289 -0.011,0.03229 -0.0124,0.03142 -0.0149,0.03047 -0.0172,0.02941 -0.0186,0.02815 -0.021,0.02675 -0.0226,0.0252 -0.0241,0.02358 -0.0257,0.02176 -0.0272,0.01986 -0.0288,0.018 -0.0296,0.01593 -0.0311,0.01386 -0.0319,0.01159 -0.0327,0.0093 -0.0335,0.007 -0.0335,0.0048 -0.0342,0.0023 h -0.0342 l -0.0335,-0.0023 -0.0334,-0.0048 -0.0335,-0.007 -0.0327,-0.0093 -0.0319,-0.01159 -0.0311,-0.01386 -0.0303,-0.01593 -0.0288,-0.018 -0.0272,-0.01986 -0.0256,-0.02176 -0.0242,-0.02358 -0.0225,-0.0252 -0.021,-0.02675 -0.0186,-0.02815 -0.0172,-0.02941 -0.0147,-0.03047 -0.0124,-0.03142 -0.0109,-0.03229 -0.009,-0.03289 -0.008,-0.03345 -0.008,-0.06766 v -1.749915 0 m -76.413107,0 v 1.749915 0.03391 0.03376 l -0.0079,0.03345 -0.0085,0.03289 -0.01096,0.03229 -0.01242,0.03142 -0.01469,0.03047 -0.01717,0.02941 -0.01861,0.02815 -0.02099,0.02675 -0.02255,0.0252 -0.02412,0.02358 -0.02567,0.02176 -0.02722,0.01986 -0.02877,0.018 -0.02956,0.01593 -0.03111,0.01386 -0.03187,0.01159 -0.03266,0.0093 -0.03345,0.007 -0.03345,0.0048 -0.03421,0.0023 h -0.03421 l -0.03345,-0.0023 -0.03345,-0.0048 -0.03345,-0.007 -0.03266,-0.0093 -0.03187,-0.01159 -0.03111,-0.01386 -0.03034,-0.01593 -0.02877,-0.018 -0.02722,-0.01986 -0.02567,-0.02176 -0.0241,-0.02358 -0.02255,-0.0252 -0.02102,-0.02675 -0.01861,-0.02815 -0.01717,-0.02941 -0.01489,-0.03047 -0.01241,-0.03142 -0.01096,-0.03229 -0.0085,-0.03289 -0.0079,-0.03345 -0.0079,-0.06766 V 30.50173 30.46781 30.43407 l 0.0079,-0.03345 0.0085,-0.03291 0.01096,-0.03227 0.01241,-0.03151 0.01489,-0.03047 0.01717,-0.02941 0.01862,-0.02815 0.02101,-0.02674 0.02255,-0.0252 0.0241,-0.02358 0.02567,-0.02176 0.02722,-0.02006 0.02877,-0.018 0.03034,-0.01593 0.03111,-0.01365 0.03187,-0.01159 0.03266,-0.0093 0.03345,-0.007 0.03345,-0.0048 0.03345,-0.0023 h 0.03421 l 0.03421,0.0023 0.03345,0.0048 0.03345,0.007 0.03266,0.0093 0.03187,0.01159 0.03111,0.01365 0.02956,0.01593 0.02877,0.018 0.02722,0.02006 0.02567,0.02176 0.02412,0.02358 0.02255,0.0252 0.021,0.02674 0.01861,0.02815 0.01717,0.02941 0.01469,0.03047 0.01242,0.03151 0.01096,0.03227 0.0085,0.03291 0.0079,0.03345 0.0079,0.06766 v 0"
       stroke="#000000"
       stroke-width="0"
       stroke-opacity="1"
       fill="#000000"
       fill-rule="evenodd"
       fill-opacity="1"
       id="path646" />
    <path
       d="m 59.565138,27.938718 v 16.410329 0 l 0.0079,0.04286 0.01779,0.03959 0.02799,0.03314 0.03578,0.02418 0.04122,0.01345 0.0272,0.0023 v 0 h 1.244407 v 0 l 0.04276,-0.0062 0.03968,-0.01758 0.03345,-0.02784 0.0241,-0.03587 0.01324,-0.04121 v -0.027 0 -3.188742 0 l 0.0079,-0.04286 0.01779,-0.03957 0.028,-0.03314 0.03577,-0.02418 0.04123,-0.01345 0.02722,-0.0023 v 0 h 0.622193 v 0 l 0.107253,-0.0151 0.09886,-0.04402 0.08291,-0.0696 0.06065,-0.08975 0.03345,-0.10293 0.0079,-0.06752 v 0 -0.622193 0 l -0.0079,-0.04284 -0.01779,-0.03959 -0.02799,-0.03314 -0.03578,-0.02418 -0.0412,-0.01345 -0.02722,-0.0023 v 0 h -0.855523 v 0 l -0.04278,-0.0062 -0.03965,-0.01758 -0.03345,-0.02784 -0.02412,-0.03587 -0.01324,-0.04121 v -0.02699 0 -3.577605 0 l 0.0079,-0.04286 0.018,-0.03959 0.02799,-0.03312 0.03578,-0.0242 0.04122,-0.01345 0.02722,-0.0023 v 0 h 5.521961 v 0 l 0.04278,0.0062 0.03965,0.01758 0.03345,0.02784 0.02412,0.03593 0.01324,0.04115 v 0.027 0 3.577605 0 l -0.0079,0.04286 -0.01779,0.03959 -0.028,0.03312 -0.03577,0.0242 -0.04122,0.01345 -0.02722,0.0023 v 0 h -0.855502 v 0 l -0.04278,0.0062 -0.03968,0.01758 -0.03345,0.02784 -0.0241,0.03593 -0.01324,0.04115 v 0.027 0 0.622193 0 l 0.01469,0.107171 0.04433,0.0989 0.07,0.08291 0.08967,0.06053 0.102971,0.03343 0.06767,0.0062 v 0 h 1.788803 v 0 l 0.04278,-0.0062 0.03968,-0.01758 0.03345,-0.02784 0.0241,-0.03587 0.01324,-0.04121 v -0.027 0 -4.744214 0 l 0.0079,-0.04286 0.01779,-0.03959 0.028,-0.03314 0.03577,-0.02418 0.04123,-0.01345 0.02722,-0.0023 v 0 h 2.410996 v 0 l 0.04278,-0.0062 0.03968,-0.01758 0.03343,-0.02784 0.02412,-0.03585 0.01324,-0.04122 v -0.027 0 -0.622194 0 -0.622193 0 l -0.0079,-0.04284 -0.018,-0.03959 -0.02799,-0.03314 -0.03578,-0.02418 -0.04122,-0.01345 -0.02722,-0.0023 v 0 h -2.410996 v 0 l -0.04278,-0.0062 -0.03965,-0.01758 -0.03345,-0.02784 -0.0241,-0.03587 -0.01324,-0.04121 v -0.027 0 -4.744215 0 l -0.0079,-0.04286 -0.01779,-0.03959 -0.028,-0.03314 -0.03577,-0.02418 -0.04122,-0.01345 -0.02722,-0.0023 v 0 h -1.788802 v 0 l -0.107171,0.0151 -0.09885,0.04402 -0.08291,0.0696 -0.06067,0.08973 -0.03345,0.10295 -0.0079,0.06749 v 0 0.622193 0 l 0.0079,0.04286 0.018,0.03959 0.02801,0.03314 0.03577,0.02418 0.04123,0.01345 0.02722,0.0023 v 0 h 0.855502 v 0 l 0.04278,0.0062 0.03968,0.01758 0.03345,0.02784 0.02409,0.03593 0.01324,0.04115 v 0.027 0 3.577605 0 l -0.0079,0.04286 -0.01779,0.03957 -0.028,0.03314 -0.03577,0.02418 -0.04122,0.01345 -0.02722,0.0023 v 0 h -5.521961 v 0 l -0.04278,-0.0062 -0.03968,-0.01758 -0.03345,-0.02784 -0.02409,-0.03585 -0.01324,-0.04122 v -0.02697 0 -3.577626 0 l 0.0079,-0.04284 0.018,-0.03959 0.02799,-0.03314 0.03578,-0.02418 0.0412,-0.01345 0.02722,-0.0023 v 0 h 0.855523 v 0 l 0.04278,-0.0062 0.03965,-0.01758 0.03345,-0.02784 0.02412,-0.03585 0.01324,-0.04122 v -0.027 0 -0.622193 0 l -0.01469,-0.107191 -0.04435,-0.09888 -0.07,-0.08291 -0.08973,-0.06053 -0.10291,-0.03343 -0.06766,-0.0062 v 0 h -0.777747 v 0 -3.344295 0 l -0.0079,-0.04284 -0.01779,-0.03959 -0.028,-0.03314 -0.03577,-0.02418 -0.04122,-0.01345 -0.02722,-0.0023 v 0 h -1.399939 v 0 l -0.04278,-0.0062 -0.03965,-0.01758 -0.03345,-0.02784 -0.0085,-0.01076 v 0 L 59.29676,25.589369 v 0 l -0.03033,-0.03072 -0.03811,-0.02108 -0.04201,-0.0097 -0.04355,0.0023 -0.04122,0.01407 -0.03578,0.02474 -0.01861,0.02069 v 0 l -0.14006,0.186685 v 0 l -0.03034,0.03064 -0.03811,0.02108 -0.04199,0.0097 h -0.01407 v 0 l -0.04278,-0.0062 -0.03968,-0.01758 -0.03343,-0.02784 -0.0085,-0.01076 v 0 L 58.518275,25.58873 v 0 l -0.03033,-0.03072 -0.03812,-0.02108 -0.04199,-0.0097 -0.04356,0.0023 -0.0412,0.01406 -0.03578,0.02474 -0.01862,0.02069 v 0 l -0.140081,0.186685 v 0 l -0.03033,0.03064 -0.03811,0.02108 -0.04201,0.0097 h -0.01406 v 0 l -0.04278,-0.0062 -0.03965,-0.01758 -0.03345,-0.02784 -0.0085,-0.01076 v 0 l -0.139915,-0.186644 v 0 l -0.03034,-0.03072 -0.0381,-0.02108 -0.04199,-0.0097 -0.04356,0.0023 -0.04122,0.01406 -0.03577,0.02472 -0.01861,0.02069 v 0 l -0.14006,0.186685 v 0 l -0.03034,0.03065 -0.03811,0.02108 -0.04199,0.0097 h -0.01406 v 0 l -0.04278,-0.0062 -0.03965,-0.01758 -0.03345,-0.02784 -0.0085,-0.01076 v 0 l -0.139908,-0.186893 v 0 l -0.03033,-0.03072 -0.03811,-0.02108 -0.04201,-0.0097 -0.04354,0.0023 -0.04122,0.01406 -0.03578,0.02474 -0.01862,0.02069 v 0 l -0.140081,0.186685 v 0 l -0.03033,0.03064 -0.03811,0.02108 -0.04201,0.0097 h -0.01407 v 0 l -0.04278,-0.0062 -0.03968,-0.01758 -0.03345,-0.02784 -0.0085,-0.01076 v 0 l -0.139915,-0.186664 v 0 l -0.03033,-0.03072 -0.03812,-0.02108 -0.04199,-0.0097 -0.04356,0.0023 -0.0412,0.01406 -0.03578,0.02474 -0.01861,0.02069 v 0 l -0.140081,0.186685 v 0 l -0.03033,0.03064 -0.03812,0.02108 -0.04199,0.0097 h -0.01406 v 0 l -0.04278,-0.0062 -0.03965,-0.01758 -0.03345,-0.02784 -0.0085,-0.01076 v 0 l -0.139915,-0.186664 v 0 l -0.03034,-0.03072 -0.03811,-0.02108 -0.04201,-0.0097 -0.04355,0.0023 -0.04122,0.01406 -0.03577,0.02474 -0.01862,0.02069 v 0 l -0.14006,0.186684 v 0 l -0.03034,0.03063 -0.03811,0.02108 -0.04199,0.0097 h -0.01407 v 0 l -0.04277,-0.0062 -0.03965,-0.01758 -0.03345,-0.02784 -0.0085,-0.01076 v 0 l -0.139915,-0.186643 v 0 l -0.03033,-0.03072 -0.03812,-0.02108 -0.04199,-0.0097 -0.04355,0.0023 -0.04122,0.01406 -0.03578,0.02472 -0.01861,0.02069 v 0 l -0.140081,0.186685 v 0 l -0.03033,0.03065 -0.03811,0.02108 -0.04201,0.0097 h -0.01407 v 0 l -0.04278,-0.0062 -0.03968,-0.01758 -0.03345,-0.02784 -0.0085,-0.01076 v 0 l -0.139916,-0.186643 v 0 l -0.03034,-0.03072 -0.03811,-0.02108 -0.04199,-0.0097 -0.04356,0.0023 -0.04121,0.01407 -0.03578,0.02474 -0.01861,0.02069 v 0 l -0.140081,0.186685 v 0 l -0.03033,0.03064 -0.03812,0.02108 -0.04199,0.0097 h -0.01406 v 0 l -0.04278,-0.0062 -0.03965,-0.01758 -0.03345,-0.02784 -0.0085,-0.01076 v 0 L 53.06887,25.583999 v 0 l -0.03033,-0.03072 -0.03811,-0.02108 -0.04201,-0.0097 -0.04355,0.0023 -0.04122,0.01406 -0.03577,0.02474 -0.01862,0.02069 v 0 l -0.14006,0.186685 v 0 l -0.03034,0.03063 -0.0381,0.02108 -0.04199,0.0097 H 52.5547 v 0 l -0.04278,-0.0062 -0.03968,-0.01758 -0.03343,-0.02784 -0.0085,-0.01076 v 0 L 52.290394,25.58334 v 0 l -0.03033,-0.03072 -0.03812,-0.02108 -0.04199,-0.0097 -0.04355,0.0023 -0.04123,0.01406 -0.03578,0.02474 -0.01862,0.02069 v 0 l -0.140081,0.186685 v 0 l -0.03033,0.03063 -0.03811,0.02108 -0.04201,0.0097 h -0.01406 v 0 l -0.04278,-0.0062 -0.03968,-0.01758 -0.03345,-0.02784 -0.0085,-0.01076 v 0 L 51.511992,25.58288 v 0 l -0.03034,-0.03072 -0.0381,-0.02108 -0.04199,-0.0097 -0.04356,0.0023 -0.04123,0.01406 -0.03577,0.02472 -0.01862,0.02069 v 0 l -0.140081,0.186684 v 0 l -0.03032,0.03065 -0.03812,0.02108 -0.04199,0.0097 H 50.9978 v 0 l -0.04278,-0.0062 -0.03965,-0.01758 -0.03345,-0.02784 -0.0085,-0.01076 v 0 l -0.13989,-0.186829 v 0 l -0.03032,-0.03072 -0.0381,-0.02108 -0.04201,-0.0097 -0.04354,0.0023 -0.04123,0.01406 -0.03576,0.02474 -0.01862,0.02069 v 0 l -0.14006,0.186685 v 0 l -0.03035,0.03064 -0.0381,0.02108 -0.04199,0.0097 h -0.01407 v 0 L 50.1766,25.82425 50.13693,25.80667 50.1035,25.77883 50.095,25.76807 v 0 l -0.139915,-0.186664 v 0 l -0.03032,-0.03072 -0.03812,-0.02108 -0.04199,-0.0097 -0.04356,0.0023 -0.0412,0.01406 -0.03579,0.02474 -0.01862,0.02069 v 0 l -0.14008,0.186675 v 0 l -0.03032,0.03063 -0.0381,0.02108 -0.04201,0.0097 h -0.01407 v 0 l -0.04276,-0.0062 -0.03968,-0.01758 -0.03345,-0.02784 -0.0085,-0.01076 v 0 L 49.1766,25.580728 v 0 l -0.03034,-0.03072 -0.0381,-0.02108 -0.04199,-0.0097 -0.04356,0.0023 -0.04123,0.01407 -0.03576,0.02474 -0.01862,0.02069 v 0 l -0.14006,0.186684 v 0 l -0.03033,0.03063 -0.03812,0.02108 -0.04199,0.0097 h -0.01407 v 0 l -0.04278,-0.0062 -0.03965,-0.01758 -0.03345,-0.02784 -0.0085,-0.01076 v 0 l -0.139915,-0.186658 v 0 l -0.03032,-0.03072 -0.0381,-0.02108 -0.04201,-0.0097 -0.04354,0.0023 -0.04123,0.01407 -0.03579,0.02472 -0.01862,0.02069 v 0 l -0.14006,0.186686 v 0 l -0.03034,0.03065 -0.0381,0.02108 -0.04199,0.0097 h -0.01407 v 0 l -0.04278,-0.0062 -0.03967,-0.01758 -0.03343,-0.02784 -0.0085,-0.01076 v 0 l -0.139916,-0.186667 v 0 l -0.03032,-0.03074 -0.03812,-0.02105 -0.04199,-0.0097 -0.04356,0.0023 -0.04121,0.01406 -0.03578,0.02474 -0.01862,0.02069 v 0 l -0.140081,0.186691 v 0 l -0.03032,0.03064 -0.0381,0.02108 -0.04201,0.0097 h -0.01407 v 0 l -0.04278,-0.0062 -0.03965,-0.01758 -0.03345,-0.02784 -0.0085,-0.01076 v 0 L 46.84128,25.578741 v 0 l -0.03034,-0.03072 -0.0381,-0.02108 -0.04199,-0.0097 -0.04356,0.0023 -0.04122,0.01406 -0.03576,0.02474 -0.01862,0.02069 v 0 l -0.14006,0.186685 v 0 l -0.03034,0.03064 -0.0381,0.02108 -0.04199,0.0097 h -0.01407 v 0 l -0.04278,-0.0062 -0.03965,-0.01758 -0.03345,-0.02784 -0.0085,-0.01076 v 0 L 46.062831,25.57805 v 0 l -0.03033,-0.03072 -0.0381,-0.02108 -0.04201,-0.0097 -0.04354,0.0023 -0.04123,0.01406 -0.03578,0.02474 -0.01862,0.02069 v 0 l -0.14008,0.186664 v 0 l -0.03032,0.03065 -0.0381,0.02108 -0.04201,0.0097 h -0.01407 v 0 l -0.04278,-0.0062 -0.03967,-0.01758 -0.03345,-0.02784 -0.0085,-0.01076 v 0 L 45.28434,25.577388 v 0 l -0.03032,-0.03072 -0.03812,-0.02108 -0.04199,-0.0097 -0.04356,0.0023 -0.04121,0.01407 -0.03579,0.02472 -0.01862,0.02069 v 0 L 44.894649,25.7643 v 0 l -0.03032,0.03065 -0.03812,0.02108 -0.04199,0.0097 h -0.01407 v 0 l -0.04278,-0.0062 -0.03965,-0.01758 -0.03345,-0.02784 -0.0085,-0.01076 v 0 l -0.139915,-0.186674 v 0 l -0.03034,-0.03074 -0.0381,-0.02106 -0.04201,-0.0097 -0.04354,0.0023 -0.04123,0.01407 -0.03577,0.02474 -0.01862,0.02069 v 0 l -0.14006,0.186684 v 0 l -0.03034,0.03063 -0.0381,0.02108 -0.04199,0.0097 h -0.01407 v 0 l -0.04278,-0.0062 -0.03965,-0.01758 -0.03345,-0.02784 -0.0085,-0.01076 v 0 L 43.72742,25.576044 v 0 l -0.03033,-0.03072 -0.03812,-0.02108 -0.04199,-0.0097 -0.04354,0.0023 -0.04123,0.01406 -0.03579,0.02474 -0.01862,0.02069 v 0 l -0.140081,0.186685 v 0 l -0.03032,0.03064 -0.0381,0.02108 -0.04201,0.0097 h -0.01407 v 0 l -0.04278,-0.0062 -0.03967,-0.01758 -0.03345,-0.02784 -0.0085,-0.01076 v 0 l -0.139916,-0.186644 v 0 l -0.03035,-0.03072 -0.0381,-0.02108 -0.04199,-0.0097 -0.04356,0.0023 -0.04121,0.01406 -0.03578,0.02472 -0.01862,0.02071 v 0 l -0.140081,0.186664 v 0 l -0.03032,0.03065 -0.03812,0.02108 -0.04199,0.0097 h -0.01407 v 0 l -0.04278,-0.0062 -0.03965,-0.01758 -0.03345,-0.02784 -0.0085,-0.01076 v 0 l -0.139915,-0.186643 v 0 l -0.03032,-0.03072 -0.0381,-0.02108 -0.04201,-0.0097 -0.04354,0.0023 -0.04122,0.01406 -0.03576,0.02472 -0.01862,0.02069 v 0 l -0.14006,0.186685 v 0 l -0.03034,0.03065 -0.0381,0.02108 -0.04199,0.0097 h -0.01407 v 0 l -0.04278,-0.0062 -0.03967,-0.01758 -0.03343,-0.02784 -0.0085,-0.01076 v 0 l -0.139915,-0.186708 v 0 l -0.03032,-0.03074 -0.03812,-0.02106 -0.04199,-0.0097 -0.04354,0.0023 -0.04123,0.01406 -0.03578,0.02474 -0.01862,0.02069 v 0 l -0.14008,0.186686 v 0 l -0.03033,0.03063 -0.0381,0.02108 -0.04201,0.0097 h -0.01407 v 0 l -0.04278,-0.0062 -0.03967,-0.01758 -0.03345,-0.02784 -0.0085,-0.01076 v 0 l -0.139916,-0.186664 v 0 l -0.03035,-0.03072 -0.0381,-0.02108 -0.04199,-0.0097 -0.04356,0.0023 -0.04123,0.01406 -0.03576,0.02474 -0.01862,0.02069 v 0 l -0.140081,0.186686 v 0 l -0.03032,0.03063 -0.03812,0.02108 -0.04199,0.0097 h -0.01407 v 0 l -0.04278,-0.0062 -0.03965,-0.01758 -0.03345,-0.02784 -0.0085,-0.01076 v 0 l -0.139914,-0.186683 v 0 l -0.03033,-0.03072 -0.0381,-0.02108 -0.04201,-0.0097 -0.04354,0.0023 -0.04123,0.01406 -0.03576,0.02472 -0.01862,0.02071 v 0 l -0.14006,0.186664 v 0 l -0.03034,0.03066 -0.0381,0.02108 -0.04199,0.0097 h -0.01407 v 0 l -0.04278,-0.0062 -0.03967,-0.01758 -0.03343,-0.02784 -0.0085,-0.01076 v 0 l -0.139915,-0.186643 v 0 l -0.03032,-0.03072 -0.03812,-0.02108 -0.04199,-0.0097 -0.04356,0.0023 -0.0412,0.01406 -0.03579,0.02472 -0.01862,0.02069 v 0 l -0.140081,0.186685 v 0 l -0.03032,0.03065 -0.0381,0.02106 -0.04201,0.0097 h -0.01407 v 0 l -0.04276,-0.0062 -0.03967,-0.01758 -0.03345,-0.02784 -0.0085,-0.01076 v 0 l -0.139914,-0.186698 v 0 l -0.03035,-0.03074 -0.0381,-0.02108 -0.04199,-0.0097 -0.04356,0.0023 -0.04123,0.01406 -0.03576,0.02474 -0.01862,0.02069 v 0 l -0.14006,0.186686 v 0 l -0.03032,0.03064 -0.03812,0.02108 -0.04199,0.0097 h -0.01407 v 0 l -0.04278,-0.0062 -0.03965,-0.01758 -0.03345,-0.02784 -0.0085,-0.01076 v 0 l -0.139915,-0.186664 v 0 l -0.03032,-0.03072 -0.0381,-0.02108 -0.04201,-0.0097 -0.04354,0.0023 -0.04123,0.01406 -0.03579,0.02474 -0.01862,0.02069 v 0 l -0.14006,0.186686 v 0 l -0.03034,0.03063 -0.0381,0.02108 -0.04199,0.0097 h -0.01407 v 0 l -0.04278,-0.0062 -0.03967,-0.01758 -0.03343,-0.02784 -0.0085,-0.01076 v 0 L 36.721151,25.57009 v 0 l -0.03033,-0.03072 -0.03812,-0.02108 -0.04199,-0.0097 -0.04356,0.0023 -0.0412,0.01406 -0.03579,0.02472 -0.01862,0.02071 v 0 l -0.140081,0.186664 v 0 l -0.03032,0.03065 -0.0381,0.02108 -0.04201,0.0097 h -0.01407 v 0 l -0.04278,-0.0062 -0.03965,-0.01758 -0.03345,-0.02784 -0.0085,-0.01076 v 0 L 35.942665,25.56945 v 0 l -0.03034,-0.03072 -0.0381,-0.02108 -0.04199,-0.0097 -0.04356,0.0023 -0.04122,0.01407 -0.03577,0.02472 -0.01862,0.02069 v 0 l -0.14006,0.186685 v 0 l -0.03033,0.03065 -0.03812,0.02105 -0.04199,0.0097 h -0.01407 v 0 l -0.04278,-0.0062 -0.03965,-0.01758 -0.03345,-0.02784 -0.0085,-0.01076 v 0 L 35.1642,25.568791 v 0 l -0.03033,-0.03074 -0.03811,-0.02108 -0.04201,-0.0097 -0.04355,0.0023 -0.04123,0.01407 -0.03578,0.02474 -0.01862,0.02069 v 0 l -0.140081,0.186685 v 0 l -0.03033,0.03063 -0.03811,0.02108 -0.04201,0.0097 h -0.01407 v 0 l -0.04278,-0.0062 -0.03968,-0.01758 -0.03345,-0.02786 -0.0085,-0.01076 v 0 L 34.38584,25.568035 v 0 l -0.03033,-0.03072 -0.03812,-0.02108 -0.04199,-0.0097 -0.04356,0.0023 -0.04121,0.01406 -0.03578,0.02474 -0.01861,0.02069 v 0 l -0.140081,0.186685 v 0 l -0.03033,0.03063 -0.03812,0.02108 -0.04199,0.0097 h -0.01407 v 0 l -0.04278,-0.0062 -0.03965,-0.01758 -0.03345,-0.02784 -0.0085,-0.01076 v 0 l -0.139915,-0.186643 v 0 l -0.03035,-0.03072 -0.03811,-0.02108 -0.04201,-0.0097 -0.04355,0.0023 -0.04122,0.01407 -0.03577,0.02472 -0.01861,0.02071 v 0 l -0.140061,0.186664 v 0 l -0.03034,0.03065 -0.0381,0.02108 -0.04199,0.0097 h -0.01407 v 0 l -0.04278,-0.0062 -0.03965,-0.01758 -0.03345,-0.02784 -0.0085,-0.01076 v 0 l -0.139915,-0.186643 v 0 l -0.03033,-0.03072 -0.03812,-0.02108 -0.04199,-0.0097 -0.04355,0.0023 -0.04122,0.01406 -0.03578,0.02472 -0.01861,0.02069 v 0 l -0.14008,0.186685 v 0 l -0.03033,0.03065 -0.0381,0.02105 -0.04201,0.0097 h -0.01407 v 0 l -0.04278,-0.0062 -0.03968,-0.01758 -0.03345,-0.02784 -0.0085,-0.01076 v 0 L 32.050362,25.5661 v 0 l -0.03034,-0.03074 -0.03811,-0.02108 -0.04199,-0.0097 -0.04356,0.0023 -0.0412,0.01406 -0.03578,0.02474 -0.01862,0.02069 v 0 l -0.140081,0.186685 v 0 l -0.03033,0.03064 -0.03812,0.02108 -0.04199,0.0097 h -0.01407 v 0 l -0.04277,-0.0062 -0.03965,-0.01758 -0.03345,-0.02784 -0.0085,-0.01076 v 0 l -0.139915,-0.186664 v 0 l -0.03033,-0.03072 -0.03811,-0.02108 -0.04201,-0.0097 -0.04355,0.0023 -0.04122,0.01406 -0.03577,0.02474 -0.01862,0.02069 v 0 l -0.14006,0.186684 v 0 l -0.03034,0.03064 -0.03811,0.02108 -0.04199,0.0097 h -0.01406 v 0 l -0.04278,-0.0062 -0.03968,-0.01758 -0.03343,-0.02784 -0.0085,-0.01076 v 0 l -0.139915,-0.186643 v 0 l -0.03033,-0.03072 -0.03812,-0.02108 -0.04199,-0.0097 -0.04355,0.0023 -0.04122,0.01407 -0.03578,0.02472 -0.01861,0.02071 v 0 l -0.140081,0.186664 v 0 l -0.03033,0.03066 -0.03811,0.02108 -0.04201,0.0097 h -0.01406 v 0 l -0.04278,-0.0062 -0.03968,-0.01758 -0.03345,-0.02784 -0.0085,-0.01076 v 0 l -0.139916,-0.186643 v 0 l -0.03034,-0.03072 -0.03811,-0.02108 -0.04199,-0.0097 -0.04356,0.0023 -0.04122,0.01406 -0.03577,0.02472 -0.01862,0.02069 v 0 l -0.140081,0.186684 v 0 l -0.03033,0.03064 -0.03812,0.02108 -0.04199,0.0097 h -0.01406 v 0 l -0.04278,-0.0062 -0.03965,-0.01758 -0.03345,-0.02784 -0.0085,-0.01076 v 0 l -0.139915,-0.186664 v 0 l -0.03033,-0.03072 -0.0381,-0.02108 -0.04201,-0.0097 -0.04355,0.0023 -0.04122,0.01407 -0.03577,0.02474 -0.01862,0.02069 v 0 l -0.14006,0.186684 v 0 l -0.03034,0.03063 -0.03811,0.02108 -0.04199,0.0097 h -0.01407 v 0 l -0.04278,-0.0062 -0.03968,-0.01758 -0.03343,-0.02784 -0.0085,-0.01076 v 0 l -0.139916,-0.186664 v 0 l -0.03033,-0.03072 -0.03812,-0.02108 -0.04199,-0.0097 -0.04356,0.0023 -0.0412,0.01407 -0.03578,0.02474 -0.01862,0.02069 v 0 l -0.140081,0.186684 v 0 l -0.03033,0.03063 -0.03811,0.02108 -0.04201,0.0097 h -0.01406 v 0 l -0.04276,-0.0062 -0.03968,-0.01758 -0.03345,-0.02784 -0.0085,-0.01076 v 0 l -0.139915,-0.186644 v 0 l -0.03035,-0.03072 -0.03811,-0.02108 -0.04199,-0.0097 -0.04356,0.0023 -0.04122,0.01407 -0.03577,0.02472 -0.01862,0.0207 v 0 l -0.14006,0.186664 v 0 l -0.03033,0.03065 -0.03812,0.02108 -0.04199,0.0097 h -0.01406 v 0 l -0.04278,-0.0062 -0.03965,-0.01758 -0.03345,-0.02784 -0.0085,-0.01076 v 0 L 26.60117,25.561515 v 0 l -0.03033,-0.03072 -0.03811,-0.02108 -0.04201,-0.0097 -0.04355,0.0023 -0.04123,0.01407 -0.03578,0.02474 -0.01862,0.02069 v 0 L 26.21148,25.7485 v 0 l -0.03034,0.03064 -0.03811,0.02108 -0.04199,0.0097 h -0.01407 v 0 l -0.04278,-0.0062 -0.03968,-0.01758 -0.03343,-0.02784 -0.0085,-0.01076 v 0 l -0.139915,-0.186664 v 0 l -0.03033,-0.03072 -0.03812,-0.02108 -0.04199,-0.0097 -0.04356,0.0023 -0.0412,0.01407 -0.03578,0.02474 -0.01862,0.02069 v 0 l -0.140081,0.186685 v 0 l -0.03033,0.03063 -0.0381,0.02108 -0.04201,0.0097 h -0.01406 v 0 l -0.04278,-0.0062 -0.03965,-0.01758 -0.03345,-0.02784 -0.0085,-0.01076 v 0 l -0.139915,-0.186665 v 0 l -0.03034,-0.03072 -0.03811,-0.02108 -0.04199,-0.0097 -0.04356,0.0023 -0.04122,0.01407 -0.03577,0.02474 -0.01862,0.02069 v 0 l -0.14006,0.186685 v 0 l -0.03033,0.03063 -0.03812,0.02108 -0.04199,0.0097 h -0.01406 v 0 l -0.04278,-0.0062 -0.03965,-0.01758 -0.03345,-0.02784 -0.0085,-0.01076 v 0 l -0.139916,-0.186643 v 0 l -0.03033,-0.03072 -0.03811,-0.02108 -0.04201,-0.0097 -0.04354,0.0023 -0.04123,0.01406 -0.03578,0.02472 -0.01861,0.02069 v 0 l -0.14006,0.186685 v 0 l -0.03034,0.03065 -0.0381,0.02108 -0.04201,0.0097 h -0.01406 v 0 l -0.04278,-0.0062 -0.03968,-0.01758 -0.03345,-0.02784 -0.0085,-0.01076 v 0 l -0.139915,-0.186644 v 0 l -0.03033,-0.03072 -0.03812,-0.02108 -0.04199,-0.0097 -0.04356,0.0023 -0.0412,0.01406 -0.03578,0.02474 -0.01862,0.02069 v 0 l -0.14008,0.186684 v 0 l -0.03033,0.03063 -0.03812,0.02108 -0.04199,0.0097 h -0.01406 v 0 l -0.04278,-0.0062 -0.03965,-0.01758 -0.03345,-0.02784 -0.0085,-0.01076 v 0 l -0.139916,-0.186664 v 0 l -0.03034,-0.03072 -0.03811,-0.02108 -0.04199,-0.0097 -0.04356,0.0023 -0.04123,0.01406 -0.03577,0.02474 -0.01862,0.02069 v 0 l -0.14006,0.186684 v 0 l -0.03034,0.03063 -0.03811,0.02108 -0.04199,0.0097 h -0.01406 v 0 l -0.04278,-0.0062 -0.03965,-0.01758 -0.03345,-0.02784 -0.0085,-0.01076 v 0 l -0.139915,-0.186665 v 0 l -0.03033,-0.03072 -0.03812,-0.02108 -0.04199,-0.0097 -0.04355,0.0023 -0.04123,0.01406 -0.03578,0.02474 -0.01862,0.02069 v 0 l -0.140081,0.186685 v 0 l -0.03033,0.03064 -0.03811,0.02108 -0.04201,0.0097 h -0.01406 v 0 l -0.04277,-0.0062 -0.03968,-0.01758 -0.03345,-0.02784 -0.0085,-0.01076 v 0 L 21.15174,25.557009 v 0 l -0.03034,-0.03072 -0.03811,-0.02108 -0.04199,-0.0097 -0.04356,0.0023 -0.0412,0.01406 -0.03578,0.02472 -0.01862,0.02069 v 0 l -0.140081,0.186685 v 0 l -0.03033,0.03066 -0.03812,0.02108 -0.04199,0.0097 h -0.01406 v 0 l -0.04278,-0.0062 -0.03965,-0.01758 -0.03345,-0.02784 -0.0085,-0.01076 v 0 l -0.139916,-0.186643 v 0 l -0.03033,-0.03072 -0.0381,-0.02108 -0.04201,-0.0097 -0.04354,0.0023 -0.04123,0.01406 -0.03577,0.02474 -0.01862,0.02069 v 0 l -0.14006,0.186685 v 0 l -0.03034,0.03063 -0.0381,0.02108 -0.04199,0.0097 h -0.01407 v 0 l -0.04278,-0.0062 -0.03968,-0.01758 -0.03343,-0.02784 -0.0085,-0.01076 v 0 l -0.139916,-0.186664 v 0 l -0.03033,-0.03072 -0.03812,-0.02108 -0.04199,-0.0097 -0.04354,0.0023 -0.04123,0.01406 -0.03578,0.02474 -0.01862,0.02069 v 0 l -0.140081,0.186685 v 0 l -0.03033,0.03064 -0.03811,0.02108 -0.04201,0.0097 h -0.01406 v 0 l -0.04278,-0.0062 -0.03968,-0.01758 -0.03345,-0.02784 -0.0085,-0.01076 v 0 l -0.139915,-0.186643 v 0 l -0.03034,-0.03072 -0.03811,-0.02108 -0.04199,-0.0097 -0.04356,0.0023 -0.04122,0.01406 -0.03577,0.02474 -0.01861,0.02069 v 0 L 18.42659,25.74207 v 0 l -0.03033,0.03063 -0.03812,0.02108 -0.04199,0.0097 h -0.01406 v 0 l -0.04278,-0.0062 -0.03965,-0.01758 -0.03345,-0.02784 -0.0085,-0.01076 v 0 l -0.139916,-0.186644 v 0 l -0.03033,-0.03072 -0.0381,-0.02108 -0.04201,-0.0097 -0.04355,0.0023 -0.04123,0.01406 -0.03577,0.02472 -0.01862,0.02069 v 0 l -0.14006,0.186685 v 0 l -0.03034,0.03065 -0.0381,0.02108 -0.04199,0.0097 h -0.01407 v 0 l -0.04278,-0.0062 -0.03968,-0.01758 -0.03343,-0.02784 -0.0085,-0.01076 v 0 L 17.259589,25.55374 v 0 l -0.03033,-0.03072 -0.03812,-0.02108 -0.04199,-0.0097 -0.04356,0.0023 -0.04121,0.01407 -0.03578,0.02474 -0.01862,0.02069 v 0 l -0.14008,0.186684 v 0 l -0.03033,0.03063 -0.03811,0.02108 -0.04201,0.0097 h -0.01406 v 0 l -0.04276,-0.0062 -0.03968,-0.01758 -0.03345,-0.02784 -0.0085,-0.01076 v 0 L 16.481084,25.55309 v 0 l -0.03034,-0.03072 -0.03811,-0.02108 -0.04199,-0.0097 -0.04356,0.0023 -0.04123,0.01406 -0.03577,0.02474 -0.01862,0.02069 v 0 l -0.140061,0.186684 v 0 l -0.03033,0.03063 -0.03812,0.02108 -0.04199,0.0097 h -0.01406 v 0 l -0.04278,-0.0062 -0.03965,-0.01758 -0.03345,-0.02784 -0.0085,-0.01076 v 0 l -0.139915,-0.186643 v 0 l -0.03033,-0.03072 -0.0381,-0.02108 -0.04202,-0.0097 -0.04355,0.0023 -0.04123,0.01406 -0.03578,0.02474 -0.01862,0.02069 v 0 l -0.14006,0.186664 v 0 l -0.03034,0.03066 -0.0381,0.02108 -0.04199,0.0097 h -0.01406 v 0 l -0.04278,-0.0062 -0.03968,-0.01758 -0.03343,-0.02784 -0.0085,-0.01076 v 0 l -0.139916,-0.186643 v 0 l -0.03033,-0.03072 -0.03812,-0.02108 -0.04199,-0.0097 -0.04356,0.0023 -0.0412,0.01406 -0.03578,0.02472 v 0.002 0 l -1.788802,1.711046 v 0 l -0.02722,0.03399 -0.01634,0.04004 -0.0079,0.04301 0.0079,0.04272 0.01861,0.03903 0.02877,0.03235 0.03655,0.0231 0.04122,0.0122 0.02255,0.002 v 0 h 46.12018 v 0 l 0.107233,0.0151 0.09886,0.04402 0.08291,0.0696 0.06067,0.08973 0.03345,0.102951 0.0079,0.06749"
       stroke="#c0c0c0"
       stroke-width="0"
       stroke-opacity="1"
       fill="#c0c0c0"
       fill-rule="evenodd"
       fill-opacity="1"
       id="path754" />
    <path
       d="m 145.89444,27.938718 v 16.410329 0 l -0.008,0.04286 -0.018,0.03959 -0.028,0.03314 -0.0358,0.02418 -0.0412,0.01345 -0.0272,0.0023 v 0 h -1.24439 v 0 l -0.0428,-0.0062 -0.0396,-0.01758 -0.0335,-0.02784 -0.0241,-0.03587 -0.0132,-0.04121 v -0.027 0 -3.188742 0 l -0.008,-0.04286 -0.018,-0.03957 -0.028,-0.03314 -0.0358,-0.02418 -0.0412,-0.01345 -0.0272,-0.0023 v 0 h -0.6222 v 0 l -0.10717,-0.0151 -0.0988,-0.04402 -0.0829,-0.0696 -0.0607,-0.08975 -0.0335,-0.10293 -0.008,-0.06752 v 0 -0.622193 0 l 0.008,-0.04284 0.0178,-0.03959 0.028,-0.03314 0.0357,-0.02418 0.0412,-0.01345 0.0272,-0.0023 v 0 h 0.85553 v 0 l 0.0428,-0.0062 0.0396,-0.01758 0.0335,-0.02784 0.0242,-0.03587 0.0132,-0.04121 v -0.02699 0 -3.577605 0 l -0.008,-0.04286 -0.018,-0.03959 -0.028,-0.03312 -0.0357,-0.0242 -0.0412,-0.01345 -0.0272,-0.0023 v 0 h -5.52197 v 0 l -0.0428,0.0062 -0.0396,0.01758 -0.0335,0.02784 -0.0242,0.03593 -0.0132,0.04115 v 0.027 0 3.577605 0 l 0.008,0.04286 0.018,0.03959 0.028,0.03312 0.0358,0.0242 0.0412,0.01345 0.0272,0.0023 v 0 h 0.8555 v 0 l 0.0428,0.0062 0.0396,0.01758 0.0334,0.02784 0.0242,0.03593 0.0132,0.04115 v 0.027 0 0.622193 0 l -0.0147,0.107171 -0.0443,0.0989 -0.07,0.08291 -0.0898,0.06053 -0.10288,0.03343 -0.0676,0.0062 v 0 h -1.78883 v 0 l -0.0428,-0.0062 -0.0396,-0.01758 -0.0335,-0.02784 -0.0241,-0.03587 -0.0132,-0.04121 v -0.027 0 -4.744214 0 l -0.008,-0.04286 -0.0178,-0.03959 -0.028,-0.03314 -0.0357,-0.02418 -0.0412,-0.01345 -0.0272,-0.0023 v 0 h -2.411 v 0 l -0.0428,-0.0062 -0.0396,-0.01758 -0.0334,-0.02784 -0.0242,-0.03585 -0.0132,-0.04122 v -0.027 0 -0.622194 0 -0.622193 0 l 0.008,-0.04284 0.0178,-0.03959 0.028,-0.03314 0.0358,-0.02418 0.0412,-0.01345 0.0272,-0.0023 v 0 h 2.411 v 0 l 0.0428,-0.0062 0.0396,-0.01758 0.0335,-0.02784 0.0241,-0.03587 0.0132,-0.04121 v -0.027 0 -4.744215 0 l 0.008,-0.04286 0.018,-0.03959 0.028,-0.03314 0.0357,-0.02418 0.0412,-0.01345 0.0272,-0.0023 v 0 h 1.7888 v 0 l 0.10726,0.0151 0.0988,0.04402 0.0829,0.0696 0.0607,0.08973 0.0335,0.10295 0.008,0.06749 v 0 0.622193 0 l -0.008,0.04286 -0.018,0.03959 -0.028,0.03314 -0.0358,0.02418 -0.0412,0.01345 -0.0272,0.0023 v 0 h -0.85553 v 0 l -0.0428,0.0062 -0.0396,0.01758 -0.0335,0.02784 -0.0241,0.03593 -0.0132,0.04115 v 0.027 0 3.577605 0 l 0.008,0.04286 0.018,0.03957 0.028,0.03314 0.0358,0.02418 0.0412,0.01345 0.0272,0.0023 v 0 h 5.52196 v 0 l 0.0428,-0.0062 0.0396,-0.01758 0.0335,-0.02784 0.0241,-0.03585 0.0132,-0.04122 v -0.02697 0 -3.577626 0 l -0.008,-0.04284 -0.018,-0.03959 -0.028,-0.03314 -0.0357,-0.02418 -0.0412,-0.01345 -0.0272,-0.0023 v 0 h -0.8555 v 0 l -0.0428,-0.0062 -0.0396,-0.01758 -0.0335,-0.02784 -0.0241,-0.03585 -0.0132,-0.04122 v -0.027 0 -0.622193 0 l 0.0147,-0.107191 0.0443,-0.09888 0.07,-0.08291 0.0897,-0.06053 0.10297,-0.03343 0.0676,-0.0062 v 0 h 0.77775 v 0 -3.344295 0 l 0.008,-0.04284 0.0178,-0.03959 0.028,-0.03314 0.0358,-0.02418 0.0412,-0.01345 0.0272,-0.0023 v 0 h 1.39992 v 0 l 0.0428,-0.0062 0.0396,-0.01758 0.0335,-0.02784 0.009,-0.01076 v 0 l 0.14,-0.186664 v 0 l 0.0303,-0.03072 0.0382,-0.02108 0.042,-0.0097 0.0436,0.0023 0.0412,0.01407 0.0358,0.02474 0.0186,0.02069 v 0 l 0.14008,0.186685 v 0 l 0.0303,0.03064 0.0381,0.02108 0.042,0.0097 h 0.0141 v 0 l 0.0428,-0.0062 0.0396,-0.01758 0.0335,-0.02784 0.008,-0.01076 v 0 l 0.14,-0.186664 v 0 l 0.0303,-0.03072 0.0382,-0.02108 0.042,-0.0097 0.0435,0.0023 0.0412,0.01406 0.0358,0.02474 0.0186,0.02069 v 0 l 0.14008,0.186685 v 0 l 0.0303,0.03064 0.0381,0.02108 0.042,0.0097 h 0.0141 v 0 l 0.0428,-0.0062 0.0396,-0.01758 0.0335,-0.02784 0.008,-0.01076 v 0 l 0.13999,-0.186644 v 0 l 0.0303,-0.03072 0.0381,-0.02108 0.042,-0.0097 0.0435,0.0023 0.0412,0.01406 0.0357,0.02472 0.0186,0.02069 v 0 l 0.14007,0.186685 v 0 l 0.0303,0.03065 0.0382,0.02108 0.042,0.0097 h 0.0141 v 0 l 0.0428,-0.0062 0.0396,-0.01758 0.0335,-0.02784 0.009,-0.01076 v 0 l 0.13998,-0.186644 v 0 l 0.0303,-0.03072 0.0381,-0.02108 0.042,-0.0097 0.0436,0.0023 0.0412,0.01406 0.0357,0.02474 0.0186,0.02069 v 0 l 0.14006,0.186684 v 0 l 0.0303,0.03064 0.0382,0.02108 0.042,0.0097 h 0.0141 v 0 l 0.0428,-0.0062 0.0396,-0.01758 0.0335,-0.02784 0.009,-0.01076 v 0 l 0.13997,-0.186664 v 0 l 0.0303,-0.03072 0.0381,-0.02108 0.042,-0.0097 0.0436,0.0023 0.0412,0.01406 0.0357,0.02474 0.0186,0.02069 v 0 l 0.14007,0.186684 v 0 l 0.0303,0.03064 0.0381,0.02108 0.042,0.0097 h 0.0141 v 0 l 0.0428,-0.0062 0.0396,-0.01758 0.0335,-0.02784 0.008,-0.01076 v 0 l 0.13999,-0.186665 v 0 l 0.0303,-0.03072 0.0381,-0.02108 0.042,-0.0097 0.0435,0.0023 0.0412,0.01406 0.0357,0.02474 0.0186,0.02069 v 0 l 0.14006,0.186684 v 0 l 0.0303,0.03063 0.0381,0.02108 0.042,0.0097 h 0.0141 v 0 l 0.0428,-0.0062 0.0396,-0.01758 0.0335,-0.02784 0.009,-0.01076 v 0 l 0.14,-0.186643 v 0 l 0.0303,-0.03072 0.0381,-0.02108 0.042,-0.0097 0.0435,0.0023 0.0412,0.01406 0.0358,0.02472 0.0186,0.02069 v 0 l 0.14006,0.186684 v 0 l 0.0303,0.03065 0.0381,0.02108 0.042,0.0097 h 0.0141 v 0 l 0.0428,-0.0062 0.0396,-0.01758 0.0335,-0.02784 0.009,-0.01076 v 0 l 0.14,-0.186643 v 0 l 0.0303,-0.03072 0.0381,-0.02108 0.042,-0.0097 0.0435,0.0023 0.0412,0.01406 0.0358,0.02474 0.0186,0.02069 v 0 l 0.14008,0.186686 v 0 l 0.0303,0.03064 0.0381,0.02108 0.042,0.0097 h 0.0141 v 0 l 0.0428,-0.0062 0.0397,-0.01758 0.0335,-0.02784 0.009,-0.01076 v 0 l 0.14,-0.186664 v 0 l 0.0303,-0.03072 0.0382,-0.02108 0.042,-0.0097 0.0435,0.0023 0.0412,0.01406 0.0358,0.02474 0.0186,0.02069 v 0 l 0.14008,0.186686 v 0 l 0.0303,0.03063 0.0381,0.02108 0.042,0.0097 h 0.0141 v 0 l 0.0428,-0.0062 0.0396,-0.01758 0.0335,-0.02784 0.009,-0.01076 v 0 l 0.14,-0.186664 v 0 l 0.0303,-0.03072 0.0382,-0.02108 0.042,-0.0097 0.0435,0.0023 0.0412,0.01406 0.0358,0.02474 0.0186,0.02069 v 0 l 0.14008,0.186685 v 0 l 0.0303,0.03063 0.0381,0.02108 0.042,0.0097 h 0.0141 v 0 l 0.0428,-0.0062 0.0396,-0.01758 0.0335,-0.02784 0.008,-0.01076 v 0 l 0.14,-0.186643 v 0 l 0.0303,-0.03072 0.0381,-0.02108 0.042,-0.0097 0.0435,0.0023 0.0412,0.01407 0.0358,0.02472 0.0186,0.02069 v 0 l 0.14008,0.186684 v 0 l 0.0303,0.03065 0.0382,0.02108 0.042,0.0097 h 0.0141 v 0 l 0.0428,-0.0062 0.0396,-0.01758 0.0335,-0.02784 0.009,-0.01076 v 0 l 0.13997,-0.186644 v 0 l 0.0303,-0.03072 0.0381,-0.02108 0.042,-0.0097 0.0436,0.0023 0.0412,0.01407 0.0357,0.02474 0.0186,0.02069 v 0 l 0.14007,0.186684 v 0 l 0.0303,0.03064 0.0382,0.02108 0.042,0.0097 h 0.0141 v 0 l 0.0428,-0.0062 0.0396,-0.01758 0.0335,-0.02784 0.009,-0.01076 v 0 l 0.13998,-0.186664 v 0 l 0.0303,-0.03072 0.0381,-0.02108 0.042,-0.0097 0.0435,0.0023 0.0412,0.01406 0.0357,0.02474 0.0186,0.02069 v 0 l 0.14006,0.186685 v 0 l 0.0303,0.03063 0.0381,0.02108 0.042,0.0097 h 0.0141 v 0 l 0.0428,-0.0062 0.0396,-0.01758 0.0335,-0.02784 0.009,-0.01076 v 0 l 0.14,-0.186644 v 0 l 0.0303,-0.03072 0.0381,-0.02108 0.042,-0.0097 0.0435,0.0023 0.0412,0.01406 0.0357,0.02474 0.0186,0.02069 v 0 l 0.14006,0.186684 v 0 l 0.0303,0.03063 0.0381,0.02108 0.042,0.0097 h 0.0141 v 0 l 0.0428,-0.0062 0.0396,-0.01758 0.0335,-0.02784 0.008,-0.01076 v 0 l 0.14,-0.186643 v 0 l 0.0303,-0.03072 0.0381,-0.02108 0.042,-0.0097 0.0436,0.0023 0.0412,0.01406 0.0358,0.02472 0.0186,0.02069 v 0 l 0.14006,0.186685 v 0 l 0.0303,0.03065 0.0381,0.02108 0.042,0.0097 h 0.0141 v 0 l 0.0428,-0.0062 0.0396,-0.01758 0.0335,-0.02784 0.009,-0.01076 v 0 l 0.14,-0.186644 v 0 l 0.0303,-0.03074 0.0381,-0.02105 0.042,-0.0097 0.0436,0.0023 0.0412,0.01407 0.0358,0.02474 0.0186,0.02069 v 0 l 0.14009,0.186684 v 0 l 0.0303,0.03064 0.0381,0.02108 0.042,0.0097 h 0.0141 v 0 l 0.0428,-0.0062 0.0396,-0.01758 0.0335,-0.02784 0.008,-0.01076 v 0 l 0.14,-0.186665 v 0 l 0.0303,-0.03072 0.0382,-0.02108 0.042,-0.0097 0.0435,0.0023 0.0412,0.01407 0.0358,0.02474 0.0186,0.02069 v 0 l 0.14007,0.186684 v 0 l 0.0303,0.03064 0.0381,0.02108 0.042,0.0097 h 0.0141 v 0 l 0.0428,-0.0062 0.0396,-0.01758 0.0335,-0.02784 0.009,-0.01076 v 0 l 0.14,-0.186644 v 0 l 0.0303,-0.03072 0.0382,-0.02108 0.042,-0.0097 0.0436,0.0023 0.0412,0.01406 0.0358,0.02474 0.0186,0.02069 v 0 l 0.14009,0.186665 v 0 l 0.0303,0.03065 0.0381,0.02108 0.042,0.0097 h 0.0141 v 0 l 0.0428,-0.0062 0.0397,-0.01758 0.0335,-0.02784 0.009,-0.01076 v 0 l 0.14,-0.186643 v 0 l 0.0303,-0.03072 0.0382,-0.02108 0.042,-0.0097 0.0436,0.0023 0.0412,0.01406 0.0358,0.02472 0.0186,0.02069 v 0 l 0.14009,0.186685 v 0 l 0.0303,0.03065 0.0382,0.02108 0.042,0.0097 h 0.0141 v 0 l 0.0428,-0.0062 0.0396,-0.01758 0.0335,-0.02784 0.009,-0.01076 v 0 l 0.14,-0.186644 v 0 l 0.0303,-0.03074 0.0381,-0.02106 0.042,-0.0097 0.0436,0.0023 0.0412,0.01406 0.0357,0.02474 0.0186,0.02069 v 0 l 0.14008,0.186685 v 0 l 0.0303,0.03063 0.0382,0.02108 0.042,0.0097 h 0.0141 v 0 l 0.0428,-0.0062 0.0396,-0.01758 0.0335,-0.02784 0.009,-0.01076 v 0 l 0.13997,-0.186664 v 0 l 0.0303,-0.03072 0.0381,-0.02108 0.042,-0.0097 0.0436,0.0023 0.0412,0.01406 0.0357,0.02474 0.0186,0.02069 v 0 l 0.14006,0.186686 v 0 l 0.0303,0.03064 0.0382,0.02108 0.042,0.0097 h 0.0141 v 0 l 0.0428,-0.0062 0.0396,-0.01758 0.0335,-0.02784 0.009,-0.01076 v 0 l 0.13999,-0.186644 v 0 l 0.0303,-0.03072 0.0381,-0.02108 0.042,-0.0097 0.0435,0.0023 0.0412,0.01406 0.0357,0.02472 0.0186,0.02071 v 0 l 0.14006,0.186664 v 0 l 0.0303,0.03065 0.0381,0.02108 0.042,0.0097 h 0.0141 v 0 l 0.0428,-0.0062 0.0396,-0.01758 0.0335,-0.02784 0.009,-0.01076 v 0 l 0.14,-0.186643 v 0 l 0.0303,-0.03072 0.0381,-0.02108 0.042,-0.0097 0.0435,0.0023 0.0412,0.01406 0.0357,0.02472 0.0186,0.02069 v 0 l 0.14006,0.186684 v 0 l 0.0303,0.03065 0.0381,0.02108 0.042,0.0097 h 0.0141 v 0 l 0.0428,-0.0062 0.0396,-0.01758 0.0335,-0.02784 0.008,-0.01076 v 0 l 0.14,-0.186643 v 0 l 0.0303,-0.03074 0.0381,-0.02106 0.042,-0.0097 0.0435,0.0023 0.0412,0.01406 0.0358,0.02474 0.0186,0.02069 v 0 l 0.14006,0.186685 v 0 l 0.0303,0.03063 0.0381,0.02108 0.042,0.0097 h 0.0141 v 0 l 0.0428,-0.0062 0.0396,-0.01758 0.0335,-0.02784 0.009,-0.01076 v 0 l 0.14,-0.186664 v 0 l 0.0303,-0.03072 0.0382,-0.02108 0.042,-0.0097 0.0436,0.0023 0.0412,0.01407 0.0358,0.02474 0.0186,0.02069 v 0 l 0.14008,0.186685 v 0 l 0.0303,0.03063 0.0381,0.02108 0.042,0.0097 h 0.0141 v 0 l 0.0428,-0.0062 0.0397,-0.01758 0.0335,-0.02784 0.009,-0.01076 v 0 l 0.14,-0.186643 v 0 l 0.0303,-0.03072 0.0382,-0.02108 0.042,-0.0097 0.0436,0.0023 0.0412,0.01407 0.0358,0.02472 0.0186,0.02071 v 0 l 0.14008,0.186664 v 0 l 0.0303,0.03065 0.0381,0.02108 0.042,0.0097 h 0.0141 v 0 l 0.0428,-0.0062 0.0396,-0.01758 0.0335,-0.02784 0.009,-0.01076 v 0 l 0.14,-0.186644 v 0 l 0.0303,-0.03072 0.0382,-0.02108 0.042,-0.0097 0.0435,0.0023 0.0412,0.01407 0.0358,0.02472 0.0186,0.02069 v 0 l 0.14008,0.186685 v 0 l 0.0303,0.03065 0.0381,0.02106 0.042,0.0097 h 0.0141 v 0 l 0.0428,-0.0062 0.0396,-0.01758 0.0335,-0.02784 0.008,-0.01076 v 0 l 0.14,-0.186644 v 0 l 0.0303,-0.03074 0.0381,-0.02108 0.042,-0.0097 0.0436,0.0023 0.0412,0.01407 0.0358,0.02474 0.0186,0.02069 v 0 l 0.14008,0.186685 v 0 l 0.0303,0.03064 0.0382,0.02108 0.042,0.0097 h 0.0141 v 0 l 0.0428,-0.0062 0.0396,-0.01758 0.0335,-0.02784 0.008,-0.01076 v 0 l 0.13998,-0.186664 v 0 l 0.0303,-0.03072 0.0381,-0.02108 0.042,-0.0097 0.0436,0.0023 0.0412,0.01406 0.0357,0.02474 0.0186,0.02069 v 0 l 0.14008,0.186685 v 0 l 0.0303,0.03063 0.0382,0.02108 0.042,0.0097 h 0.0141 v 0 l 0.0428,-0.0062 0.0396,-0.01758 0.0335,-0.02784 0.009,-0.01076 v 0 l 0.13997,-0.186644 v 0 l 0.0303,-0.03072 0.0381,-0.02108 0.042,-0.0097 0.0436,0.0023 0.0412,0.01407 0.0357,0.02472 0.0186,0.02071 v 0 l 0.14006,0.186664 v 0 l 0.0303,0.03066 0.0382,0.02108 0.042,0.0097 h 0.0141 v 0 l 0.0428,-0.0062 0.0396,-0.01758 0.0335,-0.02784 0.009,-0.01076 v 0 l 0.14,-0.186644 v 0 l 0.0303,-0.03072 0.0381,-0.02108 0.042,-0.0097 0.0435,0.0023 0.0412,0.01406 0.0357,0.02472 0.0186,0.02069 v 0 l 0.14006,0.186685 v 0 l 0.0303,0.03065 0.0381,0.02105 0.042,0.0097 h 0.0141 v 0 l 0.0428,-0.0062 0.0396,-0.01758 0.0335,-0.02784 0.009,-0.01076 v 0 l 0.13999,-0.186644 v 0 l 0.0303,-0.03074 0.0381,-0.02108 0.042,-0.0097 0.0435,0.0023 0.0412,0.01406 0.0357,0.02474 0.0186,0.02069 v 0 l 0.14006,0.186685 v 0 l 0.0303,0.03063 0.0381,0.02108 0.042,0.0097 h 0.0141 v 0 l 0.0428,-0.0062 0.0396,-0.01758 0.0335,-0.02786 0.008,-0.01076 v 0 l 0.14,-0.186664 v 0 l 0.0303,-0.03072 0.0381,-0.02108 0.042,-0.0097 0.0436,0.0023 0.0412,0.01407 0.0358,0.02474 0.0186,0.02069 v 0 l 0.14006,0.186684 v 0 l 0.0303,0.03063 0.0381,0.02108 0.042,0.0097 h 0.0141 v 0 l 0.0428,-0.0062 0.0396,-0.01758 0.0335,-0.02784 0.008,-0.01076 v 0 l 0.14,-0.186643 v 0 l 0.0303,-0.03072 0.0382,-0.02108 0.042,-0.0097 0.0435,0.0023 0.0412,0.01406 0.0358,0.02472 0.0186,0.02071 v 0 l 0.14008,0.186664 v 0 l 0.0303,0.03065 0.0381,0.02108 0.042,0.0097 h 0.0141 v 0 l 0.0428,-0.0062 0.0396,-0.01758 0.0335,-0.02784 0.008,-0.01076 v 0 l 0.14,-0.186643 v 0 l 0.0303,-0.03072 0.0382,-0.02108 0.042,-0.0097 0.0435,0.0023 0.0412,0.01406 0.0358,0.02472 0.0186,0.02069 v 0 l 0.14008,0.186684 v 0 l 0.0303,0.03065 0.0381,0.02105 0.042,0.0097 h 0.0141 v 0 l 0.0428,-0.0062 0.0396,-0.01758 0.0335,-0.02784 0.009,-0.01076 v 0 l 0.14,-0.186643 v 0 l 0.0303,-0.03074 0.0382,-0.02108 0.042,-0.0097 0.0435,0.0023 0.0412,0.01406 0.0358,0.02474 0.0186,0.02069 v 0 l 0.14008,0.186684 v 0 l 0.0303,0.03064 0.0382,0.02108 0.042,0.0097 h 0.0141 v 0 l 0.0428,-0.0062 0.0396,-0.01758 0.0335,-0.02784 0.008,-0.01076 v 0 l 0.14,-0.186664 v 0 l 0.0303,-0.03072 0.0381,-0.02108 0.042,-0.0097 0.0435,0.0023 0.0412,0.01406 0.0358,0.02474 0.0186,0.02069 v 0 l 0.14007,0.186684 v 0 l 0.0303,0.03064 0.0382,0.02108 0.042,0.0097 h 0.0141 v 0 l 0.0428,-0.0062 0.0396,-0.01758 0.0335,-0.02784 0.008,-0.01076 v 0 l 0.13998,-0.186643 v 0 l 0.0303,-0.03072 0.0381,-0.02108 0.042,-0.0097 0.0435,0.0023 0.0412,0.01406 0.0357,0.02472 0.0186,0.02071 v 0 l 0.14006,0.186664 v 0 l 0.0303,0.03065 0.0382,0.02108 0.042,0.0097 h 0.0141 v 0 l 0.0428,-0.0062 0.0396,-0.01758 0.0335,-0.02784 0.009,-0.01076 v 0 l 0.13997,-0.186643 v 0 l 0.0303,-0.03072 0.0381,-0.02108 0.042,-0.0097 0.0436,0.0023 0.0412,0.01407 0.0357,0.02472 0.0186,0.02069 v 0 l 0.14007,0.186684 v 0 l 0.0303,0.03064 0.0381,0.02108 0.042,0.0097 h 0.0141 v 0 l 0.0428,-0.0062 0.0396,-0.01758 0.0335,-0.02784 0.009,-0.01076 v 0 l 0.14,-0.186664 v 0 l 0.0303,-0.03072 0.0381,-0.02108 0.042,-0.0097 0.0436,0.0023 0.0412,0.01406 0.0357,0.02474 0.0186,0.02069 v 0 l 0.14006,0.186685 v 0 l 0.0303,0.03063 0.0381,0.02108 0.042,0.0097 h 0.0141 v 0 l 0.0428,-0.0062 0.0396,-0.01758 0.0334,-0.02784 0.009,-0.01076 v 0 l 0.14,-0.186664 v 0 l 0.0303,-0.03072 0.0381,-0.02108 0.042,-0.0097 0.0435,0.0023 0.0412,0.01406 0.0358,0.02474 0.0186,0.02069 v 0 l 0.14006,0.186685 v 0 l 0.0303,0.03063 0.0381,0.02108 0.042,0.0097 h 0.0141 v 0 l 0.0428,-0.0062 0.0397,-0.01758 0.0335,-0.02784 0.008,-0.01076 v 0 l 0.14,-0.186644 v 0 l 0.0303,-0.03072 0.0381,-0.02108 0.042,-0.0097 0.0435,0.0023 0.0412,0.01406 0.0358,0.02472 0.0186,0.0207 v 0 l 0.14008,0.186664 v 0 l 0.0303,0.03065 0.0381,0.02108 0.042,0.0097 h 0.0141 v 0 l 0.0428,-0.0062 0.0396,-0.01758 0.0335,-0.02784 0.009,-0.01076 v 0 l 0.14,-0.186643 v 0 l 0.0303,-0.03072 0.0382,-0.02108 0.042,-0.0097 0.0436,0.0023 0.0412,0.01406 0.0358,0.02474 0.0186,0.02069 v 0 l 0.14009,0.186686 v 0 l 0.0303,0.03064 0.0381,0.02108 0.042,0.0097 h 0.0141 v 0 l 0.0428,-0.0062 0.0396,-0.01758 0.0335,-0.02784 0.008,-0.01076 v 0 l 0.14,-0.186664 v 0 l 0.0303,-0.03072 0.0382,-0.02108 0.042,-0.0097 0.0435,0.0023 0.0412,0.01406 0.0358,0.02474 0.0186,0.02069 v 0 l 0.14007,0.186685 v 0 l 0.0303,0.03063 0.0381,0.02108 0.042,0.0097 h 0.0141 v 0 l 0.0428,-0.0062 0.0397,-0.01758 0.0335,-0.02784 0.009,-0.01076 v 0 l 0.14,-0.186664 v 0 l 0.0303,-0.03072 0.0382,-0.02108 0.042,-0.0097 0.0436,0.0023 0.0412,0.01406 0.0358,0.02474 0.0186,0.02069 v 0 l 0.14008,0.186686 v 0 l 0.0303,0.03063 0.0382,0.02108 0.042,0.0097 h 0.0141 v 0 l 0.0428,-0.0062 0.0396,-0.01758 0.0335,-0.02784 0.009,-0.01076 v 0 l 0.14,-0.186643 v 0 l 0.0303,-0.03072 0.0381,-0.02108 0.042,-0.0097 0.0435,0.0023 0.0412,0.01406 0.0357,0.02472 0.0186,0.02069 v 0 l 0.14008,0.186684 v 0 l 0.0303,0.03065 0.0382,0.02108 0.042,0.0097 h 0.0141 v 0 l 0.0428,-0.0062 0.0396,-0.01758 0.0335,-0.02784 0.009,-0.01076 v 0 l 0.13997,-0.186644 v 0 l 0.0303,-0.03072 0.0381,-0.02108 0.042,-0.0097 0.0435,0.0023 0.0412,0.01406 0.0357,0.02474 0.0186,0.02069 v 0 l 0.14006,0.186684 v 0 l 0.0303,0.03063 0.0382,0.02108 0.042,0.0097 h 0.0141 v 0 l 0.0428,-0.0062 0.0396,-0.01758 0.0335,-0.02784 0.009,-0.01076 v 0 l 0.13998,-0.186664 v 0 l 0.0303,-0.03072 0.0381,-0.02108 0.042,-0.0097 0.0436,0.0023 0.0412,0.01406 0.0357,0.02474 0.0186,0.02069 v 0 l 0.14006,0.186684 v 0 l 0.0303,0.03063 0.0381,0.02108 0.042,0.0097 h 0.0141 v 0 l 0.0428,-0.0062 0.0396,-0.01758 0.0335,-0.02784 0.009,-0.01076 v 0 l 0.14,-0.186664 v 0 l 0.0303,-0.03072 0.0381,-0.02108 0.042,-0.0097 0.0436,0.0023 0.0412,0.01406 0.0357,0.02474 0.0186,0.02069 v 0 l 0.14006,0.186685 v 0 l 0.0303,0.03064 0.0381,0.02108 0.042,0.0097 h 0.0141 v 0 l 0.0428,-0.0062 0.0396,-0.01758 0.0335,-0.02784 0.009,-0.01076 v 0 l 0.13999,-0.186644 v 0 l 0.0303,-0.03072 0.0381,-0.02108 0.042,-0.0097 0.0436,0.0023 0.0412,0.01406 0.0358,0.02472 0.0186,0.02069 v 0 l 0.14006,0.186685 v 0 l 0.0303,0.03065 0.0381,0.02108 0.042,0.0097 h 0.0141 v 0 l 0.0428,-0.0062 0.0396,-0.01758 0.0335,-0.02784 0.009,-0.01076 v 0 l 0.13999,-0.186643 v 0 l 0.0303,-0.03072 0.0382,-0.02108 0.042,-0.0097 0.0436,0.0023 0.0412,0.01407 0.0358,0.02474 0.0186,0.02069 v 0 l 0.14009,0.186686 v 0 l 0.0303,0.03063 0.0381,0.02108 0.042,0.0097 h 0.0141 v 0 l 0.0428,-0.0062 0.0396,-0.01758 0.0335,-0.02784 0.009,-0.01076 v 0 l 0.14,-0.186664 v 0 l 0.0303,-0.03072 0.0382,-0.02108 0.042,-0.0097 0.0435,0.0023 0.0412,0.01407 0.0358,0.02474 0.0186,0.02069 v 0 l 0.14007,0.186684 v 0 l 0.0303,0.03064 0.0381,0.02108 0.042,0.0097 h 0.0141 v 0 l 0.0428,-0.0062 0.0396,-0.01758 0.0335,-0.02784 0.008,-0.01076 v 0 l 0.14,-0.186643 v 0 l 0.0303,-0.03072 0.0382,-0.02108 0.042,-0.0097 0.0436,0.0023 0.0412,0.01406 0.0358,0.02474 0.0186,0.02069 v 0 l 0.14008,0.186685 v 0 l 0.0303,0.03063 0.0382,0.02108 0.042,0.0097 h 0.0141 v 0 l 0.0428,-0.0062 0.0396,-0.01758 0.0335,-0.02784 0.009,-0.01076 v 0 l 0.13999,-0.186643 v 0 l 0.0303,-0.03072 0.0381,-0.02108 0.042,-0.0097 0.0435,0.0023 0.0412,0.01406 0.0358,0.02472 0.0186,0.02069 v 0 l 0.14007,0.186685 v 0 l 0.0303,0.03065 0.0382,0.02108 0.042,0.0097 h 0.0141 v 0 l 0.0428,-0.0062 0.0396,-0.01758 0.0335,-0.02784 0.009,-0.01076 v 0 l 0.13997,-0.186643 v 0 l 0.0303,-0.03072 0.0381,-0.02108 0.042,-0.0097 0.0435,0.0023 0.0412,0.01406 0.0357,0.02474 0.0186,0.02069 v 0 l 0.14006,0.186685 v 0 l 0.0303,0.03063 0.0382,0.02108 0.042,0.0097 h 0.0141 v 0 l 0.0428,-0.0062 0.0396,-0.01758 0.0335,-0.02784 0.009,-0.01076 v 0 l 0.13997,-0.186664 v 0 l 0.0303,-0.03072 0.0381,-0.02108 0.042,-0.0097 0.0436,0.0023 0.0412,0.01406 0.0357,0.02474 0.0186,0.02069 v 0 l 0.14006,0.186685 v 0 l 0.0303,0.03063 0.0381,0.02108 0.042,0.0097 h 0.0141 v 0 l 0.0428,-0.0062 0.0396,-0.01758 0.0335,-0.02784 0.008,-0.01076 v 0 l 0.14,-0.186643 v 0 l 0.0303,-0.03072 0.0381,-0.02108 0.042,-0.0097 0.0435,0.0023 0.0412,0.01407 0.0357,0.02474 0.0186,0.02069 v 0 l 0.14006,0.186664 v 0 l 0.0303,0.03065 0.0381,0.02108 0.042,0.0097 h 0.0141 v 0 l 0.0428,-0.0062 0.0396,-0.01758 0.0335,-0.02784 0.008,-0.01076 v 0 l 0.14,-0.186644 v 0 l 0.0303,-0.03072 0.0381,-0.02108 0.042,-0.0097 0.0436,0.0023 0.0412,0.01406 0.0357,0.02472 v 0.002 0 l 1.78883,1.711046 v 0 l 0.0264,0.03399 0.0163,0.04004 0.008,0.04301 -0.008,0.04272 -0.0186,0.03904 -0.0288,0.03235 -0.0366,0.0231 -0.0412,0.0122 -0.0225,0.002 v 0 h -46.12008 v 0 l -0.10717,0.0151 -0.0988,0.04401 -0.0829,0.0696 -0.0607,0.08973 -0.0335,0.102951 -0.008,0.06749"
       stroke="#c0c0c0"
       stroke-width="0"
       stroke-opacity="1"
       fill="#c0c0c0"
       fill-rule="evenodd"
       fill-opacity="1"
       id="path990"
       inkscape:label="right_profile" />
    <circle
       id="path1"
       style="fill:#a39a9a;stroke:#b81e1e;stroke-width:0.264583"
       cx="146.06915"
       cy="27.837589"
       r="0.00022987864"
       inkscape:label="right_rep" />
    <circle
       id="path2"
       style="fill:#a39a9a;stroke:#b81e1e;stroke-width:0.264583"
       cx="59.249832"
       cy="27.748224"
       r="0.00022987864"
       inkscape:label="left_rep" />
  </g>
</svg>
