<?xml version="1.0" encoding="UTF-8" standalone="no"?>
<!-- Created with Inkscape (http://www.inkscape.org/) -->

<svg
   width="210mm"
   height="297mm"
   viewBox="0 0 210 297"
   version="1.1"
   id="svg1"
   inkscape:version="1.4 (86a8ad7, 2024-10-11)"
   sodipodi:docname="svg_file.svg"
   xmlns:inkscape="http://www.inkscape.org/namespaces/inkscape"
   xmlns:sodipodi="http://sodipodi.sourceforge.net/DTD/sodipodi-0.dtd"
   xmlns="http://www.w3.org/2000/svg"
   xmlns:svg="http://www.w3.org/2000/svg">
  <sodipodi:namedview
     id="namedview1"
     pagecolor="#ffffff"
     bordercolor="#000000"
     borderopacity="0.25"
     inkscape:showpageshadow="2"
     inkscape:pageopacity="0.0"
     inkscape:pagecheckerboard="0"
     inkscape:deskcolor="#d1d1d1"
     inkscape:document-units="mm"
     inkscape:zoom="1.4803312"
     inkscape:cx="156.72168"
     inkscape:cy="317.15875"
     inkscape:window-width="2560"
     inkscape:window-height="1377"
     inkscape:window-x="-8"
     inkscape:window-y="-8"
     inkscape:window-maximized="1"
     inkscape:current-layer="layer1" />
  <defs
     id="defs1" />
  <g
     inkscape:label="Слой 1"
     inkscape:groupmode="layer"
     id="layer1">
    <path
       d="m 103.35276,57.225326 2.44542,-9.560739 0.0199,-0.06665 0.0239,-0.06506 0.0289,-0.06327 0.0328,-0.06108 0.0368,-0.05869 0.0408,-0.05591 0.0448,-0.05292 0.0487,-0.04964 0.0517,-0.04616 0.0547,-0.04238 0.0577,-0.0385 0.0607,-0.03432 0.0627,-0.03004 0.0647,-0.02567 0.0666,-0.02109 0.0677,-0.01642 0.0686,-0.01164 0.0686,-0.007 0.0637,-0.002 h 0.85036 l 0.0696,0.002 0.0696,0.007 0.0686,0.01204 0.0677,0.01681 0.0657,0.02149 0.0647,0.02606 0.0627,0.03044 0.0597,0.03472 0.0577,0.0388 0.0547,0.04278 0.0517,0.04646 0.0487,0.04994 0.0448,0.05322 0.0408,0.05621 0.0368,0.05889 0.0328,0.06128 0.0279,0.06347 0.0239,0.06526 0.0189,0.06675 0.0139,0.06795 v 0.009 l 0.93909,5.634948 h 3.93871 l -0.96784,-5.807476 -0.01,-0.03323 -0.01,-0.03382 -0.01,-0.03432 v -0.03462 l -6e-4,-0.03472 v -0.03472 -0.03442 l 0.01,-0.03412 0.01,-0.03352 0.0109,-0.03283 0.0139,-0.03193 0.0159,-0.03094 0.0179,-0.02974 0.0199,-0.02845 0.0219,-0.02696 0.0239,-0.02537 0.0259,-0.02368 0.0269,-0.02179 0.0289,-0.0199 0.0298,-0.01781 0.0308,-0.01572 0.0318,-0.01353 0.0328,-0.01124 0.0338,-0.009 0.0338,-0.007 0.0348,-0.004 0.0348,-0.002 0.01,-7e-5 h 2.9844 V 48.1085 l -1.4922,0.9948 2.7357,4.277642 h 1.9896 l 2.72118,-4.277642 -1.47768,-0.9948 v -1.193761 h 1.4922 v -4.476602 h -18.89991 l -3.529656,13.799574 -0.02885,0.09995 -0.03581,0.09769 -0.04278,0.0949 -0.04974,0.09172 -0.05571,0.08794 -0.06168,0.08386 -0.06765,0.07939 -0.07262,0.07451 -0.07759,0.06924 -0.08257,0.06357 -0.08655,0.0577 -0.09053,0.05153 -0.09351,0.04507 -0.0965,0.0384 -0.09948,0.03154 -0.101171,0.02457 -0.102663,0.01741 -0.103659,0.01025 -0.104155,0.003 -0.104056,-0.004 -0.10346,-0.01154 -0.102464,-0.0187 -0.100972,-0.02587 -0.09849,-0.03283 -0.09649,-0.03959 -0.09351,-0.04626 -0.08953,-0.05262 -0.08555,-0.05879 -0.08157,-0.06466 -0.0766,-0.07013 -0.07162,-0.07531 -0.06665,-0.08018 -0.06068,-0.08466 -0.05471,-0.08864 -0.04874,-0.09222 -0.04178,-0.0954 -0.03482,-0.09809 -0.02388,-0.08277 -3.529651,-13.799574 H 74.176556 v 4.476602 h 1.492201 v 1.193761 l -1.477677,0.9948 2.721177,4.277643 h 1.989601 l 2.735701,-4.277643 -1.4922,-0.9948 v -1.193761 h 2.984401 l 0.03482,9.95e-4 0.03482,0.004 0.03382,0.006 0.03382,0.008 0.03283,0.01074 0.03183,0.01303 0.03084,0.01522 0.02984,0.01731 0.02885,0.0194 0.02686,0.02139 0.02586,0.02318 0.02388,0.02497 0.02189,0.02656 0.02089,0.02805 0.01791,0.02945 0.01592,0.03064 0.01393,0.03173 0.01194,0.03263 0.0099,0.03332 0.0099,0.03392 v 0.03442 0.05203 l -0.994801,5.968803 h 3.938714 l 0.939191,-5.634948 0.01393,-0.06804 0.0189,-0.06695 0.02288,-0.06546 0.02785,-0.06367 0.03183,-0.06158 0.03581,-0.05919 0.04079,-0.0566 0.04377,-0.05362 0.04775,-0.05044 0.05074,-0.04696 0.05471,-0.04327 0.0577,-0.03939 0.05969,-0.03531 0.06168,-0.03104 0.06466,-0.02656 0.06566,-0.02208 0.06765,-0.01741 0.06864,-0.01273 0.06864,-0.008 0.06964,-0.003 0.0099,-5e-5 h 0.850256 l 0.06964,0.002 0.06864,0.007 0.06864,0.01204 0.06765,0.01681 0.06566,0.02149 0.06466,0.02606 0.06267,0.03044 0.06068,0.03472 0.0577,0.0388 0.05471,0.04278 0.05173,0.04646 0.04874,0.04994 0.04477,0.05322 0.04079,0.05621 0.03681,0.05889 0.03283,0.06128 0.02785,0.06347 0.02388,0.06526 0.01791,0.06088 2.445419,9.560739 0.107438,0.366455 0.132806,0.358068 0.157477,0.347942 0.181352,0.336103 0.204332,0.322634 0.226317,0.307592 0.247208,0.291059 0.267004,0.273102 0.285309,0.253814 0.302419,0.23329 0.317839,0.211634 0.331866,0.188933 0.3443,0.165336 0.354945,0.140903 0.363898,0.115815 0.37116,0.09013 0.376432,0.06407 0.380014,0.0376 0.381805,0.01104 0.381605,-0.01562 0.379517,-0.04218 0.375636,-0.06864 0.370066,-0.09461 0.362406,-0.120212 0.35325,-0.145201 0.34222,-0.169494 0.32957,-0.192951 0.31535,-0.215474 0.29944,-0.236942 0.28232,-0.257255 0.26363,-0.276316 0.24362,-0.294033 0.22264,-0.310318 0.20045,-0.325091 0.17718,-0.338282 0.15319,-0.349812 0.12853,-0.35965 0.0865,-0.303354 m 14.22217,-6.578526 v -2.238301 -0.04337 -0.04317 l 0.01,-0.04278 0.0109,-0.04208 0.0139,-0.04129 0.0159,-0.04029 0.0189,-0.039 0.0219,-0.0376 0.0239,-0.03601 0.0269,-0.03422 0.0288,-0.03223 0.0308,-0.03014 0.0328,-0.02785 0.0348,-0.02557 0.0368,-0.02298 0.0388,-0.02039 0.0398,-0.01761 0.0408,-0.01482 0.0418,-0.01194 0.0428,-0.009 0.0428,-0.006 0.0428,-0.003 h 0.0438 l 0.0438,0.003 0.0428,0.006 0.0428,0.009 0.0418,0.01194 0.0408,0.01482 0.0398,0.01761 0.0378,0.02039 0.0368,0.02298 0.0348,0.02557 0.0328,0.02785 0.0308,0.03014 0.0289,0.03223 0.0269,0.03422 0.0239,0.03601 0.0219,0.0376 0.0189,0.039 0.0159,0.04029 0.0139,0.04129 0.0109,0.04208 0.01,0.04278 0.01,0.08655 v 2.238301 0.04337 0.04317 l -0.01,0.04278 -0.0109,0.04208 -0.0139,0.04128 -0.0159,0.04019 -0.0189,0.039 -0.0219,0.0376 -0.0239,0.03601 -0.0269,0.03422 -0.0288,0.03223 -0.0308,0.03014 -0.0328,0.02785 -0.0348,0.02547 -0.0368,0.02298 -0.0378,0.02039 -0.0398,0.01761 -0.0408,0.01482 -0.0418,0.01194 -0.0428,0.009 -0.0428,0.006 -0.0438,0.003 h -0.0438 l -0.0428,-0.003 -0.0428,-0.006 -0.0428,-0.009 -0.0418,-0.01194 -0.0408,-0.01482 -0.0398,-0.01761 -0.0388,-0.02039 -0.0368,-0.02298 -0.0348,-0.02547 -0.0328,-0.02785 -0.0308,-0.03014 -0.0289,-0.03223 -0.0269,-0.03422 -0.0239,-0.03601 -0.0219,-0.0376 -0.0189,-0.039 -0.0159,-0.04019 -0.0139,-0.04128 -0.0109,-0.04208 -0.01,-0.04278 -0.01,-0.08655 v 0 m -39.045924,0 v 0.04337 0.04317 l -0.0099,0.04278 -0.01094,0.04208 -0.01393,0.04128 -0.01592,0.04019 -0.0189,0.039 -0.02188,0.0376 -0.02388,0.03601 -0.02686,0.03422 -0.02885,0.03223 -0.03084,0.03014 -0.03283,0.02785 -0.03482,0.02547 -0.03681,0.02298 -0.0378,0.02039 -0.03979,0.01761 -0.04079,0.01482 -0.04178,0.01194 -0.04278,0.009 -0.04278,0.006 -0.04377,0.003 h -0.04377 l -0.04278,-0.003 -0.04278,-0.006 -0.04278,-0.009 -0.04178,-0.01194 -0.04079,-0.01482 -0.03979,-0.01761 -0.0388,-0.02039 -0.03681,-0.02298 -0.03482,-0.02547 -0.03283,-0.02785 -0.03084,-0.03014 -0.02885,-0.03223 -0.02686,-0.03422 -0.02388,-0.03601 -0.02189,-0.0376 -0.0189,-0.039 -0.01592,-0.04019 -0.01393,-0.04128 -0.0099,-0.04208 -0.0099,-0.04278 -0.0099,-0.08655 v -2.238301 -0.04337 -0.04317 l 0.0099,-0.04278 0.0099,-0.04208 0.01393,-0.04129 0.01592,-0.04029 0.0189,-0.039 0.02189,-0.0376 0.02387,-0.03601 0.02686,-0.03422 0.02885,-0.03223 0.03084,-0.03014 0.03283,-0.02785 0.03482,-0.02557 0.03681,-0.02298 0.0388,-0.02039 0.03979,-0.01761 0.04079,-0.01482 0.04178,-0.01194 0.04278,-0.009 0.04278,-0.006 0.04278,-0.003 h 0.04377 l 0.04377,0.003 0.04278,0.006 0.04278,0.009 0.04178,0.01194 0.04079,0.01482 0.03979,0.01761 0.0378,0.02039 0.03681,0.02298 0.03482,0.02557 0.03283,0.02785 0.03084,0.03014 0.02885,0.03223 0.02686,0.03422 0.02388,0.03601 0.02188,0.0376 0.0189,0.039 0.01592,0.04029 0.01393,0.04129 0.01094,0.04208 0.0099,0.04278 0.0099,0.08655 v 2.238301 0"
       stroke="#000000"
       stroke-width="0"
       stroke-opacity="1"
       fill="#000000"
       fill-rule="evenodd"
       fill-opacity="1"
       id="path634" />
    <path
       d="m 72.187154,45.125658 v 20.99029 0 l 0.0099,0.05481 0.02288,0.05063 0.03581,0.04238 0.04576,0.03094 0.05272,0.01711 0.03482,0.003 v 0 h 1.591681 v 0 l 0.05471,-0.008 0.05074,-0.02248 0.04278,-0.03561 0.03084,-0.04586 0.01691,-0.05272 v -0.03452 0 -4.078682 0 l 0.0099,-0.05481 0.02288,-0.05064 0.03581,-0.04238 0.04576,-0.03094 0.05272,-0.01711 0.03482,-0.003 v 0 h 0.795841 v 0 l 0.137183,-0.0193 0.126439,-0.05631 0.106046,-0.08903 0.07759,-0.11478 0.04278,-0.131672 0.0099,-0.08635 v 0 -0.795841 0 l -0.0099,-0.05481 -0.02288,-0.05064 -0.03581,-0.04238 -0.04576,-0.03094 -0.05272,-0.01711 -0.03482,-0.003 v 0 h -1.094281 v 0 l -0.05471,-0.008 -0.05073,-0.02248 -0.04278,-0.03561 -0.03084,-0.04586 -0.01691,-0.05273 v -0.03452 0 -4.576083 0 l 0.0099,-0.05481 0.02288,-0.05063 0.03581,-0.04238 0.04576,-0.03094 0.05272,-0.01711 0.03482,-0.003 v 0 h 7.063084 v 0 l 0.05471,0.008 0.05073,0.02248 0.04278,0.03561 0.03084,0.04596 0.01691,0.05263 v 0.03452 0 4.576082 0 l -0.0099,0.05481 -0.02288,0.05064 -0.03581,0.04238 -0.04576,0.03094 -0.05272,0.01711 -0.03482,0.003 v 0 h -1.094281 v 0 l -0.05471,0.008 -0.05074,0.02248 -0.04278,0.03561 -0.03084,0.04596 -0.01691,0.05262 v 0.03452 0 0.79584 0 l 0.0189,0.137103 0.0567,0.126479 0.08854,0.106066 0.1147,0.07739 0.131712,0.04278 0.08655,0.008 v 0 h 2.288041 v 0 l 0.05471,-0.008 0.05074,-0.02248 0.04278,-0.03561 0.03084,-0.04586 0.01691,-0.05272 v -0.03452 0 -6.068283 0 l 0.0099,-0.05481 0.02288,-0.05063 0.03581,-0.04238 0.04576,-0.03094 0.05272,-0.01711 0.03482,-0.003 v 0 h 3.083881 v 0 l 0.05471,-0.008 0.05074,-0.02248 0.04278,-0.03561 0.03084,-0.04586 0.01691,-0.05272 v -0.03452 0 -0.795841 0 -0.79584 0 l -0.0099,-0.05481 -0.02288,-0.05063 -0.03581,-0.04238 -0.04576,-0.03094 -0.05272,-0.01711 -0.03482,-0.003 v 0 h -3.083881 v 0 l -0.05471,-0.008 -0.05074,-0.02248 -0.04278,-0.03561 -0.03084,-0.04586 -0.01691,-0.05272 v -0.03452 0 -6.068283 0 l -0.0099,-0.05481 -0.02288,-0.05063 -0.03581,-0.04238 -0.04576,-0.03094 -0.05272,-0.01711 -0.03482,-0.003 v 0 h -2.288041 v 0 l -0.137084,0.0193 -0.126439,0.05631 -0.106046,0.08903 -0.07759,0.11478 -0.04278,0.131672 -0.0099,0.08635 v 0 0.79584 0 l 0.0099,0.05481 0.02288,0.05063 0.03581,0.04238 0.04576,0.03094 0.05272,0.01711 0.03482,0.003 v 0 h 1.09428 v 0 l 0.05471,0.008 0.05074,0.02248 0.04278,0.03561 0.03084,0.04596 0.01691,0.05262 v 0.03452 0 4.576082 0 l -0.0099,0.05481 -0.02288,0.05063 -0.03581,0.04238 -0.04576,0.03094 -0.05272,0.01711 -0.03482,0.003 v 0 h -7.063084 v 0 l -0.05471,-0.008 -0.05073,-0.02248 -0.04278,-0.03561 -0.03084,-0.04586 -0.01691,-0.05273 v -0.03452 0 -4.576083 0 l 0.0099,-0.05481 0.02288,-0.05063 0.03581,-0.04238 0.04576,-0.03094 0.05272,-0.01711 0.03482,-0.003 v 0 h 1.094281 v 0 l 0.05471,-0.008 0.05073,-0.02248 0.04278,-0.03561 0.03084,-0.04586 0.01691,-0.05273 v -0.03452 0 -0.795841 0 l -0.0189,-0.137103 -0.0567,-0.126479 -0.08953,-0.106056 -0.1148,-0.07739 -0.131612,-0.04278 -0.08655,-0.008 v 0 h -0.994801 v 0 -4.277642 0 l -0.0099,-0.05481 -0.02288,-0.05064 -0.03581,-0.04238 -0.04576,-0.03094 -0.05272,-0.01711 -0.03482,-0.003 v 0 H 72.18029 v 0 l -0.05471,-0.008 -0.05073,-0.02248 -0.04278,-0.03561 -0.01094,-0.01373 v 0 l -0.178965,-0.238742 v 0 l -0.0388,-0.03929 -0.04874,-0.02696 -0.05372,-0.01253 -0.05571,0.003 -0.05273,0.01791 -0.04576,0.03164 -0.02388,0.02646 v 0 l -0.179163,0.238782 v 0 l -0.0388,0.03919 -0.04875,0.02696 -0.05372,0.01253 -0.01791,7.96e-4 v 0 l -0.05472,-0.008 -0.05073,-0.02248 -0.04278,-0.03561 -0.01094,-0.01373 v 0 l -0.178964,-0.238742 v 0 l -0.0388,-0.0393 -0.04875,-0.02696 -0.05372,-0.01253 -0.05571,0.003 -0.05272,0.01791 -0.04576,0.03164 -0.02388,0.02646 v 0 l -0.179164,0.238781 v 0 l -0.0388,0.0392 -0.04875,0.02696 -0.05372,0.01253 -0.01791,7.96e-4 v 0 l -0.05471,-0.008 -0.05073,-0.02248 -0.04278,-0.03561 -0.01094,-0.01373 v 0 L 69.85054,42.120392 v 0 l -0.0388,-0.03929 -0.04874,-0.02696 -0.05372,-0.01253 -0.05571,0.003 -0.05272,0.01791 -0.04576,0.03163 -0.02387,0.02646 v 0 l -0.179154,0.238782 v 0 l -0.0391,0.03919 -0.04835,0.02696 -0.05392,0.01253 -0.01781,7.95e-4 v 0 l -0.05481,-0.008 -0.05063,-0.02248 -0.04238,-0.03561 -0.01134,-0.01373 v 0 l -0.179044,-0.238742 v 0 l -0.0391,-0.03929 -0.04835,-0.02696 -0.05392,-0.01253 -0.05531,0.003 -0.05243,0.01791 -0.04546,0.03163 -0.02378,0.02646 v 0 l -0.179114,0.238782 v 0 l -0.0391,0.03919 -0.04835,0.02696 -0.05392,0.01253 -0.01781,7.96e-4 v 0 l -0.05481,-0.008 -0.05063,-0.02248 -0.04238,-0.03561 -0.01134,-0.01373 v 0 l -0.179045,-0.238742 v 0 l -0.0391,-0.0393 -0.04835,-0.02696 -0.05392,-0.01253 -0.05531,0.003 -0.05243,0.01791 -0.04546,0.03164 -0.02378,0.02646 v 0 l -0.179114,0.238782 v 0 l -0.0391,0.0392 -0.04835,0.02696 -0.05392,0.01253 -0.01781,7.96e-4 v 0 l -0.05481,-0.008 -0.05064,-0.02248 -0.04238,-0.03561 -0.01134,-0.01373 v 0 l -0.179044,-0.238742 v 0 l -0.0391,-0.0393 -0.04835,-0.02696 -0.05392,-0.01253 -0.05531,0.003 -0.05243,0.01791 -0.04546,0.03164 -0.02378,0.02646 v 0 l -0.179114,0.238782 v 0 l -0.0391,0.03919 -0.04835,0.02696 -0.05392,0.01253 -0.01781,7.96e-4 v 0 l -0.05481,-0.008 -0.05063,-0.02248 -0.04238,-0.03561 -0.01134,-0.01373 v 0 l -0.179044,-0.238742 v 0 l -0.0391,-0.03929 -0.04835,-0.02696 -0.05392,-0.01253 -0.05531,0.003 -0.05243,0.01791 -0.04546,0.03163 -0.02378,0.02646 v 0 l -0.179114,0.238782 v 0 l -0.0391,0.03919 -0.04835,0.02696 -0.05392,0.01253 -0.01781,7.96e-4 v 0 l -0.05481,-0.008 -0.05063,-0.02248 -0.04238,-0.03561 -0.01134,-0.01373 v 0 L 64.87538,42.120365 v 0 l -0.0391,-0.03929 -0.04835,-0.02696 -0.05392,-0.01254 -0.05531,0.003 -0.05243,0.01791 -0.04546,0.03163 -0.02378,0.02646 v 0 l -0.179114,0.238782 v 0 l -0.0391,0.03919 -0.04835,0.02696 -0.05392,0.01253 -0.01781,7.96e-4 v 0 l -0.05481,-0.008 -0.05063,-0.02248 -0.04238,-0.03561 -0.01134,-0.01373 v 0 L 63.88055,42.120306 v 0 l -0.0391,-0.0393 -0.04835,-0.02696 -0.05392,-0.01253 -0.05531,0.003 -0.05243,0.01791 -0.04546,0.03164 -0.02378,0.02646 v 0 l -0.1791,0.238761 v 0 l -0.0391,0.03919 -0.04835,0.02696 -0.05392,0.01253 -0.01781,7.96e-4 v 0 l -0.05481,-0.008 -0.05064,-0.02248 -0.04238,-0.03561 -0.01134,-0.01373 v 0 l -0.17903,-0.238697 v 0 l -0.0391,-0.0393 -0.04835,-0.02696 -0.05392,-0.01253 -0.05531,0.003 -0.05243,0.01791 -0.04546,0.03163 -0.02378,0.02646 v 0 l -0.179114,0.238782 v 0 l -0.0391,0.03919 -0.04835,0.02696 -0.05392,0.01253 -0.01781,7.96e-4 v 0 l -0.05481,-0.008 -0.05063,-0.02248 -0.04238,-0.03561 -0.01134,-0.01373 v 0 l -0.179045,-0.238743 v 0 l -0.0391,-0.03929 -0.04835,-0.02696 -0.05392,-0.01253 -0.05531,0.003 -0.05243,0.01791 -0.04546,0.03164 -0.02378,0.02646 v 0 l -0.179114,0.238782 v 0 l -0.0391,0.03919 -0.04835,0.02696 -0.05392,0.01253 -0.01781,7.96e-4 v 0 l -0.05481,-0.008 -0.05063,-0.02248 -0.04238,-0.03561 -0.01134,-0.01373 v 0 l -0.179044,-0.238742 v 0 l -0.0391,-0.03929 -0.04835,-0.02696 -0.05392,-0.01253 -0.05531,0.003 -0.05243,0.01791 -0.04546,0.03164 -0.02378,0.02646 v 0 l -0.179114,0.238782 v 0 l -0.0391,0.03919 -0.04835,0.02696 -0.05392,0.01253 -0.01781,7.96e-4 v 0 l -0.05481,-0.008 -0.05064,-0.02248 -0.04238,-0.03561 -0.01134,-0.01373 v 0 l -0.179044,-0.238742 v 0 l -0.0391,-0.03929 -0.04835,-0.02696 -0.05392,-0.01253 -0.05531,0.003 -0.05243,0.01791 -0.04546,0.03163 -0.02378,0.02646 v 0 l -0.179114,0.238782 v 0 l -0.0391,0.03919 -0.04835,0.02696 -0.05392,0.01253 -0.01781,7.95e-4 v 0 l -0.05481,-0.008 -0.05063,-0.02248 -0.04238,-0.03561 -0.01134,-0.01373 v 0 l -0.179044,-0.238742 v 0 l -0.0391,-0.03929 -0.04835,-0.02696 -0.05392,-0.01253 -0.05531,0.003 -0.05243,0.01791 -0.04546,0.03164 -0.02378,0.02646 v 0 l -0.179113,0.238782 v 0 l -0.0391,0.0392 -0.04835,0.02696 -0.05392,0.01253 -0.01781,7.96e-4 v 0 l -0.05481,-0.008 -0.05063,-0.02248 -0.04238,-0.03561 -0.01134,-0.01373 v 0 L 57.91147,42.119854 v 0 l -0.0391,-0.0393 -0.04835,-0.02696 -0.05392,-0.01253 -0.05531,0.003 -0.05243,0.01791 -0.04546,0.03164 -0.02378,0.02646 v 0 l -0.179114,0.238782 v 0 l -0.0391,0.03919 -0.04835,0.02696 -0.05392,0.01253 -0.01781,7.96e-4 v 0 l -0.05481,-0.008 -0.05064,-0.02248 -0.04238,-0.03561 -0.01134,-0.01373 v 0 L 56.916612,42.11977 v 0 l -0.0391,-0.0393 -0.04835,-0.02696 -0.05392,-0.01253 -0.05531,0.003 -0.05243,0.01791 -0.04546,0.03163 -0.02378,0.02646 v 0 l -0.179114,0.238782 v 0 l -0.0391,0.03919 -0.04835,0.02696 -0.05392,0.01253 -0.01781,7.95e-4 v 0 l -0.05481,-0.008 -0.05063,-0.02248 -0.04238,-0.03561 -0.01134,-0.01373 v 0 l -0.179044,-0.238742 v 0 l -0.0391,-0.03929 -0.04835,-0.02696 -0.05392,-0.01253 -0.05531,0.003 -0.05243,0.01791 -0.04546,0.03164 -0.02378,0.02646 v 0 l -0.179113,0.238782 v 0 l -0.0391,0.03919 -0.04835,0.02696 -0.05392,0.01253 -0.01781,7.96e-4 v 0 l -0.05481,-0.008 -0.05063,-0.02248 -0.04238,-0.03561 -0.01134,-0.01373 v 0 l -0.179044,-0.238742 v 0 l -0.03909,-0.03929 -0.04835,-0.02696 -0.05392,-0.01253 -0.05531,0.003 -0.05243,0.01791 -0.04546,0.03164 -0.02378,0.02646 v 0 l -0.179114,0.238781 v 0 l -0.0391,0.0392 -0.04835,0.02696 -0.05392,0.01253 -0.01781,7.96e-4 v 0 l -0.05481,-0.008 -0.05064,-0.02248 -0.04238,-0.03561 -0.01134,-0.01373 v 0 l -0.179044,-0.238742 v 0 l -0.0391,-0.0393 -0.04835,-0.02696 -0.05392,-0.01253 -0.05531,0.003 -0.05243,0.01791 -0.04546,0.03164 -0.02378,0.02646 v 0 l -0.179114,0.238782 v 0 l -0.0391,0.03919 -0.04835,0.02696 -0.05392,0.01253 -0.01781,7.95e-4 v 0 l -0.05481,-0.008 -0.05063,-0.02248 -0.04238,-0.03561 -0.01134,-0.01373 v 0 l -0.179044,-0.238742 v 0 l -0.0391,-0.03929 -0.04835,-0.02696 -0.05392,-0.01253 -0.05531,0.003 -0.05243,0.01791 -0.04546,0.03163 -0.02378,0.02646 v 0 l -0.179113,0.238782 v 0 l -0.0391,0.03919 -0.04835,0.02696 -0.05392,0.01253 -0.01781,7.96e-4 v 0 l -0.05481,-0.008 -0.05063,-0.02248 -0.04238,-0.03561 -0.01134,-0.01373 v 0 l -0.179045,-0.238743 v 0 l -0.03909,-0.03929 -0.04835,-0.02696 -0.05392,-0.01253 -0.05531,0.003 -0.05243,0.01791 -0.04546,0.03164 -0.02378,0.02646 v 0 l -0.179114,0.238782 v 0 l -0.03909,0.0392 -0.04835,0.02696 -0.05392,0.01253 -0.01781,7.96e-4 v 0 l -0.05481,-0.008 -0.05064,-0.02248 -0.04238,-0.03561 -0.01134,-0.01373 v 0 L 50.947756,42.11953 v 0 l -0.0391,-0.03929 -0.04835,-0.02696 -0.05392,-0.01253 -0.05531,0.003 -0.05243,0.01791 -0.04546,0.03163 -0.02378,0.02646 v 0 l -0.179114,0.238782 v 0 l -0.0391,0.03919 -0.04835,0.02696 -0.05392,0.01253 -0.01781,7.96e-4 v 0 l -0.05481,-0.008 -0.05063,-0.02248 -0.04238,-0.03561 -0.01134,-0.01373 v 0 L 49.952926,42.11947 v 0 l -0.0391,-0.03929 -0.04835,-0.02696 -0.05392,-0.01253 -0.05531,0.003 -0.05243,0.01791 -0.04546,0.03163 -0.02378,0.02646 v 0 l -0.179114,0.238782 v 0 l -0.0391,0.03919 -0.04835,0.02696 -0.05392,0.01253 -0.01781,7.96e-4 v 0 l -0.05481,-0.008 -0.05063,-0.02248 -0.04238,-0.03561 -0.01134,-0.01373 v 0 L 48.958095,42.11941 v 0 l -0.0391,-0.03929 -0.04835,-0.02696 -0.05392,-0.01253 -0.05531,0.003 -0.05243,0.01791 -0.04546,0.03164 -0.02378,0.02646 v 0 l -0.179114,0.238782 v 0 l -0.03909,0.03919 -0.04835,0.02696 -0.05392,0.01253 -0.01781,7.96e-4 v 0 l -0.05481,-0.008 -0.05064,-0.02248 -0.04238,-0.03561 -0.01134,-0.01373 v 0 l -0.179044,-0.238742 v 0 l -0.0391,-0.0393 -0.04835,-0.02696 -0.05392,-0.01253 -0.05531,0.003 -0.05243,0.01791 -0.04546,0.03164 -0.02378,0.02646 v 0 l -0.179114,0.238782 v 0 l -0.0391,0.03919 -0.04835,0.02696 -0.05392,0.01253 -0.01781,7.96e-4 v 0 l -0.05481,-0.008 -0.05064,-0.02248 -0.04238,-0.03561 -0.01134,-0.01373 v 0 l -0.179044,-0.238742 v 0 l -0.0391,-0.03929 -0.04835,-0.02696 -0.05392,-0.01253 -0.05531,0.003 -0.05243,0.01791 -0.04546,0.03163 -0.02378,0.02646 v 0 l -0.179114,0.238782 v 0 l -0.0391,0.03919 -0.04835,0.02696 -0.05392,0.01253 -0.01781,7.96e-4 v 0 l -0.05481,-0.008 -0.05063,-0.02248 -0.04238,-0.03561 -0.01134,-0.01373 v 0 L 45.97354,42.119167 v 0 l -0.0391,-0.03929 -0.04835,-0.02696 -0.05392,-0.01253 -0.05531,0.003 -0.05243,0.01791 -0.04546,0.03163 -0.02378,0.02646 v 0 l -0.179114,0.238782 v 0 l -0.0391,0.03919 -0.04835,0.02696 -0.05392,0.01253 -0.01781,7.96e-4 v 0 l -0.05481,-0.008 -0.05063,-0.02248 -0.04238,-0.03561 -0.01134,-0.01373 v 0 l -0.179044,-0.238742 v 0 l -0.0391,-0.03929 -0.04835,-0.02696 -0.05392,-0.01253 -0.05531,0.003 -0.05243,0.01791 -0.04546,0.03164 -0.02378,0.02646 v 0 l -0.179114,0.238782 v 0 l -0.0391,0.03919 -0.04835,0.02696 -0.05392,0.01253 -0.01781,7.96e-4 v 0 l -0.05481,-0.008 -0.05064,-0.02248 -0.04238,-0.03561 -0.01134,-0.01373 v 0 l -0.179044,-0.238742 v 0 l -0.0391,-0.0393 -0.04835,-0.02696 -0.05392,-0.01253 -0.05531,0.003 -0.05243,0.01791 -0.04546,0.03163 -0.02378,0.02646 v 0 l -0.179114,0.238782 v 0 l -0.0391,0.0392 -0.04835,0.02696 -0.05392,0.01253 -0.01781,7.95e-4 v 0 l -0.05481,-0.008 -0.05063,-0.02248 -0.04238,-0.03561 -0.01134,-0.01373 v 0 l -0.179044,-0.238742 v 0 l -0.0391,-0.03929 -0.04835,-0.02696 -0.05392,-0.01253 -0.05531,0.003 -0.05243,0.01791 -0.04546,0.03164 -0.02378,0.02646 v 0 l -0.179113,0.238782 v 0 l -0.0391,0.03919 -0.04835,0.02696 -0.05392,0.01253 -0.01781,7.96e-4 v 0 l -0.05481,-0.008 -0.05063,-0.02248 -0.04238,-0.03561 -0.01134,-0.01373 v 0 L 41.994139,42.11885 v 0 l -0.0391,-0.0393 -0.04835,-0.02696 -0.05392,-0.01253 -0.05531,0.003 -0.05243,0.01791 -0.04546,0.03164 -0.02378,0.02646 v 0 l -0.179114,0.238782 v 0 l -0.0391,0.03919 -0.04835,0.02696 -0.05392,0.01253 -0.01781,7.96e-4 v 0 l -0.05481,-0.008 -0.05064,-0.02248 -0.04238,-0.03561 -0.01134,-0.01373 v 0 l -0.179044,-0.238742 v 0 l -0.0391,-0.03929 -0.04835,-0.02696 -0.05392,-0.01253 -0.05531,0.003 -0.05243,0.01791 -0.04546,0.03163 -0.02378,0.02646 v 0 l -0.179114,0.238782 v 0 l -0.0391,0.03919 -0.04835,0.02696 -0.05392,0.01253 -0.01781,7.95e-4 v 0 l -0.05481,-0.008 -0.05063,-0.02248 -0.04238,-0.03561 -0.01134,-0.01373 v 0 l -0.179044,-0.238742 v 0 l -0.0391,-0.03929 -0.04835,-0.02696 -0.05392,-0.01253 -0.05531,0.003 -0.05243,0.01791 -0.04546,0.03164 -0.02378,0.02646 v 0 l -0.179113,0.238782 v 0 l -0.0391,0.03919 -0.04835,0.02696 -0.05392,0.01253 -0.01781,7.96e-4 v 0 l -0.05481,-0.008 -0.05063,-0.02248 -0.04238,-0.03561 -0.01134,-0.01373 v 0 l -0.179044,-0.238742 v 0 l -0.03909,-0.0393 -0.04835,-0.02696 -0.05392,-0.01253 -0.05531,0.003 -0.05243,0.01791 -0.04546,0.03164 -0.02378,0.02646 v 0 l -0.179114,0.238781 v 0 l -0.03909,0.0392 -0.04835,0.02696 -0.05392,0.01253 -0.01781,7.96e-4 v 0 l -0.05481,-0.008 -0.05064,-0.02248 -0.04238,-0.03561 -0.01134,-0.01373 v 0 l -0.179044,-0.238742 v 0 l -0.0391,-0.0393 -0.04835,-0.02696 -0.05392,-0.01253 -0.05531,0.003 -0.05243,0.01791 -0.04546,0.03164 -0.02378,0.02646 v 0 l -0.179114,0.238782 v 0 l -0.0391,0.03919 -0.04835,0.02696 -0.05392,0.01253 -0.01781,7.95e-4 v 0 l -0.05481,-0.008 -0.05063,-0.02248 -0.04238,-0.03561 -0.01134,-0.01373 v 0 L 37.0199,42.118447 v 0 l -0.0391,-0.03929 -0.04835,-0.02696 -0.05392,-0.01253 -0.05531,0.003 -0.05243,0.01791 -0.04546,0.03163 -0.02378,0.02646 v 0 l -0.179113,0.238782 v 0 l -0.0391,0.03919 -0.04835,0.02696 -0.05392,0.01253 -0.01781,7.96e-4 v 0 l -0.05481,-0.008 -0.05063,-0.02248 -0.04238,-0.03561 -0.01134,-0.01373 v 0 l -0.179044,-0.238743 v 0 l -0.03909,-0.03929 -0.04835,-0.02696 -0.05392,-0.01253 -0.05531,0.003 -0.05243,0.01791 -0.04546,0.03163 -0.02378,0.02646 v 0 l -0.179114,0.238782 v 0 l -0.03909,0.0392 -0.04835,0.02696 -0.05392,0.01253 -0.01781,7.96e-4 v 0 l -0.05481,-0.008 -0.05064,-0.02248 -0.04238,-0.03561 -0.01134,-0.01373 v 0 l -0.179044,-0.238742 v 0 l -0.0391,-0.0393 -0.04835,-0.02696 -0.05392,-0.01253 -0.05531,0.003 -0.05243,0.01791 -0.04546,0.03164 -0.02378,0.02646 v 0 l -0.179114,0.238782 v 0 l -0.0391,0.03919 -0.04835,0.02696 -0.05392,0.01253 -0.01781,7.96e-4 v 0 l -0.05481,-0.008 -0.05063,-0.02248 -0.04238,-0.03561 -0.01134,-0.01373 v 0 l -0.179044,-0.238742 v 0 l -0.0391,-0.0393 -0.04835,-0.02696 -0.05392,-0.01253 -0.05531,0.003 -0.05243,0.01791 -0.04546,0.03163 -0.02377,0.02646 v 0 l -0.179114,0.238782 v 0 l -0.0391,0.03919 -0.04835,0.02696 -0.05392,0.01253 -0.01781,7.96e-4 v 0 l -0.05481,-0.008 -0.05063,-0.02248 -0.04238,-0.03561 -0.01134,-0.01373 v 0 L 33.04081,42.118455 v 0 l -0.0391,-0.03929 -0.04835,-0.02696 -0.05392,-0.01253 -0.05531,0.003 -0.05243,0.01791 -0.04546,0.03164 -0.02378,0.02646 v 0 l -0.179114,0.238782 v 0 l -0.0391,0.03919 -0.04835,0.02696 -0.05392,0.01253 -0.01781,7.96e-4 v 0 l -0.05481,-0.008 -0.05064,-0.02248 -0.04238,-0.03561 -0.01134,-0.01373 v 0 L 32.04598,42.118396 v 0 l -0.0391,-0.03929 -0.04835,-0.02696 -0.05392,-0.01253 -0.05531,0.003 -0.05243,0.01791 -0.04546,0.03163 -0.02378,0.02646 v 0 l -0.179114,0.238782 v 0 l -0.0391,0.03919 -0.04835,0.02696 -0.05392,0.01253 -0.01781,7.96e-4 v 0 l -0.05481,-0.008 -0.05064,-0.02248 -0.04238,-0.03561 -0.01134,-0.01373 v 0 L 31.05115,42.118336 v 0 l -0.0391,-0.0393 -0.04835,-0.02696 -0.05392,-0.01253 -0.05531,0.003 -0.05243,0.01791 -0.04546,0.03163 -0.02378,0.02646 v 0 l -0.1791,0.238771 v 0 l -0.0391,0.03919 -0.04835,0.02696 -0.05392,0.01253 -0.01781,7.96e-4 v 0 l -0.05481,-0.008 -0.05063,-0.02248 -0.04238,-0.03561 -0.01134,-0.01373 v 0 L 30.056315,42.11823 v 0 l -0.03909,-0.03929 -0.04835,-0.02696 -0.05392,-0.01253 -0.05531,0.003 -0.05243,0.01791 -0.04546,0.03164 -0.02378,0.02646 v 0 l -0.179114,0.238782 v 0 l -0.03909,0.03919 -0.04835,0.02696 -0.05392,0.01253 -0.01781,7.96e-4 v 0 l -0.05481,-0.008 -0.05063,-0.02248 -0.04238,-0.03561 -0.01134,-0.01373 v 0 l -0.179044,-0.238742 v 0 l -0.0391,-0.0393 -0.04835,-0.02696 -0.05392,-0.01253 -0.05531,0.003 -0.05243,0.01791 -0.04546,0.03164 -0.02378,0.02646 v 0 l -0.179114,0.238782 v 0 l -0.0391,0.0392 -0.04835,0.02696 -0.05392,0.01253 -0.01781,7.96e-4 v 0 l -0.05481,-0.008 -0.05064,-0.02248 -0.04238,-0.03561 -0.01134,-0.01373 v 0 l -0.179044,-0.238742 v 0 l -0.0391,-0.03929 -0.04835,-0.02696 -0.05392,-0.01253 -0.05531,0.003 -0.05243,0.01791 -0.04546,0.03163 -0.02378,0.02646 v 0 l -0.179114,0.238782 v 0 l -0.0391,0.03919 -0.04835,0.02696 -0.05392,0.01254 -0.01781,7.95e-4 v 0 l -0.05481,-0.008 -0.05063,-0.02248 -0.04238,-0.03561 -0.01134,-0.01373 v 0 L 27.07178,42.118007 v 0 l -0.03909,-0.03929 -0.04835,-0.02696 -0.05392,-0.01253 -0.05531,0.003 -0.05243,0.01791 -0.04546,0.03164 -0.02378,0.02646 v 0 l -0.179113,0.238782 v 0 l -0.0391,0.03919 -0.04835,0.02696 -0.05392,0.01253 -0.01781,7.96e-4 v 0 l -0.05481,-0.008 -0.05063,-0.02248 -0.04238,-0.03561 -0.01134,-0.01373 v 0 l -0.179044,-0.238742 v 0 l -0.03909,-0.03929 -0.04835,-0.02696 -0.05392,-0.01253 -0.05531,0.003 -0.05243,0.01791 -0.04546,0.03164 -0.02378,0.02646 v 0 l -0.179114,0.238782 v 0 l -0.03909,0.03919 -0.04835,0.02696 -0.05392,0.01253 -0.01781,7.96e-4 v 0 l -0.05481,-0.008 -0.05064,-0.02248 -0.04238,-0.03561 -0.01134,-0.01373 v 0 l -0.179044,-0.238742 v 0 l -0.0391,-0.0393 -0.04835,-0.02696 -0.05392,-0.01253 -0.05531,0.003 -0.05243,0.01791 -0.04546,0.03163 -0.02378,0.02646 v 0 l -0.179114,0.238782 v 0 l -0.0391,0.03919 -0.04835,0.02696 -0.05392,0.01253 -0.01781,7.95e-4 v 0 l -0.05481,-0.008 -0.05063,-0.02248 -0.04238,-0.03561 -0.01134,-0.01373 v 0 l -0.179044,-0.238742 v 0 l -0.0391,-0.03929 -0.04835,-0.02696 -0.05392,-0.01253 -0.05531,0.003 -0.05243,0.01791 -0.04546,0.03164 -0.02378,0.02646 v 0 l -0.179113,0.238782 v 0 l -0.0391,0.03919 -0.04835,0.02696 -0.05392,0.01253 -0.01781,7.96e-4 v 0 l -0.05481,-0.008 -0.05063,-0.02248 -0.04238,-0.03561 -0.01134,-0.01373 v 0 L 23.09241,42.11769 v 0 l -0.03909,-0.0393 -0.04835,-0.02696 -0.05392,-0.01253 -0.05531,0.003 -0.05243,0.01791 -0.04546,0.03164 -0.02378,0.02646 v 0 l -0.179114,0.238781 v 0 l -0.03909,0.0392 -0.04835,0.02696 -0.05392,0.01253 -0.01781,7.96e-4 v 0 l -0.05481,-0.008 -0.05064,-0.02248 -0.04238,-0.03561 -0.01134,-0.01373 v 0 l -0.179044,-0.238742 v 0 l -0.0391,-0.03929 -0.04835,-0.02696 -0.05392,-0.01253 -0.05531,0.003 -0.05243,0.01791 -0.04546,0.03163 -0.02378,0.02646 v 0 l -0.179114,0.238782 v 0 l -0.0391,0.03919 -0.04835,0.02696 -0.05392,0.01253 -0.01781,7.96e-4 v 0 l -0.05481,-0.008 -0.05063,-0.02248 -0.04238,-0.03561 -0.01134,-0.01373 v 0 l -0.179044,-0.238742 v 0 l -0.0391,-0.03929 -0.04835,-0.02696 -0.05392,-0.01253 -0.05531,0.003 -0.05243,0.01791 -0.04546,0.03163 -0.02378,0.02646 v 0 l -0.179113,0.238782 v 0 l -0.0391,0.03919 -0.04835,0.02696 -0.05392,0.01253 -0.01781,7.96e-4 v 0 l -0.05481,-0.008 -0.05063,-0.02248 -0.04238,-0.03561 -0.01134,-0.01373 v 0 l -0.179044,-0.238743 v 0 l -0.03909,-0.03929 -0.04835,-0.02696 -0.05392,-0.01253 -0.05531,0.003 -0.05243,0.01791 -0.04546,0.03164 -0.02378,0.02646 v 0 l -0.179114,0.238782 v 0 l -0.03909,0.0392 -0.04835,0.02696 -0.05392,0.01253 -0.01781,7.96e-4 v 0 l -0.05481,-0.008 -0.05064,-0.02248 -0.04238,-0.03561 -0.01134,-0.01373 v 0 L 19.113186,42.11762 v 0 l -0.0391,-0.0393 -0.04835,-0.02696 -0.05392,-0.01253 -0.05531,0.003 -0.05243,0.01791 -0.04546,0.03164 -0.02378,0.02646 v 0 l -0.179114,0.238782 v 0 l -0.0391,0.03919 -0.04835,0.02696 -0.05392,0.01253 -0.01781,7.96e-4 v 0 l -0.05481,-0.008 -0.05063,-0.02248 -0.04238,-0.03561 -0.01134,-0.01373 v 0 L 18.118356,42.11756 v 0 l -0.0391,-0.03929 -0.04835,-0.02696 -0.05392,-0.01253 -0.05531,0.003 -0.05243,0.01791 -0.04546,0.03163 -0.02378,0.02646 v 0 l -0.179114,0.238782 v 0 l -0.0391,0.03919 -0.04835,0.02696 -0.05392,0.01253 -0.01781,7.96e-4 v 0 l -0.05481,-0.008 -0.05063,-0.02248 -0.04238,-0.03561 -0.01134,-0.01373 v 0 L 17.123525,42.1175 v 0 l -0.03909,-0.03929 -0.04835,-0.02696 -0.05392,-0.01253 -0.05531,0.003 -0.05243,0.01791 -0.04546,0.03163 -0.02378,0.02646 v 0 l -0.179114,0.238782 v 0 l -0.03909,0.03919 -0.04835,0.02696 -0.05392,0.01253 -0.01781,7.96e-4 v 0 l -0.05481,-0.008 -0.05064,-0.02248 -0.04238,-0.03561 -0.01134,-0.01373 v 0 l -0.179044,-0.238742 v 0 l -0.0391,-0.0393 -0.04835,-0.02696 -0.05392,-0.01253 -0.05531,0.003 -0.05243,0.01791 -0.04546,0.03164 -0.02378,0.02646 v 0 l -0.179114,0.238782 v 0 l -0.0391,0.03919 -0.04835,0.02696 -0.05392,0.01253 -0.01781,7.96e-4 v 0 l -0.05481,-0.008 -0.05063,-0.02248 -0.04238,-0.03561 -0.01134,-0.01373 v 0 l -0.179044,-0.238742 v 0 l -0.0391,-0.0393 -0.04835,-0.02696 -0.05392,-0.01253 -0.05531,0.003 -0.05243,0.01791 -0.04546,0.03163 -0.002,0.002 v 0 l -2.288051,2.188561 v 0 l -0.03432,0.04347 -0.02099,0.05123 -0.006,0.05501 0.009,0.05461 0.02407,0.04994 0.03691,0.04138 0.04686,0.02955 0.05312,0.01552 0.02865,0.002 v 0 h 58.991668 v 0 l 0.137183,0.0193 0.126439,0.05631 0.106046,0.08903 0.07759,0.11478 0.04278,0.131672 0.0099,0.08635"
       stroke="#c0c0c0"
       stroke-width="0"
       stroke-opacity="1"
       fill="#c0c0c0"
       fill-rule="evenodd"
       fill-opacity="1"
       id="path750" />
    <path
       d="m 123.91678,45.125658 v 20.99029 0 l -0.01,0.05481 -0.0229,0.05063 -0.0358,0.04238 -0.0458,0.03094 -0.0527,0.01711 -0.0348,0.003 v 0 h -1.59168 v 0 l -0.0547,-0.008 -0.0507,-0.02248 -0.0428,-0.03561 -0.0308,-0.04586 -0.0169,-0.05272 v -0.03452 0 -4.078682 0 l -0.01,-0.05481 -0.0229,-0.05064 -0.0358,-0.04238 -0.0458,-0.03094 -0.0527,-0.01711 -0.0348,-0.003 v 0 h -0.79584 v 0 l -0.13708,-0.0193 -0.12644,-0.05631 -0.10605,-0.08903 -0.0776,-0.11478 -0.0428,-0.131672 -0.01,-0.08635 v 0 -0.795841 0 l 0.01,-0.05481 0.0229,-0.05064 0.0358,-0.04238 0.0458,-0.03094 0.0527,-0.01711 0.0348,-0.003 v 0 h 1.09428 v 0 l 0.0547,-0.008 0.0507,-0.02248 0.0428,-0.03561 0.0308,-0.04586 0.0169,-0.05273 v -0.03452 0 -4.576083 0 l -0.01,-0.05481 -0.0229,-0.05063 -0.0358,-0.04238 -0.0458,-0.03094 -0.0527,-0.01711 -0.0348,-0.003 v 0 h -7.06308 v 0 l -0.0547,0.008 -0.0507,0.02248 -0.0428,0.03561 -0.0308,0.04596 -0.0169,0.05263 v 0.03452 0 4.576082 0 l 0.01,0.05481 0.0229,0.05064 0.0358,0.04238 0.0458,0.03094 0.0527,0.01711 0.0348,0.003 v 0 h 1.09428 v 0 l 0.0547,0.008 0.0507,0.02248 0.0428,0.03561 0.0308,0.04596 0.0169,0.05262 v 0.03452 0 0.79584 0 l -0.0189,0.137103 -0.0567,0.126479 -0.0895,0.106066 -0.1148,0.07739 -0.13162,0.04278 -0.0865,0.008 v 0 h -2.28804 v 0 l -0.0547,-0.008 -0.0507,-0.02248 -0.0428,-0.03561 -0.0308,-0.04586 -0.0169,-0.05272 v -0.03452 0 -6.068283 0 l -0.01,-0.05481 -0.0229,-0.05063 -0.0358,-0.04238 -0.0458,-0.03094 -0.0527,-0.01711 -0.0348,-0.003 v 0 h -3.08389 v 0 l -0.0547,-0.008 -0.0507,-0.02248 -0.0428,-0.03561 -0.0308,-0.04586 -0.0169,-0.05272 v -0.03452 0 -0.795841 0 -0.79584 0 l 0.01,-0.05481 0.0229,-0.05063 0.0358,-0.04238 0.0458,-0.03094 0.0527,-0.01711 0.0348,-0.003 v 0 h 3.08388 v 0 l 0.0547,-0.008 0.0507,-0.02248 0.0428,-0.03561 0.0308,-0.04586 0.0169,-0.05272 v -0.03452 0 -6.068283 0 l 0.01,-0.05481 0.0229,-0.05063 0.0358,-0.04238 0.0458,-0.03094 0.0527,-0.01711 0.0348,-0.003 v 0 h 2.28805 v 0 l 0.13718,0.0193 0.12644,0.05631 0.10604,0.08903 0.0776,0.11478 0.0428,0.131672 0.01,0.08635 v 0 0.79584 0 l -0.01,0.05481 -0.0229,0.05063 -0.0358,0.04238 -0.0458,0.03094 -0.0527,0.01711 -0.0348,0.003 v 0 h -1.09428 v 0 l -0.0547,0.008 -0.0507,0.02248 -0.0428,0.03561 -0.0308,0.04596 -0.0169,0.05262 v 0.03452 0 4.576082 0 l 0.01,0.05481 0.0229,0.05063 0.0358,0.04238 0.0458,0.03094 0.0527,0.01711 0.0348,0.003 v 0 h 7.06308 v 0 l 0.0547,-0.008 0.0507,-0.02248 0.0428,-0.03561 0.0308,-0.04586 0.0169,-0.05273 v -0.03452 0 -4.576083 0 l -0.01,-0.05481 -0.0229,-0.05063 -0.0358,-0.04238 -0.0458,-0.03094 -0.0527,-0.01711 -0.0348,-0.003 v 0 h -1.09428 v 0 l -0.0547,-0.008 -0.0507,-0.02248 -0.0428,-0.03561 -0.0308,-0.04586 -0.0169,-0.05273 v -0.03452 0 -0.795841 0 l 0.0189,-0.137103 0.0567,-0.126479 0.0895,-0.106056 0.1147,-0.07739 0.13171,-0.04278 0.0866,-0.008 v 0 h 0.9948 v 0 -4.277642 0 l 0.01,-0.05481 0.0229,-0.05064 0.0358,-0.04238 0.0458,-0.03094 0.0527,-0.01711 0.0348,-0.003 v 0 h 1.79064 v 0 l 0.0547,-0.008 0.0507,-0.02248 0.0428,-0.03561 0.0109,-0.01373 v 0 l 0.17907,-0.238742 v 0 l 0.0388,-0.03929 0.0487,-0.02696 0.0537,-0.01253 0.0557,0.003 0.0527,0.01791 0.0458,0.03164 0.0239,0.02646 v 0 l 0.17916,0.238782 v 0 l 0.0388,0.03919 0.0487,0.02696 0.0537,0.01253 0.0179,7.96e-4 v 0 l 0.0547,-0.008 0.0507,-0.02248 0.0428,-0.03561 0.0109,-0.01373 v 0 l 0.17906,-0.238742 v 0 l 0.0388,-0.0393 0.0487,-0.02696 0.0537,-0.01253 0.0557,0.003 0.0527,0.01791 0.0458,0.03164 0.0239,0.02646 v 0 l 0.17917,0.238781 v 0 l 0.0388,0.0392 0.0487,0.02696 0.0537,0.01253 0.0179,7.96e-4 v 0 l 0.0547,-0.008 0.0507,-0.02248 0.0428,-0.03561 0.0109,-0.01373 v 0 l 0.17907,-0.238742 v 0 l 0.0388,-0.03929 0.0487,-0.02696 0.0537,-0.01253 0.0557,0.003 0.0527,0.01791 0.0458,0.03163 0.0239,0.02646 v 0 l 0.17916,0.238782 v 0 l 0.0388,0.03919 0.0487,0.02696 0.0537,0.01253 0.0179,7.95e-4 v 0 l 0.0547,-0.008 0.0507,-0.02248 0.0428,-0.03561 0.0109,-0.01373 v 0 l 0.17906,-0.238742 v 0 l 0.0388,-0.03929 0.0487,-0.02696 0.0537,-0.01253 0.0557,0.003 0.0527,0.01791 0.0458,0.03163 0.0239,0.02646 v 0 l 0.17917,0.238782 v 0 l 0.0388,0.03919 0.0487,0.02696 0.0537,0.01253 0.0179,7.96e-4 v 0 l 0.0547,-0.008 0.0507,-0.02248 0.0428,-0.03561 0.0109,-0.01373 v 0 l 0.17907,-0.238742 v 0 l 0.0388,-0.0393 0.0487,-0.02696 0.0537,-0.01253 0.0557,0.003 0.0527,0.01791 0.0458,0.03164 0.0239,0.02646 v 0 l 0.17916,0.238782 v 0 l 0.0388,0.0392 0.0487,0.02696 0.0537,0.01253 0.0179,7.96e-4 v 0 l 0.0547,-0.008 0.0507,-0.02248 0.0428,-0.03561 0.0109,-0.01373 v 0 l 0.17906,-0.238742 v 0 l 0.0388,-0.0393 0.0487,-0.02696 0.0537,-0.01253 0.0557,0.003 0.0527,0.01791 0.0458,0.03164 0.0239,0.02646 v 0 l 0.17917,0.238782 v 0 l 0.0388,0.03919 0.0488,0.02696 0.0537,0.01253 0.0179,7.96e-4 v 0 l 0.0547,-0.008 0.0507,-0.02248 0.0428,-0.03561 0.0109,-0.01373 v 0 l 0.17907,-0.238742 v 0 l 0.0388,-0.03929 0.0488,-0.02696 0.0537,-0.01253 0.0557,0.003 0.0527,0.01791 0.0458,0.03163 0.0239,0.02646 v 0 l 0.17916,0.238782 v 0 l 0.0388,0.03919 0.0487,0.02696 0.0537,0.01253 0.0179,7.96e-4 v 0 l 0.0547,-0.008 0.0507,-0.02248 0.0428,-0.03561 0.0109,-0.01373 v 0 l 0.17906,-0.238743 v 0 l 0.0388,-0.03929 0.0487,-0.02696 0.0537,-0.01254 0.0557,0.003 0.0527,0.01791 0.0458,0.03163 0.0239,0.02646 v 0 l 0.17917,0.238782 v 0 l 0.0388,0.03919 0.0487,0.02696 0.0537,0.01253 0.0179,7.96e-4 v 0 l 0.0547,-0.008 0.0507,-0.02248 0.0428,-0.03561 0.0109,-0.01373 v 0 l 0.17907,-0.238742 v 0 l 0.0388,-0.0393 0.0487,-0.02696 0.0537,-0.01253 0.0557,0.003 0.0527,0.01791 0.0458,0.03164 0.0239,0.02646 v 0 l 0.17916,0.238782 v 0 l 0.0388,0.03919 0.0487,0.02696 0.0537,0.01253 0.0179,7.96e-4 v 0 l 0.0547,-0.008 0.0507,-0.02248 0.0428,-0.03561 0.011,-0.01373 v 0 l 0.17906,-0.238742 v 0 l 0.0388,-0.0393 0.0487,-0.02696 0.0537,-0.01253 0.0557,0.003 0.0527,0.01791 0.0458,0.03163 0.0239,0.02646 v 0 l 0.17917,0.238782 v 0 l 0.0388,0.03919 0.0488,0.02696 0.0537,0.01253 0.0179,7.96e-4 v 0 l 0.0547,-0.008 0.0507,-0.02248 0.0428,-0.03561 0.0109,-0.01373 v 0 l 0.17907,-0.238743 v 0 l 0.0388,-0.03929 0.0488,-0.02696 0.0537,-0.01253 0.0557,0.003 0.0527,0.01791 0.0458,0.03164 0.0239,0.02646 v 0 l 0.17916,0.238782 v 0 l 0.0388,0.03919 0.0487,0.02696 0.0537,0.01253 0.0179,7.96e-4 v 0 l 0.0547,-0.008 0.0507,-0.02248 0.0428,-0.03561 0.0109,-0.01373 v 0 l 0.17906,-0.238742 v 0 l 0.0388,-0.03929 0.0487,-0.02696 0.0537,-0.01253 0.0557,0.003 0.0527,0.01791 0.0458,0.03164 0.0239,0.02646 v 0 l 0.17917,0.238782 v 0 l 0.0388,0.03919 0.0488,0.02696 0.0537,0.01253 0.0179,7.96e-4 v 0 l 0.0547,-0.008 0.0507,-0.02248 0.0428,-0.03561 0.0109,-0.01373 v 0 l 0.17907,-0.238742 v 0 l 0.0388,-0.03929 0.0488,-0.02696 0.0537,-0.01253 0.0557,0.003 0.0527,0.01791 0.0458,0.03163 0.0239,0.02646 v 0 l 0.17916,0.238782 v 0 l 0.0388,0.03919 0.0487,0.02696 0.0537,0.01253 0.0179,7.95e-4 v 0 l 0.0547,-0.008 0.0507,-0.02248 0.0428,-0.03561 0.011,-0.01373 v 0 l 0.17906,-0.238742 v 0 l 0.0388,-0.03929 0.0487,-0.02696 0.0537,-0.01253 0.0557,0.003 0.0527,0.01791 0.0458,0.03164 0.0239,0.02646 v 0 l 0.17917,0.238782 v 0 l 0.0388,0.0392 0.0487,0.02696 0.0537,0.01253 0.0179,7.96e-4 v 0 l 0.0547,-0.008 0.0507,-0.02248 0.0428,-0.03561 0.0109,-0.01373 v 0 l 0.17907,-0.238742 v 0 l 0.0388,-0.0393 0.0487,-0.02696 0.0537,-0.01253 0.0557,0.003 0.0527,0.01791 0.0458,0.03164 0.0239,0.02646 v 0 l 0.17916,0.238782 v 0 l 0.0388,0.03919 0.0487,0.02696 0.0537,0.01253 0.0179,7.96e-4 v 0 l 0.0547,-0.008 0.0507,-0.02248 0.0428,-0.03561 0.011,-0.01373 v 0 l 0.17906,-0.238742 v 0 l 0.0388,-0.0393 0.0487,-0.02696 0.0537,-0.01253 0.0557,0.003 0.0527,0.01791 0.0458,0.03163 0.0239,0.02646 v 0 l 0.17916,0.238782 v 0 l 0.0388,0.03919 0.0487,0.02696 0.0537,0.01253 0.0179,7.95e-4 v 0 l 0.0547,-0.008 0.0507,-0.02248 0.0428,-0.03561 0.0109,-0.01373 v 0 l 0.17906,-0.238742 v 0 l 0.0388,-0.03929 0.0487,-0.02696 0.0537,-0.01253 0.0557,0.003 0.0527,0.01791 0.0458,0.03164 0.0239,0.02646 v 0 l 0.17916,0.238782 v 0 l 0.0388,0.03919 0.0487,0.02696 0.0537,0.01253 0.0179,7.96e-4 v 0 l 0.0547,-0.008 0.0507,-0.02248 0.0428,-0.03561 0.0109,-0.01373 v 0 l 0.17906,-0.238742 v 0 l 0.0388,-0.03929 0.0487,-0.02696 0.0537,-0.01253 0.0557,0.003 0.0527,0.01791 0.0458,0.03164 0.0239,0.02646 v 0 l 0.17916,0.238781 v 0 l 0.0388,0.0392 0.0488,0.02696 0.0537,0.01253 0.0179,7.96e-4 v 0 l 0.0547,-0.008 0.0507,-0.02248 0.0428,-0.03561 0.0109,-0.01373 v 0 l 0.17906,-0.238742 v 0 l 0.0388,-0.0393 0.0488,-0.02696 0.0537,-0.01253 0.0557,0.003 0.0527,0.01791 0.0458,0.03164 0.0239,0.02646 v 0 l 0.17916,0.238782 v 0 l 0.0388,0.03919 0.0487,0.02696 0.0537,0.01253 0.0179,7.95e-4 v 0 l 0.0547,-0.008 0.0507,-0.02248 0.0428,-0.03561 0.0109,-0.01373 v 0 l 0.17907,-0.238742 v 0 l 0.0388,-0.03929 0.0487,-0.02696 0.0537,-0.01253 0.0557,0.003 0.0527,0.01791 0.0458,0.03163 0.0239,0.02646 v 0 l 0.17916,0.238782 v 0 l 0.0388,0.03919 0.0487,0.02696 0.0537,0.01253 0.0179,7.96e-4 v 0 l 0.0547,-0.008 0.0507,-0.02248 0.0428,-0.03561 0.0109,-0.01373 v 0 l 0.17906,-0.238743 v 0 l 0.0388,-0.03929 0.0488,-0.02696 0.0537,-0.01253 0.0557,0.003 0.0527,0.01791 0.0458,0.03164 0.0239,0.02646 v 0 l 0.17917,0.238782 v 0 l 0.0388,0.0392 0.0487,0.02696 0.0537,0.01253 0.0179,7.96e-4 v 0 l 0.0547,-0.008 0.0507,-0.02248 0.0428,-0.03561 0.0109,-0.01373 v 0 l 0.17907,-0.238742 v 0 l 0.0388,-0.03929 0.0487,-0.02696 0.0537,-0.01253 0.0557,0.003 0.0527,0.01791 0.0458,0.03163 0.0239,0.02646 v 0 l 0.17916,0.238782 v 0 l 0.0388,0.03919 0.0487,0.02696 0.0537,0.01253 0.0179,7.96e-4 v 0 l 0.0547,-0.008 0.0507,-0.02248 0.0428,-0.03561 0.0109,-0.01373 v 0 l 0.17906,-0.238742 v 0 l 0.0388,-0.03929 0.0487,-0.02696 0.0537,-0.01253 0.0557,0.003 0.0527,0.01791 0.0458,0.03163 0.0239,0.02646 v 0 l 0.17917,0.238782 v 0 l 0.0388,0.03919 0.0487,0.02696 0.0537,0.01253 0.0179,7.96e-4 v 0 l 0.0547,-0.008 0.0507,-0.02248 0.0428,-0.03561 0.0109,-0.01373 v 0 l 0.17907,-0.238743 v 0 l 0.0388,-0.03929 0.0487,-0.02696 0.0537,-0.01253 0.0557,0.003 0.0527,0.01791 0.0458,0.03164 0.0239,0.02646 v 0 l 0.17916,0.238782 v 0 l 0.0388,0.03919 0.0488,0.02696 0.0537,0.01253 0.0179,7.96e-4 v 0 l 0.0547,-0.008 0.0507,-0.02248 0.0428,-0.03561 0.0109,-0.01373 v 0 l 0.17906,-0.238742 v 0 l 0.0388,-0.0393 0.0488,-0.02696 0.0537,-0.01253 0.0557,0.003 0.0527,0.01791 0.0458,0.03164 0.0239,0.02646 v 0 l 0.17917,0.238782 v 0 l 0.0388,0.03919 0.0488,0.02696 0.0537,0.01253 0.0179,7.96e-4 v 0 l 0.0547,-0.008 0.0507,-0.02248 0.0428,-0.03561 0.0109,-0.01373 v 0 l 0.17907,-0.238742 v 0 l 0.0388,-0.03929 0.0488,-0.02696 0.0537,-0.01253 0.0557,0.003 0.0527,0.01791 0.0458,0.03163 0.0239,0.02646 v 0 l 0.17916,0.238782 v 0 l 0.0388,0.03919 0.0487,0.02696 0.0537,0.01253 0.0179,7.96e-4 v 0 l 0.0547,-0.008 0.0507,-0.02248 0.0428,-0.03561 0.0109,-0.01373 v 0 l 0.17906,-0.238743 v 0 l 0.0388,-0.03929 0.0487,-0.02696 0.0537,-0.01253 0.0557,0.003 0.0527,0.01791 0.0458,0.03163 0.0239,0.02646 v 0 l 0.17917,0.238782 v 0 l 0.0388,0.03919 0.0487,0.02696 0.0537,0.01253 0.0179,7.96e-4 v 0 l 0.0547,-0.008 0.0507,-0.02248 0.0428,-0.03561 0.0109,-0.01373 v 0 l 0.17907,-0.238742 v 0 l 0.0388,-0.03929 0.0487,-0.02696 0.0537,-0.01253 0.0557,0.003 0.0527,0.01791 0.0458,0.03164 0.0239,0.02646 v 0 l 0.17916,0.238782 v 0 l 0.0388,0.03919 0.0487,0.02696 0.0537,0.01253 0.0179,7.96e-4 v 0 l 0.0547,-0.008 0.0507,-0.02248 0.0428,-0.03561 0.011,-0.01373 v 0 l 0.17906,-0.238742 v 0 l 0.0388,-0.0393 0.0487,-0.02696 0.0537,-0.01253 0.0557,0.003 0.0527,0.01791 0.0458,0.03163 0.0239,0.02646 v 0 l 0.17917,0.238782 v 0 l 0.0388,0.0392 0.0487,0.02696 0.0537,0.01253 0.0179,7.95e-4 v 0 l 0.0547,-0.008 0.0507,-0.02248 0.0428,-0.03561 0.0109,-0.01373 v 0 l 0.17907,-0.238742 v 0 l 0.0388,-0.03929 0.0487,-0.02696 0.0537,-0.01253 0.0557,0.003 0.0527,0.01791 0.0458,0.03164 0.0239,0.02646 v 0 l 0.17916,0.238782 v 0 l 0.0388,0.03919 0.0487,0.02696 0.0537,0.01253 0.0179,7.96e-4 v 0 l 0.0547,-0.008 0.0507,-0.02248 0.0428,-0.03561 0.0109,-0.01373 v 0 l 0.17906,-0.238742 v 0 l 0.0388,-0.0393 0.0487,-0.02696 0.0537,-0.01253 0.0557,0.003 0.0527,0.01791 0.0458,0.03164 0.0239,0.02646 v 0 l 0.17917,0.238782 v 0 l 0.0388,0.03919 0.0488,0.02696 0.0537,0.01253 0.0179,7.96e-4 v 0 l 0.0547,-0.008 0.0507,-0.02248 0.0428,-0.03561 0.0109,-0.01373 v 0 l 0.17907,-0.238742 v 0 l 0.0388,-0.03929 0.0488,-0.02696 0.0537,-0.01253 0.0557,0.003 0.0527,0.01791 0.0458,0.03163 0.0239,0.02646 v 0 l 0.17916,0.238782 v 0 l 0.0388,0.03919 0.0487,0.02696 0.0537,0.01253 0.0179,7.95e-4 v 0 l 0.0547,-0.008 0.0507,-0.02248 0.0428,-0.03561 0.011,-0.01373 v 0 l 0.17906,-0.238742 v 0 l 0.0388,-0.03929 0.0487,-0.02696 0.0537,-0.01253 0.0557,0.003 0.0527,0.01791 0.0458,0.03164 0.0239,0.02646 v 0 l 0.17917,0.238782 v 0 l 0.0388,0.03919 0.0488,0.02696 0.0537,0.01253 0.0179,7.96e-4 v 0 l 0.0547,-0.008 0.0507,-0.02248 0.0428,-0.03561 0.0109,-0.01373 v 0 l 0.17907,-0.238742 v 0 l 0.0388,-0.0393 0.0488,-0.02696 0.0537,-0.01253 0.0557,0.003 0.0527,0.01791 0.0458,0.03164 0.0239,0.02646 v 0 l 0.17916,0.238781 v 0 l 0.0388,0.0392 0.0487,0.02696 0.0537,0.01253 0.0179,7.96e-4 v 0 l 0.0547,-0.008 0.0507,-0.02248 0.0428,-0.03561 0.011,-0.01373 v 0 l 0.17906,-0.238742 v 0 l 0.0388,-0.0393 0.0487,-0.02696 0.0537,-0.01253 0.0557,0.003 0.0527,0.01791 0.0458,0.03164 0.0239,0.02646 v 0 l 0.17916,0.238782 v 0 l 0.0388,0.03919 0.0487,0.02696 0.0537,0.01253 0.0179,7.95e-4 v 0 l 0.0547,-0.008 0.0507,-0.02248 0.0428,-0.03561 0.0109,-0.01373 v 0 l 0.17907,-0.238742 v 0 l 0.0388,-0.03929 0.0487,-0.02696 0.0537,-0.01253 0.0557,0.003 0.0527,0.01791 0.0458,0.03163 0.0239,0.02646 v 0 l 0.17916,0.238782 v 0 l 0.0388,0.03919 0.0487,0.02696 0.0537,0.01253 0.0179,7.96e-4 v 0 l 0.0547,-0.008 0.0507,-0.02248 0.0428,-0.03561 0.011,-0.01373 v 0 l 0.17906,-0.238743 v 0 l 0.0388,-0.03929 0.0487,-0.02696 0.0537,-0.01253 0.0557,0.003 0.0527,0.01791 0.0458,0.03163 0.0239,0.02646 v 0 l 0.17916,0.238782 v 0 l 0.0388,0.0392 0.0488,0.02696 0.0537,0.01253 0.0179,7.96e-4 v 0 l 0.0547,-0.008 0.0507,-0.02248 0.0428,-0.03561 0.0109,-0.01373 v 0 l 0.17906,-0.238742 v 0 l 0.0388,-0.0393 0.0488,-0.02696 0.0537,-0.01253 0.0557,0.003 0.0527,0.01791 0.0458,0.03164 0.0239,0.02646 v 0 l 0.17916,0.238782 v 0 l 0.0388,0.03919 0.0487,0.02696 0.0537,0.01253 0.0179,7.96e-4 v 0 l 0.0547,-0.008 0.0507,-0.02248 0.0428,-0.03561 0.011,-0.01373 v 0 l 0.17906,-0.238742 v 0 l 0.0388,-0.0393 0.0487,-0.02696 0.0537,-0.01253 0.0557,0.003 0.0527,0.01791 0.0458,0.03163 0.0239,0.02646 v 0 l 0.17916,0.238782 v 0 l 0.0388,0.03919 0.0488,0.02696 0.0537,0.01253 0.0179,7.96e-4 v 0 l 0.0547,-0.008 0.0507,-0.02248 0.0428,-0.03561 0.0109,-0.01373 v 0 l 0.17906,-0.238743 v 0 l 0.0388,-0.03929 0.0488,-0.02696 0.0537,-0.01253 0.0557,0.003 0.0527,0.01791 0.0458,0.03164 0.0239,0.02646 v 0 l 0.17916,0.238782 v 0 l 0.0388,0.03919 0.0487,0.02696 0.0537,0.01253 0.0179,7.96e-4 v 0 l 0.0547,-0.008 0.0507,-0.02248 0.0428,-0.03561 0.0109,-0.01373 v 0 l 0.17907,-0.238742 v 0 l 0.0388,-0.03929 0.0487,-0.02696 0.0537,-0.01253 0.0557,0.003 0.0527,0.01791 0.0458,0.03163 0.0239,0.02646 v 0 l 0.17916,0.238782 v 0 l 0.0388,0.03919 0.0487,0.02696 0.0537,0.01253 0.0179,7.96e-4 v 0 l 0.0547,-0.008 0.0507,-0.02248 0.0428,-0.03561 0.0109,-0.01373 v 0 l 0.17906,-0.238742 v 0 l 0.0388,-0.0393 0.0487,-0.02696 0.0537,-0.01253 0.0557,0.003 0.0527,0.01791 0.0458,0.03163 0.0239,0.02646 v 0 l 0.17917,0.238782 v 0 l 0.0388,0.03919 0.0487,0.02696 0.0537,0.01253 0.0179,7.96e-4 v 0 l 0.0547,-0.008 0.0507,-0.02248 0.0428,-0.03561 0.0109,-0.01373 v 0 l 0.17907,-0.238743 v 0 l 0.0388,-0.03929 0.0487,-0.02696 0.0537,-0.01253 0.0557,0.003 0.0527,0.01791 0.0458,0.03164 0.0239,0.02646 v 0 l 0.17916,0.238782 v 0 l 0.0388,0.03919 0.0488,0.02696 0.0537,0.01253 0.0179,7.96e-4 v 0 l 0.0547,-0.008 0.0507,-0.02248 0.0428,-0.03561 0.0109,-0.01373 v 0 l 0.17906,-0.238742 v 0 l 0.0388,-0.0393 0.0488,-0.02696 0.0537,-0.01253 0.0557,0.003 0.0527,0.01791 0.0458,0.03164 0.0239,0.02646 v 0 l 0.17917,0.238782 v 0 l 0.0388,0.0392 0.0488,0.02696 0.0537,0.01253 0.0179,7.96e-4 v 0 l 0.0547,-0.008 0.0507,-0.02248 0.0428,-0.03561 0.0109,-0.01373 v 0 l 0.17907,-0.238742 v 0 l 0.0388,-0.03929 0.0487,-0.02696 0.0537,-0.01253 0.0557,0.003 0.0527,0.01791 0.0458,0.03163 0.0239,0.02646 v 0 l 0.17916,0.238782 v 0 l 0.0388,0.03919 0.0487,0.02696 0.0537,0.01254 0.0179,7.95e-4 v 0 l 0.0547,-0.008 0.0507,-0.02248 0.0428,-0.03561 0.0109,-0.01373 v 0 l 0.17906,-0.238742 v 0 l 0.0388,-0.03929 0.0488,-0.02696 0.0537,-0.01253 0.0557,0.003 0.0527,0.01791 0.0458,0.03164 0.0239,0.02646 v 0 l 0.17917,0.238782 v 0 l 0.0388,0.03919 0.0488,0.02696 0.0537,0.01253 0.0179,7.96e-4 v 0 l 0.0547,-0.008 0.0507,-0.02248 0.0428,-0.03561 0.0109,-0.01373 v 0 l 0.17907,-0.238742 v 0 l 0.0388,-0.03929 0.0488,-0.02696 0.0537,-0.01253 0.0557,0.003 0.0527,0.01791 0.0458,0.03164 0.0239,0.02646 v 0 l 0.17916,0.238782 v 0 l 0.0388,0.03919 0.0487,0.02696 0.0537,0.01253 0.0179,7.96e-4 v 0 l 0.0547,-0.008 0.0507,-0.02248 0.0428,-0.03561 0.0109,-0.01373 v 0 l 0.17906,-0.238742 v 0 l 0.0388,-0.0393 0.0487,-0.02696 0.0537,-0.01253 0.0557,0.003 0.0527,0.01791 0.0458,0.03163 0.0239,0.02646 v 0 l 0.17917,0.238782 v 0 l 0.0388,0.03919 0.0487,0.02696 0.0537,0.01253 0.0179,7.95e-4 v 0 l 0.0547,-0.008 0.0507,-0.02248 0.0428,-0.03561 0.0109,-0.01373 v 0 l 0.17907,-0.238742 v 0 l 0.0388,-0.03929 0.0487,-0.02696 0.0537,-0.01253 0.0557,0.003 0.0527,0.01791 0.0458,0.03164 0.0239,0.02646 v 0 l 0.17916,0.238782 v 0 l 0.0388,0.03919 0.0487,0.02696 0.0537,0.01253 0.0179,7.96e-4 v 0 l 0.0547,-0.008 0.0507,-0.02248 0.0428,-0.03561 0.011,-0.01373 v 0 l 0.17906,-0.238742 v 0 l 0.0388,-0.0393 0.0487,-0.02696 0.0537,-0.01253 0.0557,0.003 0.0527,0.01791 0.0458,0.03164 0.0239,0.02646 v 0 l 0.17917,0.238781 v 0 l 0.0388,0.0392 0.0488,0.02696 0.0537,0.01253 0.0179,7.96e-4 v 0 l 0.0547,-0.008 0.0507,-0.02248 0.0428,-0.03561 0.0109,-0.01373 v 0 l 0.17907,-0.238742 v 0 l 0.0388,-0.03929 0.0488,-0.02696 0.0537,-0.01253 0.0557,0.003 0.0527,0.01791 0.0458,0.03163 0.0239,0.02646 v 0 l 0.17916,0.238782 v 0 l 0.0388,0.03919 0.0487,0.02696 0.0537,0.01253 0.0179,7.96e-4 v 0 l 0.0547,-0.008 0.0507,-0.02248 0.0428,-0.03561 0.0109,-0.01373 v 0 l 0.17906,-0.238742 v 0 l 0.0388,-0.03929 0.0487,-0.02696 0.0537,-0.01253 0.0557,0.003 0.0527,0.01791 0.0458,0.03163 0.0239,0.02646 v 0 l 0.17917,0.238782 v 0 l 0.0388,0.03919 0.0488,0.02696 0.0537,0.01253 0.0179,7.96e-4 v 0 l 0.0547,-0.008 0.0507,-0.02248 0.0428,-0.03561 0.0109,-0.01373 v 0 l 0.17907,-0.238743 v 0 l 0.0388,-0.03929 0.0488,-0.02696 0.0537,-0.01253 0.0557,0.003 0.0527,0.01791 0.0458,0.03164 0.0239,0.02646 v 0 l 0.17916,0.238782 v 0 l 0.0388,0.0392 0.0487,0.02696 0.0537,0.01253 0.0179,7.96e-4 v 0 l 0.0547,-0.008 0.0507,-0.02248 0.0428,-0.03561 0.011,-0.01373 v 0 l 0.17906,-0.238742 v 0 l 0.0388,-0.0393 0.0487,-0.02696 0.0537,-0.01253 0.0557,0.003 0.0527,0.01791 0.0458,0.03164 0.0239,0.02646 v 0 l 0.17917,0.238782 v 0 l 0.0388,0.03919 0.0487,0.02696 0.0537,0.01253 0.0179,7.96e-4 v 0 l 0.0547,-0.008 0.0507,-0.02248 0.0428,-0.03561 0.0109,-0.01373 v 0 l 0.17907,-0.238742 v 0 l 0.0388,-0.03929 0.0487,-0.02696 0.0537,-0.01253 0.0557,0.003 0.0527,0.01791 0.0458,0.03163 0.0239,0.02646 v 0 l 0.17916,0.238782 v 0 l 0.0388,0.03919 0.0487,0.02696 0.0537,0.01253 0.0179,7.96e-4 v 0 l 0.0547,-0.008 0.0507,-0.02248 0.0428,-0.03561 0.011,-0.01373 v 0 l 0.17906,-0.238743 v 0 l 0.0388,-0.03929 0.0487,-0.02696 0.0537,-0.01253 0.0557,0.003 0.0527,0.01791 0.0458,0.03163 0.0239,0.02646 v 0 l 0.17916,0.238782 v 0 l 0.0388,0.03919 0.0488,0.02696 0.0537,0.01253 0.0179,7.96e-4 v 0 l 0.0547,-0.008 0.0507,-0.02248 0.0428,-0.03561 0.0109,-0.01373 v 0 l 0.17906,-0.238742 v 0 l 0.0388,-0.0393 0.0488,-0.02696 0.0537,-0.01253 0.0557,0.003 0.0527,0.01791 0.0458,0.03164 0.0239,0.02646 v 0 l 0.17916,0.238782 v 0 l 0.0388,0.03919 0.0487,0.02696 0.0537,0.01253 0.0179,7.96e-4 v 0 l 0.0547,-0.008 0.0507,-0.02248 0.0428,-0.03561 0.0109,-0.01373 v 0 l 0.17906,-0.238742 v 0 l 0.0388,-0.0393 0.0487,-0.02696 0.0537,-0.01253 0.0557,0.003 0.0527,0.01791 0.0458,0.03163 v 0.002 0 l 2.28804,2.188561 v 0 l 0.0338,0.04347 0.0209,0.05123 0.01,0.05501 -0.01,0.05461 -0.0239,0.04994 -0.0368,0.04138 -0.0468,0.02955 -0.0527,0.01552 -0.0289,0.002 v 0 h -58.99167 v 0 l -0.13708,0.0193 -0.12644,0.05631 -0.10605,0.08903 -0.0776,0.11478 -0.0428,0.131672 -0.01,0.08635"
       stroke="#c0c0c0"
       stroke-width="0"
       stroke-opacity="1"
       fill="#c0c0c0"
       fill-rule="evenodd"
       fill-opacity="1"
       id="path970" />
  </g>
</svg>
