<?xml version="1.0" encoding="UTF-8" standalone="no"?>
<!-- Created with Inkscape (http://www.inkscape.org/) -->

<svg
   width="210mm"
   height="297mm"
   viewBox="0 0 210 297"
   version="1.1"
   id="svg1"
   inkscape:version="1.4 (86a8ad7, 2024-10-11)"
   sodipodi:docname="svg_file.svg"
   xmlns:inkscape="http://www.inkscape.org/namespaces/inkscape"
   xmlns:sodipodi="http://sodipodi.sourceforge.net/DTD/sodipodi-0.dtd"
   xmlns="http://www.w3.org/2000/svg"
   xmlns:svg="http://www.w3.org/2000/svg">
  <sodipodi:namedview
     id="namedview1"
     pagecolor="#ffffff"
     bordercolor="#000000"
     borderopacity="0.25"
     inkscape:showpageshadow="2"
     inkscape:pageopacity="0.0"
     inkscape:pagecheckerboard="0"
     inkscape:deskcolor="#d1d1d1"
     inkscape:document-units="mm"
     inkscape:zoom="2.9606624"
     inkscape:cx="177.49406"
     inkscape:cy="173.10315"
     inkscape:window-width="2560"
     inkscape:window-height="1377"
     inkscape:window-x="-8"
     inkscape:window-y="-8"
     inkscape:window-maximized="1"
     inkscape:current-layer="svg1" />
  <defs
     id="defs1">
    <linearGradient
       id="swatch7"
       inkscape:swatch="solid">
      <stop
         style="stop-color:#261a13;stop-opacity:1;"
         offset="0"
         id="stop7" />
    </linearGradient>
    <inkscape:perspective
       sodipodi:type="inkscape:persp3d"
       inkscape:vp_x="0 : 148.5 : 1"
       inkscape:vp_y="0 : 1000 : 0"
       inkscape:vp_z="210 : 148.5 : 1"
       inkscape:persp3d-origin="105 : 99 : 1"
       id="perspective2" />
    <clipPath
       id="clipId0">
<path
   d="M 0,768 H 1024 V 0 H 0 Z"
   id="path1" />

</clipPath>
    <clipPath
       id="clipPath2">
<path
   d="M 0,768 H 1024 V 0 H 0 Z"
   id="path2" />

</clipPath>
    <clipPath
       id="clipPath3">
<path
   d="M 0,768 H 1024 V 0 H 0 Z"
   id="path3" />

</clipPath>
    <clipPath
       id="clipPath4">
<path
   d="M 0,768 H 1024 V 0 H 0 Z"
   id="path4" />

</clipPath>
    <clipPath
       id="clipPath5">
<path
   d="M 0,768 H 1024 V 0 H 0 Z"
   id="path5" />

</clipPath>
    <clipPath
       id="clipPath6">
<path
   d="M 0,768 H 1024 V 0 H 0 Z"
   id="path6" />

</clipPath>
    <clipPath
       id="clipPath7">
<path
   d="M 0,768 H 1024 V 0 H 0 Z"
   id="path7" />

</clipPath>
    <clipPath
       id="clipPath8">
<path
   d="M 0,768 H 1024 V 0 H 0 Z"
   id="path8" />

</clipPath>
  </defs>
  <rect
     style="opacity:1;fill:#e8e8e8;fill-opacity:1;fill-rule:evenodd;stroke:#b81e1e;stroke-width:0.0116979"
     id="finish_keft"
     width="30.919249"
     height="9.2032471"
     x="3.0391912"
     y="10.635326"
     inkscape:label="finish_keft" />
  <rect
     style="fill:#b8b8b8;fill-opacity:1;fill-rule:evenodd;stroke:#b81e1e;stroke-width:0.0177552"
     id="concrete_left"
     width="31.360022"
     height="20.904169"
     x="2.831408"
     y="19.961052" />
  <rect
     style="opacity:1;fill:#b8b8b8;fill-opacity:1;fill-rule:evenodd;stroke:#b81e1e;stroke-width:0.0175512"
     id="concrete_right"
     width="31.449593"
     height="20.368177"
     x="77.645294"
     y="20.146158" />
  <rect
     style="fill:#e8e8e8;fill-opacity:1;fill-rule:evenodd;stroke:#b81e1e;stroke-width:0.00546055"
     id="finish_right"
     width="31.461683"
     height="1.9708167"
     x="77.792267"
     y="10.579032" />
  <path
     d="m 55.870175,10.590881 h -3.135278 l -0.5976,3.389268 -0.0085,0.04037 -0.01132,0.03906 -0.01431,0.03906 -0.01687,0.03776 -0.01965,0.03646 -0.02223,0.03516 -0.02488,0.03385 -0.02589,0.03125 -0.02853,0.02997 -0.02986,0.02734 -0.03251,0.02475 -0.03385,0.02343 -0.03518,0.02093 -0.03646,0.01815 -0.03776,0.01559 -0.03904,0.0126 -0.04039,0.0098 -0.04039,0.007 -0.04039,0.0043 -0.04039,0.0016 -0.04167,-0.0016 -0.04039,-0.0043 -0.04039,-0.007 -0.04039,-0.0098 -0.03904,-0.0126 -0.03776,-0.01559 -0.03646,-0.01815 -0.03518,-0.02093 -0.03385,-0.02343 -0.03251,-0.02475 -0.02986,-0.02734 -0.02854,-0.02997 -0.02621,-0.03125 -0.02488,-0.03385 -0.02223,-0.03516 -0.01965,-0.03646 -0.01687,-0.03776 -0.01431,-0.03906 -0.01965,-0.07943 -0.5976,-3.389281 h -6.272782 l -0.597597,3.389281 -0.0085,0.04037 -0.01132,0.03906 -0.01431,0.03906 -0.01687,0.03776 -0.01965,0.03646 -0.02223,0.03516 -0.02488,0.03385 -0.02621,0.03125 -0.02853,0.02997 -0.03118,0.02734 -0.03251,0.02475 -0.03385,0.02343 -0.03518,0.02093 -0.03646,0.01815 -0.03776,0.01559 -0.03904,0.0126 -0.04039,0.0098 -0.04039,0.007 -0.04039,0.0043 -0.04039,0.0016 -0.04167,-0.0016 -0.04039,-0.0043 -0.04039,-0.007 -0.04039,-0.0098 -0.03904,-0.0126 -0.03776,-0.01559 -0.03646,-0.01815 -0.03518,-0.02093 -0.03385,-0.02343 -0.03251,-0.02475 -0.03118,-0.02734 -0.02853,-0.02997 -0.02589,-0.03125 -0.02488,-0.03385 -0.02223,-0.03516 -0.01965,-0.03646 -0.01687,-0.03776 -0.01431,-0.03906 -0.01965,-0.07943 -0.597253,-3.389281 h -6.862919 v 1.764525 h 0.588223 v 0.4705 l -0.582493,0.392105 1.072525,1.68609 h 0.78421 l 1.078172,-1.68609 -0.588221,-0.392105 v -0.4705 h 1.176316 0.01431 l 0.01431,0.0016 0.01303,0.0024 0.01303,0.0031 0.01303,0.0042 0.0126,0.0052 0.01217,0.006 0.01196,0.0068 0.01132,0.0076 0.01068,0.0084 0.01025,0.0092 0.0092,0.0098 0.0085,0.01051 0.0083,0.01102 0.007,0.01164 0.0064,0.01215 0.0056,0.01247 0.0047,0.01277 0.0041,0.01301 0.0041,0.01301 v 0.01301 0.02084 l -0.392105,2.352708 h 1.882717 l 0.109398,0.0041 0.109397,0.01153 0.108073,0.01965 0.10677,0.02589 0.104186,0.03387 0.101559,0.04039 0.09897,0.04818 0.09507,0.05468 0.09116,0.06121 0.08595,0.06773 0.08073,0.07294 0.07552,0.07813 0.07031,0.08336 0.06382,0.08855 0.05859,0.09248 0.05081,0.09635 0.04425,0.100278 0.03776,0.102904 0.02986,0.105489 0.0049,0.01815 0.10677,0.388071 0.132956,0.379729 0.159141,0.369578 0.184514,0.357596 0.209013,0.34379 0.23243,0.328425 0.254862,0.311368 0.275933,0.292754 0.29574,0.272812 0.313957,0.25161 0.330778,0.229049 0.346007,0.20536 0.359418,0.180734 0.371141,0.155233 0.381035,0.128897 0.38911,0.101559 0.39536,0.07422 0.399659,0.04688 0.40187,0.01965 0.402265,-0.009 0.400569,-0.03776 0.397053,-0.0651 0.391584,-0.09248 0.384161,-0.119821 0.374787,-0.146091 0.363716,-0.171913 0.350823,-0.196902 0.18727,-0.118496 0.02356,-0.01431 0.02488,-0.0126 0.02488,-0.01089 0.02589,-0.0094 0.02589,-0.0073 0.02589,-0.0056 0.02721,-0.0036 0.02721,-0.0016 h 0.02721 l 0.02721,0.0019 0.02721,0.0041 0.02589,0.006 0.02589,0.0077 0.02621,0.0096 0.02488,0.01132 0.02356,0.01303 0.02356,0.01431 0.02223,0.01559 0.02093,0.01816 0.01965,0.01965 0.0064,0.0066 0.324375,0.333503 0.346919,0.310074 0.367624,0.285189 0.386635,0.258744 0.403693,0.231272 0.418933,0.202498 0.431953,0.17281 0.443021,0.142204 0.45188,0.1107 0.458518,0.07943 0.462816,0.04688 0.441462,0.01431 0.46503,-0.01559 0.462688,-0.04818 0.458127,-0.08073 0.451487,-0.111982 0.442504,-0.143784 0.43143,-0.174241 0.418151,-0.203929 0.403045,-0.232697 0.385722,-0.260204 0.366582,-0.286484 0.345744,-0.311368 0.307453,-0.317242 0.01965,-0.01965 0.02093,-0.01816 0.02223,-0.01687 0.02223,-0.01559 0.02356,-0.01303 0.02488,-0.01196 0.02589,-0.01025 0.02621,-0.0083 0.02589,-0.0066 0.02721,-0.0047 0.02721,-0.0028 0.02721,-0.001 0.02721,0.0012 0.02721,0.003 0.02721,0.0049 0.02589,0.0066 0.02621,0.0085 0.02589,0.01025 0.02488,0.01217 0.02356,0.01431 0.0073,0.0049 0.343012,0.210294 0.356815,0.185839 0.368924,0.160422 0.379213,0.134259 0.387677,0.108073 0.394189,0.08073 0.398876,0.05209 0.401611,0.02488 0.402265,-0.0036 0.401088,-0.03118 0.397965,-0.05989 0.392758,-0.08723 0.385723,-0.114608 0.376868,-0.14088 0.36606,-0.166808 0.353559,-0.191948 0.339367,-0.216172 0.323346,-0.239234 0.306026,-0.261232 0.286881,-0.281938 0.266575,-0.301347 0.244942,-0.319166 0.222045,-0.335458 0.198184,-0.350174 0.173195,-0.363064 0.147415,-0.374268 0.121102,-0.383769 0.05468,-0.214877 0.02853,-0.105489 0.03646,-0.102883 0.04297,-0.100277 0.05079,-0.09769 0.0573,-0.09376 0.0638,-0.08986 0.06901,-0.08464 0.07552,-0.07943 0.08073,-0.07422 0.08595,-0.06901 0.08986,-0.06252 0.09376,-0.056 0.09765,-0.04947 0.101559,-0.04167 0.104186,-0.03518 0.105489,-0.02721 0.108094,-0.02093 0.109397,-0.01303 0.109398,-0.0053 h 0.01965 1.882703 l -0.381558,-2.289094 -0.0041,-0.01301 -0.0041,-0.01301 -0.0041,-0.01301 v -0.01301 -0.01433 -0.01433 -0.01301 l 0.0041,-0.01301 0.0041,-0.01301 0.0043,-0.01294 0.0056,-0.01264 0.0064,-0.01215 0.007,-0.01164 0.0077,-0.01115 0.0085,-0.01068 0.0094,-0.01002 0.01025,-0.0094 0.01068,-0.0086 0.01132,-0.0078 0.01196,-0.007 0.01217,-0.0062 0.0126,-0.0053 0.01303,-0.0044 0.01303,-0.0036 0.01303,-0.0028 0.01431,-0.0016 0.01431,-10e-4 0.0041,-2.5e-5 h 1.176317 v 0.4705 l -0.588221,0.392105 1.078255,1.686092 h 0.78421 l 1.072593,-1.685821 -0.582497,-0.392105 v -0.470239 h 0.588224 v -1.764296 h -6.862618 l -0.5976,3.389281 -0.0085,0.04037 -0.01132,0.03907 -0.01431,0.03906 -0.01687,0.03776 -0.01965,0.03646 -0.02223,0.03516 -0.02488,0.03255 -0.02589,0.03125 -0.02853,0.02997 -0.02986,0.02734 -0.03253,0.02475 -0.03385,0.02343 -0.03518,0.02093 -0.03646,0.01816 -0.03776,0.01559 -0.03904,0.0126 -0.04039,0.0098 -0.04039,0.007 -0.04039,0.0043 -0.04039,0.0016 -0.04039,-0.0016 -0.04039,-0.0043 -0.04039,-0.007 -0.04039,-0.0098 -0.03904,-0.0126 -0.03776,-0.01559 -0.03646,-0.01816 -0.03518,-0.02093 -0.03385,-0.02343 -0.03253,-0.02475 -0.02986,-0.02734 -0.02854,-0.02997 -0.02621,-0.03125 -0.02488,-0.03255 -0.02223,-0.03516 -0.01965,-0.03646 -0.01687,-0.03776 -0.01431,-0.03906 -0.01965,-0.07943 -0.5976,-3.389281 h -6.272927 l -0.597599,3.389281 -0.0085,0.04037 -0.01132,0.03907 -0.01431,0.03906 -0.01687,0.03776 -0.01965,0.03646 -0.02223,0.03516 -0.02488,0.03385 -0.02621,0.03125 -0.02853,0.02997 -0.03118,0.02734 -0.03253,0.02475 -0.03385,0.02343 -0.03518,0.02093 -0.03646,0.01816 -0.03776,0.01559 -0.03904,0.0126 -0.04039,0.0098 -0.04039,0.007 -0.04039,0.0043 -0.04039,0.0016 -0.04039,-0.0016 -0.04039,-0.0043 -0.04039,-0.007 -0.04039,-0.0098 -0.03904,-0.0126 -0.03776,-0.01559 -0.03646,-0.01816 -0.03518,-0.02093 -0.03385,-0.02343 -0.03253,-0.02475 -0.02986,-0.02734 -0.02853,-0.02997 -0.02589,-0.03125 -0.02488,-0.03385 -0.02223,-0.03516 -0.01965,-0.03646 -0.01687,-0.03776 -0.01431,-0.03906 -0.01965,-0.07943 -0.5976,-3.389281 h -3.145799 m 1.559329,1.960578 0.02721,10e-4 0.02721,0.0028 0.02721,0.0048 0.02721,0.0066 0.02589,0.0084 0.02589,0.01019 0.02488,0.01198 0.02356,0.01433 0.02223,0.01563 0.02223,0.01692 0.02093,0.01822 0.01816,0.01954 0.01815,0.02085 0.01559,0.02213 0.01431,0.02343 0.01303,0.02475 0.01089,0.02475 0.0092,0.02605 0.01303,0.05339 0.24285,1.377029 0.03118,0.147287 0.04167,0.144682 0.05209,0.141413 0.06121,0.137526 0.07031,0.132956 0.07943,0.127616 0.08855,0.122405 0.09637,0.115911 0.104186,0.108073 0.09507,0.08595 0.0651,0.397051 0.09248,0.391586 0.11982,0.384162 0.146005,0.374913 0.171785,0.363848 0.196753,0.350953 0.220719,0.33637 0.06121,0.08464 0.01559,0.02223 0.01431,0.02356 0.01217,0.02488 0.01025,0.02488 0.0085,0.02589 0.0066,0.02589 0.0053,0.02721 0.0041,0.02721 v 0.02721 0.02721 l -0.0041,0.02721 -0.0049,0.02721 -0.0064,0.02621 -0.0083,0.02589 -0.01025,0.02589 -0.01196,0.02488 -0.01431,0.02356 -0.01559,0.02223 -0.01687,0.02223 -0.0085,0.01004 -0.25473,0.267605 -0.272812,0.249122 -0.289502,0.229578 -0.304866,0.208863 -0.318669,0.187014 -0.330911,0.164352 -0.341581,0.14088 -0.350561,0.117193 -0.357854,0.09248 -0.363329,0.06643 -0.367231,0.04167 -0.369187,0.01559 h -0.03776 l -0.369316,-0.01303 -0.367491,-0.03907 -0.363848,-0.0638 -0.358503,-0.08985 -0.351347,-0.114609 -0.342622,-0.138424 -0.332068,-0.161981 -0.319963,-0.184792 -0.306293,-0.206642 -0.291195,-0.227488 -0.274636,-0.247295 -0.256687,-0.265779 -0.02589,-0.02853 -0.01687,-0.02093 -0.01559,-0.02223 -0.01431,-0.02356 -0.0126,-0.02488 -0.01089,-0.02488 -0.009,-0.02589 -0.0073,-0.02589 -0.0056,-0.02721 -0.0041,-0.02721 v -0.02721 -0.02721 l 0.0041,-0.02721 0.0041,-0.02721 0.006,-0.02721 0.0077,-0.02621 0.0094,-0.02589 0.01132,-0.02488 0.01303,-0.02356 0.01431,-0.02356 0.0073,-0.01068 0.226857,-0.332333 0.203033,-0.347308 0.178278,-0.36059 0.152754,-0.37218 0.126314,-0.381949 0.09897,-0.389889 0.07164,-0.395885 0.01431,-0.104186 0.1107,-0.101559 0.102904,-0.109398 0.09507,-0.115911 0.08727,-0.122405 0.07815,-0.128897 0.06901,-0.133618 0.05989,-0.138167 0.04947,-0.141947 0.04039,-0.145066 0.02621,-0.12501 0.24275,-1.377028 0.0056,-0.02734 0.0073,-0.02605 0.0094,-0.02605 0.01089,-0.02475 0.01303,-0.02475 0.01431,-0.02343 0.01559,-0.02213 0.01816,-0.02085 0.01815,-0.01954 0.02093,-0.01822 0.02223,-0.01692 0.02223,-0.01563 0.02356,-0.01433 0.02488,-0.01198 0.02589,-0.01019 0.02589,-0.0084 0.02589,-0.0066 0.02721,-0.0048 0.05468,-0.0039 h 1.559333 1.559328 v 0 m 3.287653,3.415819 0.144425,-0.04297 0.141157,-0.05209 0.137142,-0.06252 0.132422,-0.07164 0.127616,-0.08073 0.121101,-0.08986 0.114609,-0.09769 0.108073,-0.105488 0.100277,-0.111982 0.09248,-0.11982 0.08336,-0.125032 0.07422,-0.130862 0.0651,-0.13569 0.056,-0.139854 0.0456,-0.143507 0.03518,-0.14624 0.01196,-0.06121 0.242851,-1.37703 0.0056,-0.02734 0.0073,-0.02605 0.0092,-0.02605 0.01089,-0.02475 0.01303,-0.02475 0.01431,-0.02343 0.01559,-0.02213 0.01816,-0.02085 0.01965,-0.01954 0.02093,-0.01822 0.02223,-0.01692 0.02223,-0.01563 0.02356,-0.01433 0.02488,-0.01198 0.02589,-0.01019 0.02589,-0.0084 0.02621,-0.0066 0.02721,-0.0048 0.05468,-0.0039 h 3.120851 l 0.02721,10e-4 0.02721,0.0028 0.02721,0.0047 0.02589,0.0066 0.02589,0.0084 0.02589,0.01021 0.02488,0.01198 0.02356,0.01433 0.02223,0.01563 0.02223,0.01692 0.02093,0.01822 0.01815,0.01954 0.01815,0.02085 0.01559,0.02213 0.01431,0.02343 0.01303,0.02475 0.01089,0.02475 0.0092,0.02605 0.01303,0.05339 0.242885,1.377029 0.03118,0.147287 0.04167,0.144682 0.05209,0.141413 0.06121,0.137526 0.07031,0.132956 0.07943,0.127616 0.08855,0.122404 0.09635,0.115912 0.104186,0.108073 0.111982,0.100278 0.118496,0.09248 0.125031,0.08464 0.130371,0.07552 0.135305,0.06643 0.139598,0.056 0.143101,0.04688 0.06121,0.01687 0.02621,0.0077 0.02589,0.0096 0.02488,0.01132 0.02356,0.01303 0.02356,0.01431 0.02223,0.01559 0.02093,0.01816 0.01965,0.01965 0.01815,0.02093 0.01687,0.02223 0.01559,0.02223 0.01431,0.02356 0.01196,0.02488 0.01025,0.02589 0.0083,0.02589 0.0066,0.02589 0.0049,0.02721 0.0041,0.02721 v 0.02721 0.02721 l -0.0041,0.02721 -0.0053,0.02721 -0.0066,0.02589 -0.0085,0.02589 -0.0066,0.01687 -0.128919,0.277889 -0.14859,0.268134 -0.166808,0.257184 -0.184387,0.244807 -0.201067,0.231403 -0.216706,0.216838 -0.23127,0.201217 -0.244807,0.184514 -0.257052,0.167065 -0.268002,0.148718 -0.277756,0.130243 -0.286251,0.109398 -0.293151,0.08985 -0.298594,0.06901 -0.302776,0.04818 -0.305364,0.02721 -0.306556,0.0056 -0.306159,-0.01559 -0.304202,-0.03776 -0.30095,-0.05861 -0.296139,-0.07943 -0.289867,-0.100277 -0.282203,-0.119821 -0.273211,-0.139085 -0.262791,-0.157838 -0.251213,-0.175651 -0.238173,-0.192844 -0.224234,-0.209013 -0.209141,-0.224104 -0.192972,-0.238171 -0.175929,-0.25108 -0.157966,-0.262658 -0.13932,-0.273079 -0.06382,-0.143101 -0.01004,-0.02589 -0.0077,-0.02589 -0.0064,-0.02621 -0.0043,-0.02721 -0.0041,-0.02721 v -0.02721 -0.02721 l 0.0041,-0.02721 0.0053,-0.02721 0.007,-0.02589 0.009,-0.02589 0.01068,-0.02488 0.0126,-0.02488 0.01431,-0.02356 0.01559,-0.02223 0.01687,-0.02093 0.01815,-0.01965 0.01965,-0.01815 0.02093,-0.01687 0.02223,-0.01559 0.02356,-0.01431 0.02488,-0.0126 0.02488,-0.01068 0.02589,-0.009 0.01687,-0.0049 v 0 m -9.43017,0.532878 -0.128941,0.277889 -0.148461,0.268134 -0.166788,0.257184 -0.184386,0.244942 -0.201067,0.231402 -0.216704,0.216836 -0.23127,0.201217 -0.244677,0.184643 -0.257051,0.167065 -0.268,0.148718 -0.277757,0.130243 -0.286118,0.109397 -0.293154,0.08986 -0.298594,0.06901 -0.302775,0.04819 -0.305362,0.02721 -0.306424,0.0056 -0.306161,-0.01559 -0.304335,-0.03776 -0.300949,-0.05859 -0.296137,-0.07943 -0.289869,-0.100277 -0.282204,-0.119821 -0.273209,-0.139085 -0.262793,-0.15771 -0.251212,-0.175651 -0.238303,-0.192844 -0.224237,-0.209013 -0.209141,-0.224102 -0.192972,-0.238173 -0.175929,-0.251078 -0.157966,-0.26266 -0.139192,-0.273077 -0.0638,-0.142973 -0.01004,-0.02589 -0.0077,-0.02621 -0.0064,-0.02589 -0.0043,-0.02721 -0.0041,-0.02721 v -0.02721 -0.02721 l 0.0041,-0.02721 0.0053,-0.02721 0.007,-0.02589 0.009,-0.02589 0.01068,-0.02488 0.0126,-0.02488 0.01431,-0.02356 0.01559,-0.02223 0.01687,-0.02093 0.01815,-0.01965 0.01965,-0.01815 0.02093,-0.01687 0.02223,-0.01559 0.02356,-0.01431 0.02488,-0.0126 0.02488,-0.01068 0.02589,-0.009 0.01816,-0.0049 0.144425,-0.04167 0.141157,-0.05209 0.13727,-0.06252 0.13255,-0.07164 0.127616,-0.08073 0.121102,-0.08855 0.114608,-0.09769 0.108095,-0.105489 0.100277,-0.111982 0.09248,-0.118496 0.08334,-0.125031 0.07422,-0.130734 0.0651,-0.13569 0.056,-0.139854 0.0456,-0.143379 0.03518,-0.14624 0.01196,-0.0625 0.24275,-1.377029 0.0056,-0.02734 0.0073,-0.02605 0.0092,-0.02605 0.01089,-0.02475 0.01303,-0.02475 0.01431,-0.02343 0.01559,-0.02213 0.01815,-0.02085 0.01816,-0.01954 0.02093,-0.01822 0.02223,-0.01692 0.02223,-0.01563 0.02356,-0.01433 0.02488,-0.01198 0.02589,-0.01019 0.02589,-0.0084 0.02621,-0.0066 0.02721,-0.0048 0.05468,-0.0039 h 3.120887 l 0.02721,0.001 0.02721,0.0028 0.02721,0.0047 0.02589,0.0066 0.02621,0.0084 0.02589,0.01019 0.02488,0.01198 0.02356,0.01433 0.02223,0.01563 0.02223,0.01692 0.02093,0.01822 0.01816,0.01954 0.01816,0.02085 0.01559,0.02213 0.01431,0.02343 0.01303,0.02475 0.01089,0.02475 0.0094,0.02605 0.01303,0.05339 0.24275,1.377029 0.03118,0.147287 0.04167,0.144682 0.05209,0.141413 0.06121,0.137526 0.07031,0.132956 0.07943,0.127616 0.08855,0.122404 0.09635,0.115891 0.104186,0.108073 0.111982,0.100277 0.118496,0.09248 0.125032,0.08464 0.130371,0.07552 0.135305,0.06642 0.139598,0.056 0.143101,0.04688 0.05989,0.01559 0.02621,0.0077 0.02589,0.0096 0.02488,0.01132 0.02488,0.01303 0.02356,0.01431 0.02223,0.01559 0.02093,0.01816 0.01965,0.01965 0.01816,0.02093 0.01687,0.02223 0.01559,0.02356 0.01303,0.02356 0.01196,0.02488 0.01025,0.02589 0.0083,0.02621 0.0064,0.02589 0.0049,0.02721 0.0041,0.02721 v 0.02721 0.02721 l -0.0041,0.02721 -0.0053,0.02721 -0.0066,0.02589 -0.0085,0.02589 -0.0066,0.01687 v 0 m 23.846107,-3.556989 v -0.01692 -0.01692 l 0.0041,-0.01692 0.0043,-0.01692 0.0056,-0.01563 0.0064,-0.01563 0.0073,-0.01563 0.0085,-0.01433 0.0094,-0.01433 0.01068,-0.01301 0.01132,-0.01277 0.01217,-0.01181 0.01303,-0.01102 0.01431,-0.01006 0.01431,-0.0091 0.01559,-0.0081 0.01559,-0.007 0.01559,-0.0058 0.01687,-0.0047 0.01687,-0.0035 0.01687,-0.0024 0.01687,-0.0012 h 0.01687 l 0.01687,0.0012 0.01687,0.0024 0.01687,0.0035 0.01687,0.0047 0.01559,0.0058 0.01559,0.007 0.01431,0.0081 0.01431,0.0091 0.01431,0.01006 0.01303,0.01102 0.01217,0.01181 0.01132,0.01277 0.01068,0.01301 0.0094,0.01433 0.0085,0.01433 0.0073,0.01563 0.0064,0.01563 0.0056,0.01563 0.0043,0.01692 0.0041,0.01692 0.0041,0.03386 v 0.88227 0.01687 0.01687 l -0.0041,0.01687 -0.0043,0.01687 -0.0056,0.01559 -0.0064,0.01559 -0.0073,0.01559 -0.0085,0.01431 -0.0094,0.01431 -0.01068,0.01303 -0.01132,0.0126 -0.01217,0.01175 -0.01303,0.01111 -0.01431,0.01004 -0.01431,0.009 -0.01431,0.0081 -0.01559,0.007 -0.01559,0.0058 -0.01687,0.0047 -0.01687,0.0036 -0.01687,0.0023 -0.01687,0.0012 h -0.01687 l -0.01687,-0.0012 -0.01687,-0.0023 -0.01687,-0.0036 -0.01687,-0.0047 -0.01559,-0.0058 -0.01559,-0.007 -0.01559,-0.0081 -0.01431,-0.009 -0.01431,-0.01004 -0.01303,-0.01111 -0.01217,-0.01175 -0.01132,-0.0126 -0.01068,-0.01303 -0.0092,-0.01431 -0.0085,-0.01431 -0.0073,-0.01559 -0.0064,-0.01559 -0.0056,-0.01559 -0.0043,-0.01687 -0.0041,-0.01687 -0.0041,-0.03385 v -0.882268 0 m -38.525367,0 v 0.882268 0.01687 0.01687 l -0.0041,0.01687 -0.0043,0.01687 -0.0056,0.01559 -0.0064,0.01559 -0.0073,0.01559 -0.0085,0.01431 -0.0092,0.01431 -0.01068,0.01303 -0.01132,0.0126 -0.01217,0.01175 -0.01303,0.01111 -0.01431,0.01004 -0.01431,0.009 -0.01431,0.0081 -0.01559,0.007 -0.01559,0.0058 -0.01687,0.0047 -0.01687,0.0036 -0.01687,0.0023 -0.01687,0.0012 h -0.01687 l -0.01687,-0.0012 -0.01687,-0.0023 -0.01687,-0.0036 -0.01687,-0.0047 -0.01559,-0.0058 -0.01559,-0.007 -0.01559,-0.0081 -0.01431,-0.009 -0.01431,-0.01004 -0.01303,-0.01111 -0.01217,-0.01175 -0.01132,-0.0126 -0.01068,-0.01303 -0.0092,-0.01431 -0.0085,-0.01431 -0.0073,-0.01559 -0.0064,-0.01559 -0.0056,-0.01559 -0.0043,-0.01687 -0.0041,-0.01687 -0.0041,-0.03385 v -0.882268 -0.01692 -0.01692 l 0.0041,-0.01692 0.0043,-0.01692 0.0056,-0.01563 0.0064,-0.01563 0.0073,-0.01563 0.0085,-0.01433 0.0092,-0.01433 0.01068,-0.01301 0.01132,-0.01277 0.01217,-0.01181 0.01303,-0.01102 0.01431,-0.01002 0.01431,-0.0091 0.01559,-0.0081 0.01559,-0.007 0.01559,-0.0058 0.01687,-0.0047 0.01687,-0.0035 0.01687,-0.0024 0.01687,-0.0012 h 0.01687 l 0.01687,0.0012 0.01687,0.0024 0.01687,0.0035 0.01687,0.0047 0.01559,0.0058 0.01559,0.007 0.01431,0.0081 0.01431,0.0091 0.01431,0.01002 0.01303,0.01102 0.01217,0.01181 0.01132,0.01277 0.01068,0.01301 0.0092,0.01433 0.0085,0.01433 0.0073,0.01563 0.0064,0.01563 0.0056,0.01563 0.0043,0.01692 0.0041,0.01692 0.0041,0.03386 v 0"
     stroke="#000000"
     stroke-width="0"
     stroke-opacity="1"
     fill="#000000"
     fill-rule="evenodd"
     fill-opacity="1"
     id="compens"
     style="fill:#4c3b3b;fill-opacity:1" />
  <path
     d="m 34.107759,18.942952 v -8.27365 0 l 0.0041,-0.02213 0.009,-0.01954 0.01431,-0.01692 0.01815,-0.01215 0.02093,-0.0068 0.01431,-0.0012 v 0 h 0.627418 v 0 l 0.02223,0.0031 0.01965,0.0089 0.01687,0.01433 0.01217,0.01822 0.0066,0.02085 v 0.01301 0 1.686104 0 h 0.392107 v 0 l 0.05468,0.0076 0.04947,0.02213 0.04167,0.03516 0.02986,0.04558 0.01687,0.05209 0.0041,0.03386 v 0 0.313711 0 l -0.0041,0.02213 -0.009,0.01954 -0.01431,0.01692 -0.01816,0.01215 -0.02093,0.0068 -0.01431,0.0012 v 0 h -0.431299 v 0 l -0.02223,0.0031 -0.01965,0.0089 -0.01687,0.01433 -0.01217,0.01822 -0.0066,0.02085 v 0.01301 0 1.803723 0 l 0.0041,0.02213 0.009,0.01944 0.01431,0.01687 0.01816,0.01217 0.02093,0.0066 0.01431,0.0012 v 0 h 2.784013 v 0 l 0.02223,-0.003 0.01965,-0.009 0.01687,-0.01431 0.01217,-0.01816 0.0066,-0.02093 v -0.01303 0 -1.803722 0 l -0.0041,-0.02213 -0.009,-0.01954 -0.01431,-0.01692 -0.01815,-0.01215 -0.02093,-0.0068 -0.01431,-0.0012 v 0 h -0.4313 v 0 l -0.02223,-0.0031 -0.01965,-0.0089 -0.01687,-0.01433 -0.01217,-0.01822 -0.0066,-0.02084 v -0.01301 0 -0.313711 0 l 0.0073,-0.05469 0.02223,-0.04949 0.03518,-0.04167 0.0456,-0.02996 0.05209,-0.01692 0.03385,-0.0031 v 0 h 0.901934 v 0 l 0.02223,0.0031 0.01965,0.0089 0.01687,0.01433 0.01217,0.01822 0.0066,0.02085 v 0.01301 0 2.391907 0 l 0.0041,0.02213 0.009,0.01944 0.01431,0.01687 0.01816,0.01217 0.02093,0.0066 0.01431,0.0012 v 0 h 1.215513 v 0 l 0.02223,0.003 0.01965,0.009 0.01687,0.01431 0.01217,0.01815 0.0066,0.02093 v 0.01303 0 0.313724 0 0.313726 0 l -0.0041,0.02223 -0.009,0.01965 -0.01431,0.01687 -0.01815,0.01217 -0.02093,0.0066 -0.01431,0.0011 v 0 h -1.215976 v 0 l -0.02223,0.003 -0.01965,0.009 -0.01687,0.01431 -0.01217,0.01815 -0.0066,0.02093 v 0.01303 0 2.391906 0 l -0.0041,0.02223 -0.009,0.01965 -0.01431,0.01687 -0.01815,0.01217 -0.02093,0.0066 -0.01431,0.0011 v 0 h -0.901801 v 0 l -0.0534,-0.0077 -0.04947,-0.02223 -0.04167,-0.03518 -0.02986,-0.0456 -0.01687,-0.05209 -0.0041,-0.03385 v 0 -0.313726 0 l 0.0041,-0.02223 0.009,-0.01965 0.01431,-0.01687 0.01816,-0.01217 0.02093,-0.0066 0.01431,-0.0011 v 0 h 0.431306 v 0 l 0.02223,-0.003 0.01965,-0.009 0.01687,-0.01431 0.01217,-0.01815 0.0066,-0.02093 v -0.01303 0 -1.803721 0 l -0.0041,-0.02223 -0.009,-0.01965 -0.01431,-0.01687 -0.01815,-0.01217 -0.02093,-0.0066 -0.01431,-0.0012 v 0 H 34.96728 v 0 l -0.02223,0.003 -0.01965,0.009 -0.01687,0.01431 -0.01217,0.01815 -0.0066,0.02093 v 0.01303 0 1.803734 0 l 0.0041,0.02223 0.009,0.01965 0.01431,0.01687 0.01816,0.01217 0.02093,0.0066 0.01431,0.0011 v 0 h 0.431304 v 0 l 0.02223,0.003 0.01965,0.009 0.01687,0.01431 0.01217,0.01815 0.0066,0.02093 v 0.01303 0 0.313724 0 l -0.0073,0.0534 -0.02223,0.04947 -0.03518,0.04167 -0.0456,0.02986 -0.05209,0.01687 -0.03385,0.003 v 0 h -0.313726 v 0 l -0.02223,0.003 -0.01965,0.009 -0.01687,0.01431 -0.01217,0.01816 -0.0066,0.02093 v 0.01303 0 1.607681 0 l -0.0041,0.02223 -0.009,0.01965 -0.01431,0.01687 -0.01815,0.01217 -0.02093,0.0066 -0.01431,0.0012 v 0 h -0.705815 v 0 l -0.02223,0.003 -0.01965,0.009 -0.01687,0.01431 -0.0043,0.0056 v 0 l -0.07031,0.09376 v 0 l -0.01559,0.01559 -0.01965,0.01068 -0.02093,0.0049 -0.02223,-0.0012 -0.02093,-0.007 -0.01815,-0.0126 -0.0092,-0.01025 v 0 l -0.07031,-0.09376 v 0 l -0.01559,-0.01559 -0.01965,-0.01068 -0.02093,-0.0049 h -0.007 v 0 l -0.02223,0.003 -0.01965,0.009 -0.01687,0.01431 -0.0043,0.0056 v 0 l -0.07031,0.09376 v 0 l -0.01559,0.01559 -0.01965,0.01068 -0.02093,0.0049 -0.02223,-0.0012 -0.02093,-0.007 -0.01816,-0.0126 -0.0094,-0.01025 v 0 l -0.07031,-0.09376 v 0 l -0.01559,-0.01559 -0.01965,-0.01068 -0.02093,-0.0049 h -0.007 v 0 l -0.02223,0.003 -0.01965,0.009 -0.01687,0.01431 -0.0043,0.0056 v 0 l -0.07031,0.09376 v 0 l -0.01559,0.01559 -0.01965,0.01068 -0.02093,0.0049 -0.02223,-0.0011 -0.02093,-0.007 -0.01816,-0.0126 -0.0092,-0.01025 v 0 l -0.07031,-0.09376 v 0 l -0.01559,-0.01559 -0.01965,-0.01068 -0.02093,-0.0049 h -0.007 v 0 l -0.02223,0.003 -0.01965,0.009 -0.01687,0.01431 -0.0043,0.0056 v 0 l -0.07031,0.09376 v 0 l -0.01559,0.01559 -0.01965,0.01068 -0.02093,0.0049 -0.02223,-0.0011 -0.02093,-0.007 -0.01816,-0.0126 -0.0092,-0.01025 v 0 l -0.07031,-0.09376 v 0 l -0.01559,-0.01559 -0.01965,-0.01068 -0.02093,-0.0049 h -0.007 v 0 l -0.02223,0.003 -0.01965,0.009 -0.01687,0.01431 -0.0043,0.0056 v 0 l -0.07031,0.09376 v 0 l -0.01559,0.01559 -0.01965,0.01068 -0.02093,0.0049 -0.02223,-0.0012 -0.02093,-0.007 -0.01816,-0.0126 -0.0092,-0.01025 v 0 l -0.07031,-0.09376 v 0 l -0.01559,-0.01559 -0.01965,-0.01068 -0.02093,-0.0049 h -0.007 v 0 l -0.02223,0.003 -0.01965,0.009 -0.01687,0.01431 -0.0043,0.0056 v 0 l -0.07031,0.09376 v 0 l -0.01559,0.01559 -0.01965,0.01068 -0.02093,0.0049 -0.02223,-0.0012 -0.02093,-0.007 -0.01816,-0.0126 -0.0092,-0.01025 v 0 l -0.07031,-0.09376 v 0 l -0.01559,-0.01559 -0.01965,-0.01068 -0.02093,-0.0049 h -0.007 v 0 l -0.02223,0.003 -0.01965,0.009 -0.01687,0.01431 -0.0043,0.0056 v 0 l -0.07031,0.09376 v 0 l -0.01559,0.01559 -0.01965,0.01068 -0.02093,0.0049 -0.02223,-0.0012 -0.02093,-0.007 -0.01816,-0.0126 -0.0092,-0.01025 v 0 l -0.07031,-0.09376 v 0 l -0.01559,-0.01559 -0.01965,-0.01068 -0.02093,-0.0049 h -0.007 v 0 l -0.02223,0.003 -0.01965,0.009 -0.01687,0.01431 -0.0043,0.0056 v 0 l -0.07031,0.09376 v 0 l -0.01559,0.01559 -0.01965,0.01068 -0.02093,0.0049 -0.02223,-0.0012 -0.02093,-0.007 -0.01816,-0.0126 -0.0092,-0.01025 v 0 l -0.07031,-0.09376 v 0 l -0.01559,-0.01559 -0.01965,-0.01068 -0.02093,-0.0049 h -0.007 v 0 l -0.02223,0.003 -0.01965,0.009 -0.01687,0.01431 -0.0043,0.0056 v 0 l -0.07031,0.09376 v 0 l -0.01559,0.01559 -0.01965,0.01068 -0.02093,0.0049 -0.02223,-0.0012 -0.02093,-0.007 -0.01816,-0.0126 -0.0092,-0.01025 v 0 l -0.07031,-0.09376 v 0 l -0.01559,-0.01559 -0.01965,-0.01068 -0.02093,-0.0049 h -0.007 v 0 l -0.02223,0.003 -0.01965,0.009 -0.01687,0.01431 -0.0043,0.0056 v 0 l -0.07031,0.09376 v 0 l -0.01559,0.01559 -0.01965,0.01068 -0.02093,0.0049 -0.02223,-0.0012 -0.02093,-0.007 -0.01816,-0.0126 -0.0094,-0.01025 v 0 l -0.07031,-0.09376 v 0 l -0.01559,-0.01559 -0.01965,-0.01068 -0.02093,-0.0049 h -0.007 v 0 l -0.02223,0.003 -0.01965,0.009 -0.01687,0.01431 -0.0043,0.0053 v 0 l -0.07031,0.09376 v 0 l -0.01559,0.01559 -0.01965,0.01068 -0.02093,0.0049 -0.02223,-0.0012 -0.02093,-0.007 -0.01816,-0.0126 -0.0092,-0.01068 v 0 l -0.07031,-0.09376 v 0 l -0.01559,-0.01559 -0.01965,-0.01068 -0.02093,-0.0049 h -0.007 v 0 l -0.02223,0.003 -0.01965,0.009 -0.01687,0.01431 -0.0043,0.0056 v 0 l -0.07031,0.09376 v 0 l -0.01559,0.01559 -0.01965,0.01068 -0.02093,0.0049 -0.02223,-0.0012 -0.02093,-0.007 -0.01815,-0.0126 -0.0092,-0.01025 v 0 l -0.07031,-0.09376 v 0 l -0.01559,-0.01559 -0.01965,-0.01068 -0.02093,-0.0049 h -0.007 v 0 l -0.02223,0.003 -0.01965,0.009 -0.01687,0.01431 -0.0043,0.0056 v 0 l -0.07031,0.09376 v 0 l -0.01559,0.01559 -0.01965,0.01068 -0.02093,0.0049 -0.02223,-0.0012 -0.02093,-0.007 -0.01816,-0.0126 -0.0094,-0.01025 v 0 l -0.07031,-0.09376 v 0 l -0.01559,-0.01559 -0.01965,-0.01068 -0.02093,-0.0049 h -0.007 v 0 l -0.02223,0.003 -0.01965,0.009 -0.01687,0.01431 -0.0043,0.0056 v 0 l -0.07031,0.09376 v 0 l -0.01559,0.01559 -0.01965,0.01068 -0.02093,0.0049 -0.02223,-0.0011 -0.02093,-0.007 -0.01816,-0.0126 -0.0092,-0.01025 v 0 l -0.07031,-0.09376 v 0 l -0.01559,-0.01559 -0.01965,-0.01068 -0.02093,-0.0049 h -0.007 v 0 l -0.02223,0.003 -0.01965,0.009 -0.01687,0.01431 -0.0043,0.0056 v 0 l -0.07031,0.09376 v 0 l -0.01559,0.01559 -0.01965,0.01068 -0.02093,0.0049 -0.02223,-0.0012 -0.02093,-0.007 -0.01815,-0.0126 -0.0092,-0.01025 v 0 l -0.06559,-0.09427 v 0 l -0.01559,-0.01559 -0.01965,-0.01068 -0.02093,-0.0049 h -0.007 v 0 l -0.02223,0.003 -0.01965,0.009 -0.01687,0.01431 -0.0043,0.0056 v 0 l -0.07031,0.09376 v 0 l -0.01559,0.01559 -0.01965,0.01068 -0.02093,0.0049 -0.02223,-0.0012 -0.02093,-0.007 -0.01815,-0.0126 -0.0092,-0.01025 v 0 l -0.07031,-0.09376 v 0 l -0.01559,-0.01559 -0.01965,-0.01068 -0.02093,-0.0049 h -0.007 v 0 l -0.02223,0.003 -0.01965,0.009 -0.01687,0.01431 -0.0043,0.0056 v 0 l -0.07031,0.09376 v 0 l -0.01559,0.01559 -0.01965,0.01068 -0.02093,0.0049 -0.02223,-0.0011 -0.02093,-0.007 -0.01816,-0.0126 -0.0092,-0.01025 v 0 l -0.07031,-0.09376 v 0 l -0.01559,-0.01559 -0.01965,-0.01068 -0.02093,-0.0049 h -0.007 v 0 l -0.02223,0.003 -0.01965,0.009 -0.01687,0.01431 -0.0043,0.0056 v 0 l -0.07031,0.09376 v 0 l -0.01559,0.01559 -0.01965,0.01068 -0.02093,0.0049 -0.02223,-0.0012 -0.02093,-0.007 -0.01815,-0.0126 -0.0094,-0.01025 v 0 l -0.07031,-0.09376 v 0 l -0.01559,-0.01559 -0.01965,-0.01068 -0.02093,-0.0049 h -0.007 v 0 l -0.02223,0.003 -0.01965,0.009 -0.01687,0.01431 -0.0043,0.0056 v 0 l -0.07031,0.09376 v 0 l -0.01559,0.01559 -0.01965,0.01068 -0.02093,0.0049 -0.02223,-0.0012 -0.02093,-0.007 -0.01816,-0.0126 -0.0092,-0.01025 v 0 l -0.07031,-0.09376 v 0 l -0.01559,-0.01559 -0.01965,-0.01068 -0.02093,-0.0049 h -0.007 v 0 l -0.02223,0.003 -0.01965,0.009 -0.01687,0.01431 -0.0043,0.0056 v 0 l -0.07031,0.09376 v 0 l -0.01559,0.01559 -0.01965,0.01068 -0.02093,0.0049 -0.02223,-0.0012 -0.02093,-0.007 -0.01815,-0.0126 -0.0092,-0.01025 v 0 l -0.07031,-0.09376 v 0 l -0.01559,-0.01559 -0.01965,-0.01068 -0.02093,-0.0049 h -0.007 v 0 l -0.02223,0.003 -0.01965,0.009 -0.01687,0.01431 -0.0043,0.0056 v 0 l -0.07031,0.09376 v 0 l -0.01559,0.01559 -0.01965,0.01068 -0.02093,0.0049 -0.02223,-0.0012 -0.02093,-0.007 -0.01816,-0.0126 -0.0094,-0.01025 v 0 l -0.07031,-0.09376 v 0 l -0.01559,-0.01559 -0.01965,-0.01068 -0.02093,-0.0049 h -0.007 v 0 l -0.02223,0.003 -0.01965,0.009 -0.01687,0.01431 -0.0043,0.0056 v 0 l -0.07031,0.09376 v 0 l -0.01559,0.01559 -0.01965,0.01068 -0.02093,0.0049 -0.02223,-0.0011 -0.02093,-0.007 -0.01816,-0.0126 -0.0094,-0.01025 v 0 l -0.07031,-0.09376 v 0 l -0.01559,-0.01559 -0.01965,-0.01068 -0.02093,-0.0049 h -0.01089 v 0 l -0.02223,0.003 -0.01965,0.009 -0.01687,0.01431 -0.0043,0.0056 v 0 l -0.07031,0.09376 v 0 l -0.01559,0.01559 -0.01965,0.01068 -0.02093,0.0049 -0.02223,-0.0012 -0.02093,-0.007 -0.01815,-0.0126 -0.0092,-0.01068 v 0 l -0.07031,-0.09376 v 0 l -0.01559,-0.01559 -0.01965,-0.01068 -0.02093,-0.0049 h -0.007 v 0 l -0.02223,0.003 -0.01965,0.009 -0.01687,0.01431 -0.0043,0.0056 v 0 l -0.07031,0.09376 v 0 l -0.01559,0.01559 -0.01965,0.01068 -0.02093,0.0049 -0.02223,-0.0011 -0.02093,-0.007 -0.01816,-0.0126 -0.0092,-0.01025 v 0 l -0.07031,-0.09376 v 0 l -0.01559,-0.01559 -0.01965,-0.01068 -0.02093,-0.0049 h -0.007 v 0 l -0.02223,0.003 -0.01965,0.009 -0.01687,0.01431 -0.0043,0.0056 v 0 l -0.07031,0.09376 v 0 l -0.01559,0.01559 -0.01965,0.01068 -0.02093,0.0049 -0.02223,-0.0012 -0.02093,-0.007 -0.01815,-0.0126 -0.0092,-0.01025 v 0 l -0.07031,-0.09376 v 0 l -0.01559,-0.01559 -0.01965,-0.01068 -0.02093,-0.0049 h -0.007 v 0 l -0.02223,0.003 -0.01965,0.009 -0.01687,0.01431 -0.0043,0.0056 v 0 l -0.07031,0.09376 v 0 l -0.01559,0.01559 -0.01965,0.01068 -0.02093,0.0049 -0.02223,-0.0012 -0.02093,-0.007 -0.01816,-0.0126 -0.0092,-0.01025 v 0 l -0.07031,-0.09376 v 0 l -0.01559,-0.01559 -0.01965,-0.01068 -0.02093,-0.0049 h -0.007 v 0 l -0.02223,0.003 -0.01965,0.009 -0.01687,0.01431 -0.0043,0.0056 v 0 l -0.07031,0.09376 v 0 l -0.01559,0.01559 -0.01965,0.01068 -0.02093,0.0049 -0.02223,-0.0011 -0.02093,-0.007 -0.01815,-0.0126 -0.0094,-0.01025 v 0 l -0.07031,-0.09376 v 0 l -0.01559,-0.01559 -0.01965,-0.01068 -0.02093,-0.0049 h -0.007 v 0 l -0.02223,0.003 -0.01965,0.009 -0.01687,0.01431 -0.0043,0.0053 v 0 l -0.07031,0.09376 v 0 l -0.01559,0.01559 -0.01965,0.01068 -0.02093,0.0049 -0.02223,-0.0012 -0.02093,-0.007 -0.01815,-0.0126 -0.0094,-0.01025 v 0 l -0.07031,-0.09376 v 0 l -0.01559,-0.01559 -0.01965,-0.01068 -0.02093,-0.0049 h -0.007 v 0 l -0.02223,0.003 -0.01965,0.009 -0.01687,0.01431 -0.0043,0.0056 v 0 l -0.07031,0.09376 v 0 l -0.01559,0.01559 -0.01965,0.01068 -0.02093,0.0049 -0.02223,-0.0011 -0.02093,-0.007 -0.01815,-0.0126 -0.0092,-0.01025 v 0 l -0.07031,-0.09376 v 0 l -0.01559,-0.01559 -0.01965,-0.01068 -0.02093,-0.0049 h -0.007 v 0 l -0.02223,0.003 -0.01965,0.009 -0.01687,0.01431 -0.0043,0.0056 v 0 l -0.07031,0.09376 v 0 l -0.01559,0.01559 -0.01965,0.01068 -0.02093,0.0049 -0.02223,-0.0011 -0.02093,-0.007 -0.01816,-0.0126 -0.0094,-0.01025 v 0 l -0.07031,-0.09376 v 0 l -0.01559,-0.01559 -0.01965,-0.01068 -0.02093,-0.0049 h -0.007 v 0 l -0.02223,0.003 -0.01965,0.009 -0.01687,0.01431 -0.0043,0.0056 v 0 l -0.07031,0.09376 v 0 l -0.01559,0.01559 -0.01965,0.01068 -0.02093,0.0049 -0.02223,-0.0011 -0.02093,-0.007 -0.01816,-0.0126 -0.0094,-0.01025 v 0 l -0.07031,-0.09376 v 0 l -0.01559,-0.01559 -0.01965,-0.01068 -0.02093,-0.0049 h -0.007 v 0 l -0.02223,0.003 -0.01965,0.009 -0.01687,0.01431 -0.0043,0.0056 v 0 l -0.07031,0.09376 v 0 l -0.01559,0.01559 -0.01965,0.01068 -0.02093,0.0049 -0.02223,-0.0012 -0.02093,-0.007 -0.01816,-0.0126 -0.0094,-0.01025 v 0 l -0.07031,-0.09376 v 0 l -0.01559,-0.01559 -0.01965,-0.01068 -0.02093,-0.0049 h -0.007 v 0 l -0.02223,0.003 -0.01965,0.009 -0.01687,0.01431 -0.0043,0.0056 v 0 l -0.07031,0.09376 v 0 l -0.01559,0.01559 -0.01965,0.01068 -0.02093,0.0049 -0.02223,-0.0012 -0.02093,-0.007 -0.01816,-0.0126 -0.0092,-0.01025 v 0 l -0.07031,-0.09376 v 0 l -0.01559,-0.01559 -0.01965,-0.01068 -0.02093,-0.0049 h -0.007 v 0 l -0.02223,0.003 -0.01965,0.009 -0.01687,0.01431 -0.0043,0.0053 v 0 l -0.07031,0.09376 v 0 l -0.01559,0.01559 -0.01965,0.01068 -0.02093,0.0049 -0.02223,-0.0012 -0.02093,-0.007 -0.01816,-0.0126 -0.0094,-0.01025 v 0 l -0.07031,-0.09376 v 0 l -0.01559,-0.01559 -0.01965,-0.01068 -0.02093,-0.0049 h -0.007 v 0 l -0.02223,0.003 -0.01965,0.009 -0.01687,0.01431 -0.0043,0.0056 v 0 l -0.07031,0.09376 v 0 l -0.01559,0.01559 -0.01965,0.01068 -0.02093,0.0049 -0.02223,-0.0011 -0.02093,-0.007 -0.01816,-0.0126 -0.0092,-0.01025 v 0 l -0.07031,-0.09376 v 0 l -0.01559,-0.01559 -0.01965,-0.01068 -0.02093,-0.0049 h -0.007 v 0 l -0.02223,0.003 -0.01965,0.009 -0.01687,0.01431 -0.0043,0.0056 v 0 l -0.07031,0.09376 v 0 l -0.01559,0.01559 -0.01965,0.01068 -0.02093,0.0049 -0.02223,-0.0012 -0.02093,-0.007 -0.01815,-0.0126 -0.0094,-0.01025 v 0 l -0.07031,-0.09376 v 0 l -0.01559,-0.01559 -0.01965,-0.01068 -0.02093,-0.0049 h -0.007 v 0 l -0.02223,0.003 -0.01965,0.009 -0.01687,0.01431 -0.0043,0.0056 v 0 l -0.07031,0.09376 v 0 l -0.01559,0.01559 -0.01965,0.01068 -0.02093,0.0049 -0.02223,-0.0012 -0.02093,-0.007 -0.01815,-0.0126 -0.0094,-0.01025 v 0 l -0.07031,-0.09376 v 0 l -0.01559,-0.01559 -0.01965,-0.01068 -0.02093,-0.0049 h -0.007 v 0 l -0.02223,0.003 -0.01965,0.009 -0.01687,0.01431 -0.0043,0.0056 v 0 l -0.07031,0.09376 v 0 l -0.01559,0.01559 -0.01965,0.01068 -0.02093,0.0049 -0.02223,-0.0011 -0.02093,-0.007 -0.01815,-0.0126 -0.0094,-0.01025 v 0 l -0.07031,-0.09376 v 0 l -0.01559,-0.01559 -0.01965,-0.01068 -0.02093,-0.0049 h -0.007 v 0 l -0.02223,0.003 -0.01965,0.009 -0.01687,0.01431 -0.0043,0.0056 v 0 l -0.07031,0.09376 v 0 l -0.01559,0.01559 -0.01965,0.01068 -0.02093,0.0049 -0.02223,-0.0012 -0.02093,-0.007 -0.01815,-0.0126 -0.0094,-0.01025 v 0 l -0.07031,-0.09376 v 0 l -0.01559,-0.01559 -0.01965,-0.01068 -0.02093,-0.0049 h -0.007 v 0 l -0.02223,0.003 -0.01965,0.009 -0.01687,0.01431 -0.0043,0.0056 v 0 l -0.07031,0.09376 v 0 l -0.01559,0.01559 -0.01965,0.01068 -0.02093,0.0049 -0.02223,-0.0012 -0.02093,-0.007 -0.01815,-0.0126 -0.0092,-0.01025 v 0 l -0.07031,-0.09376 v 0 l -0.01559,-0.01559 -0.01965,-0.01068 -0.02093,-0.0049 h -0.007 v 0 l -0.02223,0.003 -0.01965,0.009 -0.01687,0.01431 -0.0043,0.0056 v 0 l -0.07031,0.09376 v 0 l -0.01559,0.01559 -0.01965,0.01068 -0.02093,0.0049 -0.02223,-0.0011 -0.02093,-0.007 -0.01816,-0.0126 -0.0094,-0.01025 v 0 l -0.07031,-0.09376 v 0 l -0.01559,-0.01559 -0.01965,-0.01068 -0.02093,-0.0049 h -0.007 v 0 l -0.02223,0.003 -0.01965,0.009 -0.01687,0.01431 -0.0043,0.0056 v 0 l -0.07031,0.09376 v 0 l -0.01559,0.01559 -0.01965,0.01068 -0.02093,0.0049 -0.02223,-0.0012 -0.02093,-0.007 -0.01816,-0.0126 -0.0092,-0.01025 v 0 l -0.07031,-0.09376 v 0 l -0.01559,-0.01559 -0.01965,-0.01068 -0.02093,-0.0049 h -0.007 v 0 l -0.02223,0.003 -0.01965,0.009 -0.01687,0.01431 -0.0043,0.0056 v 0 l -0.07031,0.09376 v 0 l -0.01559,0.01559 -0.01965,0.01068 -0.02093,0.0049 -0.02223,-0.0012 -0.02093,-0.007 -0.01815,-0.0126 -0.0092,-0.01025 v 0 l -0.07031,-0.09376 v 0 l -0.01559,-0.01559 -0.01965,-0.01068 -0.02093,-0.0049 h -0.007 v 0 l -0.02223,0.003 -0.01965,0.009 -0.01687,0.01431 -0.0043,0.0056 v 0 l -0.07031,0.09376 v 0 l -0.01559,0.01559 -0.01965,0.01068 -0.02093,0.0049 -0.02223,-0.0011 -0.02093,-0.007 -0.01816,-0.0126 -0.0092,-0.01025 v 0 l -0.07031,-0.09376 v 0 l -0.01559,-0.01559 -0.01965,-0.01068 -0.02093,-0.0049 h -0.007 v 0 l -0.02223,0.003 -0.01965,0.009 -0.01687,0.01431 -0.0043,0.0056 v 0 l -0.07031,0.09376 v 0 l -0.01559,0.01559 -0.01965,0.01068 -0.02093,0.0049 -0.02223,-0.0012 -0.02093,-0.007 -0.01815,-0.0126 -0.0094,-0.01025 v 0 l -0.07031,-0.09376 v 0 l -0.01559,-0.01559 -0.01965,-0.01068 -0.02093,-0.0049 h -0.007 v 0 l -0.02223,0.003 -0.01965,0.009 -0.01687,0.01431 -0.0043,0.0056 v 0 l -0.07031,0.09376 v 0 l -0.01559,0.01559 -0.01965,0.01068 -0.02093,0.0049 -0.02223,-0.0012 -0.02093,-0.007 -0.01816,-0.0126 -0.0092,-0.01025 v 0 l -0.07031,-0.09376 v 0 l -0.01559,-0.01559 -0.01965,-0.01068 -0.02093,-0.0049 h -0.007 v 0 l -0.02223,0.003 -0.01965,0.009 -0.01687,0.01431 -0.0043,0.0056 v 0 l -0.07031,0.09376 v 0 l -0.01559,0.01559 -0.01965,0.01068 -0.02093,0.0049 -0.02223,-0.0011 -0.02093,-0.007 -0.01815,-0.0126 -0.0094,-0.01025 v 0 l -0.07031,-0.09376 v 0 l -0.01559,-0.01559 -0.01965,-0.01068 -0.02093,-0.0049 h -0.007 v 0 l -0.02213,0.003 -0.01944,0.009 -0.01687,0.01431 -0.0043,0.0056 v 0 l -0.07031,0.09376 v 0 l -0.01559,0.01559 -0.01965,0.01068 -0.02093,0.0049 -0.02213,-0.0012 -0.02093,-0.007 -0.01816,-0.0126 -0.0094,-0.01025 v 0 l -0.07031,-0.09376 v 0 l -0.01559,-0.01559 -0.01944,-0.01068 -0.02093,-0.0049 h -0.007 v 0 l -0.02213,0.003 -0.01944,0.009 -0.01687,0.01431 -0.0043,0.0053 v 0 l -0.07031,0.09376 v 0 l -0.01559,0.01559 -0.01944,0.01068 -0.02093,0.0049 -0.02213,-0.0011 -0.02093,-0.007 -0.01816,-0.0126 -0.0094,-0.01025 v 0 l -0.07031,-0.09376 v 0 l -0.01559,-0.01559 -0.01944,-0.01068 -0.02093,-0.0049 h -0.007 v 0 l -0.02213,0.003 -0.01965,0.009 -0.01687,0.01431 -0.0043,0.0056 v 0 l -0.07031,0.09376 v 0 l -0.01559,0.01559 -0.01944,0.01068 -0.02093,0.0049 -0.02213,-0.0012 -0.02093,-0.007 -0.01816,-0.0126 -0.0094,-0.01025 v 0 l -0.07031,-0.09376 v 0 l -0.01559,-0.01559 -0.01944,-0.01068 -0.02093,-0.0049 h -0.007 v 0 l -0.02213,0.003 -0.01965,0.009 -0.01687,0.01431 -0.0043,0.0056 v 0 l -0.07031,0.09376 v 0 l -0.01559,0.01559 -0.01944,0.01068 -0.02093,0.0049 -0.02213,-0.0012 -0.02093,-0.007 -0.01815,-0.0126 -0.0094,-0.01025 v 0 l -0.07031,-0.09376 v 0 l -0.01559,-0.01559 -0.01944,-0.01068 -0.02093,-0.0049 h -0.007 v 0 l -0.02213,0.003 -0.01944,0.009 -0.01687,0.01431 -0.0043,0.0056 v 0 l -0.07031,0.09376 v 0 l -0.01559,0.01559 -0.01944,0.01068 -0.02093,0.0049 -0.02213,-0.0012 -0.02093,-0.007 -0.01822,-0.0126 -0.0094,-0.01025 v 0 l -0.07032,-0.09376 v 0 l -0.01563,-0.01559 -0.01954,-0.01068 -0.02085,-0.0049 h -0.0071 v 0 l -0.02213,0.003 -0.01954,0.009 -0.01692,0.01431 -0.0042,0.0053 v 0 l -0.07032,0.09376 v 0 l -0.01563,0.01559 -0.01954,0.01068 -0.02084,0.0049 -0.02213,-0.0012 -0.02085,-0.007 -0.01822,-0.0126 -0.0094,-0.01025 v 0 l -0.07032,-0.09376 v 0 l -0.01563,-0.01559 -0.01954,-0.01068 -0.02085,-0.0049 h -0.0071 v 0 l -0.02213,0.003 -0.01954,0.009 -0.01692,0.01431 -0.0042,0.0053 v 0 l -0.07032,0.09376 v 0 l -0.01563,0.01559 -0.01954,0.01068 -0.02085,0.0049 -0.02213,-0.0012 -0.02085,-0.007 -0.01822,-0.0126 -0.0094,-0.01025 v 0 l -0.07032,-0.09376 v 0 l -0.01563,-0.01559 -0.01954,-0.01068 -0.02085,-0.0049 h -0.0071 v 0 l -0.02213,0.003 -0.01954,0.009 -0.01692,0.01431 -0.0042,0.0056 v 0 l -0.07032,0.09376 v 0 l -0.01563,0.01559 -0.01954,0.01068 -0.02085,0.0049 -0.02213,-0.0012 -0.02085,-0.007 -0.01822,-0.0126 -0.0094,-0.01025 v 0 l -0.07032,-0.09376 v 0 l -0.01563,-0.01559 -0.01954,-0.01068 -0.02084,-0.0049 h -0.0071 v 0 l -0.02213,0.003 -0.01954,0.009 -0.01692,0.01431 -0.0042,0.0056 v 0 l -0.07032,0.09376 v 0 l -0.01563,0.01559 -0.01954,0.01068 -0.02085,0.0049 -0.02213,-0.0011 -0.02085,-0.007 -0.01822,-0.0126 -0.0094,-0.01025 v 0 l -0.07032,-0.09376 v 0 l -0.01563,-0.01559 -0.01954,-0.01068 -0.02084,-0.0049 h -0.0071 v 0 l -0.02213,0.003 -0.01954,0.009 -0.01692,0.01431 -0.0042,0.0056 v 0 l -0.07032,0.09376 v 0 l -0.01563,0.01559 -0.01954,0.01068 -0.02085,0.0049 -0.02213,-0.0011 -0.02085,-0.007 -0.01822,-0.0126 -0.0094,-0.01025 v 0 l -0.07032,-0.09376 v 0 l -0.01563,-0.01559 -0.01954,-0.01068 -0.02085,-0.0049 h -0.0071 v 0 l -0.02213,0.003 -0.01954,0.009 -0.01692,0.01431 -0.0042,0.0053 v 0 l -0.07032,0.09376 v 0 l -0.01563,0.01559 -0.01954,0.01068 -0.02085,0.0049 -0.02213,-0.0012 -0.02085,-0.007 -0.01822,-0.0126 v -0.001 0 l -0.885631,-0.860873 v 0 l -0.01433,-0.01687 -0.0083,-0.02093 -0.0039,-0.02223 0.0039,-0.02223 0.0094,-0.01965 0.01433,-0.01687 0.01822,-0.01153 0.02085,-0.0064 0.01134,-0.001 v 0 h 23.252461 v 0 l 0.05468,-0.0077 0.04947,-0.02223 0.04167,-0.03518 0.02986,-0.0456 0.01687,-0.05209 0.0041,-0.03385"
     stroke="#c0c0c0"
     stroke-width="0"
     stroke-opacity="1"
     fill="#c0c0c0"
     fill-rule="evenodd"
     fill-opacity="1"
     id="path852" />
  <path
     d="m 77.632593,18.942952 v -8.27365 0 l -0.0041,-0.02213 -0.009,-0.01954 -0.01431,-0.01692 -0.01815,-0.01215 -0.02093,-0.0068 -0.01431,-0.0012 v 0 h -0.627452 v 0 l -0.02223,0.0031 -0.01965,0.0089 -0.01687,0.01433 -0.01217,0.01822 -0.0066,0.02085 v 0.01301 0 1.686104 0 h -0.392107 v 0 l -0.0534,0.0076 -0.04946,0.02213 -0.04167,0.03516 -0.03118,0.04558 -0.01687,0.05209 -0.0041,0.03386 v 0 0.313711 0 l 0.0041,0.02213 0.009,0.01954 0.01431,0.01692 0.01815,0.01215 0.02093,0.0068 0.01431,0.0012 v 0 h 0.431301 v 0 l 0.02223,0.0031 0.01965,0.0089 0.01687,0.01433 0.01217,0.01822 0.0066,0.02085 v 0.01301 0 1.803723 0 l -0.0041,0.02213 -0.009,0.01944 -0.01431,0.01687 -0.01815,0.01217 -0.02093,0.0066 -0.01431,0.0012 v 0 h -2.784024 v 0 l -0.02223,-0.003 -0.01965,-0.009 -0.01687,-0.01431 -0.01217,-0.01816 -0.0066,-0.02093 v -0.01303 0 -1.803722 0 l 0.0041,-0.02213 0.009,-0.01954 0.01431,-0.01692 0.01815,-0.01215 0.02093,-0.0068 0.01431,-0.0012 v 0 h 0.431305 v 0 l 0.02223,-0.0031 0.01965,-0.0089 0.01687,-0.01433 0.01217,-0.01822 0.0066,-0.02084 v -0.01301 0 -0.313711 0 l -0.0073,-0.05469 -0.02223,-0.04949 -0.03518,-0.04167 -0.04558,-0.02996 -0.05209,-0.01692 -0.03385,-0.0031 v 0 h -0.9018 v 0 l -0.02223,0.0031 -0.01965,0.0089 -0.01687,0.01433 -0.01217,0.01822 -0.0066,0.02085 v 0.01301 0 2.391907 0 l -0.0041,0.02213 -0.009,0.01944 -0.01431,0.01687 -0.01815,0.01217 -0.02093,0.0066 -0.01431,0.0012 v 0 h -1.215513 v 0 l -0.02223,0.003 -0.01965,0.009 -0.01687,0.01431 -0.01217,0.01815 -0.0066,0.02093 v 0.01303 0 0.313724 0 0.313726 0 l 0.0041,0.02223 0.009,0.01965 0.01431,0.01687 0.01816,0.01217 0.02093,0.0066 0.01431,0.0011 v 0 h 1.215511 v 0 l 0.02223,0.003 0.01965,0.009 0.01687,0.01431 0.01217,0.01815 0.0066,0.02093 v 0.01303 0 2.391906 0 l 0.0041,0.02223 0.009,0.01965 0.01431,0.01687 0.01815,0.01217 0.02093,0.0066 0.01431,0.0011 v 0 h 0.90193 v 0 l 0.05468,-0.0077 0.04947,-0.02223 0.04167,-0.03518 0.03118,-0.0456 0.01687,-0.05209 0.0041,-0.03385 v 0 -0.313726 0 l -0.0041,-0.02223 -0.009,-0.01965 -0.01431,-0.01687 -0.01815,-0.01217 -0.02093,-0.0066 -0.01431,-0.0011 v 0 h -0.4313 v 0 l -0.02223,-0.003 -0.01965,-0.009 -0.01687,-0.01431 -0.01217,-0.01815 -0.0066,-0.02093 v -0.01303 0 -1.803721 0 l 0.0041,-0.02223 0.009,-0.01965 0.01431,-0.01687 0.01815,-0.01217 0.02093,-0.0066 0.01431,-0.0012 v 0 h 2.784023 v 0 l 0.02223,0.003 0.01965,0.009 0.01687,0.01431 0.01217,0.01815 0.0066,0.02093 v 0.01303 0 1.803734 0 l -0.0041,0.02223 -0.009,0.01965 -0.01431,0.01687 -0.01816,0.01217 -0.02093,0.0066 -0.01431,0.0011 v 0 H 76.34059 v 0 l -0.02223,0.003 -0.01965,0.009 -0.01687,0.01431 -0.01217,0.01815 -0.0066,0.02093 v 0.01303 0 0.313724 0 l 0.0073,0.0534 0.02223,0.04947 0.03518,0.04167 0.0456,0.02986 0.05209,0.01687 0.03385,0.003 v 0 h 0.313724 v 0 l 0.02223,0.003 0.01965,0.009 0.01687,0.01431 0.01217,0.01816 0.0066,0.02093 v 0.01303 0 1.607681 0 l 0.0041,0.02223 0.009,0.01965 0.01431,0.01687 0.01816,0.01217 0.02093,0.0066 0.01431,0.0012 v 0 h 0.705814 v 0 l 0.02223,0.003 0.01965,0.009 0.01687,0.01431 0.0043,0.0056 v 0 l 0.07031,0.09376 v 0 l 0.01559,0.01559 0.01965,0.01068 0.02093,0.0049 0.02223,-0.0012 0.02093,-0.007 0.01815,-0.0126 0.0092,-0.01025 v 0 l 0.07031,-0.09376 v 0 l 0.01559,-0.01559 0.01965,-0.01068 0.02093,-0.0049 h 0.007 v 0 l 0.02223,0.003 0.01965,0.009 0.01687,0.01431 0.0043,0.0056 v 0 l 0.07031,0.09376 v 0 l 0.01559,0.01559 0.01965,0.01068 0.02093,0.0049 0.02223,-0.0012 0.02093,-0.007 0.01815,-0.0126 0.0094,-0.01025 v 0 l 0.07031,-0.09376 v 0 l 0.01559,-0.01559 0.01965,-0.01068 0.02093,-0.0049 h 0.007 v 0 l 0.02223,0.003 0.01965,0.009 0.01687,0.01431 0.0043,0.0056 v 0 l 0.07031,0.09376 v 0 l 0.01559,0.01559 0.01965,0.01068 0.02093,0.0049 0.02223,-0.0011 0.02093,-0.007 0.01815,-0.0126 0.0094,-0.01025 v 0 l 0.07031,-0.09376 v 0 l 0.01559,-0.01559 0.01965,-0.01068 0.02093,-0.0049 h 0.007 v 0 l 0.02223,0.003 0.01965,0.009 0.01687,0.01431 0.0043,0.0056 v 0 l 0.07031,0.09376 v 0 l 0.01559,0.01559 0.01965,0.01068 0.02093,0.0049 0.02223,-0.0011 0.02093,-0.007 0.01816,-0.0126 0.0092,-0.01025 v 0 l 0.07031,-0.09376 v 0 l 0.01559,-0.01559 0.01965,-0.01068 0.02093,-0.0049 h 0.007 v 0 l 0.02223,0.003 0.01965,0.009 0.01687,0.01431 0.0043,0.0056 v 0 l 0.07031,0.09376 v 0 l 0.01559,0.01559 0.01965,0.01068 0.02093,0.0049 0.02223,-0.0012 0.02093,-0.007 0.01815,-0.0126 0.0094,-0.01025 v 0 l 0.07031,-0.09376 v 0 l 0.01559,-0.01559 0.01965,-0.01068 0.02093,-0.0049 h 0.007 v 0 l 0.02223,0.003 0.01965,0.009 0.01687,0.01431 0.0043,0.0056 v 0 l 0.07031,0.09376 v 0 l 0.01559,0.01559 0.01965,0.01068 0.02093,0.0049 0.02223,-0.0012 0.02093,-0.007 0.01815,-0.0126 0.0094,-0.01025 v 0 l 0.07031,-0.09376 v 0 l 0.01559,-0.01559 0.01965,-0.01068 0.02093,-0.0049 h 0.007 v 0 l 0.02223,0.003 0.01965,0.009 0.01687,0.01431 0.0043,0.0056 v 0 l 0.07031,0.09376 v 0 l 0.01559,0.01559 0.01965,0.01068 0.02093,0.0049 0.02223,-0.0012 0.02093,-0.007 0.01815,-0.0126 0.0094,-0.01025 v 0 l 0.07031,-0.09376 v 0 l 0.01559,-0.01559 0.01965,-0.01068 0.02093,-0.0049 h 0.007 v 0 l 0.02223,0.003 0.01965,0.009 0.01687,0.01431 0.0043,0.0056 v 0 l 0.07031,0.09376 v 0 l 0.01559,0.01559 0.01965,0.01068 0.02093,0.0049 0.02223,-0.0012 0.02093,-0.007 0.01815,-0.0126 0.0094,-0.01025 v 0 l 0.07031,-0.09376 v 0 l 0.01559,-0.01559 0.01965,-0.01068 0.02093,-0.0049 h 0.007 v 0 l 0.02223,0.003 0.01965,0.009 0.01687,0.01431 0.0043,0.0056 v 0 l 0.07031,0.09376 v 0 l 0.01559,0.01559 0.01965,0.01068 0.02093,0.0049 0.02223,-0.0012 0.02093,-0.007 0.01815,-0.0126 0.0094,-0.01025 v 0 l 0.07031,-0.09376 v 0 l 0.01559,-0.01559 0.01965,-0.01068 0.02093,-0.0049 h 0.007 v 0 l 0.02223,0.003 0.01965,0.009 0.01687,0.01431 0.0043,0.0056 v 0 l 0.07031,0.09376 v 0 l 0.01559,0.01559 0.01965,0.01068 0.02093,0.0049 0.02223,-0.0011 0.02093,-0.007 0.01816,-0.0126 0.0094,-0.01025 v 0 l 0.07031,-0.09376 v 0 l 0.01559,-0.01559 0.01965,-0.01068 0.02093,-0.0049 h 0.007 v 0 l 0.02223,0.003 0.01965,0.009 0.01687,0.01431 0.0043,0.0056 v 0 l 0.07031,0.09376 v 0 l 0.01559,0.01559 0.01965,0.01068 0.02093,0.0049 0.02223,-0.0012 0.02093,-0.007 0.01815,-0.0126 0.0094,-0.01068 v 0 l 0.07031,-0.09376 v 0 l 0.01559,-0.01559 0.01965,-0.01068 0.02093,-0.0049 h 0.007 v 0 l 0.02223,0.003 0.01965,0.009 0.01687,0.01431 0.0043,0.0056 v 0 l 0.07031,0.09376 v 0 l 0.01559,0.01559 0.01965,0.01068 0.02093,0.0049 0.02223,-0.0011 0.02093,-0.007 0.01815,-0.0126 0.0094,-0.01025 v 0 l 0.07031,-0.09376 v 0 l 0.01559,-0.01559 0.01965,-0.01068 0.02093,-0.0049 h 0.007 v 0 l 0.02223,0.003 0.01965,0.009 0.01687,0.01431 0.0043,0.0056 v 0 l 0.07031,0.09376 v 0 l 0.01559,0.01559 0.01965,0.01068 0.02093,0.0049 0.02223,-0.0012 0.02093,-0.007 0.01816,-0.0126 0.0092,-0.01025 v 0 l 0.07031,-0.09376 v 0 l 0.01559,-0.01559 0.01965,-0.01068 0.02093,-0.0049 h 0.007 v 0 l 0.02223,0.003 0.01965,0.009 0.01687,0.01431 0.0043,0.0056 v 0 l 0.07031,0.09376 v 0 l 0.01559,0.01559 0.01965,0.01068 0.02093,0.0049 0.02223,-0.0012 0.02093,-0.007 0.01815,-0.0126 0.0092,-0.01025 v 0 l 0.07031,-0.09376 v 0 l 0.01559,-0.01559 0.01965,-0.01068 0.02093,-0.0049 h 0.007 v 0 l 0.02223,0.003 0.01965,0.009 0.01687,0.01431 0.0043,0.0056 v 0 l 0.07031,0.09376 v 0 l 0.01559,0.01559 0.01965,0.01068 0.02093,0.0049 0.02223,-0.0012 0.02093,-0.007 0.01816,-0.0126 0.0094,-0.01025 v 0 l 0.07031,-0.09376 v 0 l 0.01559,-0.01559 0.01965,-0.01068 0.02093,-0.0049 h 0.007 v 0 l 0.02223,0.003 0.01965,0.009 0.01687,0.01431 0.0043,0.0056 v 0 l 0.07031,0.09376 v 0 l 0.01559,0.01559 0.01965,0.01068 0.02093,0.0049 0.02223,-0.0012 0.02093,-0.007 0.01816,-0.0126 0.0092,-0.01025 v 0 l 0.07031,-0.09376 v 0 l 0.01559,-0.01559 0.01965,-0.01068 0.02093,-0.0049 h 0.007 v 0 l 0.02223,0.003 0.01965,0.009 0.01687,0.01431 0.0043,0.0056 v 0 l 0.07031,0.09376 v 0 l 0.01559,0.01559 0.01965,0.01068 0.02093,0.0049 0.02223,-0.0012 0.02093,-0.007 0.01815,-0.0126 0.0092,-0.01025 v 0 l 0.07031,-0.09376 v 0 l 0.01559,-0.01559 0.01965,-0.01068 0.02093,-0.0049 h 0.007 v 0 l 0.02223,0.003 0.01965,0.009 0.01687,0.01431 0.0043,0.0056 v 0 l 0.07031,0.09376 v 0 l 0.01559,0.01559 0.01965,0.01068 0.02093,0.0049 0.02223,-0.0011 0.02093,-0.007 0.01816,-0.0126 0.0094,-0.01025 v 0 l 0.07031,-0.09376 v 0 l 0.01559,-0.01559 0.01965,-0.01068 0.02093,-0.0049 h 0.007 v 0 l 0.02223,0.003 0.01965,0.009 0.01687,0.01431 0.0043,0.0053 v 0 l 0.07031,0.09376 v 0 l 0.01559,0.01559 0.01965,0.01068 0.02093,0.0049 0.02223,-0.0012 0.02093,-0.007 0.01815,-0.0126 0.0094,-0.01025 v 0 l 0.07031,-0.09376 v 0 l 0.01559,-0.01559 0.01965,-0.01068 0.02093,-0.0049 h 0.007 v 0 l 0.02223,0.003 0.01965,0.009 0.01687,0.01431 0.0043,0.0056 v 0 l 0.07031,0.09376 v 0 l 0.01559,0.01559 0.01965,0.01068 0.02093,0.0049 0.02223,-0.0012 0.02093,-0.007 0.01815,-0.0126 0.0092,-0.01025 v 0 l 0.07031,-0.09376 v 0 l 0.01559,-0.01559 0.01965,-0.01068 0.02093,-0.0049 h 0.007 v 0 l 0.02223,0.003 0.01965,0.009 0.01687,0.01431 0.0043,0.0056 v 0 l 0.07031,0.09376 v 0 l 0.01559,0.01559 0.01965,0.01068 0.02093,0.0049 0.02223,-0.0012 0.02093,-0.007 0.01815,-0.0126 0.0094,-0.01025 v 0 l 0.07031,-0.09376 v 0 l 0.01559,-0.01559 0.01965,-0.01068 0.02093,-0.0049 h 0.007 v 0 l 0.02223,0.003 0.01965,0.009 0.01687,0.01431 0.0043,0.0056 v 0 l 0.07031,0.09376 v 0 l 0.01559,0.01559 0.01965,0.01068 0.02093,0.0049 0.02223,-0.0012 0.02093,-0.007 0.01815,-0.0126 0.0094,-0.01025 v 0 l 0.07031,-0.09376 v 0 l 0.01559,-0.01559 0.01965,-0.01068 0.02093,-0.0049 h 0.007 v 0 l 0.02223,0.003 0.01965,0.009 0.01687,0.01431 0.0043,0.0056 v 0 l 0.07031,0.09376 v 0 l 0.01559,0.01559 0.01965,0.01068 0.02093,0.0049 0.02223,-0.0011 0.02093,-0.007 0.01815,-0.0126 0.0092,-0.01068 v 0 l 0.07031,-0.09376 v 0 l 0.01559,-0.01559 0.01965,-0.01068 0.02093,-0.0049 h 0.007 v 0 l 0.02223,0.003 0.01965,0.009 0.01687,0.01431 0.0043,0.0056 v 0 l 0.07031,0.09376 v 0 l 0.01559,0.01559 0.01965,0.01068 0.02093,0.0049 0.02223,-0.0012 0.02093,-0.007 0.01815,-0.0126 0.0092,-0.01025 v 0 l 0.07031,-0.09376 v 0 l 0.01559,-0.01559 0.01965,-0.01068 0.02093,-0.0049 h 0.007 v 0 l 0.02223,0.003 0.01965,0.009 0.01687,0.01431 0.0043,0.0056 v 0 l 0.07031,0.09376 v 0 l 0.01559,0.01559 0.01965,0.01068 0.02093,0.0049 0.02223,-0.0012 0.02093,-0.007 0.01815,-0.0126 0.0094,-0.01025 v 0 l 0.07031,-0.09376 v 0 l 0.01559,-0.01559 0.01965,-0.01068 0.02093,-0.0049 h 0.007 v 0 l 0.02223,0.003 0.01965,0.009 0.01687,0.01431 0.0043,0.0056 v 0 l 0.07031,0.09376 v 0 l 0.01559,0.01559 0.01965,0.01068 0.02093,0.0049 0.02223,-0.0011 0.02093,-0.007 0.01816,-0.0126 0.0094,-0.01025 v 0 l 0.07031,-0.09376 v 0 l 0.01559,-0.01559 0.01965,-0.01068 0.02093,-0.0049 h 0.007 v 0 l 0.02223,0.003 0.01965,0.009 0.01687,0.01431 0.0043,0.0056 v 0 l 0.07031,0.09376 v 0 l 0.01559,0.01559 0.01965,0.01068 0.02093,0.0049 0.02223,-0.0012 0.02093,-0.007 0.01816,-0.0126 0.0092,-0.01025 v 0 l 0.07031,-0.09376 v 0 l 0.01559,-0.01559 0.01965,-0.01068 0.02093,-0.0049 h 0.007 v 0 l 0.02223,0.003 0.01965,0.009 0.01687,0.01431 0.0043,0.0056 v 0 l 0.07031,0.09376 v 0 l 0.01559,0.01559 0.01965,0.01068 0.02093,0.0049 0.02223,-0.0011 0.02093,-0.007 0.01815,-0.0126 0.0094,-0.01025 v 0 l 0.07031,-0.09376 v 0 l 0.01559,-0.01559 0.01965,-0.01068 0.02093,-0.0049 h 0.007 v 0 l 0.02223,0.003 0.01965,0.009 0.01687,0.01431 0.0043,0.0056 v 0 l 0.07031,0.09376 v 0 l 0.01559,0.01559 0.01965,0.01068 0.02093,0.0049 0.02223,-0.0012 0.02093,-0.007 0.01815,-0.0126 0.0094,-0.01025 v 0 l 0.07031,-0.09376 v 0 l 0.01559,-0.01559 0.01965,-0.01068 0.02093,-0.0049 h 0.007 v 0 l 0.02223,0.003 0.01965,0.009 0.01687,0.01431 0.0043,0.0056 v 0 l 0.07031,0.09376 v 0 l 0.01559,0.01559 0.01965,0.01068 0.02093,0.0049 0.02223,-0.0012 0.02093,-0.007 0.01815,-0.0126 0.0092,-0.01025 v 0 l 0.07031,-0.09376 v 0 l 0.01559,-0.01559 0.01965,-0.01068 0.02093,-0.0049 h 0.007 v 0 l 0.02223,0.003 0.01965,0.009 0.01687,0.01431 0.0043,0.0056 v 0 l 0.07031,0.09376 v 0 l 0.01559,0.01559 0.01965,0.01068 0.02093,0.0049 0.02223,-0.0012 0.02093,-0.007 0.01815,-0.0126 0.0094,-0.01025 v 0 l 0.07031,-0.09376 v 0 l 0.01559,-0.01559 0.01965,-0.01068 0.02093,-0.0049 h 0.007 v 0 l 0.02223,0.003 0.01965,0.009 0.01687,0.01431 0.0043,0.0056 v 0 l 0.07031,0.09376 v 0 l 0.01559,0.01559 0.01965,0.01068 0.02093,0.0049 0.02223,-0.0011 0.02093,-0.007 0.01816,-0.0126 0.0094,-0.01025 v 0 l 0.07031,-0.09376 v 0 l 0.01559,-0.01559 0.01965,-0.01068 0.02093,-0.0049 h 0.007 v 0 l 0.02223,0.003 0.01965,0.009 0.01687,0.01431 0.0043,0.0056 v 0 l 0.07031,0.09376 v 0 l 0.01559,0.01559 0.01965,0.01068 0.02093,0.0049 0.02223,-0.0011 0.02093,-0.007 0.01815,-0.0126 0.0094,-0.01025 v 0 l 0.07031,-0.09376 v 0 l 0.01559,-0.01559 0.01965,-0.01068 0.02093,-0.0049 h 0.007 v 0 l 0.02223,0.003 0.01965,0.009 0.01687,0.01431 0.0043,0.0056 v 0 l 0.07031,0.09376 v 0 l 0.01559,0.01559 0.01965,0.01068 0.02093,0.0049 0.02223,-0.0012 0.02093,-0.007 0.01815,-0.0126 0.0094,-0.01025 v 0 l 0.07031,-0.09376 v 0 l 0.01559,-0.01559 0.01965,-0.01068 0.02093,-0.0049 h 0.007 v 0 l 0.02223,0.003 0.01965,0.009 0.01687,0.01431 0.0043,0.0056 v 0 l 0.07031,0.09376 v 0 l 0.01559,0.01559 0.01965,0.01068 0.02093,0.0049 0.02223,-0.0011 0.02093,-0.007 0.01815,-0.0126 0.0094,-0.01025 v 0 l 0.07031,-0.09376 v 0 l 0.01559,-0.01559 0.01965,-0.01068 0.02093,-0.0049 h 0.007 v 0 l 0.02223,0.003 0.01965,0.009 0.01687,0.01431 0.0043,0.0056 v 0 l 0.07031,0.09376 v 0 l 0.01559,0.01559 0.01965,0.01068 0.02093,0.0049 0.02223,-0.0012 0.02093,-0.007 0.01815,-0.0126 0.0092,-0.01025 v 0 l 0.07031,-0.09376 v 0 l 0.01559,-0.01559 0.01965,-0.01068 0.02093,-0.0049 h 0.007 v 0 l 0.02223,0.003 0.01965,0.009 0.01687,0.01431 0.0043,0.0056 v 0 l 0.07031,0.09376 v 0 l 0.01559,0.01559 0.01965,0.01068 0.02093,0.0049 0.02223,-0.0012 0.02093,-0.007 0.01816,-0.0126 0.0094,-0.01025 v 0 l 0.07031,-0.09376 v 0 l 0.01559,-0.01559 0.01965,-0.01068 0.02093,-0.0049 h 0.007 v 0 l 0.02223,0.003 0.01965,0.009 0.01687,0.01431 0.0043,0.0056 v 0 l 0.07031,0.09376 v 0 l 0.01559,0.01559 0.01965,0.01068 0.02093,0.0049 0.02223,-0.0012 0.02093,-0.007 0.01816,-0.0126 0.0094,-0.01025 v 0 l 0.07031,-0.09376 v 0 l 0.01559,-0.01559 0.01965,-0.01068 0.02093,-0.0049 h 0.007 v 0 l 0.02223,0.003 0.01965,0.009 0.01687,0.01431 0.0043,0.0056 v 0 l 0.07031,0.09376 v 0 l 0.01559,0.01559 0.01965,0.01068 0.02093,0.0049 0.02223,-0.0012 0.02093,-0.007 0.01815,-0.0126 0.0092,-0.01025 v 0 l 0.07031,-0.09376 v 0 l 0.01559,-0.01559 0.01965,-0.01068 0.02093,-0.0049 h 0.007 v 0 l 0.02223,0.003 0.01965,0.009 0.01687,0.01431 0.0043,0.0056 v 0 l 0.07031,0.09376 v 0 l 0.01559,0.01559 0.01965,0.01068 0.02093,0.0049 0.02223,-0.0011 0.02093,-0.007 0.01815,-0.0126 0.0094,-0.01025 v 0 l 0.07031,-0.09376 v 0 l 0.01559,-0.01559 0.01965,-0.01068 0.02093,-0.0049 h 0.007 v 0 l 0.02223,0.003 0.01965,0.009 0.01687,0.01431 0.0043,0.0056 v 0 l 0.07031,0.09376 v 0 l 0.01559,0.01559 0.01965,0.01068 0.02093,0.0049 0.02223,-0.0012 0.02093,-0.007 0.01815,-0.0126 0.0092,-0.01025 v 0 l 0.07031,-0.09376 v 0 l 0.01559,-0.01559 0.01965,-0.01068 0.02093,-0.0049 h 0.007 v 0 l 0.02223,0.003 0.01965,0.009 0.01687,0.01431 0.0043,0.0056 v 0 l 0.07031,0.09376 v 0 l 0.01559,0.01559 0.01965,0.01068 0.02093,0.0049 0.02223,-0.0012 0.02093,-0.007 0.01815,-0.0126 0.0092,-0.01025 v 0 l 0.07031,-0.09376 v 0 l 0.01559,-0.01559 0.01965,-0.01068 0.02093,-0.0049 h 0.007 v 0 l 0.02223,0.003 0.01965,0.009 0.01687,0.01431 0.0043,0.0056 v 0 l 0.07031,0.09376 v 0 l 0.01559,0.01559 0.01965,0.01068 0.02093,0.0049 0.02223,-0.0012 0.02093,-0.007 0.01816,-0.0126 0.0092,-0.01025 v 0 l 0.07031,-0.09376 v 0 l 0.01559,-0.01559 0.01965,-0.01068 0.02093,-0.0049 h 0.007 v 0 l 0.02223,0.003 0.01965,0.009 0.01687,0.01431 0.0043,0.0056 v 0 l 0.07031,0.09376 v 0 l 0.01559,0.01559 0.01965,0.01068 0.02093,0.0049 0.02223,-0.0012 0.02093,-0.007 0.01815,-0.0126 0.0092,-0.01025 v 0 l 0.07031,-0.09376 v 0 l 0.01559,-0.01559 0.01965,-0.01068 0.02093,-0.0049 h 0.007 v 0 l 0.02223,0.003 0.01965,0.009 0.01687,0.01431 0.0043,0.0056 v 0 l 0.07031,0.09376 v 0 l 0.01559,0.01559 0.01965,0.01068 0.02093,0.0049 0.02223,-0.0012 0.02093,-0.007 0.01815,-0.0126 0.0094,-0.01025 v 0 l 0.07031,-0.09376 v 0 l 0.01559,-0.01559 0.01965,-0.01068 0.02093,-0.0049 h 0.007 v 0 l 0.02223,0.003 0.01965,0.009 0.01687,0.01431 0.0043,0.0056 v 0 l 0.07031,0.09376 v 0 l 0.01559,0.01559 0.01965,0.01068 0.02093,0.0049 0.02223,-0.0011 0.02093,-0.007 0.01816,-0.0126 0.0092,-0.01025 v 0 l 0.07031,-0.09376 v 0 l 0.01559,-0.01559 0.01965,-0.01068 0.02093,-0.0049 h 0.007 v 0 l 0.02223,0.003 0.01965,0.009 0.01687,0.01431 0.0043,0.0056 v 0 l 0.07031,0.09376 v 0 l 0.01559,0.01559 0.01965,0.01068 0.02093,0.0049 0.02223,-0.0011 0.02093,-0.007 0.01815,-0.0126 0.0094,-0.01025 v 0 l 0.07031,-0.09376 v 0 l 0.01559,-0.01559 0.01965,-0.01068 0.02093,-0.0049 h 0.007 v 0 l 0.02223,0.003 0.01965,0.009 0.01687,0.01431 0.0043,0.0056 v 0 l 0.07031,0.09376 v 0 l 0.01559,0.01559 0.01965,0.01068 0.02093,0.0049 0.02223,-0.0012 0.02093,-0.007 0.01815,-0.0126 0.0094,-0.01025 v 0 l 0.07031,-0.09376 v 0 l 0.01559,-0.01559 0.01965,-0.01068 0.02093,-0.0049 h 0.007 v 0 l 0.02223,0.003 0.01965,0.009 0.01687,0.01431 0.0043,0.0056 v 0 l 0.07031,0.09376 v 0 l 0.01559,0.01559 0.01965,0.01068 0.02093,0.0049 0.02223,-0.0011 0.02093,-0.007 0.01815,-0.0126 0.0092,-0.01025 v 0 l 0.07294,-0.09376 v 0 l 0.01559,-0.01559 0.01965,-0.01068 0.02093,-0.0049 h 0.007 v 0 l 0.02223,0.003 0.01965,0.009 0.01687,0.01431 0.0043,0.0056 v 0 l 0.07031,0.09376 v 0 l 0.01559,0.01559 0.01965,0.01068 0.02093,0.0049 0.02223,-0.0012 0.02093,-0.007 0.01815,-0.0126 0.0092,-0.01025 v 0 l 0.07031,-0.09376 v 0 l 0.01559,-0.01559 0.01965,-0.01068 0.02093,-0.0049 h 0.007 v 0 l 0.02223,0.003 0.01965,0.009 0.01687,0.01431 0.0043,0.0056 v 0 l 0.07031,0.09376 v 0 l 0.01559,0.01559 0.01965,0.01068 0.02093,0.0049 0.02223,-0.0012 0.02093,-0.007 0.01815,-0.0126 0.0094,-0.01025 v 0 l 0.07031,-0.09376 v 0 l 0.01559,-0.01559 0.01965,-0.01068 0.02093,-0.0049 h 0.007 v 0 l 0.02223,0.003 0.01965,0.009 0.01687,0.01431 0.0043,0.0056 v 0 l 0.07031,0.09376 v 0 l 0.01559,0.01559 0.01965,0.01068 0.02093,0.0049 0.02223,-0.0012 0.02093,-0.007 0.01815,-0.0126 0.0092,-0.01025 v 0 l 0.07031,-0.09376 v 0 l 0.01559,-0.01559 0.01965,-0.01068 0.02093,-0.0049 h 0.007 v 0 l 0.02223,0.003 0.01965,0.009 0.01687,0.01431 0.0043,0.0056 v 0 l 0.07031,0.09376 v 0 l 0.01559,0.01559 0.01965,0.01068 0.02093,0.0049 0.02223,-0.0012 0.02093,-0.007 0.01815,-0.0126 0.0092,-0.01025 v 0 l 0.07031,-0.09376 v 0 l 0.01559,-0.01559 0.01965,-0.01068 0.02093,-0.0049 h 0.007 v 0 l 0.02223,0.003 0.01965,0.009 0.01687,0.01431 0.0043,0.0056 v 0 l 0.07031,0.09376 v 0 l 0.01559,0.01559 0.01965,0.01068 0.02093,0.0049 0.02223,-0.0011 0.02093,-0.007 0.01815,-0.0126 0.0094,-0.01025 v 0 l 0.07031,-0.09376 v 0 l 0.01559,-0.01559 0.01965,-0.01068 0.02093,-0.0049 h 0.007 v 0 l 0.02223,0.003 0.01965,0.009 0.01687,0.01431 0.0043,0.0056 v 0 l 0.07031,0.09376 v 0 l 0.01559,0.01559 0.01965,0.01068 0.02093,0.0049 0.02223,-0.0011 0.02093,-0.007 0.01815,-0.0126 0.0094,-0.01025 v 0 l 0.07031,-0.09376 v 0 l 0.01559,-0.01559 0.01965,-0.01068 0.02093,-0.0049 h 0.007 v 0 l 0.02223,0.003 0.01965,0.009 0.01687,0.01431 0.0043,0.0056 v 0 l 0.07031,0.09376 v 0 l 0.01559,0.01559 0.01965,0.01068 0.02093,0.0049 0.02223,-0.0012 0.02093,-0.007 0.01815,-0.0126 0.0092,-0.01025 v 0 l 0.07031,-0.09376 v 0 l 0.01559,-0.01559 0.01965,-0.01068 0.02093,-0.0049 h 0.007 v 0 l 0.02223,0.003 0.01965,0.009 0.01687,0.01431 0.0043,0.0056 v 0 l 0.07031,0.09376 v 0 l 0.01559,0.01559 0.01965,0.01068 0.02093,0.0049 0.02223,-0.0012 0.02093,-0.007 0.01816,-0.0126 0.0094,-0.01025 v 0 l 0.07031,-0.09376 v 0 l 0.0156,-0.01559 0.0196,-0.01068 0.0209,-0.0049 h 0.007 v 0 l 0.0222,0.003 0.0196,0.009 0.0169,0.01431 0.004,0.0056 v 0 l 0.0703,0.09376 v 0 l 0.0156,0.01559 0.0196,0.01068 0.0209,0.0049 0.0222,-0.0011 0.0209,-0.007 0.0181,-0.0126 v -0.001 0 l 0.90193,-0.862603 v 0 l 0.013,-0.01687 0.008,-0.02093 0.004,-0.02223 -0.004,-0.02223 -0.009,-0.01965 -0.0143,-0.01687 -0.0182,-0.01153 -0.0209,-0.0064 -0.0113,-10e-4 v 0 H 77.902113 v 0 l -0.05339,-0.0077 -0.04947,-0.02223 -0.04167,-0.03518 -0.02986,-0.0456 -0.01687,-0.05209 -0.0041,-0.03385"
     stroke="#c0c0c0"
     stroke-width="0"
     stroke-opacity="1"
     fill="#c0c0c0"
     fill-rule="evenodd"
     fill-opacity="1"
     id="path992" />
</svg>
