<?xml version="1.0" encoding="UTF-8" standalone="no"?>
<!-- Created with Inkscape (http://www.inkscape.org/) -->

<svg
   width="210mm"
   height="297mm"
   viewBox="0 0 210 297"
   version="1.1"
   id="svg1"
   inkscape:version="1.4 (86a8ad7, 2024-10-11)"
   sodipodi:docname="svg_file.svg"
   xmlns:inkscape="http://www.inkscape.org/namespaces/inkscape"
   xmlns:sodipodi="http://sodipodi.sourceforge.net/DTD/sodipodi-0.dtd"
   xmlns="http://www.w3.org/2000/svg"
   xmlns:svg="http://www.w3.org/2000/svg">
  <sodipodi:namedview
     id="namedview1"
     pagecolor="#ffffff"
     bordercolor="#000000"
     borderopacity="0.25"
     inkscape:showpageshadow="2"
     inkscape:pageopacity="0.0"
     inkscape:pagecheckerboard="0"
     inkscape:deskcolor="#d1d1d1"
     inkscape:document-units="mm"
     inkscape:zoom="1.4803312"
     inkscape:cx="329.65596"
     inkscape:cy="317.15875"
     inkscape:window-width="2560"
     inkscape:window-height="1377"
     inkscape:window-x="-8"
     inkscape:window-y="-8"
     inkscape:window-maximized="1"
     inkscape:current-layer="layer1" />
  <defs
     id="defs1">
    <linearGradient
       id="swatch7"
       inkscape:swatch="solid">
      <stop
         style="stop-color:#261a13;stop-opacity:1;"
         offset="0"
         id="stop7" />
    </linearGradient>
    <inkscape:perspective
       sodipodi:type="inkscape:persp3d"
       inkscape:vp_x="0 : 148.5 : 1"
       inkscape:vp_y="0 : 1000 : 0"
       inkscape:vp_z="210 : 148.5 : 1"
       inkscape:persp3d-origin="105 : 99 : 1"
       id="perspective2" />
  </defs>
  <g
     inkscape:label="Слой 1"
     inkscape:groupmode="layer"
     id="layer1">
    <path
       d="m 100.83548,33.737871 -1.006475,5.708012 -0.0146,0.06762 -0.0192,0.06646 -0.0238,0.06499 -0.0284,0.06312 -0.0324,0.06102 -0.037,0.05864 -0.0409,0.05594 -0.0442,0.05295 -0.0482,0.04972 -0.0515,0.0463 -0.0541,0.04259 -0.0575,0.0387 -0.0601,0.03454 -0.0621,0.03032 -0.0641,0.02587 -0.066,0.02141 -0.0671,0.01668 -0.0681,0.01194 -0.0687,0.0072 -0.0691,0.0027 -0.0692,-0.0027 -0.0687,-0.0072 -0.0681,-0.01194 -0.0671,-0.01668 -0.066,-0.02141 -0.064,-0.02587 -0.0621,-0.03032 -0.0601,-0.03454 -0.0575,-0.0387 -0.0542,-0.04259 -0.0515,-0.0463 -0.0482,-0.04972 -0.0443,-0.05295 -0.0409,-0.05594 -0.037,-0.05864 -0.0324,-0.06102 -0.0284,-0.06312 -0.0238,-0.06499 -0.0337,-0.134082 -1.006494,-5.708012 H 85.310824 v 2.971692 h 0.990564 v 0.792462 l -0.980922,0.660383 1.806404,2.839612 h 1.320746 l 1.816047,-2.839612 -0.990565,-0.660383 v -0.792462 h 1.981129 0.02311 l 0.02311,0.0027 0.02244,0.004 0.02245,0.0052 0.0218,0.0072 0.02113,0.0086 0.02048,0.01019 0.01981,0.01142 0.01915,0.01282 0.01782,0.01423 0.01721,0.01545 0.01581,0.01651 0.01458,0.01763 0.01387,0.01862 0.01194,0.01955 0.01054,0.02034 0.0093,0.02108 0.0079,0.02165 0.0067,0.02211 0.0067,0.02254 v 0.02284 0.03455 l -0.660382,3.962257 h 2.614638 l 0.625237,-3.751333 -0.01247,-0.01955 -0.01054,-0.02034 -0.0093,-0.02108 -0.0079,-0.02165 -0.0067,-0.02213 -0.0067,-0.02257 v -0.02285 -0.02299 l 7.1e-5,-0.02304 v -0.02297 -0.0228 l 0.0067,-0.02252 0.0067,-0.02211 0.0079,-0.02167 0.0093,-0.02106 0.01054,-0.02034 0.01194,-0.01955 0.01387,-0.01862 0.01528,-0.01763 0.01581,-0.01651 0.01721,-0.01545 0.01783,-0.01423 0.01915,-0.01282 0.01982,-0.01142 0.02048,-0.01001 0.02113,-0.0086 0.02179,-0.0072 0.02244,-0.0052 0.02246,-0.004 0.02311,-0.0027 h 0.02312 0.02309 l 0.02311,0.0027 0.02246,0.004 0.02244,0.0052 0.0218,0.0072 0.02113,0.0086 0.02048,0.01001 0.01981,0.01159 0.01915,0.01282 0.01849,0.01423 0.01721,0.01545 0.01581,0.01651 0.01458,0.0177 0.01317,0.01862 0.01247,0.01955 0.01054,0.02034 0.0093,0.02106 0.0079,0.02167 0.0067,0.02219 0.0067,0.02225 0.510546,2.895641 0.05283,0.247967 0.06994,0.243697 0.08669,0.238219 0.103082,0.231614 0.119012,0.223833 0.134381,0.214999 0.148976,0.205092 0.162992,0.194204 0.17606,0.182365 0.18839,0.169631 0.199771,0.15609 0.210203,0.141757 0.0867,0.0525 0.09662,0.539964 0.134064,0.531903 0.170897,0.521259 0.20676,0.508069 0.24171,0.492401 0.27551,0.474347 0.30793,0.453971 0.33877,0.431385 0.3681,0.406709 0.39556,0.380027 0.42113,0.351523 0.444615,0.321277 0.4659,0.289487 0.48499,0.256274 0.50169,0.221831 0.51596,0.186282 0.5277,0.149854 0.53682,0.112672 0.54343,0.07494 0.54725,0.03685 0.25412,0.004 0.54823,-0.01917 0.54555,-0.05731 0.54018,-0.09527 0.53227,-0.132695 0.5217,-0.169508 0.50856,-0.205479 0.49303,-0.240466 0.47509,-0.274277 0.45472,-0.306735 0.43228,-0.337717 0.40766,-0.367049 0.38104,-0.394588 0.35258,-0.420215 0.32239,-0.443767 0.29069,-0.465195 0.25756,-0.484323 0.22308,-0.501131 0.1876,-0.515463 0.15124,-0.527283 0.11404,-0.536557 0.0403,-0.250952 0.21403,-0.135839 0.20406,-0.150451 0.19302,-0.16431 0.18116,-0.177377 0.16832,-0.189583 0.15466,-0.20086 0.14034,-0.211171 0.12521,-0.220425 0.10948,-0.228629 0.0934,-0.235723 0.0766,-0.241644 0.0594,-0.24642 0.0192,-0.09955 0.51059,-2.895623 0.007,-0.02252 0.007,-0.02213 0.008,-0.02165 0.009,-0.02106 0.0106,-0.02035 0.0125,-0.01953 0.0131,-0.01863 0.0146,-0.01763 0.0158,-0.01651 0.0172,-0.01545 0.0185,-0.01422 0.0192,-0.01282 0.0198,-0.01159 0.0204,-0.01001 0.0211,-0.0086 0.0218,-0.0072 0.0224,-0.0052 0.0224,-0.004 0.0231,-0.0027 h 0.0231 0.0231 l 0.0231,0.0027 0.0224,0.004 0.0224,0.0052 0.0218,0.0072 0.0211,0.0086 0.0205,0.01001 0.0198,0.01159 0.0191,0.01282 0.0178,0.01422 0.0172,0.01545 0.0158,0.01651 0.0146,0.01763 0.0139,0.01863 0.0119,0.01953 0.0106,0.02035 0.009,0.02106 0.008,0.02165 0.007,0.02213 0.007,0.02252 v 0.02285 0.02298 0.02304 0.02299 0.02285 l -0.007,0.02252 -0.007,0.02211 -0.008,0.02167 -0.009,0.02106 -0.0106,0.02034 -0.0119,0.01928 0.62519,3.751351 h 2.61464 l -0.64249,-3.855171 -0.007,-0.02206 -0.007,-0.02244 -0.007,-0.0228 v -0.02297 -0.02304 -0.02304 -0.02285 l 0.007,-0.02266 0.007,-0.02225 0.007,-0.0218 0.009,-0.0212 0.0106,-0.02053 0.0119,-0.01974 0.0131,-0.0189 0.0146,-0.0179 0.0158,-0.01686 0.0172,-0.01581 0.0179,-0.01441 0.0191,-0.01317 0.0198,-0.01177 0.0205,-0.01036 0.0211,-0.009 0.0218,-0.0076 0.0224,-0.006 0.0224,-0.0046 0.0231,-0.0027 0.0231,-0.0017 0.007,-5.3e-5 h 1.98113 v 0.792462 l -0.99057,0.660382 1.81605,2.839613 h 1.32075 l 1.8064,-2.839613 -0.98092,-0.660382 v -0.792462 h 0.99057 v -2.971445 h -11.5577 l -1.00648,5.708013 -0.0146,0.06762 -0.0191,0.06646 -0.0238,0.06499 -0.0284,0.06312 -0.0323,0.06102 -0.0363,0.05864 -0.041,0.05594 -0.0442,0.05295 -0.0482,0.04972 -0.0515,0.0463 -0.0542,0.04259 -0.0574,0.03871 -0.0601,0.03453 -0.0621,0.03032 -0.0641,0.02589 -0.0661,0.02139 -0.0671,0.01669 -0.0681,0.01194 -0.0688,0.0072 -0.0691,0.0027 -0.0691,-0.0027 -0.0688,-0.0072 -0.0681,-0.01194 -0.0671,-0.01669 -0.0661,-0.02139 -0.0641,-0.02589 -0.0621,-0.03032 -0.0601,-0.03453 -0.0575,-0.03871 -0.0542,-0.04259 -0.0515,-0.0463 -0.0482,-0.04972 -0.0442,-0.05295 -0.041,-0.05594 -0.0363,-0.05864 -0.0324,-0.06102 -0.0284,-0.06312 -0.0238,-0.06499 -0.0337,-0.134082 -1.00649,-5.708013 h -3.95956 -3.9595 m 3.9595,3.301892 h 1.85948 l 0.50521,2.8648 0.0528,0.247983 0.0699,0.243699 0.0867,0.238218 0.10308,0.231596 0.11906,0.223851 0.13433,0.214998 0.14898,0.205093 0.16299,0.194203 0.17611,0.182366 0.18841,0.169631 0.19977,0.156072 0.21013,0.141775 0.21957,0.126758 0.22784,0.111127 0.23509,0.09497 0.2411,0.07835 0.246,0.06135 0.24961,0.04405 0.21925,0.02402 -0.12554,0.390584 -0.1524,0.380889 -0.17872,0.369314 -0.20392,0.355966 -0.22836,0.340861 -0.25153,0.324106 -0.27354,0.305768 -0.29412,0.285939 -0.31348,0.264722 -0.33111,0.242222 -0.34724,0.21853 -0.36155,0.193781 -0.3743,0.168068 -0.385,0.141582 -0.39405,0.114358 -0.40098,0.08659 -0.40608,0.05844 -0.40916,0.02993 -0.2242,0.004 -0.40996,-0.0144 -0.40804,-0.04286 -0.40402,-0.07124 -0.39809,-0.09925 -0.39014,-0.126776 -0.38038,-0.153684 -0.36875,-0.179853 -0.35529,-0.205128 -0.34015,-0.229401 -0.32327,-0.252586 -0.30489,-0.274522 -0.28502,-0.295107 -0.26369,-0.314287 -0.241165,-0.331904 -0.2174,-0.347921 -0.19255,-0.362236 -0.1669,-0.374795 -0.14031,-0.385508 -0.0654,-0.214507 0.25188,-0.02879 0.24921,-0.0463 0.24547,-0.06353 0.240375,-0.08053 0.23416,-0.09709 0.22684,-0.113199 0.21839,-0.12876 0.20889,-0.143654 0.19831,-0.157899 0.18688,-0.171335 0.17441,-0.183963 0.1612,-0.195661 0.14713,-0.206446 0.13239,-0.21621 0.11696,-0.224905 0.10105,-0.232527 0.0845,-0.239008 0.0677,-0.244313 0.0449,-0.21593 0.50512,-2.864799 h 1.85949 v 0 m -16.591992,0.66042 v 1.485864 0.02878 0.02866 l -0.0067,0.02839 -0.0072,0.02795 -0.0093,0.0274 -0.01054,0.02668 -0.01265,0.02589 -0.01458,0.02496 -0.01581,0.0239 -0.01784,0.02273 -0.01914,0.0214 -0.02046,0.02001 -0.0218,0.01849 -0.02311,0.01686 -0.02443,0.01528 -0.0251,0.01352 -0.02641,0.01159 -0.02708,0.0098 -0.02773,0.0079 -0.02839,0.006 -0.0284,0.004 -0.02907,0.0019 h -0.02905 l -0.0284,-0.0019 -0.02839,-0.004 -0.0284,-0.006 -0.02773,-0.0079 -0.02708,-0.0098 -0.02641,-0.01159 -0.02575,-0.01352 -0.02443,-0.01528 -0.02311,-0.01686 -0.02179,-0.01849 -0.02048,-0.02001 -0.01914,-0.0214 -0.01782,-0.02273 -0.01581,-0.0239 -0.01458,-0.02496 -0.01247,-0.02589 -0.01053,-0.02668 -0.0093,-0.0274 -0.0072,-0.02795 -0.0067,-0.02839 -0.0067,-0.05745 v -1.485864 -0.02879 -0.02866 l 0.0067,-0.02839 0.0072,-0.02795 0.0093,-0.0274 0.01054,-0.02675 0.01247,-0.02589 0.01458,-0.02496 0.01581,-0.0239 0.01782,-0.02273 0.01915,-0.0214 0.02048,-0.02001 0.02179,-0.01849 0.02311,-0.01703 0.02443,-0.01528 0.02575,-0.01352 0.02641,-0.01177 0.02708,-0.0098 0.02773,-0.0079 0.0284,-0.006 0.02839,-0.004 0.0284,-0.0019 h 0.02905 l 0.02907,0.0019 0.0284,0.004 0.02839,0.006 0.02773,0.0079 0.02708,0.0098 0.02641,0.01177 0.0251,0.01352 0.02443,0.01528 0.02311,0.01703 0.02179,0.01849 0.02046,0.02001 0.01915,0.0214 0.01784,0.02273 0.01581,0.0239 0.01458,0.02496 0.01265,0.02589 0.01053,0.02675 0.0093,0.0274 0.0072,0.02795 0.0067,0.02839 0.0067,0.05745 v 0 m 33.183992,0 v -0.02879 -0.02866 l 0.007,-0.02839 0.007,-0.02795 0.009,-0.0274 0.0105,-0.02675 0.0127,-0.02589 0.0146,-0.02496 0.0158,-0.0239 0.0179,-0.02273 0.0192,-0.0214 0.0204,-0.02001 0.0218,-0.01849 0.0231,-0.01703 0.0244,-0.01528 0.0258,-0.01352 0.0264,-0.01177 0.0271,-0.0098 0.0277,-0.0079 0.0284,-0.006 0.0284,-0.004 0.0284,-0.0019 h 0.0291 l 0.0291,0.0019 0.0284,0.004 0.0284,0.006 0.0277,0.0079 0.0271,0.0098 0.0264,0.01177 0.0251,0.01352 0.0244,0.01528 0.0231,0.01703 0.0218,0.01849 0.0204,0.02001 0.0192,0.0214 0.0178,0.02273 0.0158,0.0239 0.0146,0.02496 0.0126,0.02589 0.0106,0.02675 0.009,0.0274 0.007,0.02795 0.007,0.02839 0.007,0.05745 v 1.485864 0.02878 0.02866 l -0.007,0.02839 -0.007,0.02795 -0.009,0.0274 -0.0106,0.02668 -0.0127,0.02589 -0.0146,0.02496 -0.0158,0.0239 -0.0179,0.02273 -0.0192,0.0214 -0.0205,0.02001 -0.0218,0.01849 -0.0231,0.01686 -0.0244,0.01528 -0.0251,0.01352 -0.0264,0.01159 -0.0271,0.0098 -0.0277,0.0079 -0.0284,0.006 -0.0284,0.004 -0.0291,0.0019 h -0.0291 l -0.0284,-0.0019 -0.0284,-0.004 -0.0284,-0.006 -0.0277,-0.0079 -0.0271,-0.0098 -0.0264,-0.01159 -0.0258,-0.01352 -0.0244,-0.01528 -0.0231,-0.01686 -0.0218,-0.01849 -0.0205,-0.02001 -0.0192,-0.0214 -0.0179,-0.02273 -0.0158,-0.0239 -0.0146,-0.02496 -0.0126,-0.02589 -0.0106,-0.02668 -0.009,-0.0274 -0.007,-0.02795 -0.007,-0.02839 -0.007,-0.05745 v -1.485864 0"
       stroke="#000000"
       stroke-width="0"
       stroke-opacity="1"
       fill="#000000"
       fill-rule="evenodd"
       fill-opacity="1"
       id="path638" />
    <path
       d="m 83.993081,35.520897 v 13.933957 0 l 0.0067,0.03639 0.0151,0.03362 0.02378,0.02814 0.03037,0.02053 0.035,0.01142 0.02311,0.0019 v 0 h 1.056604 v 0 l 0.03632,-0.0052 0.03369,-0.01493 0.02839,-0.02364 0.02048,-0.03046 0.01124,-0.03499 v -0.02292 0 -2.707551 0 l 0.0067,-0.03639 0.0151,-0.0336 0.02377,-0.02814 0.03038,-0.02053 0.035,-0.01142 0.02311,-0.0019 v 0 h 0.528302 v 0 l 0.09107,-0.01282 0.08392,-0.03737 0.0704,-0.0591 0.05151,-0.07621 0.0284,-0.0874 0.0067,-0.05733 v 0 -0.528302 0 l -0.0067,-0.03637 -0.01528,-0.03362 -0.02376,-0.02814 -0.03038,-0.02053 -0.035,-0.01142 -0.02311,-0.0019 v 0 h -0.726392 v 0 l -0.03632,-0.0052 -0.03369,-0.01493 -0.0284,-0.02364 -0.02046,-0.03046 -0.01124,-0.03499 v -0.02292 0 -3.037732 0 l 0.0067,-0.03639 0.0151,-0.03362 0.02379,-0.02812 0.03038,-0.02055 0.03499,-0.01142 0.02311,-0.0019 v 0 h 4.688679 v 0 l 0.03632,0.0052 0.03369,0.01493 0.0284,0.02364 0.02046,0.03051 0.01124,0.03494 v 0.02292 0 3.037733 0 l -0.0067,0.03639 -0.0151,0.03362 -0.02378,0.02812 -0.03037,0.02055 -0.035,0.01142 -0.02311,0.0019 v 0 h -0.726422 v 0 l -0.03633,0.0052 -0.03367,0.01493 -0.0284,0.02364 -0.02048,0.03051 -0.01124,0.03494 v 0.02292 0 0.528302 0 l 0.01265,0.091 0.03764,0.08397 0.05943,0.0704 0.07614,0.05139 0.08743,0.02839 0.05745,0.0052 v 0 h 1.518866 v 0 l 0.03632,-0.0052 0.03369,-0.01493 0.02839,-0.02364 0.02048,-0.03046 0.01124,-0.03499 v -0.02292 0 -4.028297 0 l 0.0067,-0.03639 0.01528,-0.03362 0.02377,-0.02814 0.03038,-0.02053 0.035,-0.01142 0.02311,-0.0019 v 0 h 2.047169 v 0 l 0.03633,-0.0052 0.03367,-0.01493 0.0284,-0.02364 0.02048,-0.03044 0.01124,-0.035 v -0.02292 0 -0.528302 0 -0.528302 0 l -0.0067,-0.03637 -0.01528,-0.03362 -0.02378,-0.02814 -0.03037,-0.02053 -0.035,-0.01142 -0.02311,-0.0019 v 0 h -2.047242 v 0 l -0.03632,-0.0052 -0.03367,-0.01493 -0.0284,-0.02364 -0.02048,-0.03046 -0.01124,-0.03499 v -0.02292 0 -4.028298 0 l -0.0067,-0.03639 -0.01528,-0.03362 -0.02377,-0.02814 -0.03038,-0.02053 -0.035,-0.01142 -0.02309,-0.0019 v 0 h -1.518884 v 0 l -0.091,0.01282 -0.08394,0.03737 -0.0704,0.0591 -0.0515,0.07619 -0.0284,0.08742 -0.0067,0.05731 v 0 0.528302 0 l 0.0067,0.03639 0.01528,0.03362 0.02376,0.02814 0.03038,0.02053 0.035,0.01142 0.02311,0.0019 v 0 h 0.726404 v 0 l 0.03632,0.0052 0.03369,0.01493 0.02839,0.02364 0.02048,0.03051 0.01124,0.03494 v 0.02292 0 3.037733 0 l -0.0067,0.03639 -0.0151,0.0336 -0.02377,0.02814 -0.03038,0.02053 -0.03499,0.01142 -0.02311,0.0019 v 0 h -4.688696 v 0 l -0.03632,-0.0052 -0.03367,-0.01493 -0.0284,-0.02364 -0.02046,-0.03044 -0.01124,-0.035 v -0.0229 0 -3.03775 0 l 0.0067,-0.03637 0.01528,-0.03362 0.02378,-0.02814 0.03037,-0.02053 0.035,-0.01142 0.02312,-0.0019 v 0 h 0.726422 v 0 l 0.03632,-0.0052 0.03367,-0.01493 0.0284,-0.02364 0.02046,-0.03044 0.01124,-0.035 v -0.02292 0 -0.528302 0 l -0.01265,-0.09102 -0.03764,-0.08396 -0.05943,-0.07039 -0.07621,-0.05139 -0.08736,-0.02839 -0.05745,-0.0052 v 0 h -0.660382 v 0 -2.83963 0 l -0.0067,-0.03638 -0.01528,-0.03362 -0.02376,-0.02814 -0.03038,-0.02053 -0.03499,-0.01142 -0.02312,-0.0019 v 0 h -1.188684 v 0 l -0.03632,-0.0052 -0.03369,-0.01493 -0.02839,-0.02364 -0.0072,-0.0091 v 0 l -0.118801,-0.158496 v 0 l -0.02575,-0.02608 -0.03237,-0.0179 -0.03566,-0.0083 -0.03699,0.0019 -0.03499,0.01194 -0.03038,0.021 -0.01581,0.01757 v 0 l -0.118942,0.158513 v 0 l -0.02575,0.02602 -0.03235,0.0179 -0.03568,0.0083 h -0.01194 v 0 l -0.03631,-0.0052 -0.03369,-0.01493 -0.0284,-0.02364 -0.0072,-0.0091 v 0 L 83.1036,33.526129 v 0 l -0.02576,-0.02608 -0.03235,-0.0179 -0.03565,-0.0083 -0.03699,0.0019 -0.035,0.01194 -0.03037,0.021 -0.01581,0.01757 v 0 l -0.118925,0.158514 v 0 l -0.02575,0.02602 -0.03237,0.0179 -0.03565,0.0083 h -0.01194 v 0 l -0.03632,-0.0052 -0.03367,-0.01493 -0.0284,-0.02364 -0.0072,-0.0091 v 0 l -0.118801,-0.158479 v 0 l -0.02575,-0.02608 -0.03235,-0.0179 -0.03567,-0.0083 -0.03698,0.0019 -0.035,0.01194 -0.03038,0.02099 -0.01581,0.01757 v 0 l -0.118924,0.158514 v 0 l -0.02576,0.02603 -0.03235,0.0179 -0.03565,0.0083 h -0.01194 v 0 l -0.03633,-0.0052 -0.03369,-0.01493 -0.02839,-0.02364 -0.0072,-0.0091 v 0 L 81.781668,33.52516 v 0 l -0.02575,-0.02608 -0.03237,-0.0179 -0.03565,-0.0083 -0.03699,0.0019 -0.03499,0.01194 -0.03038,0.02101 -0.01581,0.01757 v 0 l -0.118942,0.158513 v 0 l -0.02575,0.02602 -0.03237,0.0179 -0.03565,0.0083 h -0.01194 v 0 l -0.03633,-0.0052 -0.03367,-0.01493 -0.0284,-0.02364 -0.0072,-0.0091 v 0 l -0.118802,-0.158496 v 0 l -0.02576,-0.02608 -0.03235,-0.0179 -0.03565,-0.0083 -0.03699,0.0019 -0.035,0.01194 -0.03037,0.021 -0.01581,0.01757 v 0 l -0.118925,0.158513 v 0 l -0.02576,0.02602 -0.03235,0.0179 -0.03565,0.0083 h -0.01194 v 0 l -0.03632,-0.0052 -0.03367,-0.01493 -0.0284,-0.02364 -0.0072,-0.0091 v 0 l -0.118804,-0.159127 v 0 l -0.02575,-0.02608 -0.03236,-0.0179 -0.03567,-0.0083 -0.03697,0.0019 -0.035,0.01194 -0.03038,0.021 -0.01581,0.01757 v 0 l -0.118942,0.158513 v 0 l -0.02575,0.02601 -0.03235,0.0179 -0.03567,0.0083 h -0.01194 v 0 l -0.03632,-0.0052 -0.03369,-0.01493 -0.0284,-0.02364 -0.0072,-0.0091 v 0 l -0.118802,-0.158478 v 0 l -0.02576,-0.02608 -0.03236,-0.0179 -0.03565,-0.0083 -0.03699,0.0019 -0.03499,0.01194 -0.03038,0.02099 -0.01581,0.01757 v 0 l -0.118942,0.158513 v 0 l -0.02575,0.02603 -0.03237,0.0179 -0.03565,0.0083 h -0.01194 v 0 l -0.03632,-0.0052 -0.03367,-0.01493 -0.0284,-0.02364 -0.0072,-0.0091 v 0 l -0.11882,-0.158478 v 0 l -0.02575,-0.02608 -0.03235,-0.0179 -0.03567,-0.0083 -0.03697,0.0019 -0.035,0.01194 -0.03037,0.021 -0.01581,0.01757 v 0 l -0.118925,0.158514 v 0 l -0.02576,0.02602 -0.03236,0.0179 -0.03565,0.0083 h -0.01194 v 0 l -0.03633,-0.0052 -0.03369,-0.01493 -0.02838,-0.02364 -0.0072,-0.0091 v 0 l -0.11885,-0.158665 v 0 l -0.02575,-0.02608 -0.03237,-0.0179 -0.03565,-0.0083 -0.03697,0.0019 -0.035,0.01194 -0.03038,0.021 -0.01581,0.01756 v 0 l -0.118942,0.158514 v 0 l -0.02575,0.02601 -0.03235,0.0179 -0.03567,0.0083 h -0.01194 v 0 l -0.03632,-0.0052 -0.03369,-0.01493 -0.0284,-0.02364 -0.0072,-0.0091 v 0 L 77.815721,33.52136 v 0 l -0.02576,-0.02608 -0.03235,-0.0179 -0.03565,-0.0083 -0.03699,0.0019 -0.035,0.01194 -0.03037,0.021 -0.01581,0.01757 v 0 l -0.118942,0.158514 v 0 l -0.02575,0.02601 -0.03237,0.0179 -0.03565,0.0083 h -0.01194 v 0 l -0.03633,-0.0052 -0.03367,-0.01493 -0.0284,-0.02364 -0.0072,-0.0091 v 0 l -0.118834,-0.15857 v 0 l -0.02575,-0.02608 -0.03235,-0.0179 -0.03567,-0.0083 -0.03698,0.0019 -0.035,0.01194 -0.03037,0.02099 -0.0158,0.01756 v 0 l -0.118925,0.158513 v 0 l -0.02576,0.02603 -0.03235,0.0179 -0.03565,0.0083 h -0.01194 v 0 l -0.03633,-0.0052 -0.03369,-0.01493 -0.02839,-0.02364 -0.0072,-0.0091 v 0 l -0.118802,-0.158479 v 0 l -0.02575,-0.02608 -0.03237,-0.0179 -0.03565,-0.0083 -0.03698,0.0019 -0.035,0.01194 -0.03038,0.021 -0.01581,0.01757 v 0 l -0.118941,0.158513 v 0 l -0.02575,0.02601 -0.03235,0.0179 -0.03567,0.0083 h -0.01194 v 0 l -0.03632,-0.0052 -0.03369,-0.01493 -0.0284,-0.02364 -0.0072,-0.0091 v 0 l -0.118802,-0.158496 v 0 l -0.02576,-0.02608 -0.03236,-0.0179 -0.03565,-0.0083 -0.03699,0.0019 -0.035,0.01194 -0.03037,0.021 -0.01581,0.01757 v 0 l -0.118943,0.158513 v 0 l -0.02575,0.02601 -0.03237,0.0179 -0.03565,0.0083 h -0.01194 v 0 l -0.03633,-0.0052 -0.03367,-0.01493 -0.0284,-0.02364 -0.0072,-0.0091 v 0 l -0.118801,-0.158479 v 0 l -0.02575,-0.02608 -0.03235,-0.0179 -0.03568,-0.0083 -0.03697,0.0019 -0.035,0.01194 -0.03037,0.021 -0.01581,0.01757 v 0 l -0.118925,0.158513 v 0 l -0.02576,0.02601 -0.03236,0.0179 -0.03565,0.0083 h -0.01194 v 0 l -0.03633,-0.0052 -0.03369,-0.01493 -0.02839,-0.02364 -0.0072,-0.0091 v 0 l -0.118802,-0.158478 v 0 l -0.02575,-0.02608 -0.03237,-0.0179 -0.03565,-0.0083 -0.03699,0.0019 -0.03499,0.01194 -0.03038,0.02099 -0.01581,0.01757 v 0 l -0.118942,0.158513 v 0 l -0.02575,0.02603 -0.03235,0.0179 -0.03567,0.0083 h -0.01194 v 0 l -0.0363,-0.0052 -0.03369,-0.01493 -0.0284,-0.02364 -0.0072,-0.0091 v 0 l -0.118801,-0.158479 v 0 l -0.02576,-0.0261 -0.03235,-0.01788 -0.03565,-0.0083 -0.03699,0.0019 -0.035,0.01194 -0.03037,0.021 -0.01581,0.01757 v 0 l -0.118925,0.158513 v 0 l -0.02575,0.02602 -0.03237,0.0179 -0.03565,0.0083 h -0.01194 v 0 l -0.03632,-0.0052 -0.03367,-0.01493 -0.0284,-0.02364 -0.0072,-0.0091 v 0 l -0.118801,-0.158496 v 0 l -0.02575,-0.02608 -0.03235,-0.0179 -0.03568,-0.0083 -0.03697,0.0019 -0.035,0.01194 -0.03038,0.021 -0.01581,0.01757 v 0 l -0.118925,0.158513 v 0 l -0.02576,0.02602 -0.03236,0.0179 -0.03565,0.0083 h -0.01194 v 0 l -0.03632,-0.0052 -0.03369,-0.01493 -0.02839,-0.02364 -0.0072,-0.0091 v 0 l -0.118889,-0.158846 v 0 l -0.02575,-0.02608 -0.03237,-0.0179 -0.03565,-0.0083 -0.03699,0.0019 -0.03498,0.01194 -0.03038,0.021 -0.01581,0.01757 v 0 L 72.1969,33.675558 v 0 l -0.02575,0.02603 -0.03237,0.0179 -0.03565,0.0083 h -0.01194 v 0 l -0.03633,-0.0052 -0.03367,-0.01493 -0.0284,-0.02364 -0.0072,-0.0091 v 0 l -0.118741,-0.158965 v 0 l -0.02576,-0.02608 -0.03235,-0.0179 -0.03565,-0.0083 -0.03699,0.0019 -0.035,0.01194 -0.03037,0.02099 -0.01581,0.01757 v 0 l -0.118924,0.158513 v 0 l -0.02576,0.02603 -0.03236,0.0179 -0.03565,0.0083 h -0.01194 v 0 l -0.03632,-0.0052 -0.03367,-0.01493 -0.0284,-0.02364 -0.0072,-0.0091 v 0 l -0.118802,-0.158479 v 0 l -0.02575,-0.0261 -0.03235,-0.01788 -0.03567,-0.0083 -0.03698,0.0019 -0.035,0.01194 -0.03038,0.021 -0.01581,0.01757 v 0 L 70.87501,33.67411 v 0 l -0.02575,0.02601 -0.03235,0.0179 -0.03567,0.0083 H 70.7693 v 0 l -0.03632,-0.0052 -0.03369,-0.01493 -0.0284,-0.02364 -0.0072,-0.0091 v 0 l -0.118802,-0.158496 v 0 l -0.02576,-0.02608 -0.03235,-0.0179 -0.03565,-0.0083 -0.03699,0.0019 -0.03499,0.01194 -0.03038,0.021 -0.01581,0.01757 v 0 l -0.118942,0.158514 v 0 l -0.02575,0.02602 -0.03237,0.0179 -0.03566,0.0083 h -0.01194 v 0 l -0.03632,-0.0052 -0.03367,-0.01493 -0.0284,-0.02364 -0.0072,-0.0091 v 0 l -0.11882,-0.158478 v 0 l -0.02575,-0.02608 -0.03235,-0.0179 -0.03567,-0.0083 -0.03697,0.0019 -0.035,0.01194 -0.03037,0.02099 -0.01581,0.01758 v 0 l -0.118925,0.158496 v 0 l -0.02576,0.02603 -0.03235,0.0179 -0.03566,0.0083 h -0.01194 v 0 l -0.03632,-0.0052 -0.03369,-0.01493 -0.02839,-0.02364 -0.0072,-0.0091 v 0 L 69.22293,33.513978 v 0 l -0.02575,-0.02608 -0.03237,-0.0179 -0.03565,-0.0083 -0.03697,0.0019 -0.035,0.01194 -0.03038,0.02099 -0.01581,0.01757 v 0 l -0.118942,0.158513 v 0 l -0.02575,0.02603 -0.03236,0.0179 -0.03567,0.0083 h -0.01194 v 0 l -0.03632,-0.0052 -0.03369,-0.01493 -0.0284,-0.02364 -0.0072,-0.0091 v 0 l -0.118781,-0.158572 v 0 l -0.02576,-0.0261 -0.03236,-0.01788 -0.03566,-0.0083 -0.03699,0.0019 -0.035,0.01194 -0.03037,0.021 -0.01581,0.01756 v 0 l -0.118942,0.158514 v 0 l -0.02575,0.02601 -0.03237,0.0179 -0.03565,0.0083 h -0.01194 v 0 l -0.03632,-0.0052 -0.03367,-0.01493 -0.0284,-0.02364 -0.0072,-0.0091 v 0 l -0.118802,-0.158496 v 0 l -0.02575,-0.02608 -0.03235,-0.0179 -0.03567,-0.0083 -0.03698,0.0019 -0.035,0.01194 -0.03037,0.021 -0.01581,0.01757 v 0 l -0.118925,0.158514 v 0 l -0.02576,0.02601 -0.03236,0.0179 -0.03565,0.0083 h -0.01194 v 0 l -0.03632,-0.0052 -0.03369,-0.01493 -0.02839,-0.02364 -0.0072,-0.0091 v 0 L 67.239999,33.51235 v 0 l -0.02575,-0.02608 -0.03237,-0.0179 -0.03565,-0.0083 -0.03698,0.0019 -0.035,0.01194 -0.03038,0.02099 -0.01581,0.01759 v 0 l -0.118943,0.158496 v 0 l -0.02575,0.02603 -0.03235,0.0179 -0.03567,0.0083 h -0.01194 v 0 l -0.03632,-0.0052 -0.03369,-0.01493 -0.0284,-0.02364 -0.0072,-0.0091 v 0 l -0.118803,-0.158478 v 0 l -0.02576,-0.02608 -0.03235,-0.0179 -0.03565,-0.0083 -0.03699,0.0019 -0.035,0.01194 -0.03037,0.02099 -0.01581,0.01757 v 0 l -0.118942,0.158514 v 0 l -0.02575,0.02603 -0.03237,0.01788 -0.03565,0.0083 h -0.01194 v 0 l -0.03632,-0.0052 -0.03367,-0.01493 -0.0284,-0.02364 -0.0072,-0.0091 v 0 l -0.118796,-0.158524 v 0 l -0.02575,-0.0261 -0.03236,-0.0179 -0.03567,-0.0083 -0.03697,0.0019 -0.035,0.01194 -0.03037,0.021 -0.01581,0.01757 v 0 l -0.118924,0.158513 v 0 l -0.02576,0.02602 -0.03236,0.0179 -0.03566,0.0083 h -0.01194 v 0 l -0.03632,-0.0052 -0.03369,-0.01493 -0.02839,-0.02364 -0.0072,-0.0091 v 0 l -0.118802,-0.158496 v 0 l -0.02575,-0.02608 -0.03237,-0.0179 -0.03566,-0.0083 -0.03699,0.0019 -0.03499,0.01194 -0.03038,0.021 -0.01581,0.01757 v 0 l -0.118942,0.158514 v 0 l -0.02575,0.02601 -0.03236,0.0179 -0.03567,0.0083 h -0.01194 v 0 l -0.03631,-0.0052 -0.03369,-0.01493 -0.0284,-0.02364 -0.0072,-0.0091 v 0 L 64.596035,33.5103 v 0 l -0.02576,-0.02608 -0.03235,-0.0179 -0.03565,-0.0083 -0.03699,0.0019 -0.035,0.01194 -0.03037,0.02099 -0.01581,0.01758 v 0 l -0.118925,0.158496 v 0 l -0.02575,0.02603 -0.03237,0.0179 -0.03565,0.0083 h -0.01194 v 0 l -0.03632,-0.0052 -0.03367,-0.01493 -0.0284,-0.02364 -0.0072,-0.0091 v 0 l -0.118938,-0.159167 v 0 l -0.02575,-0.02608 -0.03235,-0.0179 -0.03567,-0.0083 -0.03697,0.0019 -0.035,0.01194 -0.03038,0.02099 -0.01581,0.01757 v 0 l -0.118925,0.158514 v 0 l -0.02576,0.02603 -0.03235,0.01788 -0.03565,0.0083 h -0.01194 v 0 l -0.03632,-0.0052 -0.03369,-0.01493 -0.02839,-0.02364 -0.0072,-0.0091 v 0 l -0.118806,-0.158536 v 0 l -0.02575,-0.0261 -0.03237,-0.0179 -0.03565,-0.0083 -0.03699,0.0019 -0.03498,0.01194 -0.03038,0.021 -0.01581,0.01757 v 0 l -0.118942,0.158513 v 0 l -0.02575,0.02601 -0.03237,0.0179 -0.03565,0.0083 h -0.01194 v 0 l -0.03632,-0.0052 -0.03367,-0.01493 -0.0284,-0.02366 -0.0072,-0.0091 v 0 l -0.118803,-0.158628 v 0 l -0.02576,-0.02608 -0.03236,-0.0179 -0.03565,-0.0083 -0.03699,0.0019 -0.035,0.01194 -0.03037,0.021 -0.01581,0.01757 v 0 l -0.118924,0.158514 v 0 l -0.02576,0.02601 -0.03236,0.0179 -0.03565,0.0083 h -0.01194 v 0 l -0.03632,-0.0052 -0.03367,-0.01493 -0.0284,-0.02364 -0.0072,-0.0091 v 0 l -0.118805,-0.158533 v 0 l -0.02575,-0.02608 -0.03235,-0.0179 -0.03567,-0.0083 -0.03697,0.0019 -0.035,0.01194 -0.03038,0.02099 -0.01581,0.01758 v 0 l -0.118942,0.158496 v 0 l -0.02575,0.02603 -0.03235,0.0179 -0.03567,0.0083 h -0.01194 v 0 l -0.03632,-0.0052 -0.03369,-0.01493 -0.0284,-0.02364 -0.0072,-0.0091 v 0 l -0.118804,-0.158525 v 0 l -0.02575,-0.02608 -0.03237,-0.0179 -0.03565,-0.0083 -0.03699,0.0019 -0.03498,0.01194 -0.03038,0.02099 -0.01581,0.01756 v 0 l -0.118942,0.158513 v 0 l -0.02575,0.02603 -0.03237,0.01788 -0.03565,0.0083 h -0.01194 v 0 l -0.03633,-0.0052 -0.03367,-0.01493 -0.0284,-0.02364 -0.0072,-0.0091 v 0 l -0.118822,-0.158519 v 0 l -0.02575,-0.0261 -0.03236,-0.0179 -0.03567,-0.0083 -0.03697,0.0019 -0.035,0.01194 -0.03037,0.021 -0.01581,0.01757 v 0 l -0.118925,0.158513 v 0 l -0.02576,0.02602 -0.03236,0.0179 -0.03565,0.0083 h -0.01194 v 0 l -0.03632,-0.0052 -0.03369,-0.01493 -0.02839,-0.02364 -0.0072,-0.0091 v 0 l -0.118805,-0.158553 v 0 l -0.02575,-0.02608 -0.03237,-0.0179 -0.03565,-0.0083 -0.03697,0.0019 -0.035,0.01194 -0.03038,0.021 -0.01581,0.01757 v 0 l -0.118943,0.158513 v 0 l -0.02575,0.02602 -0.03236,0.0179 -0.03567,0.0083 h -0.01194 v 0 l -0.03632,-0.0052 -0.03369,-0.01493 -0.0284,-0.02364 -0.0072,-0.0091 v 0 l -0.118889,-0.158542 v 0 l -0.02576,-0.02608 -0.03236,-0.0179 -0.03565,-0.0083 -0.03699,0.0019 -0.035,0.01194 -0.03037,0.02099 -0.01581,0.01759 v 0 l -0.118942,0.158495 v 0 l -0.02575,0.02603 -0.03237,0.0179 -0.03565,0.0083 h -0.01194 v 0 l -0.03633,-0.0052 -0.03367,-0.01493 -0.0284,-0.02364 -0.0072,-0.0091 v 0 L 58.64698,33.504559 v 0 l -0.02575,-0.02608 -0.03236,-0.0179 -0.03567,-0.0083 -0.03697,0.0019 -0.035,0.01194 -0.03037,0.02099 -0.01581,0.01757 v 0 l -0.118924,0.158513 v 0 l -0.02577,0.02602 -0.03236,0.0179 -0.03565,0.0083 h -0.01194 v 0 l -0.03632,-0.0052 -0.03369,-0.01493 -0.02839,-0.02364 -0.0072,-0.0091 v 0 l -0.118805,-0.15855 v 0 l -0.02575,-0.02608 -0.03237,-0.0179 -0.03565,-0.0083 -0.03697,0.0019 -0.035,0.01194 -0.03038,0.021 -0.01581,0.01756 v 0 l -0.118942,0.158513 v 0 l -0.02575,0.02601 -0.03235,0.0179 -0.03567,0.0083 h -0.01194 v 0 l -0.03632,-0.0052 -0.03369,-0.01493 -0.0284,-0.02364 -0.0072,-0.0091 v 0 l -0.118805,-0.15854 v 0 l -0.02576,-0.02608 -0.03236,-0.0179 -0.03565,-0.0083 -0.03699,0.0019 -0.035,0.01194 -0.03037,0.021 -0.01581,0.01756 v 0 l -0.118942,0.158513 v 0 l -0.02575,0.02601 -0.03237,0.0179 -0.03565,0.0083 h -0.01194 v 0 l -0.03632,-0.0052 -0.03367,-0.01493 -0.0284,-0.02364 -0.0072,-0.0091 v 0 l -0.118771,-0.15869 v 0 l -0.02575,-0.02608 -0.03235,-0.0179 -0.03567,-0.0083 -0.03698,0.0019 -0.035,0.01194 -0.03037,0.02099 -0.01581,0.01758 v 0 l -0.118925,0.158496 v 0 l -0.02576,0.02603 -0.03235,0.0179 -0.03565,0.0083 h -0.01194 v 0 l -0.03632,-0.0052 -0.03369,-0.01493 -0.02839,-0.02364 -0.0072,-0.0091 v 0 l -0.11879,-0.158547 v 0 l -0.02575,-0.02608 -0.03237,-0.0179 -0.03565,-0.0083 -0.03699,0.0019 -0.03498,0.01194 -0.03038,0.021 -0.01581,0.01756 v 0 l -0.118942,0.158514 v 0 l -0.02575,0.02602 -0.03236,0.0179 -0.03567,0.0083 h -0.01194 v 0 l -0.0363,-0.0052 -0.03369,-0.01493 -0.0284,-0.02364 -0.0072,-0.0091 v 0 l -0.118803,-0.158544 v 0 l -0.02576,-0.02608 -0.03236,-0.0179 -0.03565,-0.0083 -0.03699,0.0019 -0.035,0.01194 -0.03037,0.021 -0.01581,0.01757 v 0 l -0.118925,0.15859 v 0 l -0.02575,0.02601 -0.03237,0.0179 -0.03565,0.0083 h -0.01194 v 0 l -0.03633,-0.0052 -0.03367,-0.01493 -0.0284,-0.02364 -0.0072,-0.0091 v 0 l -0.118801,-0.15862 v 0 l -0.02575,-0.02608 -0.03235,-0.0179 -0.03567,-0.0083 -0.03698,0.0019 -0.035,0.01194 -0.03038,0.021 -0.01581,0.01757 v 0 L 54.35028,33.65967 v 0 l -0.02577,0.02601 -0.03236,0.0179 -0.03565,0.0083 h -0.01194 v 0 l -0.03632,-0.0052 -0.03369,-0.01493 -0.02839,-0.02364 -0.0072,-0.0091 v 0 l -0.118788,-0.158532 v 0 l -0.02575,-0.02608 -0.03237,-0.0179 -0.03565,-0.0083 -0.03699,0.0019 -0.03498,0.01194 -0.03038,0.02099 -0.01581,0.01757 v 0 L 53.6893,33.659111 v 0 l -0.02575,0.02603 -0.03236,0.0179 -0.03567,0.0083 h -0.01194 v 0 l -0.03633,-0.0052 -0.03367,-0.01493 -0.0284,-0.02364 -0.0072,-0.0091 v 0 l -0.118868,-0.158582 v 0 l -0.02576,-0.02608 -0.03235,-0.0179 -0.03565,-0.0083 -0.03699,0.0019 -0.035,0.01194 -0.03037,0.021 -0.01581,0.01756 v 0 l -0.118925,0.158513 v 0 l -0.02576,0.02601 -0.03236,0.0179 -0.03565,0.0083 h -0.01194 v 0 l -0.03633,-0.0052 -0.03367,-0.01493 -0.0284,-0.02364 -0.0072,-0.0091 v 0 l -0.118805,-0.15854 v 0 l -0.02575,-0.02608 -0.03236,-0.0179 -0.03567,-0.0083 -0.03698,0.0019 -0.035,0.01194 -0.03038,0.021 -0.01581,0.01756 v 0 l -0.118947,0.158513 v 0 l -0.02575,0.02601 -0.03236,0.0179 -0.03567,0.0083 h -0.01194 v 0 l -0.03632,-0.0052 -0.03369,-0.01493 -0.0284,-0.02364 -0.0072,-0.0091 v 0 L 52.03711,33.498762 v 0 l -0.02575,-0.02608 -0.03237,-0.0179 -0.03565,-0.0083 -0.03699,0.0019 -0.03498,0.01194 -0.03038,0.021 -0.01581,0.01756 v 0 l -0.118942,0.158513 v 0 l -0.02575,0.02602 -0.03237,0.0179 -0.03565,0.0083 h -0.01194 v 0 l -0.03632,-0.0052 -0.03367,-0.01493 -0.0284,-0.02364 -0.0072,-0.0091 v 0 L 51.37613,33.498142 v 0 l -0.02576,-0.02608 -0.03235,-0.0179 -0.03567,-0.0083 -0.03698,0.0019 -0.035,0.01194 -0.03037,0.02099 -0.01581,0.01757 v 0 l -0.118925,0.158514 v 0 l -0.02576,0.02603 -0.03235,0.0179 -0.03565,0.0083 h -0.01194 v 0 l -0.03632,-0.0052 -0.03369,-0.01493 -0.02839,-0.02364 -0.0072,-0.0091 v 0 l -0.11883,-0.158478 v 0 l -0.02575,-0.02608 -0.03237,-0.0179 -0.03565,-0.0083 -0.03697,0.0019 -0.035,0.01194 -0.03038,0.021 -0.01581,0.01757 v 0 l -0.118942,0.158514 v 0 l -0.02575,0.02601 -0.03236,0.0179 -0.03567,0.0083 h -0.01194 v 0 l -0.03632,-0.0052 -0.03369,-0.01493 -0.0284,-0.02364 -0.0072,-0.0091 v 0 l -0.118802,-0.158495 v 0 l -0.02577,-0.02608 -0.03235,-0.0179 -0.03565,-0.0083 -0.03699,0.0019 -0.03499,0.01194 -0.03039,0.021 -0.01581,0.01756 v 0 l -0.118942,0.158513 v 0 l -0.02575,0.02601 -0.03237,0.0179 -0.03566,0.0083 h -0.01194 v 0 l -0.03632,-0.0052 -0.03367,-0.01493 -0.0284,-0.02364 -0.0072,-0.0091 v 0 l -0.118791,-0.158682 v 0 l -0.02575,-0.02608 -0.03235,-0.0179 -0.03567,-0.0083 -0.03697,0.0019 -0.035,0.01194 -0.03037,0.021 -0.01581,0.01757 v 0 l -0.118924,0.158514 v 0 l -0.02577,0.02601 -0.03235,0.0179 -0.03565,0.0083 h -0.01194 v 0 l -0.03632,-0.0052 -0.03369,-0.01493 -0.02838,-0.02364 -0.0072,-0.0091 v 0 l -0.118801,-0.158499 v 0 l -0.02575,-0.02608 -0.03237,-0.0179 -0.03565,-0.0083 -0.03697,0.0019 -0.035,0.01194 -0.03039,0.02099 -0.01581,0.01756 v 0 l -0.118942,0.158514 v 0 l -0.02575,0.02603 -0.03235,0.0179 -0.03567,0.0083 h -0.01194 v 0 l -0.03632,-0.0052 -0.03369,-0.01493 -0.0284,-0.02364 -0.0072,-0.0091 v 0 l -0.118804,-0.158592 v 0 l -0.02577,-0.02608 -0.03235,-0.0179 -0.03565,-0.0083 -0.03699,0.0019 -0.035,0.01194 -0.03037,0.021 -0.01581,0.01757 v 0 l -0.118942,0.158513 v 0 l -0.02575,0.02601 -0.03237,0.0179 -0.03565,0.0083 h -0.01194 v 0 l -0.03632,-0.0052 -0.03367,-0.01493 -0.0284,-0.02364 -0.0072,-0.0091 v 0 l -0.118801,-0.158496 v 0 l -0.02575,-0.02608 -0.03235,-0.0179 -0.03567,-0.0083 -0.03697,0.0019 -0.035,0.01194 -0.03037,0.02101 -0.01581,0.01756 v 0 l -0.118925,0.158514 v 0 l -0.02577,0.02601 -0.03235,0.0179 -0.03565,0.0083 h -0.01194 v 0 l -0.03632,-0.0052 -0.03369,-0.01493 -0.02838,-0.02364 -0.0072,-0.0091 v 0 l -0.118802,-0.15851 v 0 l -0.02575,-0.02608 -0.03237,-0.0179 -0.03565,-0.0083 -0.03699,0.0019 -0.03499,0.01194 -0.03038,0.021 -0.01581,0.01756 v 0 l -0.118942,0.158495 v 0 l -0.02575,0.02603 -0.03235,0.0179 -0.03567,0.0083 h -0.01194 v 0 l -0.0363,-0.0052 -0.03369,-0.01493 -0.0284,-0.02364 -0.0072,-0.0091 v 0 l -0.118802,-0.1585 v 0 l -0.02577,-0.02608 -0.03235,-0.0179 -0.03565,-0.0083 -0.03699,0.0019 -0.03501,0.01194 -0.03037,0.02099 v 0.0017 0 l -1.518866,1.452844 v 0 l -0.02311,0.02886 -0.01387,0.034 -0.0067,0.03652 0.0067,0.03627 0.01581,0.03314 0.02443,0.02747 0.03104,0.01962 0.035,0.01036 0.01915,0.0017 v 0 h 39.160388 v 0 l 0.09107,0.01282 0.08394,0.03737 0.0704,0.0591 0.05151,0.07619 0.02839,0.08742 0.0067,0.05731"
       stroke="#c0c0c0"
       stroke-width="0"
       stroke-opacity="1"
       fill="#c0c0c0"
       fill-rule="evenodd"
       fill-opacity="1"
       id="path752" />
    <path
       d="m 125.59686,35.520897 v 13.933957 0 l -0.007,0.03639 -0.0151,0.03362 -0.0238,0.02814 -0.0303,0.02053 -0.035,0.01142 -0.0231,0.0019 v 0 h -1.0566 v 0 l -0.0363,-0.0052 -0.0337,-0.01493 -0.0284,-0.02364 -0.0205,-0.03046 -0.0112,-0.03499 v -0.02292 0 -2.707551 0 l -0.007,-0.03639 -0.0153,-0.0336 -0.0238,-0.02814 -0.0304,-0.02053 -0.035,-0.01142 -0.0231,-0.0019 v 0 h -0.52831 v 0 l -0.091,-0.01282 -0.0839,-0.03737 -0.0704,-0.0591 -0.0515,-0.07621 -0.0284,-0.0874 -0.007,-0.05733 v 0 -0.528302 0 l 0.007,-0.03637 0.0151,-0.03362 0.0238,-0.02814 0.0304,-0.02053 0.035,-0.01142 0.0231,-0.0019 v 0 h 0.72643 v 0 l 0.0363,-0.0052 0.0337,-0.01493 0.0284,-0.02364 0.0205,-0.03046 0.0112,-0.03499 v -0.02292 0 -3.037732 0 l -0.007,-0.03639 -0.0153,-0.03362 -0.0238,-0.02812 -0.0304,-0.02055 -0.035,-0.01142 -0.0231,-0.0019 v 0 h -4.6887 v 0 l -0.0363,0.0052 -0.0337,0.01493 -0.0284,0.02364 -0.0204,0.03051 -0.0112,0.03494 v 0.02292 0 3.037733 0 l 0.007,0.03639 0.0153,0.03362 0.0238,0.02812 0.0303,0.02055 0.035,0.01142 0.0231,0.0019 v 0 h 0.72643 v 0 l 0.0363,0.0052 0.0337,0.01493 0.0284,0.02364 0.0205,0.03051 0.0112,0.03494 v 0.02292 0 0.528302 0 l -0.0127,0.091 -0.0376,0.08397 -0.0594,0.0704 -0.0762,0.05139 -0.0874,0.02839 -0.0574,0.0052 v 0 h -1.51887 v 0 l -0.0363,-0.0052 -0.0337,-0.01493 -0.0284,-0.02364 -0.0204,-0.03046 -0.0112,-0.03499 v -0.02292 0 -4.028297 0 l -0.007,-0.03639 -0.0151,-0.03362 -0.0238,-0.02814 -0.0303,-0.02053 -0.035,-0.01142 -0.0231,-0.0019 v 0 h -2.04716 v 0 l -0.0363,-0.0052 -0.0337,-0.01493 -0.0284,-0.02364 -0.0205,-0.03044 -0.0112,-0.035 v -0.02292 0 -0.528302 0 -0.528302 0 l 0.007,-0.03637 0.0153,-0.03362 0.0238,-0.02814 0.0304,-0.02053 0.035,-0.01142 0.0231,-0.0019 v 0 h 2.04717 v 0 l 0.0363,-0.0052 0.0337,-0.01493 0.0284,-0.02364 0.0205,-0.03046 0.0112,-0.03499 v -0.02292 0 -4.028298 0 l 0.007,-0.03639 0.0151,-0.03362 0.0238,-0.02814 0.0304,-0.02053 0.035,-0.01142 0.0231,-0.0019 v 0 h 1.51887 v 0 l 0.0911,0.01282 0.0839,0.03737 0.0704,0.0591 0.0515,0.07619 0.0284,0.08742 0.007,0.05731 v 0 0.528302 0 l -0.007,0.03639 -0.0153,0.03362 -0.0238,0.02814 -0.0303,0.02053 -0.035,0.01142 -0.0231,0.0019 v 0 h -0.72645 v 0 l -0.0363,0.0052 -0.0337,0.01493 -0.0284,0.02364 -0.0204,0.03051 -0.0112,0.03494 v 0.02292 0 3.037733 0 l 0.007,0.03639 0.0153,0.0336 0.0238,0.02814 0.0303,0.02053 0.035,0.01142 0.0231,0.0019 v 0 h 4.68868 v 0 l 0.0363,-0.0052 0.0337,-0.01493 0.0284,-0.02364 0.0205,-0.03044 0.0112,-0.035 v -0.0229 0 -3.03775 0 l -0.007,-0.03637 -0.0153,-0.03362 -0.0238,-0.02814 -0.0304,-0.02053 -0.035,-0.01142 -0.0231,-0.0019 v 0 h -0.72642 v 0 l -0.0363,-0.0052 -0.0337,-0.01493 -0.0284,-0.02364 -0.0205,-0.03044 -0.0112,-0.035 v -0.02292 0 -0.528302 0 l 0.0125,-0.09102 0.0376,-0.08396 0.0594,-0.07039 0.0761,-0.05139 0.0874,-0.02839 0.0574,-0.0052 v 0 h 0.66036 v 0 -2.83963 0 l 0.007,-0.03638 0.0151,-0.03362 0.0238,-0.02814 0.0303,-0.02053 0.035,-0.01142 0.0231,-0.0019 v 0 h 1.18869 v 0 l 0.0363,-0.0052 0.0337,-0.01493 0.0284,-0.02364 0.007,-0.0091 v 0 l 0.11885,-0.158496 v 0 l 0.0258,-0.02608 0.0323,-0.0179 0.0356,-0.0083 0.037,0.0019 0.035,0.01194 0.0303,0.021 0.0158,0.01757 v 0 l 0.11895,0.158248 v 0 l 0.0258,0.02602 0.0324,0.0179 0.0357,0.0083 h 0.0119 v 0 l 0.0363,-0.0052 0.0337,-0.01493 0.0284,-0.02364 0.007,-0.0091 v 0 l 0.11886,-0.158496 v 0 l 0.0258,-0.02608 0.0323,-0.0179 0.0357,-0.0083 0.037,0.0019 0.035,0.01194 0.0303,0.021 0.0158,0.01757 v 0 l 0.11892,0.158514 v 0 l 0.0258,0.02602 0.0323,0.0179 0.0357,0.0083 h 0.0119 v 0 l 0.0363,-0.0052 0.0337,-0.01493 0.0284,-0.02364 0.007,-0.0091 v 0 l 0.11888,-0.158479 v 0 l 0.0258,-0.02608 0.0323,-0.0179 0.0357,-0.0083 0.037,0.0019 0.035,0.01194 0.0303,0.02099 0.0158,0.01757 v 0 l 0.11892,0.158514 v 0 l 0.0258,0.02603 0.0323,0.0179 0.0357,0.0083 h 0.0119 v 0 l 0.0363,-0.0052 0.0337,-0.01493 0.0284,-0.02364 0.007,-0.0091 v 0 l 0.11887,-0.158478 v 0 l 0.0258,-0.02608 0.0323,-0.0179 0.0357,-0.0083 0.037,0.0019 0.035,0.01194 0.0304,0.02101 0.0158,0.01757 v 0 l 0.11893,0.158513 v 0 l 0.0258,0.02602 0.0323,0.0179 0.0357,0.0083 h 0.0119 v 0 l 0.0363,-0.0052 0.0337,-0.01493 0.0284,-0.02364 0.007,-0.0091 v 0 l 0.11887,-0.158496 v 0 l 0.0258,-0.02608 0.0323,-0.0179 0.0357,-0.0083 0.037,0.0019 0.035,0.01194 0.0304,0.021 0.0158,0.01757 v 0 l 0.11895,0.158513 v 0 l 0.0258,0.02602 0.0323,0.0179 0.0357,0.0083 h 0.0119 v 0 l 0.0363,-0.0052 0.0337,-0.01493 0.0284,-0.02364 0.007,-0.0091 v 0 l 0.11887,-0.158496 v 0 l 0.0258,-0.02608 0.0324,-0.0179 0.0357,-0.0083 0.037,0.0019 0.035,0.01194 0.0304,0.021 0.0158,0.01757 v 0 l 0.11894,0.158513 v 0 l 0.0258,0.02601 0.0323,0.0179 0.0357,0.0083 h 0.012 v 0 l 0.0363,-0.0052 0.0337,-0.01493 0.0284,-0.02364 0.007,-0.0091 v 0 l 0.11887,-0.158478 v 0 l 0.0258,-0.02608 0.0324,-0.0179 0.0357,-0.0083 0.037,0.0019 0.035,0.01194 0.0304,0.02099 0.0158,0.01757 v 0 l 0.11894,0.158513 v 0 l 0.0258,0.02603 0.0323,0.0179 0.0357,0.0083 h 0.0119 v 0 l 0.0363,-0.0052 0.0337,-0.01493 0.0284,-0.02364 0.007,-0.0091 v 0 l 0.11887,-0.158478 v 0 l 0.0258,-0.02608 0.0324,-0.0179 0.0357,-0.0083 0.037,0.0019 0.035,0.01194 0.0304,0.021 0.0158,0.01757 v 0 l 0.11895,0.158514 v 0 l 0.0258,0.02602 0.0324,0.0179 0.0357,0.0083 h 0.0119 v 0 l 0.0363,-0.0052 0.0337,-0.01493 0.0284,-0.02364 0.007,-0.0091 v 0 l 0.11891,-0.159031 v 0 l 0.0258,-0.02608 0.0323,-0.0179 0.0357,-0.0083 0.037,0.0019 0.035,0.01194 0.0303,0.021 0.0158,0.01756 v 0 l 0.11894,0.158514 v 0 l 0.0258,0.02601 0.0324,0.0179 0.0356,0.0083 h 0.012 v 0 l 0.0363,-0.0052 0.0337,-0.01493 0.0284,-0.02364 0.007,-0.0091 v 0 l 0.11886,-0.158496 v 0 l 0.0258,-0.02608 0.0323,-0.0179 0.0357,-0.0083 0.037,0.0019 0.035,0.01194 0.0303,0.021 0.0158,0.01757 v 0 l 0.11892,0.158514 v 0 l 0.0258,0.02601 0.0324,0.0179 0.0357,0.0083 h 0.012 v 0 l 0.0363,-0.0052 0.0337,-0.01493 0.0284,-0.02364 0.007,-0.0091 v 0 l 0.11885,-0.158478 v 0 l 0.0258,-0.02608 0.0323,-0.0179 0.0357,-0.0083 0.037,0.0019 0.035,0.01194 0.0303,0.02099 0.0158,0.01756 v 0 l 0.11893,0.158513 v 0 l 0.0258,0.02603 0.0323,0.0179 0.0357,0.0083 h 0.012 v 0 l 0.0363,-0.0052 0.0337,-0.01493 0.0284,-0.02364 0.007,-0.0091 v 0 l 0.11887,-0.158479 v 0 l 0.0258,-0.02608 0.0323,-0.0179 0.0357,-0.0083 0.037,0.0019 0.035,0.01194 0.0303,0.021 0.0158,0.01757 v 0 l 0.11893,0.158513 v 0 l 0.0258,0.02601 0.0323,0.0179 0.0357,0.0083 h 0.012 v 0 l 0.0363,-0.0052 0.0337,-0.01493 0.0284,-0.02364 0.007,-0.0091 v 0 l 0.11887,-0.158496 v 0 l 0.0258,-0.02608 0.0323,-0.0179 0.0357,-0.0083 0.037,0.0019 0.035,0.01194 0.0304,0.021 0.0158,0.01757 v 0 l 0.11892,0.158513 v 0 l 0.0258,0.02601 0.0323,0.0179 0.0357,0.0083 h 0.0119 v 0 l 0.0363,-0.0052 0.0337,-0.01493 0.0284,-0.02364 0.007,-0.0091 v 0 l 0.11887,-0.158479 v 0 l 0.0258,-0.02608 0.0324,-0.0179 0.0357,-0.0083 0.037,0.0019 0.035,0.01194 0.0304,0.021 0.0158,0.01757 v 0 l 0.11894,0.158513 v 0 l 0.0258,0.02601 0.0323,0.0179 0.0357,0.0083 h 0.012 v 0 l 0.0363,-0.0052 0.0337,-0.01493 0.0284,-0.02364 0.007,-0.0091 v 0 l 0.11887,-0.158478 v 0 l 0.0258,-0.02608 0.0324,-0.0179 0.0357,-0.0083 0.037,0.0019 0.035,0.01194 0.0304,0.02099 0.0158,0.01757 v 0 l 0.11894,0.158513 v 0 l 0.0258,0.02603 0.0323,0.0179 0.0356,0.0083 h 0.012 v 0 l 0.0363,-0.0052 0.0337,-0.01493 0.0284,-0.02364 0.007,-0.0091 v 0 l 0.11888,-0.158479 v 0 l 0.0258,-0.0261 0.0324,-0.01788 0.0357,-0.0083 0.037,0.0019 0.035,0.01194 0.0304,0.021 0.0158,0.01757 v 0 l 0.11893,0.158513 v 0 l 0.0258,0.02602 0.0323,0.0179 0.0357,0.0083 h 0.0119 v 0 l 0.0363,-0.0052 0.0337,-0.01493 0.0284,-0.02364 0.007,-0.0091 v 0 l 0.11888,-0.158496 v 0 l 0.0258,-0.02608 0.0323,-0.0179 0.0357,-0.0083 0.037,0.0019 0.035,0.01194 0.0304,0.021 0.0158,0.01757 v 0 l 0.11893,0.158513 v 0 l 0.0258,0.02602 0.0324,0.0179 0.0356,0.0083 h 0.012 v 0 l 0.0363,-0.0052 0.0337,-0.01493 0.0284,-0.02364 0.007,-0.0091 v 0 l 0.11886,-0.158479 v 0 l 0.0258,-0.02608 0.0323,-0.0179 0.0357,-0.0083 0.037,0.0019 0.035,0.01194 0.0303,0.021 0.0158,0.01757 v 0 l 0.11893,0.158496 v 0 l 0.0258,0.02603 0.0324,0.0179 0.0357,0.0083 h 0.012 v 0 l 0.0363,-0.0052 0.0337,-0.01493 0.0284,-0.02364 0.007,-0.0091 v 0 l 0.11885,-0.158478 v 0 l 0.0258,-0.02608 0.0323,-0.0179 0.0357,-0.0083 0.037,0.0019 0.035,0.01194 0.0303,0.02099 0.0158,0.01757 v 0 l 0.11892,0.158514 v 0 l 0.0258,0.02603 0.0323,0.0179 0.0356,0.0083 h 0.012 v 0 l 0.0363,-0.0052 0.0337,-0.01493 0.0284,-0.02364 0.007,-0.0091 v 0 l 0.11888,-0.158479 v 0 l 0.0258,-0.0261 0.0323,-0.01788 0.0357,-0.0083 0.037,0.0019 0.035,0.01194 0.0303,0.021 0.0158,0.01756 v 0 l 0.11892,0.158513 v 0 l 0.0258,0.02601 0.0323,0.0179 0.0356,0.0083 h 0.012 v 0 l 0.0363,-0.0052 0.0337,-0.01493 0.0284,-0.02364 0.007,-0.0091 v 0 l 0.11887,-0.158495 v 0 l 0.0258,-0.02608 0.0323,-0.0179 0.0356,-0.0083 0.037,0.0019 0.035,0.01194 0.0303,0.021 0.0158,0.01757 v 0 l 0.11893,0.158514 v 0 l 0.0258,0.02602 0.0323,0.0179 0.0357,0.0083 h 0.0119 v 0 l 0.0363,-0.0052 0.0337,-0.01493 0.0284,-0.02364 0.007,-0.0091 v 0 l 0.11887,-0.158479 v 0 l 0.0258,-0.02608 0.0323,-0.0179 0.0357,-0.0083 0.037,0.0019 0.035,0.01194 0.0304,0.02099 0.0158,0.01759 v 0 l 0.11894,0.158496 v 0 l 0.0258,0.02603 0.0323,0.0179 0.0357,0.0083 h 0.0119 v 0 l 0.0363,-0.0052 0.0337,-0.01493 0.0284,-0.02364 0.007,-0.0091 v 0 l 0.11887,-0.158478 v 0 l 0.0258,-0.02608 0.0324,-0.0179 0.0357,-0.0083 0.037,0.0019 0.035,0.01194 0.0304,0.02099 0.0158,0.01757 v 0 l 0.11895,0.158513 v 0 l 0.0258,0.02603 0.0323,0.0179 0.0357,0.0083 h 0.012 v 0 l 0.0363,-0.0052 0.0337,-0.01493 0.0284,-0.02364 0.007,-0.0091 v 0 l 0.11887,-0.158478 v 0 l 0.0258,-0.0261 0.0324,-0.01788 0.0357,-0.0083 0.037,0.0019 0.035,0.01194 0.0304,0.021 0.0158,0.01757 v 0 l 0.11894,0.158513 v 0 l 0.0258,0.02601 0.0323,0.0179 0.0357,0.0083 h 0.0119 v 0 l 0.0363,-0.0052 0.0337,-0.01493 0.0284,-0.02364 0.007,-0.0091 v 0 l 0.11887,-0.158496 v 0 l 0.0258,-0.02608 0.0324,-0.0179 0.0357,-0.0083 0.037,0.0019 0.035,0.01194 0.0304,0.021 0.0158,0.01756 v 0 l 0.11894,0.158514 v 0 l 0.0258,0.02601 0.0324,0.0179 0.0357,0.0083 h 0.0119 v 0 l 0.0363,-0.0052 0.0337,-0.01493 0.0284,-0.02364 0.007,-0.0091 v 0 l 0.11887,-0.158479 v 0 l 0.0258,-0.02608 0.0323,-0.0179 0.0357,-0.0083 0.037,0.0019 0.035,0.01194 0.0303,0.02099 0.0158,0.01758 v 0 l 0.11894,0.158496 v 0 l 0.0258,0.02603 0.0324,0.0179 0.0357,0.0083 h 0.0119 v 0 l 0.0363,-0.0052 0.0337,-0.01493 0.0284,-0.02364 0.007,-0.0091 v 0 l 0.11886,-0.158479 v 0 l 0.0258,-0.02608 0.0323,-0.0179 0.0357,-0.0083 0.037,0.0019 0.035,0.01194 0.0303,0.02099 0.0158,0.01756 v 0 l 0.11892,0.158514 v 0 l 0.0258,0.02603 0.0324,0.01788 0.0357,0.0083 h 0.0119 v 0 l 0.0363,-0.0052 0.0337,-0.01493 0.0284,-0.02364 0.007,-0.0091 v 0 l 0.11885,-0.158479 v 0 l 0.0258,-0.0261 0.0323,-0.0179 0.0357,-0.0083 0.037,0.0019 0.035,0.01194 0.0303,0.021 0.0158,0.01757 v 0 l 0.11893,0.158514 v 0 l 0.0258,0.02602 0.0323,0.0179 0.0357,0.0083 h 0.0119 v 0 l 0.0363,-0.0052 0.0337,-0.01493 0.0284,-0.02364 0.007,-0.0091 v 0 l 0.11887,-0.158496 v 0 l 0.0258,-0.02608 0.0323,-0.0179 0.0357,-0.0083 0.037,0.0019 0.035,0.01194 0.0303,0.021 0.0158,0.01757 v 0 l 0.11893,0.158514 v 0 l 0.0258,0.02601 0.0323,0.0179 0.0357,0.0083 h 0.0119 v 0 l 0.0363,-0.0052 0.0337,-0.01493 0.0284,-0.02364 0.007,-0.0091 v 0 l 0.11887,-0.158479 v 0 l 0.0258,-0.02608 0.0323,-0.0179 0.0357,-0.0083 0.037,0.0019 0.035,0.01194 0.0304,0.02099 0.0158,0.01759 v 0 l 0.11892,0.158496 v 0 l 0.0258,0.02603 0.0323,0.0179 0.0357,0.0083 h 0.012 v 0 l 0.0363,-0.0052 0.0337,-0.01493 0.0284,-0.02364 0.007,-0.0091 v 0 l 0.11887,-0.158479 v 0 l 0.0258,-0.02608 0.0324,-0.0179 0.0356,-0.0083 0.037,0.0019 0.035,0.01194 0.0304,0.02099 0.0158,0.01757 v 0 l 0.11895,0.158514 v 0 l 0.0258,0.02603 0.0323,0.01788 0.0357,0.0083 h 0.0119 v 0 l 0.0363,-0.0052 0.0337,-0.01493 0.0284,-0.02364 0.007,-0.0091 v 0 l 0.11887,-0.158478 v 0 l 0.0258,-0.0261 0.0324,-0.0179 0.0357,-0.0083 0.037,0.0019 0.035,0.01194 0.0304,0.021 0.0158,0.01756 v 0 l 0.11895,0.158514 v 0 l 0.0258,0.02601 0.0323,0.0179 0.0357,0.0083 h 0.012 v 0 l 0.0363,-0.0052 0.0337,-0.01493 0.0284,-0.02366 0.007,-0.0091 v 0 l 0.11887,-0.158496 v 0 l 0.0258,-0.02608 0.0324,-0.0179 0.0356,-0.0083 0.037,0.0019 0.035,0.01194 0.0304,0.021 0.0158,0.01757 v 0 l 0.11894,0.158513 v 0 l 0.0258,0.02601 0.0323,0.0179 0.0357,0.0083 h 0.0119 v 0 l 0.0363,-0.0052 0.0337,-0.01493 0.0284,-0.02364 0.007,-0.0091 v 0 l 0.11887,-0.158478 v 0 l 0.0258,-0.02608 0.0323,-0.0179 0.0357,-0.0083 0.037,0.0019 0.035,0.01194 0.0304,0.02099 0.0158,0.01759 v 0 l 0.11894,0.158496 v 0 l 0.0258,0.02603 0.0324,0.0179 0.0357,0.0083 h 0.012 v 0 l 0.0363,-0.0052 0.0337,-0.01493 0.0284,-0.02364 0.007,-0.0091 v 0 l 0.11865,-0.159821 v 0 l 0.0258,-0.02608 0.0323,-0.0179 0.0357,-0.0083 0.037,0.0019 0.035,0.01194 0.0303,0.02099 0.0158,0.01757 v 0 l 0.11894,0.158513 v 0 l 0.0258,0.02603 0.0324,0.01788 0.0357,0.0083 h 0.0119 v 0 l 0.0363,-0.0052 0.0337,-0.01493 0.0284,-0.02364 0.007,-0.0091 v 0 l 0.11886,-0.158478 v 0 l 0.0258,-0.0261 0.0323,-0.0179 0.0357,-0.0083 0.037,0.0019 0.035,0.01194 0.0303,0.021 0.0158,0.01757 v 0 l 0.11892,0.158513 v 0 l 0.0258,0.02602 0.0324,0.0179 0.0356,0.0083 h 0.012 v 0 l 0.0363,-0.0052 0.0337,-0.01493 0.0284,-0.02364 0.007,-0.0091 v 0 l 0.11887,-0.158496 v 0 l 0.0258,-0.02608 0.0323,-0.0179 0.0356,-0.0083 0.037,0.0019 0.035,0.01194 0.0303,0.021 0.0158,0.01757 v 0 l 0.11893,0.158513 v 0 l 0.0258,0.02602 0.0323,0.0179 0.0356,0.0083 h 0.012 v 0 l 0.0363,-0.0052 0.0337,-0.01493 0.0284,-0.02364 0.007,-0.0091 v 0 l 0.11887,-0.158478 v 0 l 0.0258,-0.02608 0.0323,-0.0179 0.0356,-0.0083 0.037,0.0019 0.035,0.01194 0.0303,0.02099 0.0158,0.01759 v 0 l 0.11893,0.158496 v 0 l 0.0258,0.02603 0.0323,0.0179 0.0356,0.0083 h 0.012 v 0 l 0.0363,-0.0052 0.0337,-0.01493 0.0284,-0.02364 0.007,-0.0091 v 0 l 0.11887,-0.158478 v 0 l 0.0258,-0.02608 0.0323,-0.0179 0.0356,-0.0083 0.037,0.0019 0.035,0.01194 0.0304,0.02099 0.0158,0.01757 v 0 l 0.11892,0.158513 v 0 l 0.0258,0.02602 0.0323,0.0179 0.0357,0.0083 h 0.012 v 0 l 0.0363,-0.0052 0.0337,-0.01493 0.0284,-0.02364 0.007,-0.0091 v 0 l 0.11888,-0.158496 v 0 l 0.0258,-0.02608 0.0324,-0.0179 0.0357,-0.0083 0.037,0.0019 0.035,0.01194 0.0304,0.021 0.0158,0.01756 v 0 l 0.11893,0.158514 v 0 l 0.0258,0.02601 0.0323,0.0179 0.0357,0.0083 h 0.0119 v 0 l 0.0363,-0.0052 0.0337,-0.01493 0.0284,-0.02364 0.007,-0.0091 v 0 l 0.11888,-0.158496 v 0 l 0.0258,-0.02608 0.0324,-0.0179 0.0357,-0.0083 0.037,0.0019 0.035,0.01194 0.0304,0.021 0.0158,0.01757 v 0 l 0.11894,0.158513 v 0 l 0.0258,0.02601 0.0323,0.0179 0.0357,0.0083 h 0.012 v 0 l 0.0363,-0.0052 0.0337,-0.01493 0.0284,-0.02364 0.007,-0.0091 v 0 l 0.11887,-0.158479 v 0 l 0.0258,-0.02608 0.0324,-0.0179 0.0356,-0.0083 0.037,0.0019 0.035,0.01194 0.0304,0.02099 0.0158,0.01758 v 0 l 0.11895,0.158495 v 0 l 0.0258,0.02603 0.0324,0.0179 0.0357,0.0083 h 0.0119 v 0 l 0.0363,-0.0052 0.0337,-0.01493 0.0284,-0.02364 0.007,-0.0091 v 0 l 0.11887,-0.158478 v 0 l 0.0258,-0.02608 0.0323,-0.0179 0.0357,-0.0083 0.037,0.0019 0.035,0.01194 0.0303,0.021 0.0158,0.01757 v 0 l 0.11894,0.158514 v 0 l 0.0258,0.02602 0.0324,0.0179 0.0357,0.0083 h 0.0119 v 0 l 0.0363,-0.0052 0.0337,-0.01493 0.0284,-0.02364 0.007,-0.0091 v 0 l 0.11885,-0.158496 v 0 l 0.0258,-0.02608 0.0323,-0.0179 0.0356,-0.0083 0.037,0.0019 0.035,0.01194 0.0303,0.021 0.0158,0.01757 v 0 l 0.11893,0.158514 v 0 l 0.0258,0.02601 0.0324,0.0179 0.0356,0.0083 h 0.0119 v 0 l 0.0363,-0.0052 0.0337,-0.01493 0.0284,-0.02364 0.007,-0.0091 v 0 l 0.11886,-0.158496 v 0 l 0.0258,-0.02608 0.0323,-0.0179 0.0357,-0.0083 0.037,0.0019 0.035,0.01194 0.0303,0.021 0.0158,0.01757 v 0 l 0.11892,0.158514 v 0 l 0.0258,0.02601 0.0323,0.0179 0.0357,0.0083 h 0.0119 v 0 l 0.0363,-0.0052 0.0337,-0.01493 0.0284,-0.02364 0.007,-0.0091 v 0 l 0.11887,-0.158478 v 0 l 0.0258,-0.02608 0.0323,-0.0179 0.0356,-0.0083 0.037,0.0019 0.035,0.01194 0.0303,0.02099 0.0158,0.01756 v 0 l 0.11892,0.158513 v 0 l 0.0258,0.02603 0.0323,0.0179 0.0357,0.0083 h 0.0119 v 0 l 0.0363,-0.0052 0.0336,-0.01493 0.0284,-0.02364 0.007,-0.0091 v 0 l 0.11888,-0.158479 v 0 l 0.0258,-0.02608 0.0323,-0.0179 0.0357,-0.0083 0.037,0.0019 0.035,0.01194 0.0304,0.021 0.0158,0.01757 v 0 l 0.11893,0.158513 v 0 l 0.0258,0.02601 0.0323,0.0179 0.0357,0.0083 h 0.0119 v 0 l 0.0363,-0.0052 0.0337,-0.01493 0.0284,-0.02364 0.007,-0.0091 v 0 l 0.11887,-0.158496 v 0 l 0.0258,-0.02608 0.0323,-0.0179 0.0356,-0.0083 0.037,0.0019 0.035,0.01194 0.0304,0.021 0.0158,0.01757 v 0 l 0.11894,0.158513 v 0 l 0.0258,0.02601 0.0323,0.0179 0.0356,0.0083 h 0.0119 v 0 l 0.0363,-0.0052 0.0337,-0.01493 0.0284,-0.02364 0.007,-0.0091 v 0 l 0.11888,-0.158496 v 0 l 0.0258,-0.02608 0.0324,-0.0179 0.0356,-0.0083 0.037,0.0019 0.035,0.01194 0.0304,0.021 0.0158,0.01757 v 0 l 0.11894,0.158514 v 0 l 0.0258,0.02602 0.0323,0.0179 0.0356,0.0083 h 0.0119 v 0 l 0.0363,-0.0052 0.0337,-0.01493 0.0284,-0.02364 0.007,-0.0091 v 0 l 0.11887,-0.158478 v 0 l 0.0258,-0.02608 0.0324,-0.0179 0.0357,-0.0083 0.037,0.0019 0.035,0.01194 0.0304,0.02099 0.0158,0.01756 v 0 l 0.11894,0.158514 v 0 l 0.0258,0.02603 0.0323,0.0179 0.0356,0.0083 h 0.0119 v 0 l 0.0363,-0.0052 0.0337,-0.01493 0.0284,-0.02364 0.007,-0.0091 v 0 l 0.11887,-0.158478 v 0 l 0.0258,-0.02608 0.0323,-0.0179 0.0356,-0.0083 0.037,0.0019 0.035,0.01194 0.0304,0.021 0.0158,0.01757 v 0 l 0.11893,0.158514 v 0 l 0.0258,0.02601 0.0324,0.0179 0.0356,0.0083 h 0.0119 v 0 l 0.0363,-0.0052 0.0337,-0.01493 0.0284,-0.02364 0.007,-0.0091 v 0 l 0.11887,-0.158496 v 0 l 0.0258,-0.02608 0.0323,-0.0179 0.0357,-0.0083 0.037,0.0019 0.035,0.01194 0.0303,0.021 0.0158,0.01756 v 0 l 0.11894,0.158514 v 0 l 0.0258,0.02601 0.0324,0.0179 0.0357,0.0083 h 0.0119 v 0 l 0.0363,-0.0052 0.0337,-0.01493 0.0284,-0.02364 0.007,-0.0091 v 0 l 0.11886,-0.158478 v 0 l 0.0258,-0.02608 0.0323,-0.0179 0.0356,-0.0083 0.037,0.0019 0.035,0.01194 0.0303,0.021 0.0158,0.01756 v 0 l 0.11892,0.158514 v 0 l 0.0258,0.02601 0.0324,0.0179 0.0356,0.0083 h 0.0119 v 0 l 0.0363,-0.0052 0.0337,-0.01493 0.0284,-0.02364 0.007,-0.0091 v 0 l 0.11887,-0.158478 v 0 l 0.0258,-0.02608 0.0323,-0.0179 0.0357,-0.0083 0.037,0.0019 0.035,0.01194 0.0303,0.02099 0.0158,0.01756 v 0 l 0.11892,0.158514 v 0 l 0.0258,0.02603 0.0323,0.0179 0.0356,0.0083 h 0.0119 v 0 l 0.0363,-0.0052 0.0337,-0.01493 0.0284,-0.02364 0.007,-0.0091 v 0 l 0.11887,-0.158478 v 0 l 0.0258,-0.02608 0.0323,-0.0179 0.0357,-0.0083 0.037,0.0019 0.035,0.01194 0.0303,0.021 0.0158,0.01757 v 0 l 0.11893,0.158513 v 0 l 0.0258,0.02601 0.0323,0.0179 0.0356,0.0083 h 0.012 v 0 l 0.0363,-0.0052 0.0337,-0.01493 0.0284,-0.02364 0.007,-0.0091 v 0 l 0.11887,-0.158496 v 0 l 0.0258,-0.02608 0.0323,-0.0179 0.0356,-0.0083 0.037,0.0019 0.035,0.01194 0.0304,0.02101 0.0158,0.01757 v 0 l 0.11893,0.158513 v 0 l 0.0258,0.02601 0.0323,0.0179 0.0357,0.0083 h 0.0119 v 0 l 0.0363,-0.0052 0.0337,-0.01493 0.0283,-0.02364 0.007,-0.0091 v 0 l 0.11887,-0.158478 v 0 l 0.0258,-0.02608 0.0324,-0.0179 0.0357,-0.0083 0.037,0.0019 0.035,0.01194 0.0304,0.021 0.0158,0.01756 v 0 l 0.11894,0.158496 v 0 l 0.0258,0.02603 0.0323,0.0179 0.0356,0.0083 h 0.0119 v 0 l 0.0363,-0.0052 0.0337,-0.01493 0.0284,-0.02364 0.007,-0.0091 v 0 l 0.11887,-0.158479 v 0 l 0.0258,-0.02608 0.0324,-0.0179 0.0357,-0.0083 0.037,0.0019 0.035,0.01194 0.0304,0.02099 v 0.0017 0 l 1.51887,1.452844 v 0 l 0.0224,0.02886 0.0139,0.034 0.007,0.03652 -0.007,0.03627 -0.0158,0.03315 -0.0244,0.02747 -0.0311,0.01962 -0.035,0.01036 -0.0191,0.0017 v 0 h -39.15781 v 0 l -0.091,0.01282 -0.0839,0.03737 -0.0704,0.0591 -0.0515,0.07619 -0.0284,0.08742 -0.007,0.05731"
       stroke="#c0c0c0"
       stroke-width="0"
       stroke-opacity="1"
       fill="#c0c0c0"
       fill-rule="evenodd"
       fill-opacity="1"
       id="path980" />
  </g>
</svg>
