<?xml version="1.0" encoding="UTF-8" standalone="no"?>
<!-- Created with Inkscape (http://www.inkscape.org/) -->

<svg
   width="210mm"
   height="297mm"
   viewBox="0 0 210 297"
   version="1.1"
   id="svg1"
   inkscape:version="1.4 (86a8ad7, 2024-10-11)"
   sodipodi:docname="compensators.svg"
   xmlns:inkscape="http://www.inkscape.org/namespaces/inkscape"
   xmlns:sodipodi="http://sodipodi.sourceforge.net/DTD/sodipodi-0.dtd"
   xmlns="http://www.w3.org/2000/svg"
   xmlns:svg="http://www.w3.org/2000/svg">
  <sodipodi:namedview
     id="namedview1"
     pagecolor="#ffffff"
     bordercolor="#000000"
     borderopacity="0.25"
     inkscape:showpageshadow="2"
     inkscape:pageopacity="0.0"
     inkscape:pagecheckerboard="0"
     inkscape:deskcolor="#d1d1d1"
     inkscape:document-units="mm"
     inkscape:zoom="2"
     inkscape:cx="326.5"
     inkscape:cy="126.75"
     inkscape:window-width="2560"
     inkscape:window-height="1377"
     inkscape:window-x="-8"
     inkscape:window-y="-8"
     inkscape:window-maximized="1"
     inkscape:current-layer="svg1" />
  <defs
     id="defs1">
    <inkscape:path-effect
       effect="fillet_chamfer"
       id="path-effect2"
       is_visible="true"
       lpeversion="1"
       nodesatellites_param="F,0,0,1,0,0,0,1 @ F,0,0,1,0,0,0,1 @ F,0,0,1,0,0,0,1 @ F,0,0,1,0,0,0,1 @ F,0,0,1,0,0,0,1 @ F,0,0,1,0,0,0,1 @ F,0,0,1,0,0,0,1 @ F,0,0,1,0,0,0,1 @ F,0,0,1,0,0,0,1 @ F,0,0,1,0,0,0,1 @ F,0,0,1,0,0,0,1 @ F,0,0,1,0,0,0,1 @ F,0,0,1,0,0,0,1 @ F,0,0,1,0,0,0,1 @ F,0,0,1,0,0,0,1 @ F,0,0,1,0,0,0,1 @ F,0,0,1,0,0,0,1 @ F,0,0,1,0,0,0,1 @ F,0,0,1,0,0,0,1 @ F,0,0,1,0,0,0,1 @ F,0,0,1,0,0,0,1 @ F,0,0,1,0,0,0,1 @ F,0,0,1,0,0,0,1 @ F,0,0,1,0,0,0,1 @ F,0,0,1,0,0,0,1 @ F,0,0,1,0,0,0,1 @ F,0,0,1,0,0,0,1 @ F,0,0,1,0,0,0,1 @ F,0,0,1,0,0,0,1 @ F,0,0,1,0,0,0,1 @ F,0,0,1,0,0,0,1 @ F,0,0,1,0,0,0,1 @ F,0,0,1,0,0,0,1 @ F,0,0,1,0,0,0,1 @ F,0,0,1,0,0,0,1 @ F,0,0,1,0,0,0,1 @ F,0,0,1,0,0,0,1 @ F,0,0,1,0,0,0,1 @ F,0,0,1,0,0,0,1 @ F,0,0,1,0,0,0,1 @ F,0,0,1,0,0,0,1 @ F,0,0,1,0,0,0,1 @ F,0,0,1,0,0,0,1 @ F,0,0,1,0,0,0,1 @ F,0,0,1,0,0,0,1 @ F,0,0,1,0,0,0,1 @ F,0,0,1,0,0,0,1 @ F,0,0,1,0,0,0,1 @ F,0,0,1,0,0,0,1 @ F,0,0,1,0,0,0,1 @ F,0,0,1,0,0,0,1 @ F,0,0,1,0,0,0,1 @ F,0,0,1,0,0,0,1 @ F,0,0,1,0,0,0,1 @ F,0,0,1,0,0,0,1 @ F,0,0,1,0,0,0,1 @ F,0,0,1,0,0,0,1 @ F,0,0,1,0,0,0,1 @ F,0,0,1,0,0,0,1 @ F,0,0,1,0,0,0,1 @ F,0,0,1,0,0,0,1 @ F,0,0,1,0,0,0,1 @ F,0,0,1,0,0,0,1 @ F,0,0,1,0,0,0,1 @ F,0,0,1,0,0,0,1 @ F,0,0,1,0,0,0,1 @ F,0,0,1,0,0,0,1 @ F,0,0,1,0,0,0,1 @ F,0,0,1,0,0,0,1 @ F,0,0,1,0,0,0,1 @ F,0,0,1,0,0,0,1"
       radius="0"
       unit="px"
       method="auto"
       mode="F"
       chamfer_steps="1"
       flexible="false"
       use_knot_distance="true"
       apply_no_radius="true"
       apply_with_radius="true"
       only_selected="true"
       hide_knots="false" />
    <inkscape:path-effect
       effect="fillet_chamfer"
       id="path-effect1"
       is_visible="true"
       lpeversion="1"
       nodesatellites_param="F,0,0,1,0,0.028743591,0,1 @ F,0,0,1,0,0,0,1 @ F,0,0,1,0,0,0,1 @ F,0,0,1,0,0,0,1 @ F,0,0,1,0,0,0,1 @ F,0,0,1,0,0,0,1 @ F,0,0,1,0,0,0,1 @ F,0,0,1,0,0,0,1 @ F,0,0,1,0,0,0,1 @ F,0,0,1,0,0,0,1 @ F,0,0,1,0,0,0,1 @ F,0,0,1,0,0,0,1 @ F,0,0,1,0,0,0,1 @ F,0,0,1,0,0,0,1 @ F,0,0,1,0,0,0,1 @ F,0,0,1,0,0,0,1 @ F,0,0,1,0,0,0,1 @ F,0,0,1,0,0,0,1 @ F,0,0,1,0,0,0,1 @ F,0,0,1,0,0,0,1 @ F,0,0,1,0,0,0,1 @ F,0,0,1,0,0,0,1 @ F,0,0,1,0,0,0,1 @ F,0,0,1,0,0,0,1 @ F,0,0,1,0,0,0,1 @ F,0,0,1,0,0,0,1 @ F,0,0,1,0,0,0,1 @ F,0,0,1,0,0,0,1 @ F,0,0,1,0,0,0,1 @ F,0,0,1,0,0,0,1 @ F,0,0,1,0,0,0,1 @ F,0,0,1,0,0,0,1 @ F,0,0,1,0,0,0,1 @ F,0,0,1,0,0,0,1 @ F,0,0,1,0,0,0,1 @ F,0,0,1,0,0,0,1 @ F,0,0,1,0,0,0,1 @ F,0,0,1,0,0,0,1 @ F,0,0,1,0,0,0,1 @ F,0,0,1,0,0,0,1 @ F,0,0,1,0,0,0,1 @ F,0,0,1,0,0,0,1 @ F,0,0,1,0,0,0,1 @ F,0,0,1,0,0,0,1 @ F,0,0,1,0,0,0,1 @ F,0,0,1,0,0,0,1 @ F,0,0,1,0,0,0,1 @ F,0,0,1,0,0,0,1 @ F,0,0,1,0,0,0,1 @ F,0,0,1,0,0,0,1 @ F,0,0,1,0,0,0,1 @ F,0,0,1,0,0,0,1 @ F,0,0,1,0,0,0,1 @ F,0,0,1,0,0,0,1 @ F,0,0,1,0,0,0,1 @ F,0,0,1,0,0,0,1 @ F,0,0,1,0,0,0,1 @ F,0,0,1,0,0,0,1 @ F,0,0,1,0,0,0,1 @ F,0,0,1,0,0,0,1 @ F,0,0,1,0,0,0,1 @ F,0,0,1,0,0,0,1 @ F,0,0,1,0,0,0,1 @ F,0,0,1,0,0,0,1 @ F,0,0,1,0,0,0,1 @ F,0,0,1,0,0,0,1 @ F,0,0,1,0,0,0,1 @ F,0,0,1,0,0,0,1 @ F,0,0,1,0,0,0,1 @ F,0,0,1,0,0,0,1 @ F,0,0,1,0,0,0,1"
       radius="0"
       unit="px"
       method="auto"
       mode="F"
       chamfer_steps="1"
       flexible="false"
       use_knot_distance="true"
       apply_no_radius="true"
       apply_with_radius="true"
       only_selected="true"
       hide_knots="false" />
    <inkscape:path-effect
       effect="fillet_chamfer"
       id="path-effect1-4"
       is_visible="true"
       lpeversion="1"
       nodesatellites_param="F,0,0,1,0,0,0,1 @ F,0,0,1,0,0,0,1 @ F,0,0,1,0,0,0,1 @ F,0,0,1,0,0,0,1 @ F,0,0,1,0,0,0,1 @ F,0,0,1,0,0,0,1 @ F,0,0,1,0,0,0,1 @ F,0,0,1,0,0,0,1 @ F,0,0,1,0,0,0,1 @ F,0,0,1,0,0,0,1 @ F,0,0,1,0,0,0,1 @ F,0,0,1,0,0,0,1 @ F,0,0,1,0,0,0,1 @ F,0,0,1,0,0,0,1 @ F,0,0,1,0,0,0,1 @ F,0,0,1,0,0,0,1 @ F,0,0,1,0,0,0,1 @ F,0,0,1,0,0,0,1 @ F,0,0,1,0,0,0,1 @ F,0,0,1,0,0,0,1 @ F,0,0,1,0,0,0,1 @ F,0,0,1,0,0,0,1 @ F,0,0,1,0,0,0,1 @ F,0,0,1,0,0,0,1 @ F,0,0,1,0,0,0,1 @ F,0,0,1,0,0,0,1 @ F,0,0,1,0,0,0,1 @ F,0,0,1,0,0,0,1 @ F,0,0,1,0,0,0,1 @ F,0,0,1,0,0,0,1 @ F,0,0,1,0,0,0,1 @ F,0,0,1,0,0,0,1 @ F,0,0,1,0,0,0,1 @ F,0,0,1,0,0,0,1 @ F,0,0,1,0,0,0,1 @ F,0,0,1,0,0,0,1 @ F,0,0,1,0,0,0,1 @ F,0,0,1,0,0,0,1 @ F,0,0,1,0,0,0,1 @ F,0,0,1,0,0,0,1 @ F,0,0,1,0,0,0,1 @ F,0,0,1,0,0,0,1 @ F,0,0,1,0,0,0,1 @ F,0,0,1,0,0,0,1 @ F,0,0,1,0,0,0,1 @ F,0,0,1,0,0,0,1 @ F,0,0,1,0,0,0,1 @ F,0,0,1,0,0,0,1 @ F,0,0,1,0,0,0,1 @ F,0,0,1,0,0,0,1 @ F,0,0,1,0,0,0,1 @ F,0,0,1,0,0,0,1 @ F,0,0,1,0,0,0,1 @ F,0,0,1,0,0,0,1 @ F,0,0,1,0,0,0,1 @ F,0,0,1,0,0,0,1 @ F,0,0,1,0,0,0,1 @ F,0,0,1,0,0,0,1 @ F,0,0,1,0,0,0,1 @ F,0,0,1,0,0,0,1 @ F,0,0,1,0,0,0,1 @ F,0,0,1,0,0,0,1 @ F,0,0,1,0,0,0,1 @ F,0,0,1,0,0,0,1 @ F,0,0,1,0,0,0,1 @ F,0,0,1,0,0,0,1 @ F,0,0,1,0,0,0,1 @ F,0,0,1,0,0,0,1 @ F,0,0,1,0,0,0,1 @ F,0,0,1,0,0,0,1 @ F,0,0,1,0,0,0,1 @ F,0,0,1,0,0,0,1 @ F,0,0,1,0,0,0,1 @ F,0,0,1,0,0,0,1 @ F,0,0,1,0,0,0,1 @ F,0,0,1,0,0,0,1 @ F,0,0,1,0,0,0,1 @ F,0,0,1,0,0,0,1 @ F,0,0,1,0,0,0,1 @ F,0,0,1,0,0,0,1 @ F,0,0,1,0,0,0,1 @ F,0,0,1,0,0,0,1 @ F,0,0,1,0,0,0,1 @ F,0,0,1,0,0,0,1 @ F,0,0,1,0,0,0,1 @ F,0,0,1,0,0,0,1 @ F,0,0,1,0,0,0,1 @ F,0,0,1,0,0,0,1 @ F,0,0,1,0,0,0,1 @ F,0,0,1,0,0,0,1 @ F,0,0,1,0,0,0,1 @ F,0,0,1,0,0,0,1 @ F,0,0,1,0,0,0,1 @ F,0,0,1,0,0,0,1 @ F,0,0,1,0,0,0,1 @ F,0,0,1,0,0,0,1 @ F,0,0,1,0,0,0,1 @ F,0,0,1,0,0,0,1 @ F,0,0,1,0,0,0,1 @ F,0,0,1,0,0,0,1 @ F,0,0,1,0,0,0,1 @ F,0,0,1,0,0,0,1 @ F,0,0,1,0,0,0,1 @ F,0,0,1,0,0,0,1 @ F,0,0,1,0,0,0,1 @ F,0,0,1,0,0,0,1 @ F,0,0,1,0,0,0,1 @ F,0,0,1,0,0,0,1 @ F,0,0,1,0,0,0,1 @ F,0,0,1,0,0,0,1 @ F,0,0,1,0,0,0,1 @ F,0,0,1,0,0,0,1 @ F,0,0,1,0,0,0,1 @ F,0,0,1,0,0,0,1 @ F,0,0,1,0,0,0,1 @ F,0,0,1,0,0,0,1"
       radius="0"
       unit="px"
       method="auto"
       mode="F"
       chamfer_steps="1"
       flexible="false"
       use_knot_distance="true"
       apply_no_radius="true"
       apply_with_radius="true"
       only_selected="true"
       hide_knots="false" />
    <inkscape:path-effect
       effect="fillet_chamfer"
       id="path-effect8"
       is_visible="true"
       lpeversion="1"
       nodesatellites_param="F,0,0,1,0,0,0,1 @ F,0,0,1,0,0,0,1 @ F,0,0,1,0,0,0,1 @ F,0,0,1,0,0,0,1 @ F,0,0,1,0,0,0,1 @ F,0,0,1,0,0,0,1 @ F,0,0,1,0,0,0,1 @ F,0,0,1,0,0,0,1 @ F,0,0,1,0,0,0,1 @ F,0,0,1,0,0,0,1 @ F,0,0,1,0,0,0,1 @ F,0,0,1,0,0,0,1 @ F,0,0,1,0,0,0,1 @ F,0,0,1,0,0,0,1 @ F,0,0,1,0,0,0,1 @ F,0,0,1,0,0,0,1 @ F,0,0,1,0,0,0,1 @ F,0,0,1,0,0,0,1 @ F,0,0,1,0,0,0,1 @ F,0,0,1,0,0,0,1 @ F,0,0,1,0,0,0,1 @ F,0,0,1,0,0,0,1 @ F,0,0,1,0,0,0,1 @ F,0,0,1,0,0,0,1 @ F,0,0,1,0,0,0,1 @ F,0,0,1,0,0,0,1 @ F,0,0,1,0,0,0,1 @ F,0,0,1,0,0,0,1 @ F,0,0,1,0,0.055330264,0,1 @ F,0,0,1,0,0,0,1 @ F,0,0,1,0,0,0,1 @ F,0,0,1,0,0,0,1 @ F,0,1,1,0,0.073794047,0,1 @ F,0,0,1,0,0,0,1 @ F,0,0,1,0,0,0,1 @ F,0,0,1,0,0,0,1 @ F,0,0,1,0,0,0,1 @ F,0,0,1,0,0,0,1 @ F,0,0,1,0,0,0,1 @ F,0,0,1,0,0,0,1 @ F,0,0,1,0,0,0,1 @ F,0,0,1,0,0,0,1 @ F,0,0,1,0,0,0,1 @ F,0,0,1,0,0,0,1 @ F,0,0,1,0,0,0,1 @ F,0,0,1,0,0,0,1 @ F,0,0,1,0,0,0,1 @ F,0,0,1,0,0,0,1 @ F,0,0,1,0,0,0,1 @ F,0,0,1,0,0,0,1 @ F,0,0,1,0,0,0,1 @ F,0,0,1,0,0,0,1 @ F,0,0,1,0,0,0,1 @ F,0,0,1,0,0,0,1 @ F,0,0,1,0,0,0,1 @ F,0,0,1,0,0,0,1 @ F,0,0,1,0,0,0,1 @ F,0,0,1,0,0,0,1 @ F,0,0,1,0,0,0,1 @ F,0,0,1,0,0,0,1 @ F,0,0,1,0,0,0,1 @ F,0,0,1,0,0,0,1 @ F,0,0,1,0,0,0,1 @ F,0,0,1,0,0,0,1 @ F,0,0,1,0,0,0,1 @ F,0,0,1,0,0,0,1 @ F,0,0,1,0,0,0,1 @ F,0,0,1,0,0,0,1 @ F,0,0,1,0,0,0,1 @ F,0,0,1,0,0,0,1 @ F,0,0,1,0,0,0,1 @ F,0,0,1,0,0,0,1 @ F,0,0,1,0,0,0,1 @ F,0,0,1,0,0,0,1 @ F,0,0,1,0,0,0,1 @ F,0,0,1,0,0,0,1 @ F,0,0,1,0,0,0,1 @ F,0,0,1,0,0,0,1 @ F,0,0,1,0,0,0,1 @ F,0,0,1,0,0,0,1 @ F,0,0,1,0,0,0,1 @ F,0,0,1,0,0,0,1 @ F,0,0,1,0,0,0,1 @ F,0,0,1,0,0,0,1 @ F,0,0,1,0,0,0,1 @ F,0,0,1,0,0,0,1 @ F,0,0,1,0,0,0,1 @ F,0,0,1,0,0,0,1 @ F,0,0,1,0,0,0,1 @ F,0,0,1,0,0,0,1 @ F,0,0,1,0,0,0,1 @ F,0,0,1,0,0,0,1 @ F,0,0,1,0,0,0,1 @ F,0,0,1,0,0,0,1 @ F,0,0,1,0,0,0,1 @ F,0,0,1,0,0,0,1 @ F,0,0,1,0,0,0,1 @ F,0,0,1,0,0,0,1 @ F,0,0,1,0,0,0,1 @ F,0,0,1,0,0,0,1 @ F,0,0,1,0,0,0,1 @ F,0,0,1,0,0,0,1 @ F,0,0,1,0,0,0,1 @ F,0,0,1,0,0,0,1 @ F,0,0,1,0,0,0,1 @ F,0,0,1,0,0,0,1 @ F,0,0,1,0,0,0,1 @ F,0,0,1,0,0,0,1 @ F,0,0,1,0,0,0,1 @ F,0,0,1,0,0,0,1 @ F,0,0,1,0,0,0,1 @ F,0,0,1,0,0,0,1 @ F,0,0,1,0,0,0,1 @ F,0,0,1,0,0,0,1 @ F,0,0,1,0,0,0,1 @ F,0,0,1,0,0,0,1 @ F,0,0,1,0,0,0,1"
       radius="0"
       unit="px"
       method="auto"
       mode="F"
       chamfer_steps="1"
       flexible="false"
       use_knot_distance="true"
       apply_no_radius="true"
       apply_with_radius="true"
       only_selected="true"
       hide_knots="false" />
  </defs>
  <path
     style="fill:#000000;fill-opacity:1;fill-rule:evenodd;stroke:#b81e1e;stroke-width:0.0102192"
     d="m 97.398704,30.071549 -0.360701,-0.0011 -0.630452,-0.542602 c -0.0391,-0.06957 -0.0205,-0.128047 0.01138,-0.183968 0.03789,-0.03446 0.08052,-0.06418 0.159163,-0.05788 l 0.06408,0.03617 0.10232,0.09612 h 0.06098 v -0.639754 l -0.368972,-0.311092 c -0.0552,-0.07122 -0.069,-0.144455 -0.01138,-0.221176 0.04724,-0.04457 0.09986,-0.06085 0.158128,-0.04754 l 0.186037,0.138491 h 0.03514 V 27.7078 l -0.40101,-0.360701 c -0.03664,-0.07033 -0.0069,-0.136897 0.02066,-0.180869 0.04202,-0.05171 0.09794,-0.0617 0.159162,-0.05581 l 0.181902,0.13126 0.02791,0.0011 0.01035,-0.0093 v -0.988055 l -0.302823,-0.187068 v -0.485759 h 2.542418 l 0.629962,0.801057 c 0.02149,0.01751 0.03926,0.03689 0.08185,0.04385 0.03529,-0.01705 0.05852,-0.03411 0.07454,-0.05116 l 0.625572,-0.792204 1.38124,-0.0015 0.63435,0.79805 c 0.0177,0.0213 0.0461,0.03183 0.0775,0.03946 0.0426,-0.0076 0.0589,-0.0239 0.0775,-0.03946 l 0.62704,-0.79805 h 1.36663 l 0.62557,0.786357 c 0.0226,0.02403 0.0477,0.04655 0.0921,0.057 0.0252,-0.0047 0.0491,-0.02163 0.0716,-0.05116 l 0.62851,-0.792203 h 2.53739 v 0.489646 l -0.29817,0.187089 v 0.992446 h 0.038 l 0.17685,-0.128624 c 0.0514,-0.01437 0.1037,-0.0077 0.15786,0.04385 0.0678,0.06139 0.0437,0.122777 0.0322,0.184166 l -0.4078,0.368329 -0.002,0.632886 0.0409,0.0016 0.18124,-0.14324 c 0.0527,-0.01266 0.10675,0.0032 0.16224,0.05116 0.0573,0.06537 0.0409,0.138508 -0.006,0.21486 l -0.37564,0.312788 v 0.632886 l 0.0585,0.0029 0.10086,-0.09354 c 0.0731,-0.05333 0.13489,-0.03393 0.19439,0 0.0874,0.04819 0.0702,0.120524 0.0526,0.192934 l -0.62996,0.559806 h -0.36102 l -0.63727,-0.555421 c -0.0147,-0.07393 -0.0246,-0.146284 0.0365,-0.195858 0.0464,-0.04473 0.0972,-0.04651 0.14908,-0.03654 l 0.14324,0.124241 h 0.0702 v -0.629965 l -0.36248,-0.312788 c -0.0809,-0.08354 -0.0623,-0.156712 -0.0117,-0.226552 0.0489,-0.04776 0.10199,-0.05215 0.1564,-0.04239 l 0.18124,0.138856 h 0.0424 v -0.628502 l -0.40049,-0.361021 -0.0219,-0.07308 c -0.001,-0.05509 0.0226,-0.09865 0.0628,-0.134469 0.0423,-0.03926 0.0912,-0.03915 0.14178,-0.02923 l 0.15055,0.121314 0.0453,0.01315 0.019,-0.03069 v -0.505725 h -1.38709 l -0.58465,0.586113 c -0.0441,0.03696 -0.0943,0.0584 -0.15493,0.05408 -0.0499,-0.0099 -0.10015,-0.0184 -0.1447,-0.04969 l -0.5905,-0.5905 h -1.30524 l -0.60219,0.587576 c -0.0327,0.03082 -0.0788,0.04936 -0.14178,0.05262 -0.0635,-0.003 -0.10888,-0.0266 -0.15347,-0.05116 l -0.58465,-0.589037 h -1.31547 l -0.587569,0.589037 c -0.03516,0.02444 -0.08256,0.04322 -0.153472,0.05116 -0.05647,-3.61e-4 -0.105054,-0.02043 -0.150548,-0.04823 L 99.016062,26.711379 H 97.6353 l 0.0029,0.52034 0.01024,0.01024 0.02339,-0.0029 0.181242,-0.124241 c 0.05903,-0.02015 0.112928,0.0025 0.163703,0.05116 0.04676,0.05685 0.04678,0.117437 0.02484,0.179781 l -0.406332,0.365408 0.0016,0.61096 0.02777,0.01609 0.147624,-0.112546 c 0.06577,-0.04431 0.131547,-0.02877 0.197321,0.02045 0.04525,0.05603 0.04411,0.112058 0.0263,0.168087 l -0.02777,0.0497 -0.371256,0.320096 v 0.628502 h 0.05701 l 0.111082,-0.09501 c 0.07195,-0.06158 0.139605,-0.03282 0.20609,0.02045 0.05728,0.07771 0.04326,0.129021 0.02777,0.179782 z"
     id="compensator"
     sodipodi:nodetypes="ccccccccccccccccccccccccccccccccccccccccccccccccccccccccccccccccccccccccccccccccccccccccccccccccccccccccccccccccccccc"
     inkscape:path-effect="#path-effect1-4"
     inkscape:original-d="m 97.398704,30.071549 -0.360701,-0.0011 -0.630452,-0.542602 c -0.0391,-0.06957 -0.0205,-0.128047 0.01138,-0.183968 0.03789,-0.03446 0.08052,-0.06418 0.159163,-0.05788 l 0.06408,0.03617 0.10232,0.09612 h 0.06098 v -0.639754 l -0.368972,-0.311092 c -0.0552,-0.07122 -0.069,-0.144455 -0.01138,-0.221176 0.04724,-0.04457 0.09986,-0.06085 0.158128,-0.04754 l 0.186037,0.138491 h 0.03514 V 27.7078 l -0.40101,-0.360701 c -0.03664,-0.07033 -0.0069,-0.136897 0.02066,-0.180869 0.04202,-0.05171 0.09794,-0.0617 0.159162,-0.05581 l 0.181902,0.13126 0.02791,0.0011 0.01035,-0.0093 v -0.988055 l -0.302823,-0.187068 v -0.485759 h 2.542418 l 0.629962,0.801057 c 0.02149,0.01751 0.03926,0.03689 0.08185,0.04385 0.03529,-0.01705 0.05852,-0.03411 0.07454,-0.05116 l 0.625572,-0.792204 1.38124,-0.0015 0.63435,0.79805 c 0.0177,0.0213 0.0461,0.03183 0.0775,0.03946 0.0426,-0.0076 0.0589,-0.0239 0.0775,-0.03946 l 0.62704,-0.79805 h 1.36663 l 0.62557,0.786357 c 0.0226,0.02403 0.0477,0.04655 0.0921,0.057 0.0252,-0.0047 0.0491,-0.02163 0.0716,-0.05116 l 0.62851,-0.792203 h 2.53739 v 0.489646 l -0.29817,0.187089 v 0.992446 h 0.038 l 0.17685,-0.128624 c 0.0514,-0.01437 0.1037,-0.0077 0.15786,0.04385 0.0678,0.06139 0.0437,0.122777 0.0322,0.184166 l -0.4078,0.368329 -0.002,0.632886 0.0409,0.0016 0.18124,-0.14324 c 0.0527,-0.01266 0.10675,0.0032 0.16224,0.05116 0.0573,0.06537 0.0409,0.138508 -0.006,0.21486 l -0.37564,0.312788 v 0.632886 l 0.0585,0.0029 0.10086,-0.09354 c 0.0731,-0.05333 0.13489,-0.03393 0.19439,0 0.0874,0.04819 0.0702,0.120524 0.0526,0.192934 l -0.62996,0.559806 h -0.36102 l -0.63727,-0.555421 c -0.0147,-0.07393 -0.0246,-0.146284 0.0365,-0.195858 0.0464,-0.04473 0.0972,-0.04651 0.14908,-0.03654 l 0.14324,0.124241 h 0.0702 v -0.629965 l -0.36248,-0.312788 c -0.0809,-0.08354 -0.0623,-0.156712 -0.0117,-0.226552 0.0489,-0.04776 0.10199,-0.05215 0.1564,-0.04239 l 0.18124,0.138856 h 0.0424 v -0.628502 l -0.40049,-0.361021 -0.0219,-0.07308 c -0.001,-0.05509 0.0226,-0.09865 0.0628,-0.134469 0.0423,-0.03926 0.0912,-0.03915 0.14178,-0.02923 l 0.15055,0.121314 0.0453,0.01315 0.019,-0.03069 v -0.505725 h -1.38709 l -0.58465,0.586113 c -0.0441,0.03696 -0.0943,0.0584 -0.15493,0.05408 -0.0499,-0.0099 -0.10015,-0.0184 -0.1447,-0.04969 l -0.5905,-0.5905 h -1.30524 l -0.60219,0.587576 c -0.0327,0.03082 -0.0788,0.04936 -0.14178,0.05262 -0.0635,-0.003 -0.10888,-0.0266 -0.15347,-0.05116 l -0.58465,-0.589037 h -1.31547 l -0.587569,0.589037 c -0.03516,0.02444 -0.08256,0.04322 -0.153472,0.05116 -0.05647,-3.61e-4 -0.105054,-0.02043 -0.150548,-0.04823 L 99.016062,26.711379 H 97.6353 l 0.0029,0.52034 0.01024,0.01024 0.02339,-0.0029 0.181242,-0.124241 c 0.05903,-0.02015 0.112928,0.0025 0.163703,0.05116 0.04676,0.05685 0.04678,0.117437 0.02484,0.179781 l -0.406332,0.365408 0.0016,0.61096 0.02777,0.01609 0.147624,-0.112546 c 0.06577,-0.04431 0.131547,-0.02877 0.197321,0.02045 0.04525,0.05603 0.04411,0.112058 0.0263,0.168087 l -0.02777,0.0497 -0.371256,0.320096 v 0.628502 h 0.05701 l 0.111082,-0.09501 c 0.07195,-0.06158 0.139605,-0.03282 0.20609,0.02045 0.05728,0.07771 0.04326,0.129021 0.02777,0.179782 z"
     inkscape:label="compensator"
     transform="matrix(3.0033968,0,0,3.0033968,-157.83878,-61.311187)" />
  <path
     style="fill:#000000;fill-opacity:0.768047;fill-rule:evenodd;stroke:#b81e1e;stroke-width:0.0102192"
     d="m 99.765031,34.588372 -0.383804,0.0062 -0.633489,-0.52105 c -0.0419,-0.03069 -0.04152,-0.08253 -0.05262,-0.128622 -0.0033,-0.04093 -0.0061,-0.08185 0.01754,-0.122777 0.03663,-0.05044 0.08736,-0.06326 0.140319,-0.07016 0.0838,0.02473 0.167599,0.07149 0.251399,0.140317 l 0.03508,-0.02339 v -0.630613 l -0.39406,-0.336931 -0.05788,-0.117821 0.04134,-0.12609 0.107487,-0.04961 0.124024,0.03307 0.144693,0.101285 0.03307,-0.03307 v -0.63252 l -0.396875,-0.345197 -0.05581,-0.101288 0.04341,-0.130222 0.101286,-0.05375 0.128156,0.03927 0.115755,0.101285 0.04754,0.0041 0.02066,-0.04134 v -1.016992 l -0.331049,-0.191132 v -0.5065 l 2.113337,-0.0051 a 0.11428779,0.11428779 25.695681 0 1 0.0898,0.04319 l 0.63737,0.802107 0.0765,0.02894 0.0971,-0.03514 0.60596,-0.782936 a 0.15042819,0.15042819 153.86928 0 1 0.11896,-0.05836 h 2.09042 v 0.520899 l -0.3306,0.190926 v 1.010071 l 0.0309,0.04547 0.1447,-0.109553 0.12195,-0.03927 0.10749,0.04754 0.0475,0.14056 -0.0537,0.101285 -0.39481,0.338997 v 0.632521 c 0.004,0.01447 0.0188,0.02894 0.0331,0.04341 l 0.0289,-0.01447 0.12196,-0.09715 c 0.0351,-0.02124 0.0703,-0.02346 0.10542,-0.02894 0.0369,-2.92e-4 0.0775,0.02103 0.11989,0.05374 0.0245,0.04272 0.0353,0.08544 0.0434,0.128159 -0.0138,0.03995 -0.0373,0.07503 -0.062,0.109554 l -0.39687,0.338997 v 0.620117 l 0.031,0.04134 0.15503,-0.107487 c 0.0297,-0.01718 0.0536,-0.03671 0.10956,-0.04341 0.076,0.02549 0.0978,0.05099 0.12609,0.07648 l 0.0331,0.107487 c 0.001,0.03927 -0.0242,0.07855 -0.0496,0.117822 l -0.63665,0.537435 h -0.38861 l -0.62632,-0.535366 c -0.0368,-0.03294 -0.053,-0.07613 -0.0682,-0.119891 -0.002,-0.01875 0.01,-0.05843 0.0351,-0.115755 0.0382,-0.03021 0.0783,-0.05451 0.12196,-0.06821 0.12509,0.04654 0.19047,0.106347 0.26871,0.163298 0.0281,-0.01436 0.0299,-0.03399 0.031,-0.05374 v -0.62217 l -0.39274,-0.347266 -0.062,-0.09509 c 8.8e-4,-0.04886 0.0159,-0.09301 0.0331,-0.136424 0.037,-0.01974 0.0624,-0.04526 0.13022,-0.04961 0.0667,0.0072 0.0853,0.02052 0.10956,0.03307 l 0.10335,0.09302 c 0.0179,0.01107 0.0347,0.02761 0.0579,0.01241 l 0.0165,-0.03307 V 32.07247 l -0.38654,-0.332796 -0.0599,-0.09715 c -0.0111,-0.04479 0.007,-0.08957 0.0289,-0.134358 0.0629,-0.0495 0.10383,-0.06761 0.12816,-0.06201 0.0559,7.9e-4 0.0799,0.02067 0.10955,0.03721 l 0.10542,0.09302 0.0599,0.01035 0.0104,-0.03721 v -0.527101 h -0.93638 l -0.62425,0.632519 c -0.0338,0.0337 -0.0943,0.04077 -0.15503,0.04754 -0.0579,0.0023 -0.10677,-0.01125 -0.14263,-0.04754 l -0.63872,-0.630452 h -0.94257 v 0.531233 c 0.004,0.02931 0.0189,0.03675 0.0393,0.03307 l 0.13849,-0.105418 c 0.0299,-0.015 0.0583,-0.03081 0.10956,-0.03514 0.021,0.003 0.12712,0.04178 0.11782,0.04961 0.0237,0.01035 0.0711,0.134361 0.0537,0.134361 -6.3e-4,0.03238 -0.0264,0.06477 -0.0599,0.09715 l -0.39894,0.345199 v 0.644922 l 0.0372,0.03514 0.0289,-0.01447 c 0.0357,-0.03238 0.0655,-0.06477 0.12196,-0.09715 0.0584,-0.0384 0.071,-0.03103 0.0992,-0.03927 0.0955,0.01791 0.0894,0.03583 0.12609,0.05374 0.0379,0.04881 0.0343,0.0907 0.0413,0.134358 -0.009,0.03376 -0.0398,0.06752 -0.0641,0.101285 l -0.38654,0.347266 v 0.628385 l 0.0227,0.03721 0.15916,-0.105421 c 0.0197,-0.02527 0.0547,-0.04295 0.10749,-0.05168 0.0488,0.0177 0.0987,0.03409 0.12609,0.07855 0.0261,0.03721 0.0365,0.07442 0.0351,0.111622 -0.004,0.04129 -0.0325,0.07783 -0.0641,0.113687 z"
     id="path7"
     sodipodi:nodetypes="cccccccccccccccccccccccccccccccccccccccccccccccccccccccccccccccccccccccccccccccccccccccccccccccccccccccccccccccccccccc"
     inkscape:path-effect="#path-effect8"
     inkscape:original-d="m 99.765031,34.588372 -0.383804,0.0062 -0.633489,-0.52105 c -0.0419,-0.03069 -0.04152,-0.08253 -0.05262,-0.128622 -0.0033,-0.04093 -0.0061,-0.08185 0.01754,-0.122777 0.03663,-0.05044 0.08736,-0.06326 0.140319,-0.07016 0.0838,0.02473 0.167599,0.07149 0.251399,0.140317 l 0.03508,-0.02339 v -0.630613 l -0.39406,-0.336931 -0.05788,-0.117821 0.04134,-0.12609 0.107487,-0.04961 0.124024,0.03307 0.144693,0.101285 0.03307,-0.03307 v -0.63252 l -0.396875,-0.345197 -0.05581,-0.101288 0.04341,-0.130222 0.101286,-0.05375 0.128156,0.03927 0.115755,0.101285 0.04754,0.0041 0.02066,-0.04134 v -1.016992 l -0.331049,-0.191132 v -0.5065 l 2.168667,-0.0052 0.67179,0.845426 0.0765,0.02894 0.0971,-0.03514 0.65113,-0.841293 h 2.16421 v 0.520899 l -0.3306,0.190926 v 1.010071 l 0.0309,0.04547 0.1447,-0.109553 0.12195,-0.03927 0.10749,0.04754 0.0475,0.14056 -0.0537,0.101285 -0.39481,0.338997 v 0.632521 c 0.004,0.01447 0.0188,0.02894 0.0331,0.04341 l 0.0289,-0.01447 0.12196,-0.09715 c 0.0351,-0.02124 0.0703,-0.02346 0.10542,-0.02894 0.0369,-2.92e-4 0.0775,0.02103 0.11989,0.05374 0.0245,0.04272 0.0353,0.08544 0.0434,0.128159 -0.0138,0.03995 -0.0373,0.07503 -0.062,0.109554 l -0.39687,0.338997 v 0.620117 l 0.031,0.04134 0.15503,-0.107487 c 0.0297,-0.01718 0.0536,-0.03671 0.10956,-0.04341 0.076,0.02549 0.0978,0.05099 0.12609,0.07648 l 0.0331,0.107487 c 0.001,0.03927 -0.0242,0.07855 -0.0496,0.117822 l -0.63665,0.537435 h -0.38861 l -0.62632,-0.535366 c -0.0368,-0.03294 -0.053,-0.07613 -0.0682,-0.119891 -0.002,-0.01875 0.01,-0.05843 0.0351,-0.115755 0.0382,-0.03021 0.0783,-0.05451 0.12196,-0.06821 0.12509,0.04654 0.19047,0.106347 0.26871,0.163298 0.0281,-0.01436 0.0299,-0.03399 0.031,-0.05374 v -0.62217 l -0.39274,-0.347266 -0.062,-0.09509 c 8.8e-4,-0.04886 0.0159,-0.09301 0.0331,-0.136424 0.037,-0.01974 0.0624,-0.04526 0.13022,-0.04961 0.0667,0.0072 0.0853,0.02052 0.10956,0.03307 l 0.10335,0.09302 c 0.0179,0.01107 0.0347,0.02761 0.0579,0.01241 l 0.0165,-0.03307 V 32.07247 l -0.38654,-0.332796 -0.0599,-0.09715 c -0.0111,-0.04479 0.007,-0.08957 0.0289,-0.134358 0.0629,-0.0495 0.10383,-0.06761 0.12816,-0.06201 0.0559,7.9e-4 0.0799,0.02067 0.10955,0.03721 l 0.10542,0.09302 0.0599,0.01035 0.0104,-0.03721 v -0.527101 h -0.93638 l -0.62425,0.632519 c -0.0338,0.0337 -0.0943,0.04077 -0.15503,0.04754 -0.0579,0.0023 -0.10677,-0.01125 -0.14263,-0.04754 l -0.63872,-0.630452 h -0.94257 v 0.531233 c 0.004,0.02931 0.0189,0.03675 0.0393,0.03307 l 0.13849,-0.105418 c 0.0299,-0.015 0.0583,-0.03081 0.10956,-0.03514 0.021,0.003 0.12712,0.04178 0.11782,0.04961 0.0237,0.01035 0.0711,0.134361 0.0537,0.134361 -6.3e-4,0.03238 -0.0264,0.06477 -0.0599,0.09715 l -0.39894,0.345199 v 0.644922 l 0.0372,0.03514 0.0289,-0.01447 c 0.0357,-0.03238 0.0655,-0.06477 0.12196,-0.09715 0.0584,-0.0384 0.071,-0.03103 0.0992,-0.03927 0.0955,0.01791 0.0894,0.03583 0.12609,0.05374 0.0379,0.04881 0.0343,0.0907 0.0413,0.134358 -0.009,0.03376 -0.0398,0.06752 -0.0641,0.101285 l -0.38654,0.347266 v 0.628385 l 0.0227,0.03721 0.15916,-0.105421 c 0.0197,-0.02527 0.0547,-0.04295 0.10749,-0.05168 0.0488,0.0177 0.0987,0.03409 0.12609,0.07855 0.0261,0.03721 0.0365,0.07442 0.0351,0.111622 -0.004,0.04129 -0.0325,0.07783 -0.0641,0.113687 z"
     inkscape:label="compensator"
     transform="matrix(2.7905069,0,0,2.7905069,-245.469,-66.683198)" />
  <path
     style="fill:#070707;fill-opacity:0.768047;fill-rule:evenodd;stroke:#b81e1e;stroke-width:0.02997"
     d="m 92.31393,15.36321 v 1.433687 c 0,0 -0.009,0.02434 0.0273,0.06364 0.0364,0.03941 0.85777,0.527395 0.85777,0.527395 l 0.009,2.95224 -0.10909,0.03337 -0.51528,-0.412222 c -0.20027,-0.02669 -0.37066,0.0065 -0.49104,0.139421 -0.16613,0.185729 -0.13848,0.352114 -0.0788,0.515275 l 0.13033,0.206111 1.05781,0.894155 v 1.873183 l -0.0205,0.01818 h -0.0698 l -0.5304,-0.375851 c -0.18115,-0.03117 -0.34264,-0.0073 -0.46678,0.121239 -0.18995,0.172942 -0.18901,0.368771 -0.094,0.5759 l 1.18213,1.054806 v 1.876218 l -0.0302,0.02112 h -0.0607 l -0.39099,-0.330384 c -0.14962,-0.06798 -0.40898,-0.159071 -0.6123,0.06059 -0.19379,0.157986 -0.14282,0.347911 -0.0788,0.539535 l 0.094,0.160654 1.7762,1.506423 1.10027,0.0062 1.78831,-1.521586 c 0.14957,-0.215202 0.222,-0.430408 0.0425,-0.64561 -0.23022,-0.25802 -0.44102,-0.196433 -0.64863,-0.08185 l -0.37585,0.309169 -0.0727,0.0032 -0.0264,-0.02727 -0.003,-1.879251 1.16696,-1.03662 c 0.10997,-0.184908 0.12962,-0.369786 -0.0455,-0.554679 -0.19913,-0.160654 -0.39806,-0.228693 -0.5971,-0.08185 l -0.4183,0.312193 h -0.1 v -1.915619 l 1.06997,-0.900214 c 0.1003,-0.191066 0.23755,-0.36412 0.0516,-0.675929 -0.18858,-0.115285 -0.36143,-0.28503 -0.64866,-0.06059 l -0.36674,0.300076 -0.11525,-0.03033 v -1.542809 h 3.6009 l 1.77013,1.730726 c 0.12405,0.141034 0.28212,0.180245 0.45161,0.184878 0.15543,-0.02317 0.30591,-0.04986 0.42738,-0.184878 l 1.77013,-1.733753 h 3.44931 l 1.76408,1.727694 c 0.13168,0.116927 0.27949,0.179247 0.44557,0.181858 0.17978,-0.0024 0.33357,-0.0488 0.43343,-0.187929 l 1.72467,-1.71254 h 3.6434 v 1.542801 l -0.11203,0.0364 -0.51833,-0.418282 c -0.22318,-0.01789 -0.39055,0.03006 -0.488,0.160654 -0.11291,0.09995 -0.1833,0.234119 -0.0698,0.515278 l 0.13637,0.200041 1.04267,0.872939 v 1.876216 l -0.0264,0.03337 -0.0698,-0.01202 -0.51225,-0.375854 c -0.2094,-0.06431 -0.36167,0.03279 -0.50314,0.160654 -0.16394,0.150273 -0.13403,0.344629 -0.0484,0.551647 l 1.17001,1.051771 0.003,1.867123 -0.0264,0.02728 -0.0727,-0.01202 -0.4092,-0.32735 c -0.21262,-0.100533 -0.41944,-0.128189 -0.60924,0.06666 -0.14429,0.165258 -0.14458,0.352131 -0.0607,0.551643 l 0.11819,0.148513 1.76711,1.509459 h 1.08205 l 1.78227,-1.515518 c 0.12141,-0.200686 0.28535,-0.392089 0.0545,-0.669861 -0.21614,-0.231949 -0.43243,-0.166872 -0.64863,-0.08487 l -0.37891,0.318261 -0.0757,0.0062 -0.0455,-0.03942 -0.0264,-0.08789 v -1.773162 l 1.2215,-1.039644 c 0.0871,-0.180861 0.10265,-0.361707 -0.0607,-0.542558 -0.16569,-0.17259 -0.33139,-0.250513 -0.49709,-0.160654 l -0.46073,0.345538 -0.0607,0.02727 -0.0666,0.0032 -0.0818,-0.08789 v -1.809531 l 1.13666,-0.918403 c 0.18388,-0.224998 0.16013,-0.457709 0.0364,-0.694118 -0.20735,-0.167311 -0.42073,-0.181417 -0.63957,-0.05153 l -0.36372,0.321288 -0.13343,-0.04244 -0.0364,-0.07581 v -2.858278 l 0.93964,-0.557712 -0.003,-1.470055 h -7.11993 l -1.84588,2.406647 c -0.0466,0.04593 -0.10587,0.08613 -0.22435,0.100035 -0.093,-0.0062 -0.16364,-0.04569 -0.22435,-0.100035 l -1.90653,-2.409673 h -3.61906 l -1.88227,2.409673 c -0.0622,0.04091 -0.10176,0.09141 -0.23931,0.100035 -0.1088,-0.0024 -0.17215,-0.05012 -0.22435,-0.109127 L 99.3926,15.360821 Z"
     id="compensator-6"
     sodipodi:nodetypes="ccsccccccccccccccccccccccccccccccccccccccccccccccccccccccccccccccccccccccccccccccccccccccccccccccccccccccccccccccccc"
     inkscape:label="compensator" />
  <path
     style="fill:#000000;fill-opacity:0.768047;fill-rule:evenodd;stroke:#b81e1e;stroke-width:0.0288789"
     d="m 58.636848,16.309682 v 1.366892 l 0.94629,0.490675 v 2.722089 l -0.10512,0.04674 -0.41768,-0.274541 -0.29791,-0.08763 -0.28621,0.154805 -0.11106,0.306675 0.14327,0.312516 1.08065,0.884969 v 1.658959 l -0.11389,0.119735 -0.0673,-0.03216 -0.33004,-0.274541 c 0,0 -0.26281,-0.09054 -0.29206,-0.09054 -0.0291,0 -0.30082,0.140196 -0.30082,0.140196 l -0.12858,0.315432 0.14327,0.303753 1.08941,0.88789 -0.003,1.664798 -0.0141,0.06423 -0.10795,0.04674 -0.0642,-0.02345 -0.33295,-0.277452 -0.28624,-0.09345 -0.31544,0.160627 -0.10795,0.34756 0.16052,0.271631 1.73781,1.445744 h 1.06606 l 1.74949,-1.45743 0.14328,-0.233649 -0.0904,-0.388452 -0.28034,-0.148956 -0.33589,0.09345 -0.31834,0.283313 -0.0732,0.02925 -0.1023,-0.04965 -0.0254,-0.07887 v -1.667601 l 1.0865,-0.873289 0.15175,-0.294989 -0.11106,-0.330043 -0.26592,-0.140195 -0.33004,0.09345 -0.34757,0.289149 -0.0641,0.01469 -0.0848,-0.0438 -0.035,-0.06714 V 22.22706 l 1.0865,-0.882052 0.14892,-0.29499 -0.10795,-0.318354 -0.25999,-0.148956 -0.3505,0.08763 -0.31834,0.245349 -0.0789,0.03216 -0.0992,-0.02346 -0.0169,-0.06714 v -0.990119 h 4.01889 v 3.80859 c 0.25038,1.819001 1.3655,2.560265 3.0492,2.71041 1.4145,-0.385126 2.45637,-1.107823 2.55271,-2.687042 v -3.837805 h 4.02472 l 0.006,1.010568 -0.008,0.05547 -0.0992,0.01159 -0.0876,-0.02925 -0.34171,-0.24241 -0.28033,-0.08763 -0.28624,0.148956 -0.12265,0.309591 0.15175,0.312516 1.07482,0.87913 v 1.664796 l -0.0198,0.06714 -0.0904,0.0438 -0.0817,-0.01752 -0.32125,-0.292073 -0.295,-0.08763 -0.31543,0.160655 -0.0992,0.297906 0.15176,0.318363 1.07191,0.882046 v 1.658956 l -0.0322,0.05547 -0.076,0.05547 -0.0701,-0.01752 -0.33589,-0.286226 -0.29497,-0.0993 -0.30961,0.151867 -0.0992,0.359245 0.14299,0.27748 1.75243,1.451583 h 1.07482 l 1.72905,-1.463271 0.18115,-0.236588 0.0113,-0.04089 -0.15486,-0.347569 -0.26875,-0.143106 -0.33589,0.09054 -0.31249,0.27163 -0.0701,0.02628 -0.076,-0.03216 -0.0554,-0.09345 v -1.64728 l 1.09234,-0.890807 0.18708,-0.289151 -0.14611,-0.309591 -0.2744,-0.157716 -0.33004,0.09054 -0.32419,0.27748 -0.076,0.02925 -0.0729,-0.04383 -0.0585,-0.08178 v -1.656034 l 1.10405,-0.899578 0.16927,-0.283302 -0.1461,-0.306677 -0.26592,-0.154806 -0.33587,0.08763 -0.33295,0.24241 -0.0848,0.02345 -0.0526,-0.01469 -0.0585,-0.06714 v -2.713335 l 0.92002,-0.476074 0.035,-0.05256 -0.006,-1.273421 -0.041,-0.04965 h -4.31678 l -0.0379,0.03798 -0.11671,0.359246 -0.041,0.03798 -0.1023,0.0031 -0.0613,-0.04383 -0.076,-0.365087 -0.0438,-0.02925 h -4.52417 l -0.041,0.05547 v 7.313432 c -0.069,0.384874 -0.19018,0.733229 -0.76521,0.765224 -0.47413,-0.06765 -0.71539,-0.312629 -0.77109,-0.782751 v -7.284225 l -0.041,-0.07005 h -4.52709 c -0.054,0.164809 -0.0624,0.444787 -0.22777,0.438107 -0.16023,-0.0082 -0.14921,-0.267194 -0.25122,-0.432257 z"
     id="compensator-9"
     sodipodi:nodetypes="cccccccccccccccscccccccccccccccccccccccccccccccccccccccccccccccccccccccccccccccccccccccccccccccccccccccccccccccccccccccccccccccccccccccccccccccccccccccc"
     inkscape:label="compensator" />
</svg>
