<?xml version="1.0" encoding="UTF-8" standalone="no"?>
<!-- Created with Inkscape (http://www.inkscape.org/) -->

<svg
   width="210mm"
   height="297mm"
   viewBox="0 0 210 297"
   version="1.1"
   id="svg1"
   inkscape:version="1.4 (86a8ad7, 2024-10-11)"
   sodipodi:docname="L1-017.svg"
   xmlns:inkscape="http://www.inkscape.org/namespaces/inkscape"
   xmlns:sodipodi="http://sodipodi.sourceforge.net/DTD/sodipodi-0.dtd"
   xmlns="http://www.w3.org/2000/svg"
   xmlns:svg="http://www.w3.org/2000/svg">
  <sodipodi:namedview
     id="namedview1"
     pagecolor="#ffffff"
     bordercolor="#000000"
     borderopacity="0.25"
     inkscape:showpageshadow="2"
     inkscape:pageopacity="0.0"
     inkscape:pagecheckerboard="0"
     inkscape:deskcolor="#d1d1d1"
     inkscape:document-units="mm"
     inkscape:zoom="2"
     inkscape:cx="377.75"
     inkscape:cy="211.75"
     inkscape:window-width="2560"
     inkscape:window-height="1377"
     inkscape:window-x="-8"
     inkscape:window-y="-8"
     inkscape:window-maximized="1"
     inkscape:current-layer="svg1"
     showgrid="false" />
  <defs
     id="defs1">
    <inkscape:path-effect
       effect="fillet_chamfer"
       id="path-effect8"
       is_visible="true"
       lpeversion="1"
       nodesatellites_param="F,0,0,1,0,0,0,1 @ F,0,0,1,0,0,0,1 @ F,0,0,1,0,0,0,1 @ F,0,0,1,0,0,0,1 @ F,0,0,1,0,0,0,1 @ F,0,0,1,0,0,0,1 @ F,0,0,1,0,0,0,1 @ F,0,0,1,0,0,0,1 @ F,0,0,1,0,0,0,1 @ F,0,0,1,0,0,0,1 @ F,0,0,1,0,0,0,1 @ F,0,0,1,0,0,0,1 @ F,0,0,1,0,0,0,1 @ F,0,0,1,0,0,0,1 @ F,0,0,1,0,0,0,1 @ F,0,0,1,0,0,0,1 @ F,0,0,1,0,0,0,1 @ F,0,0,1,0,0,0,1 @ F,0,0,1,0,0,0,1 @ F,0,0,1,0,0,0,1 @ F,0,0,1,0,0,0,1 @ F,0,0,1,0,0,0,1 @ F,0,0,1,0,0,0,1 @ F,0,0,1,0,0,0,1 @ F,0,0,1,0,0,0,1 @ F,0,0,1,0,0,0,1 @ F,0,0,1,0,0,0,1 @ F,0,0,1,0,0,0,1 @ F,0,0,1,0,0.055330264,0,1 @ F,0,0,1,0,0,0,1 @ F,0,0,1,0,0,0,1 @ F,0,0,1,0,0,0,1 @ F,0,1,1,0,0.073794047,0,1 @ F,0,0,1,0,0,0,1 @ F,0,0,1,0,0,0,1 @ F,0,0,1,0,0,0,1 @ F,0,0,1,0,0,0,1 @ F,0,0,1,0,0,0,1 @ F,0,0,1,0,0,0,1 @ F,0,0,1,0,0,0,1 @ F,0,0,1,0,0,0,1 @ F,0,0,1,0,0,0,1 @ F,0,0,1,0,0,0,1 @ F,0,0,1,0,0,0,1 @ F,0,0,1,0,0,0,1 @ F,0,0,1,0,0,0,1 @ F,0,0,1,0,0,0,1 @ F,0,0,1,0,0,0,1 @ F,0,0,1,0,0,0,1 @ F,0,0,1,0,0,0,1 @ F,0,0,1,0,0,0,1 @ F,0,0,1,0,0,0,1 @ F,0,0,1,0,0,0,1 @ F,0,0,1,0,0,0,1 @ F,0,0,1,0,0,0,1 @ F,0,0,1,0,0,0,1 @ F,0,0,1,0,0,0,1 @ F,0,0,1,0,0,0,1 @ F,0,0,1,0,0,0,1 @ F,0,0,1,0,0,0,1 @ F,0,0,1,0,0,0,1 @ F,0,0,1,0,0,0,1 @ F,0,0,1,0,0,0,1 @ F,0,0,1,0,0,0,1 @ F,0,0,1,0,0,0,1 @ F,0,0,1,0,0,0,1 @ F,0,0,1,0,0,0,1 @ F,0,0,1,0,0,0,1 @ F,0,0,1,0,0,0,1 @ F,0,0,1,0,0,0,1 @ F,0,0,1,0,0,0,1 @ F,0,0,1,0,0,0,1 @ F,0,0,1,0,0,0,1 @ F,0,0,1,0,0,0,1 @ F,0,0,1,0,0,0,1 @ F,0,0,1,0,0,0,1 @ F,0,0,1,0,0,0,1 @ F,0,0,1,0,0,0,1 @ F,0,0,1,0,0,0,1 @ F,0,0,1,0,0,0,1 @ F,0,0,1,0,0,0,1 @ F,0,0,1,0,0,0,1 @ F,0,0,1,0,0,0,1 @ F,0,0,1,0,0,0,1 @ F,0,0,1,0,0,0,1 @ F,0,0,1,0,0,0,1 @ F,0,0,1,0,0,0,1 @ F,0,0,1,0,0,0,1 @ F,0,0,1,0,0,0,1 @ F,0,0,1,0,0,0,1 @ F,0,0,1,0,0,0,1 @ F,0,0,1,0,0,0,1 @ F,0,0,1,0,0,0,1 @ F,0,0,1,0,0,0,1 @ F,0,0,1,0,0,0,1 @ F,0,0,1,0,0,0,1 @ F,0,0,1,0,0,0,1 @ F,0,0,1,0,0,0,1 @ F,0,0,1,0,0,0,1 @ F,0,0,1,0,0,0,1 @ F,0,0,1,0,0,0,1 @ F,0,0,1,0,0,0,1 @ F,0,0,1,0,0,0,1 @ F,0,0,1,0,0,0,1 @ F,0,0,1,0,0,0,1 @ F,0,0,1,0,0,0,1 @ F,0,0,1,0,0,0,1 @ F,0,0,1,0,0,0,1 @ F,0,0,1,0,0,0,1 @ F,0,0,1,0,0,0,1 @ F,0,0,1,0,0,0,1 @ F,0,0,1,0,0,0,1 @ F,0,0,1,0,0,0,1 @ F,0,0,1,0,0,0,1 @ F,0,0,1,0,0,0,1 @ F,0,0,1,0,0,0,1 @ F,0,0,1,0,0,0,1"
       radius="0"
       unit="px"
       method="auto"
       mode="F"
       chamfer_steps="1"
       flexible="false"
       use_knot_distance="true"
       apply_no_radius="true"
       apply_with_radius="true"
       only_selected="true"
       hide_knots="false" />
    <inkscape:path-effect
       effect="fillet_chamfer"
       id="path-effect7"
       is_visible="true"
       lpeversion="1"
       nodesatellites_param="F,0,0,1,0,0,0,1 @ F,0,0,1,0,0,0,1 @ F,0,0,1,0,0,0,1 @ F,0,0,1,0,0,0,1 @ F,0,0,1,0,0,0,1 @ F,0,0,1,0,0,0,1 @ F,0,0,1,0,0,0,1 @ F,0,0,1,0,0,0,1 @ F,0,0,1,0,0,0,1 @ F,0,0,1,0,0,0,1 @ F,0,0,1,0,0,0,1 @ F,0,0,1,0,0,0,1 @ F,0,0,1,0,0,0,1 @ F,0,0,1,0,0,0,1 @ F,0,0,1,0,0,0,1 @ F,0,0,1,0,0,0,1 @ F,0,0,1,0,0,0,1 @ F,0,0,1,0,0,0,1 @ F,0,0,1,0,0,0,1 @ F,0,0,1,0,0,0,1 @ F,0,0,1,0,0,0,1 @ F,0,0,1,0,0,0,1 @ F,0,0,1,0,0,0,1 @ F,0,0,1,0,0,0,1 @ F,0,0,1,0,0,0,1 @ F,0,0,1,0,0,0,1 @ F,0,0,1,0,0,0,1 @ F,0,0,1,0,0,0,1 @ F,0,0,1,0,0,0,1 @ F,0,0,1,0,0,0,1 @ F,0,0,1,0,0,0,1 @ F,0,0,1,0,0,0,1 @ F,0,0,1,0,0.08487428,0,1 @ F,0,0,1,0,0,0,1 @ F,0,0,1,0,0,0,1 @ F,0,0,1,0,0,0,1 @ F,0,0,1,0,0,0,1 @ F,0,0,1,0,0,0,1 @ F,0,0,1,0,0,0,1 @ F,0,0,1,0,0,0,1 @ F,0,0,1,0,0,0,1 @ F,0,0,1,0,0,0,1 @ F,0,0,1,0,0,0,1 @ F,0,0,1,0,0,0,1 @ F,0,0,1,0,0,0,1 @ F,0,0,1,0,0,0,1 @ F,0,0,1,0,0,0,1 @ F,0,0,1,0,0,0,1 @ F,0,0,1,0,0,0,1 @ F,0,0,1,0,0,0,1 @ F,0,0,1,0,0,0,1 @ F,0,0,1,0,0,0,1 @ F,0,0,1,0,0,0,1 @ F,0,0,1,0,0,0,1 @ F,0,0,1,0,0,0,1 @ F,0,0,1,0,0,0,1 @ F,0,0,1,0,0,0,1 @ F,0,0,1,0,0,0,1 @ F,0,0,1,0,0,0,1 @ F,0,0,1,0,0,0,1 @ F,0,0,1,0,0,0,1 @ F,0,0,1,0,0,0,1 @ F,0,0,1,0,0,0,1 @ F,0,0,1,0,0,0,1 @ F,0,0,1,0,0,0,1 @ F,0,0,1,0,0,0,1 @ F,0,0,1,0,0,0,1 @ F,0,0,1,0,0,0,1 @ F,0,0,1,0,0,0,1 @ F,0,0,1,0,0,0,1 @ F,0,0,1,0,0,0,1 @ F,0,0,1,0,0,0,1 @ F,0,0,1,0,0,0,1 @ F,0,0,1,0,0,0,1 @ F,0,0,1,0,0,0,1 @ F,0,0,1,0,0,0,1 @ F,0,0,1,0,0,0,1 @ F,0,0,1,0,0,0,1 @ F,0,0,1,0,0,0,1 @ F,0,0,1,0,0,0,1 @ F,0,0,1,0,0,0,1 @ F,0,0,1,0,0,0,1 @ F,0,0,1,0,0,0,1 @ F,0,0,1,0,0,0,1 @ F,0,0,1,0,0,0,1 @ F,0,0,1,0,0,0,1 @ F,0,0,1,0,0,0,1 @ F,0,0,1,0,0,0,1 @ F,0,0,1,0,0,0,1 @ F,0,0,1,0,0,0,1 @ F,0,0,1,0,0,0,1 @ F,0,0,1,0,0,0,1 @ F,0,0,1,0,0,0,1 @ F,0,0,1,0,0,0,1 @ F,0,0,1,0,0,0,1 @ F,0,0,1,0,0,0,1 @ F,0,0,1,0,0,0,1 @ F,0,0,1,0,0,0,1 @ F,0,0,1,0,0,0,1 @ F,0,0,1,0,0,0,1 @ F,0,0,1,0,0,0,1 @ F,0,0,1,0,0,0,1 @ F,0,0,1,0,0,0,1 @ F,0,0,1,0,0,0,1 @ F,0,0,1,0,0,0,1 @ F,0,0,1,0,0,0,1 @ F,0,0,1,0,0,0,1 @ F,0,0,1,0,0,0,1 @ F,0,0,1,0,0,0,1 @ F,0,0,1,0,0,0,1 @ F,0,0,1,0,0,0,1 @ F,0,0,1,0,0,0,1 @ F,0,0,1,0,0,0,1 @ F,0,0,1,0,0,0,1 @ F,0,0,1,0,0,0,1 @ F,0,0,1,0,0,0,1 @ F,0,0,1,0,0,0,1"
       radius="0"
       unit="px"
       method="auto"
       mode="F"
       chamfer_steps="1"
       flexible="false"
       use_knot_distance="true"
       apply_no_radius="true"
       apply_with_radius="true"
       only_selected="true"
       hide_knots="false" />
    <inkscape:path-effect
       effect="bspline"
       id="path-effect4"
       is_visible="true"
       lpeversion="1.3"
       weight="33.333333"
       steps="2"
       helper_size="0"
       apply_no_weight="true"
       apply_with_weight="true"
       only_selected="false"
       uniform="false" />
    <inkscape:path-effect
       effect="bspline"
       id="path-effect2"
       is_visible="true"
       lpeversion="1.3"
       weight="33.333333"
       steps="2"
       helper_size="0"
       apply_no_weight="true"
       apply_with_weight="true"
       only_selected="false"
       uniform="false" />
    <clipPath
       clipPathUnits="userSpaceOnUse"
       id="clipPath381">
      <path
         d="m 97.535,762.899 h 66.056 v 64.248 H 97.535 Z"
         transform="translate(-97.741005,-763.10402)"
         id="path381" />
    </clipPath>
    <clipPath
       clipPathUnits="userSpaceOnUse"
       id="clipPath381-2">
      <path
         d="m 97.535,762.899 h 66.056 v 64.248 H 97.535 Z"
         transform="translate(-97.741005,-763.10402)"
         id="path381-4" />
    </clipPath>
    <clipPath
       clipPathUnits="userSpaceOnUse"
       id="clipPath446">
      <path
         d="m 475.671,708.797 h 5.0938 v 8.2159 h -5.0938 z"
         transform="translate(-478.30001,-716.84902)"
         id="path446" />
    </clipPath>
    <clipPath
       clipPathUnits="userSpaceOnUse"
       id="clipPath473">
      <path
         d="m 475.671,716.972 h 5.0938 v 8.5446 h -5.0938 z"
         transform="translate(-475.87701,-724.40702)"
         id="path473" />
    </clipPath>
  </defs>
  <path
     style="fill:#000000;fill-opacity:0.768047;fill-rule:evenodd;stroke:#b81e1e;stroke-width:0.0102192"
     d="m 99.765031,34.588372 -0.383804,0.0062 -0.633489,-0.52105 c -0.0419,-0.03069 -0.04152,-0.08253 -0.05262,-0.128622 -0.0033,-0.04093 -0.0061,-0.08185 0.01754,-0.122777 0.03663,-0.05044 0.08736,-0.06326 0.140319,-0.07016 0.0838,0.02473 0.167599,0.07149 0.251399,0.140317 l 0.03508,-0.02339 v -0.630613 l -0.39406,-0.336931 -0.05788,-0.117821 0.04134,-0.12609 0.107487,-0.04961 0.124024,0.03307 0.144693,0.101285 0.03307,-0.03307 v -0.63252 l -0.396875,-0.345197 -0.05581,-0.101288 0.04341,-0.130222 0.101286,-0.05375 0.128156,0.03927 0.115755,0.101285 0.04754,0.0041 0.02066,-0.04134 v -1.016992 l -0.331049,-0.191132 v -0.5065 l 2.113337,-0.0051 a 0.11428779,0.11428779 25.695681 0 1 0.0898,0.04319 l 0.63737,0.802107 0.0765,0.02894 0.0971,-0.03514 0.60596,-0.782936 a 0.15042819,0.15042819 153.86928 0 1 0.11896,-0.05836 h 2.09042 v 0.520899 l -0.3306,0.190926 v 1.010071 l 0.0309,0.04547 0.1447,-0.109553 0.12195,-0.03927 0.10749,0.04754 0.0475,0.14056 -0.0537,0.101285 -0.39481,0.338997 v 0.632521 c 0.004,0.01447 0.0188,0.02894 0.0331,0.04341 l 0.0289,-0.01447 0.12196,-0.09715 c 0.0351,-0.02124 0.0703,-0.02346 0.10542,-0.02894 0.0369,-2.92e-4 0.0775,0.02103 0.11989,0.05374 0.0245,0.04272 0.0353,0.08544 0.0434,0.128159 -0.0138,0.03995 -0.0373,0.07503 -0.062,0.109554 l -0.39687,0.338997 v 0.620117 l 0.031,0.04134 0.15503,-0.107487 c 0.0297,-0.01718 0.0536,-0.03671 0.10956,-0.04341 0.076,0.02549 0.0978,0.05099 0.12609,0.07648 l 0.0331,0.107487 c 0.001,0.03927 -0.0242,0.07855 -0.0496,0.117822 l -0.63665,0.537435 h -0.38861 l -0.62632,-0.535366 c -0.0368,-0.03294 -0.053,-0.07613 -0.0682,-0.119891 -0.002,-0.01875 0.01,-0.05843 0.0351,-0.115755 0.0382,-0.03021 0.0783,-0.05451 0.12196,-0.06821 0.12509,0.04654 0.19047,0.106347 0.26871,0.163298 0.0281,-0.01436 0.0299,-0.03399 0.031,-0.05374 v -0.62217 l -0.39274,-0.347266 -0.062,-0.09509 c 8.8e-4,-0.04886 0.0159,-0.09301 0.0331,-0.136424 0.037,-0.01974 0.0624,-0.04526 0.13022,-0.04961 0.0667,0.0072 0.0853,0.02052 0.10956,0.03307 l 0.10335,0.09302 c 0.0179,0.01107 0.0347,0.02761 0.0579,0.01241 l 0.0165,-0.03307 V 32.07247 l -0.38654,-0.332796 -0.0599,-0.09715 c -0.0111,-0.04479 0.007,-0.08957 0.0289,-0.134358 0.0629,-0.0495 0.10383,-0.06761 0.12816,-0.06201 0.0559,7.9e-4 0.0799,0.02067 0.10955,0.03721 l 0.10542,0.09302 0.0599,0.01035 0.0104,-0.03721 v -0.527101 h -0.93638 l -0.62425,0.632519 c -0.0338,0.0337 -0.0943,0.04077 -0.15503,0.04754 -0.0579,0.0023 -0.10677,-0.01125 -0.14263,-0.04754 l -0.63872,-0.630452 h -0.94257 v 0.531233 c 0.004,0.02931 0.0189,0.03675 0.0393,0.03307 l 0.13849,-0.105418 c 0.0299,-0.015 0.0583,-0.03081 0.10956,-0.03514 0.021,0.003 0.12712,0.04178 0.11782,0.04961 0.0237,0.01035 0.0711,0.134361 0.0537,0.134361 -6.3e-4,0.03238 -0.0264,0.06477 -0.0599,0.09715 l -0.39894,0.345199 v 0.644922 l 0.0372,0.03514 0.0289,-0.01447 c 0.0357,-0.03238 0.0655,-0.06477 0.12196,-0.09715 0.0584,-0.0384 0.071,-0.03103 0.0992,-0.03927 0.0955,0.01791 0.0894,0.03583 0.12609,0.05374 0.0379,0.04881 0.0343,0.0907 0.0413,0.134358 -0.009,0.03376 -0.0398,0.06752 -0.0641,0.101285 l -0.38654,0.347266 v 0.628385 l 0.0227,0.03721 0.15916,-0.105421 c 0.0197,-0.02527 0.0547,-0.04295 0.10749,-0.05168 0.0488,0.0177 0.0987,0.03409 0.12609,0.07855 0.0261,0.03721 0.0365,0.07442 0.0351,0.111622 -0.004,0.04129 -0.0325,0.07783 -0.0641,0.113687 z"
     id="path7"
     sodipodi:nodetypes="cccccccccccccccccccccccccccccccccccccccccccccccccccccccccccccccccccccccccccccccccccccccccccccccccccccccccccccccccccccc"
     inkscape:path-effect="#path-effect8"
     inkscape:original-d="m 99.765031,34.588372 -0.383804,0.0062 -0.633489,-0.52105 c -0.0419,-0.03069 -0.04152,-0.08253 -0.05262,-0.128622 -0.0033,-0.04093 -0.0061,-0.08185 0.01754,-0.122777 0.03663,-0.05044 0.08736,-0.06326 0.140319,-0.07016 0.0838,0.02473 0.167599,0.07149 0.251399,0.140317 l 0.03508,-0.02339 v -0.630613 l -0.39406,-0.336931 -0.05788,-0.117821 0.04134,-0.12609 0.107487,-0.04961 0.124024,0.03307 0.144693,0.101285 0.03307,-0.03307 v -0.63252 l -0.396875,-0.345197 -0.05581,-0.101288 0.04341,-0.130222 0.101286,-0.05375 0.128156,0.03927 0.115755,0.101285 0.04754,0.0041 0.02066,-0.04134 v -1.016992 l -0.331049,-0.191132 v -0.5065 l 2.168667,-0.0052 0.67179,0.845426 0.0765,0.02894 0.0971,-0.03514 0.65113,-0.841293 h 2.16421 v 0.520899 l -0.3306,0.190926 v 1.010071 l 0.0309,0.04547 0.1447,-0.109553 0.12195,-0.03927 0.10749,0.04754 0.0475,0.14056 -0.0537,0.101285 -0.39481,0.338997 v 0.632521 c 0.004,0.01447 0.0188,0.02894 0.0331,0.04341 l 0.0289,-0.01447 0.12196,-0.09715 c 0.0351,-0.02124 0.0703,-0.02346 0.10542,-0.02894 0.0369,-2.92e-4 0.0775,0.02103 0.11989,0.05374 0.0245,0.04272 0.0353,0.08544 0.0434,0.128159 -0.0138,0.03995 -0.0373,0.07503 -0.062,0.109554 l -0.39687,0.338997 v 0.620117 l 0.031,0.04134 0.15503,-0.107487 c 0.0297,-0.01718 0.0536,-0.03671 0.10956,-0.04341 0.076,0.02549 0.0978,0.05099 0.12609,0.07648 l 0.0331,0.107487 c 0.001,0.03927 -0.0242,0.07855 -0.0496,0.117822 l -0.63665,0.537435 h -0.38861 l -0.62632,-0.535366 c -0.0368,-0.03294 -0.053,-0.07613 -0.0682,-0.119891 -0.002,-0.01875 0.01,-0.05843 0.0351,-0.115755 0.0382,-0.03021 0.0783,-0.05451 0.12196,-0.06821 0.12509,0.04654 0.19047,0.106347 0.26871,0.163298 0.0281,-0.01436 0.0299,-0.03399 0.031,-0.05374 v -0.62217 l -0.39274,-0.347266 -0.062,-0.09509 c 8.8e-4,-0.04886 0.0159,-0.09301 0.0331,-0.136424 0.037,-0.01974 0.0624,-0.04526 0.13022,-0.04961 0.0667,0.0072 0.0853,0.02052 0.10956,0.03307 l 0.10335,0.09302 c 0.0179,0.01107 0.0347,0.02761 0.0579,0.01241 l 0.0165,-0.03307 V 32.07247 l -0.38654,-0.332796 -0.0599,-0.09715 c -0.0111,-0.04479 0.007,-0.08957 0.0289,-0.134358 0.0629,-0.0495 0.10383,-0.06761 0.12816,-0.06201 0.0559,7.9e-4 0.0799,0.02067 0.10955,0.03721 l 0.10542,0.09302 0.0599,0.01035 0.0104,-0.03721 v -0.527101 h -0.93638 l -0.62425,0.632519 c -0.0338,0.0337 -0.0943,0.04077 -0.15503,0.04754 -0.0579,0.0023 -0.10677,-0.01125 -0.14263,-0.04754 l -0.63872,-0.630452 h -0.94257 v 0.531233 c 0.004,0.02931 0.0189,0.03675 0.0393,0.03307 l 0.13849,-0.105418 c 0.0299,-0.015 0.0583,-0.03081 0.10956,-0.03514 0.021,0.003 0.12712,0.04178 0.11782,0.04961 0.0237,0.01035 0.0711,0.134361 0.0537,0.134361 -6.3e-4,0.03238 -0.0264,0.06477 -0.0599,0.09715 l -0.39894,0.345199 v 0.644922 l 0.0372,0.03514 0.0289,-0.01447 c 0.0357,-0.03238 0.0655,-0.06477 0.12196,-0.09715 0.0584,-0.0384 0.071,-0.03103 0.0992,-0.03927 0.0955,0.01791 0.0894,0.03583 0.12609,0.05374 0.0379,0.04881 0.0343,0.0907 0.0413,0.134358 -0.009,0.03376 -0.0398,0.06752 -0.0641,0.101285 l -0.38654,0.347266 v 0.628385 l 0.0227,0.03721 0.15916,-0.105421 c 0.0197,-0.02527 0.0547,-0.04295 0.10749,-0.05168 0.0488,0.0177 0.0987,0.03409 0.12609,0.07855 0.0261,0.03721 0.0365,0.07442 0.0351,0.111622 -0.004,0.04129 -0.0325,0.07783 -0.0641,0.113687 z"
     inkscape:label="compensator"
     transform="matrix(2.7905069,0,0,2.7905069,-176.687,-53.397236)" />
</svg>
