<?xml version="1.0" encoding="UTF-8" standalone="no"?>
<!-- Created with Inkscape (http://www.inkscape.org/) -->

<svg
   width="210mm"
   height="297mm"
   viewBox="0 0 210 297"
   version="1.1"
   id="svg1"
   inkscape:version="1.4 (86a8ad7, 2024-10-11)"
   sodipodi:docname="compensators.svg"
   xmlns:inkscape="http://www.inkscape.org/namespaces/inkscape"
   xmlns:sodipodi="http://sodipodi.sourceforge.net/DTD/sodipodi-0.dtd"
   xmlns="http://www.w3.org/2000/svg"
   xmlns:svg="http://www.w3.org/2000/svg">
  <sodipodi:namedview
     id="namedview1"
     pagecolor="#ffffff"
     bordercolor="#000000"
     borderopacity="0.25"
     inkscape:showpageshadow="2"
     inkscape:pageopacity="0.0"
     inkscape:pagecheckerboard="0"
     inkscape:deskcolor="#d1d1d1"
     inkscape:document-units="mm"
     inkscape:zoom="1"
     inkscape:cx="382.5"
     inkscape:cy="188.5"
     inkscape:window-width="2560"
     inkscape:window-height="1377"
     inkscape:window-x="-8"
     inkscape:window-y="-8"
     inkscape:window-maximized="1"
     inkscape:current-layer="svg1" />
  <defs
     id="defs1" />
  <path
     id="path2740"
     style="display:inline;fill:#5e5e5e;fill-rule:evenodd;stroke:#000000;stroke-width:0.0310446"
     d="m 29.831113,7.0878996 -11.829896,0.0065 -0.03533,0.03853 0.673791,4.5850074 0.04172,0.02577 h 0.718712 c 0,0 0.143799,-0.0479 0.195736,-0.09947 0.0529,-0.05256 0.102665,-0.198933 0.102665,-0.198933 v -0.272711 c 0.01087,-0.08841 0.05625,-0.164722 0.211755,-0.202131 0.207998,0.04017 0.206601,0.134889 0.224607,0.224607 v 2.024589 h -1.463096 l -0.02887,0.04172 v 1.033151 l 2.720847,4.068438 h 1.995714 l 2.733675,-4.071642 -0.03213,-0.05774 -1.459883,-1.010683 v -2.050266 c 0.03589,-0.11918 0.106452,-0.189807 0.227805,-0.18931 0.103751,0.0025 0.17534,0.06259 0.202131,0.202131 v 0.259874 c 0,0 0.0497,0.15454 0.105893,0.208557 0.05175,0.04977 0.195705,0.08984 0.195705,0.08984 h 2.425663 l 1.193573,0.619246 0.17326,1.447052 -1.626732,4.524044 0.04172,0.03213 h 3.410685 l 0.04172,-0.03213 2.383945,-6.619219 -0.67059,-1.273793 c -0.07081,-0.158047 -0.05181,-0.282101 0.192507,-0.320857 l 2.075927,0.0034 c 0.245749,0.04706 0.258415,0.175992 0.18931,0.333689 l -0.686631,1.264165 2.396782,6.641687 h 3.445977 l 0.02577,-0.05135 -1.61069,-4.536881 c 0,0 0.160438,-1.421384 0.176457,-1.421384 0.01614,0 1.2032,-0.609635 1.2032,-0.609619 l 2.457747,0.0065 c 0,0 0.112785,-0.05439 0.154012,-0.09947 0.0497,-0.05439 0.102665,-0.195736 0.102665,-0.195736 v -0.285547 c 0.03582,-0.122688 0.109773,-0.17444 0.205359,-0.186112 0.155378,0.01428 0.201697,0.09667 0.221379,0.195736 v 2.063087 l -1.472713,1.017116 -0.01273,0.04492 2.71443,4.055601 h 2.002131 l 2.733675,-4.071642 v -1.039564 l -0.04647,-0.04647 H 47.72214 v -2.032574 c 0.05635,-0.110923 0.12067,-0.202069 0.227805,-0.186113 0.129704,-0.0065 0.177389,0.0759 0.20536,0.179686 V 11.4553 c 0.04501,0.12837 0.100833,0.249692 0.288776,0.285579 l 0.721926,0.0096 0.04812,-0.03533 0.718712,-4.5818034 -0.04172,-0.03853 h -11.86856 l -0.03213,0.03533 v 2.9646904 c -0.01024,0.352632 -0.237056,0.495173 -0.545459,0.55829 -0.328349,-0.07516 -0.546987,-0.238702 -0.567907,-0.561494 V 7.1396926 l -0.02887,-0.04492 h -5.836341 l -0.03533,0.03533 v 2.9582764 c -0.07507,0.358148 -0.292999,0.495542 -0.55508,0.564703 -0.387644,-0.04477 -0.534509,-0.257452 -0.555076,-0.558287 V 7.1333066 Z m 16.296194,5.3358044 v 3.362553 H 44.91448 v -2.534753 z m -24.359259,0.02235 1.209617,0.814972 v 2.512287 h -1.209617 z"
     inkscape:label="compensator">
    <title
       id="title13">rubber</title>
  </path>
  <path
     id="path2742"
     style="display:inline;fill:#5e5e5e;fill-rule:evenodd;stroke:#000000;stroke-width:0.0306523"
     d="m 25.199334,21.607672 -9.465994,0.0034 -0.03173,0.03488 0.497377,4.64746 h 0.807838 c 0,0 0.122394,-0.04469 0.167913,-0.08871 0.05505,-0.05327 0.114057,-0.199577 0.114057,-0.199577 v -0.259778 c 0.02299,-0.123345 0.102777,-0.179592 0.218581,-0.193263 0.08552,0.0024 0.162304,0.03795 0.205922,0.199577 v 1.761403 l -1.476293,1.01376 2.730818,4.432033 h 2.033856 l 2.781508,-4.422527 -0.02851,-0.03804 -1.501637,-1.010587 v -1.751901 c 0.0343,-0.105107 0.101061,-0.177722 0.228084,-0.190075 0.179193,0.02513 0.197952,0.103666 0.202765,0.186918 l -0.0034,0.272437 c 0,0 0.04825,0.147162 0.101367,0.199577 0.05281,0.05208 0.199577,0.09821 0.199577,0.09821 h 2.2271 l 0.807848,0.386504 0.142563,0.925052 -1.704383,5.322243 0.02207,0.03169 3.478462,0.0034 0.04435,-0.03172 1.596671,-4.989607 -0.89021,-2.173244 c 0,0 -0.07424,-0.397285 0,-0.573416 0.06992,-0.165828 0.219379,-0.310213 0.386501,-0.376989 0.156909,-0.06268 0.349924,-0.05616 0.506882,0.0064 0.176312,0.07029 0.41817,0.386504 0.41817,0.386504 l 1.610931,3.921978 c 0.444416,1.081974 1.39681,2.00226 3.071378,2.056036 1.342653,0.04313 2.512053,-0.740467 3.057121,-2.070286 l 1.603008,-3.910901 c 0,0 0.259655,-0.318284 0.443523,-0.386494 0.168312,-0.06244 0.373063,-0.06618 0.538561,0.0034 0.16451,0.06915 0.315638,0.212574 0.376986,0.380159 0.06409,0.175086 -0.04435,0.557568 -0.04435,0.557568 l -0.899718,2.185928 1.618854,5.014945 3.54182,0.0034 0.02544,-0.04435 -1.729727,-5.344422 0.180572,-0.899709 0.785664,-0.386495 h 2.20493 c 0.180235,-0.01839 0.244636,-0.144985 0.291442,-0.288284 v -0.278783 c 0,0 0.105965,-0.183852 0.19642,-0.186918 0.09741,-0.0034 0.224926,0.186918 0.224926,0.186918 v 1.764576 l -1.501631,1.020095 -0.0034,0.0412 2.765661,4.406696 h 2.030693 l 2.730812,-4.42887 -0.01594,-0.0412 -1.460447,-1.013761 0.0095,-1.751906 c 0,0 0.136005,-0.186918 0.234429,-0.180573 0.08794,0.0058 0.186918,0.186918 0.186918,0.186918 v 0.262935 c 0,0 0.04818,0.150962 0.101367,0.205922 0.04996,0.05159 0.190075,0.101367 0.190075,0.101367 h 0.769823 l 0.02851,-0.04435 0.487877,-4.615775 -0.0412,-0.03488 -9.453316,0.0095 -0.03804,0.019 v 1.035943 c -0.06238,0.303611 -0.230506,0.440256 -0.453023,0.49104 -0.290522,-0.03681 -0.458187,-0.205002 -0.503715,-0.503718 v -1.014223 l -0.03173,-0.03488 h -5.458467 l -0.03804,0.03169 -2.604099,6.285316 c -0.0907,0.154335 -0.190105,0.26361 -0.332641,0.269281 -0.158626,0.0064 -0.32139,-0.129935 -0.392831,-0.269281 l -2.616774,-6.317001 h -5.474308 l -0.03804,0.03172 v 1.01376 c -0.01165,0.381765 -0.205707,0.472186 -0.449859,0.52272 -0.240099,-0.0064 -0.415574,-0.160434 -0.503709,-0.513224 v -1.020092 z m 24.156007,5.566179 c 0.378378,0.0024 0.607869,0.193661 0.665287,0.601922 v 2.306303 c -0.07016,0.344201 -0.289297,0.534003 -0.595587,0.633601 -0.51482,-0.06747 -0.629181,-0.321346 -0.658944,-0.614591 v -2.31898 c 0.07357,-0.3729 0.296775,-0.538509 0.589244,-0.608255 z m -29.416476,0.01441 c 0.02023,-8.09e-4 0.04114,8.12e-4 0.0618,0.0049 0.33746,0.01441 0.542726,0.187562 0.608255,0.582912 v 2.312638 c -0.05548,0.339701 -0.246567,0.555745 -0.589245,0.633601 -0.436647,-0.03286 -0.531032,-0.334637 -0.620932,-0.639934 0,0 0.01226,-2.270856 0,-2.299973 -0.03583,-0.08417 0.234429,-0.581654 0.540145,-0.593998 z"
     inkscape:label="compensator"
     sodipodi:nodetypes="ccccccccccccccccccccccccccccccccssscssscsssccccccccccccccccccccccccccccccccccccccccccccccccccccccccccccccccccc">
    <title
       id="title12">rubber</title>
  </path>
  <path
     id="path2744"
     style="display:inline;fill:#5e5e5e;fill-rule:evenodd;stroke:#000000;stroke-width:0.029031"
     d="m 9.3862052,46.474406 0.6870968,4.53366 h 0.801119 c 0,0 0.13154,-0.0038 0.180022,-0.04201 0.05737,-0.045 0.09903,-0.19503 0.09903,-0.19503 v -0.264037 c 0.03832,-0.11476 0.0999,-0.195989 0.21001,-0.207021 0.120798,0.02148 0.200198,0.09148 0.225048,0.225049 V 52.4903 l -1.527223,1.008149 2.766403,3.999582 h 2.010296 l 2.763404,-3.999582 -1.533226,-1.032152 v -1.956315 c -0.04839,-0.03626 0.157493,-0.199531 0.228039,-0.21303 0.09211,-0.01771 0.236922,0.184521 0.20702,0.228039 v 0.249028 c 0,0 0.04503,0.147274 0.102015,0.19204 0.05115,0.04018 0.189021,0.04802 0.189021,0.04802 h 2.232325 c 0,0 0.230274,0.08042 0.312046,0.165041 0.08425,0.08715 0.159031,0.327049 0.159031,0.327049 l -1.014152,5.949866 0.03603,0.045 h 3.912571 l 0.03603,-0.0209 0.948141,-5.670829 c 0.151252,-0.353615 0.337181,-0.690485 0.960143,-0.816116 h 0.852127 c 0.452042,0.09914 0.793615,0.317474 0.942135,0.744108 l 2.424356,9.607401 c 0,0 0.735942,1.826138 1.410199,2.50837 0.657681,0.665461 1.52666,1.161902 2.430361,1.404201 0.927384,0.248651 1.953421,0.250073 2.880422,0 0.913879,-0.246531 1.792218,-0.751793 2.454354,-1.428204 0.670164,-0.684612 1.392206,-2.51437 1.392206,-2.51437 l 2.442359,-9.595403 c 0.185508,-0.442947 0.52551,-0.650469 0.948132,-0.732104 h 0.858128 c 0.648887,0.135313 0.782769,0.48975 0.912134,0.846123 l 0.984143,5.646823 h 3.948575 L 48.247927,51.46726 c 0.06529,-0.225745 0.207688,-0.405772 0.528077,-0.480071 h 2.190326 c 0.161209,0.01626 0.234193,-0.08515 0.276027,-0.228039 v -0.252052 c 0,0 0.09592,-0.230477 0.198021,-0.234048 0.106021,-0.0038 0.222029,0.228039 0.222029,0.228039 v 1.998297 l -1.476221,1.008146 2.742406,3.972577 h 1.998291 l 2.760403,-3.990583 -1.530225,-1.02615 v -1.962287 c 0,0 0.146084,-0.223191 0.258028,-0.21602 0.108779,0.007 0.222029,0.240028 0.222029,0.240028 v 0.240029 l 0.07801,0.18603 0.180021,0.04201 h 0.762105 l 0.696109,-4.470651 -0.04802,-0.0241 H 38.814484 l -3.522519,13.820022 c 0,0 -0.416598,0.802932 -0.798114,0.984137 -0.374924,0.178077 -0.872922,0.18037 -1.245187,-0.0032 -0.381807,-0.188266 -0.78011,-1.01115 -0.78011,-1.01115 L 28.929531,46.501219 Z m 44.5264958,5.40079 c 0.352393,0.04125 0.553723,0.258782 0.618091,0.636087 v 2.202325 c -0.04877,0.38653 -0.263457,0.57947 -0.600086,0.630089 -0.46305,-0.08283 -0.519728,-0.360705 -0.594091,-0.630089 V 52.48728 c 0.06259,-0.297521 0.226065,-0.522169 0.576086,-0.612084 z m -40.061846,0.0241 c 0.397998,0.02613 0.484118,0.303464 0.561077,0.588081 v 2.232325 c 0,0.215004 -0.305488,0.632302 -0.562581,0.595586 -0.424398,-0.06059 -0.518923,-0.277827 -0.601586,-0.601584 v -2.22032 c 0.06323,-0.332034 0.25196,-0.542012 0.60309,-0.594088 z"
     inkscape:label="compensator"
     sodipodi:nodetypes="ccccccccccccccccccscccccccccccccsssscccccccccccccccccccccscccccccccssccccccccccccssccc">
    <title
       id="title11">rubber</title>
  </path>
  <path
     id="path2741"
     style="display:inline;fill:#5e5e5e;fill-rule:evenodd;stroke:#000000;stroke-width:0.0304534"
     d="m 40.797652,132.178 -11.972878,0.006 -0.02193,0.0274 -1.561131,8.82855 c -0.212351,0.74224 -0.61982,1.22431 -1.400611,1.20863 -0.820088,-0.13095 -1.333693,-0.52264 -1.482442,-1.22435 l -1.48874,-8.80971 -0.04407,-0.0347 H 4.8602569 l -0.03466,0.0347 0.494149,4.62675 h 0.805748 c 0,0 0.136736,-0.0368 0.179401,-0.088 0.04681,-0.056 0.05978,-0.21074 0.05978,-0.21074 v -0.25794 c 0,0 0.115723,-0.22322 0.22033,-0.22353 0.111277,-3.9e-4 0.236044,0.23602 0.236044,0.23602 v 2.03952 l -1.507621,1.02293 2.757156,4.10426 h 2.0175141 l 2.804371,-4.07908 -0.0094,-0.0408 -1.495035,-1.01348 0.0033,-2.05213 c 0,0 0.08972,-0.21714 0.185704,-0.22018 0.11347,-0.003 0.236044,0.24545 0.236044,0.24545 v 0.23297 c 0,0 0.03697,0.15257 0.08813,0.20769 0.05141,0.0554 0.201449,0.10385 0.201449,0.10385 h 2.225243 c 0,0 0.319407,0.0868 0.402874,0.21409 0.07973,0.1215 0.03466,0.43435 0.03466,0.43435 l -0.981997,5.93293 0.03779,0.0472 h 3.975218 l 0.04093,-0.0408 0.92535,-5.79446 -0.08499,-0.34622 c 0,0 0.253493,-0.40037 0.456383,-0.40287 0.213691,-0.002 0.490987,0.41231 0.491006,0.41231 l 0.736499,4.45679 c 0,0 0.482725,1.59402 0.947377,2.26929 0.446729,0.64927 1.71221,1.63038 1.71221,1.63038 0,0 0.658048,2.80579 1.328223,4.06334 0.676318,1.26908 1.58349,2.44181 2.656438,3.39926 1.054825,0.94128 2.294573,1.71437 3.61641,2.21579 1.331963,0.50528 2.783557,0.74805 4.208134,0.74595 1.407205,-0.002 2.839801,-0.24758 4.154622,-0.74909 1.321451,-0.504 2.562078,-1.2763 3.61641,-2.21895 1.078887,-0.96461 1.989668,-2.14657 2.669034,-3.42442 0.667205,-1.25502 1.321919,-4.05392 1.321919,-4.05392 0,0 1.281989,-0.9863 1.731097,-1.64296 0.45688,-0.668 0.919055,-2.24728 0.919055,-2.24728 l 0.755387,-4.46937 c 0,0 0.293357,-0.4095 0.509884,-0.40286 0.213874,0.006 0.478413,0.42805 0.478413,0.42805 l -0.113317,0.33992 0.931651,5.80389 h 4.035019 c 0,0 -0.975708,-5.98329 -0.975708,-5.99587 0,-0.0122 -0.03408,-0.30027 0.04407,-0.41547 0.0772,-0.1139 0.365099,-0.19216 0.365099,-0.19216 h 2.256714 c 0,0 0.141851,-0.0436 0.191978,-0.0944 0.05476,-0.0554 0.100739,-0.21105 0.100709,-0.21105 v -0.26433 c 0,0 0.112434,-0.22018 0.214026,-0.21713 0.09885,0.003 0.195145,0.22352 0.195145,0.22352 v 2.06788 l -1.488743,0.99774 -0.01584,0.0408 2.804375,4.08225 h 2.017505 l 2.760314,-4.09169 -0.0094,-0.0408 -1.495035,-1.00718 v -2.06157 c 0,0 0.119408,-0.20952 0.22033,-0.20769 0.09569,0.002 0.201419,0.19216 0.201419,0.20465 v 0.28017 c 0,0 0.04047,0.148 0.09127,0.20129 0.05043,0.053 0.195145,0.1008 0.195145,0.1008 h 0.767979 l 0.03466,-0.0317 0.47841,-4.59526 -0.02528,-0.0378 -18.012815,0.006 -1.531229,8.87107 c -0.234887,0.81405 -0.768874,1.12656 -1.441528,1.20705 -0.729562,-0.11085 -1.260909,-0.45939 -1.433662,-1.23379 l -1.517102,-8.82074 z m -8.746746,5.16495 5.545792,0.0244 c 0,0 0.395967,2.93875 0.793158,4.36235 0.219965,0.78844 0.419474,1.61439 0.874993,2.29448 0.458877,0.68511 1.09012,1.27858 1.801904,1.69488 0.672395,0.39327 2.229966,0.69875 2.229966,0.69875 0,0 -1.652321,3.56061 -3.145872,4.71957 -1.490805,1.15684 -5.342775,1.87273 -5.342784,1.87273 -1.887162,0 -3.870051,-0.70042 -5.363234,-1.86326 -1.494118,-1.16356 -3.122265,-4.74634 -3.122265,-4.74637 0,0 1.573562,-0.31872 2.253568,-0.7176 0.704267,-0.4131 1.326375,-1.00082 1.787746,-1.67445 0.453789,-0.66254 0.67876,-1.46273 0.900171,-2.23466 0.413657,-1.44218 0.786857,-4.4317 0.786857,-4.4317 z m -22.9448531,0.37138 c 0.445104,0.0274 0.54831,0.30179 0.604311,0.61062 v 2.33537 c -0.06712,0.36849 -0.297469,0.50851 -0.572837,0.58544 -0.371282,-0.0317 -0.604101,-0.2016 -0.623198,-0.58544 v -2.31649 c 0.04519,-0.35241 0.279044,-0.52791 0.591724,-0.6295 z m 51.4134691,0.0183 c 0.382859,0.0633 0.566496,0.28413 0.588572,0.63266 v 2.2756 c -0.03584,0.37644 -0.25118,0.54612 -0.563391,0.60429 -0.486711,-0.0585 -0.539938,-0.32936 -0.610602,-0.59171 v -2.28818 c 0.04151,-0.36906 0.258915,-0.55699 0.585421,-0.63266 z"
     inkscape:label="compensator"
     sodipodi:nodetypes="cccccccccccccccsccccccccccscsccsccccccccccscssssssscscccccccssccsccccccccccccccscacccccccccccccssscssscsssccccccccccccccc">
    <title
       id="title10">rubber</title>
  </path>
  <path
     id="path2745"
     style="display:inline;fill:#5e5e5e;fill-rule:evenodd;stroke:#000000;stroke-width:0.0292403"
     d="m 48.018971,163.61691 c 0,0 -0.439487,0.12485 -0.604406,0.27193 -0.182108,0.16229 -0.37474,0.62858 -0.37474,0.62858 l -1.384104,7.78485 c 0,0 -0.244244,0.65288 -0.501667,0.86431 -0.259215,0.21287 -0.616502,0.32761 -0.95195,0.32638 -0.340573,-0.001 -0.702831,-0.11988 -0.964038,-0.33845 -0.255677,-0.21404 -0.492599,-0.87037 -0.492599,-0.87037 l -1.35691,-7.79695 c 0,0 -0.180062,-0.44755 -0.356597,-0.59835 -0.181495,-0.15497 -0.66486,-0.26608 -0.66486,-0.26608 h -7.373846 l -0.132956,0.35056 -0.06646,0.0997 h -0.151114 l -0.0967,-0.0997 -0.08915,-0.33395 -0.03775,-0.0175 h -7.281675 c 0,0 -0.513106,0.1041 -0.708671,0.26287 -0.189389,0.15381 -0.389849,0.61954 -0.389849,0.61954 l -1.35691,7.79693 c 0,0 -0.242198,0.65416 -0.498641,0.86732 -0.257022,0.21375 -0.611701,0.33375 -0.945903,0.33244 -0.344775,-0.001 -0.710466,-0.1272 -0.973111,-0.35057 -0.252811,-0.21491 -0.483532,-0.87033 -0.483532,-0.87033 l -1.359928,-7.80602 c 0,0 -0.178307,-0.43398 -0.350556,-0.58024 C 17.896661,163.74643 17.435717,163.64 17.435717,163.64 H 9.7808094 l -0.10275,0.35661 -0.10275,0.0845 h -0.154126 l -0.06342,-0.10877 -0.129944,-0.35358 -10.4533336,0.003 -0.03629,0.0362 0.51072196,4.50289 0.02427,0.0263 1.19372005,0.006 c 0,0 0.142225,0.0234 0.190384,0.0696 0.05222,0.0515 0.07857,0.20556 0.07857,0.20556 l -0.0061,1.1937 -1.21184405,0.79481 c 0,0 -0.166114,0.13772 -0.181319,0.23568 -0.0114,0.0731 0.07559,0.20848 0.07559,0.20848 l 2.56875614,3.81083 h 2.055005 l 2.571783,-3.78062 c 0,0 0.106142,-0.15615 0.09369,-0.24182 -0.01462,-0.10088 -0.187372,-0.24182 -0.187372,-0.24182 l -1.217893,-0.80083 v -1.20882 c 0.03272,-0.12983 0.105821,-0.22837 0.275005,-0.25381 h 2.475076 c 0.336249,0.0351 0.479994,0.23012 0.474462,0.55001 l -0.797824,5.94139 0.03629,0.0333 h 4.0374821 l 0.03327,-0.0234 0.713212,-5.34604 c 0,0 0.193542,-0.62583 0.42611,-0.8341 0.228718,-0.20498 0.554279,-0.32864 0.86129,-0.32638 0.312012,0.002 0.635839,0.13859 0.870355,0.34451 0.233864,0.20526 0.453313,0.81597 0.453313,0.81597 l 0.664851,3.65367 0.849202,2.20913 1.746754,1.61982 c 0,0 0.729811,3.42194 1.526147,4.9562 0.800517,1.54231 1.8964,2.9633 3.191303,4.1221 1.295403,1.15923 2.82644,2.09954 4.451501,2.71686 1.62662,0.61787 3.397491,0.92522 5.137519,0.92472 1.740204,-4.9e-4 3.510897,-0.30936 5.137514,-0.92776 1.630386,-0.61984 3.167089,-1.56246 4.466618,-2.7259 1.294193,-1.15865 2.388627,-2.58005 3.188276,-4.12209 0.798105,-1.53912 1.529174,-4.97132 1.529174,-4.97132 l 1.731645,-1.59263 0.885463,-2.21214 0.640676,-3.69297 c 0,0 0.234887,-0.58802 0.46842,-0.78273 0.233835,-0.19503 0.849162,-0.33846 0.855247,-0.32033 0.0061,0.0175 0.638336,0.12661 0.867337,0.33545 0.224302,0.20468 0.404952,0.81595 0.404952,0.81595 l 0.719255,5.34001 0.03629,0.0263 h 4.034455 l 0.0393,-0.0424 -0.818977,-5.93232 c 0,0 0.03769,-0.29785 0.132956,-0.40194 0.08743,-0.0956 0.356606,-0.1541 0.356606,-0.1541 h 2.490185 c 0,0 0.132546,0.0263 0.178307,0.0725 0.05307,0.0523 0.08763,0.20556 0.08763,0.20556 v 1.20882 l -1.239045,0.79481 c 0,0 -0.109534,0.13743 -0.123921,0.22076 -0.01433,0.0825 0.04231,0.24767 0.04231,0.24767 l 2.559689,3.78363 h 2.018744 l 2.617109,-3.80477 c 0,0 0.04863,-0.14503 0.03629,-0.21755 -0.0155,-0.0906 -0.132956,-0.24182 -0.132956,-0.24182 l -1.217893,-0.80086 v -1.21485 c 0,0 0.03281,-0.1383 0.08161,-0.1845 0.05164,-0.0488 0.199448,-0.0757 0.199448,-0.0757 h 1.166515 l 0.03629,-0.0234 0.510734,-4.49081 -0.03026,-0.0392 h -10.43828 l -0.02719,0.0146 -0.132984,0.34755 -0.07559,0.10585 h -0.135997 l -0.107283,-0.10731 -0.07404,-0.34603 -0.04231,-0.0205 z m -10.855259,5.07404 0.65276,0.24181 0.332427,0.56817 0.601397,3.4784 c 0,0 0.454625,1.59585 0.92475,2.26051 0.47217,0.66752 1.831375,1.6319 1.831375,1.6319 l 2.26957,0.66486 c 0,0 -1.104938,3.24348 -2.139626,4.56935 -1.043791,1.33757 -2.422897,2.46818 -3.946819,3.21398 -1.524765,0.74621 -3.264667,1.14321 -4.962233,1.14537 -1.689343,0.002 -3.421298,-0.38957 -4.941083,-1.12724 -1.530188,-0.7427 -2.92114,-1.86696 -3.969486,-3.2064 -1.0412,-1.33032 -2.144153,-4.59204 -2.144153,-4.59204 l 2.254459,-0.66484 c 0,0 1.358322,-0.9518 1.831375,-1.6138 0.474757,-0.6644 0.936835,-2.26352 0.936835,-2.26352 l 0.598374,-3.4784 0.320336,-0.57118 0.619531,-0.2538 z m -34.1372771,0.38381 c 0.381881,0.009 0.520749,0.26784 0.607429,0.58024 v 2.25446 c -0.06854,0.33559 -0.267432,0.54831 -0.618014,0.61802 -0.372411,-0.0585 -0.566938,-0.26872 -0.608947,-0.60896 v -2.23027 c 0.07348,-0.38182 0.280063,-0.58627 0.619532,-0.61349 z m 59.4017571,0.003 c 0.414589,0.0421 0.534469,0.29831 0.59837,0.59536 v 2.23934 c 0,0.22837 -0.325342,0.5608 -0.510725,0.61045 -0.272257,0.0731 -0.748218,-0.52735 -0.689033,-0.59837 v -2.2454 c 0.09515,-0.28626 0.20591,-0.55998 0.601388,-0.60138 z"
     inkscape:label="compensator"
     sodipodi:nodetypes="csccsssccscccccccccsccsssccsccccccccccccccccsccccscccccccccccsssccccsssssssccccssaccccccsccscccsccccscccaccccccccccccccccccsccsssssccsccccccccccccccssccc">
    <title
       id="title9">rubber</title>
  </path>
  <path
     id="path2748"
     style="display:inline;fill:#5e5e5e;fill-rule:evenodd;stroke:#000000;stroke-width:0.0309596"
     d="m 83.021158,7.4889263 -0.03529,0.03523 0.716745,4.5980607 0.02786,0.0161 h 1.180706 c 0,0 0.150464,0.03923 0.201547,0.09279 0.04923,0.05161 0.07988,0.198389 0.07988,0.198389 v 1.187112 l -1.209499,0.85433 -0.195355,0.182383 0.09597,0.252785 2.537418,3.826919 h 1.996678 l 2.534229,-3.839715 0.04489,-0.239998 -0.09598,-0.201578 -1.254328,-0.84794 0.01238,-1.203112 c 0,0 0.03096,-0.141826 0.08019,-0.188792 0.05263,-0.04981 0.204953,-0.07356 0.204953,-0.07356 h 3.238157 l 0.01548,-0.0257 v -1.369505 c 0.08638,-0.309317 0.243033,-0.568399 0.684765,-0.623953 0.328729,0.04365 0.498449,0.272816 0.623959,0.553558 0,0 0.168111,2.449415 0.556747,3.59974 0.301546,0.892594 0.64235,1.861381 1.350303,2.483016 0.689873,0.605762 1.651354,0.994389 2.569399,0.991921 0.914268,-0.0025 1.867448,-0.397119 2.553428,-1.001521 0.70767,-0.623505 1.05612,-1.589033 1.35671,-2.483016 0.38563,-1.146957 0.53755,-3.590131 0.53755,-3.59014 -0.0325,-0.03573 0.32111,-0.581245 0.67195,-0.563159 0.46968,0.02415 0.67331,0.654666 0.63996,0.662356 l 0.003,1.340703 0.0322,0.02229 h 3.21893 l 0.30402,0.294394 v 1.190307 l -1.25111,0.844739 -0.10557,0.207987 0.0511,0.220773 2.51822,3.839718 h 2.00947 l 2.58222,-3.84292 0.048,-0.243187 -0.15356,-0.191981 -1.24155,-0.854339 v -1.183906 c 0,0 0.0697,-0.15198 0.13127,-0.204797 0.048,-0.04105 0.17276,-0.07675 0.17276,-0.07675 h 1.13912 l 0.0415,-0.02229 0.71034,-4.5788697 -0.0322,-0.03842 h -7.56114 l -0.096,0.374372 c 0,0 -0.0625,0.08402 -0.10867,0.102384 -0.0365,0.01455 -0.0817,0.01486 -0.11826,0 -0.0455,-0.01858 -0.10557,-0.102384 -0.10557,-0.102384 l -0.0991,-0.371177 -0.0217,-0.0096 h -2.72011 c 0,0 -1.51881,0.292599 -2.07664,0.777535 -0.56805,0.493803 -0.83944,1.2701077 -1.07833,1.9838597 -0.38331,1.145348 -0.53436,3.583738 -0.53436,3.583738 0,0 -0.22693,0.700706 -0.489564,0.934327 -0.243343,0.216253 -0.911915,0.348782 -0.911915,0.348782 0,0 -0.715786,-0.12678 -0.97594,-0.355181 -0.260989,-0.229132 -0.479967,-0.924727 -0.479967,-0.924727 0,0 -0.156346,-2.442625 -0.540771,-3.59014 -0.240206,-0.716761 -0.985466,-1.9678007 -1.081472,-1.9933987 -0.09597,-0.0257 -2.025439,-0.761544 -2.025439,-0.761544 h -2.72299 l -0.140866,0.371175 c 0,0 -0.03653,0.0909 -0.07678,0.11198 -0.0452,0.02384 -0.105881,0.01858 -0.153559,0 -0.04861,-0.01888 -0.11517,-0.105603 -0.11517,-0.105603 l -0.100928,-0.375967 z m 4.386851,5.5355887 c 0.41006,0.02229 0.587923,0.251051 0.614363,0.614356 v 2.271834 c -8.05e-4,0.36984 -0.229721,0.544709 -0.588728,0.607947 -0.389967,-0.04539 -0.558666,-0.267738 -0.607985,-0.585551 v -2.310227 c 0.07399,-0.316156 0.220123,-0.562152 0.58235,-0.598359 z m 23.121491,0.0034 c 0.41888,0.05898 0.53684,0.304147 0.60158,0.58236 v 2.294227 c 0.0684,0.22489 -0.34158,0.646538 -0.60477,0.604755 -0.46257,-0.0734 -0.61916,-0.527551 -0.60476,-0.58235 0.009,-0.03718 0,-2.300636 0,-2.300636 0.0988,-0.332242 0.29566,-0.539118 0.60795,-0.598356 z"
     inkscape:label="compensator">
    <title
       id="title8">rubber</title>
  </path>
  <path
     id="path2750"
     style="display:inline;fill:#5e5e5e;fill-rule:evenodd;stroke:#000000;stroke-width:0.0301216"
     d="m 78.408741,23.144782 -0.0374,0.03118 0.70669,4.613694 0.0343,0.01235 h 1.17055 c 0.14639,-0.01355 0.2479,0.06654 0.28646,0.277089 v 1.19545 l -1.22348,0.834319 c 0,0 -0.11898,0.104974 -0.13706,0.177446 -0.0211,0.07859 0.0404,0.239708 0.0404,0.239708 l 2.55901,3.869646 c 0,0 1.98745,0.01928 1.99865,0 0.0121,-0.01928 2.58702,-3.863423 2.58702,-3.863423 0,0 0.056,-0.158952 0.0374,-0.236605 -0.0181,-0.08097 -0.1464,-0.202357 -0.1464,-0.202357 l -1.20793,-0.834253 v -1.186109 c 0,0 0.0434,-0.149644 0.0964,-0.202357 0.0416,-0.04121 0.15874,-0.07467 0.15874,-0.07467 h 2.47807 c 0,0 0.27109,0.07389 0.35179,0.177446 0.0786,0.100636 0.084,0.373577 0.084,0.373577 l -0.78765,6.01773 0.0313,0.03118 h 3.19099 l 0.0343,-0.03118 c 0,0 0.74403,-5.588109 0.74403,-5.613014 0,-0.025 -0.0467,-0.392258 -0.0467,-0.47943 0,-0.08717 0.003,-0.507446 -0.003,-0.519895 -0.006,-0.01235 -0.0777,-0.551029 -0.0777,-0.551029 l 0.0374,-0.616399 0.45144,-0.317542 0.53544,0.130758 0.28947,0.457634 c 0,0 0.21567,2.177025 0.66309,3.15362 0.51433,1.122725 1.14086,2.397413 2.2477,2.945041 1.08917,0.538869 2.55928,0.544758 3.64553,0 1.100909,-0.55214 1.706209,-1.836937 2.210319,-2.960604 0.44224,-0.985807 0.65066,-3.17542 0.65066,-3.17542 l 0.34398,-0.426494 0.54171,-0.110516 0.40938,0.339331 0.0389,0.594609 -0.0343,0.55881 -0.053,0.168108 0.009,0.554141 -0.012,0.270853 0.6911,5.616123 0.0211,0.0033 h 3.23144 l 0.0181,-0.03118 -0.79696,-6.027062 c 0,0 0.0464,-0.278474 0.13705,-0.376695 0.0828,-0.08976 0.33312,-0.152535 0.33312,-0.152535 h 2.47494 c 0,0 0.14458,0.0253 0.18675,0.07786 0.0443,0.05506 0.0374,0.208592 0.0374,0.208592 v 1.189227 l -1.21411,0.828096 c 0,0 -0.13073,0.109281 -0.1494,0.186784 -0.0211,0.0813 0.0497,0.245943 0.0497,0.245943 l 2.58078,3.847853 h 2.0111 l 2.52789,-3.854076 c 0,0 0.0726,-0.153078 0.056,-0.23037 -0.0181,-0.08973 -0.16808,-0.21793 -0.16808,-0.2179 l -1.19233,-0.821879 v -1.186109 c 0,0 0.0404,-0.154584 0.0964,-0.205459 0.0548,-0.04964 0.20844,-0.07467 0.20844,-0.07467 h 1.17366 l 0.71912,-4.607462 -0.0313,-0.04048 h -9.51688 l -0.0374,0.01235 -0.081,0.414048 -0.10904,0.09338 h -0.15573 l -0.0717,-0.112082 -0.13706,-0.407822 h -3.44003 c 0,0 -1.53322,0.320294 -2.11071,0.803191 -0.59457,0.497172 -0.918619,1.2697 -1.198569,1.992416 -0.42203,1.089486 -0.20693,2.37221 -0.68801,3.43692 -0.17621,0.389996 -0.39477,0.831205 -0.77831,1.021113 -0.3654,0.18094 -0.85659,0.17841 -1.22323,0 -0.39613,-0.192748 -0.63054,-0.640123 -0.81567,-1.039872 -0.49498,-1.068895 -0.28133,-2.36455 -0.70978,-3.461819 -0.27923,-0.715502 -0.59725,-1.484286 -1.18923,-1.973743 -0.57791,-0.47784 -2.11071,-0.778285 -2.11071,-0.778285 h -3.41202 l -0.15242,0.429612 -0.0747,0.102745 h -0.12771 l -0.081,-0.124523 -0.14007,-0.407822 z m 33.488179,5.525839 c 0.37052,0.0244 0.53161,0.263715 0.57903,0.619523 v 2.266374 c -0.056,0.315765 -0.21688,0.540725 -0.57903,0.591491 -0.34818,-0.05801 -0.56264,-0.229677 -0.57906,-0.569704 v -2.294387 c 0.0548,-0.310403 0.17079,-0.574088 0.57906,-0.613297 z m -29.061269,0.0016 c 0.41026,0.02982 0.52276,0.300643 0.57282,0.621067 v 2.253926 c -0.0599,0.297601 -0.18795,0.546122 -0.58529,0.59928 -0.45179,-0.02711 -0.50987,-0.316611 -0.58526,-0.594609 v -2.258597 c 0.0563,-0.424973 0.2717,-0.606721 0.59773,-0.621067 z"
     inkscape:label="compensator"
     sodipodi:nodetypes="cccccccccccccccccsccscccccssccccccssssccccccccccccccsccsccccccccccccsccccccccccccsssssssscccccccccccccccccccccc">
    <title
       id="title7">rubber</title>
  </path>
  <path
     id="path2752"
     style="display:inline;fill:#5e5e5e;fill-rule:evenodd;stroke:#000000;stroke-width:0.0299637"
     d="m 83.644055,46.403358 -0.021,0.03101 -0.12705,0.343746 -0.065,0.102207 h -0.15791 l -0.10218,-0.114582 -0.0836,-0.359237 h -10.58497 l -0.0401,0.03719 0.73704,4.57092 0.0401,0.02787 h 1.16754 c 0,0 0.13993,0.02757 0.18877,0.07428 0.0524,0.04995 0.0899,0.19821 0.0899,0.19821 v 1.241823 l -1.24805,0.808282 c 0,0 -0.13663,0.147661 -0.15161,0.241538 -0.012,0.08081 0.0587,0.23845 0.0587,0.23845 l 2.57349,3.830788 h 2.03771 l 2.52701,-3.843172 c 0,0 0.0596,-0.15647 0.0464,-0.235364 -0.015,-0.09169 -0.13933,-0.241537 -0.13933,-0.241537 l -1.20158,-0.811375 v -1.241832 c 0,0 0.0318,-0.14865 0.0836,-0.19818 0.0518,-0.04938 0.20136,-0.07428 0.20136,-0.07428 h 2.44959 c 0,0 0.25768,0.07287 0.33754,0.170343 0.0908,0.110986 0.11446,0.41497 0.11446,0.41497 l -0.79278,6.038823 0.027,0.02157 h 4.01968 l 0.027,-0.03101 0.95384,-7.299232 c 0,0 0.13483,-0.442243 0.29724,-0.591492 0.15551,-0.142867 0.3773,-0.226945 0.58839,-0.235365 0.34126,-0.01378 0.71281,0.08902 0.97859,0.303487 0.26667,0.215109 0.50479,0.894985 0.50479,0.894985 0,0 0.77597,5.335273 1.67539,7.858211 0.39244,1.100854 0.80947,2.260124 1.60261,3.118509 0.78742,0.8522 1.84447,1.513036 2.96056,1.830232 1.12903,0.320866 2.3935,0.325852 3.52109,0 1.10428,-0.319113 2.142385,-0.988957 2.917245,-1.837969 0.79748,-0.873822 1.21781,-2.047948 1.61189,-3.163418 0.89559,-2.534975 1.65579,-7.82941 1.66454,-7.890725 0.009,-0.06127 0.22293,-0.657277 0.48155,-0.859376 0.26967,-0.210704 0.64844,-0.298648 0.98946,-0.270961 0.23041,0.01858 0.462,0.130821 0.63019,0.289539 0.1585,0.149698 0.30659,0.577562 0.30659,0.577562 l 0.92905,7.286842 h 4.06457 l -0.80668,-6.069799 c 0,0 -0.015,-0.317114 0.0788,-0.428906 0.0839,-0.100858 0.36853,-0.140919 0.36853,-0.140919 h 2.50532 c 0,0 0.12944,0.04489 0.17199,0.09445 0.0515,0.05993 0.0806,0.222989 0.0806,0.222989 v 1.21705 l -1.22323,0.829955 c 0,0 -0.15492,0.126177 -0.1702,0.216757 -0.015,0.08818 0.0866,0.253942 0.0866,0.253942 l 2.57654,3.830778 h 1.9851 l 2.52701,-3.833879 c 0,0 0.10428,-0.163812 0.0959,-0.253942 -0.009,-0.09133 -0.14233,-0.235365 -0.14233,-0.235365 l -1.24493,-0.820654 v -1.248026 c 0,0 0.0342,-0.145414 0.0866,-0.192007 0.0566,-0.05025 0.21693,-0.06811 0.21693,-0.06811 h 1.13344 l 0.0371,-0.02787 0.73393,-4.561634 -0.024,-0.03719 h -10.56956 l -0.11447,0.371627 -0.10517,0.102176 h -0.15491 l -0.0557,-0.108378 -0.14862,-0.365428 h -3.93917 c 0,0 -2.03444,0.375583 -2.79953,1.006477 -0.78961,0.651116 -1.19852,1.68489 -1.5701,2.638496 -0.97331,2.497973 -0.52239,5.43877 -1.64749,7.872147 -0.423335,0.915546 -0.949165,1.947067 -1.855025,2.390751 -0.90203,0.441814 -2.11352,0.44654 -3.01321,0 -0.91135,-0.452326 -1.42367,-1.505243 -1.8457,-2.431007 -1.11115,-2.437344 -0.66613,-5.372328 -1.64444,-7.865957 -0.37002,-0.943181 -0.78385,-1.961614 -1.56698,-2.60443 -0.76575,-0.628557 -2.79645,-1.006477 -2.79645,-1.006477 z m 33.325025,5.534039 c 0.41149,-0.01708 0.51804,0.285104 0.57908,0.634858 v 2.235911 c 0,0.24765 -0.33332,0.641121 -0.5605,0.637948 -0.34216,-0.0039 -0.58531,-0.424307 -0.58531,-0.625567 v -2.257583 c 0.0587,-0.394011 0.23551,-0.619224 0.56673,-0.625567 z m -40.029665,0.0033 c 0.44241,-0.01288 0.52556,0.28076 0.57758,0.600784 v 2.280823 c -0.0339,0.383043 -0.23731,0.577981 -0.57447,0.622456 -0.45604,0.01139 -0.57071,-0.278632 -0.63487,-0.613173 v -2.273069 c 0.0602,-0.373048 0.26788,-0.583492 0.63176,-0.617821 z"
     inkscape:label="compensator">
    <title
       id="title6">rubber</title>
  </path>
  <path
     id="path2754"
     style="display:inline;fill:#5e5e5e;fill-rule:evenodd;stroke:#000000;stroke-width:0.0302308"
     d="m 96.026536,132.17379 -0.0344,0.0314 -0.0875,0.34369 -0.11249,0.10944 h -0.10312 l -0.12186,-0.12183 -0.0781,-0.3437 -0.0344,-0.0151 h -3.06976 c 0,0 -0.90714,0.17322 -1.25135,0.45304 -0.35058,0.28477 -0.54306,0.73409 -0.71237,1.15291 -1.21691,3.01029 -1.13431,6.51135 -1.97777,9.52642 -0.14737,0.5268 -0.543155,1.03703 -1.037305,1.27165 -0.477002,0.22643 -1.11145,0.2355 -1.584093,0 -0.495198,-0.24668 -0.866828,-0.78775 -0.999819,-1.32477 -0.728196,-2.94037 -0.74888,-6.48592 -1.955896,-9.48267 -0.169201,-0.42006 -0.366061,-0.86871 -0.718622,-1.15291 -0.341877,-0.27571 -1.240402,-0.44367 -1.240402,-0.44367 H 76.97673 l -0.04374,0.0345 -0.134345,0.3437 -0.06871,0.10308 h -0.140603 l -0.121861,-0.10611 -0.08437,-0.34992 -0.02509,-0.0242 -10.563733,0.003 -0.04686,0.0345 0.709248,4.53042 0.02509,0.0181 h 1.19041 c 0,0 0.139092,0.0692 0.190605,0.12485 0.04423,0.0481 0.09375,0.17171 0.09375,0.17171 l -0.0063,1.1998 -1.215407,0.81233 c 0,0 -0.124853,0.11337 -0.143717,0.19076 -0.01935,0.0789 0.04063,0.24063 0.04063,0.24063 l 2.562034,3.83369 h 2.005897 l 2.605779,-3.83994 c 0,0 0.06672,-0.1563 0.05,-0.23429 -0.01814,-0.0846 -0.153089,-0.2092 -0.153089,-0.2092 l -1.218573,-0.82164 v -1.19351 c 0,0 0.04393,-0.11669 0.08437,-0.16234 0.04272,-0.0484 0.159347,-0.10944 0.159347,-0.10944 h 2.487056 c 0,0 0.2816,0.0614 0.365557,0.16567 0.0809,0.10036 0.08123,0.37803 0.08123,0.37803 l -0.796726,6.01142 0.03129,0.0121 h 4.002407 l 0.02509,-0.0212 0.874842,-6.36134 c 0,0 0.04952,-0.0831 0.08437,-0.11548 0.03416,-0.032 0.07216,-0.0707 0.118717,-0.075 0.157321,-0.0151 0.324315,0.068 0.440544,0.17504 0.115481,0.10641 0.195321,0.26542 0.209348,0.42178 0.01391,0.15659 -0.04287,0.32298 -0.131232,0.45303 -0.0955,0.14058 -0.403055,0.31247 -0.403046,0.31247 0,0 0.598588,4.02762 1.277889,5.9333 0.327964,0.92005 0.668439,1.89414 1.334135,2.60889 0.654436,0.70269 1.540229,1.23251 2.465182,1.49038 0.930993,0.25938 1.969964,0.26482 2.899481,0 0.91808,-0.2615 1.78358,-0.81034 2.43393,-1.50912 0.66427,-0.71375 1.02855,-1.67288 1.35913,-2.59015 0.74353,-2.0631 1.36225,-6.43634 1.36225,-6.43634 0,0 0.13447,-0.33118 0.27184,-0.43118 0.12252,-0.0892 0.2907,-0.13544 0.44054,-0.11246 0.16086,0.0242 0.31088,0.1315 0.41555,0.25605 0.0995,0.11851 0.17183,0.43116 0.17183,0.43119 h 2.36833 c 0,0 0.083,-0.32765 0.1906,-0.44993 0.10914,-0.12395 0.26395,-0.23066 0.42806,-0.25001 0.14922,-0.0181 0.31269,0.039 0.43117,0.1312 0.13253,0.10279 0.25956,0.43094 0.25956,0.43094 0,0 0.60944,4.37597 1.352883,6.43949 0.33271,0.92346 0.697951,1.89188 1.371631,2.60578 0.65767,0.69691 1.53883,1.22737 2.46206,1.48408 0.92112,0.25606 1.94736,0.25697 2.86823,0 0.93346,-0.26058 1.82441,-0.79872 2.48707,-1.50597 0.66692,-0.71179 1.02268,-1.67745 1.34975,-2.5964 0.67762,-1.90391 1.23102,-5.93642 1.23102,-5.93642 0,0 -0.30693,-0.17806 -0.39992,-0.32184 -0.0871,-0.13453 -0.14632,-0.30699 -0.12183,-0.46552 0.0242,-0.16053 0.13332,-0.31008 0.25938,-0.41244 0.10944,-0.0889 0.25575,-0.15176 0.39681,-0.14692 0.0605,0.002 0.12032,0.0348 0.16566,0.075 0.039,0.0348 0.0813,0.13422 0.0813,0.13422 l 0.81237,6.33012 0.0405,0.0311 h 3.98988 l 0.0405,-0.0345 -0.79984,-6.02391 c 0,0 0.0302,-0.2745 0.11548,-0.37181 0.0856,-0.0967 0.35306,-0.15932 0.35306,-0.15932 h 2.46499 c 0,0 0.11972,0.0819 0.16869,0.13423 0.0475,0.0508 0.11881,0.17171 0.11881,0.17171 v 1.21228 l -1.26226,0.80296 c 0,0 -0.0967,0.12939 -0.10611,0.20618 -0.009,0.0816 0.0562,0.24064 0.0562,0.24064 l 2.55266,3.8212 2.0059,-0.006 2.59329,-3.83683 c 0,0 0.0747,-0.15509 0.0593,-0.23429 -0.0151,-0.0798 -0.1436,-0.19681 -0.1436,-0.19681 l -1.22791,-0.8343 v -1.18417 c 0,0 0.0212,-0.11972 0.0562,-0.16567 0.0472,-0.0605 0.19378,-0.12485 0.19378,-0.12485 l 1.21854,0.003 0.0345,-0.0375 0.64987,-4.49296 -0.0314,-0.0438 h -10.5762 l -0.0181,0.0181 -0.0952,0.35464 -0.10309,0.10006 h -0.10943 l -0.10309,-0.11246 -0.0937,-0.36869 h -3.98367 c 0,0 -0.93552,0.15448 -1.28414,0.44369 -0.34436,0.28568 -0.50358,0.7484 -0.6655,1.1654 -1.17407,3.02414 -1.13663,6.48877 -2.01839,9.50767 -0.15233,0.52151 -0.51183,1.04841 -0.99982,1.28726 -0.47238,0.23126 -1.10608,0.23247 -1.57784,0 -0.48768,-0.24034 -0.84188,-0.7714 -0.99357,-1.29352 -0.85512,-2.94308 -0.83537,-6.48734 -2.01214,-9.51078 -0.16131,-0.4145 -0.32875,-0.86977 -0.67175,-1.15291 -0.34978,-0.28871 -1.284141,-0.44993 -1.284141,-0.44993 z m -25.807852,5.50841 c 0.418437,0.0302 0.534768,0.28568 0.590519,0.58738 v 2.25897 c -0.04982,0.39167 -0.276128,0.54222 -0.574898,0.59364 -0.471123,-0.0556 -0.596372,-0.3008 -0.646764,-0.58739 v -2.26522 c 0.06648,-0.27903 0.193749,-0.52278 0.631143,-0.58738 z m 51.043936,0.009 c 0.39367,0.006 0.56266,0.23731 0.61553,0.58427 v 2.24959 c -0.0771,0.3758 -0.3014,0.53893 -0.60301,0.5905 -0.47057,-0.0641 -0.51544,-0.33209 -0.5999,-0.58113 v -2.25896 c 0.0756,-0.31513 0.23006,-0.55117 0.58738,-0.58427 z"
     inkscape:label="compensator">
    <title
       id="title5">rubber</title>
  </path>
  <path
     id="path2756"
     style="display:inline;fill:#5e5e5e;fill-rule:evenodd;stroke:#000000;stroke-width:0.0309909"
     d="m 143.07395,9.9573136 -0.0322,0.04165 0.67266,4.6059054 0.0217,0.01921 h 1.23954 c 0.15961,0.009 0.19959,0.08337 0.18905,0.18576 v 1.255574 h -1.19792 c 0,0 -0.15837,0.04723 -0.20516,0.108902 -0.0422,0.05575 -0.0449,0.205005 -0.0449,0.205005 l -0.006,0.778331 2.72578,4.071014 h 2.0149 l 2.70972,-4.071014 v -0.04804 l -1.48617,-1.031362 0.003,-1.268392 c 0,0 0.0347,-0.126133 0.0834,-0.163353 0.0406,-0.03124 0.15061,-0.03208 0.15061,-0.03208 l 2.91792,0.0034 c 0,0 0.93434,0.25614 1.18831,0.624584 0.26808,0.388707 0.16983,1.406113 0.16983,1.406113 l -1.62073,4.538652 0.0248,0.03846 h 3.46245 l 0.0384,-0.02231 1.98906,-5.589234 c 0,0 0.0744,-0.422192 0.0449,-0.63099 -0.031,-0.215077 -0.11467,-0.424268 -0.22438,-0.61177 -0.2473,-0.422997 -0.95449,-1.117844 -0.95449,-1.117854 0,0 -0.0908,-0.221058 -0.0834,-0.33631 0.009,-0.12009 0.0446,-0.252793 0.1314,-0.336316 0.0886,-0.08554 0.34911,-0.121733 0.34911,-0.121702 l 3.34395,0.01271 c 0,0 0.24917,0.03576 0.33309,0.118509 0.0874,0.08637 0.12428,0.223041 0.12799,0.345927 0.003,0.11916 -0.10258,0.342712 -0.10258,0.342722 0,0 -0.70361,0.690796 -0.93527,1.117845 -0.0992,0.182567 -0.15186,0.390345 -0.18254,0.595756 -0.0316,0.211172 0,0.640598 0,0.640598 l 1.98268,5.582824 h 3.49125 l 0.0319,-0.03527 -1.6111,-4.538645 c 0,0 -0.0979,-1.02901 0.17603,-1.418928 0.25661,-0.365246 1.19473,-0.605367 1.19473,-0.605367 l 2.90512,0.0065 c 0.15031,0.009 0.21787,0.08402 0.24018,0.195398 v 1.297214 l -1.48301,0.992929 -0.006,0.06084 2.71617,4.051796 c 0,0 1.99225,-0.01921 2.01147,0 0.0186,0.01921 2.71613,-4.071017 2.71613,-4.071017 v -0.784733 c -0.0155,-0.12824 -0.0797,-0.235438 -0.25288,-0.291469 h -1.23636 v -1.277994 c 0.0279,-0.113798 0.071,-0.210676 0.23399,-0.17296 h 1.22355 l 0.0217,-0.03846 0.72386,-4.573878 -0.0545,-0.05445 z m 28.0935,5.3746354 v 3.3087 h -1.14347 v -2.517562 z m -24.31717,0.0034 1.14028,0.778327 v 2.517555 h -1.14028 z"
     inkscape:label="compensator">
    <title
       id="title4">rubber</title>
  </path>
  <path
     id="path2758"
     style="display:inline;fill:#5e5e5e;fill-rule:evenodd;stroke:#000000;stroke-width:0.0301156"
     d="m 141.95203,26.429608 -0.0437,0.04981 0.70344,4.581651 0.0374,0.03427 h 1.22633 c 0,0 0.13763,0.0256 0.1804,0.07466 0.0325,0.03689 0.0388,0.141634 0.0388,0.141634 v 1.231005 h -1.18122 c 0,0 -0.15088,0.0024 -0.20539,0.04671 -0.0614,0.04963 -0.0997,0.214754 -0.0997,0.214754 v 0.784364 l 2.73904,4.086749 1.99513,0.0033 2.76082,-4.074303 0.006,-0.04358 -1.48467,-1.005349 v -1.235676 c 0,0 0.009,-0.118143 0.0467,-0.158739 0.0467,-0.05075 0.19304,-0.07466 0.19304,-0.07466 h 2.91022 l 1.19833,0.65052 0.15871,1.375738 -1.65901,4.534962 0.0241,0.03427 h 3.52027 l 0.0271,-0.02168 2.0076,-5.599444 c 0,0 0.0271,-0.416339 -0.009,-0.61939 -0.0373,-0.202045 -0.10962,-0.400658 -0.21171,-0.578936 -0.11504,-0.200781 -0.33862,-0.328317 -0.44201,-0.535353 -0.0497,-0.09929 -0.0837,-0.212887 -0.0777,-0.323703 0.006,-0.116668 0.0349,-0.248032 0.11835,-0.329926 0.0876,-0.08604 0.34862,-0.118264 0.34862,-0.118264 h 8.29489 c 0,0 0.22044,0.06032 0.29874,0.136936 0.0831,0.08146 0.14636,0.19807 0.15239,0.314365 0.006,0.118956 -0.062,0.232884 -0.12137,0.336156 -0.11444,0.199275 -0.3325,0.327058 -0.44198,0.529131 -0.0946,0.17458 -0.14395,0.373376 -0.17436,0.569597 -0.0319,0.207135 -0.006,0.628729 -0.006,0.628729 l 2.02004,5.611899 h 3.46735 l 0.053,-0.04047 -1.67455,-4.566087 0.18039,-1.369515 1.20146,-0.622505 h 2.94441 c 0.2093,0.02078 0.2355,0.123113 0.2364,0.236558 v 1.254354 l -1.46913,0.980449 -0.0211,0.04668 2.73281,4.074305 h 1.99203 c 0,0 2.72347,-4.049405 2.72971,-4.074305 0.006,-0.025 0.003,-0.821707 0.003,-0.821707 0,0 -0.006,-0.138983 -0.053,-0.183645 -0.0515,-0.05044 -0.2087,-0.05602 -0.2087,-0.05602 h -1.18589 v -1.229451 c 0,0 0.0151,-0.112813 0.053,-0.152505 0.0392,-0.04285 0.15871,-0.07156 0.15871,-0.07156 h 1.19833 l 0.0343,-0.02801 0.70344,-4.581651 -0.0271,-0.04358 z m 4.41046,5.530973 c 0.41695,-0.0024 0.54762,0.26845 0.58514,0.628729 0,0 -0.0181,2.237727 0,2.272155 0.12288,0.220868 -0.40644,0.643377 -0.56647,0.622498 -0.57698,-0.07523 -0.50772,-0.357957 -0.60385,-0.597604 v -2.328171 c 0.012,-0.401392 0.2596,-0.542785 0.58518,-0.597607 z m 29.11461,0 c 0.39448,0.0048 0.54883,0.254687 0.57894,0.631846 v 2.244129 c -0.0684,0.363863 -0.26803,0.565695 -0.58515,0.622517 -0.32,-0.03409 -0.50792,-0.239871 -0.57894,-0.597608 v -2.278377 c 0.047,-0.337879 0.19094,-0.590314 0.58515,-0.622507 z"
     inkscape:label="compensator">
    <title
       id="title3">rubber</title>
  </path>
  <path
     id="compensatorewf"
     style="display:inline;fill:#5e5e5e;fill-rule:evenodd;stroke:#000000;stroke-width:0.0301192"
     d="m 184.29173,50.260244 -48.89442,0.0033 -0.0388,0.03888 0.70509,4.505925 0.0241,0.025 h 0.75021 c 0,0 0.1515,-0.04837 0.20542,-0.102706 0.0497,-0.05006 0.0934,-0.189902 0.0934,-0.189902 l 0.003,-0.270831 c 0,0 0.0994,-0.171951 0.18372,-0.17433 0.0979,-0.0024 0.22409,0.189901 0.22409,0.189901 v 1.982921 l -1.47864,1.036604 -0.009,0.04668 2.77359,4.037442 h 1.9985 l 2.73624,-4.053004 -0.0241,-0.04358 -1.46927,-1.033479 0.0121,-1.98915 c 0,0 0.11957,-0.177673 0.21173,-0.177432 0.0979,2.56e-4 0.22409,0.189901 0.22409,0.189901 v 0.267699 c 0,0 0.009,0.129393 0.0467,0.177433 0.0488,0.06198 0.20843,0.112073 0.20843,0.112073 h 2.22572 c 0,0 0.23463,0.04415 0.31751,0.121411 0.0988,0.09207 0.17108,0.367324 0.17108,0.367324 l -0.83114,4.837453 c 0,0 0.0885,0.59492 0.27409,0.812465 0.18643,0.218695 0.76264,0.40157 0.76264,0.40157 h 2.84832 c 0,0 0.31833,-0.06042 0.47007,-0.115176 0.16264,-0.05882 0.4669,-0.227249 0.4669,-0.227249 l 9.46948,-7.514555 c 0,0 0.58193,-0.352614 0.90586,-0.351753 0.32234,7.95e-4 0.89963,0.354868 0.89963,0.354868 l 9.50369,7.508323 c 0.29246,0.222038 0.58522,0.294294 0.87783,0.354876 h 2.86078 c 0,0 0.61816,-0.173878 0.80933,-0.40779 0.17981,-0.21987 0.22409,-0.821808 0.22409,-0.821808 l -0.78455,-4.840838 c 0,0 0.0365,-0.281373 0.13072,-0.37355 0.0819,-0.08003 0.32685,-0.105839 0.32685,-0.105839 h 2.21638 c 0,0 0.14488,-0.04488 0.19608,-0.0965 0.0554,-0.05563 0.10271,-0.211677 0.10271,-0.211677 v -0.26773 c 0,0 0.0991,-0.164059 0.18071,-0.164993 0.0979,-7.98e-4 0.22108,0.193004 0.22108,0.193004 v 1.976689 l -1.48485,1.045934 -0.003,0.04358 2.7269,4.024984 h 2.0016 l 2.76738,-4.034324 -0.0181,-0.05292 -1.47554,-1.039715 v -1.97981 c 0,0 0.1265,-0.180594 0.22108,-0.177432 0.0873,0.0033 0.19306,0.177462 0.19306,0.177432 l -0.003,0.273934 c 0,0 0.0464,0.137705 0.0964,0.186769 0.0536,0.05268 0.2024,0.09961 0.2024,0.09961 h 0.75645 l 0.0343,-0.02801 0.68795,-4.495031 z m -35.59297,2.756481 6.14953,0.02651 c 0.64964,0.08057 0.52266,0.441572 0.34242,0.821805 l -6.57134,5.245243 c -0.4002,0.121892 -0.75395,0.215382 -1.13465,-0.08873 -0.28071,-0.224208 -0.35936,-0.536306 -0.40468,-0.905856 l 0.68641,-4.305144 c 0.13945,-0.417696 0.35146,-0.771003 0.93231,-0.793789 z m 22.29619,0.0016 c 0.58084,0.02289 0.79282,0.374535 0.9323,0.792231 l 0.68639,4.305147 c -0.0455,0.369547 -0.12409,0.683199 -0.40468,0.907416 -0.38068,0.304098 -0.73599,0.209057 -1.13619,0.08716 l -6.56981,-5.245252 c -0.18011,-0.380233 -0.30721,-0.741239 0.34243,-0.821805 z m -31.18355,2.680207 c 0.31375,0.02952 0.53594,0.201227 0.6257,0.579 v 2.303555 c -0.0651,0.365529 -0.31439,0.516423 -0.62724,0.593007 -0.43871,-0.03021 -0.50877,-0.3008 -0.57434,-0.574331 v -2.312892 c 0.0735,-0.276102 0.1759,-0.532715 0.57588,-0.588339 z m 40.07244,0 c 0.38333,0.08066 0.52034,0.312905 0.58212,0.591454 v 2.297323 c -0.0437,0.339257 -0.24277,0.522911 -0.56034,0.588336 -0.35062,-0.02922 -0.55727,-0.210382 -0.60079,-0.563433 v -2.331563 c 0.059,-0.336486 0.25451,-0.527848 0.57901,-0.582117 z"
     inkscape:label="compensator">
    <title
       id="title2">rubber</title>
  </path>
  <path
     id="compensator"
     style="display:inline;fill:#5e5e5e;fill-rule:evenodd;stroke:#000000;stroke-width:0.0290788"
     d="m 132.79108,131.94169 -0.0302,0.0422 0.50489,4.52912 0.0332,0.0233 h 0.78141 c 0,0 0.14394,-0.0419 0.1893,-0.0962 0.0422,-0.0506 0.057,-0.1893 0.057,-0.1893 l -0.009,-0.26462 c 0,0 0.1105,-0.21373 0.21024,-0.21344 0.10207,3.5e-4 0.21344,0.21955 0.21344,0.21955 v 2.0076 l -1.47264,0.95873 0.003,0.039 2.76796,4.02719 h 2.0076 l 2.80102,-4.03021 v -0.0451 l -1.5178,-0.9649 v -1.99257 c 0,0 0.11515,-0.22419 0.21955,-0.22245 0.10352,0.001 0.17273,0.13202 0.21053,0.22856 0.0302,0.0773 -0.0116,0.1672 0,0.2495 0.009,0.0643 0.0145,0.13812 0.057,0.18639 0.0547,0.0608 0.22536,0.0962 0.22536,0.0962 h 2.24504 c 0,0 0.30387,0.0838 0.38468,0.20443 0.0739,0.1105 0.039,0.39672 0.039,0.39672 l -0.76335,4.67338 c 0,0 0.0262,0.6402 0.21925,0.86855 0.18291,0.21722 0.77838,0.34561 0.77838,0.34561 l 2.97835,-0.006 c 0.6185,-0.0788 1.17045,-0.22391 1.65295,-0.43878 l 11.40842,-6.04985 c 0,0 2.45394,-0.96056 3.74172,-0.96172 1.2968,-0.001 3.77025,0.96172 3.77025,0.96172 l 11.44901,6.06038 c 0.53104,0.21053 1.07993,0.3657 1.65895,0.41624 h 2.94112 c 0,0 0.58681,-0.11719 0.76489,-0.3306 0.19192,-0.23002 0.20442,-0.87606 0.20442,-0.87606 l -0.73933,-4.6839 c 0,0 -0.034,-0.28672 0.0422,-0.39522 0.0861,-0.12242 0.40422,-0.1954 0.40422,-0.1954 l 2.21645,0.009 c 0,0 0.17506,-0.0398 0.24048,-0.0962 0.0512,-0.0439 0.0861,-0.10905 0.10207,-0.17419 0.0204,-0.0846 -0.0116,-0.26142 -0.0116,-0.26142 0,0 0.0779,-0.21838 0.17127,-0.22245 0.10992,-0.006 0.22246,0.24339 0.22246,0.24339 l -0.009,1.98056 -1.4576,0.96173 -0.006,0.0451 2.75894,4.02721 h 1.99859 l 2.77997,-4.04827 -0.0116,-0.0361 -1.47564,-0.96472 v -2.00452 c 0,0 0.12795,-0.20471 0.22827,-0.19832 0.10062,0.006 0.20123,0.22537 0.20123,0.22537 l 0.003,0.24339 c -0.002,0.17563 0.0846,0.262 0.23437,0.28555 h 0.79042 l 0.0262,-0.0332 0.5049,-4.51405 -0.0361,-0.039 z m 13.75563,2.73792 8.84035,0.009 c 0.50204,0.18262 0.53069,0.43584 0.26287,0.7318 l -9.25658,4.92134 c -1.09744,0.28002 -1.42257,-0.22886 -1.43658,-1.0549 l 0.6206,-3.74021 c 0.16546,-0.52531 0.48643,-0.81775 0.96925,-0.86704 z m 32.38151,0.039 c 0.48282,0.0494 0.80225,0.34174 0.96771,0.86705 l 0.62063,3.74021 c -0.0145,0.82589 -0.33914,1.33498 -1.43658,1.05489 l -9.25658,-4.92133 c -0.26782,-0.29597 -0.23903,-0.54904 0.26287,-0.7318 z m 9.53306,2.63423 c 0.47119,0.0707 0.5056,0.35176 0.55599,0.62511 v 2.23299 c -0.0547,0.32112 -0.19686,0.55939 -0.54697,0.60109 -0.35421,-0.0526 -0.55239,-0.25299 -0.61011,-0.58606 v -2.23299 c 0.0803,-0.36174 0.24921,-0.61406 0.60109,-0.64014 z m -51.40556,0.0262 c 0.4712,0.0707 0.5056,0.35176 0.55599,0.62511 v 2.23299 c -0.0547,0.32112 -0.19686,0.55939 -0.54697,0.60109 -0.35421,-0.0526 -0.55238,-0.25299 -0.6101,-0.58606 v -2.23302 c 0.0802,-0.36174 0.2492,-0.61406 0.60108,-0.64015 z"
     inkscape:label="compensator">
    <title
       id="title1">rubber</title>
  </path>
</svg>
