<?xml version="1.0" encoding="UTF-8" standalone="no"?>
<!-- Created with Inkscape (http://www.inkscape.org/) -->

<svg
   width="210mm"
   height="297mm"
   viewBox="0 0 210 297"
   version="1.1"
   id="svg1"
   inkscape:version="1.4 (86a8ad7, 2024-10-11)"
   sodipodi:docname="DSHM-15-015-V1_032.svg"
   xmlns:inkscape="http://www.inkscape.org/namespaces/inkscape"
   xmlns:sodipodi="http://sodipodi.sourceforge.net/DTD/sodipodi-0.dtd"
   xmlns="http://www.w3.org/2000/svg"
   xmlns:svg="http://www.w3.org/2000/svg">
  <sodipodi:namedview
     id="namedview1"
     pagecolor="#ffffff"
     bordercolor="#000000"
     borderopacity="0.25"
     inkscape:showpageshadow="2"
     inkscape:pageopacity="0.0"
     inkscape:pagecheckerboard="0"
     inkscape:deskcolor="#d1d1d1"
     inkscape:document-units="mm"
     inkscape:zoom="2.9606623"
     inkscape:cx="370.01856"
     inkscape:cy="31.918534"
     inkscape:window-width="2560"
     inkscape:window-height="1377"
     inkscape:window-x="-8"
     inkscape:window-y="-8"
     inkscape:window-maximized="1"
     inkscape:current-layer="svg1" />
  <defs
     id="defs1" />
  <rect
     style="fill:#b8b8b8;fill-opacity:1;fill-rule:evenodd;stroke:#b81e1e;stroke-width:0.0471779"
     id="concrete_right"
     width="85.317017"
     height="54.249844"
     x="110.06654"
     y="15.762711" />
  <rect
     style="fill:#b8b8b8;fill-opacity:1;fill-rule:evenodd;stroke:#b81e1e;stroke-width:0.0463561"
     id="concrete_left"
     width="82.630981"
     height="54.078995"
     x="14.454173"
     y="15.268101" />
  <rect
     style="fill:#a39a9a;fill-rule:evenodd;stroke:#b81e1e;stroke-width:0.0229589"
     id="finish_right"
     width="74.359184"
     height="10.625452"
     x="121.19834"
     y="5.0765085" />
  <rect
     style="fill:#a39a9a;fill-rule:evenodd;stroke:#b81e1e;stroke-width:0.0218569"
     id="finish_left"
     width="71.442207"
     height="10.022676"
     x="14.557216"
     y="5.1208167" />
  <rect
     style="fill:#a39a9a;fill-rule:evenodd;stroke:#b81e1e;stroke-width:0.0350057"
     id="cover_right"
     width="74.346153"
     height="4.9649944"
     x="121.18599"
     y="0.01750285" />
  <rect
     style="fill:#a39a9a;fill-rule:evenodd;stroke:#b81e1e;stroke-width:0.0343056"
     id="cover_left"
     width="71.391769"
     height="4.965694"
     x="14.603952"
     y="0.049657814" />
  <rect
     style="fill:#404242;fill-opacity:0.341246;fill-rule:evenodd;stroke:#b81e1e;stroke-width:0.0198777"
     id="shadow"
     width="137.48599"
     height="0.01261392"
     x="44.610584"
     y="68.768585"
     inkscape:label="shadow" />
  <ellipse
     style="opacity:0;fill:none;fill-opacity:0;fill-rule:evenodd;stroke-width:0.00368993;stroke-opacity:0"
     id="bolt_left"
     cx="-57.628529"
     cy="-13.635864"
     rx="0.094999999"
     ry="0.028942173"
     inkscape:label="bolt_left"
     transform="scale(-1)" />
  <ellipse
     style="opacity:0;fill:none;fill-opacity:0;fill-rule:evenodd;stroke-width:0.000191947;stroke-opacity:0"
     id="bolt_right"
     cx="149.57246"
     cy="13.659428"
     rx="0.0049418169"
     ry="0.0015055466"
     inkscape:label="bolt_right" />
  <path
     style="fill:#5e5e5e;fill-rule:evenodd;stroke:#000000;stroke-width:0.0291282"
     d="m 38.906307,13.477631 h 18.627222 27.320015 c 0.643234,-0.04594 1.023835,-0.398324 1.161638,-1.033969 V 0.02338935 h 1.965791 V 4.6474854 h 1.049919 c 0.322241,-0.0089 0.463658,0.1113 0.491453,0.312733 v 1.228629 h -1.429699 v 6.7462646 c 0.01191,0.367506 0.189639,0.569911 0.580824,0.558466 h 6.478243 c 0.5655,0.06303 0.5925,-0.277883 0.67007,-0.580802 V 6.2111894 h -1.58597 v -1.139275 c 0.23767,-0.467918 0.47518,-0.381849 0.7128,-0.411552 h 2.3252 v 8.2524136 c 0,2.004975 -1.09704,2.499836 -2.34554,2.591277 H 38.858915 Z"
     id="profile_left"
     sodipodi:nodetypes="cccccccccccccccccccccccc"
     inkscape:label="profile_left" />
  <path
     style="fill:#5e5e5e;fill-rule:evenodd;stroke:#000000;stroke-width:0.0291098"
     d="m 168.18263,13.513818 h -18.6151 -27.3032 c -0.64284,-0.04599 -1.02316,-0.398076 -1.16084,-1.033314 V 0.06806335 h -1.96463 V 4.6892434 h -1.04923 c -0.32204,-0.009 -0.46337,0.111229 -0.49116,0.312536 v 1.227855 h 1.4288 v 6.7420146 c -0.0119,0.367278 -0.18952,0.569532 -0.58043,0.558121 h -6.47418 c -0.56516,0.06288 -0.59213,-0.277706 -0.66968,-0.580448 V 6.2519614 h 1.58507 v -1.138557 c -0.23754,-0.467622 -0.47493,-0.381608 -0.71244,-0.411292 h -2.32377 v 8.2472096 c 0,2.00371 1.0964,2.498255 2.3441,2.589631 h 56.03405 z"
     id="profile_right"
     sodipodi:nodetypes="cccccccccccccccccccccccc"
     inkscape:label="profile_right" />
  <path
     id="compensator"
     style="display:inline;fill:#5e5e5e;fill-rule:evenodd;stroke:#000000;stroke-width:0.0309596"
     d="m 87.632984,0.01548393 -0.03529,0.03523 0.716745,4.59806067 0.02786,0.0161 h 1.180706 c 0,0 0.150464,0.03923 0.201547,0.09279 0.04923,0.05161 0.07988,0.198389 0.07988,0.198389 v 1.187112 l -1.209499,0.85433 -0.195355,0.182383 0.09597,0.252785 2.537418,3.8269184 h 1.996678 l 2.534229,-3.8397144 0.04489,-0.239998 -0.09598,-0.201578 -1.254328,-0.84794 0.01238,-1.203112 c 0,0 0.03096,-0.141826 0.08019,-0.188792 0.05263,-0.04981 0.204953,-0.07356 0.204953,-0.07356 h 3.238157 l 0.01548,-0.0257 v -1.369505 c 0.08638,-0.309317 0.243033,-0.568399 0.684765,-0.623953 0.328729,0.04365 0.498449,0.272816 0.623959,0.553558 0,0 0.168111,2.449415 0.556747,3.59974 0.301546,0.892594 0.642354,1.861381 1.350304,2.483016 0.68987,0.605762 1.65135,0.9943884 2.5694,0.9919204 0.91426,-0.0025 1.86744,-0.3971184 2.55342,-1.0015204 0.70767,-0.623505 1.05612,-1.589033 1.35671,-2.483016 0.38563,-1.146957 0.53755,-3.590131 0.53755,-3.59014 -0.0325,-0.03573 0.32111,-0.581245 0.67195,-0.563159 0.46968,0.02415 0.67331,0.654666 0.63996,0.662356 l 0.003,1.340703 0.0322,0.02229 h 3.21893 l 0.30402,0.294394 v 1.190307 l -1.25111,0.844739 -0.10557,0.207987 0.0511,0.220773 2.51822,3.8397174 h 2.00947 l 2.58222,-3.8429194 0.048,-0.243187 -0.15356,-0.191981 -1.24155,-0.854339 v -1.183906 c 0,0 0.0697,-0.15198 0.13127,-0.204797 0.048,-0.04105 0.17276,-0.07675 0.17276,-0.07675 h 1.13912 l 0.0415,-0.02229 0.71034,-4.57886967 -0.0322,-0.03842 h -7.56114 l -0.096,0.374372 c 0,0 -0.0625,0.08402 -0.10867,0.102384 -0.0365,0.01455 -0.0817,0.01486 -0.11826,0 -0.0455,-0.01858 -0.10557,-0.102384 -0.10557,-0.102384 l -0.0991,-0.371177 -0.0217,-0.0096 h -2.72011 c 0,0 -1.51881,0.292599 -2.07664,0.777535 -0.56805,0.49380297 -0.83944,1.27010767 -1.07833,1.98385967 -0.38331,1.145348 -0.53436,3.583738 -0.53436,3.583738 0,0 -0.22693,0.700706 -0.48956,0.934327 -0.24334,0.216253 -0.91191,0.348782 -0.91191,0.348782 0,0 -0.71579,-0.12678 -0.97594,-0.355181 -0.26099,-0.229132 -0.47997,-0.924727 -0.47997,-0.924727 0,0 -0.15635,-2.442625 -0.54077,-3.59014 -0.24021,-0.716761 -0.98547,-1.96780067 -1.08147,-1.99339867 -0.096,-0.0257 -2.025442,-0.761544 -2.025442,-0.761544 h -2.72299 l -0.140866,0.371175 c 0,0 -0.03653,0.0909 -0.07678,0.11198 -0.0452,0.02384 -0.105881,0.01858 -0.153559,0 -0.04861,-0.01888 -0.11517,-0.105603 -0.11517,-0.105603 l -0.100928,-0.375967 z m 4.386851,5.53558867 c 0.41006,0.02229 0.587923,0.251051 0.614363,0.614356 v 2.271834 c -8.05e-4,0.36984 -0.229721,0.544709 -0.588728,0.607947 -0.389967,-0.04539 -0.558666,-0.267738 -0.607985,-0.585551 v -2.310227 c 0.07399,-0.316156 0.220123,-0.562152 0.58235,-0.598359 z m 23.121485,0.0034 c 0.41888,0.05898 0.53684,0.304147 0.60158,0.58236 v 2.294227 c 0.0684,0.22489 -0.34158,0.646538 -0.60477,0.604755 -0.46257,-0.0734 -0.61916,-0.527551 -0.60476,-0.58235 0.009,-0.03718 0,-2.300636 0,-2.300636 0.0988,-0.332242 0.29566,-0.539118 0.60795,-0.598356 z"
     inkscape:label="compensator">
    <title
       id="title1">rubber</title>
  </path>
</svg>
