<?xml version="1.0" encoding="UTF-8" standalone="no"?>
<!-- Created with Inkscape (http://www.inkscape.org/) -->

<svg
   width="210mm"
   height="297mm"
   viewBox="0 0 210 297"
   version="1.1"
   id="svg1"
   inkscape:version="1.4 (86a8ad7, 2024-10-11)"
   sodipodi:docname="DSHM-15-040-V1_049-corner.svg"
   xmlns:inkscape="http://www.inkscape.org/namespaces/inkscape"
   xmlns:sodipodi="http://sodipodi.sourceforge.net/DTD/sodipodi-0.dtd"
   xmlns="http://www.w3.org/2000/svg"
   xmlns:svg="http://www.w3.org/2000/svg">
  <sodipodi:namedview
     id="namedview1"
     pagecolor="#ffffff"
     bordercolor="#000000"
     borderopacity="0.25"
     inkscape:showpageshadow="2"
     inkscape:pageopacity="0.0"
     inkscape:pagecheckerboard="0"
     inkscape:deskcolor="#d1d1d1"
     inkscape:document-units="mm"
     inkscape:zoom="1.0467522"
     inkscape:cx="289.94445"
     inkscape:cy="355.86263"
     inkscape:window-width="2560"
     inkscape:window-height="1377"
     inkscape:window-x="-8"
     inkscape:window-y="-8"
     inkscape:window-maximized="1"
     inkscape:current-layer="svg1" />
  <defs
     id="defs1" />
  <path
     id="compensator"
     style="display:inline;fill:#5e5e5e;fill-rule:evenodd;stroke:#000000;stroke-width:0.0299637"
     d="m 115.80334,60.056085 -0.021,0.03101 -0.12705,0.343746 -0.065,0.102207 h -0.15791 l -0.10218,-0.114582 -0.0836,-0.359237 h -10.58497 l -0.0401,0.03719 0.73704,4.57092 0.0401,0.02787 h 1.16754 c 0,0 0.13993,0.02757 0.18877,0.07428 0.0524,0.04995 0.0899,0.19821 0.0899,0.19821 v 1.241823 l -1.24805,0.808282 c 0,0 -0.13663,0.147661 -0.15161,0.241538 -0.012,0.08081 0.0587,0.23845 0.0587,0.23845 l 2.57349,3.830788 h 2.03771 l 2.52701,-3.843172 c 0,0 0.0596,-0.15647 0.0464,-0.235364 -0.015,-0.09169 -0.13933,-0.241537 -0.13933,-0.241537 l -1.20158,-0.811375 V 64.9553 c 0,0 0.0318,-0.14865 0.0836,-0.19818 0.0518,-0.04938 0.20136,-0.07428 0.20136,-0.07428 h 2.44959 c 0,0 0.25768,0.07287 0.33754,0.170343 0.0908,0.110986 0.11446,0.41497 0.11446,0.41497 l -0.79278,6.038823 0.027,0.02157 h 4.01968 l 0.027,-0.03101 0.95384,-7.299232 c 0,0 0.13483,-0.442243 0.29724,-0.591492 0.15551,-0.142867 0.3773,-0.226945 0.58839,-0.235365 0.34126,-0.01378 0.71281,0.08902 0.97859,0.303487 0.26667,0.215109 0.50479,0.894985 0.50479,0.894985 0,0 0.77597,5.335273 1.67539,7.858211 0.39244,1.100854 0.80947,2.260124 1.60261,3.118509 0.78742,0.8522 1.84447,1.513036 2.96056,1.830232 1.12903,0.320866 2.3935,0.325852 3.52109,0 1.10428,-0.319113 2.14238,-0.988957 2.91724,-1.837969 0.79748,-0.873822 1.21781,-2.047948 1.61189,-3.163418 0.89559,-2.534975 1.65579,-7.82941 1.66454,-7.890725 0.009,-0.06127 0.22293,-0.657277 0.48155,-0.859376 0.26967,-0.210704 0.64844,-0.298648 0.98946,-0.270961 0.23041,0.01858 0.462,0.130821 0.63019,0.289539 0.1585,0.149698 0.30659,0.577562 0.30659,0.577562 l 0.92905,7.286842 h 4.06457 l -0.80668,-6.069799 c 0,0 -0.015,-0.317114 0.0788,-0.428906 0.0839,-0.100858 0.36853,-0.140919 0.36853,-0.140919 h 2.50532 c 0,0 0.12944,0.04489 0.17199,0.09445 0.0515,0.05993 0.0806,0.222989 0.0806,0.222989 v 1.21705 l -1.22323,0.829955 c 0,0 -0.15492,0.126177 -0.1702,0.216757 -0.015,0.08818 0.0866,0.253942 0.0866,0.253942 l 2.57654,3.830778 h 1.9851 l 2.52701,-3.833879 c 0,0 0.10428,-0.163812 0.0959,-0.253942 -0.009,-0.09133 -0.14233,-0.235365 -0.14233,-0.235365 l -1.24493,-0.820654 v -1.248026 c 0,0 0.0342,-0.145414 0.0866,-0.192007 0.0566,-0.05025 0.21693,-0.06811 0.21693,-0.06811 h 1.13344 l 0.0371,-0.02787 0.73393,-4.561634 -0.024,-0.03719 h -10.56956 l -0.11447,0.371627 -0.10517,0.102176 h -0.15491 l -0.0557,-0.108378 -0.14862,-0.365428 h -3.93917 c 0,0 -2.03444,0.375583 -2.79953,1.006477 -0.78961,0.651116 -1.19852,1.68489 -1.5701,2.638496 -0.97331,2.497973 -0.52239,5.43877 -1.64749,7.872147 -0.42333,0.915546 -0.94916,1.947067 -1.85502,2.390751 -0.90203,0.441814 -2.11352,0.44654 -3.01321,0 -0.91135,-0.452326 -1.42367,-1.505243 -1.8457,-2.431007 -1.11115,-2.437344 -0.66613,-5.372328 -1.64444,-7.865957 -0.37002,-0.943181 -0.78385,-1.961614 -1.56698,-2.60443 -0.76575,-0.628557 -2.79645,-1.006477 -2.79645,-1.006477 z m 33.32502,5.534039 c 0.41149,-0.01708 0.51804,0.285104 0.57908,0.634858 v 2.235911 c 0,0.24765 -0.33332,0.641121 -0.5605,0.637948 -0.34216,-0.0039 -0.58531,-0.424307 -0.58531,-0.625567 v -2.257583 c 0.0587,-0.394011 0.23551,-0.619224 0.56673,-0.625567 z m -40.02966,0.0033 c 0.44241,-0.01288 0.52556,0.28076 0.57758,0.600784 v 2.280823 c -0.0339,0.383043 -0.23731,0.577981 -0.57447,0.622456 -0.45604,0.01139 -0.57071,-0.278632 -0.63487,-0.613173 v -2.273069 c 0.0602,-0.373048 0.26788,-0.583492 0.63176,-0.617821 z"
     inkscape:label="compensator">
    <title
       id="title6">rubber</title>
  </path>
  <rect
     style="fill:#b8b8b8;fill-opacity:1;fill-rule:evenodd;stroke:#b81e1e;stroke-width:0.0461934"
     id="concrete_left"
     width="82.631142"
     height="53.700008"
     x="31.629076"
     y="75.426521" />
  <rect
     style="fill:#a39a9a;fill-rule:evenodd;stroke:#b81e1e;stroke-width:0.0219941"
     id="finish_left"
     width="71.44207"
     height="10.148922"
     x="31.732267"
     y="65.153008" />
  <rect
     style="fill:#a39a9a;fill-rule:evenodd;stroke:#b81e1e;stroke-width:0.0343056"
     id="cover_left"
     width="71.391769"
     height="4.965694"
     x="31.778936"
     y="60.081779" />
  <rect
     style="fill:#404242;fill-opacity:0.341246;fill-rule:evenodd;stroke:#b81e1e;stroke-width:0.0183765"
     id="shadow"
     width="105.00706"
     height="0.014115104"
     x="61.784855"
     y="128.79996"
     inkscape:label="shadow" />
  <ellipse
     style="opacity:0;fill:none;fill-opacity:0;fill-rule:evenodd;stroke-width:0.00368993;stroke-opacity:0"
     id="bolt_left"
     cx="-74.803566"
     cy="-73.667984"
     rx="0.094999999"
     ry="0.028942173"
     inkscape:label="bolt_left"
     transform="scale(-1)" />
  <path
     style="fill:#5e5e5e;fill-rule:evenodd;stroke:#000000;stroke-width:0.0291282"
     d="m 56.081279,73.509751 h 18.627222 27.320019 c 0.64322,-0.04594 1.02382,-0.398324 1.16163,-1.033969 V 60.055509 h 1.96579 v 4.624096 h 1.04992 c 0.32224,-0.0089 0.46366,0.1113 0.49145,0.312733 v 1.228629 h -1.4297 v 6.746265 c 0.0119,0.367506 0.18964,0.569911 0.58083,0.558466 h 6.47824 c 0.5655,0.06303 0.5925,-0.277883 0.67007,-0.580802 v -6.701587 h -1.58597 v -1.139275 c 0.23767,-0.467918 0.47518,-0.381849 0.7128,-0.411552 h 2.3252 v 8.252414 c 0,2.004975 -1.09704,2.499836 -2.34554,2.591277 H 56.033887 Z"
     id="profile_left"
     sodipodi:nodetypes="cccccccccccccccccccccccc"
     inkscape:label="profile_left" />
  <ellipse
     style="opacity:0;fill:none;fill-opacity:0;fill-rule:evenodd;stroke-width:0.000191947;stroke-opacity:0"
     id="screw_right"
     cx="153.83792"
     cy="26.892506"
     rx="0.0049418169"
     ry="0.0015055466"
     inkscape:label="screw_right" />
  <rect
     style="fill:#e1ecec;fill-opacity:0.77;fill-rule:evenodd;stroke:#b81e1e;stroke-width:0.00931009"
     id="finish_right"
     width="75.343964"
     height="2.0344629"
     x="-75.348618"
     y="155.40326"
     inkscape:label="finish_right"
     transform="rotate(-90)" />
  <rect
     style="fill:#e1ecec;fill-opacity:0.77;fill-rule:evenodd;stroke:#b81e1e;stroke-width:0.0106846"
     id="cover_right"
     width="75.317711"
     height="0.12763681"
     x="-75.330757"
     y="155.22769"
     inkscape:label="cover_right"
     transform="rotate(-90)" />
  <path
     style="fill:#e1ecec;fill-opacity:0.77;fill-rule:evenodd;stroke:#b81e1e;stroke-width:0.0105622"
     d="m 157.45093,0.01350091 20.93781,-6e-6 V 129.06766 H 155.20659 V 75.496163 h 2.23324 z"
     id="concrete_right"
     inkscape:label="concrete_right"
     sodipodi:nodetypes="ccccccc" />
  <path
     style="fill:#5e5e5e;fill-rule:evenodd;stroke:#000000;stroke-width:0.0306016"
     d="m 155.09853,86.007456 h -1.87527 v -4.62998 c 0.0245,-0.17229 -0.0919,-0.2494 -0.19921,-0.3319 h -0.82977 c -0.48271,0.0701 -0.5509,-0.22829 -0.61405,-0.53103 v -1.07868 h 1.67611 v -4.91209 c -0.0309,-0.30356 -0.23074,-0.46594 -0.54759,-0.53103 h -7.03627 c -0.2647,0.0407 -0.459,0.26195 -0.60573,0.60573 v 4.854 h 1.61807 v 1.07865 c 0,0.29959 -0.22891,0.47149 -0.56426,0.58082 h -2.68836 v -7.13578 h -3.76707 V 71.80222 h 3.81688 v -7.069414 h 2.58876 c 0,0 0.33382,0.09181 0.44895,0.21054 0.11445,0.117817 0.19615,0.452293 0.19615,0.452293 v 1.027878 h -1.65719 v 4.837789 c 0.0428,0.283983 0.17473,0.506823 0.53623,0.572523 h 7.06388 c 0.38273,-0.0092 0.58305,-0.202578 0.59461,-0.583909 v -4.851712 h -1.72055 v -1.056339 c 0.13771,-0.365536 0.3515,-0.579009 0.65785,-0.607261 h 1.03104 v -7.097289 c 0,0 -0.447,-0.144134 -0.44596,-0.328937 0,-0.283371 0.67656,-0.213599 0.68951,-0.496572 0.0122,-0.28735 -0.65219,-0.278475 -0.65154,-0.566131 6.4e-4,-0.2797 0.6355,-0.267459 0.63574,-0.547158 2.6e-4,-0.285514 -0.65906,-0.274497 -0.64839,-0.559797 0.009,-0.27266 0.63601,-0.21513 0.65789,-0.487087 0.0245,-0.302344 -0.66669,-0.349655 -0.63576,-0.651509 0.0276,-0.260726 0.63373,-0.178102 0.65155,-0.439624 0.0184,-0.279393 -0.62621,-0.572465 -0.62621,-0.559826 0,0.01224 0.6363,-0.265929 0.63251,-0.543976 -0.009,-0.298978 -0.70562,-0.267152 -0.69582,-0.56613 0.009,-0.276639 0.66158,-0.20442 0.67688,-0.480752 0.0152,-0.298978 -0.67924,-0.298367 -0.67049,-0.597773 0.009,-0.29041 0.68887,-0.250628 0.68313,-0.540823 -0.009,-0.270213 -0.63275,-0.208397 -0.65473,-0.477601 -0.0245,-0.300814 0.64903,-0.343534 0.63578,-0.645174 -0.0122,-0.287656 -0.67761,-0.272661 -0.65787,-0.559828 0.0184,-0.258278 0.62565,-0.160352 0.65469,-0.417467 0.0349,-0.304486 -0.66892,-0.349227 -0.64521,-0.654723 0.0214,-0.287962 0.69647,-0.226758 0.69582,-0.515515 -6.4e-4,-0.290411 -0.6968,-0.225229 -0.70216,-0.515516 -0.009,-0.29194 0.68313,-0.252158 0.68629,-0.544006 0,-0.295612 -0.6912,-0.270518 -0.68309,-0.56613 0.009,-0.278169 0.65936,-0.218802 0.67048,-0.496574 0.0122,-0.29653 -0.68168,-0.288573 -0.67048,-0.585104 0.009,-0.286737 0.67531,-0.228901 0.68942,-0.515545 0.0153,-0.280924 -0.62182,-0.287963 -0.62306,-0.569284 0,-0.264704 0.5905,-0.276027 0.58199,-0.540854 -0.009,-0.273273 -0.63664,-0.245119 -0.63574,-0.518667 0,-0.291022 0.67632,-0.256136 0.67996,-0.547158 0,-0.296837 -0.68336,-0.278781 -0.67996,-0.575648 0,-0.268376 0.62457,-0.237774 0.62619,-0.50603 0,-0.287349 -0.66595,-0.262867 -0.66418,-0.550309 0,-0.296836 0.69487,-0.262868 0.6927,-0.559826 0,-0.273273 -0.63682,-0.232879 -0.64523,-0.50603 -0.009,-0.280617 0.63137,-0.279087 0.62944,-0.559826 0,-0.290104 -0.66579,-0.279394 -0.65787,-0.569283 0.009,-0.294388 0.69867,-0.246344 0.69891,-0.540854 2.5e-4,-0.298978 -0.70837,-0.25124 -0.70846,-0.55031 -9e-5,-0.288512 0.6849,-0.242977 0.68321,-0.531343 0,-0.285911 -0.6778,-0.232817 -0.68321,-0.518698 -0.009,-0.304059 0.70531,-0.274649 0.70531,-0.578783 0,-0.289156 -0.67501,-0.261217 -0.67049,-0.550326 0.009,-0.283371 0.65889,-0.235663 0.67364,-0.518689 0.0184,-0.322444 -0.73364,-0.346013 -0.70207,-0.667346 0.0276,-0.270702 0.6815,-0.164575 0.68943,-0.436459 0.009,-0.285453 -0.68578,-0.214335 -0.69582,-0.499722 -0.009,-0.291787 0.67107,-0.267826 0.67373,-0.559811 0,-0.272815 -0.6206,-0.261676 -0.6199,-0.534505 7.3e-4,-0.272936 0.61729,-0.258461 0.62305,-0.531346 0.009,-0.29907 -0.66385,-0.311332 -0.65785,-0.610417 0.009,-0.278842 0.63502,-0.265102 0.63566,-0.544 6.4e-4,-0.266112 -0.59964,-0.255799 -0.60408,-0.521856 -0.009,-0.284229 0.63551,-0.294664 0.62627,-0.578785 -0.009,-0.286156 -0.64456,-0.255401 -0.66733,-0.540832 -0.0389,-0.489697 0.9891,-0.606265 0.9836,-1.097483 -0.009,-0.484045 -1.02984,-0.576847 -0.99315,-1.059524 0.0214,-0.299468 0.69842,-0.256472 0.70846,-0.556648 0.009,-0.283494 -0.64879,-0.286126 -0.63251,-0.569304 0.0153,-0.254361 0.60644,-0.188537 0.62303,-0.442782 0.0184,-0.299988 -0.66838,-0.313036 -0.661,-0.613575 0.009,-0.284994 0.66084,-0.265316 0.65469,-0.550325 -0.009,-0.276578 -0.65081,-0.229482 -0.65785,-0.506041 -0.009,-0.293776 0.67493,-0.278628 0.67049,-0.572463 -0.009,-0.308183 -0.7211,-0.578791 -0.7211,-0.578791 v -1.017869 l 1.80366,-4.007659 h 0.52782 v 15.999319 h -0.53673 v 21.670862 h 0.57253 z"
     id="profile_right"
     sodipodi:nodetypes="cccccccccccccccccccccccscccccccccccccssssssssssssssssssssssssssssssssssssssssssssssssssssssssssssssssccccccccc"
     inkscape:label="profile_right" />
</svg>
