<?xml version="1.0" encoding="UTF-8" standalone="no"?>
<!-- Created with Inkscape (http://www.inkscape.org/) -->

<svg
   width="210mm"
   height="297mm"
   viewBox="0 0 210 297"
   version="1.1"
   id="svg1"
   inkscape:version="1.4 (86a8ad7, 2024-10-11)"
   sodipodi:docname="DSHM-15-025-V1_032-corner.svg"
   xmlns:inkscape="http://www.inkscape.org/namespaces/inkscape"
   xmlns:sodipodi="http://sodipodi.sourceforge.net/DTD/sodipodi-0.dtd"
   xmlns="http://www.w3.org/2000/svg"
   xmlns:svg="http://www.w3.org/2000/svg">
  <sodipodi:namedview
     id="namedview1"
     pagecolor="#ffffff"
     bordercolor="#000000"
     borderopacity="0.25"
     inkscape:showpageshadow="2"
     inkscape:pageopacity="0.0"
     inkscape:pagecheckerboard="0"
     inkscape:deskcolor="#d1d1d1"
     inkscape:document-units="mm"
     inkscape:zoom="2.9606624"
     inkscape:cx="366.30316"
     inkscape:cy="249.43742"
     inkscape:window-width="2560"
     inkscape:window-height="1377"
     inkscape:window-x="-8"
     inkscape:window-y="-8"
     inkscape:window-maximized="1"
     inkscape:current-layer="svg1" />
  <defs
     id="defs1" />
  <path
     id="compensator"
     style="display:inline;fill:#5e5e5e;fill-rule:evenodd;stroke:#000000;stroke-width:0.0309596"
     d="m 113.02888,60.056484 -0.0353,0.03523 0.71674,4.598061 0.0279,0.0161 h 1.18071 c 0,0 0.15046,0.03923 0.20155,0.09279 0.0492,0.05161 0.0799,0.198389 0.0799,0.198389 v 1.187112 l -1.2095,0.85433 -0.19536,0.182383 0.096,0.252785 2.53742,3.826919 h 1.99668 l 2.53423,-3.839715 0.0449,-0.239998 -0.096,-0.201578 -1.25433,-0.84794 0.0124,-1.203112 c 0,0 0.031,-0.141826 0.0802,-0.188792 0.0526,-0.04981 0.20495,-0.07356 0.20495,-0.07356 h 3.23816 l 0.0155,-0.0257 v -1.369505 c 0.0864,-0.309317 0.24303,-0.568399 0.68477,-0.623953 0.32872,0.04365 0.49844,0.272816 0.62395,0.553558 0,0 0.16811,2.449415 0.55675,3.59974 0.30155,0.892594 0.64235,1.861381 1.3503,2.483016 0.68988,0.605762 1.65136,0.994389 2.5694,0.991921 0.91427,-0.0025 1.86745,-0.397119 2.55343,-1.001521 0.70767,-0.623505 1.05612,-1.589033 1.35671,-2.483016 0.38563,-1.146957 0.53755,-3.590131 0.53755,-3.59014 -0.0325,-0.03573 0.32111,-0.581245 0.67195,-0.563159 0.46968,0.02415 0.67331,0.654666 0.63996,0.662356 l 0.003,1.340703 0.0322,0.02229 h 3.21893 l 0.30402,0.294394 v 1.190307 l -1.25111,0.844739 -0.10557,0.207987 0.0511,0.220773 2.51822,3.839718 h 2.00947 l 2.58222,-3.84292 0.048,-0.243187 -0.15356,-0.191981 -1.24155,-0.854339 v -1.183906 c 0,0 0.0697,-0.15198 0.13127,-0.204797 0.048,-0.04105 0.17276,-0.07675 0.17276,-0.07675 h 1.13912 l 0.0415,-0.02229 0.71034,-4.57887 -0.0322,-0.03842 h -7.56114 l -0.096,0.374372 c 0,0 -0.0625,0.08402 -0.10867,0.102384 -0.0365,0.01455 -0.0817,0.01486 -0.11826,0 -0.0455,-0.01858 -0.10557,-0.102384 -0.10557,-0.102384 l -0.0991,-0.371177 -0.0217,-0.0096 h -2.72011 c 0,0 -1.51881,0.292599 -2.07664,0.777535 -0.56805,0.493803 -0.83944,1.270108 -1.07833,1.98386 -0.38331,1.145348 -0.53436,3.583738 -0.53436,3.583738 0,0 -0.22693,0.700706 -0.48956,0.934327 -0.24335,0.216253 -0.91192,0.348782 -0.91192,0.348782 0,0 -0.71578,-0.12678 -0.97594,-0.355181 -0.26099,-0.229132 -0.47996,-0.924727 -0.47996,-0.924727 0,0 -0.15635,-2.442625 -0.54078,-3.59014 -0.2402,-0.716761 -0.98546,-1.967801 -1.08147,-1.993399 -0.096,-0.0257 -2.02544,-0.761544 -2.02544,-0.761544 h -2.72299 l -0.14086,0.371175 c 0,0 -0.0365,0.0909 -0.0768,0.11198 -0.0452,0.02384 -0.10588,0.01858 -0.15356,0 -0.0486,-0.01888 -0.11517,-0.105603 -0.11517,-0.105603 l -0.10103,-0.375967 z m 4.38685,5.535589 c 0.41006,0.02229 0.58792,0.251051 0.61436,0.614356 v 2.271834 c -8e-4,0.36984 -0.22972,0.544709 -0.58873,0.607947 -0.38996,-0.04539 -0.55866,-0.267738 -0.60798,-0.585551 v -2.310227 c 0.074,-0.316156 0.22012,-0.562152 0.58235,-0.598359 z m 23.12149,0.0034 c 0.41888,0.05898 0.53684,0.304147 0.60158,0.58236 v 2.294227 c 0.0684,0.22489 -0.34158,0.646538 -0.60477,0.604755 -0.46257,-0.0734 -0.61916,-0.527551 -0.60476,-0.58235 0.009,-0.03718 0,-2.300636 0,-2.300636 0.0988,-0.332242 0.29566,-0.539118 0.60795,-0.598356 z"
     inkscape:label="compensator">
    <title
       id="title8">rubber</title>
  </path>
  <rect
     style="fill:#b8b8b8;fill-opacity:1;fill-rule:evenodd;stroke:#b81e1e;stroke-width:0.0461934"
     id="concrete_left"
     width="82.631142"
     height="53.700008"
     x="40.129086"
     y="75.426521" />
  <rect
     style="fill:#a39a9a;fill-rule:evenodd;stroke:#b81e1e;stroke-width:0.0219941"
     id="finish_left"
     width="71.44207"
     height="10.148922"
     x="40.232273"
     y="65.153008" />
  <rect
     style="fill:#a39a9a;fill-rule:evenodd;stroke:#b81e1e;stroke-width:0.0343056"
     id="cover_left"
     width="71.391769"
     height="4.965694"
     x="40.278942"
     y="60.081779" />
  <rect
     style="fill:#404242;fill-opacity:0.341246;fill-rule:evenodd;stroke:#b81e1e;stroke-width:0.0179165"
     id="shadow"
     width="96.666237"
     height="0.014575064"
     x="70.284653"
     y="128.79973"
     inkscape:label="shadow" />
  <ellipse
     style="opacity:0;fill:none;fill-opacity:0;fill-rule:evenodd;stroke-width:0.00368993;stroke-opacity:0"
     id="bolt_left"
     cx="-83.303589"
     cy="-73.667984"
     rx="0.094999999"
     ry="0.028942173"
     inkscape:label="bolt_left"
     transform="scale(-1)" />
  <path
     style="fill:#5e5e5e;fill-rule:evenodd;stroke:#000000;stroke-width:0.0291282"
     d="m 64.581303,73.509752 h 18.627222 27.320025 c 0.64322,-0.04594 1.02382,-0.398324 1.16163,-1.033969 V 60.05551 h 1.96579 v 4.624096 h 1.04992 c 0.32224,-0.0089 0.46366,0.1113 0.49145,0.312733 v 1.228629 h -1.4297 v 6.746265 c 0.0119,0.367506 0.18964,0.569911 0.58083,0.558466 h 6.47824 c 0.5655,0.06303 0.5925,-0.277883 0.67007,-0.580802 V 66.24331 h -1.58597 v -1.139275 c 0.23767,-0.467918 0.47518,-0.381849 0.7128,-0.411552 h 2.3252 v 8.252414 c 0,2.004975 -1.09704,2.499836 -2.34554,2.591277 H 64.533911 Z"
     id="profile_left"
     sodipodi:nodetypes="cccccccccccccccccccccccc"
     inkscape:label="profile_left" />
  <ellipse
     style="opacity:0;fill:none;fill-opacity:0;fill-rule:evenodd;stroke-width:0.000191947;stroke-opacity:0"
     id="screw_right"
     cx="145.33791"
     cy="26.892508"
     rx="0.0049418169"
     ry="0.0015055466"
     inkscape:label="screw_right" />
  <rect
     style="fill:#e1ecec;fill-opacity:0.77;fill-rule:evenodd;stroke:#b81e1e;stroke-width:0.00931009"
     id="finish_right"
     width="75.343964"
     height="2.0344629"
     x="-75.348618"
     y="146.90324"
     inkscape:label="finish_right"
     transform="rotate(-90)" />
  <rect
     style="fill:#e1ecec;fill-opacity:0.77;fill-rule:evenodd;stroke:#b81e1e;stroke-width:0.0106846"
     id="cover_right"
     width="75.317711"
     height="0.12763681"
     x="-75.330757"
     y="146.72768"
     inkscape:label="cover_right"
     transform="rotate(-90)" />
  <path
     style="fill:#e1ecec;fill-opacity:0.77;fill-rule:evenodd;stroke:#b81e1e;stroke-width:0.0105622"
     d="m 148.95092,0.01350202 20.93781,-6e-6 V 129.06766 H 146.70658 V 75.496164 h 2.23324 z"
     id="concrete_right"
     inkscape:label="concrete_right"
     sodipodi:nodetypes="ccccccc" />
  <path
     style="fill:#5e5e5e;fill-rule:evenodd;stroke:#000000;stroke-width:0.0306016"
     d="m 146.59852,86.007457 h -1.87527 v -4.62998 c 0.0245,-0.17229 -0.0919,-0.2494 -0.19921,-0.3319 h -0.82977 c -0.48271,0.0701 -0.5509,-0.22829 -0.61405,-0.53103 v -1.07868 h 1.67611 v -4.91209 c -0.0309,-0.30356 -0.23074,-0.46594 -0.54759,-0.53103 h -7.03627 c -0.2647,0.0407 -0.459,0.26195 -0.60573,0.60573 v 4.854 h 1.61807 v 1.07865 c 0,0.29959 -0.22891,0.47149 -0.56426,0.58082 h -2.68836 v -7.13578 h -3.76707 v -2.173946 h 3.81688 v -7.069414 h 2.58876 c 0,0 0.33382,0.09181 0.44895,0.21054 0.11445,0.117817 0.19615,0.452293 0.19615,0.452293 v 1.027878 h -1.65719 v 4.837789 c 0.0428,0.283983 0.17473,0.506823 0.53623,0.572523 h 7.06388 c 0.38273,-0.0092 0.58305,-0.202578 0.59461,-0.583909 v -4.851712 h -1.72055 V 65.34187 c 0.13771,-0.365536 0.3515,-0.579009 0.65785,-0.607261 h 1.03104 V 57.63732 c 0,0 -0.447,-0.144134 -0.44596,-0.328937 0,-0.283371 0.67656,-0.213599 0.68951,-0.496572 0.0122,-0.28735 -0.65219,-0.278475 -0.65154,-0.566131 6.4e-4,-0.2797 0.6355,-0.267459 0.63574,-0.547158 2.6e-4,-0.285514 -0.65906,-0.274497 -0.64839,-0.559797 0.009,-0.27266 0.63601,-0.21513 0.65789,-0.487087 0.0245,-0.302344 -0.66669,-0.349655 -0.63576,-0.651509 0.0276,-0.260726 0.63373,-0.178102 0.65155,-0.439624 0.0184,-0.279393 -0.62621,-0.572465 -0.62621,-0.559826 0,0.01224 0.6363,-0.265929 0.63251,-0.543976 -0.009,-0.298978 -0.70562,-0.267152 -0.69582,-0.56613 0.009,-0.276639 0.66158,-0.20442 0.67688,-0.480752 0.0152,-0.298978 -0.67924,-0.298367 -0.67049,-0.597773 0.009,-0.29041 0.68887,-0.250628 0.68313,-0.540823 -0.009,-0.270213 -0.63275,-0.208397 -0.65473,-0.477601 -0.0245,-0.300814 0.64903,-0.343534 0.63578,-0.645174 -0.0122,-0.287656 -0.67761,-0.272661 -0.65787,-0.559828 0.0184,-0.258278 0.62565,-0.160352 0.65469,-0.417467 0.0349,-0.304486 -0.66892,-0.349227 -0.64521,-0.654723 0.0214,-0.287962 0.69647,-0.226758 0.69582,-0.515515 -6.4e-4,-0.290411 -0.6968,-0.225229 -0.70216,-0.515516 -0.009,-0.29194 0.68313,-0.252158 0.68629,-0.544006 0,-0.295612 -0.6912,-0.270518 -0.68309,-0.56613 0.009,-0.278169 0.65936,-0.218802 0.67048,-0.496574 0.0122,-0.29653 -0.68168,-0.288573 -0.67048,-0.585104 0.009,-0.286737 0.67531,-0.228901 0.68942,-0.515545 0.0153,-0.280924 -0.62182,-0.287963 -0.62306,-0.569284 0,-0.264704 0.5905,-0.276027 0.58199,-0.540854 -0.009,-0.273273 -0.63664,-0.245119 -0.63574,-0.518667 0,-0.291022 0.67632,-0.256136 0.67996,-0.547158 0,-0.296837 -0.68336,-0.278781 -0.67996,-0.575648 0,-0.268376 0.62457,-0.237774 0.62619,-0.50603 0,-0.287349 -0.66595,-0.262867 -0.66418,-0.550309 0,-0.296836 0.69487,-0.262868 0.6927,-0.559826 0,-0.273273 -0.63682,-0.232879 -0.64523,-0.50603 -0.009,-0.280617 0.63137,-0.279087 0.62944,-0.559826 0,-0.290104 -0.66579,-0.279394 -0.65787,-0.569283 0.009,-0.294388 0.69867,-0.246344 0.69891,-0.540854 2.5e-4,-0.298978 -0.70837,-0.25124 -0.70846,-0.55031 -9e-5,-0.288512 0.6849,-0.242977 0.68321,-0.531343 0,-0.285911 -0.6778,-0.232817 -0.68321,-0.518698 -0.009,-0.304059 0.70531,-0.274649 0.70531,-0.578783 0,-0.289156 -0.67501,-0.261217 -0.67049,-0.550326 0.009,-0.283371 0.65889,-0.235663 0.67364,-0.518689 0.0184,-0.322444 -0.73364,-0.346013 -0.70207,-0.667346 0.0276,-0.270702 0.6815,-0.164575 0.68943,-0.436459 0.009,-0.285453 -0.68578,-0.214335 -0.69582,-0.499722 -0.009,-0.291787 0.67107,-0.267826 0.67373,-0.559811 0,-0.272815 -0.6206,-0.261676 -0.6199,-0.534505 7.3e-4,-0.272936 0.61729,-0.258461 0.62305,-0.531346 0.009,-0.29907 -0.66385,-0.311332 -0.65785,-0.610417 0.009,-0.278842 0.63502,-0.265102 0.63566,-0.544 6.4e-4,-0.266112 -0.59964,-0.255799 -0.60408,-0.521856 -0.009,-0.284229 0.63551,-0.294664 0.62627,-0.578785 -0.009,-0.286156 -0.64456,-0.255401 -0.66733,-0.540832 -0.0389,-0.489697 0.9891,-0.606265 0.9836,-1.097483 -0.009,-0.484045 -1.02984,-0.576847 -0.99315,-1.059524 0.0214,-0.299468 0.69842,-0.256472 0.70846,-0.556648 0.009,-0.283494 -0.64879,-0.286126 -0.63251,-0.569304 0.0153,-0.254361 0.60644,-0.188537 0.62303,-0.442782 0.0184,-0.299988 -0.66838,-0.313036 -0.661,-0.613575 0.009,-0.284994 0.66084,-0.265316 0.65469,-0.550325 -0.009,-0.276578 -0.65081,-0.229482 -0.65785,-0.506041 -0.009,-0.293776 0.67493,-0.278628 0.67049,-0.572463 -0.009,-0.308183 -0.7211,-0.578791 -0.7211,-0.578791 V 20.39624 l 1.80366,-4.007659 h 0.52782 V 32.3879 h -0.53673 v 21.670862 h 0.57253 z"
     id="profile_right"
     sodipodi:nodetypes="cccccccccccccccccccccccscccccccccccccssssssssssssssssssssssssssssssssssssssssssssssssssssssssssssssssccccccccc"
     inkscape:label="profile_right" />
</svg>
