<?xml version="1.0" encoding="UTF-8" standalone="no"?>
<!-- Created with Inkscape (http://www.inkscape.org/) -->

<svg
   width="210mm"
   height="297mm"
   viewBox="0 0 210 297"
   version="1.1"
   id="svg1"
   inkscape:version="1.4 (86a8ad7, 2024-10-11)"
   sodipodi:docname="DSHM-15-030-V2_038.svg"
   xmlns:inkscape="http://www.inkscape.org/namespaces/inkscape"
   xmlns:sodipodi="http://sodipodi.sourceforge.net/DTD/sodipodi-0.dtd"
   xmlns="http://www.w3.org/2000/svg"
   xmlns:svg="http://www.w3.org/2000/svg">
  <sodipodi:namedview
     id="namedview1"
     pagecolor="#ffffff"
     bordercolor="#000000"
     borderopacity="0.25"
     inkscape:showpageshadow="2"
     inkscape:pageopacity="0.0"
     inkscape:pagecheckerboard="0"
     inkscape:deskcolor="#d1d1d1"
     inkscape:document-units="mm"
     inkscape:zoom="1.0467522"
     inkscape:cx="346.30928"
     inkscape:cy="51.110473"
     inkscape:window-width="2560"
     inkscape:window-height="1377"
     inkscape:window-x="-8"
     inkscape:window-y="-8"
     inkscape:window-maximized="1"
     inkscape:current-layer="svg1" />
  <defs
     id="defs1" />
  <path
     id="compensator"
     style="display:inline;fill:#5e5e5e;fill-rule:evenodd;stroke:#000000;stroke-width:0.0301192"
     d="m 128.07927,0.01506015 -48.894409,0.0033 -0.0388,0.03888 0.70509,4.50592495 0.0241,0.025 h 0.75021 c 0,0 0.1515,-0.04837 0.20542,-0.102706 0.0497,-0.05006 0.0934,-0.189902 0.0934,-0.189902 l 0.003,-0.270831 c 0,0 0.0994,-0.171951 0.18372,-0.17433 0.0979,-0.0024 0.22409,0.189901 0.22409,0.189901 v 1.982921 l -1.47864,1.036604 -0.009,0.04668 2.77359,4.0374419 h 1.9985 l 2.73624,-4.0530039 -0.0241,-0.04358 -1.46927,-1.033479 0.0121,-1.98915 c 0,0 0.11957,-0.177673 0.21173,-0.177432 0.0979,2.56e-4 0.22409,0.189901 0.22409,0.189901 v 0.267699 c 0,0 0.009,0.129393 0.0467,0.177433 0.0488,0.06198 0.20843,0.112073 0.20843,0.112073 h 2.22572 c 0,0 0.23463,0.04415 0.31751,0.121411 0.0988,0.09207 0.17108,0.367324 0.17108,0.367324 l -0.83114,4.8374529 c 0,0 0.0885,0.59492 0.27409,0.812465 0.18643,0.218695 0.76264,0.40157 0.76264,0.40157 h 2.84832 c 0,0 0.31833,-0.06042 0.47007,-0.115176 0.16264,-0.05882 0.4669,-0.227249 0.4669,-0.227249 l 9.469479,-7.5145549 c 0,0 0.58193,-0.352614 0.90586,-0.351753 0.32234,7.95e-4 0.89962,0.354868 0.89962,0.354868 l 9.50369,7.5083229 c 0.29246,0.222038 0.58522,0.294294 0.87783,0.354876 h 2.86078 c 0,0 0.61816,-0.173878 0.80933,-0.40779 0.17981,-0.21987 0.22409,-0.821808 0.22409,-0.821808 l -0.78455,-4.8408379 c 0,0 0.0365,-0.281373 0.13072,-0.37355 0.0819,-0.08003 0.32685,-0.105839 0.32685,-0.105839 h 2.21638 c 0,0 0.14488,-0.04488 0.19608,-0.0965 0.0554,-0.05563 0.10271,-0.211677 0.10271,-0.211677 v -0.26773 c 0,0 0.0991,-0.164059 0.18071,-0.164993 0.0979,-7.98e-4 0.22108,0.193004 0.22108,0.193004 v 1.976689 l -1.48485,1.045934 -0.003,0.04358 2.7269,4.0249839 h 2.0016 l 2.76738,-4.0343239 -0.0181,-0.05292 -1.47554,-1.039715 v -1.97981 c 0,0 0.1265,-0.180594 0.22108,-0.177432 0.0873,0.0033 0.19306,0.177462 0.19306,0.177432 l -0.003,0.273934 c 0,0 0.0464,0.137705 0.0964,0.186769 0.0536,0.05268 0.2024,0.09961 0.2024,0.09961 h 0.75645 l 0.0343,-0.02801 0.68795,-4.49503095 z m -35.592959,2.75648095 6.149537,0.02651 c 0.64964,0.08057 0.52266,0.441572 0.34242,0.821805 l -6.571347,5.245243 c -0.4002,0.121892 -0.75395,0.215382 -1.13465,-0.08873 -0.28071,-0.224208 -0.35936,-0.536306 -0.40468,-0.905856 l 0.68641,-4.305144 c 0.13945,-0.417696 0.35146,-0.771003 0.93231,-0.793789 z m 22.296179,0.0016 c 0.58084,0.02289 0.79282,0.374535 0.9323,0.792231 l 0.68639,4.305147 c -0.0455,0.369547 -0.12409,0.683199 -0.40468,0.907416 -0.38068,0.304098 -0.73599,0.209057 -1.13619,0.08716 l -6.56981,-5.245252 c -0.18011,-0.380233 -0.30721,-0.741239 0.34243,-0.821805 z m -31.183539,2.680207 c 0.31375,0.02952 0.53594,0.201227 0.6257,0.579 v 2.303555 c -0.0651,0.365529 -0.31439,0.516423 -0.62724,0.593007 -0.43871,-0.03021 -0.50877,-0.3008 -0.57434,-0.574331 v -2.312892 c 0.0735,-0.276102 0.1759,-0.532715 0.57588,-0.588339 z m 40.072429,0 c 0.38333,0.08066 0.52034,0.312905 0.58212,0.591454 v 2.297323 c -0.0437,0.339257 -0.24277,0.522911 -0.56034,0.588336 -0.35062,-0.02922 -0.55727,-0.210382 -0.60079,-0.563433 v -2.331563 c 0.059,-0.336486 0.25451,-0.527848 0.57901,-0.582117 z"
     inkscape:label="compensator">
    <title
       id="title2">rubber</title>
  </path>
  <rect
     style="fill:#b8b8b8;fill-opacity:1;fill-rule:evenodd;stroke:#b81e1e;stroke-width:0.0472555"
     id="concrete_right"
     width="85.31694"
     height="54.428497"
     x="118.46658"
     y="15.584017" />
  <rect
     style="fill:#b8b8b8;fill-opacity:1;fill-rule:evenodd;stroke:#b81e1e;stroke-width:0.0463561"
     id="concrete_left"
     width="82.630981"
     height="54.078995"
     x="6.0541778"
     y="15.568178" />
  <rect
     style="fill:#a39a9a;fill-rule:evenodd;stroke:#b81e1e;stroke-width:0.0229589"
     id="finish_right"
     width="74.359184"
     height="10.625452"
     x="129.59834"
     y="5.0765085" />
  <rect
     style="fill:#a39a9a;fill-rule:evenodd;stroke:#b81e1e;stroke-width:0.0223382"
     id="finish_left"
     width="71.441727"
     height="10.469027"
     x="6.1574612"
     y="5.121232" />
  <rect
     style="fill:#a39a9a;fill-rule:evenodd;stroke:#b81e1e;stroke-width:0.0350057"
     id="cover_right"
     width="74.346153"
     height="4.9649944"
     x="129.58598"
     y="0.01750285" />
  <rect
     style="fill:#a39a9a;fill-rule:evenodd;stroke:#b81e1e;stroke-width:0.0343056"
     id="cover_left"
     width="71.391769"
     height="4.965694"
     x="6.2039561"
     y="0.049832564" />
  <rect
     style="fill:#404242;fill-opacity:0.341246;fill-rule:evenodd;stroke:#b81e1e;stroke-width:0.0198777"
     id="shadow"
     width="137.48599"
     height="0.01261392"
     x="36.210629"
     y="69.568939"
     inkscape:label="shadow" />
  <ellipse
     style="opacity:0;fill:none;fill-opacity:0;fill-rule:evenodd;stroke-width:0.00368993;stroke-opacity:0"
     id="bolt_left"
     cx="-49.228577"
     cy="-13.63604"
     rx="0.094999999"
     ry="0.028942173"
     inkscape:label="bolt_left"
     transform="scale(-1)" />
  <ellipse
     style="opacity:0;fill:none;fill-opacity:0;fill-rule:evenodd;stroke-width:0.000191947;stroke-opacity:0"
     id="bolt_right"
     cx="157.97247"
     cy="13.659428"
     rx="0.0049418169"
     ry="0.0015055466"
     inkscape:label="bolt_right" />
  <path
     style="fill:#5e5e5e;fill-rule:evenodd;stroke:#000000;stroke-width:0.0291282"
     d="m 30.506317,13.477806 h 18.627222 27.320015 c 0.643234,-0.04594 1.023835,-0.398324 1.161638,-1.033969 V 0.0235641 h 1.965791 v 4.624096 h 1.049919 c 0.322241,-0.0089 0.463658,0.1113 0.491453,0.312733 v 1.228629 h -1.429699 v 6.7462649 c 0.01191,0.367506 0.189639,0.569911 0.580824,0.558466 h 6.478243 c 0.5655,0.06303 0.5925,-0.277883 0.67007,-0.580802 V 6.2113641 h -1.58597 v -1.139275 c 0.23767,-0.467918 0.47518,-0.381849 0.7128,-0.411552 h 2.3252 v 8.2524139 c 0,2.004975 -1.09704,2.499836 -2.34554,2.591277 H 30.458925 Z"
     id="profile_left"
     sodipodi:nodetypes="cccccccccccccccccccccccc"
     inkscape:label="profile_left" />
  <path
     style="fill:#5e5e5e;fill-rule:evenodd;stroke:#000000;stroke-width:0.0291098"
     d="m 176.58263,13.513818 h -18.6151 -27.3032 c -0.64284,-0.04599 -1.02316,-0.398076 -1.16084,-1.033314 V 0.06806335 h -1.96463 V 4.6892434 h -1.04923 c -0.32204,-0.009 -0.46337,0.111229 -0.49116,0.312536 v 1.227855 h 1.4288 v 6.7420146 c -0.0119,0.367278 -0.18952,0.569532 -0.58043,0.558121 h -6.47418 c -0.56516,0.06288 -0.59213,-0.277706 -0.66968,-0.580448 V 6.2519614 h 1.58507 v -1.138557 c -0.23754,-0.467622 -0.47493,-0.381608 -0.71244,-0.411292 h -2.32377 v 8.2472096 c 0,2.00371 1.0964,2.498255 2.3441,2.589631 h 56.03405 z"
     id="profile_right"
     sodipodi:nodetypes="cccccccccccccccccccccccc"
     inkscape:label="profile_right" />
</svg>
