<?xml version="1.0" encoding="UTF-8" standalone="no"?>
<!-- Created with Inkscape (http://www.inkscape.org/) -->

<svg
   width="210mm"
   height="297mm"
   viewBox="0 0 210 297"
   version="1.1"
   id="svg1"
   inkscape:version="1.4 (86a8ad7, 2024-10-11)"
   sodipodi:docname="DSHM-15-020-V2_038-corner.svg"
   xmlns:inkscape="http://www.inkscape.org/namespaces/inkscape"
   xmlns:sodipodi="http://sodipodi.sourceforge.net/DTD/sodipodi-0.dtd"
   xmlns="http://www.w3.org/2000/svg"
   xmlns:svg="http://www.w3.org/2000/svg">
  <sodipodi:namedview
     id="namedview1"
     pagecolor="#ffffff"
     bordercolor="#000000"
     borderopacity="0.25"
     inkscape:showpageshadow="2"
     inkscape:pageopacity="0.0"
     inkscape:pagecheckerboard="0"
     inkscape:deskcolor="#d1d1d1"
     inkscape:document-units="mm"
     inkscape:zoom="2.0935045"
     inkscape:cx="368.04316"
     inkscape:cy="291.61629"
     inkscape:window-width="2560"
     inkscape:window-height="1377"
     inkscape:window-x="-8"
     inkscape:window-y="-8"
     inkscape:window-maximized="1"
     inkscape:current-layer="svg1" />
  <defs
     id="defs1" />
  <path
     id="compensator"
     style="display:inline;fill:#5e5e5e;fill-rule:evenodd;stroke:#000000;stroke-width:0.0301156"
     d="m 110.10171,60.056058 -0.0437,0.04981 0.70344,4.581651 0.0374,0.03427 h 1.22633 c 0,0 0.13763,0.0256 0.1804,0.07466 0.0325,0.03689 0.0388,0.141634 0.0388,0.141634 v 1.231005 h -1.18122 c 0,0 -0.15088,0.0024 -0.20539,0.04671 -0.0614,0.04963 -0.0997,0.214754 -0.0997,0.214754 v 0.784364 l 2.73904,4.086749 1.99513,0.0033 2.76082,-4.074303 0.006,-0.04358 -1.48467,-1.005349 v -1.235676 c 0,0 0.009,-0.118143 0.0467,-0.158739 0.0467,-0.05075 0.19304,-0.07466 0.19304,-0.07466 h 2.91022 l 1.19833,0.65052 0.15871,1.375738 -1.65901,4.534962 0.0241,0.03427 h 3.52027 l 0.0271,-0.02168 2.0076,-5.599444 c 0,0 0.0271,-0.416339 -0.009,-0.61939 -0.0373,-0.202045 -0.10962,-0.400658 -0.21171,-0.578936 -0.11504,-0.200781 -0.33862,-0.328317 -0.44201,-0.535353 -0.0497,-0.09929 -0.0837,-0.212887 -0.0777,-0.323703 0.006,-0.116668 0.0349,-0.248032 0.11835,-0.329926 0.0876,-0.08604 0.34862,-0.118264 0.34862,-0.118264 h 8.29489 c 0,0 0.22044,0.06032 0.29874,0.136936 0.0831,0.08146 0.14636,0.19807 0.15239,0.314365 0.006,0.118956 -0.062,0.232884 -0.12137,0.336156 -0.11444,0.199275 -0.3325,0.327058 -0.44198,0.529131 -0.0946,0.17458 -0.14395,0.373376 -0.17436,0.569597 -0.0319,0.207135 -0.006,0.628729 -0.006,0.628729 l 2.02004,5.611899 h 3.46735 l 0.053,-0.04047 -1.67455,-4.566087 0.18039,-1.369515 1.20146,-0.622505 h 2.94441 c 0.2093,0.02078 0.2355,0.123113 0.2364,0.236558 V 66.2006 l -1.46913,0.980449 -0.0211,0.04668 2.73281,4.074305 h 1.99203 c 0,0 2.72347,-4.049405 2.72971,-4.074305 0.006,-0.025 0.003,-0.821707 0.003,-0.821707 0,0 -0.006,-0.138983 -0.053,-0.183645 -0.0515,-0.05044 -0.2087,-0.05602 -0.2087,-0.05602 h -1.18589 v -1.229451 c 0,0 0.0151,-0.112813 0.053,-0.152505 0.0392,-0.04285 0.15871,-0.07156 0.15871,-0.07156 h 1.19833 l 0.0343,-0.02801 0.70344,-4.581651 -0.0271,-0.04358 z m 4.41046,5.530973 c 0.41695,-0.0024 0.54762,0.26845 0.58514,0.628729 0,0 -0.0181,2.237727 0,2.272155 0.12288,0.220868 -0.40644,0.643377 -0.56647,0.622498 -0.57698,-0.07523 -0.50772,-0.357957 -0.60385,-0.597604 v -2.328171 c 0.012,-0.401392 0.2596,-0.542785 0.58518,-0.597607 z m 29.11461,0 c 0.39448,0.0048 0.54883,0.254687 0.57894,0.631846 v 2.244129 c -0.0684,0.363863 -0.26803,0.565695 -0.58515,0.622517 -0.32,-0.03409 -0.50792,-0.239871 -0.57894,-0.597608 v -2.278377 c 0.047,-0.337879 0.19094,-0.590314 0.58515,-0.622507 z"
     inkscape:label="compensator">
    <title
       id="title3">rubber</title>
  </path>
  <rect
     style="fill:#b8b8b8;fill-opacity:1;fill-rule:evenodd;stroke:#b81e1e;stroke-width:0.0461934"
     id="concrete_left"
     width="82.631142"
     height="53.700008"
     x="36.879055"
     y="75.426521" />
  <rect
     style="fill:#a39a9a;fill-rule:evenodd;stroke:#b81e1e;stroke-width:0.0219941"
     id="finish_left"
     width="71.44207"
     height="10.148922"
     x="36.982246"
     y="65.153008" />
  <rect
     style="fill:#a39a9a;fill-rule:evenodd;stroke:#b81e1e;stroke-width:0.0343056"
     id="cover_left"
     width="71.391769"
     height="4.965694"
     x="37.028915"
     y="60.081779" />
  <rect
     style="fill:#404242;fill-opacity:0.341246;fill-rule:evenodd;stroke:#b81e1e;stroke-width:0.0183765"
     id="shadow"
     width="105.00706"
     height="0.014115104"
     x="67.034813"
     y="128.79996"
     inkscape:label="shadow" />
  <ellipse
     style="opacity:0;fill:none;fill-opacity:0;fill-rule:evenodd;stroke-width:0.00368993;stroke-opacity:0"
     id="bolt_left"
     cx="-80.053513"
     cy="-73.667984"
     rx="0.094999999"
     ry="0.028942173"
     inkscape:label="bolt_left"
     transform="scale(-1)" />
  <path
     style="fill:#5e5e5e;fill-rule:evenodd;stroke:#000000;stroke-width:0.0291282"
     d="m 61.331272,73.509751 h 18.627222 27.320016 c 0.64323,-0.04594 1.02383,-0.398324 1.16164,-1.033969 V 60.055509 h 1.96579 v 4.624096 h 1.04992 c 0.32224,-0.0089 0.46366,0.1113 0.49145,0.312733 v 1.228629 h -1.4297 v 6.746265 c 0.0119,0.367506 0.18964,0.569911 0.58083,0.558466 h 6.47824 c 0.5655,0.06303 0.5925,-0.277883 0.67007,-0.580802 v -6.701587 h -1.58597 v -1.139275 c 0.23767,-0.467918 0.47518,-0.381849 0.7128,-0.411552 h 2.3252 v 8.252414 c 0,2.004975 -1.09704,2.499836 -2.34554,2.591277 H 61.28388 Z"
     id="profile_left"
     sodipodi:nodetypes="cccccccccccccccccccccccc"
     inkscape:label="profile_left" />
  <ellipse
     style="opacity:0;fill:none;fill-opacity:0;fill-rule:evenodd;stroke-width:0.000191947;stroke-opacity:0"
     id="screw_right"
     cx="148.58794"
     cy="26.892506"
     rx="0.0049418169"
     ry="0.0015055466"
     inkscape:label="screw_right" />
  <rect
     style="fill:#e1ecec;fill-opacity:0.77;fill-rule:evenodd;stroke:#b81e1e;stroke-width:0.00931009"
     id="finish_right"
     width="75.343964"
     height="2.0344629"
     x="-75.348618"
     y="150.15327"
     inkscape:label="finish_right"
     transform="rotate(-90)" />
  <rect
     style="fill:#e1ecec;fill-opacity:0.77;fill-rule:evenodd;stroke:#b81e1e;stroke-width:0.0106846"
     id="cover_right"
     width="75.317711"
     height="0.12763681"
     x="-75.330757"
     y="149.97771"
     inkscape:label="cover_right"
     transform="rotate(-90)" />
  <path
     style="fill:#e1ecec;fill-opacity:0.77;fill-rule:evenodd;stroke:#b81e1e;stroke-width:0.0105622"
     d="m 152.20095,0.01350091 20.93781,-6e-6 V 129.06766 H 149.95661 V 75.496163 h 2.23324 z"
     id="concrete_right"
     inkscape:label="concrete_right"
     sodipodi:nodetypes="ccccccc" />
  <path
     style="fill:#5e5e5e;fill-rule:evenodd;stroke:#000000;stroke-width:0.0306016"
     d="m 149.84855,86.007456 h -1.87527 v -4.62998 c 0.0245,-0.17229 -0.0919,-0.2494 -0.19921,-0.3319 h -0.82977 c -0.48271,0.0701 -0.5509,-0.22829 -0.61405,-0.53103 v -1.07868 h 1.67611 v -4.91209 c -0.0309,-0.30356 -0.23074,-0.46594 -0.54759,-0.53103 h -7.03627 c -0.2647,0.0407 -0.459,0.26195 -0.60573,0.60573 v 4.854 h 1.61807 v 1.07865 c 0,0.29959 -0.22891,0.47149 -0.56426,0.58082 h -2.68836 v -7.13578 h -3.76707 V 71.80222 h 3.81688 v -7.069414 h 2.58876 c 0,0 0.33382,0.09181 0.44895,0.21054 0.11445,0.117817 0.19615,0.452293 0.19615,0.452293 v 1.027878 h -1.65719 v 4.837789 c 0.0428,0.283983 0.17473,0.506823 0.53623,0.572523 h 7.06388 c 0.38273,-0.0092 0.58305,-0.202578 0.59461,-0.583909 v -4.851712 h -1.72055 v -1.056339 c 0.13771,-0.365536 0.3515,-0.579009 0.65785,-0.607261 h 1.03104 v -7.097289 c 0,0 -0.447,-0.144134 -0.44596,-0.328937 0,-0.283371 0.67656,-0.213599 0.68951,-0.496572 0.0122,-0.28735 -0.65219,-0.278475 -0.65154,-0.566131 6.4e-4,-0.2797 0.6355,-0.267459 0.63574,-0.547158 2.6e-4,-0.285514 -0.65906,-0.274497 -0.64839,-0.559797 0.009,-0.27266 0.63601,-0.21513 0.65789,-0.487087 0.0245,-0.302344 -0.66669,-0.349655 -0.63576,-0.651509 0.0276,-0.260726 0.63373,-0.178102 0.65155,-0.439624 0.0184,-0.279393 -0.62621,-0.572465 -0.62621,-0.559826 0,0.01224 0.6363,-0.265929 0.63251,-0.543976 -0.009,-0.298978 -0.70562,-0.267152 -0.69582,-0.56613 0.009,-0.276639 0.66158,-0.20442 0.67688,-0.480752 0.0152,-0.298978 -0.67924,-0.298367 -0.67049,-0.597773 0.009,-0.29041 0.68887,-0.250628 0.68313,-0.540823 -0.009,-0.270213 -0.63275,-0.208397 -0.65473,-0.477601 -0.0245,-0.300814 0.64903,-0.343534 0.63578,-0.645174 -0.0122,-0.287656 -0.67761,-0.272661 -0.65787,-0.559828 0.0184,-0.258278 0.62565,-0.160352 0.65469,-0.417467 0.0349,-0.304486 -0.66892,-0.349227 -0.64521,-0.654723 0.0214,-0.287962 0.69647,-0.226758 0.69582,-0.515515 -6.4e-4,-0.290411 -0.6968,-0.225229 -0.70216,-0.515516 -0.009,-0.29194 0.68313,-0.252158 0.68629,-0.544006 0,-0.295612 -0.6912,-0.270518 -0.68309,-0.56613 0.009,-0.278169 0.65936,-0.218802 0.67048,-0.496574 0.0122,-0.29653 -0.68168,-0.288573 -0.67048,-0.585104 0.009,-0.286737 0.67531,-0.228901 0.68942,-0.515545 0.0153,-0.280924 -0.62182,-0.287963 -0.62306,-0.569284 0,-0.264704 0.5905,-0.276027 0.58199,-0.540854 -0.009,-0.273273 -0.63664,-0.245119 -0.63574,-0.518667 0,-0.291022 0.67632,-0.256136 0.67996,-0.547158 0,-0.296837 -0.68336,-0.278781 -0.67996,-0.575648 0,-0.268376 0.62457,-0.237774 0.62619,-0.50603 0,-0.287349 -0.66595,-0.262867 -0.66418,-0.550309 0,-0.296836 0.69487,-0.262868 0.6927,-0.559826 0,-0.273273 -0.63682,-0.232879 -0.64523,-0.50603 -0.009,-0.280617 0.63137,-0.279087 0.62944,-0.559826 0,-0.290104 -0.66579,-0.279394 -0.65787,-0.569283 0.009,-0.294388 0.69867,-0.246344 0.69891,-0.540854 2.5e-4,-0.298978 -0.70837,-0.25124 -0.70846,-0.55031 -9e-5,-0.288512 0.6849,-0.242977 0.68321,-0.531343 0,-0.285911 -0.6778,-0.232817 -0.68321,-0.518698 -0.009,-0.304059 0.70531,-0.274649 0.70531,-0.578783 0,-0.289156 -0.67501,-0.261217 -0.67049,-0.550326 0.009,-0.283371 0.65889,-0.235663 0.67364,-0.518689 0.0184,-0.322444 -0.73364,-0.346013 -0.70207,-0.667346 0.0276,-0.270702 0.6815,-0.164575 0.68943,-0.436459 0.009,-0.285453 -0.68578,-0.214335 -0.69582,-0.499722 -0.009,-0.291787 0.67107,-0.267826 0.67373,-0.559811 0,-0.272815 -0.6206,-0.261676 -0.6199,-0.534505 7.3e-4,-0.272936 0.61729,-0.258461 0.62305,-0.531346 0.009,-0.29907 -0.66385,-0.311332 -0.65785,-0.610417 0.009,-0.278842 0.63502,-0.265102 0.63566,-0.544 6.4e-4,-0.266112 -0.59964,-0.255799 -0.60408,-0.521856 -0.009,-0.284229 0.63551,-0.294664 0.62627,-0.578785 -0.009,-0.286156 -0.64456,-0.255401 -0.66733,-0.540832 -0.0389,-0.489697 0.9891,-0.606265 0.9836,-1.097483 -0.009,-0.484045 -1.02984,-0.576847 -0.99315,-1.059524 0.0214,-0.299468 0.69842,-0.256472 0.70846,-0.556648 0.009,-0.283494 -0.64879,-0.286126 -0.63251,-0.569304 0.0153,-0.254361 0.60644,-0.188537 0.62303,-0.442782 0.0184,-0.299988 -0.66838,-0.313036 -0.661,-0.613575 0.009,-0.284994 0.66084,-0.265316 0.65469,-0.550325 -0.009,-0.276578 -0.65081,-0.229482 -0.65785,-0.506041 -0.009,-0.293776 0.67493,-0.278628 0.67049,-0.572463 -0.009,-0.308183 -0.7211,-0.578791 -0.7211,-0.578791 v -1.017869 l 1.80366,-4.007659 h 0.52782 v 15.999319 h -0.53673 v 21.670862 h 0.57253 z"
     id="profile_right"
     sodipodi:nodetypes="cccccccccccccccccccccccscccccccccccccssssssssssssssssssssssssssssssssssssssssssssssssssssssssssssssssccccccccc"
     inkscape:label="profile_right" />
</svg>
