<?xml version="1.0" encoding="UTF-8" standalone="no"?>
<!-- Created with Inkscape (http://www.inkscape.org/) -->

<svg
   width="210mm"
   height="297mm"
   viewBox="0 0 210 297"
   version="1.1"
   id="svg1"
   inkscape:version="1.4 (86a8ad7, 2024-10-11)"
   sodipodi:docname="DSHM-15-020-V1_038.svg"
   xmlns:inkscape="http://www.inkscape.org/namespaces/inkscape"
   xmlns:sodipodi="http://sodipodi.sourceforge.net/DTD/sodipodi-0.dtd"
   xmlns="http://www.w3.org/2000/svg"
   xmlns:svg="http://www.w3.org/2000/svg">
  <sodipodi:namedview
     id="namedview1"
     pagecolor="#ffffff"
     bordercolor="#000000"
     borderopacity="0.25"
     inkscape:showpageshadow="2"
     inkscape:pageopacity="0.0"
     inkscape:pagecheckerboard="0"
     inkscape:deskcolor="#d1d1d1"
     inkscape:document-units="mm"
     inkscape:zoom="0.74016558"
     inkscape:cx="396.5329"
     inkscape:cy="-226.30072"
     inkscape:window-width="2560"
     inkscape:window-height="1377"
     inkscape:window-x="-8"
     inkscape:window-y="-8"
     inkscape:window-maximized="1"
     inkscape:current-layer="svg1" />
  <defs
     id="defs1" />
  <rect
     style="fill:#b8b8b8;fill-opacity:1;fill-rule:evenodd;stroke:#b81e1e;stroke-width:0.0468567"
     id="concrete_right"
     width="85.317345"
     height="53.51355"
     x="113.11637"
     y="15.583817" />
  <rect
     style="fill:#b8b8b8;fill-opacity:1;fill-rule:evenodd;stroke:#b81e1e;stroke-width:0.0461165"
     id="concrete_left"
     width="82.631218"
     height="53.521351"
     x="11.404057"
     y="15.446713" />
  <rect
     style="fill:#a39a9a;fill-rule:evenodd;stroke:#b81e1e;stroke-width:0.0229589"
     id="finish_right"
     width="74.359184"
     height="10.625452"
     x="124.24834"
     y="5.0765085" />
  <rect
     style="fill:#a39a9a;fill-rule:evenodd;stroke:#b81e1e;stroke-width:0.0222428"
     id="finish_left"
     width="71.441818"
     height="10.379756"
     x="11.507411"
     y="5.1210098" />
  <rect
     style="fill:#a39a9a;fill-rule:evenodd;stroke:#b81e1e;stroke-width:0.0350057"
     id="cover_right"
     width="74.346153"
     height="4.9649944"
     x="124.23598"
     y="0.017502852" />
  <rect
     style="fill:#a39a9a;fill-rule:evenodd;stroke:#b81e1e;stroke-width:0.0343056"
     id="cover_left"
     width="71.391769"
     height="4.965694"
     x="11.553954"
     y="0.049657814" />
  <rect
     style="fill:#404242;fill-opacity:0.341246;fill-rule:evenodd;stroke:#b81e1e;stroke-width:0.0198777"
     id="shadow"
     width="137.48599"
     height="0.01261392"
     x="41.560604"
     y="68.768585"
     inkscape:label="shadow" />
  <ellipse
     style="opacity:0;fill:none;fill-opacity:0;fill-rule:evenodd;stroke-width:0.00368993;stroke-opacity:0"
     id="bolt_left"
     cx="-54.578548"
     cy="-13.635864"
     rx="0.094999999"
     ry="0.028942173"
     inkscape:label="bolt_left"
     transform="scale(-1)" />
  <ellipse
     style="opacity:0;fill:none;fill-opacity:0;fill-rule:evenodd;stroke-width:0.000191947;stroke-opacity:0"
     id="bolt_right"
     cx="152.62247"
     cy="13.659428"
     rx="0.0049418169"
     ry="0.0015055466"
     inkscape:label="bolt_right" />
  <path
     style="fill:#5e5e5e;fill-rule:evenodd;stroke:#000000;stroke-width:0.0291282"
     d="m 35.856312,13.477631 h 18.627222 27.320015 c 0.643234,-0.04594 1.023835,-0.398324 1.161638,-1.033969 V 0.02338935 h 1.965791 V 4.6474854 h 1.049919 c 0.322241,-0.0089 0.463658,0.1113 0.491453,0.312733 v 1.228629 h -1.429699 v 6.7462646 c 0.01191,0.367506 0.189639,0.569911 0.580824,0.558466 h 6.478243 c 0.5655,0.06303 0.5925,-0.277883 0.67007,-0.580802 V 6.2111894 h -1.58597 v -1.139275 c 0.23767,-0.467918 0.47518,-0.381849 0.7128,-0.411552 h 2.3252 v 8.2524136 c 0,2.004975 -1.09704,2.499836 -2.34554,2.591277 H 35.80892 Z"
     id="profile_left"
     sodipodi:nodetypes="cccccccccccccccccccccccc"
     inkscape:label="profile_left" />
  <path
     style="fill:#5e5e5e;fill-rule:evenodd;stroke:#000000;stroke-width:0.0291098"
     d="m 171.23263,13.513818 h -18.6151 -27.3032 c -0.64284,-0.04599 -1.02316,-0.398076 -1.16084,-1.033314 V 0.06806335 h -1.96463 V 4.6892434 h -1.04923 c -0.32204,-0.009 -0.46337,0.111229 -0.49116,0.312536 v 1.227855 h 1.4288 v 6.7420146 c -0.0119,0.367278 -0.18952,0.569532 -0.58043,0.558121 h -6.47418 c -0.56516,0.06288 -0.59213,-0.277706 -0.66968,-0.580448 V 6.2519614 h 1.58507 v -1.138557 c -0.23754,-0.467622 -0.47493,-0.381608 -0.71244,-0.411292 h -2.32377 v 8.2472096 c 0,2.00371 1.0964,2.498255 2.3441,2.589631 h 56.03405 z"
     id="profile_right"
     sodipodi:nodetypes="cccccccccccccccccccccccc"
     inkscape:label="profile_right" />
  <path
     id="compensator"
     style="display:inline;fill:#5e5e5e;fill-rule:evenodd;stroke:#000000;stroke-width:0.0301216"
     d="m 84.590574,0.01506088 -0.0374,0.03118 0.70669,4.61369392 0.0343,0.01235 h 1.17055 c 0.14639,-0.01355 0.2479,0.06654 0.28646,0.277089 v 1.19545 l -1.22348,0.834319 c 0,0 -0.11898,0.104974 -0.13706,0.177446 -0.0211,0.07859 0.0404,0.239708 0.0404,0.239708 l 2.55901,3.8696462 c 0,0 1.98745,0.01928 1.99865,0 0.0121,-0.01928 2.58702,-3.8634232 2.58702,-3.8634232 0,0 0.056,-0.158952 0.0374,-0.236605 -0.0181,-0.08097 -0.1464,-0.202357 -0.1464,-0.202357 l -1.20793,-0.834253 v -1.186109 c 0,0 0.0434,-0.149644 0.0964,-0.202357 0.0416,-0.04121 0.15874,-0.07467 0.15874,-0.07467 h 2.47807 c 0,0 0.27109,0.07389 0.35179,0.177446 0.0786,0.100636 0.084,0.373577 0.084,0.373577 l -0.78765,6.0177302 0.0313,0.03118 h 3.19099 l 0.0343,-0.03118 c 0,0 0.74403,-5.5881092 0.74403,-5.6130142 0,-0.025 -0.0467,-0.392258 -0.0467,-0.47943 0,-0.08717 0.003,-0.507446 -0.003,-0.519895 -0.006,-0.01235 -0.0777,-0.551029 -0.0777,-0.551029 l 0.0374,-0.616399 0.45144,-0.317542 0.53544,0.130758 0.28947,0.457634 c 0,0 0.21567,2.177025 0.66309,3.15362 0.514326,1.122725 1.140856,2.3974132 2.247696,2.9450412 1.08917,0.538869 2.55928,0.544758 3.64552,0 1.10091,-0.55214 1.70621,-1.8369372 2.21032,-2.9606042 0.44224,-0.985807 0.65066,-3.17542 0.65066,-3.17542 l 0.34398,-0.426494 0.54171,-0.110516 0.40938,0.339331 0.0389,0.594609 -0.0343,0.55881 -0.053,0.168108 0.009,0.554141 -0.012,0.270853 0.6911,5.6161232 0.0211,0.0033 h 3.23144 l 0.0181,-0.03118 -0.79696,-6.0270622 c 0,0 0.0464,-0.278474 0.13705,-0.376695 0.0828,-0.08976 0.33312,-0.152535 0.33312,-0.152535 h 2.47494 c 0,0 0.14458,0.0253 0.18675,0.07786 0.0443,0.05506 0.0374,0.208592 0.0374,0.208592 v 1.189227 l -1.21411,0.828096 c 0,0 -0.13073,0.109281 -0.1494,0.186784 -0.0211,0.0813 0.0497,0.245943 0.0497,0.245943 l 2.58078,3.8478532 h 2.0111 l 2.52789,-3.8540762 c 0,0 0.0726,-0.153078 0.056,-0.23037 -0.0181,-0.08973 -0.16808,-0.21793 -0.16808,-0.2179 l -1.19233,-0.821879 v -1.186109 c 0,0 0.0404,-0.154584 0.0964,-0.205459 0.0548,-0.04964 0.20844,-0.07467 0.20844,-0.07467 h 1.17366 l 0.71912,-4.60746192 -0.0313,-0.04048 h -9.51688 l -0.0374,0.01235 -0.081,0.41404797 -0.10904,0.09338 h -0.15573 l -0.0717,-0.112082 -0.13706,-0.40782197 h -3.44003 c 0,0 -1.53322,0.32029397 -2.11071,0.80319097 -0.59457,0.49717195 -0.91862,1.26969995 -1.19856,1.99241595 -0.42204,1.089486 -0.20693,2.37221 -0.68801,3.43692 -0.17621,0.389996 -0.39477,0.831205 -0.77831,1.021113 -0.3654,0.18094 -0.85659,0.17841 -1.22323,0 -0.39613,-0.192748 -0.63054,-0.640123 -0.81567,-1.039872 -0.49498,-1.068895 -0.28133,-2.36455 -0.70978,-3.461819 -0.27923,-0.715502 -0.59725,-1.484286 -1.18923,-1.97374295 -0.577906,-0.47784 -2.110706,-0.77828497 -2.110706,-0.77828497 h -3.41202 l -0.15242,0.42961197 -0.0747,0.102745 h -0.12771 l -0.081,-0.124523 -0.14007,-0.40782197 z M 118.07874,5.5408998 c 0.37052,0.0244 0.53161,0.263715 0.57903,0.619523 v 2.266374 c -0.056,0.315765 -0.21688,0.540725 -0.57903,0.591491 -0.34818,-0.05801 -0.56264,-0.229677 -0.57906,-0.569704 v -2.294387 c 0.0548,-0.310403 0.17079,-0.574088 0.57906,-0.613297 z m -29.061256,0.0016 c 0.41026,0.02982 0.52276,0.300643 0.57282,0.621067 v 2.253926 c -0.0599,0.297601 -0.18795,0.546122 -0.58529,0.59928 -0.45179,-0.02711 -0.50987,-0.316611 -0.58526,-0.594609 v -2.258597 c 0.0563,-0.424973 0.2717,-0.606721 0.59773,-0.621067 z"
     inkscape:label="compensator"
     sodipodi:nodetypes="cccccccccccccccccsccscccccssccccccssssccccccccccccccsccsccccccccccccsccccccccccccsssssssscccccccccccccccccccccc">
    <title
       id="title7">rubber</title>
  </path>
</svg>
