<?xml version="1.0" encoding="UTF-8" standalone="no"?>
<!-- Created with Inkscape (http://www.inkscape.org/) -->

<svg
   width="210mm"
   height="297mm"
   viewBox="0 0 210 297"
   version="1.1"
   id="svg1"
   inkscape:version="1.4 (86a8ad7, 2024-10-11)"
   sodipodi:docname="DSHM-15-040-V2_049-corner.svg"
   xmlns:inkscape="http://www.inkscape.org/namespaces/inkscape"
   xmlns:sodipodi="http://sodipodi.sourceforge.net/DTD/sodipodi-0.dtd"
   xmlns="http://www.w3.org/2000/svg"
   xmlns:svg="http://www.w3.org/2000/svg">
  <sodipodi:namedview
     id="namedview1"
     pagecolor="#ffffff"
     bordercolor="#000000"
     borderopacity="0.25"
     inkscape:showpageshadow="2"
     inkscape:pageopacity="0.0"
     inkscape:pagecheckerboard="0"
     inkscape:deskcolor="#d1d1d1"
     inkscape:document-units="mm"
     inkscape:zoom="4.1870089"
     inkscape:cx="448.17196"
     inkscape:cy="266.89697"
     inkscape:window-width="2560"
     inkscape:window-height="1377"
     inkscape:window-x="-8"
     inkscape:window-y="-8"
     inkscape:window-maximized="1"
     inkscape:current-layer="svg1" />
  <defs
     id="defs1" />
  <path
     id="compensator"
     style="display:inline;fill:#5e5e5e;fill-rule:evenodd;stroke:#000000;stroke-width:0.0301192"
     d="m 153.49928,60.05606 -48.89442,0.0033 -0.0388,0.03888 0.70509,4.505925 0.0241,0.025 h 0.75021 c 0,0 0.1515,-0.04837 0.20542,-0.102706 0.0497,-0.05006 0.0934,-0.189902 0.0934,-0.189902 l 0.003,-0.270831 c 0,0 0.0994,-0.171951 0.18372,-0.17433 0.0979,-0.0024 0.22409,0.189901 0.22409,0.189901 v 1.982921 l -1.47864,1.036604 -0.009,0.04668 2.77359,4.037442 h 1.9985 l 2.73624,-4.053004 -0.0241,-0.04358 -1.46927,-1.033479 0.0121,-1.98915 c 0,0 0.11957,-0.177673 0.21173,-0.177432 0.0979,2.56e-4 0.22409,0.189901 0.22409,0.189901 v 0.267699 c 0,0 0.009,0.129393 0.0467,0.177433 0.0488,0.06198 0.20843,0.112073 0.20843,0.112073 h 2.22572 c 0,0 0.23463,0.04415 0.31751,0.121411 0.0988,0.09207 0.17108,0.367324 0.17108,0.367324 l -0.83114,4.837453 c 0,0 0.0885,0.59492 0.27409,0.812465 0.18643,0.218695 0.76264,0.40157 0.76264,0.40157 h 2.84832 c 0,0 0.31833,-0.06042 0.47007,-0.115176 0.16264,-0.05882 0.4669,-0.227249 0.4669,-0.227249 l 9.46948,-7.514555 c 0,0 0.58193,-0.352614 0.90586,-0.351753 0.32234,7.95e-4 0.89963,0.354868 0.89963,0.354868 l 9.50369,7.508323 c 0.29246,0.222038 0.58522,0.294294 0.87783,0.354876 h 2.86078 c 0,0 0.61816,-0.173878 0.80933,-0.40779 0.17981,-0.21987 0.22409,-0.821808 0.22409,-0.821808 l -0.78455,-4.840838 c 0,0 0.0365,-0.281373 0.13072,-0.37355 0.0819,-0.08003 0.32685,-0.105839 0.32685,-0.105839 h 2.21638 c 0,0 0.14488,-0.04488 0.19608,-0.0965 0.0554,-0.05563 0.10271,-0.211677 0.10271,-0.211677 v -0.26773 c 0,0 0.0991,-0.164059 0.18071,-0.164993 0.0979,-7.98e-4 0.22108,0.193004 0.22108,0.193004 v 1.976689 l -1.48485,1.045934 -0.003,0.04358 2.7269,4.024984 h 2.0016 l 2.76738,-4.034324 -0.0181,-0.05292 -1.47554,-1.039715 v -1.97981 c 0,0 0.1265,-0.180594 0.22108,-0.177432 0.0873,0.0033 0.19306,0.177462 0.19306,0.177432 l -0.003,0.273934 c 0,0 0.0464,0.137705 0.0964,0.186769 0.0536,0.05268 0.2024,0.09961 0.2024,0.09961 h 0.75645 l 0.0343,-0.02801 0.68795,-4.495031 z m -35.59297,2.756481 6.14953,0.02651 c 0.64964,0.08057 0.52266,0.441572 0.34242,0.821805 l -6.57134,5.245243 c -0.4002,0.121892 -0.75395,0.215382 -1.13465,-0.08873 -0.28071,-0.224208 -0.35936,-0.536306 -0.40468,-0.905856 l 0.68641,-4.305144 c 0.13945,-0.417696 0.35146,-0.771003 0.93231,-0.793789 z m 22.29619,0.0016 c 0.58084,0.02289 0.79282,0.374535 0.9323,0.792231 l 0.68639,4.305147 c -0.0455,0.369547 -0.12409,0.683199 -0.40468,0.907416 -0.38068,0.304098 -0.73599,0.209057 -1.13619,0.08716 l -6.56981,-5.245252 c -0.18011,-0.380233 -0.30721,-0.741239 0.34243,-0.821805 z m -31.18355,2.680207 c 0.31375,0.02952 0.53594,0.201227 0.6257,0.579 v 2.303555 c -0.0651,0.365529 -0.31439,0.516423 -0.62724,0.593007 -0.43871,-0.03021 -0.50877,-0.3008 -0.57434,-0.574331 v -2.312892 c 0.0735,-0.276102 0.1759,-0.532715 0.57588,-0.588339 z m 40.07244,0 c 0.38333,0.08066 0.52034,0.312905 0.58212,0.591454 v 2.297323 c -0.0437,0.339257 -0.24277,0.522911 -0.56034,0.588336 -0.35062,-0.02922 -0.55727,-0.210382 -0.60079,-0.563433 v -2.331563 c 0.059,-0.336486 0.25451,-0.527848 0.57901,-0.582117 z"
     inkscape:label="compensator">
    <title
       id="title2">rubber</title>
  </path>
  <rect
     style="fill:#b8b8b8;fill-opacity:1;fill-rule:evenodd;stroke:#b81e1e;stroke-width:0.0461934"
     id="concrete_left"
     width="82.631142"
     height="53.700008"
     x="31.629076"
     y="75.426521" />
  <rect
     style="fill:#a39a9a;fill-rule:evenodd;stroke:#b81e1e;stroke-width:0.0219941"
     id="finish_left"
     width="71.44207"
     height="10.148922"
     x="31.732267"
     y="65.153008" />
  <rect
     style="fill:#a39a9a;fill-rule:evenodd;stroke:#b81e1e;stroke-width:0.0343056"
     id="cover_left"
     width="71.391769"
     height="4.965694"
     x="31.778936"
     y="60.081779" />
  <rect
     style="fill:#404242;fill-opacity:0.341246;fill-rule:evenodd;stroke:#b81e1e;stroke-width:0.0183765"
     id="shadow"
     width="105.00706"
     height="0.014115104"
     x="61.784855"
     y="128.79996"
     inkscape:label="shadow" />
  <ellipse
     style="opacity:0;fill:none;fill-opacity:0;fill-rule:evenodd;stroke-width:0.00368993;stroke-opacity:0"
     id="bolt_left"
     cx="-74.803566"
     cy="-73.667984"
     rx="0.094999999"
     ry="0.028942173"
     inkscape:label="bolt_left"
     transform="scale(-1)" />
  <path
     style="fill:#5e5e5e;fill-rule:evenodd;stroke:#000000;stroke-width:0.0291282"
     d="m 56.081279,73.509751 h 18.627222 27.320019 c 0.64322,-0.04594 1.02382,-0.398324 1.16163,-1.033969 V 60.055509 h 1.96579 v 4.624096 h 1.04992 c 0.32224,-0.0089 0.46366,0.1113 0.49145,0.312733 v 1.228629 h -1.4297 v 6.746265 c 0.0119,0.367506 0.18964,0.569911 0.58083,0.558466 h 6.47824 c 0.5655,0.06303 0.5925,-0.277883 0.67007,-0.580802 v -6.701587 h -1.58597 v -1.139275 c 0.23767,-0.467918 0.47518,-0.381849 0.7128,-0.411552 h 2.3252 v 8.252414 c 0,2.004975 -1.09704,2.499836 -2.34554,2.591277 H 56.033887 Z"
     id="profile_left"
     sodipodi:nodetypes="cccccccccccccccccccccccc"
     inkscape:label="profile_left" />
  <ellipse
     style="opacity:0;fill:none;fill-opacity:0;fill-rule:evenodd;stroke-width:0.000191947;stroke-opacity:0"
     id="screw_right"
     cx="153.83792"
     cy="26.892506"
     rx="0.0049418169"
     ry="0.0015055466"
     inkscape:label="screw_right" />
  <rect
     style="fill:#e1ecec;fill-opacity:0.77;fill-rule:evenodd;stroke:#b81e1e;stroke-width:0.00931009"
     id="finish_right"
     width="75.343964"
     height="2.0344629"
     x="-75.348618"
     y="155.40326"
     inkscape:label="finish_right"
     transform="rotate(-90)" />
  <rect
     style="fill:#e1ecec;fill-opacity:0.77;fill-rule:evenodd;stroke:#b81e1e;stroke-width:0.0106846"
     id="cover_right"
     width="75.317711"
     height="0.12763681"
     x="-75.330757"
     y="155.22769"
     inkscape:label="cover_right"
     transform="rotate(-90)" />
  <path
     style="fill:#e1ecec;fill-opacity:0.77;fill-rule:evenodd;stroke:#b81e1e;stroke-width:0.0105622"
     d="m 157.45093,0.01350091 20.93781,-6e-6 V 129.06766 H 155.20659 V 75.496163 h 2.23324 z"
     id="concrete_right"
     inkscape:label="concrete_right"
     sodipodi:nodetypes="ccccccc" />
  <path
     style="fill:#5e5e5e;fill-rule:evenodd;stroke:#000000;stroke-width:0.0306016"
     d="m 155.09853,86.007456 h -1.87527 v -4.62998 c 0.0245,-0.17229 -0.0919,-0.2494 -0.19921,-0.3319 h -0.82977 c -0.48271,0.0701 -0.5509,-0.22829 -0.61405,-0.53103 v -1.07868 h 1.67611 v -4.91209 c -0.0309,-0.30356 -0.23074,-0.46594 -0.54759,-0.53103 h -7.03627 c -0.2647,0.0407 -0.459,0.26195 -0.60573,0.60573 v 4.854 h 1.61807 v 1.07865 c 0,0.29959 -0.22891,0.47149 -0.56426,0.58082 h -2.68836 v -7.13578 h -3.76707 V 71.80222 h 3.81688 v -7.069414 h 2.58876 c 0,0 0.33382,0.09181 0.44895,0.21054 0.11445,0.117817 0.19615,0.452293 0.19615,0.452293 v 1.027878 h -1.65719 v 4.837789 c 0.0428,0.283983 0.17473,0.506823 0.53623,0.572523 h 7.06388 c 0.38273,-0.0092 0.58305,-0.202578 0.59461,-0.583909 v -4.851712 h -1.72055 v -1.056339 c 0.13771,-0.365536 0.3515,-0.579009 0.65785,-0.607261 h 1.03104 v -7.097289 c 0,0 -0.447,-0.144134 -0.44596,-0.328937 0,-0.283371 0.67656,-0.213599 0.68951,-0.496572 0.0122,-0.28735 -0.65219,-0.278475 -0.65154,-0.566131 6.4e-4,-0.2797 0.6355,-0.267459 0.63574,-0.547158 2.6e-4,-0.285514 -0.65906,-0.274497 -0.64839,-0.559797 0.009,-0.27266 0.63601,-0.21513 0.65789,-0.487087 0.0245,-0.302344 -0.66669,-0.349655 -0.63576,-0.651509 0.0276,-0.260726 0.63373,-0.178102 0.65155,-0.439624 0.0184,-0.279393 -0.62621,-0.572465 -0.62621,-0.559826 0,0.01224 0.6363,-0.265929 0.63251,-0.543976 -0.009,-0.298978 -0.70562,-0.267152 -0.69582,-0.56613 0.009,-0.276639 0.66158,-0.20442 0.67688,-0.480752 0.0152,-0.298978 -0.67924,-0.298367 -0.67049,-0.597773 0.009,-0.29041 0.68887,-0.250628 0.68313,-0.540823 -0.009,-0.270213 -0.63275,-0.208397 -0.65473,-0.477601 -0.0245,-0.300814 0.64903,-0.343534 0.63578,-0.645174 -0.0122,-0.287656 -0.67761,-0.272661 -0.65787,-0.559828 0.0184,-0.258278 0.62565,-0.160352 0.65469,-0.417467 0.0349,-0.304486 -0.66892,-0.349227 -0.64521,-0.654723 0.0214,-0.287962 0.69647,-0.226758 0.69582,-0.515515 -6.4e-4,-0.290411 -0.6968,-0.225229 -0.70216,-0.515516 -0.009,-0.29194 0.68313,-0.252158 0.68629,-0.544006 0,-0.295612 -0.6912,-0.270518 -0.68309,-0.56613 0.009,-0.278169 0.65936,-0.218802 0.67048,-0.496574 0.0122,-0.29653 -0.68168,-0.288573 -0.67048,-0.585104 0.009,-0.286737 0.67531,-0.228901 0.68942,-0.515545 0.0153,-0.280924 -0.62182,-0.287963 -0.62306,-0.569284 0,-0.264704 0.5905,-0.276027 0.58199,-0.540854 -0.009,-0.273273 -0.63664,-0.245119 -0.63574,-0.518667 0,-0.291022 0.67632,-0.256136 0.67996,-0.547158 0,-0.296837 -0.68336,-0.278781 -0.67996,-0.575648 0,-0.268376 0.62457,-0.237774 0.62619,-0.50603 0,-0.287349 -0.66595,-0.262867 -0.66418,-0.550309 0,-0.296836 0.69487,-0.262868 0.6927,-0.559826 0,-0.273273 -0.63682,-0.232879 -0.64523,-0.50603 -0.009,-0.280617 0.63137,-0.279087 0.62944,-0.559826 0,-0.290104 -0.66579,-0.279394 -0.65787,-0.569283 0.009,-0.294388 0.69867,-0.246344 0.69891,-0.540854 2.5e-4,-0.298978 -0.70837,-0.25124 -0.70846,-0.55031 -9e-5,-0.288512 0.6849,-0.242977 0.68321,-0.531343 0,-0.285911 -0.6778,-0.232817 -0.68321,-0.518698 -0.009,-0.304059 0.70531,-0.274649 0.70531,-0.578783 0,-0.289156 -0.67501,-0.261217 -0.67049,-0.550326 0.009,-0.283371 0.65889,-0.235663 0.67364,-0.518689 0.0184,-0.322444 -0.73364,-0.346013 -0.70207,-0.667346 0.0276,-0.270702 0.6815,-0.164575 0.68943,-0.436459 0.009,-0.285453 -0.68578,-0.214335 -0.69582,-0.499722 -0.009,-0.291787 0.67107,-0.267826 0.67373,-0.559811 0,-0.272815 -0.6206,-0.261676 -0.6199,-0.534505 7.3e-4,-0.272936 0.61729,-0.258461 0.62305,-0.531346 0.009,-0.29907 -0.66385,-0.311332 -0.65785,-0.610417 0.009,-0.278842 0.63502,-0.265102 0.63566,-0.544 6.4e-4,-0.266112 -0.59964,-0.255799 -0.60408,-0.521856 -0.009,-0.284229 0.63551,-0.294664 0.62627,-0.578785 -0.009,-0.286156 -0.64456,-0.255401 -0.66733,-0.540832 -0.0389,-0.489697 0.9891,-0.606265 0.9836,-1.097483 -0.009,-0.484045 -1.02984,-0.576847 -0.99315,-1.059524 0.0214,-0.299468 0.69842,-0.256472 0.70846,-0.556648 0.009,-0.283494 -0.64879,-0.286126 -0.63251,-0.569304 0.0153,-0.254361 0.60644,-0.188537 0.62303,-0.442782 0.0184,-0.299988 -0.66838,-0.313036 -0.661,-0.613575 0.009,-0.284994 0.66084,-0.265316 0.65469,-0.550325 -0.009,-0.276578 -0.65081,-0.229482 -0.65785,-0.506041 -0.009,-0.293776 0.67493,-0.278628 0.67049,-0.572463 -0.009,-0.308183 -0.7211,-0.578791 -0.7211,-0.578791 v -1.017869 l 1.80366,-4.007659 h 0.52782 v 15.999319 h -0.53673 v 21.670862 h 0.57253 z"
     id="profile_right"
     sodipodi:nodetypes="cccccccccccccccccccccccscccccccccccccssssssssssssssssssssssssssssssssssssssssssssssssssssssssssssssssccccccccc"
     inkscape:label="profile_right" />
</svg>
