<?xml version="1.0" encoding="UTF-8" standalone="no"?>
<!-- Created with Inkscape (http://www.inkscape.org/) -->

<svg
   width="210mm"
   height="297mm"
   viewBox="0 0 210 297"
   version="1.1"
   id="svg1"
   inkscape:version="1.4 (86a8ad7, 2024-10-11)"
   sodipodi:docname="DSHM-15-030-V1_038.svg"
   xmlns:inkscape="http://www.inkscape.org/namespaces/inkscape"
   xmlns:sodipodi="http://sodipodi.sourceforge.net/DTD/sodipodi-0.dtd"
   xmlns="http://www.w3.org/2000/svg"
   xmlns:svg="http://www.w3.org/2000/svg">
  <sodipodi:namedview
     id="namedview1"
     pagecolor="#ffffff"
     bordercolor="#000000"
     borderopacity="0.25"
     inkscape:showpageshadow="2"
     inkscape:pageopacity="0.0"
     inkscape:pagecheckerboard="0"
     inkscape:deskcolor="#d1d1d1"
     inkscape:document-units="mm"
     inkscape:zoom="1.4803312"
     inkscape:cx="340.1266"
     inkscape:cy="139.49581"
     inkscape:window-width="2560"
     inkscape:window-height="1377"
     inkscape:window-x="-8"
     inkscape:window-y="-8"
     inkscape:window-maximized="1"
     inkscape:current-layer="svg1" />
  <defs
     id="defs1" />
  <path
     id="compensator"
     style="display:inline;fill:#5e5e5e;fill-rule:evenodd;stroke:#000000;stroke-width:0.0299637"
     d="m 90.437808,0.01508489 -0.021,0.03101 -0.12705,0.343746 -0.065,0.102207 h -0.15791 l -0.10218,-0.114582 -0.0836,-0.359237 h -10.58497 l -0.0401,0.03719 0.73704,4.57092001 0.0401,0.02787 h 1.16754 c 0,0 0.13993,0.02757 0.18877,0.07428 0.0524,0.04995 0.0899,0.19821 0.0899,0.19821 v 1.241823 l -1.24805,0.8082821 c 0,0 -0.13663,0.147661 -0.15161,0.241538 -0.012,0.08081 0.0587,0.23845 0.0587,0.23845 l 2.57349,3.830788 h 2.03771 l 2.52701,-3.843172 c 0,0 0.0596,-0.15647 0.0464,-0.235364 -0.015,-0.09169 -0.13933,-0.241537 -0.13933,-0.241537 l -1.20158,-0.8113751 v -1.241832 c 0,0 0.0318,-0.14865 0.0836,-0.19818 0.0518,-0.04938 0.20136,-0.07428 0.20136,-0.07428 h 2.44959 c 0,0 0.25768,0.07287 0.33754,0.170343 0.0908,0.110986 0.11446,0.41497 0.11446,0.41497 l -0.79278,6.0388231 0.027,0.02157 h 4.01968 l 0.027,-0.03101 0.95384,-7.2992321 c 0,0 0.13483,-0.442243 0.29724,-0.591492 0.15551,-0.142867 0.3773,-0.226945 0.58839,-0.235365 0.34126,-0.01378 0.71281,0.08902 0.97859,0.303487 0.26667,0.215109 0.50479,0.894985 0.50479,0.894985 0,0 0.775971,5.3352731 1.675391,7.8582111 0.39244,1.100854 0.80947,2.260124 1.60261,3.118509 0.78742,0.8522 1.844471,1.513036 2.960561,1.830232 1.12903,0.320866 2.3935,0.325852 3.52109,0 1.10428,-0.319113 2.14238,-0.988957 2.91724,-1.837969 0.79748,-0.873822 1.21781,-2.047948 1.61189,-3.163418 0.89559,-2.534975 1.65579,-7.8294101 1.66454,-7.8907251 0.009,-0.06127 0.22293,-0.657277 0.48155,-0.859376 0.26967,-0.210704 0.64844,-0.298648 0.98946,-0.270961 0.23041,0.01858 0.462,0.130821 0.63019,0.289539 0.1585,0.149698 0.30659,0.577562 0.30659,0.577562 l 0.92905,7.2868421 h 4.06457 l -0.80668,-6.0697991 c 0,0 -0.015,-0.317114 0.0788,-0.428906 0.0839,-0.100858 0.36853,-0.140919 0.36853,-0.140919 h 2.50532 c 0,0 0.12944,0.04489 0.17199,0.09445 0.0515,0.05993 0.0806,0.222989 0.0806,0.222989 v 1.21705 l -1.22323,0.8299551 c 0,0 -0.15492,0.126177 -0.1702,0.216757 -0.015,0.08818 0.0866,0.253942 0.0866,0.253942 l 2.57654,3.830778 h 1.9851 l 2.52701,-3.833879 c 0,0 0.10428,-0.163812 0.0959,-0.253942 -0.009,-0.09133 -0.14233,-0.235365 -0.14233,-0.235365 l -1.24493,-0.8206541 v -1.248026 c 0,0 0.0342,-0.145414 0.0866,-0.192007 0.0566,-0.05025 0.21693,-0.06811 0.21693,-0.06811 h 1.13344 l 0.0371,-0.02787 0.73393,-4.56163401 -0.024,-0.03719 h -10.56956 l -0.11447,0.371627 -0.10517,0.102176 h -0.15491 l -0.0557,-0.108378 -0.14862,-0.365428 h -3.93917 c 0,0 -2.03444,0.375583 -2.79953,1.00647701 -0.78961,0.651116 -1.19852,1.68489 -1.5701,2.638496 -0.97331,2.497973 -0.52239,5.4387701 -1.64749,7.8721471 -0.42333,0.915546 -0.94916,1.947067 -1.85502,2.390751 -0.90203,0.441814 -2.11352,0.44654 -3.01321,0 -0.91135,-0.452326 -1.42367,-1.505243 -1.8457,-2.431007 -1.111151,-2.437344 -0.666131,-5.3723281 -1.644441,-7.8659571 -0.37002,-0.943181 -0.78385,-1.961614 -1.56698,-2.60443 C 96.404318,0.39290189 94.373618,0.01498189 94.373618,0.01498189 Z M 123.76283,5.5491239 c 0.41149,-0.01708 0.51804,0.285104 0.57908,0.634858 V 8.419893 c 0,0.24765 -0.33332,0.641121 -0.5605,0.637948 -0.34216,-0.0039 -0.58531,-0.424307 -0.58531,-0.625567 V 6.1746909 c 0.0587,-0.394011 0.23551,-0.619224 0.56673,-0.625567 z m -40.029662,0.0033 c 0.44241,-0.01288 0.52556,0.28076 0.57758,0.600784 V 8.434031 c -0.0339,0.383043 -0.23731,0.577981 -0.57447,0.622456 -0.45604,0.01139 -0.57071,-0.278632 -0.63487,-0.613173 V 6.1702449 c 0.0602,-0.373048 0.26788,-0.583492 0.63176,-0.617821 z"
     inkscape:label="compensator">
    <title
       id="title6">rubber</title>
  </path>
  <rect
     style="fill:#b8b8b8;fill-opacity:1;fill-rule:evenodd;stroke:#b81e1e;stroke-width:0.0472555"
     id="concrete_right"
     width="85.31694"
     height="54.428497"
     x="118.46658"
     y="15.584017" />
  <rect
     style="fill:#b8b8b8;fill-opacity:1;fill-rule:evenodd;stroke:#b81e1e;stroke-width:0.0463561"
     id="concrete_left"
     width="82.630981"
     height="54.078995"
     x="6.0541778"
     y="15.568178" />
  <rect
     style="fill:#a39a9a;fill-rule:evenodd;stroke:#b81e1e;stroke-width:0.0229589"
     id="finish_right"
     width="74.359184"
     height="10.625452"
     x="129.59834"
     y="5.0765085" />
  <rect
     style="fill:#a39a9a;fill-rule:evenodd;stroke:#b81e1e;stroke-width:0.0223382"
     id="finish_left"
     width="71.441727"
     height="10.469027"
     x="6.1574612"
     y="5.121232" />
  <rect
     style="fill:#a39a9a;fill-rule:evenodd;stroke:#b81e1e;stroke-width:0.0350057"
     id="cover_right"
     width="74.346153"
     height="4.9649944"
     x="129.58598"
     y="0.01750285" />
  <rect
     style="fill:#a39a9a;fill-rule:evenodd;stroke:#b81e1e;stroke-width:0.0343056"
     id="cover_left"
     width="71.391769"
     height="4.965694"
     x="6.2039561"
     y="0.049832564" />
  <rect
     style="fill:#404242;fill-opacity:0.341246;fill-rule:evenodd;stroke:#b81e1e;stroke-width:0.0198777"
     id="shadow"
     width="137.48599"
     height="0.01261392"
     x="36.210629"
     y="69.568939"
     inkscape:label="shadow" />
  <ellipse
     style="opacity:0;fill:none;fill-opacity:0;fill-rule:evenodd;stroke-width:0.00368993;stroke-opacity:0"
     id="bolt_left"
     cx="-49.228577"
     cy="-13.63604"
     rx="0.094999999"
     ry="0.028942173"
     inkscape:label="bolt_left"
     transform="scale(-1)" />
  <ellipse
     style="opacity:0;fill:none;fill-opacity:0;fill-rule:evenodd;stroke-width:0.000191947;stroke-opacity:0"
     id="bolt_right"
     cx="157.97247"
     cy="13.659428"
     rx="0.0049418169"
     ry="0.0015055466"
     inkscape:label="bolt_right" />
  <path
     style="fill:#5e5e5e;fill-rule:evenodd;stroke:#000000;stroke-width:0.0291282"
     d="m 30.506317,13.477806 h 18.627222 27.320015 c 0.643234,-0.04594 1.023835,-0.398324 1.161638,-1.033969 V 0.0235641 h 1.965791 v 4.624096 h 1.049919 c 0.322241,-0.0089 0.463658,0.1113 0.491453,0.312733 v 1.228629 h -1.429699 v 6.7462649 c 0.01191,0.367506 0.189639,0.569911 0.580824,0.558466 h 6.478243 c 0.5655,0.06303 0.5925,-0.277883 0.67007,-0.580802 V 6.2113641 h -1.58597 v -1.139275 c 0.23767,-0.467918 0.47518,-0.381849 0.7128,-0.411552 h 2.3252 v 8.2524139 c 0,2.004975 -1.09704,2.499836 -2.34554,2.591277 H 30.458925 Z"
     id="profile_left"
     sodipodi:nodetypes="cccccccccccccccccccccccc"
     inkscape:label="profile_left" />
  <path
     style="fill:#5e5e5e;fill-rule:evenodd;stroke:#000000;stroke-width:0.0291098"
     d="m 176.58263,13.513818 h -18.6151 -27.3032 c -0.64284,-0.04599 -1.02316,-0.398076 -1.16084,-1.033314 V 0.06806335 h -1.96463 V 4.6892434 h -1.04923 c -0.32204,-0.009 -0.46337,0.111229 -0.49116,0.312536 v 1.227855 h 1.4288 v 6.7420146 c -0.0119,0.367278 -0.18952,0.569532 -0.58043,0.558121 h -6.47418 c -0.56516,0.06288 -0.59213,-0.277706 -0.66968,-0.580448 V 6.2519614 h 1.58507 v -1.138557 c -0.23754,-0.467622 -0.47493,-0.381608 -0.71244,-0.411292 h -2.32377 v 8.2472096 c 0,2.00371 1.0964,2.498255 2.3441,2.589631 h 56.03405 z"
     id="profile_right"
     sodipodi:nodetypes="cccccccccccccccccccccccc"
     inkscape:label="profile_right" />
</svg>
