<?xml version="1.0" encoding="UTF-8" standalone="no"?>
<!-- Created with Inkscape (http://www.inkscape.org/) -->

<svg
   width="210mm"
   height="297mm"
   viewBox="0 0 210 297"
   version="1.1"
   id="svg1"
   inkscape:version="1.4 (86a8ad7, 2024-10-11)"
   sodipodi:docname="profiles.svg"
   xmlns:inkscape="http://www.inkscape.org/namespaces/inkscape"
   xmlns:sodipodi="http://sodipodi.sourceforge.net/DTD/sodipodi-0.dtd"
   xmlns="http://www.w3.org/2000/svg"
   xmlns:svg="http://www.w3.org/2000/svg">
  <sodipodi:namedview
     id="namedview1"
     pagecolor="#ffffff"
     bordercolor="#000000"
     borderopacity="0.25"
     inkscape:showpageshadow="2"
     inkscape:pageopacity="0.0"
     inkscape:pagecheckerboard="0"
     inkscape:deskcolor="#d1d1d1"
     inkscape:document-units="mm"
     inkscape:zoom="0.74016561"
     inkscape:cx="106.05735"
     inkscape:cy="112.81259"
     inkscape:window-width="2560"
     inkscape:window-height="1377"
     inkscape:window-x="-8"
     inkscape:window-y="-8"
     inkscape:window-maximized="1"
     inkscape:current-layer="svg1" />
  <defs
     id="defs1" />
  <path
     style="fill:#5e5e5e;fill-rule:evenodd;stroke:#000000;stroke-width:0.0307994"
     d="m 31.504615,29.407554 h 19.69589 28.88763 c 0.68014,-0.04857 1.08258,-0.421179 1.22829,-1.093295 V 15.181357 h 2.07858 v 4.889409 h 1.11016 c 0.34073,-0.0095 0.49026,0.117685 0.51965,0.330677 v 1.299124 h -1.51173 v 7.133339 c 0.0126,0.388593 0.20052,0.602611 0.61415,0.59051 h 6.84993 c 0.59797,0.06665 0.6265,-0.293826 0.70854,-0.614127 V 21.72419 h -1.67699 v -1.204643 c 0.25131,-0.494764 0.50245,-0.403758 0.75372,-0.435165 h 2.45862 v 8.725907 c 0,2.120013 -1.16,2.643267 -2.48013,2.739955 h -59.28642 z"
     id="path4031"
     sodipodi:nodetypes="cccccccccccccccccccccccc" />
  <path
     style="fill:#5e5e5e;fill-rule:evenodd;stroke:#000000;stroke-width:0.0307994"
     d="m 173.10057,29.407551 h -19.69585 -28.88771 c -0.68015,-0.04866 -1.08255,-0.421182 -1.22822,-1.093292 V 15.181357 h -2.07866 v 4.889409 H 120.1 c -0.34074,-0.0095 -0.49027,0.117685 -0.51967,0.330677 v 1.299124 h 1.51173 v 7.133345 c -0.0126,0.388596 -0.20052,0.60259 -0.61412,0.590517 h -6.84996 c -0.59797,0.06653 -0.6265,-0.293826 -0.70856,-0.61414 V 21.72419 h 1.67708 v -1.204643 c -0.25133,-0.494764 -0.5025,-0.403758 -0.75379,-0.435165 h -2.45866 v 8.725907 c 0,2.120013 1.16004,2.643263 2.48017,2.739943 h 59.28646 z"
     id="path4031-8"
     sodipodi:nodetypes="cccccccccccccccccccccccc" />
  <path
     style="fill:#5e5e5e;fill-rule:evenodd;stroke:#000000;stroke-width:0.0306016"
     d="m 144.16228,113.2986 h -1.87527 v -4.62998 c 0.0245,-0.17229 -0.0919,-0.2494 -0.19921,-0.3319 h -0.82977 c -0.48271,0.0701 -0.5509,-0.22829 -0.61405,-0.53103 v -1.07868 h 1.67611 v -4.91209 c -0.0309,-0.30356 -0.23074,-0.46594 -0.54759,-0.53103 h -7.03627 c -0.2647,0.0407 -0.459,0.26195 -0.60573,0.60573 v 4.854 h 1.61807 v 1.07865 c 0,0.29959 -0.22891,0.47149 -0.56426,0.58082 h -2.68836 v -7.13578 h -3.76707 v -2.173946 h 3.81688 V 92.02395 h 2.58876 c 0,0 0.33382,0.09181 0.44895,0.21054 0.11445,0.117817 0.19615,0.452293 0.19615,0.452293 v 1.027878 h -1.65719 v 4.837789 c 0.0428,0.283983 0.17473,0.506823 0.53623,0.572523 h 7.06388 c 0.38273,-0.0092 0.58305,-0.202578 0.59461,-0.583909 v -4.851712 h -1.72055 v -1.056339 c 0.13771,-0.365536 0.3515,-0.579009 0.65785,-0.607261 h 1.03104 v -7.097289 c 0,0 -0.447,-0.144134 -0.44596,-0.328937 0,-0.283371 0.67656,-0.213599 0.68951,-0.496572 0.0122,-0.28735 -0.65219,-0.278475 -0.65154,-0.566131 6.4e-4,-0.2797 0.6355,-0.267459 0.63574,-0.547158 2.6e-4,-0.285514 -0.65906,-0.274497 -0.64839,-0.559797 0.009,-0.27266 0.63601,-0.21513 0.65789,-0.487087 0.0245,-0.302344 -0.66669,-0.349655 -0.63576,-0.651509 0.0276,-0.260726 0.63373,-0.178102 0.65155,-0.439624 0.0184,-0.279393 -0.62621,-0.572465 -0.62621,-0.559826 0,0.01224 0.6363,-0.265929 0.63251,-0.543976 -0.009,-0.298978 -0.70562,-0.267152 -0.69582,-0.56613 0.009,-0.276639 0.66158,-0.20442 0.67688,-0.480752 0.0152,-0.298978 -0.67924,-0.298367 -0.67049,-0.597773 0.009,-0.29041 0.68887,-0.250628 0.68313,-0.540823 -0.009,-0.270213 -0.63275,-0.208397 -0.65473,-0.477601 -0.0245,-0.300814 0.64903,-0.343534 0.63578,-0.645174 -0.0122,-0.287656 -0.67761,-0.272661 -0.65787,-0.559828 0.0184,-0.258278 0.62565,-0.160352 0.65469,-0.417467 0.0349,-0.304486 -0.66892,-0.349227 -0.64521,-0.654723 0.0214,-0.287962 0.69647,-0.226758 0.69582,-0.515515 -6.4e-4,-0.290411 -0.6968,-0.225229 -0.70216,-0.515516 -0.009,-0.29194 0.68313,-0.252158 0.68629,-0.544006 0,-0.295612 -0.6912,-0.270518 -0.68309,-0.56613 0.009,-0.278169 0.65936,-0.218802 0.67048,-0.496574 0.0122,-0.29653 -0.68168,-0.288573 -0.67048,-0.585104 0.009,-0.286737 0.67531,-0.228901 0.68942,-0.515545 0.0153,-0.280924 -0.62182,-0.287963 -0.62306,-0.569284 0,-0.264704 0.5905,-0.276027 0.58199,-0.540854 -0.009,-0.273273 -0.63664,-0.245119 -0.63574,-0.518667 0,-0.291022 0.67632,-0.256136 0.67996,-0.547158 0,-0.296837 -0.68336,-0.278781 -0.67996,-0.575648 0,-0.268376 0.62457,-0.237774 0.62619,-0.50603 0,-0.287349 -0.66595,-0.262867 -0.66418,-0.550309 0,-0.296836 0.69487,-0.262868 0.6927,-0.559826 0,-0.273273 -0.63682,-0.232879 -0.64523,-0.50603 -0.009,-0.280617 0.63137,-0.279087 0.62944,-0.559826 0,-0.290104 -0.66579,-0.279394 -0.65787,-0.569283 0.009,-0.294388 0.69867,-0.246344 0.69891,-0.540854 2.5e-4,-0.298978 -0.70837,-0.25124 -0.70846,-0.55031 -9e-5,-0.288512 0.6849,-0.242977 0.68321,-0.531343 0,-0.285911 -0.6778,-0.232817 -0.68321,-0.518698 -0.009,-0.304059 0.70531,-0.274649 0.70531,-0.578783 0,-0.289156 -0.67501,-0.261217 -0.67049,-0.550326 0.009,-0.283371 0.65889,-0.235663 0.67364,-0.518689 0.0184,-0.322444 -0.73364,-0.346013 -0.70207,-0.667346 0.0276,-0.270702 0.6815,-0.164575 0.68943,-0.436459 0.009,-0.285453 -0.68578,-0.214335 -0.69582,-0.499722 -0.009,-0.291787 0.67107,-0.267826 0.67373,-0.559811 0,-0.272815 -0.6206,-0.261676 -0.6199,-0.534505 7.3e-4,-0.272936 0.61729,-0.258461 0.62305,-0.531346 0.009,-0.29907 -0.66385,-0.311332 -0.65785,-0.610417 0.009,-0.278842 0.63502,-0.265102 0.63566,-0.544 6.4e-4,-0.266112 -0.59964,-0.255799 -0.60408,-0.521856 -0.009,-0.284229 0.63551,-0.294664 0.62627,-0.578785 -0.009,-0.286156 -0.64456,-0.255401 -0.66733,-0.540832 -0.0389,-0.489697 0.9891,-0.606265 0.9836,-1.097483 -0.009,-0.484045 -1.02984,-0.576847 -0.99315,-1.059524 0.0214,-0.299468 0.69842,-0.256472 0.70846,-0.556648 0.009,-0.283494 -0.64879,-0.286126 -0.63251,-0.569304 0.0153,-0.254361 0.60644,-0.188537 0.62303,-0.442782 0.0184,-0.299988 -0.66838,-0.313036 -0.661,-0.613575 0.009,-0.284994 0.66084,-0.265316 0.65469,-0.550325 -0.009,-0.276578 -0.65081,-0.229482 -0.65785,-0.506041 -0.009,-0.293776 0.67493,-0.278628 0.67049,-0.572463 -0.009,-0.308183 -0.7211,-0.578791 -0.7211,-0.578791 v -1.017869 l 1.80366,-4.007659 h 0.52782 v 15.999319 h -0.53673 v 21.670862 h 0.57253 z"
     id="path4032"
     sodipodi:nodetypes="cccccccccccccccccccccccscccccccccccccssssssssssssssssssssssssssssssssssssssssssssssssssssssssssssssssccccccccc" />
</svg>
