<?xml version="1.0" encoding="UTF-8" standalone="no"?>
<!-- Created with Inkscape (http://www.inkscape.org/) -->

<svg
   width="210mm"
   height="297mm"
   viewBox="0 0 210 297"
   version="1.1"
   id="svg1"
   inkscape:version="1.4 (86a8ad7, 2024-10-11)"
   sodipodi:docname="рисунок.svg"
   xmlns:inkscape="http://www.inkscape.org/namespaces/inkscape"
   xmlns:sodipodi="http://sodipodi.sourceforge.net/DTD/sodipodi-0.dtd"
   xmlns="http://www.w3.org/2000/svg"
   xmlns:svg="http://www.w3.org/2000/svg">
  <sodipodi:namedview
     id="namedview1"
     pagecolor="#ffffff"
     bordercolor="#000000"
     borderopacity="0.25"
     inkscape:showpageshadow="2"
     inkscape:pageopacity="0.0"
     inkscape:pagecheckerboard="0"
     inkscape:deskcolor="#d1d1d1"
     inkscape:document-units="mm"
     inkscape:zoom="2.0935045"
     inkscape:cx="336.75591"
     inkscape:cy="67.590015"
     inkscape:window-width="2560"
     inkscape:window-height="1377"
     inkscape:window-x="-8"
     inkscape:window-y="-8"
     inkscape:window-maximized="1"
     inkscape:current-layer="svg1" />
  <defs
     id="defs1" />
  <path
     style="fill:#5e5e5e;fill-rule:evenodd;stroke:#000000;stroke-width:0.01"
     d="m 88.516627,9.5408449 -0.92796,-0.26842 c -0.0855,-0.062 -0.08272,-0.0786 -0.09203,-0.11504 -0.0457,-0.0861 -0.05888,-0.19167 -0.06902,-0.29909 -0.03943,-0.51891 0.02561,-1.03317 0.3106,-1.53765 0.250759,-0.41827 0.548346,-0.76863 0.943298,-0.97781 0.278447,-0.16117 0.575963,-0.27602 0.904954,-0.31444 l 0.291425,-0.004 c 0,0 0.0518,-0.10259 0.0997,-0.10354 0.08857,-0.002 0.103153,0.18579 0.191728,0.18406 0.09761,-0.002 0.105603,-0.21087 0.203231,-0.2109 0.101243,-3e-5 0.109681,0.2208 0.2109,0.21857 0.102301,-0.002 0.100914,-0.2287 0.203231,-0.23007 0.103087,-0.001 0.107808,0.22714 0.2109,0.22624 0.103171,-8e-4 0.103923,-0.23275 0.207065,-0.23008 0.09539,0.002 0.08482,0.22369 0.180227,0.22241 0.09663,-0.001 0.08021,-0.2207 0.176387,-0.23008 0.100049,-0.01 0.125783,0.20304 0.22624,0.1994 0.09665,-0.003 0.106711,-0.21319 0.203229,-0.20707 0.08649,0.005 0.07081,0.20043 0.157218,0.20707 0.102748,0.008 0.119356,-0.21564 0.222403,-0.21473 0.103032,7.9e-4 0.11561,0.22252 0.21857,0.21857 0.09421,-0.004 0.09009,-0.2071 0.184057,-0.21474 0.09494,-0.008 0.12351,0.19007 0.21857,0.18406 0.08847,-0.006 0.09158,-0.19604 0.180224,-0.19556 0.08779,5.3e-4 0.0887,0.19132 0.176389,0.19556 0.100309,0.005 0.122079,-0.19873 0.222404,-0.20323 0.107518,-0.005 0.150175,0.20933 0.256915,0.19556 0.0885,-0.0114 0.07565,-0.21021 0.164886,-0.2109 0.09362,-7.9e-4 0.0829,0.21359 0.17639,0.21857 0.108304,0.006 0.121801,-0.23642 0.230071,-0.23007 0.09266,0.005 0.07991,0.21275 0.172556,0.21857 0.107347,0.007 0.122558,-0.2293 0.230071,-0.22624 0.09317,0.003 0.09477,0.20314 0.187894,0.20706 0.1012,0.004 0.121166,-0.21034 0.222403,-0.20706 0.09308,0.003 0.09897,0.21157 0.191728,0.20323 0.09569,-0.009 0.06162,-0.232 0.157218,-0.24158 0.101626,-0.0102 0.112628,0.21615 0.214733,0.21857 0.09404,0.002 0.113054,-0.1885 0.207066,-0.19173 0.109926,-0.004 0.148817,0.22738 0.256915,0.20707 0.08834,-0.0166 0.04521,-0.22129 0.13421,-0.23391 0.103818,-0.0147 0.121616,0.22561 0.226238,0.21857 0.09261,-0.006 0.08007,-0.21066 0.172553,-0.21857 0.101002,-0.009 0.124936,0.20692 0.22624,0.20323 0.09395,-0.003 0.101682,-0.19823 0.195561,-0.20323 0.09332,-0.005 0.121508,0.18661 0.214736,0.18023 0.09118,-0.006 0.09266,-0.20366 0.184058,-0.20324 0.09235,5.3e-4 0.09174,0.20478 0.184057,0.20707 0.09849,0.002 0.108596,-0.20776 0.207066,-0.2109 0.09952,-0.003 0.123242,0.20835 0.222406,0.1994 0.09345,-0.008 0.07903,-0.21482 0.17255,-0.22241 0.0992,-0.008 0.11913,0.20608 0.21857,0.20323 0.0868,-0.002 0.0936,-0.18335 0.18023,-0.18789 0.0969,-0.005 0.12543,0.19197 0.2224,0.18789 0.0993,-0.004 0.11149,-0.21227 0.2109,-0.2109 0.0985,0.001 0.10483,0.22037 0.20323,0.21474 0.0957,-0.005 0.0768,-0.2258 0.17255,-0.23008 0.0515,-0.002 0.10354,0.11504 0.10354,0.11504 h 0.20323 l 4.471082,0.46015 c 0.19673,0.0592 0.10295,0.1381 0.0422,0.21473 l -11.34451,1.06025 c -0.09971,0.0496 -0.174842,0.12707 -0.191728,0.27034 l 0.1553,1.60668 c 0.04596,0.11639 0.120274,0.19026 0.237742,0.19939 l 9.666896,-0.88578 c 0.10872,0.0542 0.0745,0.11335 0.0384,0.17256 l -1.09668,0.93946 -6.396115,1.3921501 -3.12507,0.29505 c -0.257586,0.0379 -0.472221,-0.0584 -0.672296,-0.20015 -0.259665,-0.16959 -0.338593,-0.44628 -0.406715,-0.72938 L 91.060752,8.2895449 c -0.170021,-0.55135 -0.529225,-0.89682 -1.190318,-0.91376 -0.756386,0.1383 -1.147823,0.60837 -1.108977,1.4696 l 0.116591,0.31453 c -0.007,0.20149 -0.101846,0.34521 -0.361344,0.38076 z"
     id="path10007"
     sodipodi:nodetypes="ccccccccssssssssssssssssssssssssssssssssssssssssssssssssscccccccccccccccccccc" />
  <path
     style="fill:#5e5e5e;fill-rule:evenodd;stroke:#000000;stroke-width:0.01"
     d="m 106.90137,8.3061249 -10.178808,0.94713 c -0.12401,-0.0688 -0.121623,-0.12992 -0.130376,-0.19173 l -0.161049,-1.6987 c 0.02466,-0.10002 0.09007,-0.136 0.164886,-0.15722 l 0.648038,-0.0383 c 0.08285,0.0551 0.148519,0.11651 0.08436,0.20707 -0.0291,0.0441 -0.09732,0.11166 -0.111201,0.30293 0.04246,0.15 0.131373,0.23289 0.218569,0.31827 0.425606,0.0794 0.639366,-0.008 0.828259,-0.11504 0.11243,-0.1639 0.15929,-0.32949 0.0729,-0.49849 -0.0506,-0.0527 -0.157038,-0.0668 -0.164883,-0.14188 -0.01553,-0.14854 0.06439,-0.15393 0.138043,-0.16872 l 11.380932,-1.04683 c 0.84523,0.0209 1.29453,0.33669 1.91344,1.01232 0.53782,0.64155 0.66024,1.37727 0.43714,2.15118 0.0134,0.0301 -0.0166,0.0645 -0.0537,0.0997 l -1.00082,0.26075 c -0.22582,-0.0309 -0.31051,-0.18943 -0.3221,-0.41413 l -0.26075,-1.43029 c -0.19333,-0.20333 -0.48445,-0.33087 -0.96631,-0.3106 z"
     id="path10008"
     sodipodi:nodetypes="cccccccccccscccccccccc" />
</svg>
