<?xml version="1.0" encoding="UTF-8" standalone="no"?>
<!-- Created with Inkscape (http://www.inkscape.org/) -->

<svg
   width="210mm"
   height="297mm"
   viewBox="0 0 210 297"
   version="1.1"
   id="svg1"
   inkscape:version="1.4 (86a8ad7, 2024-10-11)"
   sodipodi:docname="compensators.svg"
   xmlns:inkscape="http://www.inkscape.org/namespaces/inkscape"
   xmlns:sodipodi="http://sodipodi.sourceforge.net/DTD/sodipodi-0.dtd"
   xmlns="http://www.w3.org/2000/svg"
   xmlns:svg="http://www.w3.org/2000/svg">
  <sodipodi:namedview
     id="namedview1"
     pagecolor="#ffffff"
     bordercolor="#000000"
     borderopacity="0.25"
     inkscape:showpageshadow="2"
     inkscape:pageopacity="0.0"
     inkscape:pagecheckerboard="0"
     inkscape:deskcolor="#d1d1d1"
     inkscape:document-units="mm"
     inkscape:zoom="1.0467522"
     inkscape:cx="203.48656"
     inkscape:cy="438.02153"
     inkscape:window-width="2560"
     inkscape:window-height="1377"
     inkscape:window-x="-8"
     inkscape:window-y="-8"
     inkscape:window-maximized="1"
     inkscape:current-layer="svg1" />
  <defs
     id="defs1" />
  <g
     inkscape:label="A1-030"
     inkscape:groupmode="layer"
     id="compensator">
    <path
       style="fill:#5e5e5e;fill-rule:evenodd;stroke:#000000;stroke-width:0.0313521"
       d="m 79.180415,12.234043 c 0.143274,-0.378324 0.370952,-0.644141 0.582302,-0.931683 0.615712,-0.874553 1.35622,-1.4682524 2.162852,-1.9132795 1.067506,-0.5553055 2.173936,-0.8849679 3.36071,-0.7486676 l 2.445671,0.4492031 17.70193,3.726734 -0.63221,2.978052 -13.85876,-2.894868 c -0.14665,0.04148 -0.28625,0.123357 -0.41593,0.266177 -0.0912,0.176962 -0.0838,0.338784 -0.0665,0.499119 l 0.2163,0.848496 v 1.098056 l -0.18286,0.998227 -0.366,1.064785 c -0.006,0.138644 -0.0245,0.277282 0.0832,0.415925 0.1221,0.144807 0.24391,0.180733 0.36601,0.183004 l 6.93771,-0.316106 9.81593,2.112915 0.0665,0.482479 -3.64356,0.183004 c 0,0 -0.2034,-0.47544 -0.41626,-0.484727 -0.26292,-0.0114 -0.30158,0.56318 -0.56442,0.551728 -0.2172,-0.0095 -0.2077,-0.487065 -0.42488,-0.494645 -0.25249,-0.0088 -0.28011,0.533065 -0.53269,0.539039 -0.2528,0.0058 -0.30618,-0.536362 -0.55809,-0.513674 -0.23746,0.02147 -0.19329,0.554269 -0.43124,0.570747 -0.25955,0.0178 -0.29206,-0.565942 -0.55171,-0.551727 -0.24636,0.01354 -0.21691,0.559225 -0.46292,0.577093 -0.25066,0.01809 -0.30158,-0.535956 -0.55174,-0.513673 -0.24207,0.02147 -0.19544,0.562742 -0.43759,0.583432 -0.26078,0.0224 -0.30946,-0.553577 -0.57073,-0.539039 -0.235,0.01325 -0.22151,0.527044 -0.45661,0.539039 -0.23133,0.01197 -0.26937,-0.487712 -0.50099,-0.481966 -0.24667,0.0064 -0.26079,0.531612 -0.50733,0.539039 -0.24974,0.0074 -0.29698,-0.538249 -0.54539,-0.513672 -0.23225,0.02301 -0.17426,0.541069 -0.40586,0.570746 -0.2709,0.03473 -0.35687,-0.560512 -0.62784,-0.526353 -0.23745,0.03006 -0.18039,0.561199 -0.41852,0.583433 -0.25894,0.02424 -0.30527,-0.561337 -0.56442,-0.539045 -0.25157,0.02147 -0.19819,0.594259 -0.45026,0.608799 -0.26875,0.01564 -0.28286,-0.604148 -0.55172,-0.589775 -0.24575,0.01325 -0.1988,0.566776 -0.4439,0.589775 -0.25341,0.02394 -0.3107,-0.532317 -0.56442,-0.513674 -0.23961,0.01748 -0.21691,0.54176 -0.4566,0.558067 -0.2476,0.01687 -0.2976,-0.523203 -0.54537,-0.507331 -0.24421,0.01564 -0.22519,0.550343 -0.46931,0.564404 -0.25678,0.01473 -0.3025,-0.560073 -0.55806,-0.5327 -0.23623,0.02516 -0.16321,0.565917 -0.3995,0.589779 -0.26171,0.02639 -0.30158,-0.563812 -0.56443,-0.551724 -0.24114,0.01111 -0.22824,0.53559 -0.46927,0.551724 -0.25248,0.01687 -0.31257,-0.531132 -0.56441,-0.507331 -0.25372,0.02394 -0.20831,0.600049 -0.46296,0.608798 -0.24697,0.0085 -0.4883,-0.558066 -0.4883,-0.558066 -0.14357,-0.164106 -0.29452,0.349932 -0.539043,0.589773 l -2.504953,-0.0064 c -0.07295,0.06568 -2.267871,-0.503726 -3.069359,-1.230286 -0.661818,-0.599967 -1.648782,-1.141823 -1.750297,-2.029331 -0.02151,-0.185059 0.259849,-0.494648 0.259849,-0.494648 1.062078,-0.249764 2.155871,-0.436054 3.335719,-0.450259 0.710503,0.568577 1.547111,0.969007 2.960921,0.599847 0.757021,-0.419131 1.518183,-0.835218 1.730923,-1.650199 0.33781,-0.576971 0.36707,-1.153942 0.21536,-1.730914 -0.10001,-0.83435 -0.58837,-1.363437 -1.15692,-1.829575 -0.632154,-0.481099 -1.394917,-0.748022 -2.448404,-0.538115 -0.789633,0.157601 -1.159959,0.566786 -1.632269,0.914782 l -2.941629,-0.125565 c -0.229188,0.0048 -0.380313,-0.128428 -0.502258,-0.313887 -0.05956,-0.137746 -0.06098,-0.275503 -0.01282,-0.413271 z"
       id="left"
       sodipodi:nodetypes="ccccccccccccccccccccsssssssssssssssssssssssssssssssssccsscccccccccccc"
       inkscape:label="compensator_left">
      <title
         id="title2">metal</title>
    </path>
    <path
       style="fill:#5e5e5e;fill-rule:evenodd;stroke:#000000;stroke-width:0.0313521"
       d="m 121.82503,17.954043 c -0.14327,0.378325 -0.37095,0.644143 -0.5823,0.931683 -0.61571,0.874551 -1.35626,1.468255 -2.16287,1.91328 -1.06752,0.555304 -2.17395,0.884966 -3.36071,0.748669 l -2.44565,-0.449205 -17.70196,-3.726731 0.63222,-2.978055 13.85877,2.894867 c 0.14665,-0.04147 0.28624,-0.123356 0.41592,-0.266177 0.0912,-0.176961 0.0838,-0.338784 0.0665,-0.499119 l -0.2163,-0.848495 v -1.098056 l 0.18286,-0.998228 0.36601,-1.064784 c 0.006,-0.138644 0.0245,-0.277284 -0.0832,-0.415925 -0.1221,-0.144807 -0.24389,-0.180734 -0.36604,-0.183004 l -6.93768,0.316105 -9.81596,-2.112919 -0.0665,-0.4824766 3.64355,-0.1830041 c 0,0 0.2034,0.4754388 0.41626,0.4847254 0.26293,0.011398 0.30158,-0.5631801 0.56441,-0.5517279 0.21722,0.00955 0.2077,0.4870649 0.42488,0.4946489 0.25249,0.00883 0.28011,-0.5330648 0.53269,-0.5390417 0.25281,-0.00584 0.30618,0.5363603 0.55807,0.5136723 0.23746,-0.021471 0.19328,-0.5542653 0.43123,-0.5707456 0.25955,-0.017795 0.29208,0.5659413 0.55174,0.5517279 0.24636,-0.013535 0.21691,-0.5592265 0.46294,-0.5770944 0.25064,-0.018095 0.30158,0.5359557 0.55174,0.5136737 0.24205,-0.021471 0.19542,-0.5627427 0.43754,-0.5834331 0.26079,-0.022397 0.30947,0.5535786 0.57078,0.5390388 0.235,-0.01325 0.22151,-0.5270423 0.45659,-0.5390388 0.23133,-0.011968 0.26937,0.4877145 0.50098,0.4819656 0.24665,-0.00641 0.26077,-0.5316116 0.50734,-0.5390389 0.24974,-0.00741 0.29698,0.5382538 0.5454,0.5136738 0.23224,-0.02301 0.17425,-0.5410707 0.40586,-0.5707471 0.27091,-0.034722 0.35686,0.5605115 0.62783,0.5263528 0.23746,-0.030063 0.18009,-0.5611983 0.41853,-0.5834318 0.25894,-0.024235 0.30526,0.5613365 0.56441,0.5390475 0.25157,-0.021471 0.1982,-0.5942615 0.45026,-0.6088012 0.26875,-0.015644 0.28287,0.6041507 0.55171,0.5897734 0.24574,-0.01325 0.19911,-0.5667762 0.44394,-0.5897734 0.2531,-0.023936 0.31069,0.5323197 0.56441,0.5136724 0.23962,-0.017482 0.2169,-0.541756 0.45661,-0.5580653 0.24758,-0.016869 0.29759,0.5232012 0.54536,0.5073336 0.24421,-0.015644 0.22519,-0.5503472 0.46927,-0.5644083 0.25679,-0.014718 0.30251,0.5600728 0.5581,0.5327016 0.23624,-0.025161 0.16322,-0.5659171 0.39951,-0.5897805 0.26169,-0.026387 0.30158,0.5638127 0.56441,0.551725 0.24114,-0.011113 0.22826,-0.5355881 0.46928,-0.551725 0.25249,-0.016869 0.31256,0.5311328 0.56442,0.5073321 0.25372,-0.023936 0.208,-0.6000488 0.46292,-0.6087983 0.24697,-0.00855 0.48832,0.5580652 0.48832,0.5580652 0.14359,0.164106 0.29453,-0.3499282 0.53905,-0.5897734 l 2.50494,0.00641 c 0.0731,-0.065682 2.2679,0.5037289 3.06937,1.2302855 0.66182,0.5999689 1.64878,1.1418229 1.75031,2.0293339 0.0215,0.18506 -0.26016,0.494646 -0.26016,0.494646 -1.06208,0.249763 -2.1559,0.436053 -3.33572,0.450258 -0.7105,-0.568577 -1.54711,-0.969005 -2.96092,-0.599845 -0.75702,0.419129 -1.51822,0.835216 -1.73092,1.650198 -0.33781,0.57697 -0.36708,1.153942 -0.21537,1.730913 0.10002,0.83434 0.58837,1.36343 1.15693,1.829568 0.63215,0.481096 1.39488,0.748019 2.4484,0.538111 0.78963,-0.157602 1.15996,-0.566782 1.63224,-0.914782 l 2.94166,0.125578 c 0.22919,-0.0048 0.38031,0.128429 0.50226,0.313886 0.0596,0.137747 0.061,0.275505 0.0128,0.413271 z"
       id="right"
       sodipodi:nodetypes="ccccccccccccccccccccsssssssssssssssssssssssssssssssssccsscccccccccccc"
       inkscape:label="compensator_right">
      <title
         id="title1">metal</title>
    </path>
  </g>
  <g
     id="g1"
     inkscape:label="A1-050"
     transform="matrix(1.4500952,0,0,1.4500952,-54.137249,2.9157051)">
    <path
       style="fill:#5e5e5e;fill-rule:evenodd;stroke:#000000;stroke-width:0.0205684"
       d="m 83.068539,21.888641 -1.72241,-0.09154 c -0.214096,-0.04255 -0.381732,-0.186318 -0.366117,-0.357795 0.02999,-0.329201 0.27746,-0.587905 0.482607,-0.815441 0.829837,-0.940311 1.81988,-1.568024 3.103671,-1.622567 l 0.865367,-0.0083 27.367223,2.670985 -0.20801,2.113493 -23.252927,-2.260291 c -0.11451,0.01812 -0.21223,0.06976 -0.28242,0.176516 -0.0372,0.08379 -0.0575,0.169975 -0.0177,0.264772 0.29095,0.507579 0.29944,1.082671 0.26477,1.629786 0.0289,0.665114 -0.25794,1.078658 -0.40598,1.588606 -0.0397,0.136846 0.0958,0.346084 0.26477,0.341258 l 11.563917,-0.330256 12.52288,1.252285 0.025,0.549177 -1.09836,0.02498 c 0,0 -0.12097,-0.340759 -0.26626,-0.345318 -0.16404,-0.0052 -0.16082,0.359674 -0.32452,0.370277 -0.16967,0.01107 -0.21288,-0.343367 -0.38276,-0.336992 -0.17047,0.0064 -0.18718,0.368709 -0.35778,0.366116 -0.16383,-0.0026 -0.16907,-0.366048 -0.33284,-0.361958 -0.16042,0.0042 -0.14774,0.358704 -0.30787,0.370281 -0.16746,0.01208 -0.20715,-0.351504 -0.37445,-0.336999 -0.15457,0.01349 -0.13324,0.346554 -0.28705,0.366119 -0.17672,0.02246 -0.24708,-0.341163 -0.42436,-0.324512 -0.14271,0.01349 -0.14391,0.311059 -0.28708,0.320352 -0.16987,0.01107 -0.21731,-0.346269 -0.38693,-0.332832 -0.16484,0.01308 -0.15538,0.367845 -0.32034,0.378597 -0.16645,0.01087 -0.20343,-0.34039 -0.37028,-0.336992 -0.15579,0.0032 -0.17692,0.328692 -0.33283,0.32867 -0.16383,-2.7e-5 -0.18577,-0.351871 -0.34947,-0.345312 -0.17188,0.0068 -0.16504,0.385182 -0.33701,0.391077 -0.17551,0.006 -0.19483,-0.38027 -0.37026,-0.374435 -0.16303,0.0054 -0.15739,0.362928 -0.3204,0.370255 -0.16565,0.0074 -0.19222,-0.354033 -0.35781,-0.345316 -0.16806,0.0089 -0.15638,0.37861 -0.32451,0.386919 -0.1743,0.0087 -0.20006,-0.373568 -0.37442,-0.366117 -0.17189,0.0074 -0.16505,0.386192 -0.337,0.39108 -0.16967,0.0048 -0.18396,-0.366573 -0.35363,-0.366116 -0.17269,4.63e-4 -0.18537,0.380395 -0.3578,0.374435 -0.16042,-0.0056 -0.14734,-0.370621 -0.30787,-0.370275 -0.16343,3.5e-4 -0.14874,0.369391 -0.31203,0.378598 -0.17732,0.01006 -0.2054,-0.37765 -0.38276,-0.370275 -0.17672,0.0074 -0.17269,0.390927 -0.34947,0.399401 -0.16766,0.0081 -0.19866,-0.355174 -0.36612,-0.345317 -0.15538,0.0093 -0.14411,0.351786 -0.29955,0.357794 -0.17632,0.0068 -0.19403,-0.386925 -0.37028,-0.378596 -0.16746,0.0078 -0.14874,0.381259 -0.3162,0.391079 -0.16645,0.0097 -0.19101,-0.352811 -0.35778,-0.349476 -0.1737,0.0038 -0.18417,0.376661 -0.35781,0.3786 -0.16564,0.0016 -0.18376,-0.357662 -0.34947,-0.353636 -0.16202,0.0038 -0.16262,0.358017 -0.324527,0.361952 -0.16564,0.0042 -0.18175,-0.35743 -0.34947,-0.353634 -0.16766,0.0038 -0.17128,0.373695 -0.34115,0.3786 -0.16947,0.0048 -0.19262,-0.367336 -0.36195,-0.357798 -0.16545,0.0093 -0.14653,0.378082 -0.31203,0.386922 -0.19001,0.01027 -0.21394,-0.418725 -0.40356,-0.403563 -0.17229,0.01389 -0.13123,0.409843 -0.30372,0.420205 -0.17329,0.01047 -0.17993,-0.386667 -0.35363,-0.382758 -0.1741,0.0038 -0.16303,0.391028 -0.33699,0.399401 -0.16847,0.0081 -0.19343,-0.35863 -0.36195,-0.35364 -0.16484,0.0048 -0.16786,0.362192 -0.33285,0.366117 -0.17651,0.0042 -0.19805,-0.380959 -0.37442,-0.374436 -0.15921,0.0058 -0.15317,0.349667 -0.31204,0.361959 -0.15799,0.01228 -0.20399,-0.319446 -0.36196,-0.307875 -0.14895,0.01087 -0.14653,0.323934 -0.29539,0.336993 -0.17008,0.01489 -0.22905,-0.330735 -0.39941,-0.320352 -0.1586,0.0097 -0.1739,0.340177 -0.33282,0.341157 -0.16283,0.0011 -0.18256,-0.35112 -0.34532,-0.345315 -0.16505,0.0058 -0.15941,0.368055 -0.32452,0.374435 -0.16363,0.0062 -0.18577,-0.34775 -0.34947,-0.345311 -0.16484,0.0026 -0.17651,0.353117 -0.34115,0.357792 -0.17853,0.0052 -0.21303,-0.379829 -0.39108,-0.366116 -0.17047,0.01308 -0.14552,0.395253 -0.31619,0.403559 -0.16666,0.0081 -0.17853,-0.361972 -0.34531,-0.361952 -0.16484,2.2e-5 -0.17651,0.351116 -0.34115,0.357794 -0.15418,0.0062 -0.19121,-0.311777 -0.34533,-0.307869 -0.14995,0.0038 -0.17188,0.294289 -0.32034,0.316191 -0.13667,0.02019 -0.21909,-0.261324 -0.37029,-0.345315 -0.14753,-0.08196 -0.15647,0.363182 -0.32035,0.374436 -0.16464,0.01127 -0.20529,-0.332605 -0.37027,-0.32867 -0.16668,0.0038 -0.19109,0.348475 -0.3578,0.349475 -0.16478,0.0011 -0.19308,-0.346205 -0.3578,-0.341157 -0.15693,0.0048 -0.16335,0.343836 -0.32035,0.345315 -0.1579,0.0016 -0.17078,-0.34327 -0.32867,-0.341157 -0.17275,0.0022 -0.17682,0.376827 -0.34948,0.38276 -0.1686,0.0058 -0.19773,-0.36001 -0.36611,-0.349475 -0.14462,0.0091 -0.13007,0.326677 -0.2746,0.336999 -0.16739,0.01208 -0.20251,-0.346026 -0.37027,-0.341157 -0.17156,0.0048 -0.18628,0.364295 -0.3578,0.370275 -0.16782,0.0058 -0.20675,-0.345871 -0.37443,-0.336993 -0.16573,0.0089 -0.16847,0.347344 -0.33284,0.370275 -0.51811,0.07228 -1.674378,-0.03009 -1.672883,-0.0032 -0.710484,-0.05734 -1.392282,-0.357633 -2.006347,-0.7943 -0.520108,-0.42607 -0.97093,-0.866988 -1.182629,-1.359143 -0.05535,-0.08598 -0.09114,-0.174564 0.01771,-0.28242 0.134712,-0.216889 0.205371,-0.14554 0.300071,-0.182393 0.562521,-0.100294 1.13337,-0.171424 1.718051,-0.194168 0.518937,0.360089 1.033987,0.728176 1.74746,0.688397 0.52864,-0.01349 1.083657,-0.146527 1.776887,-0.906095 0.34849,-0.47639 0.46306,-0.986193 0.42363,-1.517998 -0.0394,-0.63838 -0.32958,-1.154404 -0.82372,-1.570954 -0.51473,-0.383237 -1.097429,-0.578544 -1.800422,-0.441284 -0.40979,0.01127 -0.926572,0.334634 -1.468265,0.730642 z"
       id="path10068"
       sodipodi:nodetypes="ccscccccccccssccccsssssssssssssssssssssssssssssssssssasasssssssssssssssssssssssssssssssssssssscccccccccccc"
       inkscape:label="compensator_left">
      <title
         id="title3">metal</title>
    </path>
    <path
       style="fill:#5e5e5e;fill-rule:evenodd;stroke:#000000;stroke-width:0.0205684"
       d="m 128.86891,24.662849 1.72241,0.09154 c 0.21409,0.04255 0.38173,0.186318 0.36611,0.357792 -0.03,0.329201 -0.27747,0.587907 -0.48261,0.815442 -0.82985,0.940311 -1.81989,1.568025 -3.10366,1.622566 l -0.86537,0.0083 -27.367247,-2.670987 0.20803,-2.113492 23.252937,2.26029 c 0.11452,-0.01811 0.21222,-0.06976 0.2824,-0.176516 0.0372,-0.08379 0.0576,-0.169974 0.0181,-0.26477 -0.29096,-0.507579 -0.29945,-1.082673 -0.26478,-1.629786 -0.0288,-0.665113 0.25794,-1.078658 0.40599,-1.588608 0.0396,-0.136825 -0.0958,-0.346082 -0.26477,-0.341257 l -11.56393,0.330256 -12.522857,-1.252286 -0.025,-0.549174 1.09835,-0.02498 c 0,0 0.12096,0.340758 0.266257,0.345315 0.16404,0.0052 0.16082,-0.359672 0.32451,-0.370275 0.16967,-0.01107 0.21291,0.343367 0.38276,0.336993 0.17048,-0.0064 0.18718,-0.368711 0.3578,-0.366117 0.16384,0.0026 0.16907,0.366048 0.33285,0.361959 0.16041,-0.0042 0.14773,-0.358706 0.30786,-0.370284 0.16746,-0.01208 0.20715,0.351505 0.37443,0.336999 0.15458,-0.01348 0.13324,-0.346551 0.28708,-0.366117 0.17671,-0.02246 0.24706,0.341163 0.42436,0.32451 0.1427,-0.01348 0.14391,-0.311059 0.28707,-0.320351 0.16968,-0.01107 0.21732,0.346269 0.38691,0.332834 0.16484,-0.01308 0.15538,-0.367848 0.32037,-0.3786 0.16645,-0.01087 0.2034,0.34039 0.37026,0.336993 0.15578,-0.0032 0.17692,-0.32869 0.33284,-0.328668 0.16384,2.6e-5 0.18578,0.351871 0.34947,0.345309 0.17189,-0.0068 0.16504,-0.385181 0.33699,-0.391076 0.17551,-0.006 0.19483,0.380272 0.37028,0.374435 0.16324,-0.0054 0.1574,-0.362927 0.32041,-0.370255 0.16565,-0.0074 0.19221,0.354034 0.35778,0.345317 0.16806,-0.0089 0.15639,-0.378612 0.32451,-0.386918 0.1743,-0.0087 0.20007,0.373568 0.37445,0.366117 0.17189,-0.0074 0.16504,-0.386194 0.33699,-0.391083 0.16967,-0.0048 0.18396,0.366576 0.35364,0.366117 0.17269,-4.63e-4 0.18537,-0.380393 0.3578,-0.374433 0.16041,0.0056 0.14733,0.370621 0.30787,0.370275 0.16343,-3.53e-4 0.14874,-0.369392 0.31203,-0.3786 0.17732,-0.01006 0.2054,0.377652 0.38276,0.370277 0.17672,-0.0074 0.17269,-0.390928 0.34947,-0.399401 0.16766,-0.0081 0.19865,0.355173 0.36611,0.345315 0.15518,-0.0091 0.14411,-0.351786 0.29956,-0.357792 0.17631,-0.0068 0.19402,0.386922 0.37028,0.378594 0.16746,-0.0079 0.14874,-0.381257 0.31618,-0.391077 0.16645,-0.0097 0.19121,0.352809 0.3578,0.349476 0.1737,-0.0038 0.18416,-0.376662 0.3578,-0.3786 0.16565,-0.0016 0.18376,0.357659 0.34947,0.353634 0.16202,-0.0038 0.16243,-0.358018 0.32451,-0.361953 0.16565,-0.0042 0.18175,0.357432 0.34947,0.353634 0.16786,-0.0038 0.17128,-0.373695 0.34116,-0.3786 0.16967,-0.0048 0.19262,0.367337 0.36197,0.357801 0.16544,-0.0093 0.14652,-0.378083 0.31203,-0.386925 0.19,-0.01027 0.21391,0.418728 0.40355,0.403566 0.17229,-0.01389 0.13123,-0.409843 0.30372,-0.420207 0.1733,-0.01047 0.17994,0.386669 0.35362,0.382758 0.1741,-0.0038 0.16303,-0.391028 0.33701,-0.399399 0.16846,-0.0081 0.19342,0.358629 0.36195,0.35364 0.16484,-0.0048 0.16786,-0.362192 0.33282,-0.366117 0.17652,-0.0042 0.19805,0.380959 0.37445,0.374435 0.1592,-0.0058 0.15317,-0.349666 0.31203,-0.361958 0.158,-0.01228 0.20399,0.319446 0.36195,0.307874 0.14894,-0.01087 0.14653,-0.323936 0.29539,-0.336992 0.17007,-0.01489 0.22904,0.330735 0.3994,0.320349 0.1586,-0.0097 0.1739,-0.340177 0.33285,-0.341157 0.16283,-0.0011 0.18255,0.351122 0.3453,0.345317 0.16504,-0.0058 0.15941,-0.368055 0.32451,-0.374435 0.16364,-0.0062 0.18578,0.347749 0.34949,0.345311 0.16484,-0.0026 0.17632,-0.353118 0.34116,-0.357794 0.17853,-0.0052 0.21302,0.37983 0.39107,0.366117 0.17048,-0.01308 0.14552,-0.395251 0.31618,-0.40356 0.16665,-0.008 0.17853,0.361975 0.34532,0.361953 0.16484,-2e-5 0.17652,-0.351116 0.34116,-0.357792 0.15417,-0.0062 0.19121,0.311777 0.3453,0.307866 0.14995,-0.0038 0.17189,-0.294288 0.32037,-0.316191 0.13666,-0.02019 0.21908,0.261324 0.37028,0.345317 0.14753,0.08196 0.15639,-0.363184 0.32034,-0.374435 0.16465,-0.01127 0.20528,0.332605 0.37029,0.328668 0.16665,-0.0038 0.191,-0.348473 0.35778,-0.349476 0.16484,-0.0011 0.19302,0.346207 0.3578,0.341157 0.15699,-0.0048 0.16343,-0.343833 0.32037,-0.345315 0.15779,-0.0016 0.17067,0.34327 0.32865,0.341157 0.1727,-0.0022 0.17692,-0.376826 0.34947,-0.382758 0.16867,-0.0058 0.19785,0.360008 0.36614,0.349476 0.14451,-0.0091 0.13002,-0.326678 0.27457,-0.336999 0.16746,-0.01208 0.20252,0.346024 0.37029,0.341157 0.17148,-0.0048 0.18637,-0.364295 0.3578,-0.370275 0.16786,-0.0058 0.20674,0.345869 0.37442,0.336993 0.16565,-0.0089 0.16847,-0.347347 0.33285,-0.370278 0.51809,-0.07228 1.67437,0.03009 1.67288,0.0032 0.71049,0.05734 1.39228,0.357633 2.00634,0.7943 0.52011,0.42607 0.97094,0.866985 1.18264,1.359143 0.0554,0.08598 0.0912,0.174564 -0.0181,0.282417 -0.13465,0.216892 -0.20538,0.145541 -0.30007,0.182394 -0.56252,0.100294 -1.13337,0.171423 -1.71805,0.194167 -0.51894,-0.360088 -1.03399,-0.728176 -1.74746,-0.688394 -0.52865,0.01348 -1.08366,0.146526 -1.77688,0.906095 -0.3485,0.476388 -0.46307,0.986193 -0.42364,1.517997 0.0394,0.63838 0.32959,1.154405 0.82373,1.570952 0.51474,0.383237 1.09742,0.578544 1.80042,0.441284 0.40979,-0.01127 0.92656,-0.334633 1.46827,-0.730641 z"
       id="path10068-7"
       sodipodi:nodetypes="ccscccccccccssccccsssssssssssssssssssssssssssssssssssasasssssssssssssssssssssssssssssssssssssscccccccccccc"
       inkscape:label="compensator_right">
      <title
         id="title4">metal</title>
    </path>
  </g>
  <g
     id="g2"
     inkscape:label="A1-070"
     transform="matrix(1.4753053,0,0,1.4753053,-78.559112,-31.882292)">
    <path
       style="fill:#5e5e5e;fill-rule:evenodd;stroke:#000000;stroke-width:0.0204409"
       d="m 86.264459,58.896868 c 0.0048,-0.239134 0.180302,-0.444106 0.334904,-0.65327 0.363949,-0.493255 0.796463,-0.94994 1.393369,-1.318948 0.585872,-0.309597 1.208249,-0.482311 1.856448,-0.558176 l 0.599525,0.0042 42.267525,3.017395 -0.16082,2.216108 -38.060988,-2.76306 c -0.04435,0 -0.287104,0.07411 -0.274953,0.167461 0.0122,0.09363 -0.0022,0.283225 -0.0022,0.283225 0,0 0.219838,0.796299 0.262547,1.205242 0.02302,0.220696 0.0048,0.443964 -0.0042,0.665673 -0.02,0.492474 -0.281177,1.021082 -0.30596,1.414047 -0.0076,0.118715 0.260477,0.24394 0.260477,0.24394 l 19.945967,-0.012 20.05899,1.435501 c -0.002,-0.0198 0.15821,0.02762 0.20466,0.304056 0.0342,0.203135 -0.0702,0.613962 -0.0702,0.613962 0,0 -0.73417,0.135817 -1.05251,-0.0116 -0.14802,-0.06863 -0.15742,-0.370748 -0.32066,-0.370018 -0.17002,5.3e-4 -0.16082,0.38325 -0.33076,0.388652 -0.17442,0.0056 -0.18942,-0.382781 -0.36385,-0.376247 -0.17022,0.0064 -0.15642,0.389257 -0.32664,0.392787 -0.17462,0.0038 -0.17682,-0.38632 -0.35144,-0.388652 -0.16562,-0.0022 -0.17742,0.359169 -0.34316,0.359713 -0.17263,5.3e-4 -0.18723,-0.377427 -0.35973,-0.372119 -0.17402,0.0054 -0.16502,0.399168 -0.33904,0.396924 -0.16862,-0.0022 -0.14982,-0.389743 -0.31836,-0.392791 -0.17182,-0.0032 -0.16722,0.38325 -0.33904,0.388658 -0.18803,0.006 -0.20937,-0.415167 -0.39693,-0.401058 -0.16322,0.0122 -0.12602,0.385668 -0.28942,0.396926 -0.16442,0.0114 -0.17842,-0.353624 -0.34318,-0.355583 -0.16082,-0.0022 -0.18242,0.342895 -0.34316,0.339043 -0.16282,-0.0038 -0.16803,-0.36489 -0.33079,-0.359713 -0.16642,0.0052 -0.14781,0.379449 -0.31421,0.388652 -0.19163,0.0106 -0.21757,-0.414485 -0.40934,-0.405192 -0.15942,0.0078 -0.14641,0.365117 -0.30597,0.367982 -0.15702,0.0026 -0.15722,-0.347056 -0.31422,-0.351442 -0.17542,-0.0048 -0.19663,0.372616 -0.37213,0.372112 -0.17062,-4.86e-4 -0.18922,-0.36843 -0.3597,-0.363847 -0.16402,0.0042 -0.16262,0.366426 -0.32665,0.367988 -0.16882,0.0016 -0.17442,-0.377163 -0.34316,-0.372121 -0.16542,0.0048 -0.14882,0.378412 -0.31424,0.38452 -0.18422,0.0068 -0.19622,-0.408929 -0.38038,-0.401058 -0.17443,0.0074 -0.15202,0.406625 -0.32665,0.409329 -0.18082,0.0026 -0.17062,-0.415685 -0.35142,-0.413463 -0.16662,0.0022 -0.14762,0.38571 -0.31424,0.388652 -0.18062,0.0032 -0.17482,-0.412769 -0.35558,-0.409323 -0.18043,0.0032 -0.15862,0.41904 -0.33905,0.421729 -0.17402,0.0026 -0.16502,-0.397004 -0.33904,-0.396924 -0.17202,7.8e-5 -0.16282,0.390537 -0.3349,0.392791 -0.16482,0.0022 -0.16582,-0.366001 -0.33076,-0.367982 -0.16662,-0.0022 -0.17642,0.36594 -0.34318,0.36385 -0.17963,-0.0022 -0.18023,-0.404151 -0.35971,-0.401064 -0.17602,0.0032 -0.16302,0.402222 -0.33904,0.405196 -0.17762,0.0032 -0.17802,-0.402328 -0.35558,-0.396925 -0.16863,0.0052 -0.14582,0.385394 -0.31424,0.396925 -0.18483,0.0126 -0.21629,-0.397433 -0.40105,-0.38452 -0.16442,0.0114 -0.14102,0.384996 -0.30596,0.388653 -0.17102,0.0038 -0.16402,-0.385196 -0.3349,-0.388653 -0.17363,-0.0038 -0.18203,0.383652 -0.35559,0.380388 -0.16402,-0.0032 -0.15842,-0.369664 -0.3225,-0.372121 -0.16482,-0.0026 -0.17022,0.358757 -0.3349,0.363848 -0.19102,0.0058 -0.22315,-0.413622 -0.41347,-0.396924 -0.15122,0.0132 -0.11762,0.35367 -0.26876,0.36798 -0.17082,0.0162 -0.20528,-0.366526 -0.37624,-0.351442 -0.17162,0.0152 -0.13802,0.405175 -0.3101,0.413464 -0.19203,0.0092 -0.19703,-0.439767 -0.38865,-0.425869 -0.16422,0.012 -0.11281,0.395025 -0.27701,0.409329 -0.17583,0.0152 -0.19163,-0.384862 -0.36799,-0.380386 -0.17382,0.0042 -0.16942,0.396238 -0.34318,0.392791 -0.17342,-0.0032 -0.15322,-0.399273 -0.32664,-0.405196 -0.17643,-0.006 -0.18323,0.389166 -0.35971,0.388658 -0.17562,-5.02e-4 -0.18002,-0.393881 -0.35558,-0.388658 -0.15962,0.0048 -0.14242,0.362545 -0.30182,0.37212 -0.18202,0.0108 -0.21085,-0.391025 -0.39279,-0.380387 -0.17402,0.0102 -0.15642,0.403778 -0.33076,0.405192 -0.17311,0.0016 -0.16193,-0.390114 -0.33491,-0.396925 -0.16652,-0.0066 -0.18486,0.360497 -0.35144,0.35558 -0.15032,-0.0042 -0.1473,-0.338782 -0.29769,-0.339042 -0.17479,-3e-4 -0.17255,0.391585 -0.34731,0.392793 -0.18441,0.0011 -0.18777,-0.41358 -0.37212,-0.409331 -0.17713,0.0042 -0.16188,0.407251 -0.33904,0.409331 -0.18072,0.0022 -0.1749,-0.414036 -0.35558,-0.409331 -0.16784,0.0042 -0.14224,0.393607 -0.3101,0.396925 -0.17696,0.0038 -0.16618,-0.406344 -0.34317,-0.405192 -0.17328,0.0011 -0.15768,0.392765 -0.33077,0.401058 -0.1869,0.009 -0.21005,-0.406297 -0.39692,-0.396924 -0.16532,0.0084 -0.14892,0.376225 -0.31424,0.384518 -0.1752,0.0088 -0.19678,-0.377553 -0.37212,-0.372112 -0.17274,0.0054 -0.1704,0.393077 -0.34317,0.388652 -0.16374,-0.0042 -0.1424,-0.375729 -0.30596,-0.38452 -0.16446,-0.0088 -0.1826,0.351892 -0.34731,0.351442 -0.17152,-4.66e-4 -0.1883,-0.374256 -0.35972,-0.36798 -0.173,0.0064 -0.16178,0.39648 -0.3349,0.396924 -0.17206,4.46e-4 -0.16286,-0.390483 -0.3349,-0.392791 -0.16686,-0.0022 -0.16804,0.372632 -0.33491,0.37212 -0.16596,-5.14e-4 -0.16488,-0.376635 -0.33077,-0.37212 -0.17256,0.0048 -0.14994,0.40017 -0.3225,0.405196 -0.17756,0.0052 -0.17794,-0.395727 -0.35558,-0.396923 -0.16484,-0.0011 -0.17008,0.361369 -0.3349,0.363847 -0.17151,0.0026 -0.35553,-0.38451 -0.35972,-0.367982 -0.004,0.0166 -0.179,0.396688 -0.35557,0.392787 -0.16636,-0.0038 -0.152,-0.381487 -0.31837,-0.38452 -0.16982,-0.0032 -0.1692,0.378026 -0.33904,0.380386 -0.16476,0.0022 -0.1743,-0.356333 -0.33904,-0.359713 -0.16954,-0.0038 -0.19436,0.361533 -0.36385,0.35558 -0.16586,-0.0058 -0.1649,-0.366763 -0.33077,-0.37212 -0.16852,-0.0054 -0.19116,0.359943 -0.35971,0.355582 -0.1697,-0.0042 -0.17346,-0.379327 -0.34318,-0.376253 -0.1662,0.0032 -0.15638,0.374501 -0.32249,0.380386 -0.17143,0.006 -0.18825,-0.372517 -0.35972,-0.36798 -0.16694,0.0042 -0.16378,0.377077 -0.33077,0.376253 -0.171,-0.0011 -0.1639,-0.390253 -0.3349,-0.388659 -0.16834,0.0016 -0.15426,0.382762 -0.32251,0.388659 -0.17146,0.006 -0.18404,-0.368734 -0.35557,-0.372121 -0.17444,-0.0038 -0.20193,0.370913 -0.37626,0.363848 -0.166856,-0.0068 -0.163975,-0.38443 -0.330764,-0.376253 -0.16274,0.008 -0.123075,0.381577 -0.28529,0.396925 -0.183423,0.0174 -0.217185,-0.392163 -0.401062,-0.380387 -0.16326,0.0104 -0.146518,0.378581 -0.310092,0.380387 -0.172042,0.0022 -0.162861,-0.391236 -0.33491,-0.392787 -0.174762,-0.0016 -0.172542,0.390803 -0.34731,0.392787 -0.176502,0.0022 -0.355522,-0.40518 -0.359708,-0.388652 -0.0042,0.0166 -0.163801,0.373166 -0.33077,0.376253 -0.178382,0.0032 -0.189683,-0.394957 -0.367988,-0.388659 -0.169301,0.006 -0.153119,0.389251 -0.322498,0.392791 -0.173702,0.0038 -0.173582,-0.390452 -0.347309,-0.388658 -0.165181,0.0016 -0.15744,0.369912 -0.322502,0.376253 -0.171402,0.0066 -0.192444,-0.36996 -0.363848,-0.363848 -0.16404,0.0058 -0.15838,0.369404 -0.322498,0.372121 -0.178442,0.0032 -0.185643,-0.402636 -0.363849,-0.392793 -0.164301,0.009 -0.129157,0.389642 -0.293559,0.396925 -0.178482,0.0078 -0.176922,-0.400766 -0.355576,-0.401058 -0.171802,-2.8e-4 -0.171482,0.378662 -0.343175,0.38452 -0.169481,0.0058 -0.194525,-0.365049 -0.363848,-0.355582 -0.16526,0.0092 -0.148838,0.377921 -0.314233,0.384526 -0.190904,0.0076 -0.206104,-0.422789 -0.396923,-0.413464 -0.173502,0.0084 -0.148859,0.404397 -0.322505,0.409325 -0.174701,0.0048 -0.172601,-0.397321 -0.347309,-0.392787 -0.16374,0.0042 -0.142318,0.377365 -0.30596,0.38452 -0.187964,0.0082 -0.200807,-0.41993 -0.388657,-0.409329 -0.168981,0.0096 -0.30596,0.405197 -0.30596,0.405197 0,0 -1.082615,-0.03112 -1.62286,-0.06663 -0.891674,-0.05859 -1.675943,-0.473743 -2.312589,-1.046658 -0.397315,-0.357545 -0.941409,-1.29809 -0.941409,-1.29809 l -0.0116,-0.204656 0.15788,-0.111093 1.976367,-0.163721 c 0.72405,0.603923 1.647237,1.028664 2.724824,0.57888 0.524549,-0.218947 0.891413,-0.605647 1.052501,-1.263003 0.124395,-0.50766 0.234133,-1.095363 0.06433,-1.60215 -0.168961,-0.504265 -0.49215,-1.005046 -1.011574,-1.23377 -0.757565,-0.333586 -1.545593,-0.376289 -2.362289,0.105253 -0.171401,0.101053 -0.219013,0.234117 -0.333296,0.339142 l -0.192964,0.03509 -1.958826,-0.163721 z"
       id="path10069"
       sodipodi:nodetypes="ccccccccscssscccscsssssssssssssssssssasssssssssssssssssssssssssaaaaasssssssaaasssssssssssssssssssssssssssssssssssssasssssssssssssssssssssssssscssccccssasscccc"
       inkscape:label="compensator_left">
      <title
         id="title5">metal</title>
    </path>
    <path
       style="fill:#5e5e5e;fill-rule:evenodd;stroke:#000000;stroke-width:0.0204409"
       d="m 156.24389,62.69515 c -0.004,0.239133 -0.18023,0.444105 -0.33491,0.653267 -0.36394,0.493256 -0.79646,0.949943 -1.39337,1.318949 -0.58587,0.309596 -1.20825,0.482312 -1.85645,0.558177 l -0.59952,-0.0042 -42.26752,-3.017395 0.1608,-2.216108 38.06098,2.763061 c 0.0444,0 0.28712,-0.07409 0.27495,-0.167461 -0.012,-0.09361 0.002,-0.283224 0.002,-0.283224 0,0 -0.21982,-0.796299 -0.26255,-1.205242 -0.023,-0.220696 -0.004,-0.443963 0.004,-0.665675 0.02,-0.492472 0.28118,-1.02108 0.30596,-1.414047 0.008,-0.118714 -0.26047,-0.243938 -0.26047,-0.243938 l -19.94597,0.012 -20.05901,-1.435502 c 0.002,0.0198 -0.15816,-0.02762 -0.20465,-0.304054 -0.0341,-0.203135 0.0702,-0.613962 0.0702,-0.613962 0,0 0.73416,-0.135817 1.0525,0.0116 0.14808,0.06863 0.15746,0.370749 0.32066,0.370018 0.17012,-5.3e-4 0.16074,-0.383249 0.33077,-0.388652 0.17438,-0.0056 0.1895,0.382784 0.36385,0.376247 0.17016,-0.0064 0.15638,-0.389255 0.32663,-0.392785 0.17462,-0.0038 0.1768,0.386318 0.35145,0.388652 0.1657,0.0022 0.17746,-0.359168 0.34317,-0.359714 0.17252,-5.29e-4 0.18728,0.377427 0.35971,0.37212 0.17392,-0.0054 0.16506,-0.39917 0.33904,-0.396926 0.16852,0.0022 0.14986,0.389743 0.31837,0.392791 0.17188,0.0032 0.1672,-0.383247 0.33904,-0.388656 0.188,-0.006 0.20936,0.415166 0.39692,0.401056 0.16328,-0.0122 0.12608,-0.385666 0.28943,-0.396924 0.16434,-0.0114 0.17846,0.353623 0.34317,0.355581 0.16078,0.0022 0.18243,-0.342895 0.34316,-0.339042 0.16283,0.0038 0.16803,0.364889 0.33079,0.359714 0.16642,-0.0052 0.14781,-0.379449 0.31424,-0.388652 0.19162,-0.0106 0.21756,0.414484 0.40931,0.40519 0.15942,-0.0078 0.14641,-0.365117 0.30597,-0.367979 0.15722,-0.0026 0.15722,0.347053 0.31422,0.351441 0.17543,0.0048 0.19663,-0.372616 0.37213,-0.372114 0.17062,4.86e-4 0.18922,0.36843 0.35971,0.363847 0.16402,-0.0042 0.16262,-0.366425 0.32664,-0.367986 0.16882,-0.0016 0.17442,0.377164 0.34316,0.372119 0.16542,-0.0048 0.14882,-0.378411 0.31424,-0.384518 0.18422,-0.0068 0.19622,0.408927 0.38039,0.401058 0.17442,-0.0074 0.15201,-0.406627 0.32664,-0.409331 0.18082,-0.0026 0.17062,0.415686 0.35144,0.413463 0.16662,-0.0022 0.14762,-0.38571 0.31422,-0.388652 0.18082,-0.0032 0.17482,0.412769 0.35558,0.409325 0.18043,-0.0032 0.15862,-0.419042 0.33905,-0.421731 0.17402,-0.0026 0.16502,0.397004 0.33904,0.396926 0.17202,-8e-5 0.16282,-0.390537 0.3349,-0.392791 0.16482,-0.0022 0.16582,0.366 0.33078,0.36798 0.16662,0.0022 0.17642,-0.365938 0.34316,-0.363848 0.17963,0.0022 0.18023,0.404149 0.35973,0.401065 0.17602,-0.0032 0.16302,-0.402223 0.33902,-0.405197 0.17762,-0.0032 0.17802,0.402326 0.35559,0.396923 0.16862,-0.0052 0.14581,-0.385392 0.31423,-0.396923 0.18483,-0.0126 0.21631,0.397432 0.40105,0.384518 0.16443,-0.0114 0.14122,-0.384996 0.30596,-0.388653 0.17102,-0.0038 0.16402,0.385199 0.33492,0.388653 0.17343,0.0038 0.18203,-0.383652 0.35557,-0.380386 0.16422,0.0032 0.15842,0.369665 0.3225,0.372119 0.16482,0.0026 0.17022,-0.358755 0.33492,-0.363847 0.19103,-0.0058 0.22313,0.413623 0.41345,0.396925 0.15142,-0.0132 0.11762,-0.35367 0.26876,-0.367982 0.17082,-0.0162 0.2053,0.366526 0.37624,0.351444 0.17162,-0.0152 0.13802,-0.405177 0.3101,-0.413464 0.19203,-0.0092 0.19703,0.439765 0.38865,0.42587 0.16422,-0.012 0.11281,-0.395026 0.27704,-0.409332 0.17582,-0.0152 0.19162,0.384864 0.36796,0.380386 0.17382,-0.0042 0.16942,-0.396236 0.34318,-0.392791 0.17343,0.0032 0.15322,0.399276 0.32664,0.405196 0.17643,0.006 0.18323,-0.389164 0.35971,-0.388656 0.17562,5.02e-4 0.18002,0.393881 0.35558,0.388656 0.15962,-0.0048 0.14242,-0.362545 0.30182,-0.372118 0.18202,-0.011 0.21085,0.391023 0.39281,0.380385 0.17402,-0.0102 0.15642,-0.403778 0.33076,-0.40519 0.17302,-0.0016 0.16202,0.390113 0.3349,0.396923 0.16642,0.0066 0.18483,-0.360497 0.35145,-0.35558 0.15042,0.0042 0.14722,0.338782 0.29769,0.339042 0.17483,3.02e-4 0.17263,-0.391584 0.34731,-0.392791 0.18442,-0.0011 0.18782,0.41358 0.37212,0.409329 0.17703,-0.0042 0.16182,-0.407248 0.33903,-0.409329 0.18082,-0.0022 0.17502,0.414034 0.35558,0.409329 0.16782,-0.0042 0.14222,-0.393605 0.3101,-0.396923 0.17702,-0.0038 0.16622,0.406345 0.34318,0.40519 0.17322,-0.0011 0.15762,-0.392765 0.33076,-0.401058 0.18683,-0.009 0.21005,0.406297 0.39693,0.396926 0.16542,-0.0084 0.14882,-0.376227 0.31424,-0.38452 0.17522,-0.0088 0.19683,0.377555 0.37211,0.372114 0.17282,-0.0054 0.17042,-0.393077 0.34318,-0.388652 0.16382,0.0042 0.14242,0.375729 0.30596,0.384518 0.16442,0.0088 0.18262,-0.351892 0.3473,-0.351442 0.17162,4.66e-4 0.18823,0.374259 0.35973,0.367982 0.17302,-0.0064 0.16182,-0.396482 0.3349,-0.396926 0.17202,-4.44e-4 0.16282,0.390485 0.3349,0.392791 0.16682,0.0022 0.16802,-0.372632 0.3349,-0.372118 0.16602,5.12e-4 0.16482,0.376633 0.33078,0.372118 0.17263,-0.0048 0.15002,-0.400167 0.3225,-0.405196 0.17763,-0.0052 0.17803,0.395729 0.35557,0.396925 0.16482,0.0011 0.17002,-0.361371 0.33492,-0.363847 0.17142,-0.0026 0.35553,0.384508 0.35971,0.36798 0.004,-0.0166 0.17902,-0.396686 0.35558,-0.392785 0.16642,0.0038 0.15202,0.381486 0.31836,0.384518 0.16982,0.0032 0.16922,-0.378025 0.33904,-0.380386 0.16482,-0.0022 0.17422,0.356333 0.33904,0.359715 0.16963,0.0038 0.19443,-0.361535 0.36385,-0.35558 0.16582,0.0058 0.16482,0.366762 0.33076,0.372118 0.16862,0.0054 0.19123,-0.359941 0.35973,-0.35558 0.16962,0.0042 0.17342,0.379327 0.34316,0.376253 0.16622,-0.0032 0.15642,-0.374501 0.3225,-0.380387 0.17142,-0.006 0.18822,0.372516 0.35972,0.367981 0.16682,-0.0042 0.16382,-0.377079 0.33077,-0.376253 0.17102,0.0011 0.16382,0.390251 0.3349,0.388659 0.16842,-0.0016 0.15422,-0.382764 0.3225,-0.388659 0.17142,-0.006 0.18402,0.368732 0.35558,0.372119 0.17442,0.0038 0.20193,-0.370912 0.37625,-0.363847 0.16682,0.0068 0.16402,0.384429 0.33078,0.376252 0.16282,-0.008 0.12302,-0.381575 0.28528,-0.396923 0.18342,-0.0174 0.21718,0.392161 0.40107,0.380385 0.16322,-0.0104 0.14661,-0.378581 0.31009,-0.380385 0.17203,-0.0022 0.16282,0.391235 0.33491,0.392785 0.17482,0.0016 0.17262,-0.390801 0.3473,-0.392785 0.17662,-0.0022 0.35552,0.40518 0.3597,0.388652 0.004,-0.0166 0.16382,-0.373168 0.33079,-0.376253 0.17842,-0.0032 0.18962,0.394956 0.36798,0.388659 0.16922,-0.006 0.15302,-0.389251 0.3225,-0.392791 0.17362,-0.0038 0.17362,0.390451 0.34731,0.388656 0.16522,-0.0016 0.15741,-0.369912 0.3225,-0.376252 0.17142,-0.0066 0.19242,0.36996 0.36384,0.363847 0.16402,-0.0058 0.15842,-0.369404 0.3225,-0.372119 0.17842,-0.0032 0.18562,0.402635 0.36385,0.392791 0.16422,-0.009 0.12921,-0.389642 0.29357,-0.396923 0.17843,-0.0078 0.17683,0.400766 0.35557,0.401056 0.17182,2.82e-4 0.17142,-0.378659 0.34318,-0.384518 0.16942,-0.0058 0.19462,0.365048 0.36385,0.35558 0.16522,-0.0092 0.14881,-0.377919 0.31423,-0.384524 0.19083,-0.0076 0.20611,0.422787 0.39691,0.413462 0.17343,-0.0084 0.14882,-0.404396 0.32252,-0.409323 0.17463,-0.0048 0.17263,0.397321 0.34731,0.392785 0.16382,-0.0042 0.14242,-0.377363 0.30596,-0.384518 0.18802,-0.0082 0.2008,0.41993 0.38864,0.409329 0.16903,-0.0096 0.30596,-0.405197 0.30596,-0.405197 0,0 1.08262,0.03112 1.62287,0.06663 0.89167,0.05859 1.67594,0.473743 2.31258,1.046658 0.39733,0.357545 0.94142,1.298092 0.94142,1.298092 l 0.012,0.204654 -0.15782,0.111094 -1.97636,0.16372 c -0.72405,-0.603923 -1.64725,-1.028664 -2.72482,-0.57888 -0.52455,0.218949 -0.89141,0.605649 -1.05251,1.263004 -0.12442,0.507661 -0.23413,1.095362 -0.0644,1.602151 0.16902,0.504263 0.49216,1.005044 1.01158,1.233768 0.75756,0.333586 1.5456,0.376289 2.3623,-0.105253 0.17142,-0.101052 0.21901,-0.234115 0.33328,-0.339142 l 0.19302,-0.03508 1.95883,0.16372 z"
       id="path10069-5"
       sodipodi:nodetypes="ccccccccscssscccscsssssssssssssssssssasssssssssssssssssssssssssaaaaasssssssaaasssssssssssssssssssssssssssssssssssssasssssssssssssssssssssssssscssccccssasscccc"
       inkscape:label="compensator_right">
      <title
         id="title6">metal</title>
    </path>
  </g>
  <g
     id="g3"
     inkscape:label="A1-130"
     transform="matrix(0.96894349,0,0,0.96894349,-3.8051225,18.012101)">
    <path
       style="fill:#5e5e5e;fill-rule:evenodd;stroke:#000000;stroke-width:0.0305359"
       d="m 32.800328,65.409615 -3.063567,-0.308824 c -0.30503,-0.140112 -0.419247,-0.378941 -0.247055,-0.765892 0,0 0.680689,-0.89683 1.062367,-1.309428 0.304593,-0.329269 0.611085,-0.66551 0.9759,-0.926487 0.317568,-0.227184 1.037659,-0.543536 1.037659,-0.543536 v -0.580591 l 3.12533,0.03708 c 0,0 0.245233,0.485657 0.469417,0.481775 0.244814,-0.0039 0.249296,-0.54644 0.494125,-0.543539 0.245173,0.0033 0.236716,0.547152 0.481776,0.555886 0.238598,0.0087 0.267792,-0.51229 0.506471,-0.506472 0.238958,0.0057 0.242783,0.535173 0.481776,0.531181 0.24831,-0.0039 0.234415,-0.546091 0.481766,-0.568245 0.270963,-0.0242 0.359153,0.544247 0.630013,0.518831 0.22414,-0.02092 0.20728,-0.513859 0.43235,-0.518831 0.25062,-0.0057 0.25608,0.544382 0.50649,0.555895 0.25622,0.01165 0.31278,-0.541854 0.56824,-0.518831 0.21654,0.01942 0.1788,0.498661 0.3953,0.518831 0.28159,0.0263 0.34753,-0.581945 0.63,-0.568245 0.2562,0.01255 0.26238,0.573208 0.51883,0.568245 0.24248,-0.0048 0.46942,-0.555895 0.46942,-0.555895 0,0 0.26235,0.572054 0.51883,0.568245 0.27152,-0.0039 0.25966,-0.621143 0.53119,-0.617656 0.26044,0.0033 0.2337,0.601045 0.49412,0.605306 0.2568,0.0039 0.24971,-0.586389 0.50647,-0.580601 0.25782,0.0057 0.22393,0.600618 0.48178,0.605306 0.2657,0.0048 0.25312,-0.601006 0.51883,-0.605306 0.26226,-0.0039 0.26889,0.584315 0.53118,0.580601 0.24457,-0.0033 0.23519,-0.552528 0.47977,-0.555214 0.24323,-0.0024 0.24589,0.540491 0.48915,0.541567 0.24523,7.92e-4 0.2527,-0.544579 0.4979,-0.541567 0.24759,0.0033 0.24179,0.547875 0.48916,0.559039 0.26127,0.01165 0.30627,-0.546832 0.56777,-0.541567 0.24705,0.0048 0.26839,0.540255 0.51536,0.532832 0.2415,-0.0072 0.47169,-0.550304 0.47169,-0.550304 h 7.53904 c 0,0 0.1754,0.531599 0.40148,0.549037 0.25249,0.01942 0.28417,-0.5388 0.53735,-0.537359 0.25637,0.0016 0.28118,0.555868 0.53734,0.549709 0.24503,-0.0057 0.24294,-0.54918 0.48796,-0.549709 0.23755,-5.14e-4 0.23815,0.52071 0.47561,0.531177 0.26475,0.01165 0.31593,-0.559101 0.58059,-0.543536 0.25817,0.01524 0.24173,0.59483 0.50029,0.59295 0.25011,-0.0016 0.2256,-0.571896 0.47559,-0.580591 0.24592,-0.0087 0.26026,0.535985 0.50648,0.537359 0.23725,0.0016 0.25697,-0.507081 0.49414,-0.512654 0.25488,-0.0063 0.30111,0.532412 0.55587,0.525004 0.24592,-0.0072 0.26027,-0.53672 0.50648,-0.537363 0.23875,-6.15e-4 0.25519,0.520137 0.49414,0.518831 0.24772,-0.0016 0.25877,-0.54443 0.50645,-0.543536 0.27401,7.92e-4 0.28268,0.624851 0.55591,0.605306 0.23636,-0.01703 0.16554,-0.562866 0.40148,-0.586774 0.25936,-0.0263 0.30156,0.551183 0.56206,0.543536 0.24323,-0.0072 0.49414,-0.537363 0.49414,-0.537363 0,0 0.31533,0.57559 0.58058,0.549722 0.24383,-0.0239 0.18168,-0.583621 0.42619,-0.599133 0.2516,-0.01584 0.26057,0.547798 0.51264,0.555895 0.24443,0.0078 0.28656,-0.511542 0.53119,-0.506484 0.24891,0.0057 0.27013,0.545174 0.51882,0.537363 0.25399,-0.0081 0.23995,-0.587422 0.49414,-0.580591 0.26146,0.0072 0.21455,0.610532 0.47559,0.623829 0.27072,0.01374 0.28506,-0.588585 0.5559,-0.592947 0.2504,-0.0039 0.28118,0.548027 0.53116,0.531177 0.2271,-0.01524 0.41386,-0.543536 0.41386,-0.543536 h 3.11914 c 0,0 12.670334,4.28992 12.753764,4.289549 0.15448,-6.96e-4 0.34862,0.432852 0.29253,0.467316 -0.0977,0.186636 -0.24024,0.319804 -0.45422,0.366869 l -10.905984,-0.0404 -2.97709,-1.488549 h -30.90534 c -0.17558,0.05749 -0.41752,0.06033 -0.47168,0.266777 l -0.0699,0.266418 v 4.259806 c 0.0918,0.280342 0.23579,0.482328 0.49014,0.51883 h 40.06628 l -0.0269,1.960383 -14.49695,2.539235 H 35.122712 c -1.578422,0.04443 -2.665835,-0.519993 -3.668867,-1.189043 -0.828863,-0.618415 -1.521349,-1.336847 -2.001203,-2.211209 -0.07067,-0.45419 0.101565,-0.648155 0.355122,-0.755006 l 3.079039,-0.276458 c 0,0 0.506143,0.377312 0.802947,0.463234 0.98171,0.284197 2.136119,0.552904 3.06357,0.123528 0.716084,-0.331523 1.218826,-1.113219 1.457664,-1.865314 0.232085,-0.730821 0.181407,-1.588898 -0.111187,-2.297676 -0.262503,-0.63599 -0.766169,-1.228077 -1.383547,-1.531786 -0.740846,-0.364448 -1.562032,-0.183528 -2.334739,-0.08647 -0.259845,0.03266 -0.511313,0.12278 -0.753536,0.222343 -0.289666,0.119076 -0.827662,0.444714 -0.827662,0.444714 z"
       id="path10070"
       sodipodi:nodetypes="cccsscccssssssssssssscsssssssssssssccssssssssssssssssscsssssssssccscccccscccccccccccsssssaac"
       inkscape:label="compensator_left">
      <title
         id="title7">metal</title>
    </path>
    <path
       style="fill:#5e5e5e;fill-rule:evenodd;stroke:#000000;stroke-width:0.0305359"
       d="m 181.88781,65.440844 3.06357,-0.308825 c 0.30502,-0.140111 0.41926,-0.37894 0.24711,-0.765892 0,0 -0.68068,-0.896829 -1.06235,-1.309428 -0.30461,-0.329269 -0.61109,-0.66551 -0.97591,-0.926486 -0.31754,-0.227184 -1.03764,-0.543536 -1.03764,-0.543536 v -0.580592 l -3.12533,0.03708 c 0,0 -0.24533,0.485657 -0.46943,0.481776 -0.24473,-0.0039 -0.24921,-0.546441 -0.49411,-0.543536 -0.24532,0.0033 -0.23666,0.547148 -0.48177,0.555883 -0.23875,0.0087 -0.26774,-0.51229 -0.50648,-0.506472 -0.23905,0.0057 -0.24293,0.535172 -0.48177,0.53118 -0.24831,-0.0039 -0.23457,-0.546091 -0.48177,-0.568245 -0.27102,-0.0242 -0.35917,0.544248 -0.63001,0.518831 -0.22411,-0.02092 -0.20737,-0.513855 -0.43238,-0.518831 -0.2507,-0.0057 -0.25608,0.544382 -0.50648,0.555895 -0.25608,0.01165 -0.31276,-0.541854 -0.56821,-0.51883 -0.21664,0.01942 -0.17869,0.498661 -0.39533,0.51883 -0.28147,0.0263 -0.34751,-0.581945 -0.63001,-0.568241 -0.25607,0.01255 -0.26235,0.573205 -0.51882,0.568241 -0.24233,-0.0048 -0.4694,-0.555895 -0.4694,-0.555895 0,0 -0.26235,0.572055 -0.51885,0.568245 -0.27161,-0.0039 -0.25966,-0.621143 -0.53119,-0.617656 -0.26026,0.0033 -0.23367,0.601045 -0.49411,0.605306 -0.25668,0.0039 -0.2498,-0.586388 -0.50648,-0.5806 -0.25787,0.0057 -0.22381,0.600618 -0.48177,0.605306 -0.26564,0.0048 -0.25309,-0.601006 -0.51882,-0.605306 -0.26236,-0.0039 -0.26893,0.584315 -0.53119,0.5806 -0.24473,-0.0033 -0.23517,-0.552527 -0.47977,-0.555213 -0.24323,-0.0024 -0.24592,0.540491 -0.48915,0.541567 -0.24532,7.92e-4 -0.25279,-0.544579 -0.49791,-0.541567 -0.24771,0.0033 -0.24173,0.547875 -0.48915,0.559038 -0.26116,0.01165 -0.30628,-0.546832 -0.56776,-0.541567 -0.24712,0.0048 -0.26833,0.540255 -0.51536,0.532833 -0.24144,-0.0072 -0.4717,-0.550304 -0.4717,-0.550304 h -7.53903 c 0,0 -0.1754,0.531598 -0.40148,0.549037 -0.2525,0.01942 -0.28417,-0.5388 -0.53738,-0.53736 -0.25638,0.0016 -0.28118,0.555868 -0.53735,0.54971 -0.24502,-0.0057 -0.24293,-0.549181 -0.48795,-0.54971 -0.23756,-5.14e-4 -0.23815,0.52071 -0.47559,0.531178 -0.26474,0.01165 -0.31596,-0.559102 -0.58061,-0.543537 -0.25817,0.01524 -0.24174,0.594833 -0.5003,0.592951 -0.2501,-0.0016 -0.2256,-0.571897 -0.47558,-0.580592 -0.24592,-0.0087 -0.26026,0.535985 -0.50648,0.53736 -0.23726,0.0016 -0.25698,-0.507082 -0.49411,-0.512654 -0.25489,-0.0063 -0.30114,0.532411 -0.55591,0.525004 -0.24592,-0.0072 -0.26026,-0.536721 -0.50648,-0.53736 -0.23875,-6.19e-4 -0.25518,0.520133 -0.49411,0.518828 -0.24771,-0.0016 -0.25877,-0.54443 -0.50648,-0.543537 -0.27401,7.92e-4 -0.28267,0.624851 -0.5559,0.605306 -0.23636,-0.01703 -0.16554,-0.562866 -0.40145,-0.586773 -0.25937,-0.0263 -0.30156,0.551182 -0.56209,0.543536 -0.24323,-0.0072 -0.49411,-0.53736 -0.49411,-0.53736 0,0 -0.31534,0.575586 -0.58059,0.549718 -0.24383,-0.0239 -0.18167,-0.583621 -0.42619,-0.599132 -0.2516,-0.01584 -0.26056,0.547797 -0.51266,0.555895 -0.24443,0.0078 -0.28656,-0.511543 -0.53117,-0.506481 -0.24891,0.0057 -0.27012,0.545171 -0.51885,0.53736 -0.25399,-0.0081 -0.23994,-0.587423 -0.49411,-0.580592 -0.26146,0.0072 -0.21454,0.610532 -0.47558,0.623829 -0.27072,0.01375 -0.28507,-0.588584 -0.55591,-0.592947 -0.2504,-0.0039 -0.28148,0.548027 -0.53119,0.531178 -0.22709,-0.01524 -0.41382,-0.543537 -0.41382,-0.543537 h -3.11915 c 0,0 -12.67032,4.28992 -12.75378,4.28955 -0.15449,-6.96e-4 -0.34862,0.432851 -0.29254,0.467316 0.0977,0.186636 0.24025,0.319803 0.45422,0.366868 l 10.90599,-0.0404 2.97709,-1.488546 h 30.90543 c 0.1757,0.05746 0.41753,0.06033 0.4717,0.266776 l 0.0699,0.266418 v 4.259806 c -0.0917,0.280343 -0.23576,0.482328 -0.49016,0.518831 h -40.06624 l 0.0269,1.960383 14.49697,2.539235 h 32.79442 c 1.57842,0.04443 2.66582,-0.519993 3.66886,-1.189044 0.82887,-0.618415 1.52136,-1.336846 2.00121,-2.211209 0.0708,-0.454189 -0.10159,-0.648155 -0.35513,-0.755006 l -3.07905,-0.276458 c 0,0 -0.50612,0.377312 -0.80293,0.463234 -0.98173,0.284198 -2.13612,0.552904 -3.06356,0.123528 -0.7161,-0.331522 -1.21884,-1.113218 -1.45768,-1.865314 -0.23218,-0.73082 -0.18138,-1.588898 0.11116,-2.297675 0.26265,-0.635991 0.76614,-1.228077 1.38354,-1.531784 0.74084,-0.364451 1.56202,-0.183528 2.33474,-0.08647 0.25997,0.03266 0.51129,0.122781 0.75354,0.222344 0.28954,0.119075 0.82764,0.444714 0.82764,0.444714 z"
       id="path10070-0"
       sodipodi:nodetypes="cccsscccssssssssssssscsssssssssssssccssssssssssssssssscsssssssssccscccccscccccccccccsssssaac"
       inkscape:label="compensator_right">
      <title
         id="title8">metal</title>
    </path>
    <path
       style="fill:#5e5e5e;fill-rule:evenodd;stroke:#000000;stroke-width:0.0305359"
       d="m 73.248949,64.815297 h -2.5506 c -0.17899,0.03218 -0.32726,0.125858 -0.40181,0.366871 l -0.035,4.140369 c 0.043,0.264267 0.12311,0.489578 0.41929,0.48915 h 73.478481 c 0.28805,-0.04404 0.46895,-0.20056 0.52408,-0.48915 v -4.175315 c -0.1007,-0.198409 -0.23934,-0.370744 -0.55904,-0.419276 h -2.48071 l -3.12712,1.537356 H 76.375999 Z"
       id="path10071"
       sodipodi:nodetypes="ccccccccccccc"
       inkscape:label="compensator_middle">
      <title
         id="title9">metal</title>
    </path>
  </g>
  <g
     id="g4"
     inkscape:label="A1-170"
     transform="translate(-3.9575198,8.8607876)">
    <path
       style="fill:#5e5e5e;fill-rule:evenodd;stroke:#000000;stroke-width:0.0303695"
       d="m 25.486942,93.587846 c -0.0645,-0.0645 -1.40516,0.81754 -2.00259,1.36373 -0.41973,0.38372 -1.11139,1.33628 -1.06887,1.44971 0,0 -0.0297,0.32396 0.049,0.45457 0.0713,0.11887 0.34399,0.23358 0.34399,0.23358 l 2.98545,0.25796 c 0,0 0.26062,-0.0556 0.38086,-0.11055 0.17772,-0.0814 0.3061,-0.25766 0.49142,-0.31941 0.92284,-0.30776 2.02948,-0.6064 2.91175,-0.19644 0.83425,0.38749 1.40593,1.33262 1.63402,2.22372 0.18425,0.72045 0.0776,1.567684 -0.2948,2.211444 -0.36702,0.63463 -1.03624,1.15027 -1.7446,1.33915 -0.86236,0.23002 -1.81307,-0.0565 -2.65374,-0.35629 -0.23566,-0.0841 -0.63885,-0.39314 -0.63885,-0.39314 l -3.12061,0.31944 c -0.0333,0 -0.39463,0.23002 -0.35626,0.40545 0.0327,0.14948 0.12274,0.44226 0.12274,0.44226 0,0 0.83724,1.2117 1.40058,1.67087 0.64197,0.52328 1.42846,0.84667 2.18687,1.17945 0.67166,0.29481 2.10086,0.43725 2.10086,0.38084 h 32.66794 l 14.32526,-2.5677 v -1.92888 h -40.02713 c -0.2211,-0.0737 -0.35219,-0.22943 -0.39317,-0.46688 v -4.373734 c 0.0927,-0.20743 0.25557,-0.30042 0.47914,-0.2948 h 30.96023 l 3.05303,1.48044 h 10.80972 c 0,0 0.31483,-0.25053 0.31275,-0.42702 -0.002,-0.1899 -0.34749,-0.45175 -0.34749,-0.45175 l -12.71831,-4.15257 -3.05796,0.0348 c 0,0 -0.19466,0.4974 -0.41267,0.50821 -0.24428,0.0119 -0.27221,-0.52324 -0.51688,-0.52122 -0.24666,0.002 -0.26568,0.53804 -0.51255,0.53427 -0.25944,-0.003 -0.26182,-0.58102 -0.52126,-0.57772 -0.26687,0.003 -0.25438,0.60604 -0.52122,0.60812 -0.25142,0.002 -0.24815,-0.56319 -0.49953,-0.56467 -0.22854,-0.002 -0.23181,0.50214 -0.46046,0.50821 -0.26508,0.006 -0.29964,-0.56896 -0.56467,-0.56034 -0.25112,0.009 -0.24815,0.56343 -0.4995,0.56468 -0.23983,0.002 -0.2422,-0.53068 -0.48218,-0.53428 -0.24963,-0.003 -0.26865,0.54114 -0.51828,0.5409 -0.24904,-2.7e-4 -0.26717,-0.55258 -0.51603,-0.5406 -0.21842,0.0119 -0.18811,0.49091 -0.40541,0.51603 -0.26063,0.03 -0.35249,-0.50596 -0.6143,-0.49145 -0.2428,0.0149 -0.27282,0.5214 -0.516,0.51602 -0.26092,-0.006 -0.26746,-0.58289 -0.5283,-0.57745 -0.23537,0.006 -0.21961,0.52628 -0.45457,0.54057 -0.24576,0.0149 -0.2945,-0.51112 -0.54057,-0.50372 -0.2315,0.006 -0.24755,0.49403 -0.47914,0.50372 -0.24637,0.009 -0.30634,-0.49567 -0.55288,-0.49142 -0.23745,0.003 -0.27846,0.49285 -0.51599,0.49142 -0.23448,-0.002 -0.26925,-0.49992 -0.50373,-0.49142 -0.24071,0.009 -0.23833,0.53332 -0.47914,0.54058 -0.24309,0.006 -0.27281,-0.52052 -0.516,-0.51603 -0.23477,0.006 -0.24458,0.51035 -0.47914,0.51603 -0.25766,0.006 -0.2954,-0.54997 -0.55288,-0.54058 -0.23477,0.009 -0.23209,0.52105 -0.46687,0.5283 -0.26063,0.009 -0.55284,-0.55287 -0.55284,-0.55287 h -7.42061 c 0,0 -0.18425,0.51005 -0.40545,0.5283 -0.25706,0.0208 -0.30776,-0.54402 -0.56515,-0.5283 -0.22912,0.0149 -0.21307,0.51317 -0.44229,0.5283 -0.26598,0.0178 -0.32318,-0.5494 -0.58973,-0.54058 -0.25468,0.009 -0.2734,0.55927 -0.52826,0.55285 -0.23805,-0.006 -0.22883,-0.5346 -0.46688,-0.54057 -0.25468,-0.006 -0.2734,0.55602 -0.52829,0.55287 -0.2434,-0.003 -0.24785,-0.54636 -0.49142,-0.5406 -0.24429,0.006 -0.22289,0.5549 -0.46687,0.56515 -0.26331,0.0119 -0.28946,-0.56515 -0.55285,-0.56515 -0.2636,0 -0.28945,0.57481 -0.55288,0.56515 -0.24101,-0.009 -0.22556,-0.54729 -0.46684,-0.55285 -0.22883,-0.006 -0.23804,0.49392 -0.46687,0.50373 -0.24339,0.009 -0.29718,-0.49873 -0.54057,-0.49145 -0.23448,0.006 -0.25676,0.5009 -0.49145,0.50372 -0.24606,0.003 -0.28202,-0.52031 -0.52827,-0.516 -0.24903,0.006 -0.26687,0.53766 -0.51599,0.54058 -0.26657,0.003 -0.299,-0.57662 -0.56515,-0.56515 -0.23507,0.009 -0.21932,0.53044 -0.4546,0.54057 -0.23715,0.009 -0.26627,-0.50518 -0.50369,-0.50372 -0.23448,0.002 -0.25677,0.50226 -0.49145,0.50372 -0.24309,0.002 -0.27281,-0.51885 -0.51599,-0.516 -0.24904,0.003 -0.26687,0.54518 -0.516,0.54058 -0.24072,-0.006 -0.23864,-0.52919 -0.47917,-0.54058 -0.25172,-0.0119 -0.30093,0.52524 -0.55285,0.516 -0.22289,-0.009 -0.2315,-0.48307 -0.45457,-0.49145 -0.24042,-0.009 -0.30746,0.5867 -0.5283,0.49145 -0.27251,-0.11768 -0.55748,-0.64765 -0.54057,-0.54057 h -2.98545 z"
       id="path10072"
       sodipodi:nodetypes="cscsccsssssssccscsscccccccccccscccssssassssssssssssssssssssssccssssssssssssssssaasssssssssccc"
       inkscape:label="compensator_left">
      <title
         id="title10">metal</title>
    </path>
    <path
       style="fill:#5e5e5e;fill-rule:evenodd;stroke:#000000;stroke-width:0.0303695"
       d="m 189.28325,93.627256 c 0.0645,-0.0645 1.40516,0.81754 2.00259,1.36373 0.41971,0.38372 1.11139,1.3363 1.06887,1.44971 0,0 0.0297,0.32396 -0.049,0.4546 -0.0713,0.11887 -0.34401,0.23328 -0.34401,0.23328 l -2.98545,0.25796 c 0,0 -0.26063,-0.0556 -0.38084,-0.11056 -0.17772,-0.0814 -0.3061,-0.25765 -0.49145,-0.31941 -0.92281,-0.30776 -2.02948,-0.60636 -2.91172,-0.19643 -0.83425,0.38749 -1.40593,1.33262 -1.63402,2.22371 -0.18425,0.72046 -0.0776,1.567694 0.2948,2.211484 0.36702,0.6346 1.03624,1.15024 1.74458,1.33915 0.86239,0.23002 1.8131,-0.0565 2.65373,-0.35632 0.23567,-0.0841 0.63888,-0.39314 0.63888,-0.39314 l 3.12058,0.31944 c 0.0333,0 0.39463,0.23002 0.35629,0.40545 -0.0327,0.14948 -0.12273,0.44229 -0.12273,0.44229 0,0 -0.83728,1.2117 -1.40059,1.67084 -0.64197,0.52328 -1.42846,0.84667 -2.18686,1.17945 -0.67169,0.29481 -2.1009,0.43725 -2.1009,0.38087 h -32.66794 l -14.32525,-2.56773 v -1.92889 h 40.02715 c 0.22111,-0.0737 0.35219,-0.22942 0.39314,-0.46687 v -4.373734 c -0.0924,-0.20743 -0.25557,-0.30042 -0.47914,-0.2948 h -30.96023 l -3.05302,1.48044 h -10.80972 c 0,0 -0.31481,-0.25053 -0.31273,-0.42702 0.002,-0.1899 0.3475,-0.45175 0.3475,-0.45175 l 12.7183,-4.15257 3.05796,0.0348 c 0,0 0.19466,0.49739 0.41264,0.50821 0.24428,0.0119 0.27222,-0.52325 0.51692,-0.52122 0.24666,0.002 0.26568,0.53804 0.51254,0.53427 0.25944,-0.003 0.26182,-0.58099 0.52126,-0.57772 0.26687,0.003 0.25439,0.60604 0.52122,0.60812 0.25142,0.002 0.24815,-0.56319 0.49954,-0.56467 0.22853,-0.002 0.2318,0.50214 0.46042,0.5082 0.26508,0.006 0.29965,-0.56895 0.56467,-0.56033 0.25112,0.009 0.24815,0.56343 0.49953,0.56467 0.23983,0.002 0.24221,-0.53067 0.48215,-0.53427 0.24963,-0.003 0.26865,0.54114 0.51831,0.5409 0.24904,-2.7e-4 0.26717,-0.55255 0.516,-0.5406 0.21843,0.0119 0.18811,0.49091 0.40544,0.51602 0.26033,0.03 0.35246,-0.50595 0.61431,-0.49144 0.24279,0.0149 0.27281,0.5214 0.51599,0.51602 0.26093,-0.006 0.26746,-0.58289 0.52827,-0.57745 0.23537,0.006 0.21962,0.52628 0.4546,0.54057 0.24577,0.0149 0.2945,-0.51112 0.54057,-0.50372 0.2315,0.006 0.24755,0.49403 0.47914,0.50372 0.24637,0.009 0.30634,-0.49567 0.55285,-0.49142 0.23745,0.003 0.27846,0.49285 0.51603,0.49142 0.23447,-0.002 0.26924,-0.49992 0.50369,-0.49142 0.24071,0.009 0.23834,0.53332 0.47917,0.54057 0.2431,0.006 0.27281,-0.52051 0.516,-0.51599 0.23477,0.006 0.24458,0.51032 0.47914,0.51599 0.25766,0.006 0.2954,-0.54996 0.55285,-0.54057 0.23477,0.009 0.2321,0.52105 0.46687,0.5283 0.26063,0.009 0.55285,-0.55287 0.55285,-0.55287 h 7.42063 c 0,0 0.18426,0.51005 0.40545,0.52829 0.25706,0.0208 0.30776,-0.54402 0.56515,-0.52829 0.22912,0.0149 0.21308,0.51317 0.44226,0.52829 0.26598,0.0178 0.32322,-0.54939 0.58973,-0.54057 0.25468,0.009 0.2734,0.55927 0.5283,0.55285 0.23804,-0.006 0.22883,-0.53457 0.46684,-0.54057 0.25498,-0.006 0.2734,0.55602 0.5283,0.55287 0.24339,-0.003 0.24785,-0.54634 0.49144,-0.5406 0.24429,0.006 0.22259,0.5549 0.46685,0.56515 0.2633,0.0119 0.28945,-0.56515 0.55287,-0.56515 0.2636,0 0.28946,0.57481 0.55285,0.56515 0.24101,-0.009 0.22585,-0.54729 0.46687,-0.55285 0.22883,-0.006 0.23804,0.49392 0.46687,0.50372 0.24339,0.009 0.29718,-0.49873 0.54057,-0.49144 0.23448,0.006 0.25677,0.50089 0.49142,0.50372 0.24607,0.003 0.28232,-0.52031 0.5283,-0.516 0.24904,0.006 0.26687,0.53769 0.51599,0.54057 0.26628,0.003 0.299,-0.57662 0.56515,-0.56514 0.23507,0.009 0.21932,0.53043 0.45457,0.54057 0.23715,0.009 0.26628,-0.50518 0.50372,-0.50372 0.23448,0.002 0.25677,0.50226 0.49145,0.50372 0.2431,0.002 0.27281,-0.51882 0.516,-0.516 0.24903,0.003 0.26687,0.54518 0.51599,0.54057 0.24072,-0.006 0.23864,-0.52919 0.47915,-0.54057 0.25171,-0.0119 0.30095,0.52524 0.55287,0.516 0.22289,-0.009 0.23151,-0.48307 0.45457,-0.49142 0.24042,-0.009 0.30743,0.58666 0.5283,0.49142 0.27251,-0.11769 0.55748,-0.64765 0.54057,-0.54057 h 2.98545 z"
       id="path10072-4"
       sodipodi:nodetypes="cscsccsssssssccscsscccccccccccscccssssassssssssssssssssssssssccssssssssssssssssaasssssssssccc"
       inkscape:label="compensator_right">
      <title
         id="title11">metal</title>
    </path>
    <path
       style="fill:#5e5e5e;fill-rule:evenodd;stroke:#000000;stroke-width:0.0303695"
       d="m 53.002182,96.713955 h -2.51935 c -0.28084,0.0419 -0.43504,0.25527 -0.48649,0.60812 v 3.822435 c 0.0562,0.24755 0.11085,0.49608 0.48649,0.50387 H 164.47622 c 0.20476,-0.0894 0.29688,-0.22437 0.27014,-0.40646 v -4.103445 c -0.0482,-0.23626 -0.22824,-0.39127 -0.57745,-0.44229 h -2.55543 l -3.01003,1.44973 h -39.56002 c 0,0 -0.24636,0.53208 -0.48648,0.53136 -0.24607,-7.1e-4 -0.24934,-0.53914 -0.4952,-0.54729 -0.24963,-0.009 -0.28886,0.52539 -0.53861,0.52123 -0.24161,-0.003 -0.26211,-0.51814 -0.50387,-0.52123 -0.2312,-0.003 -0.26389,0.47757 -0.49516,0.48649 -0.23834,0.009 -0.30919,-0.47169 -0.54732,-0.46042 -0.24339,0.0119 -0.26895,0.52532 -0.51255,0.52122 -0.24398,-0.003 -0.25141,-0.54512 -0.49519,-0.53861 -0.23656,0.006 -0.21546,0.53787 -0.45174,0.54732 -0.26182,0.0119 -0.2853,-0.57035 -0.54729,-0.5647 -0.24399,0.006 -0.2425,0.54307 -0.48652,0.54731 -0.25587,0.006 -0.274,-0.55804 -0.5299,-0.55599 -0.25617,0.002 -0.26509,0.56467 -0.52126,0.56467 -0.25617,0 -0.26508,-0.56922 -0.52122,-0.56467 -0.24429,0.006 -0.23359,0.55112 -0.47781,0.55599 -0.22942,0.006 -0.23953,-0.50752 -0.46913,-0.50387 -0.2422,0.003 -0.23596,0.53547 -0.47781,0.54732 -0.27013,0.0119 -0.32051,-0.56568 -0.59073,-0.55599 -0.24785,0.009 -0.25588,0.55029 -0.50387,0.54729 -0.25023,-0.003 -0.24518,-0.55347 -0.4952,-0.56468 -0.25587,-0.0119 -0.29997,0.533 -0.55599,0.52993 -0.24993,-0.003 -0.28024,-0.54104 -0.52994,-0.52993 -0.23001,0.009 -0.21278,0.52809 -0.44303,0.52993 -0.25261,0.002 -0.2425,-0.57367 -0.4952,-0.57335 -0.24428,3e-4 -0.23388,0.54004 -0.4778,0.55597 -0.26004,0.0178 -0.32239,-0.54137 -0.58203,-0.52123 -0.24637,0.0178 -0.22229,0.56474 -0.46913,0.57336 -0.2743,0.009 -0.29035,-0.60946 -0.56468,-0.59942 -0.23863,0.009 -0.21307,0.54577 -0.45174,0.556 -0.23329,0.009 -0.2532,-0.49888 -0.48649,-0.50387 -0.24368,-0.006 -0.28618,0.50693 -0.52993,0.50387 -0.26211,-0.003 -0.29391,-0.5582 -0.55599,-0.556 -0.24577,0.002 -0.26687,0.52907 -0.51255,0.52993 -0.211,7.2e-4 -0.2321,-0.45566 -0.44307,-0.45174 -0.21932,0.003 -0.22407,0.47712 -0.44307,0.48648 -0.26419,0.0119 -0.31801,-0.55136 -0.58206,-0.53861 -0.24784,0.0119 -0.24725,0.54682 -0.49516,0.556 -0.25379,0.009 -0.293908,-0.54604 -0.547318,-0.52993 -0.24071,0.0149 -0.211,0.55225 -0.45174,0.56467 -0.26776,0.0149 -0.29659,-0.5801 -0.56468,-0.57338 -0.24814,0.006 -0.24695,0.55775 -0.49516,0.556 -0.25647,-0.002 -0.24725,-0.58385 -0.50387,-0.58206 -0.23834,0.002 -0.22229,0.53424 -0.46045,0.54731 -0.25974,0.0149 -0.30497,-0.55367 -0.56467,-0.53861 -0.24429,0.0149 -0.22438,0.56105 -0.4691,0.56468 -0.26271,0.003 -0.52126,-0.59074 -0.52126,-0.59074 h -39.58837 z"
       id="path10073"
       sodipodi:nodetypes="ccccccccccccsssssssssssssssssssssssssssssssssssssssssssssccc"
       inkscape:label="compensator_middle">
      <title
         id="title12">metal</title>
    </path>
  </g>
  <g
     id="g5"
     inkscape:label="A1-200">
    <path
       style="fill:#5e5e5e;fill-rule:evenodd;stroke:#000000;stroke-width:0.0302518"
       d="m 204.71039,129.0052 c 0.0642,-0.0642 1.39972,0.81437 1.99483,1.35844 0.41808,0.38227 1.10708,1.33113 1.06472,1.44412 0,0 0.0296,0.32267 -0.0488,0.45281 -0.0711,0.11841 -0.34266,0.23268 -0.34266,0.23268 l -2.97387,0.25695 c 0,0 -0.25962,-0.0554 -0.37939,-0.11012 -0.17703,-0.0811 -0.30491,-0.25666 -0.48952,-0.3182 -0.91926,-0.30657 -2.02161,-0.60402 -2.90046,-0.19568 -0.83101,0.38602 -1.40048,1.32745 -1.62769,2.21513 -0.18353,0.71763 -0.0773,1.56158 0.29366,2.20287 0.3656,0.63214 1.03223,1.14578 1.73784,1.33396 0.85902,0.22913 1.80605,-0.0562 2.64345,-0.35491 0.23475,-0.0838 0.63638,-0.39164 0.63638,-0.39164 l 3.10848,0.3182 c 0.0331,0 0.39313,0.22913 0.35491,0.40387 -0.0326,0.1489 -0.12226,0.44058 -0.12226,0.44058 0,0 -0.83403,1.207 -1.39516,1.66439 -0.63948,0.52125 -1.42292,0.84336 -2.17839,1.17486 -0.66908,0.29366 -2.09271,0.43557 -2.09271,0.37939 h -32.54149 l -14.26973,-2.55778 v -1.92141 h 39.87197 c 0.22025,-0.0734 0.35083,-0.22853 0.39162,-0.46503 v -4.35681 c -0.0921,-0.20663 -0.25459,-0.29925 -0.47726,-0.29366 h -30.84021 l -3.0412,1.4747 h -10.76781 c 0,0 -0.31362,-0.24955 -0.31154,-0.42536 0.002,-0.18917 0.34614,-0.45 0.34614,-0.45 l 12.66901,-4.13647 3.04611,0.0346 c 0,0 0.1939,0.49547 0.41106,0.50624 0.24334,0.0119 0.27116,-0.52124 0.51489,-0.51923 0.2457,0.002 0.26465,0.53596 0.51056,0.5322 0.25843,-0.003 0.2608,-0.57874 0.51923,-0.57545 0.26584,0.003 0.2534,0.60366 0.51921,0.60573 0.25044,0.002 0.24718,-0.561 0.49759,-0.56248 0.22765,-0.002 0.2309,0.5002 0.45867,0.50624 0.26406,0.006 0.29848,-0.56675 0.56248,-0.55816 0.25015,0.009 0.24719,0.56124 0.49757,0.56248 0.23889,0.002 0.24126,-0.52862 0.48031,-0.5322 0.24866,-0.003 0.26761,0.53904 0.51627,0.5388 0.24807,-2.3e-4 0.26613,-0.5504 0.51403,-0.53847 0.21758,0.0118 0.18738,0.48898 0.40384,0.51399 0.25962,0.0299 0.35112,-0.50396 0.61192,-0.48954 0.24186,0.0148 0.27175,0.51941 0.51399,0.51402 0.25992,-0.006 0.26643,-0.58063 0.52626,-0.57521 0.23445,0.006 0.21876,0.52424 0.4528,0.53847 0.24482,0.0148 0.29337,-0.50914 0.53848,-0.50173 0.2306,0.006 0.24659,0.49208 0.47729,0.50173 0.2454,0.009 0.30514,-0.49374 0.55073,-0.48951 0.23653,0.003 0.27738,0.49097 0.51399,0.48951 0.23357,-0.002 0.26821,-0.49798 0.50177,-0.48951 0.23979,0.009 0.23742,0.53125 0.47729,0.53848 0.24215,0.006 0.27175,-0.5185 0.51399,-0.514 0.23387,0.006 0.24364,0.50837 0.47729,0.514 0.25666,0.006 0.29426,-0.54783 0.55073,-0.53848 0.23387,0.009 0.2312,0.51903 0.46504,0.52625 0.25961,0.009 0.55073,-0.55073 0.55073,-0.55073 h 7.39184 c 0,0 0.18354,0.50807 0.40388,0.52625 0.25606,0.0207 0.30656,-0.54191 0.56295,-0.52625 0.22824,0.0148 0.21226,0.51118 0.44058,0.52625 0.26495,0.0178 0.32194,-0.54727 0.58744,-0.53848 0.2537,0.009 0.27235,0.5571 0.52622,0.55071 0.23712,-0.006 0.22795,-0.5325 0.46507,-0.53848 0.25369,-0.006 0.27234,0.55387 0.52625,0.55073 0.24244,-0.003 0.24689,-0.54422 0.48951,-0.53847 0.24334,0.006 0.22202,0.55274 0.46506,0.56295 0.26228,0.0118 0.28804,-0.56295 0.5507,-0.56295 0.26258,0 0.28834,0.57254 0.55074,0.56295 0.24008,-0.009 0.22498,-0.54519 0.46503,-0.55073 0.22794,-0.006 0.23712,0.49203 0.46506,0.50177 0.24245,0.009 0.29603,-0.4968 0.53848,-0.48954 0.23356,0.006 0.25577,0.49895 0.48954,0.50177 0.24511,0.003 0.28093,-0.51829 0.52622,-0.514 0.24807,0.006 0.26584,0.53561 0.514,0.53848 0.26524,0.003 0.29783,-0.57439 0.56295,-0.56296 0.23416,0.009 0.21847,0.52838 0.45284,0.53848 0.23623,0.009 0.26524,-0.50322 0.50174,-0.50177 0.23357,0.002 0.25577,0.50035 0.48954,0.50177 0.24245,0.002 0.27176,-0.51681 0.514,-0.514 0.24807,0.003 0.26583,0.54307 0.51399,0.53848 0.23979,-0.006 0.23771,-0.52714 0.47732,-0.53848 0.25074,-0.0118 0.29976,0.5232 0.5507,0.514 0.22202,-0.009 0.23061,-0.48117 0.45281,-0.48952 0.23949,-0.009 0.30627,0.58439 0.52625,0.48952 0.27146,-0.11723 0.55532,-0.64511 0.53848,-0.53848 h 2.97387 z"
       id="path10072-4-1"
       sodipodi:nodetypes="cscsccsssssssccscsscccccccccccscccssssassssssssssssssssssssssccssssssssssssssssaasssssssssccc"
       inkscape:label="compensator_right">
      <title
         id="title13">metal</title>
    </path>
    <path
       style="fill:#5e5e5e;fill-rule:evenodd;stroke:#000000;stroke-width:0.0302518"
       d="m 10.889966,128.90878 c -0.0643,-0.0642 -1.3997113,0.81435 -1.9948183,1.35845 -0.418097,0.38223 -1.107098,1.33109 -1.064725,1.44409 0,0 -0.02931,0.3227 0.04896,0.4528 0.07111,0.11841 0.342669,0.23268 0.342669,0.23268 l 2.9738803,0.25695 c 0,0 0.259647,-0.0553 0.379382,-0.11012 0.176937,-0.0811 0.304907,-0.25666 0.489526,-0.31817 0.919246,-0.30657 2.021614,-0.60405 2.900453,-0.19568 0.831004,0.386 1.400469,1.32746 1.627674,2.2151 0.183686,0.71766 0.07715,1.56161 -0.29372,2.20287 -0.365596,0.63217 -1.03222,1.14581 -1.73782,1.33397 -0.859038,0.22912 -1.806052,-0.0562 -2.643447,-0.35491 -0.234603,-0.0838 -0.636386,-0.39162 -0.636386,-0.39162 l -3.1084973,0.3182 c -0.03312,0 -0.393102,0.22913 -0.354903,0.40387 0.03259,0.14891 0.122379,0.44056 0.122379,0.44056 0,0 0.83402,1.20699 1.395152,1.66439 0.639478,0.52125 1.4229193,0.84339 2.1783943,1.17488 0.66907,0.29366 2.092727,0.43555 2.092727,0.37936 h 32.541322 l 14.26971,-2.55775 v -1.92141 H 20.545892 c -0.220275,-0.0734 -0.350824,-0.22853 -0.391622,-0.46506 v -4.35677 c 0.09221,-0.20663 0.254525,-0.29926 0.477284,-0.29367 h 30.840204 l 3.0412,1.4747 h 10.76782 c 0,0 0.3136,-0.24955 0.31153,-0.42536 -0.002,-0.18916 -0.34615,-0.44999 -0.34615,-0.44999 l -12.66901,-4.13648 -3.04611,0.0346 c 0,0 -0.19396,0.49546 -0.41104,0.50624 -0.24346,0.0118 -0.27116,-0.52122 -0.5149,-0.51921 -0.24582,0.002 -0.26477,0.53596 -0.51057,0.5322 -0.25834,-0.003 -0.26089,-0.57876 -0.51922,-0.57548 -0.26592,0.003 -0.25328,0.60369 -0.51922,0.60577 -0.25032,0.002 -0.24727,-0.56101 -0.49759,-0.56249 -0.2277,-0.002 -0.23102,0.5002 -0.45865,0.50624 -0.26406,0.006 -0.29849,-0.56675 -0.56249,-0.55816 -0.2502,0.009 -0.24727,0.56124 -0.49758,0.56248 -0.23896,0.002 -0.24136,-0.52862 -0.48029,-0.5322 -0.24872,-0.003 -0.26755,0.53904 -0.51629,0.53878 -0.24814,-2.4e-4 -0.26616,-0.55041 -0.51401,-0.53848 -0.21764,0.0118 -0.18741,0.48901 -0.40386,0.51402 -0.25947,0.0299 -0.3511,-0.50399 -0.61191,-0.48954 -0.241946,0.0148 -0.271756,0.51938 -0.514006,0.514 -0.259795,-0.006 -0.266426,-0.58061 -0.526236,-0.57519 -0.234484,0.006 -0.218736,0.52424 -0.452818,0.53848 -0.244875,0.0148 -0.293246,-0.50914 -0.538479,-0.50177 -0.230725,0.006 -0.246652,0.49212 -0.477285,0.50177 -0.245408,0.009 -0.305144,-0.49375 -0.55072,-0.48952 -0.236557,0.003 -0.277409,0.49094 -0.514004,0.48952 -0.233656,-0.002 -0.268232,-0.49798 -0.501764,-0.48952 -0.239694,0.009 -0.237563,0.53126 -0.47729,0.53848 -0.242211,0.006 -0.271755,-0.51849 -0.514004,-0.51402 -0.233774,0.006 -0.243543,0.50837 -0.477285,0.51402 -0.256657,0.006 -0.294164,-0.54783 -0.550723,-0.53848 -0.233952,0.009 -0.23108,0.51903 -0.46505,0.52623 -0.259499,0.009 -0.550714,-0.55071 -0.550714,-0.55071 h -7.391859 c 0,0 -0.183479,0.50808 -0.403863,0.52625 -0.256006,0.0207 -0.306562,-0.54191 -0.562959,-0.52625 -0.228357,0.0148 -0.212312,0.51119 -0.440574,0.52625 -0.265064,0.0178 -0.321943,-0.54727 -0.587431,-0.53847 -0.253756,0.009 -0.272406,0.55709 -0.526239,0.5507 -0.237089,-0.006 -0.227942,-0.53253 -0.465049,-0.53848 -0.253816,-0.006 -0.272347,0.55387 -0.526245,0.55071 -0.242566,-0.003 -0.247007,-0.54422 -0.489529,-0.53848 -0.243335,0.006 -0.221873,0.55274 -0.465049,0.56296 -0.262282,0.0118 -0.288214,-0.56296 -0.550715,-0.56296 -0.262518,0 -0.288391,0.57258 -0.550723,0.56296 -0.240109,-0.009 -0.224834,-0.54517 -0.46505,-0.55071 -0.228001,-0.006 -0.237208,0.492 -0.46505,0.50177 -0.242359,0.009 -0.295999,-0.49679 -0.538479,-0.48954 -0.233567,0.006 -0.255888,0.49896 -0.489529,0.50177 -0.245171,0.003 -0.281079,-0.51829 -0.526239,-0.514 -0.248101,0.006 -0.265893,0.53558 -0.514001,0.53848 -0.26536,0.003 -0.297823,-0.57438 -0.562958,-0.56296 -0.234307,0.009 -0.218499,0.52838 -0.452815,0.53848 -0.23632,0.009 -0.265242,-0.50322 -0.501763,-0.50177 -0.233656,0.002 -0.255858,0.50032 -0.489525,0.50177 -0.2423,0.002 -0.271725,-0.51684 -0.514004,-0.514 -0.248132,0.003 -0.265894,0.54307 -0.514004,0.53848 -0.239813,-0.006 -0.237712,-0.52714 -0.477294,-0.53848 -0.250825,-0.0118 -0.299777,0.52321 -0.550711,0.514 -0.222141,-0.009 -0.230696,-0.4812 -0.452818,-0.48954 -0.239399,-0.009 -0.306257,0.58442 -0.526239,0.48954 -0.271577,-0.11723 -0.555318,-0.64514 -0.53848,-0.53848 h -2.97388 z"
       id="path10072-40"
       sodipodi:nodetypes="cscsccsssssssccscsscccccccccccscccssssassssssssssssssssssssssccssssssssssssssssaasssssssssccc"
       inkscape:label="compensator_left">
      <title
         id="title14">metal</title>
    </path>
    <path
       style="fill:#5e5e5e;fill-rule:evenodd;stroke:#000000;stroke-width:0.0302518"
       d="M 38.232748,131.97816 H 35.61378 c -0.255029,0.0971 -0.378207,0.26613 -0.379388,0.50177 v 4.05083 c 0.04935,0.21284 0.185314,0.36473 0.46505,0.4161 H 179.87741 c 0.23801,-0.0802 0.43315,-0.20338 0.45281,-0.50177 v -4.01413 c -0.0524,-0.20485 -0.22765,-0.3396 -0.44058,-0.4528 h -2.68016 l -3.02281,1.44412 h -39.51481 c 0,0 -0.19449,0.53229 -0.424,0.54377 -0.26702,0.0148 -0.28656,-0.58341 -0.55384,-0.57977 -0.24511,0.003 -0.24808,0.54428 -0.49328,0.54517 -0.23889,7.9e-4 -0.2457,-0.52762 -0.4846,-0.52788 -0.25103,-2.4e-4 -0.25961,0.55265 -0.51059,0.55384 -0.26109,0.002 -0.2756,-0.58176 -0.53652,-0.57113 -0.23593,0.009 -0.20604,0.53688 -0.44132,0.55384 -0.2605,0.0178 -0.31068,-0.5563 -0.57116,-0.53655 -0.23771,0.0178 -0.20337,0.5491 -0.44135,0.56248 -0.26672,0.0148 -0.29543,-0.58122 -0.56248,-0.57113 -0.24541,0.009 -0.23061,0.5523 -0.47596,0.56249 -0.2608,0.0118 -0.29307,-0.56296 -0.55384,-0.55384 -0.23297,0.009 -0.22557,0.52261 -0.45864,0.52788 -0.24688,0.006 -0.26376,-0.53348 -0.51056,-0.53653 -0.25695,-0.003 -0.28803,0.54621 -0.54519,0.5452 -0.25488,-8e-4 -0.28182,-0.55923 -0.53653,-0.5452 -0.24185,0.0118 -0.20751,0.56713 -0.44999,0.57113 -0.26406,0.006 -0.24659,-0.60514 -0.51056,-0.60573 -0.2537,-6e-4 -0.23978,0.56757 -0.49327,0.5798 -0.25666,0.0118 -0.29737,-0.55375 -0.55382,-0.53655 -0.24185,0.0148 -0.20781,0.56352 -0.44999,0.57115 -0.25932,0.009 -0.25991,-0.58042 -0.51923,-0.5798 -0.2392,5.6e-4 -0.23712,0.52643 -0.47596,0.53653 -0.24659,0.0118 -0.28952,-0.51361 -0.53652,-0.51057 -0.24067,0.003 -0.26998,0.51157 -0.51056,0.51057 -0.24275,-7.7e-4 -0.26791,-0.5275 -0.51059,-0.51921 -0.2392,0.009 -0.22795,0.5378 -0.46729,0.54517 -0.26909,0.009 -0.29366,-0.59623 -0.56248,-0.57981 -0.25281,0.0148 -0.20574,0.59413 -0.45867,0.60577 -0.26909,0.0118 -0.2756,-0.59967 -0.54516,-0.59709 -0.25341,0.002 -0.24837,0.57142 -0.50192,0.57113 -0.24541,-2.4e-4 -0.23949,-0.54763 -0.4846,-0.55384 -0.25695,-0.006 -0.27945,0.55283 -0.53655,0.55384 -0.25903,8e-4 -0.28626,-0.56311 -0.54517,-0.55384 -0.2312,0.009 -0.21906,0.51479 -0.44999,0.52788 -0.24038,0.0148 -0.28804,-0.51471 -0.52788,-0.49325 -0.22587,0.0207 -0.18058,0.52803 -0.40672,0.54517 -0.29484,0.0237 -0.33694,-0.64709 -0.63172,-0.62305 -0.24896,0.0207 -0.19213,0.58631 -0.44135,0.60573 -0.25636,0.0207 -0.28804,-0.54517 -0.54517,-0.54517 -0.24482,0 -0.27472,0.5309 -0.51924,0.51924 -0.23534,-0.0118 -0.21491,-0.53016 -0.44999,-0.5452 -0.25251,-0.0148 -0.30085,0.52542 -0.55384,0.51924 -0.24482,-0.006 -0.26583,-0.53786 -0.51056,-0.52788 -0.24985,0.009 -0.22587,0.57651 -0.47596,0.57977 -0.25547,0.003 -0.50191,-0.57977 -0.50191,-0.57977 h -7.3643 c 0,0 -0.22584,0.54756 -0.46729,0.55384 -0.2489,0.006 -0.26169,-0.55221 -0.51057,-0.5452 -0.25177,0.006 -0.23283,0.57243 -0.48461,0.5798 -0.26518,0.009 -0.27989,-0.57784 -0.54518,-0.5798 -0.25296,-0.002 -0.27504,0.55301 -0.52788,0.5452 -0.23516,-0.006 -0.22338,-0.53427 -0.45864,-0.53655 -0.24313,-0.002 -0.24162,0.53616 -0.48461,0.54519 -0.26095,0.009 -0.30165,-0.55706 -0.56249,-0.54519 -0.243162,0.0118 -0.232622,0.54762 -0.475962,0.55384 -0.25088,0.006 -0.26829,-0.54973 -0.51922,-0.54517 -0.23495,0.003 -0.2325,0.5179 -0.46729,0.52788 -0.25479,0.0118 -0.29913,-0.54058 -0.55384,-0.52788 -0.2431,0.0118 -0.23256,0.55212 -0.47596,0.55381 -0.26565,0.002 -0.26225,-0.59203 -0.52787,-0.59709 -0.26314,-0.006 -0.28206,0.57684 -0.54519,0.57116 -0.24526,-0.006 -0.23931,-0.55464 -0.4846,-0.55384 -0.25156,7.7e-4 -0.24173,0.56722 -0.49326,0.57113 -0.24289,0.003 -0.25038,-0.53143 -0.49326,-0.53653 -0.24064,-0.006 -0.26989,0.50852 -0.51057,0.51057 -0.2407,0.002 -0.27874,-0.5127 -0.51922,-0.50192 -0.22475,0.009 -0.21661,0.50061 -0.44134,0.51059 -0.25269,0.0118 -0.29248,-0.53931 -0.54518,-0.52788 -0.24722,0.0118 -0.23718,0.55807 -0.48461,0.56248 -0.26329,0.006 -0.27324,-0.58332 -0.53653,-0.5798 -0.24935,0.003 -0.24387,0.56302 -0.49326,0.56249 -0.26376,-5.4e-4 -0.25547,-0.59754 -0.51923,-0.59709 -0.25156,4.1e-4 -0.24191,0.56091 -0.49325,0.57113 -0.24662,0.009 -0.28114,-0.52534 -0.52788,-0.51921 -0.24695,0.006 -0.25491,0.54209 -0.50191,0.54517 -0.24887,0.003 -0.27039,-0.5418 -0.51922,-0.53653 -0.2431,0.006 -0.24153,0.53901 -0.48461,0.54517 -0.25488,0.006 -0.28161,-0.55041 -0.53653,-0.54517 -0.24908,0.006 -0.25278,0.55589 -0.50192,0.55384 -0.24937,-0.002 -0.24399,-0.55535 -0.49325,-0.56248 -0.2508,-0.006 -0.27706,0.54197 -0.52788,0.53652 -0.23688,-0.006 -0.23916,-0.51976 -0.47595,-0.52788 -0.24464,-0.009 -0.28321,0.51882 -0.52788,0.51057 -0.24085,-0.009 -0.24367,-0.53141 -0.4846,-0.53653 -0.24677,-0.006 -0.27247,0.52365 -0.51923,0.52788 -0.23461,0.003 -0.27596,-0.48768 -0.51057,-0.4846 -0.2325,0.003 -0.26074,0.49517 -0.49326,0.49325 -0.24887,-0.002 -0.27033,-0.53747 -0.51922,-0.53653 -0.25503,8e-4 -0.27285,0.55597 -0.52787,0.55384 -0.2511,-0.002 -0.25959,-0.56071 -0.51058,-0.55384 -0.23555,0.006 -0.21465,0.53306 -0.44999,0.5452 -0.26684,0.0148 -0.57114,-0.56252 -0.57114,-0.56252 H 41.359042 Z"
       id="path10074"
       sodipodi:nodetypes="ccccccccccccsssssssssssssssssssssssssssssssssssssssssssssccsssssssssssssssssssssssssssssssssssssssssssssccc"
       inkscape:label="compensator_middle">
      <title
         id="title15">metal</title>
    </path>
  </g>
</svg>
