<?xml version="1.0" encoding="UTF-8" standalone="no"?>
<!-- Created with Inkscape (http://www.inkscape.org/) -->

<svg
   width="210mm"
   height="297mm"
   viewBox="0 0 210 297"
   version="1.1"
   id="svg1"
   inkscape:version="1.4 (86a8ad7, 2024-10-11)"
   sodipodi:docname="DSHA-75-050.svg"
   xmlns:inkscape="http://www.inkscape.org/namespaces/inkscape"
   xmlns:sodipodi="http://sodipodi.sourceforge.net/DTD/sodipodi-0.dtd"
   xmlns="http://www.w3.org/2000/svg"
   xmlns:svg="http://www.w3.org/2000/svg">
  <sodipodi:namedview
     id="namedview1"
     pagecolor="#ffffff"
     bordercolor="#000000"
     borderopacity="0.25"
     inkscape:showpageshadow="2"
     inkscape:pageopacity="0.0"
     inkscape:pagecheckerboard="0"
     inkscape:deskcolor="#d1d1d1"
     inkscape:document-units="mm"
     inkscape:zoom="0.74016561"
     inkscape:cx="243.86434"
     inkscape:cy="34.451749"
     inkscape:window-width="2560"
     inkscape:window-height="1377"
     inkscape:window-x="-8"
     inkscape:window-y="-8"
     inkscape:window-maximized="1"
     inkscape:current-layer="svg1" />
  <defs
     id="defs1" />
  <rect
     style="fill:#b8b8b8;fill-opacity:1;fill-rule:evenodd;stroke:#b81e1e;stroke-width:0.0331264"
     id="concrete_right"
     width="78.181763"
     height="29.187719"
     x="132.65396"
     y="75.094658" />
  <rect
     style="fill:#b8b8b8;fill-opacity:1;fill-rule:evenodd;stroke:#b81e1e;stroke-width:0.033353"
     id="concrete_left"
     width="78.220573"
     height="29.5737"
     x="-0.95822883"
     y="75.087799" />
  <rect
     style="fill:#a39a9a;fill-rule:evenodd;stroke:#b81e1e;stroke-width:0.0553103"
     id="finish_right"
     width="65.784698"
     height="69.705307"
     x="145.19962"
     y="5.3054028" />
  <rect
     style="fill:#a39a9a;fill-rule:evenodd;stroke:#b81e1e;stroke-width:0.0551358"
     id="finish_left"
     width="65.784874"
     height="69.263016"
     x="-0.98440146"
     y="5.8504615" />
  <rect
     style="fill:#a39a9a;fill-rule:evenodd;stroke:#b81e1e;stroke-width:0.0329314"
     id="cover_right"
     width="65.769066"
     height="4.9670687"
     x="145.11771"
     y="0.22918507" />
  <rect
     style="fill:#a39a9a;fill-rule:evenodd;stroke:#b81e1e;stroke-width:0.0341611"
     id="cover_left"
     width="65.767876"
     height="5.3449874"
     x="-0.95435691"
     y="0.38344243" />
  <rect
     style="fill:#404242;fill-opacity:0.341246;fill-rule:evenodd;stroke:#b81e1e;stroke-width:0.0197636"
     id="shadow"
     width="134.69411"
     height="0.012728008"
     x="41.723991"
     y="104.23403"
     inkscape:label="shadow" />
  <ellipse
     style="opacity:0;fill:none;fill-opacity:0;fill-rule:evenodd;stroke-width:0.00368993;stroke-opacity:0"
     id="bolt_left"
     cx="-17.358891"
     cy="-72.648941"
     rx="0.094999999"
     ry="0.028942173"
     inkscape:label="bolt_left"
     transform="scale(-1)" />
  <ellipse
     style="opacity:0;fill:none;fill-opacity:0;fill-rule:evenodd;stroke-width:0.000191947;stroke-opacity:0"
     id="bolt_right"
     cx="191.89632"
     cy="72.643509"
     rx="0.0049418169"
     ry="0.0015055466"
     inkscape:label="bolt_right" />
  <path
     id="profile_left"
     style="display:inline;fill:#5e5e5e;fill-rule:evenodd;stroke:#000000;stroke-width:0.0421211"
     d="M 64.866485,0.12106055 V 70.55147 c -0.17263,1.41678 -0.99041,1.86676 -2.01125,2.01124 H 17.469513 7.4568528 l -0.0131,2.516229 H 77.28215 V 13.514091 L 74.78334,13.157121 73.20743,12.87414 70.74344,11.85111 68.98252,10.238201 68.46665,8.9474505 c -0.10813,-0.33406 0.0175,-0.56986 0.20896,-0.7771 h 2.99074 c 0,0 0.53676,0.61527 0.89897,0.77491 0.96073,0.42289 2.14366,0.73522 3.12786,0.37003 0.63729,-0.23646 1.14657,-0.86352 1.38002,-1.50191 0.30469,-0.83336 -0.0211,-2.50569 -0.11102,-2.65986 -0.5904,-1.01041 -1.36936,-1.61071 -2.49446,-1.6129399 -0.64814,0.0243 -1.55503,0.1774899 -2.6773,1.2429099 l -0.34391,0.148 h -2.47487 c -0.65439,-0.20583 -0.54333,-0.55359 -0.51806,-0.8859199 l 0.50499,-1.0361001 0.91203,-0.9598999 0.96644,-0.79882 V 0.12540055 h -1.11009 c 0,0 -0.18249,0.50961999 -0.4005,0.51803999 -0.23386,0.0108 -0.24485,-0.52211999 -0.47888,-0.51370999 -0.24609,0.007 -0.22856,0.55330999 -0.47451,0.56593999 -0.26654,0.0117 -0.29931,-0.57434999 -0.56593,-0.56593999 -0.23642,0.008 -0.22926,0.53216999 -0.465811,0.53548999 -0.240267,0.003 -0.247357,-0.52267999 -0.487577,-0.53109999 -0.25337,-0.008 -0.29726,0.56041999 -0.54852,0.52671999 -0.20765,-0.0279 -0.32214,-0.53977999 -0.32214,-0.53977999 z M 67.373999,11.718351 c 0.0448,1.1e-4 0.0935,0.003 0.145841,0.013 l 1.37564,1.11444 1.09705,0.870681 1.35824,0.679119 1.35824,0.365661 2.0896,0.29603 c 0.4484,0.23797 0.54818,0.47596 0.48757,0.71395 v 15.21927 H 66.840722 V 12.23634 c 0.0844,-0.29334 0.21997,-0.518889 0.533277,-0.51804 z m -0.594227,20.36271 H 75.29924 V 52.00408 h -8.421518 z m 0.074,20.932999 h 8.445468 v 20.07103 h -8.495528 z"
     inkscape:label="profile_left" />
  <path
     id="profile_right"
     style="display:inline;fill:#5e5e5e;fill-rule:evenodd;stroke:#000000;stroke-width:0.0421162"
     d="M 139.02868,0.02105811 V 1.202878 l 1.01634,0.79873 0.93152,1.2623101 0.55283,1.03383 -0.71821,0.60066 h -2.39842 l -0.40483,-0.1610499 -0.67466,-0.7073501 c -1.17887,-0.59843 -1.45293,-0.68367 -2.84896,-0.36561 -0.84147,0.1916301 -1.24338,0.8371501 -1.60398,1.5517702 -0.2485,0.9164099 -0.48427,1.8345902 0.13055,2.8141199 0.54344,1.0538303 1.38416,1.4492599 2.42236,1.405969 0.72672,-0.0889 1.45405,-0.2220786 2.18079,-0.7769992 l 0.52449,-0.5571598 h 3.07743 c 0.25818,0.097695 0.41253,0.2684499 0.36999,0.5811203 l -1.12954,1.9217605 -1.32325,1.17092 -1.72807,0.80092 -2.28522,0.507079 -2.54858,0.365651 v 61.529393 h 69.85854 v -2.478911 h -9.8831 -45.52627 c -1.18716,-0.193739 -1.90049,-0.888659 -2.08282,-2.14814 V 0.03848811 h -1.08386 c 0,0 -0.12722,0.59779994 -0.3656,0.61591002 -0.24554,0.0168003 -0.22174,-0.56806004 -0.46795,-0.57021004 -0.23249,-0.0020005 -0.21885,0.51693003 -0.45052,0.53103998 -0.26617,0.0168998 -0.32168,-0.56153003 -0.5876,-0.54191001 -0.22659,0.0168998 -0.20192,0.51638999 -0.42878,0.53105005 -0.24174,0.0168003 -0.28223,-0.50620005 -0.52451,-0.50279003 -0.23545,0.002995 -0.2632,0.51554997 -0.49841,0.50279003 -0.24766,-0.0125992 -0.46138,-0.58331 -0.46138,-0.58331 z m 3.4779,11.58940089 c 0.23388,-0.008 0.39123,0.182829 0.53757,0.400491 v 18.98922 l -8.50762,-0.03261 V 15.734819 c 0.0503,-0.31293 0.16504,-0.590391 0.59417,-0.69644 l 1.81512,-0.25248 1.53004,-0.42222 1.38201,-0.685569 1.1992,-0.855331 1.18617,-1.13175 c 0.0973,-0.0529 0.1854,-0.0779 0.26334,-0.0805 z m -7.93521,20.41262 8.49453,0.06311 v 19.93381 h -8.49453 z m 0.0174,20.937101 h 8.4967 v 20.057831 h -8.54895 z"
     inkscape:label="profile_right" />
  <path
     style="fill:#5e5e5e;fill-rule:evenodd;stroke:#000000;stroke-width:0.0298261"
     d="M 71.628894,4.5902952 69.131235,4.4575535 C 68.820776,4.395852 68.577687,4.1873747 68.600331,3.9387167 68.643819,3.4613439 69.002674,3.0861985 69.300157,2.7562496 70.503499,1.3927092 71.939156,0.48246557 73.800775,0.40337302 l 1.254865,-0.0120358 39.68508,3.87318258 -0.30164,3.064766 -33.718954,-3.2776371 c -0.16605,0.026276 -0.307753,0.1011586 -0.409536,0.255965 -0.05394,0.1215035 -0.08338,0.2464799 -0.02567,0.3839446 0.421905,0.7360379 0.434216,1.569976 0.383941,2.3633449 0.04191,0.9644786 -0.374037,1.5641567 -0.588709,2.3036299 -0.05757,0.1984397 0.138919,0.5018547 0.383942,0.4948566 l 16.76878,-0.4789027 18.159376,1.815933 0.0362,0.796358 -1.59273,0.03622 c 0,0 -0.17542,-0.494133 -0.3861,-0.500744 -0.23787,-0.0075 -0.2332,0.521561 -0.47059,0.536937 -0.24603,0.01605 -0.30869,-0.497915 -0.55503,-0.488671 -0.2472,0.0093 -0.27143,0.534663 -0.51882,0.530903 -0.23757,-0.0038 -0.24517,-0.530804 -0.48265,-0.524873 -0.23262,0.0061 -0.21424,0.520155 -0.44644,0.536942 -0.24283,0.01752 -0.30039,-0.509714 -0.54299,-0.48868 -0.22414,0.01956 -0.19321,0.502536 -0.41625,0.530907 -0.25626,0.03257 -0.35829,-0.494719 -0.61536,-0.470573 -0.20694,0.01956 -0.20868,0.451065 -0.41629,0.464541 -0.24633,0.01605 -0.31512,-0.502123 -0.56109,-0.482638 -0.23903,0.01897 -0.22531,0.53341 -0.46452,0.549001 -0.24137,0.01576 -0.29499,-0.493597 -0.53694,-0.48867 -0.22591,0.0046 -0.25655,0.476635 -0.48264,0.476603 -0.23757,-3.9e-5 -0.26938,-0.510247 -0.50676,-0.500736 -0.24925,0.0099 -0.23933,0.558551 -0.4887,0.567099 -0.25451,0.0087 -0.28252,-0.551427 -0.53691,-0.542966 -0.23641,0.0078 -0.22823,0.52628 -0.46461,0.536905 -0.24021,0.01073 -0.27874,-0.513382 -0.51886,-0.500741 -0.2437,0.01291 -0.22677,0.54902 -0.47057,0.561069 -0.25275,0.01262 -0.29011,-0.541709 -0.54295,-0.530904 -0.24925,0.01073 -0.23933,0.560015 -0.48868,0.567103 -0.24604,0.007 -0.26676,-0.531566 -0.5128,-0.530903 -0.25041,6.71e-4 -0.2688,0.551609 -0.51884,0.542966 -0.23262,-0.0081 -0.21366,-0.537435 -0.44644,-0.536934 -0.23699,5.08e-4 -0.21569,0.535652 -0.45247,0.549003 -0.25713,0.01459 -0.29785,-0.547628 -0.55504,-0.536934 -0.25626,0.01073 -0.25042,0.566882 -0.50677,0.57917 -0.243123,0.01175 -0.288076,-0.515036 -0.530909,-0.500743 -0.225316,0.01349 -0.208973,0.510124 -0.434376,0.518836 -0.255681,0.0099 -0.281362,-0.561078 -0.536942,-0.549 -0.242832,0.01131 -0.215687,0.552861 -0.45852,0.567101 -0.241368,0.01407 -0.276982,-0.511609 -0.518815,-0.506773 -0.251881,0.0055 -0.267064,0.546194 -0.518858,0.549006 -0.240194,0.0023 -0.26647,-0.518644 -0.506765,-0.512806 -0.234944,0.0055 -0.235815,0.519159 -0.470595,0.524865 -0.240194,0.0061 -0.263555,-0.518308 -0.506765,-0.512803 -0.243123,0.0055 -0.248372,0.541893 -0.4947,0.549006 -0.245747,0.007 -0.279317,-0.532672 -0.524862,-0.518841 -0.239918,0.01349 -0.212482,0.548255 -0.452473,0.561074 -0.275533,0.01489 -0.310233,-0.607192 -0.5852,-0.585205 -0.249837,0.02014 -0.190296,0.594311 -0.440423,0.609337 -0.251287,0.01518 -0.260916,-0.560704 -0.512797,-0.555036 -0.252462,0.0055 -0.236409,0.567028 -0.488668,0.57917 -0.244298,0.01175 -0.280492,-0.520048 -0.524862,-0.512812 -0.239034,0.007 -0.243413,0.525213 -0.482664,0.530905 -0.255957,0.0061 -0.287192,-0.552427 -0.542945,-0.542968 -0.23087,0.0084 -0.222111,0.50705 -0.452488,0.524875 -0.2291,0.01781 -0.295804,-0.463227 -0.524876,-0.446448 -0.215992,0.01576 -0.212482,0.469735 -0.428344,0.488672 -0.246632,0.02159 -0.332144,-0.479597 -0.579182,-0.464541 -0.229985,0.01407 -0.252172,0.493289 -0.482621,0.49471 -0.236119,0.0016 -0.264729,-0.509157 -0.500747,-0.50074 -0.239338,0.0084 -0.231159,0.533715 -0.470585,0.542967 -0.237279,0.009 -0.269384,-0.504271 -0.506764,-0.500734 -0.239034,0.0038 -0.255957,0.512053 -0.4947,0.518832 -0.258886,0.0075 -0.308914,-0.550788 -0.567104,-0.530903 -0.247197,0.01897 -0.211017,0.573155 -0.458505,0.585199 -0.241673,0.01175 -0.258886,-0.524893 -0.500733,-0.524864 -0.239033,3.1e-5 -0.255956,0.509151 -0.4947,0.518835 -0.223575,0.009 -0.277272,-0.452106 -0.500761,-0.446439 -0.217442,0.0055 -0.249242,0.426747 -0.464523,0.458507 -0.198185,0.02928 -0.317702,-0.378945 -0.536956,-0.50074 -0.213933,-0.11885 -0.226897,0.526648 -0.464538,0.542968 -0.238744,0.01634 -0.29769,-0.482309 -0.536927,-0.476603 -0.241702,0.0055 -0.277099,0.505322 -0.518844,0.506772 -0.238947,0.0016 -0.279984,-0.50203 -0.518844,-0.49471 -0.227563,0.007 -0.236873,0.498595 -0.464538,0.50074 -0.22897,0.0023 -0.247647,-0.497775 -0.476603,-0.494711 -0.250504,0.0032 -0.256406,0.546435 -0.506779,0.555039 -0.244486,0.0084 -0.286727,-0.522049 -0.530894,-0.506772 -0.209713,0.0132 -0.188614,0.473713 -0.398197,0.48868 -0.242731,0.01752 -0.293658,-0.50177 -0.536926,-0.49471 -0.248779,0.007 -0.270124,0.528263 -0.518844,0.536934 -0.243355,0.0084 -0.299808,-0.501546 -0.54296,-0.488672 -0.240324,0.01291 -0.244297,0.503682 -0.482649,0.536934 -0.751309,0.104813 -2.428008,-0.04363 -2.42584,-0.0046 C 72.48023,12.96082 71.491558,12.525368 70.601105,11.892159 69.846899,11.274317 69.193164,10.634944 68.88618,9.9212727 68.80592,9.7965935 68.754019,9.6681383 68.91186,9.5117368 69.107205,9.1972271 69.209667,9.30069 69.346991,9.2472496 70.1627,9.1018138 70.990485,8.9986685 71.838329,8.9656875 c 0.752508,0.5221634 1.499379,1.0559245 2.533983,0.9982412 0.766578,-0.019562 1.571406,-0.2124781 2.576655,-1.313924 0.5054,-0.6908468 0.671537,-1.4301097 0.61436,-2.2012776 C 77.506193,5.5230153 77.085405,4.7747314 76.368855,4.1706943 75.622447,3.6149641 74.777478,3.3317504 73.758071,3.5307904 73.163837,3.547133 72.414454,4.0160416 71.628947,4.5902909 Z"
     id="compensator_left"
     sodipodi:nodetypes="ccscccccccccssccccsssssssssssssssssssssssssssssssssssasasssssssssssssssssssssssssssssssssssssscccccccccccc"
     inkscape:label="compensator_left">
    <title
       id="title3">metal</title>
  </path>
  <path
     style="fill:#5e5e5e;fill-rule:evenodd;stroke:#000000;stroke-width:0.0298261"
     d="m 138.04379,8.613161 2.49766,0.1327417 c 0.31045,0.061701 0.55355,0.2701788 0.53089,0.5188324 -0.0435,0.4773728 -0.40235,0.8525209 -0.69983,1.1824689 -1.20336,1.36354 -2.63901,2.273785 -4.5006,2.352875 l -1.25487,0.01204 -39.685111,-3.8731858 0.301664,-3.0647646 33.718967,3.2776357 c 0.16607,-0.026261 0.30774,-0.1011587 0.40951,-0.255965 0.054,-0.1215035 0.0835,-0.2464785 0.0263,-0.3839417 -0.42192,-0.7360379 -0.43423,-1.569979 -0.38396,-2.3633449 -0.0418,-0.9644772 0.37404,-1.5641568 0.58873,-2.3036328 0.0574,-0.1984093 -0.13892,-0.5018519 -0.38395,-0.4948552 L 112.44035,3.8289634 94.281011,2.0130294 94.244758,1.2166749 95.83747,1.1804515 c 0,0 0.175404,0.4941315 0.386098,0.5007396 0.237874,0.00754 0.233205,-0.5215586 0.470571,-0.536934 0.246037,-0.016053 0.308739,0.4979149 0.555038,0.4886719 0.247212,-0.00928 0.271429,-0.534666 0.518844,-0.5309045 0.237584,0.00377 0.245168,0.5308045 0.482664,0.524875 0.23261,-0.00609 0.214223,-0.5201578 0.446427,-0.536947 0.242833,-0.017517 0.300387,0.5097157 0.542959,0.4886806 0.224156,-0.019547 0.193211,-0.5025319 0.416293,-0.5309045 0.256246,-0.032569 0.358256,0.4947189 0.615366,0.4705704 0.20693,-0.019547 0.20868,-0.4510651 0.41628,-0.4645394 0.24605,-0.016053 0.31513,0.502123 0.56105,0.482641 0.23904,-0.018967 0.22532,-0.5334147 0.46457,-0.54900608 0.24137,-0.0157625 0.29495,0.49359788 0.53691,0.48867188 0.2259,-0.00464 0.25655,-0.47663174 0.48265,-0.47659984 0.23758,3.77e-5 0.2694,0.51024644 0.50677,0.50073094 0.24925,-0.00986 0.23932,-0.55854914 0.48866,-0.56709745 0.25451,-0.008701 0.28253,0.55143065 0.53694,0.54296635 0.23672,-0.00783 0.22825,-0.52627865 0.46463,-0.53690495 0.24021,-0.0107307 0.27872,0.51338305 0.51881,0.50074255 0.24371,-0.012906 0.22678,-0.54902347 0.47057,-0.56106796 0.25276,-0.0126158 0.29013,0.54170916 0.54299,0.53090446 0.24926,-0.010731 0.23933,-0.56001802 0.48867,-0.56710754 0.24604,-0.00696 0.26676,0.53157014 0.51281,0.53090454 0.25042,-6.714e-4 0.26881,-0.5516061 0.51885,-0.54296353 0.23261,0.008121 0.21364,0.53743573 0.44644,0.53693403 0.23699,-5.119e-4 0.21568,-0.5356536 0.45247,-0.54900607 0.25713,-0.014588 0.29785,0.54763137 0.55504,0.53693687 0.25626,-0.010731 0.25042,-0.56688279 0.50676,-0.57916945 0.24313,-0.0117458 0.28806,0.51503465 0.5309,0.50073965 0.22502,-0.013196 0.20897,-0.51012321 0.43439,-0.51883248 0.25566,-0.009861 0.28135,0.56107378 0.53694,0.54899738 0.24283,-0.011456 0.21569,-0.55285899 0.45849,-0.56709892 0.24137,-0.0140659 0.27727,0.51160662 0.51884,0.50677342 0.25189,-0.00551 0.26705,-0.54619571 0.51885,-0.54900599 0.24021,-0.00232 0.26647,0.51863959 0.50676,0.51280299 0.23495,-0.00551 0.23554,-0.51916021 0.47057,-0.52486634 0.24021,-0.00609 0.26356,0.51831044 0.50677,0.51280294 0.24341,-0.00551 0.24837,-0.5418933 0.49471,-0.54900601 0.24604,-0.00696 0.27932,0.53267361 0.52489,0.51884551 0.23991,-0.013486 0.21247,-0.54825634 0.45248,-0.56107809 0.27552,-0.0148925 0.31019,0.60719549 0.58518,0.58520909 0.24984,-0.020142 0.1903,-0.59431133 0.44043,-0.60934012 0.2513,-0.0151825 0.26093,0.56070682 0.51278,0.55503552 0.25246,-0.00551 0.23641,-0.56702781 0.4887,-0.57916655 0.24428,-0.0117458 0.28047,0.52004615 0.52486,0.51281165 0.23903,-0.00696 0.24341,-0.52521287 0.48262,-0.53090449 0.25597,-0.00609 0.28719,0.55242679 0.54299,0.54296639 0.23085,-0.00841 0.22211,-0.50704898 0.45247,-0.52487355 0.22911,-0.0178072 0.2958,0.46322715 0.52486,0.44644665 0.21598,-0.0157626 0.21248,-0.46973808 0.42834,-0.48867053 0.24662,-0.0215919 0.33213,0.47959724 0.57917,0.46453655 0.22999,-0.0140659 0.25217,-0.49328903 0.48267,-0.49471013 0.23612,-0.001595 0.26471,0.50916033 0.50072,0.50074253 0.23932,-0.008411 0.23115,-0.53371479 0.47057,-0.5429664 0.23729,-0.008991 0.26939,0.50426916 0.50679,0.50073382 0.23903,-0.00377 0.25568,-0.51205471 0.49471,-0.51883536 0.25889,-0.00754 0.3089,0.55078966 0.56709,0.53090451 0.24721,-0.0189672 0.21102,-0.57315158 0.45849,-0.58520042 0.24166,-0.0116008 0.25889,0.52489821 0.50075,0.52486631 0.23903,-2.901e-5 0.25597,-0.50915163 0.49471,-0.51883247 0.22357,-0.008991 0.27728,0.45210634 0.50072,0.44643501 0.21744,-0.00551 0.24926,-0.42674561 0.46457,-0.45850705 0.19817,-0.0292774 0.31769,0.37894468 0.53694,0.50074253 0.21393,0.1188498 0.22678,-0.52665138 0.46452,-0.5429664 0.23876,-0.0163426 0.29768,0.48230891 0.53696,0.47659989 0.24166,-0.00551 0.27697,-0.50531903 0.51882,-0.50677347 0.23903,-0.001595 0.27989,0.50203311 0.51884,0.49471013 0.22765,-0.00696 0.23699,-0.49859059 0.46457,-0.50073963 0.22881,-0.00232 0.24748,0.49777418 0.47657,0.49471013 0.25043,-0.00319 0.25655,-0.54643357 0.50676,-0.55503554 0.24459,-0.008411 0.28691,0.52204588 0.53094,0.50677347 0.20956,-0.0131959 0.18854,-0.4737142 0.39816,-0.48868063 0.24283,-0.0175172 0.29367,0.50176774 0.53695,0.49471013 0.24866,-0.00696 0.27026,-0.52826243 0.51885,-0.536934 0.24341,-0.008411 0.29979,0.50154297 0.54294,0.48867193 0.24021,-0.0129058 0.2443,-0.50368622 0.48266,-0.53693835 0.75128,-0.10481288 2.428,0.0436334 2.42584,0.00464 1.03028,0.0831485 2.01894,0.5186019 2.90938,1.15181064 0.75421,0.617842 1.40796,1.2572108 1.71494,1.9708867 0.0803,0.1246792 0.13225,0.2531344 -0.0262,0.4095316 -0.19526,0.314514 -0.29782,0.2110483 -0.43513,0.2644886 -0.81571,0.1454359 -1.6435,0.2485797 -2.49134,0.2815607 -0.75251,-0.5221619 -1.49938,-1.0559246 -2.53398,-0.9982369 -0.7666,0.019547 -1.57141,0.2124767 -2.57665,1.313924 -0.50536,0.690808 -0.67149,1.4300738 -0.61432,2.2012402 0.0571,0.9257118 0.47794,1.6739971 1.19449,2.2780299 0.74642,0.5557302 1.59136,0.8389439 2.61078,0.6399039 0.59424,-0.016343 1.3436,-0.4852497 2.12913,-1.059499 z"
     id="compensator_right"
     sodipodi:nodetypes="ccscccccccccssccccsssssssssssssssssssssssssssssssssssasasssssssssssssssssssssssssssssssssssssscccccccccccc"
     inkscape:label="compensator_right">
    <title
       id="title4">metal</title>
  </path>
</svg>
