<?xml version="1.0" encoding="UTF-8" standalone="no"?>
<!-- Created with Inkscape (http://www.inkscape.org/) -->

<svg
   width="210mm"
   height="297mm"
   viewBox="0 0 210 297"
   version="1.1"
   id="svg1"
   inkscape:version="1.4 (86a8ad7, 2024-10-11)"
   sodipodi:docname="DSHA-30-050.svg"
   xmlns:inkscape="http://www.inkscape.org/namespaces/inkscape"
   xmlns:sodipodi="http://sodipodi.sourceforge.net/DTD/sodipodi-0.dtd"
   xmlns="http://www.w3.org/2000/svg"
   xmlns:svg="http://www.w3.org/2000/svg">
  <sodipodi:namedview
     id="namedview1"
     pagecolor="#ffffff"
     bordercolor="#000000"
     borderopacity="0.25"
     inkscape:showpageshadow="2"
     inkscape:pageopacity="0.0"
     inkscape:pagecheckerboard="0"
     inkscape:deskcolor="#d1d1d1"
     inkscape:document-units="mm"
     inkscape:zoom="0.74016561"
     inkscape:cx="335.73567"
     inkscape:cy="191.17343"
     inkscape:window-width="2560"
     inkscape:window-height="1377"
     inkscape:window-x="-8"
     inkscape:window-y="-8"
     inkscape:window-maximized="1"
     inkscape:current-layer="svg1" />
  <defs
     id="defs1" />
  <rect
     style="fill:#b8b8b8;fill-opacity:1;fill-rule:evenodd;stroke:#b81e1e;stroke-width:0.0528415"
     id="concrete_right"
     width="78.162048"
     height="74.286728"
     x="132.31363"
     y="29.985788" />
  <rect
     style="fill:#b8b8b8;fill-opacity:1;fill-rule:evenodd;stroke:#b81e1e;stroke-width:0.0528572"
     id="concrete_left"
     width="78.201073"
     height="74.29377"
     x="-0.59828568"
     y="30.257977" />
  <rect
     style="fill:#a39a9a;fill-rule:evenodd;stroke:#b81e1e;stroke-width:0.0329538"
     id="finish_right"
     width="65.807053"
     height="24.735327"
     x="144.83824"
     y="5.2942247" />
  <rect
     style="fill:#a39a9a;fill-rule:evenodd;stroke:#b81e1e;stroke-width:0.032828"
     id="finish_left"
     width="65.807182"
     height="24.545748"
     x="-0.64536095"
     y="5.7393079" />
  <rect
     style="fill:#a39a9a;fill-rule:evenodd;stroke:#b81e1e;stroke-width:0.0329314"
     id="cover_right"
     width="65.769066"
     height="4.9670687"
     x="144.76752"
     y="0.22918507" />
  <rect
     style="fill:#a39a9a;fill-rule:evenodd;stroke:#b81e1e;stroke-width:0.0341611"
     id="cover_left"
     width="65.767876"
     height="5.3449874"
     x="-0.60417652"
     y="0.28344244" />
  <rect
     style="fill:#404242;fill-opacity:0.341246;fill-rule:evenodd;stroke:#b81e1e;stroke-width:0.0182617"
     id="shadow"
     width="102.86303"
     height="0.01422988"
     x="42.073532"
     y="104.13328"
     inkscape:label="shadow" />
  <ellipse
     style="opacity:0;fill:none;fill-opacity:0;fill-rule:evenodd;stroke-width:0.00368993;stroke-opacity:0"
     id="bolt_left"
     cx="-17.709103"
     cy="-27.648943"
     rx="0.094999999"
     ry="0.028942173"
     inkscape:label="bolt_left"
     transform="scale(-1)" />
  <ellipse
     style="opacity:0;fill:none;fill-opacity:0;fill-rule:evenodd;stroke-width:0.000191947;stroke-opacity:0"
     id="bolt_right"
     cx="191.54613"
     cy="27.743528"
     rx="0.0049418169"
     ry="0.0015055466"
     inkscape:label="bolt_right" />
  <path
     id="profile_left"
     style="display:inline;fill:#5e5e5e;fill-rule:evenodd;stroke:#000000;stroke-width:0.0429187"
     d="m 67.013625,0.12160632 c -0.23763,0.002 -0.24202,0.52778 -0.47965,0.52739 -0.23203,-3.9e-4 -0.4666,-0.51654 -0.4666,-0.51654 h -0.99402 V 26.480086 c -0.0824,0.61577 -0.35762,1.05266 -1.09167,1.06344 H 7.7836248 l -0.0326,2.53491 H 77.461458 v -16.3967 l -3.498533,-0.29515 -1.87516,-0.48617 -1.6668,-0.89419 -1.37164,-1.38031 -0.8855,-1.5973497 c -0.0464,-0.40583 0.14455,-0.66715 0.47748,-0.84206 h 3.1947 l 0.43407,0.26043 c 0,0 1.28027,1.01801 2.04877,1.0678 0.747299,0.0483 1.573033,-0.2502 2.109543,-0.77264 0.53973,-0.52559 0.84054,-1.34752 0.83339,-2.10086 -0.007,-0.73408 -0.32581,-1.51822 -0.85077,-2.03141 -0.52682,-0.515 -1.321644,-0.84444 -2.057423,-0.80736 -0.76198,0.0385 -2.03577,1.04608 -2.03577,1.04608 l -0.41887,0.19968 h -3.14044 c -0.40539,-0.15903 -0.59069,-0.41376 -0.61636,-0.7379 l 0.7292,-1.31087 0.90287,-1.17197 1.24141,-0.92020998 v -0.77482 h -1.0678 c 0,0 -0.23044,0.48665 -0.45358,0.49266 -0.24036,0.006 -0.27632,-0.51383 -0.51653,-0.50351 -0.23779,0.0102 -0.22891,0.52897 -0.46663,0.54042 -0.24277,0.0116 -0.28437,-0.5077 -0.52738,-0.50352 -0.22864,0.004 -0.25099,0.49336 -0.47964,0.49049 -0.24006,-0.003 -0.25042,-0.52873 -0.49048,-0.52739 z m 0.34725,11.87379968 c 0.0553,0.003 0.11575,0.021 0.17796,0.0456 l 1.61472,1.47581 1.92723,1.04178 1.90987,0.69448 2.048789,0.0522 c 0.19833,0.0422 0.40984,0.0562 0.451417,0.43406 v 11.87592 c 0.023,0.31734 -0.0926,0.48702 -0.416707,0.4341 h -7.656859 c -0.37849,0.009 -0.37103,-0.23894 -0.4167,-0.45143 v -15.22693 c 0.0655,-0.28917 0.1944,-0.38694 0.36028,-0.37547 z"
     sodipodi:nodetypes="ssccccccccccccccccssssscccccccccssssssscccccccccccssc"
     inkscape:label="profile_left" />
  <path
     id="profile_right"
     style="display:inline;fill:#5e5e5e;fill-rule:evenodd;stroke:#000000;stroke-width:0.0420422"
     d="m 138.7435,0.12102114 v 0.75172 l 1.12762,0.87772996 0.99068,1.12975 0.67352,1.37742 c 0.0678,0.39611 -0.2081,0.63117 -0.56926,0.75389 h -2.9873 l -0.56922,-0.16078 -0.9581,-0.77344 c -0.6517,-0.37077 -1.41998,-0.32241 -2.22256,-0.1499 -0.66422,0.29861 -1.1975,0.82709 -1.61858,1.55123 -0.33888,0.93422 -0.28106,1.69844 0.02,2.35944 0.59564,0.95376 1.4418,1.62285 2.88518,1.60772 0.45692,0.0628 1.2405,-0.32653 2.42682,-1.26662 h 3.02208 c 0.51464,0.0462 0.69688,0.3431 0.60398,0.84513 l -0.85604,1.5381999 -1.39046,1.40132 -1.66418,0.90163 -1.85756,0.50187 -3.5913,0.27374 v 16.4031 l 69.84673,0.0348 v -2.49414 h -9.8614 -46.47833 c -0.63198,-0.006 -0.9633,-0.35686 -0.98854,-1.0624 V 0.13189114 h -1.11662 c 0,0 -0.1946,0.52654 -0.42152,0.53663 -0.22816,0.01 -0.2388,-0.49514 -0.4671,-0.50187 -0.24182,-0.007 -0.28404,0.50986 -0.52578,0.50187 -0.23662,-0.008 -0.24128,-0.51778 -0.47798,-0.52577 -0.23084,-0.008 -0.27062,0.48014 -0.50186,0.48014 -0.23122,0 -0.27104,-0.48813 -0.50186,-0.48014 -0.2366,0.008 -0.2417,0.5388 -0.47798,0.52577 -0.22534,-0.0124 -0.39974,-0.5475 -0.39974,-0.5475 z m 3.6478,11.87322986 c 0.20202,-0.0118 0.31826,0.1269 0.3498,0.42583 v 15.20816 c -0.0456,0.27762 -0.1892,0.42194 -0.44322,0.42149 h -7.7518 c -0.31784,-0.0372 -0.2861,-0.24208 -0.33024,-0.41062 v -11.89061 c -0.004,-0.21505 0.1322,-0.37369 0.43232,-0.46711 h 2.05096 l 2.01832,-0.72999 1.81194,-0.99071 1.63162,-1.50561 c 0.086,-0.0371 0.163,-0.0569 0.2303,-0.0608 z"
     inkscape:label="profile_right" />
  <path
     style="fill:#5e5e5e;fill-rule:evenodd;stroke:#000000;stroke-width:0.0298261"
     d="M 71.573158,4.5885712 69.075499,4.4558295 C 68.76504,4.394128 68.521951,4.1856507 68.544595,3.9369927 68.588083,3.4596199 68.946938,3.0844745 69.244421,2.7545256 70.447763,1.3909852 71.88342,0.48074157 73.745039,0.40164902 l 1.254865,-0.0120358 39.685076,3.87318258 -0.30164,3.064766 -33.71895,-3.2776371 c -0.16605,0.026276 -0.307753,0.1011586 -0.409536,0.255965 -0.05394,0.1215035 -0.08338,0.2464799 -0.02567,0.3839446 0.421905,0.7360379 0.434216,1.569976 0.383941,2.3633449 0.04191,0.9644786 -0.374037,1.5641567 -0.588709,2.3036299 -0.05757,0.1984397 0.138919,0.5018547 0.383942,0.4948566 l 16.768787,-0.4789027 18.159365,1.815933 0.0362,0.796358 -1.59273,0.03622 c 0,0 -0.17542,-0.494133 -0.3861,-0.500744 -0.23787,-0.0075 -0.23321,0.521561 -0.47059,0.536937 -0.24603,0.01605 -0.30869,-0.497915 -0.55503,-0.488671 -0.2472,0.0093 -0.27143,0.534663 -0.51882,0.530903 -0.23757,-0.0038 -0.24517,-0.530804 -0.48265,-0.524873 -0.23262,0.0061 -0.21424,0.520155 -0.44644,0.536942 -0.24283,0.01752 -0.30039,-0.509714 -0.54299,-0.48868 -0.22414,0.01956 -0.19321,0.502536 -0.41625,0.530907 -0.25626,0.03257 -0.35829,-0.494719 -0.61536,-0.470573 -0.20694,0.01956 -0.20868,0.451065 -0.41629,0.464541 -0.24633,0.01605 -0.31512,-0.502123 -0.56109,-0.482638 -0.23903,0.01897 -0.22532,0.53341 -0.46452,0.549001 -0.24137,0.01576 -0.295,-0.493597 -0.53694,-0.48867 -0.22591,0.0046 -0.25655,0.476635 -0.48264,0.476603 -0.23757,-3.9e-5 -0.26938,-0.510247 -0.50676,-0.500736 -0.24925,0.0099 -0.23933,0.558551 -0.4887,0.567099 -0.25451,0.0087 -0.28252,-0.551427 -0.53691,-0.542966 -0.23641,0.0078 -0.22823,0.52628 -0.46461,0.536905 -0.24021,0.01073 -0.27874,-0.513382 -0.51886,-0.500741 -0.2437,0.01291 -0.22677,0.54902 -0.47057,0.561069 -0.25275,0.01262 -0.29011,-0.541709 -0.54295,-0.530904 -0.24925,0.01073 -0.23934,0.560015 -0.48868,0.567103 -0.24604,0.007 -0.26676,-0.531566 -0.5128,-0.530903 -0.25041,6.71e-4 -0.2688,0.551609 -0.51884,0.542966 -0.23262,-0.0081 -0.21366,-0.537435 -0.44644,-0.536934 -0.23699,5.08e-4 -0.21569,0.535652 -0.45247,0.549003 -0.25714,0.01459 -0.29785,-0.547628 -0.55504,-0.536934 -0.25626,0.01073 -0.25042,0.566882 -0.506765,0.57917 -0.24312,0.01175 -0.28807,-0.515036 -0.53091,-0.500743 -0.22531,0.01349 -0.20897,0.510124 -0.43437,0.518836 -0.25568,0.0099 -0.28136,-0.561078 -0.53694,-0.549 -0.24284,0.01131 -0.21569,0.552861 -0.45852,0.567101 -0.24137,0.01407 -0.27699,-0.511609 -0.51882,-0.506773 -0.25188,0.0055 -0.26706,0.546194 -0.51886,0.549006 -0.24019,0.0023 -0.26647,-0.518644 -0.50676,-0.512806 -0.23495,0.0055 -0.23582,0.519159 -0.4706,0.524865 -0.24019,0.0061 -0.26355,-0.518308 -0.50676,-0.512803 -0.24312,0.0055 -0.24837,0.541893 -0.4947,0.549006 -0.24575,0.007 -0.27932,-0.532672 -0.52486,-0.518841 -0.23992,0.01349 -0.21249,0.548255 -0.45248,0.561074 -0.27553,0.01489 -0.31023,-0.607192 -0.5852,-0.585205 -0.24983,0.02014 -0.19029,0.594311 -0.44042,0.609337 -0.25129,0.01518 -0.26092,-0.560704 -0.5128,-0.555036 -0.25246,0.0055 -0.23641,0.567028 -0.48867,0.57917 -0.24429,0.01175 -0.28049,-0.520048 -0.52486,-0.512812 -0.23903,0.007 -0.24341,0.525213 -0.48266,0.530905 -0.25596,0.0061 -0.28719,-0.552427 -0.54295,-0.542968 -0.23087,0.0084 -0.22211,0.50705 -0.45248,0.524875 -0.2291,0.01781 -0.29581,-0.463227 -0.52488,-0.446448 -0.21599,0.01576 -0.21248,0.469735 -0.42834,0.488672 -0.24664,0.02159 -0.33215,-0.479597 -0.57919,-0.464541 -0.22998,0.01407 -0.25217,0.493289 -0.48262,0.49471 -0.23612,0.0016 -0.26473,-0.509157 -0.500748,-0.50074 -0.239338,0.0084 -0.231159,0.533715 -0.470585,0.542967 -0.237279,0.009 -0.269384,-0.504271 -0.506764,-0.500734 -0.239034,0.0038 -0.255957,0.512053 -0.4947,0.518832 -0.258886,0.0075 -0.308914,-0.550788 -0.567104,-0.530903 -0.247197,0.01897 -0.211017,0.573155 -0.458505,0.585199 -0.241673,0.01175 -0.258886,-0.524893 -0.500733,-0.524864 -0.239033,3.1e-5 -0.255956,0.509151 -0.4947,0.518835 -0.223575,0.009 -0.277272,-0.452106 -0.500761,-0.446439 -0.217442,0.0055 -0.249242,0.426747 -0.464523,0.458507 -0.198185,0.02928 -0.317702,-0.378945 -0.536956,-0.50074 -0.213933,-0.11885 -0.226897,0.526648 -0.464538,0.542968 -0.238744,0.01634 -0.29769,-0.482309 -0.536927,-0.476603 -0.241702,0.0055 -0.277099,0.505322 -0.518844,0.506772 -0.238947,0.0016 -0.279984,-0.50203 -0.518844,-0.49471 -0.227563,0.007 -0.236873,0.498595 -0.464538,0.50074 -0.22897,0.0023 -0.247647,-0.497775 -0.476603,-0.494711 -0.250504,0.0032 -0.256406,0.546435 -0.506779,0.555039 -0.244486,0.0084 -0.286727,-0.522049 -0.530894,-0.506772 -0.209713,0.0132 -0.188614,0.473713 -0.398197,0.48868 -0.242731,0.01752 -0.293658,-0.50177 -0.536926,-0.49471 -0.248779,0.007 -0.270124,0.528263 -0.518844,0.536934 -0.243355,0.0084 -0.299808,-0.501546 -0.54296,-0.488672 -0.240324,0.01291 -0.244297,0.503682 -0.482649,0.536934 -0.751309,0.104813 -2.428008,-0.04363 -2.42584,-0.0046 -1.030269,-0.08315 -2.018941,-0.518602 -2.909394,-1.151811 C 69.791217,11.272557 69.137482,10.633184 68.830498,9.9195127 68.750236,9.7948335 68.698337,9.6663783 68.85618,9.5099768 69.051525,9.1954671 69.153987,9.29893 69.291311,9.2454896 70.10702,9.1000538 70.934805,8.9969085 71.782649,8.9639275 72.535157,9.4860909 73.282028,10.019852 74.316632,9.9621687 75.08321,9.9426067 75.888038,9.7496906 76.893287,8.6482447 77.398631,7.9574339 77.564768,7.218171 77.507591,6.4470031 77.450457,5.5212913 77.029669,4.7730074 76.313119,4.1689703 75.566711,3.6132401 74.721742,3.3300264 73.702335,3.5290664 73.108101,3.545409 72.358718,4.0143176 71.573211,4.5885669 Z"
     id="compensator_left"
     sodipodi:nodetypes="ccscccccccccssccccsssssssssssssssssssssssssssssssssssasasssssssssssssssssssssssssssssssssssssscccccccccccc"
     inkscape:label="compensator_left">
    <title
       id="title3">metal</title>
  </path>
  <path
     style="fill:#5e5e5e;fill-rule:evenodd;stroke:#000000;stroke-width:0.0298261"
     d="m 137.98805,8.611437 2.49766,0.1327417 c 0.31045,0.061701 0.55354,0.2701788 0.53089,0.5188324 -0.0435,0.4773728 -0.40235,0.8525209 -0.69983,1.1824689 -1.20336,1.36354 -2.63901,2.273785 -4.5006,2.352875 l -1.25487,0.01204 -39.685105,-3.8731858 0.30166,-3.0647646 33.718965,3.2776357 c 0.16607,-0.026261 0.30774,-0.1011587 0.40951,-0.255965 0.0539,-0.1215035 0.0835,-0.2464785 0.0263,-0.3839417 -0.42192,-0.7360379 -0.43423,-1.569979 -0.38396,-2.3633449 -0.0418,-0.9644772 0.37404,-1.5641568 0.58873,-2.3036328 0.0574,-0.1984093 -0.13892,-0.5018519 -0.38395,-0.4948552 l -16.7688,0.4789027 -18.159325,-1.815934 -0.0363,-0.7963545 1.59271,-0.036223 c 0,0 0.1754,0.4941315 0.3861,0.5007396 0.23787,0.00754 0.2332,-0.5215586 0.47057,-0.536934 0.24604,-0.016053 0.30874,0.4979149 0.55504,0.4886719 0.24721,-0.00928 0.27142,-0.534666 0.51884,-0.5309045 0.23758,0.00377 0.24517,0.5308045 0.48266,0.524875 0.23261,-0.00609 0.21423,-0.5201578 0.44643,-0.536947 0.24283,-0.017517 0.30039,0.5097157 0.54296,0.4886806 0.22416,-0.019547 0.19321,-0.5025319 0.41629,-0.5309045 0.25625,-0.032569 0.35826,0.4947189 0.615365,0.4705704 0.20692,-0.019547 0.20868,-0.4510651 0.41627,-0.4645394 0.24606,-0.016053 0.31514,0.502123 0.56106,0.482641 0.23903,-0.018967 0.22532,-0.5334147 0.46457,-0.54900608 0.24137,-0.0157625 0.29495,0.49359788 0.53691,0.48867188 0.2259,-0.00464 0.25655,-0.47663174 0.48265,-0.47659984 0.23758,3.77e-5 0.2694,0.51024644 0.50676,0.50073094 0.24926,-0.00986 0.23933,-0.55854914 0.48867,-0.56709745 0.25451,-0.008701 0.28252,0.55143065 0.53694,0.54296635 0.23672,-0.00783 0.22825,-0.52627865 0.46463,-0.53690495 0.24021,-0.0107307 0.27872,0.51338305 0.51881,0.50074255 0.24371,-0.012906 0.22678,-0.54902347 0.47057,-0.56106796 0.25276,-0.0126158 0.29012,0.54170916 0.54299,0.53090446 0.24926,-0.010731 0.23933,-0.56001802 0.48867,-0.56710754 0.24604,-0.00696 0.26676,0.53157014 0.51281,0.53090454 0.25042,-6.714e-4 0.26881,-0.5516061 0.51885,-0.54296353 0.2326,0.008121 0.21364,0.53743573 0.44644,0.53693403 0.23699,-5.119e-4 0.21568,-0.5356536 0.45247,-0.54900607 0.25713,-0.014588 0.29785,0.54763137 0.55504,0.53693687 0.25626,-0.010731 0.25041,-0.56688279 0.50676,-0.57916945 0.24313,-0.0117458 0.28806,0.51503465 0.5309,0.50073965 0.22502,-0.013196 0.20897,-0.51012321 0.43439,-0.51883248 0.25566,-0.009861 0.28134,0.56107378 0.53694,0.54899738 0.24283,-0.011456 0.21569,-0.55285899 0.45849,-0.56709892 0.24137,-0.0140659 0.27727,0.51160662 0.51884,0.50677342 0.25189,-0.00551 0.26705,-0.54619571 0.51885,-0.54900599 0.24021,-0.00232 0.26647,0.51863959 0.50676,0.51280299 0.23495,-0.00551 0.23554,-0.51916021 0.47057,-0.52486634 0.24021,-0.00609 0.26356,0.51831044 0.50677,0.51280294 0.24341,-0.00551 0.24837,-0.5418933 0.49471,-0.54900601 0.24604,-0.00696 0.27932,0.53267361 0.52489,0.51884551 0.23991,-0.013486 0.21247,-0.54825634 0.45248,-0.56107809 0.27551,-0.0148925 0.31019,0.60719549 0.58518,0.58520909 0.24984,-0.020142 0.1903,-0.59431133 0.44043,-0.60934012 0.2513,-0.0151825 0.26093,0.56070682 0.51278,0.55503552 0.25246,-0.00551 0.23641,-0.56702781 0.48869,-0.57916655 0.24429,-0.0117458 0.28048,0.52004615 0.52487,0.51281165 0.23903,-0.00696 0.24341,-0.52521287 0.48262,-0.53090449 0.25597,-0.00609 0.28719,0.55242679 0.54299,0.54296639 0.23085,-0.00841 0.22211,-0.50704898 0.45247,-0.52487355 0.22911,-0.0178072 0.2958,0.46322715 0.52486,0.44644665 0.21598,-0.0157626 0.21248,-0.46973808 0.42834,-0.48867053 0.24662,-0.0215919 0.33213,0.47959724 0.57917,0.46453655 0.22999,-0.0140659 0.25217,-0.49328903 0.48267,-0.49471013 0.23612,-0.001595 0.26471,0.50916033 0.50071,0.50074253 0.23933,-0.008411 0.23116,-0.53371479 0.47057,-0.5429664 0.2373,-0.008991 0.2694,0.50426916 0.5068,0.50073382 0.23903,-0.00377 0.25568,-0.51205471 0.49471,-0.51883536 0.25889,-0.00754 0.3089,0.55078966 0.56709,0.53090451 0.24721,-0.0189672 0.21102,-0.57315158 0.45849,-0.58520042 0.24166,-0.0116008 0.25889,0.52489821 0.50075,0.52486631 0.23903,-2.901e-5 0.25597,-0.50915163 0.49471,-0.51883247 0.22357,-0.008991 0.27728,0.45210634 0.50072,0.44643501 0.21744,-0.00551 0.24926,-0.42674561 0.46457,-0.45850705 0.19817,-0.0292774 0.31769,0.37894468 0.53694,0.50074253 0.21393,0.1188498 0.22678,-0.52665138 0.46452,-0.5429664 0.23876,-0.0163426 0.29768,0.48230891 0.53696,0.47659989 0.24166,-0.00551 0.27697,-0.50531903 0.51881,-0.50677347 0.23904,-0.001595 0.2799,0.50203311 0.51885,0.49471013 0.22765,-0.00696 0.23699,-0.49859059 0.46457,-0.50073963 0.22881,-0.00232 0.24748,0.49777418 0.47657,0.49471013 0.25043,-0.00319 0.25655,-0.54643357 0.50676,-0.55503554 0.24459,-0.008411 0.28691,0.52204588 0.53094,0.50677347 0.20956,-0.0131959 0.18854,-0.4737142 0.39815,-0.48868063 0.24284,-0.0175171 0.29368,0.50176774 0.53696,0.49471013 0.24866,-0.00696 0.27025,-0.52826243 0.51884,-0.536934 0.24342,-0.008411 0.2998,0.50154297 0.54295,0.48867193 0.24021,-0.0129059 0.2443,-0.50368622 0.48266,-0.53693835 0.75128,-0.10481288 2.428,0.0436334 2.42584,0.00464 1.03028,0.0831485 2.01894,0.5186019 2.90938,1.15181064 0.75421,0.617842 1.40796,1.2572108 1.71494,1.9708867 0.0803,0.1246792 0.13225,0.2531344 -0.0262,0.4095316 -0.19526,0.314514 -0.29782,0.2110483 -0.43513,0.2644886 -0.81571,0.1454359 -1.6435,0.2485797 -2.49134,0.2815607 -0.75251,-0.5221619 -1.49938,-1.0559246 -2.53398,-0.9982369 -0.7666,0.019547 -1.57141,0.2124767 -2.57665,1.313924 -0.50536,0.690808 -0.67149,1.4300738 -0.61432,2.2012402 0.0571,0.9257118 0.47794,1.6739971 1.19449,2.2780299 0.74642,0.5557302 1.59136,0.8389439 2.61078,0.6399039 0.59424,-0.016343 1.3436,-0.4852497 2.12913,-1.059499 z"
     id="compensator_right"
     sodipodi:nodetypes="ccscccccccccssccccsssssssssssssssssssssssssssssssssssasasssssssssssssssssssssssssssssssssssssscccccccccccc"
     inkscape:label="compensator_right">
    <title
       id="title4">metal</title>
  </path>
</svg>
