<?xml version="1.0" encoding="UTF-8" standalone="no"?>
<!-- Created with Inkscape (http://www.inkscape.org/) -->

<svg
   width="210mm"
   height="297mm"
   viewBox="0 0 210 297"
   version="1.1"
   id="svg1"
   inkscape:version="1.4 (86a8ad7, 2024-10-11)"
   sodipodi:docname="DSHA-15-043-corner.svg"
   xmlns:inkscape="http://www.inkscape.org/namespaces/inkscape"
   xmlns:sodipodi="http://sodipodi.sourceforge.net/DTD/sodipodi-0.dtd"
   xmlns="http://www.w3.org/2000/svg"
   xmlns:svg="http://www.w3.org/2000/svg">
  <sodipodi:namedview
     id="namedview1"
     pagecolor="#ffffff"
     bordercolor="#000000"
     borderopacity="0.25"
     inkscape:showpageshadow="2"
     inkscape:pageopacity="0.0"
     inkscape:pagecheckerboard="0"
     inkscape:deskcolor="#d1d1d1"
     inkscape:document-units="mm"
     inkscape:zoom="0.5233761"
     inkscape:cx="232.14663"
     inkscape:cy="539.76481"
     inkscape:window-width="2560"
     inkscape:window-height="1377"
     inkscape:window-x="-8"
     inkscape:window-y="-8"
     inkscape:window-maximized="1"
     inkscape:current-layer="svg1" />
  <defs
     id="defs1" />
  <rect
     style="fill:#b8b8b8;fill-opacity:1;fill-rule:evenodd;stroke:#b81e1e;stroke-width:0.0579259"
     id="concrete_left"
     width="78.195999"
     height="89.231377"
     x="35.407021"
     y="67.615494" />
  <rect
     style="fill:#a39a9a;fill-rule:evenodd;stroke:#b81e1e;stroke-width:0.0205287"
     id="finish_left"
     width="65.819481"
     height="9.5968637"
     x="35.351261"
     y="58.030811" />
  <rect
     style="fill:#a39a9a;fill-rule:evenodd;stroke:#b81e1e;stroke-width:0.0341611"
     id="cover_left"
     width="65.767876"
     height="5.3449874"
     x="35.398586"
     y="52.581093" />
  <rect
     style="fill:#404242;fill-opacity:0.341246;fill-rule:evenodd;stroke:#b81e1e;stroke-width:0.0176523"
     id="shadow"
     width="92.16394"
     height="0.014839376"
     x="78.267624"
     y="156.83141"
     inkscape:label="shadow" />
  <ellipse
     style="opacity:0;fill:none;fill-opacity:0;fill-rule:evenodd;stroke-width:0.00253958;stroke-opacity:0"
     id="bolt_left"
     cx="-53.661831"
     cy="-64.746941"
     rx="0.045000002"
     ry="0.028942173"
     inkscape:label="bolt_left"
     transform="scale(-1)" />
  <ellipse
     style="opacity:0;fill:none;fill-opacity:0;fill-rule:evenodd;stroke-width:0.000191947;stroke-opacity:0"
     id="screw_right"
     cx="149.64816"
     cy="17.141939"
     rx="0.0049418169"
     ry="0.0015055466"
     inkscape:label="screw_right" />
  <path
     style="fill:#5e5e5e;fill-rule:evenodd;stroke:#000000;stroke-width:0.0441661"
     d="m 144.37463,60.805714 h 3.29292 c 0.0846,-0.0709 0.72166,0.39848 0.52726,0.78512 -0.22127,0.44001 -0.41877,0.93966 -0.67956,1.37107 -0.25974,0.4296 -0.59704,0.81424 -0.96096,1.16012 -0.40281,0.38249 -1.33586,0.99606 -1.33586,0.99606 v 0.71484 h 1.24207 c 0,0 0.13873,-0.47882 0.33969,-0.50389 0.24462,-0.0302 0.30469,0.50467 0.55083,0.49218 0.24289,-0.0129 0.24894,-0.54162 0.49218,-0.53907 0.24937,0.002 0.24332,0.55156 0.49216,0.5625 0.25932,0.0129 0.30298,-0.54335 0.5625,-0.53903 0.23467,0.004 0.25759,0.49835 0.49214,0.50389 0.23467,0.004 0.28135,-0.49689 0.51559,-0.48047 0.21048,0.0129 0.39848,0.49218 0.39848,0.49218 h 1.12499 V 4.2255222 h -0.86049 l -1.43049,4.227839 v 1.5936928 c 0,0 0.52004,0.16294 0.53318,0.38075 0.013,0.24852 -0.54258,0.255 -0.55082,0.50389 -0.013,0.25975 0.54603,0.30297 0.53907,0.56254 -0.013,0.25672 -0.56799,0.27055 -0.5625,0.52731 0,0.25759 0.58077,0.24635 0.58592,0.50389 0,0.23468 -0.50865,0.24548 -0.5156,0.48046 -0.013,0.22647 0.47147,0.2658 0.46871,0.49218 0,0.23727 -0.50748,0.26623 -0.5038,0.50389 0,0.26795 0.58716,0.28264 0.58591,0.55077 0,0.2766 -0.6214,0.28611 -0.60938,0.5625 0.013,0.26147 0.61336,0.21869 0.62107,0.48046 0.013,0.24332 -0.4963,0.24289 -0.55075,0.48046 -0.0891,0.38897 0.47639,0.70257 0.46875,1.10152 -0.013,0.37557 -0.55473,0.65122 -0.48051,1.01953 0.0432,0.20615 0.45945,0.21177 0.46871,0.42182 0.013,0.23467 -0.48315,0.28049 -0.48037,0.51559 0,0.2403 0.50517,0.27531 0.50384,0.51561 0,0.23208 -0.47995,0.26061 -0.49218,0.49217 -0.013,0.23598 0.45099,0.31463 0.44528,0.55078 -0.013,0.24073 -0.48724,0.29864 -0.48037,0.53907 0.013,0.25413 0.53763,0.28481 0.53902,0.53902 0,0.25672 -0.55653,0.29432 -0.53902,0.55079 0.0173,0.24158 0.56876,0.20312 0.57413,0.44532 0.013,0.27141 -0.62526,0.25585 -0.62102,0.52731 0,0.26969 0.62606,0.23424 0.6328,0.50389 0.013,0.26579 -0.58653,0.2619 -0.59771,0.52735 -0.013,0.25413 0.53448,0.29649 0.5274,0.55074 -0.013,0.24591 -0.54331,0.25802 -0.53907,0.50393 0,0.24375 0.54386,0.23684 0.55074,0.48046 0.013,0.2403 -0.51289,0.26364 -0.51565,0.50389 0,0.2403 0.51322,0.27531 0.50398,0.515601 -0.013,0.25456 -0.57464,0.24937 -0.57429,0.50389 3.3e-4,0.24375 0.53622,0.23727 0.55081,0.48046 0.0172,0.26234 -0.54303,0.32371 -0.52735,0.58592 0.013,0.2485 0.55562,0.24332 0.5625,0.49217 0.013,0.24592 -0.52294,0.26969 -0.52727,0.5156 0,0.23209 0.48745,0.27185 0.48037,0.50393 -0.013,0.22388 -0.48245,0.23339 -0.49217,0.456999 -0.013,0.27919 0.58695,0.34272 0.56249,0.62109 -0.0216,0.24116 -0.55631,0.204 -0.57416,0.44529 -0.0173,0.27141 0.58354,0.31809 0.56491,0.58946 -0.0173,0.23554 -0.54982,0.20313 -0.55518,0.43919 0,0.24851 0.56456,0.2403 0.56339,0.48889 0,0.26839 -0.66275,0.48046 -0.61314,0.52204 0.0492,0.0432 0.60869,0.24721 0.61314,0.51374 0,0.2524 -0.55848,0.25327 -0.56339,0.50545 0,0.25801 0.5563,0.28092 0.55518,0.53859 -0.002,0.24418 -0.53665,0.26147 -0.53038,0.50548 0.013,0.23295 0.51893,0.22301 0.53038,0.45574 0.013,0.25932 -0.54352,0.30384 -0.5386,0.56345 0,0.2498 0.53847,0.27185 0.5386,0.52204 9e-5,0.26968 -0.59041,0.29389 -0.58012,0.56344 0.013,0.25888 0.60048,0.23814 0.59668,0.49719 0,0.24591 -0.57322,0.21004 -0.58009,0.45574 -0.013,0.24635 0.54361,0.24246 0.55514,0.48889 0.013,0.26147 -0.54541,0.30988 -0.53853,0.57174 0.013,0.25586 0.56633,0.27444 0.55513,0.53034 -0.013,0.24721 -0.56145,0.21696 -0.57999,0.46404 -0.0172,0.24765 0.5082,0.29864 0.50544,0.54689 0,0.22647 -0.47774,0.26234 -0.47226,0.48889 0.013,0.25413 0.56022,0.26796 0.55516,0.52204 0,0.24851 -0.55996,0.24029 -0.56348,0.48885 0,0.22862 0.49073,0.23597 0.50538,0.46404 0.0173,0.25239 -0.49663,0.32716 -0.48884,0.58004 0.013,0.25196 0.52199,0.29475 0.52199,0.54689 0,0.24807 -0.51213,0.29043 -0.51373,0.53859 0,0.2148 0.43931,0.25715 0.43918,0.47234 -8e-5,0.22257 -0.45786,0.26622 -0.45566,0.48889 0,0.25802 0.55242,0.29777 0.5386,0.55515 -0.013,0.23294 -0.52982,0.21436 -0.5386,0.44748 -0.013,0.23036 0.49603,0.25023 0.49706,0.48059 0.002,0.25197 -0.53768,0.27833 -0.53858,0.5303 -7.8e-4,0.23813 0.49446,0.26752 0.50556,0.50548 0.013,0.25067 -0.49342,0.32933 -0.48062,0.58004 0.013,0.22431 0.48062,0.24765 0.48062,0.4723 0,0.21696 -0.44061,0.2403 -0.46404,0.45574 -0.0172,0.15083 0.24851,0.38119 0.24851,0.38119 v 1.62407 c -0.0696,0.29692 -0.22948,0.52973 -0.59654,0.61319 h -3.53824 v 0.74578 l 1.26782,1.00264 1.05233,1.17663 c -0.013,0 0.46737,0.81372 0.62153,1.28437 0.13096,0.39978 -0.52134,0.90051 -0.55518,0.87004 h -3.26479 c -0.7314,-0.78321 -1.57645,-1.20784 -2.5108,-1.35067 -0.0172,-0.0346 -1.54485,0.24073 -2.07976,0.82033 -0.47286,0.51249 -1.00492,1.28131 -1.03579,2.07986 -0.0303,0.79086 0.34359,1.63635 0.90315,2.19586 0.5764,0.57619 1.45167,0.72539 2.23734,0.68774 0.51127,-0.0259 0.96582,-0.12966 1.34234,-0.35613 0.40539,-0.24375 1.1475,-0.83502 1.1475,-0.83502 z"
     id="profile_right"
     sodipodi:nodetypes="ccssscccsssssssccccccsssssssssssssssssssssssssssssssssssssssssssssssssssssssssssssssssssssssssssscccccccscccsssssc"
     inkscape:label="profile_right" />
  <rect
     style="fill:#e1ecec;fill-opacity:0.77;fill-rule:evenodd;stroke:#b81e1e;stroke-width:0.0081378"
     id="finish_right"
     width="57.514656"
     height="2.036227"
     x="-57.518726"
     y="151.66786"
     inkscape:label="finish_right"
     transform="rotate(-90)" />
  <rect
     style="fill:#e1ecec;fill-opacity:0.77;fill-rule:evenodd;stroke:#b81e1e;stroke-width:0.00933925"
     id="cover_right"
     width="57.494617"
     height="0.12774748"
     x="-57.505093"
     y="151.49213"
     inkscape:label="cover_right"
     transform="rotate(-90)" />
  <path
     style="fill:#e1ecec;fill-opacity:0.77;fill-rule:evenodd;stroke:#b81e1e;stroke-width:0.0116676"
     d="m 153.71628,0.0159984 20.93689,-8.06e-6 V 157.50331 H 151.47204 V 57.558404 h 2.23314 z"
     id="concrete_right"
     inkscape:label="concrete_right"
     sodipodi:nodetypes="ccccccc" />
  <path
     style="fill:#5e5e5e;fill-rule:evenodd;stroke:#000000;stroke-width:0.0426565"
     d="m 44.498999,64.612549 h 9.72732 45.916681 c 0.54206,-0.04174 0.95075,-0.305129 1.07985,-1.034522 V 52.632704 h 1.09214 c 0,0 0.19868,0.523932 0.42705,0.536897 0.22415,0.01252 0.2517,-0.477195 0.47589,-0.475879 0.24462,0.0011 0.26841,0.536136 0.51247,0.524683 0.24544,-0.01168 0.21789,-0.563457 0.46371,-0.573496 0.24127,-0.01002 0.2588,0.534172 0.50027,0.524692 0.2254,-0.0088 0.20245,-0.506855 0.42705,-0.524692 0.25546,-0.02045 0.31807,0.535816 0.57354,0.512491 0.20494,-0.01878 0.37817,-0.488085 0.37817,-0.488085 h 1.04939 v 0.768736 l -1.1226,0.939566 -0.97838,1.097621 c 0.0292,0 -0.55975,0.835968 -0.67299,1.333063 -0.0714,0.313477 0.522,0.811075 0.522,0.811075 l 3.17521,-0.0167 1.30717,-1.005191 c 0.72335,-0.3442 1.44664,-0.371913 2.16997,-0.09487 0.83208,0.327669 1.35936,0.845859 1.63936,1.518561 0.33686,0.904505 0.36482,1.649421 0.0334,2.208839 -0.3139,0.753941 -0.75954,1.370674 -1.62212,1.553081 -0.84743,0.396543 -1.63438,0.248783 -2.38999,-0.181158 l -1.13032,-0.854199 h -3.20108 c -0.30888,0.09726 -0.57682,0.240015 -0.50043,0.767921 l 0.90595,1.622121 1.32016,1.371877 1.64796,0.888719 1.8292,0.45728 3.50302,0.284681 v 1.449561 H 44.270299 v -2.752407 c -0.003,-0.118963 0.0855,-0.187002 0.2287,-0.224568 z"
     id="profile_left"
     sodipodi:nodetypes="ccccccssssssscccccsccccccccccccccccccccc"
     inkscape:label="profile_left" />
  <path
     style="fill:#5e5e5e;fill-rule:evenodd;stroke:#000000;stroke-width:0.0313521"
     d="m 104.79203,56.268448 c 0.14327,-0.378324 0.37095,-0.644141 0.5823,-0.931683 0.61571,-0.874553 1.35622,-1.468252 2.16285,-1.91328 1.06751,-0.555305 2.17394,-0.884967 3.36071,-0.748667 l 2.44568,0.449203 17.70192,3.726734 -0.63221,2.978052 -13.85875,-2.894868 c -0.14665,0.04148 -0.28625,0.123357 -0.41594,0.266177 -0.0912,0.176962 -0.0838,0.338784 -0.0665,0.499119 l 0.2163,0.848496 v 1.098056 l -0.18286,0.998227 -0.366,1.064785 c -0.006,0.138644 -0.0245,0.277282 0.0832,0.415925 0.1221,0.144807 0.24391,0.180733 0.36601,0.183004 l 6.93771,-0.316106 9.81593,2.112915 0.0665,0.482479 -3.64356,0.183004 c 0,0 -0.2034,-0.47544 -0.41626,-0.484727 -0.26291,-0.0114 -0.30158,0.56318 -0.56442,0.551728 -0.2172,-0.0095 -0.2077,-0.487065 -0.42487,-0.494645 -0.2525,-0.0088 -0.28012,0.533065 -0.53269,0.539039 -0.25281,0.0058 -0.30619,-0.536362 -0.55809,-0.513674 -0.23746,0.02147 -0.1933,0.554269 -0.43124,0.570747 -0.25956,0.0178 -0.29207,-0.565942 -0.55172,-0.551727 -0.24635,0.01354 -0.2169,0.559225 -0.46292,0.577093 -0.25065,0.01809 -0.30158,-0.535956 -0.55173,-0.513673 -0.24208,0.02147 -0.19545,0.562742 -0.43759,0.583432 -0.26079,0.0224 -0.30946,-0.553577 -0.57073,-0.539039 -0.235,0.01325 -0.22151,0.527044 -0.45661,0.539039 -0.23133,0.01197 -0.26937,-0.487712 -0.50099,-0.481966 -0.24667,0.0064 -0.26079,0.531612 -0.50734,0.539039 -0.24973,0.0074 -0.29697,-0.538249 -0.54539,-0.513672 -0.23224,0.02301 -0.17426,0.541069 -0.40585,0.570746 -0.27091,0.03473 -0.35687,-0.560512 -0.62784,-0.526353 -0.23745,0.03006 -0.18039,0.561199 -0.41852,0.583433 -0.25894,0.02424 -0.30527,-0.561337 -0.56442,-0.539045 -0.25157,0.02147 -0.19819,0.594259 -0.45026,0.608799 -0.26875,0.01564 -0.28286,-0.604148 -0.55172,-0.589775 -0.24575,0.01325 -0.1988,0.566776 -0.4439,0.589775 -0.25341,0.02394 -0.3107,-0.532317 -0.56442,-0.513674 -0.23961,0.01748 -0.21691,0.54176 -0.4566,0.558067 -0.2476,0.01687 -0.2976,-0.523203 -0.54537,-0.507331 -0.24421,0.01564 -0.22519,0.550343 -0.46931,0.564404 -0.25678,0.01473 -0.3025,-0.560073 -0.55806,-0.5327 -0.23623,0.02516 -0.16321,0.565917 -0.3995,0.589779 -0.26171,0.02639 -0.30158,-0.563812 -0.56443,-0.551724 -0.24114,0.01111 -0.22824,0.53559 -0.46927,0.551724 -0.25248,0.01687 -0.31257,-0.531132 -0.56441,-0.507331 -0.25372,0.02394 -0.20831,0.600049 -0.46296,0.608798 -0.24697,0.0085 -0.4883,-0.558066 -0.4883,-0.558066 -0.14357,-0.164106 -0.29452,0.349932 -0.53905,0.589773 l -2.50495,-0.0064 c -0.073,0.06568 -2.26787,-0.503726 -3.06936,-1.230286 -0.66182,-0.599967 -1.64878,-1.141823 -1.7503,-2.029331 -0.0215,-0.185059 0.25985,-0.494648 0.25985,-0.494648 1.06208,-0.249764 2.15587,-0.436054 3.33572,-0.450259 0.7105,0.568577 1.54711,0.969007 2.96092,0.599847 0.75702,-0.419131 1.51819,-0.835218 1.73093,-1.650199 0.33781,-0.576971 0.36707,-1.153942 0.21536,-1.730914 -0.10001,-0.83435 -0.58837,-1.363437 -1.15692,-1.829575 -0.63216,-0.481099 -1.39492,-0.748022 -2.44841,-0.538115 -0.78963,0.157601 -1.15996,0.566786 -1.63227,0.914782 l -2.94163,-0.125565 c -0.22918,0.0048 -0.38031,-0.128428 -0.50225,-0.313887 -0.0596,-0.137746 -0.061,-0.275503 -0.0128,-0.413271 z"
     id="compensator_left"
     sodipodi:nodetypes="ccccccccccccccccccccsssssssssssssssssssssssssssssssssccsscccccccccccc"
     inkscape:label="compensator_left">
    <title
       id="title2">metal</title>
  </path>
  <path
     style="fill:#5e5e5e;fill-rule:evenodd;stroke:#000000;stroke-width:0.0313521"
     d="m 147.43665,61.988448 c -0.14328,0.378325 -0.37095,0.644143 -0.58231,0.931683 -0.61571,0.874551 -1.35626,1.468255 -2.16287,1.91328 -1.06752,0.555304 -2.17395,0.884966 -3.36071,0.748669 l -2.44565,-0.449205 -17.70195,-3.726731 0.63221,-2.978055 13.85878,2.894867 c 0.14664,-0.04147 0.28624,-0.123356 0.41591,-0.266177 0.0912,-0.176961 0.0838,-0.338784 0.0665,-0.499119 l -0.2163,-0.848495 v -1.098056 l 0.18286,-0.998228 0.36601,-1.064784 c 0.006,-0.138644 0.0245,-0.277284 -0.0832,-0.415925 -0.1221,-0.144807 -0.24389,-0.180734 -0.36604,-0.183004 l -6.93768,0.316105 -9.81596,-2.112919 -0.0665,-0.482477 3.64354,-0.183004 c 0,0 0.20341,0.475439 0.41626,0.484726 0.26293,0.0114 0.30158,-0.56318 0.56442,-0.551728 0.21722,0.0096 0.20769,0.487065 0.42487,0.494649 0.25249,0.0088 0.28011,-0.533065 0.53269,-0.539042 0.25281,-0.0058 0.30618,0.53636 0.55807,0.513672 0.23746,-0.02147 0.19328,-0.554265 0.43123,-0.570745 0.25955,-0.0178 0.29208,0.565941 0.55174,0.551728 0.24636,-0.01353 0.21691,-0.559227 0.46294,-0.577095 0.25064,-0.0181 0.30158,0.535956 0.55174,0.513674 0.24205,-0.02147 0.19542,-0.562743 0.43754,-0.583433 0.26079,-0.0224 0.30947,0.553578 0.57078,0.539039 0.235,-0.01325 0.22151,-0.527043 0.45659,-0.539039 0.23133,-0.01197 0.26937,0.487714 0.50098,0.481965 0.24665,-0.0064 0.26077,-0.531611 0.50734,-0.539038 0.24974,-0.0074 0.29699,0.538253 0.5454,0.513673 0.23225,-0.02301 0.17425,-0.54107 0.40586,-0.570747 0.27091,-0.03472 0.35686,0.560512 0.62783,0.526353 0.23746,-0.03006 0.1801,-0.561198 0.41853,-0.583432 0.25894,-0.02423 0.30527,0.561337 0.56441,0.539048 0.25157,-0.02147 0.1982,-0.594262 0.45026,-0.608802 0.26876,-0.01564 0.28287,0.604151 0.55172,0.589774 0.24573,-0.01325 0.1991,-0.566776 0.44394,-0.589774 0.25309,-0.02394 0.31068,0.53232 0.5644,0.513673 0.23962,-0.01748 0.2169,-0.541756 0.45661,-0.558065 0.24758,-0.01687 0.29759,0.523201 0.54536,0.507333 0.24421,-0.01564 0.22519,-0.550347 0.46927,-0.564408 0.25679,-0.01472 0.30251,0.560073 0.5581,0.532701 0.23624,-0.02516 0.16322,-0.565917 0.39951,-0.58978 0.26169,-0.02639 0.30158,0.563813 0.56441,0.551725 0.24114,-0.01111 0.22826,-0.535588 0.46928,-0.551725 0.25249,-0.01687 0.31256,0.531133 0.56442,0.507332 0.25372,-0.02394 0.208,-0.600049 0.46292,-0.608798 0.24697,-0.0085 0.48832,0.558065 0.48832,0.558065 0.14359,0.164106 0.29453,-0.349928 0.53905,-0.589773 l 2.50494,0.0064 c 0.0731,-0.06568 2.2679,0.503728 3.06937,1.230285 0.66183,0.599969 1.64878,1.141823 1.75031,2.029334 0.0215,0.18506 -0.26015,0.494646 -0.26015,0.494646 -1.06209,0.249763 -2.15591,0.436053 -3.33573,0.450258 -0.7105,-0.568577 -1.54711,-0.969005 -2.96092,-0.599845 -0.75702,0.419129 -1.51822,0.835216 -1.73091,1.650198 -0.33782,0.57697 -0.36709,1.153942 -0.21537,1.730913 0.10002,0.83434 0.58836,1.36343 1.15692,1.829568 0.63216,0.481096 1.39488,0.748019 2.44841,0.538111 0.78963,-0.157602 1.15995,-0.566782 1.63224,-0.914782 l 2.94166,0.125578 c 0.22919,-0.0048 0.3803,0.128429 0.50225,0.313886 0.0596,0.137747 0.061,0.275505 0.0128,0.413271 z"
     id="compensator_right"
     sodipodi:nodetypes="ccccccccccccccccccccsssssssssssssssssssssssssssssssssccsscccccccccccc"
     inkscape:label="compensator_right">
    <title
       id="title1">metal</title>
  </path>
</svg>
