<?xml version="1.0" encoding="UTF-8" standalone="no"?>
<!-- Created with Inkscape (http://www.inkscape.org/) -->

<svg
   width="210mm"
   height="297mm"
   viewBox="0 0 210 297"
   version="1.1"
   id="svg1"
   inkscape:version="1.4 (86a8ad7, 2024-10-11)"
   sodipodi:docname="DSHA-30-200.svg"
   xmlns:inkscape="http://www.inkscape.org/namespaces/inkscape"
   xmlns:sodipodi="http://sodipodi.sourceforge.net/DTD/sodipodi-0.dtd"
   xmlns="http://www.w3.org/2000/svg"
   xmlns:svg="http://www.w3.org/2000/svg">
  <sodipodi:namedview
     id="namedview1"
     pagecolor="#ffffff"
     bordercolor="#000000"
     borderopacity="0.25"
     inkscape:showpageshadow="2"
     inkscape:pageopacity="0.0"
     inkscape:pagecheckerboard="0"
     inkscape:deskcolor="#d1d1d1"
     inkscape:document-units="mm"
     inkscape:zoom="0.74016561"
     inkscape:cx="84.440562"
     inkscape:cy="47.962239"
     inkscape:window-width="2560"
     inkscape:window-height="1377"
     inkscape:window-x="-8"
     inkscape:window-y="-8"
     inkscape:window-maximized="1"
     inkscape:current-layer="svg1" />
  <defs
     id="defs1" />
  <rect
     style="fill:#b8b8b8;fill-opacity:1;fill-rule:evenodd;stroke:#b81e1e;stroke-width:0.0528415"
     id="concrete_right"
     width="78.162048"
     height="74.286728"
     x="196.26384"
     y="29.985788" />
  <rect
     style="fill:#b8b8b8;fill-opacity:1;fill-rule:evenodd;stroke:#b81e1e;stroke-width:0.0528572"
     id="concrete_left"
     width="78.201073"
     height="74.29377"
     x="-64.548492"
     y="30.157976" />
  <rect
     style="fill:#a39a9a;fill-rule:evenodd;stroke:#b81e1e;stroke-width:0.0329538"
     id="finish_right"
     width="65.807053"
     height="24.735327"
     x="208.78845"
     y="5.2942247" />
  <rect
     style="fill:#a39a9a;fill-rule:evenodd;stroke:#b81e1e;stroke-width:0.032828"
     id="finish_left"
     width="65.807182"
     height="24.545748"
     x="-64.595566"
     y="5.639308" />
  <rect
     style="fill:#a39a9a;fill-rule:evenodd;stroke:#b81e1e;stroke-width:0.0329314"
     id="cover_right"
     width="65.769066"
     height="4.9670687"
     x="208.71773"
     y="0.22918503" />
  <rect
     style="fill:#a39a9a;fill-rule:evenodd;stroke:#b81e1e;stroke-width:0.0341611"
     id="cover_left"
     width="65.767876"
     height="5.3449874"
     x="-64.554382"
     y="0.18344243" />
  <rect
     style="fill:#404242;fill-opacity:0.341246;fill-rule:evenodd;stroke:#b81e1e;stroke-width:0.0231264"
     id="shadow"
     width="250.65237"
     height="0.0093652494"
     x="-21.874338"
     y="104.0357"
     inkscape:label="shadow" />
  <ellipse
     style="opacity:0;fill:none;fill-opacity:0;fill-rule:evenodd;stroke-width:0.00368993;stroke-opacity:0"
     id="bolt_left"
     cx="46.241177"
     cy="-27.548943"
     rx="0.094999999"
     ry="0.028942173"
     inkscape:label="bolt_left"
     transform="scale(-1)" />
  <ellipse
     style="opacity:0;fill:none;fill-opacity:0;fill-rule:evenodd;stroke-width:0.000191947;stroke-opacity:0"
     id="bolt_right"
     cx="255.49634"
     cy="27.743528"
     rx="0.0049418169"
     ry="0.0015055466"
     inkscape:label="bolt_right" />
  <path
     style="fill:#5e5e5e;fill-rule:evenodd;stroke:#000000;stroke-width:0.0302518"
     d="m 201.85689,0.77212307 c 0.0642,-0.0642 1.39972,0.81437003 1.99483,1.35844003 0.41808,0.38227 1.10708,1.33113 1.06472,1.44412 0,0 0.0296,0.32267 -0.0488,0.45281 -0.0711,0.11841 -0.34266,0.23268 -0.34266,0.23268 l -2.97387,0.25695 c 0,0 -0.25962,-0.0554 -0.37939,-0.11012 -0.17703,-0.0811 -0.30491,-0.25666 -0.48952,-0.3182 -0.91926,-0.30657 -2.02161,-0.60402 -2.90046,-0.19568 -0.83101,0.38602 -1.40048,1.32745 -1.62769,2.21513 -0.18353,0.71763 -0.0773,1.56158 0.29366,2.20287 0.3656,0.63214 1.03223,1.14578 1.73784,1.33396 0.85902,0.22913 1.80605,-0.0562 2.64345,-0.35491 0.23475,-0.0838 0.63638,-0.39164 0.63638,-0.39164 l 3.10848,0.3182 c 0.0331,0 0.39313,0.22913 0.35491,0.40387 -0.0326,0.1489 -0.12226,0.4405799 -0.12226,0.4405799 0,0 -0.83403,1.207 -1.39516,1.66439 -0.63948,0.52125 -1.42292,0.84336 -2.17839,1.17486 -0.66908,0.29366 -2.09271,0.43557 -2.09271,0.37939 h -32.54149 l -14.26973,-2.55778 V 8.8006331 H 192.201 c 0.22025,-0.0734 0.35083,-0.22853 0.39162,-0.46503 v -4.35681 c -0.0921,-0.20663 -0.25459,-0.29925 -0.47726,-0.29366 h -30.84021 l -3.0412,1.4747 h -10.76781 c 0,0 -0.31362,-0.24955 -0.31154,-0.42536 0.002,-0.18917 0.34614,-0.45 0.34614,-0.45 l 12.66901,-4.13647003 3.04611,0.0346 c 0,0 0.1939,0.49547 0.41106,0.50624 0.24334,0.0119 0.27116,-0.52124 0.51489,-0.51923 0.2457,0.002 0.26465,0.53596 0.51056,0.5322 0.25843,-0.003 0.2608,-0.57874 0.51923,-0.57545 0.26584,0.003 0.2534,0.60366 0.51921,0.60573 0.25044,0.002 0.24718,-0.561 0.49759,-0.56248 0.22765,-0.002 0.2309,0.5002 0.45867,0.50624 0.26406,0.006 0.29848,-0.56675 0.56248,-0.55816 0.25015,0.009 0.24719,0.56124 0.49757,0.56248 0.23889,0.002 0.24126,-0.52862 0.48031,-0.5322 0.24866,-0.003 0.26761,0.53904 0.51627,0.5388 0.24807,-2.3e-4 0.26613,-0.5504 0.51403,-0.53847 0.21758,0.0118 0.18738,0.48898 0.40384,0.51399 0.25962,0.0299 0.35112,-0.50396 0.61192,-0.48954 0.24186,0.0148 0.27175,0.51941 0.51399,0.51402 0.25992,-0.006 0.26643,-0.58063 0.52626,-0.57521 0.23445,0.006 0.21876,0.52424 0.4528,0.53847 0.24482,0.0148 0.29337,-0.50914 0.53848,-0.50173 0.2306,0.006 0.24659,0.49208 0.47729,0.50173 0.2454,0.009 0.30514,-0.49374 0.55073,-0.48951 0.23653,0.003 0.27738,0.49097 0.51399,0.48951 0.23357,-0.002 0.26821,-0.49798 0.50177,-0.48951 0.23979,0.009 0.23742,0.53125 0.47729,0.53848 0.24215,0.006 0.27175,-0.5185 0.51399,-0.514 0.23387,0.006 0.24364,0.50837 0.47729,0.514 0.25666,0.006 0.29426,-0.54783 0.55073,-0.53848 0.23387,0.009 0.2312,0.51903 0.46504,0.52625 0.25961,0.009 0.55073,-0.55073 0.55073,-0.55073 h 7.39184 c 0,0 0.18354,0.50807 0.40388,0.52625 0.25606,0.0207 0.30656,-0.54191 0.56295,-0.52625 0.22824,0.0148 0.21226,0.51118 0.44058,0.52625 0.26495,0.0178 0.32194,-0.54727 0.58744,-0.53848 0.2537,0.009 0.27235,0.5571 0.52622,0.55071 0.23712,-0.006 0.22795,-0.5325 0.46507,-0.53848 0.25369,-0.006 0.27234,0.55387 0.52625,0.55073 0.24244,-0.003 0.24689,-0.54422 0.48951,-0.53847 0.24334,0.006 0.22202,0.55274 0.46506,0.56295 0.26228,0.0118 0.28804,-0.56295 0.5507,-0.56295 0.26258,0 0.28834,0.57254 0.55074,0.56295 0.24008,-0.009 0.22498,-0.54519 0.46503,-0.55073 0.22794,-0.006 0.23712,0.49203 0.46506,0.50177 0.24245,0.009 0.29603,-0.4968 0.53848,-0.48954 0.23356,0.006 0.25577,0.49895 0.48954,0.50177 0.24511,0.003 0.28093,-0.51829 0.52622,-0.514 0.24807,0.006 0.26584,0.53561 0.514,0.53848 0.26524,0.003 0.29783,-0.57439 0.56295,-0.56296 0.23416,0.009 0.21847,0.52838 0.45284,0.53848 0.23623,0.009 0.26524,-0.50322 0.50174,-0.50177 0.23357,0.002 0.25577,0.50035 0.48954,0.50177 0.24245,0.002 0.27176,-0.51681 0.514,-0.514 0.24807,0.003 0.26583,0.54307 0.51399,0.53848 0.23979,-0.006 0.23771,-0.52714 0.47732,-0.53848 0.25074,-0.0118 0.29976,0.5232 0.5507,0.514 0.22202,-0.009 0.23061,-0.48117 0.45281,-0.48952 0.23949,-0.009 0.30627,0.58439 0.52625,0.48952 0.27146,-0.11723 0.55532,-0.64511 0.53848,-0.53848 h 2.97387 z"
     id="compensator_right"
     sodipodi:nodetypes="cscsccsssssssccscsscccccccccccscccssssassssssssssssssssssssssccssssssssssssssssaasssssssssccc"
     inkscape:label="compensator_right">
    <title
       id="title13">metal</title>
  </path>
  <path
     style="fill:#5e5e5e;fill-rule:evenodd;stroke:#000000;stroke-width:0.0302518"
     d="m 8.0364703,0.67570307 c -0.0643,-0.0642 -1.3997113,0.81435003 -1.9948183,1.35845003 -0.418097,0.38223 -1.1070977,1.33109 -1.0647247,1.44409 0,0 -0.02931,0.3227 0.04896,0.4528 0.07111,0.11841 0.3426687,0.23268 0.3426687,0.23268 l 2.9738803,0.25695 c 0,0 0.259647,-0.0553 0.379382,-0.11012 0.176937,-0.0811 0.304907,-0.25666 0.489526,-0.31817 0.9192457,-0.30657 2.0216137,-0.60405 2.9004527,-0.19568 0.831004,0.386 1.400469,1.32746 1.627674,2.2151 0.183686,0.71766 0.07715,1.56161 -0.29372,2.20287 -0.365596,0.63217 -1.03222,1.14581 -1.73782,1.33397 -0.859038,0.22912 -1.8060517,-0.0562 -2.6434467,-0.35491 -0.234603,-0.0838 -0.636386,-0.39162 -0.636386,-0.39162 l -3.1084973,0.3182 c -0.03312,0 -0.3931017,0.22913 -0.3549027,0.40387 0.03259,0.14891 0.122379,0.44056 0.122379,0.44056 0,0 0.8340197,1.2069899 1.3951517,1.6643899 0.639478,0.52125 1.4229193,0.84339 2.1783943,1.17488 0.66907,0.29366 2.0927267,0.43555 2.0927267,0.37936 h 32.541322 l 14.26971,-2.55775 V 8.7042131 H 17.692396 c -0.220275,-0.0734 -0.350824,-0.22853 -0.391622,-0.46506 v -4.35677 c 0.09221,-0.20663 0.254525,-0.29926 0.477284,-0.29367 h 30.840204 l 3.0412,1.4747 h 10.76782 c 0,0 0.3136,-0.24955 0.31153,-0.42536 -0.002,-0.18916 -0.34615,-0.44999 -0.34615,-0.44999 l -12.66901,-4.13648003 -3.04611,0.0346 c 0,0 -0.19396,0.49546 -0.41104,0.50624 -0.24346,0.0118 -0.27116,-0.52122 -0.5149,-0.51921 -0.24582,0.002 -0.26477,0.53596 -0.51057,0.5322 -0.25834,-0.003 -0.26089,-0.57876 -0.51922,-0.57548 -0.26592,0.003 -0.25328,0.60369 -0.51922,0.60577 -0.25032,0.002 -0.24727,-0.56101 -0.49759,-0.56249 -0.2277,-0.002 -0.23102,0.5002 -0.45865,0.50624 -0.26406,0.006 -0.29849,-0.56675 -0.56249,-0.55816 -0.2502,0.009 -0.24727,0.56124 -0.49758,0.56248 -0.23896,0.002 -0.24136,-0.52862 -0.48029,-0.5322 -0.24872,-0.003 -0.26755,0.53904 -0.51629,0.53878 -0.24814,-2.4e-4 -0.26616,-0.55041 -0.51401,-0.53848 -0.21764,0.0118 -0.18741,0.48901 -0.40386,0.51402 -0.25947,0.0299 -0.3511,-0.50399 -0.61191,-0.48954 -0.241946,0.0148 -0.271756,0.51938 -0.514006,0.514 -0.259795,-0.006 -0.266426,-0.58061 -0.526236,-0.57519 -0.234484,0.006 -0.218736,0.52424 -0.452818,0.53848 -0.244875,0.0148 -0.293246,-0.50914 -0.538479,-0.50177 -0.230725,0.006 -0.246652,0.49212 -0.477285,0.50177 -0.245408,0.009 -0.305144,-0.49375 -0.55072,-0.48952 -0.236557,0.003 -0.277409,0.49094 -0.514004,0.48952 -0.233656,-0.002 -0.268232,-0.49798 -0.501764,-0.48952 -0.239694,0.009 -0.237563,0.53126 -0.47729,0.53848 -0.242211,0.006 -0.271755,-0.51849 -0.514004,-0.51402 -0.233774,0.006 -0.243543,0.50837 -0.477285,0.51402 -0.256657,0.006 -0.294164,-0.54783 -0.550723,-0.53848 -0.233952,0.009 -0.23108,0.51903 -0.46505,0.52623 -0.259499,0.009 -0.550714,-0.55071 -0.550714,-0.55071 h -7.391859 c 0,0 -0.183479,0.50808 -0.403863,0.52625 -0.256006,0.0207 -0.306562,-0.54191 -0.562959,-0.52625 -0.228357,0.0148 -0.212312,0.51119 -0.440574,0.52625 -0.265064,0.0178 -0.321943,-0.54727 -0.587431,-0.53847 -0.253756,0.009 -0.272406,0.55709 -0.526239,0.5507 -0.237089,-0.006 -0.227942,-0.53253 -0.465049,-0.53848 -0.253816,-0.006 -0.272347,0.55387 -0.526245,0.55071 -0.242566,-0.003 -0.247007,-0.54422 -0.489529,-0.53848 -0.243335,0.006 -0.221873,0.55274 -0.465049,0.56296 -0.262282,0.0118 -0.288214,-0.56296 -0.550715,-0.56296 -0.262518,0 -0.288391,0.57258 -0.550723,0.56296 -0.240109,-0.009 -0.224834,-0.54517 -0.46505,-0.55071 -0.228001,-0.006 -0.237208,0.492 -0.46505,0.50177 -0.242359,0.009 -0.295999,-0.49679 -0.538479,-0.48954 -0.233567,0.006 -0.255888,0.49896 -0.489529,0.50177 -0.245171,0.003 -0.281079,-0.51829 -0.526239,-0.514 -0.248101,0.006 -0.265893,0.53558 -0.514001,0.53848 -0.26536,0.003 -0.297823,-0.57438 -0.562958,-0.56296 -0.234307,0.009 -0.218499,0.52838 -0.452815,0.53848 -0.23632,0.009 -0.265242,-0.50322 -0.501763,-0.50177 -0.233656,0.002 -0.255858,0.50032 -0.489525,0.50177 -0.2423,0.002 -0.271725,-0.51684 -0.514004,-0.514 -0.248132,0.003 -0.265894,0.54307 -0.514004,0.53848 -0.239813,-0.006 -0.237712,-0.52714 -0.477294,-0.53848 -0.250825,-0.0118 -0.299777,0.52321 -0.550711,0.514 -0.222141,-0.009 -0.230696,-0.4812 -0.452818,-0.48954 -0.239399,-0.009 -0.306257,0.58442 -0.526239,0.48954 -0.271577,-0.11723 -0.555318,-0.64514 -0.53848,-0.53848 H 8.0364703 Z"
     id="compensator_left"
     sodipodi:nodetypes="cscsccsssssssccscsscccccccccccscccssssassssssssssssssssssssssccssssssssssssssssaasssssssssccc"
     inkscape:label="compensator_left">
    <title
       id="title14">metal</title>
  </path>
  <path
     style="fill:#5e5e5e;fill-rule:evenodd;stroke:#000000;stroke-width:0.0302518"
     d="m 35.379252,3.7450831 h -2.618968 c -0.255029,0.0971 -0.378207,0.26613 -0.379388,0.50177 v 4.05083 c 0.04935,0.21284 0.185314,0.36473 0.46505,0.4161 H 177.02391 c 0.23801,-0.0802 0.43315,-0.20338 0.45281,-0.50177 v -4.01413 c -0.0524,-0.20485 -0.22765,-0.3396 -0.44058,-0.4528 h -2.68016 l -3.02281,1.44412 h -39.51481 c 0,0 -0.19449,0.53229 -0.424,0.54377 -0.26702,0.0148 -0.28656,-0.58341 -0.55384,-0.57977 -0.24511,0.003 -0.24808,0.54428 -0.49328,0.54517 -0.23889,7.9e-4 -0.2457,-0.52762 -0.4846,-0.52788 -0.25103,-2.4e-4 -0.25961,0.55265 -0.51059,0.55384 -0.26109,0.002 -0.2756,-0.58176 -0.53652,-0.57113 -0.23593,0.009 -0.20604,0.53688 -0.44132,0.55384 -0.2605,0.0178 -0.31068,-0.5563 -0.57116,-0.53655 -0.23771,0.0178 -0.20337,0.5491 -0.44135,0.56248 -0.26672,0.0148 -0.29543,-0.58122 -0.56248,-0.57113 -0.24541,0.009 -0.23061,0.5523 -0.47596,0.56249 -0.2608,0.0118 -0.29307,-0.56296 -0.55384,-0.55384 -0.23297,0.009 -0.22557,0.52261 -0.45864,0.52788 -0.24688,0.006 -0.26376,-0.53348 -0.51056,-0.53653 -0.25695,-0.003 -0.28803,0.54621 -0.54519,0.5452 -0.25488,-8e-4 -0.28182,-0.55923 -0.53653,-0.5452 -0.24185,0.0118 -0.20751,0.56713 -0.44999,0.57113 -0.26406,0.006 -0.24659,-0.60514 -0.51056,-0.60573 -0.2537,-6e-4 -0.23978,0.56757 -0.49327,0.5798 -0.25666,0.0118 -0.29737,-0.55375 -0.55382,-0.53655 -0.24185,0.0148 -0.20781,0.56352 -0.44999,0.57115 -0.25932,0.009 -0.25991,-0.58042 -0.51923,-0.5798 -0.2392,5.6e-4 -0.23712,0.52643 -0.47596,0.53653 -0.24659,0.0118 -0.28952,-0.51361 -0.53652,-0.51057 -0.24067,0.003 -0.26998,0.51157 -0.51056,0.51057 -0.24275,-7.7e-4 -0.26791,-0.5275 -0.51059,-0.51921 -0.2392,0.009 -0.22795,0.5378 -0.46729,0.54517 -0.26909,0.009 -0.29366,-0.59623 -0.56248,-0.57981 -0.25281,0.0148 -0.20574,0.59413 -0.45867,0.60577 -0.26909,0.0118 -0.2756,-0.59967 -0.54516,-0.59709 -0.25341,0.002 -0.24837,0.57142 -0.50192,0.57113 -0.24541,-2.4e-4 -0.23949,-0.54763 -0.4846,-0.55384 -0.25695,-0.006 -0.27945,0.55283 -0.53655,0.55384 -0.25903,8e-4 -0.28626,-0.56311 -0.54517,-0.55384 -0.2312,0.009 -0.21906,0.51479 -0.44999,0.52788 -0.24038,0.0148 -0.28804,-0.51471 -0.52788,-0.49325 -0.22587,0.0207 -0.18058,0.52803 -0.40672,0.54517 -0.29484,0.0237 -0.33694,-0.64709 -0.63172,-0.62305 -0.24896,0.0207 -0.19213,0.58631 -0.44135,0.60573 -0.25636,0.0207 -0.28804,-0.54517 -0.54517,-0.54517 -0.24482,0 -0.27472,0.5309 -0.51924,0.51924 -0.23534,-0.0118 -0.21491,-0.53016 -0.44999,-0.5452 -0.25251,-0.0148 -0.30085,0.52542 -0.55384,0.51924 -0.24482,-0.006 -0.26583,-0.53786 -0.51056,-0.52788 -0.24985,0.009 -0.22587,0.57651 -0.47596,0.57977 -0.25547,0.003 -0.50191,-0.57977 -0.50191,-0.57977 h -7.3643 c 0,0 -0.22584,0.54756 -0.46729,0.55384 -0.2489,0.006 -0.26169,-0.55221 -0.51057,-0.5452 -0.251766,0.006 -0.23283,0.57243 -0.484606,0.5798 -0.26518,0.009 -0.27989,-0.57784 -0.54518,-0.5798 -0.25296,-0.002 -0.27504,0.55301 -0.52788,0.5452 -0.23516,-0.006 -0.22338,-0.53427 -0.45864,-0.53655 -0.24313,-0.002 -0.24162,0.53616 -0.48461,0.54519 -0.26095,0.009 -0.30165,-0.55706 -0.56249,-0.54519 -0.243162,0.0118 -0.232622,0.54762 -0.475962,0.55384 -0.25088,0.006 -0.26829,-0.54973 -0.51922,-0.54517 -0.23495,0.003 -0.2325,0.5179 -0.46729,0.52788 -0.25479,0.0118 -0.29913,-0.54058 -0.55384,-0.52788 -0.2431,0.0118 -0.23256,0.55212 -0.47596,0.55381 -0.26565,0.002 -0.26225,-0.59203 -0.52787,-0.59709 -0.26314,-0.006 -0.28206,0.57684 -0.54519,0.57116 -0.24526,-0.006 -0.23931,-0.55464 -0.4846,-0.55384 -0.25156,7.7e-4 -0.24173,0.56722 -0.49326,0.57113 -0.24289,0.003 -0.25038,-0.53143 -0.49326,-0.53653 -0.24064,-0.006 -0.26989,0.50852 -0.51057,0.51057 -0.2407,0.002 -0.27874,-0.5127 -0.51922,-0.50192 -0.22475,0.009 -0.21661,0.50061 -0.44134,0.51059 -0.25269,0.0118 -0.29248,-0.53931 -0.54518,-0.52788 -0.24722,0.0118 -0.23718,0.55807 -0.48461,0.56248 -0.26329,0.006 -0.27324,-0.58332 -0.53653,-0.5798 -0.24935,0.003 -0.24387,0.56302 -0.49326,0.56249 -0.26376,-5.4e-4 -0.25547,-0.59754 -0.51923,-0.59709 -0.25156,4.1e-4 -0.24191,0.56091 -0.49325,0.57113 -0.24662,0.009 -0.28114,-0.52534 -0.52788,-0.51921 -0.24695,0.006 -0.25491,0.54209 -0.50191,0.54517 -0.24887,0.003 -0.27039,-0.5418 -0.51922,-0.53653 -0.2431,0.006 -0.24153,0.53901 -0.48461,0.54517 -0.25488,0.006 -0.28161,-0.55041 -0.53653,-0.54517 -0.24908,0.006 -0.25278,0.55589 -0.50192,0.55384 -0.24937,-0.002 -0.24399,-0.55535 -0.49325,-0.56248 -0.2508,-0.006 -0.27706,0.54197 -0.52788,0.53652 -0.23688,-0.006 -0.23916,-0.51976 -0.47595,-0.52788 -0.24464,-0.009 -0.28321,0.51882 -0.52788,0.51057 -0.24085,-0.009 -0.24367,-0.53141 -0.4846,-0.53653 -0.24677,-0.006 -0.27247,0.52365 -0.51923,0.52788 -0.23461,0.003 -0.27596,-0.48768 -0.51057,-0.4846 -0.2325,0.003 -0.26074,0.49517 -0.49326,0.49325 -0.24887,-0.002 -0.27033,-0.53747 -0.51922,-0.53653 -0.25503,8e-4 -0.27285,0.55597 -0.52787,0.55384 -0.2511,-0.002 -0.25959,-0.56071 -0.51058,-0.55384 -0.23555,0.006 -0.21465,0.53306 -0.44999,0.5452 -0.26684,0.0148 -0.57114,-0.56252 -0.57114,-0.56252 H 38.505546 Z"
     id="compensator_middle"
     sodipodi:nodetypes="ccccccccccccsssssssssssssssssssssssssssssssssssssssssssssccsssssssssssssssssssssssssssssssssssssssssssssccc"
     inkscape:label="compensator_middle">
    <title
       id="title15">metal</title>
  </path>
  <path
     id="profile_left"
     style="display:inline;fill:#5e5e5e;fill-rule:evenodd;stroke:#000000;stroke-width:0.0429187"
     d="m 3.0633373,0.02160632 c -0.23763,0.002 -0.24202,0.52778 -0.47965,0.52739 -0.23203,-3.9e-4 -0.4666,-0.51654 -0.4666,-0.51654 h -0.99402 V 26.380086 c -0.0824,0.61577 -0.35762,1.05266 -1.09167,1.06344 H -56.166663 l -0.0326,2.53491 H 13.51117 v -16.3967 l -3.498533,-0.29515 -1.8751597,-0.48617 -1.6668,-0.89419 -1.37164,-1.38031 -0.8855,-1.5973497 c -0.0464,-0.40583 0.14455,-0.66715 0.47748,-0.84206 h 3.1947 l 0.43407,0.26043 c 0,0 1.28027,1.01801 2.0487697,1.0678 0.747299,0.0483 1.573033,-0.2502 2.109543,-0.77264 0.53973,-0.52559 0.84054,-1.34752 0.83339,-2.10086 -0.007,-0.73408 -0.32581,-1.51822 -0.85077,-2.03141 -0.52682,-0.515 -1.321644,-0.84444 -2.057423,-0.80736 -0.7619797,0.0385 -2.0357697,1.04608 -2.0357697,1.04608 l -0.41887,0.19968 h -3.14044 c -0.40539,-0.15903 -0.59069,-0.41376 -0.61636,-0.7379 l 0.7292,-1.31087 0.90287,-1.17197 1.24141,-0.92020998 v -0.77482 h -1.0678 c 0,0 -0.23044,0.48665 -0.45358,0.49266 -0.24036,0.006 -0.27632,-0.51383 -0.51653,-0.50351 -0.23779,0.0102 -0.22891,0.52897 -0.46663,0.54042 -0.24277,0.0116 -0.28437,-0.5077 -0.52738,-0.50352 -0.22864,0.004 -0.25099,0.49336 -0.47964,0.49049 -0.24006,-0.003 -0.25042,-0.52873 -0.49048,-0.52739 z m 0.34725,11.87379968 c 0.0553,0.003 0.11575,0.021 0.17796,0.0456 l 1.61472,1.47581 1.92723,1.04178 1.90987,0.69448 2.0487887,0.0522 c 0.19833,0.0422 0.40984,0.0562 0.451417,0.43406 v 11.87592 c 0.023,0.31734 -0.0926,0.48702 -0.416707,0.4341 H 3.4670073 c -0.37849,0.009 -0.37103,-0.23894 -0.4167,-0.45143 v -15.22693 c 0.0655,-0.28917 0.1944,-0.38694 0.36028,-0.37547 z"
     sodipodi:nodetypes="ssccccccccccccccccssssscccccccccssssssscccccccccccssc"
     inkscape:label="profile_left" />
  <path
     id="profile_right"
     style="display:inline;fill:#5e5e5e;fill-rule:evenodd;stroke:#000000;stroke-width:0.0420422"
     d="m 202.6937,0.1210211 v 0.75172 l 1.12762,0.87773 0.99068,1.12975 0.67352,1.37742 c 0.0678,0.39611 -0.2081,0.63117 -0.56926,0.75389 h -2.9873 l -0.56922,-0.16078 -0.9581,-0.77344 c -0.6517,-0.37077 -1.41998,-0.32241 -2.22256,-0.1499 -0.66422,0.29861 -1.1975,0.82709 -1.61858,1.55123 -0.33888,0.93422 -0.28106,1.69844 0.02,2.35944 0.59564,0.95376 1.4418,1.62285 2.88518,1.60772 0.45692,0.0628 1.2405,-0.32653 2.42682,-1.26662 h 3.02208 c 0.51464,0.0462 0.69688,0.3431 0.60398,0.84513 l -0.85604,1.5381999 -1.39046,1.40132 -1.66418,0.90163 -1.85756,0.50187 -3.5913,0.27374 v 16.4031 l 69.84673,0.0348 v -2.49414 h -9.8614 -46.47833 c -0.63198,-0.006 -0.9633,-0.35686 -0.98854,-1.0624 V 0.1318911 h -1.11662 c 0,0 -0.1946,0.52654 -0.42152,0.53663 -0.22816,0.01 -0.2388,-0.49514 -0.4671,-0.50187 -0.24182,-0.007 -0.28404,0.50986 -0.52578,0.50187 -0.23662,-0.008 -0.24128,-0.51778 -0.47798,-0.52577 -0.23084,-0.008 -0.27062,0.48014 -0.50186,0.48014 -0.23122,0 -0.27104,-0.48813 -0.50186,-0.48014 -0.2366,0.008 -0.2417,0.5388 -0.47798,0.52577 -0.22534,-0.0124 -0.39974,-0.5475 -0.39974,-0.5475 z m 3.6478,11.8732299 c 0.20202,-0.0118 0.31826,0.1269 0.3498,0.42583 v 15.20816 c -0.0456,0.27762 -0.1892,0.42194 -0.44322,0.42149 h -7.7518 c -0.31784,-0.0372 -0.2861,-0.24208 -0.33024,-0.41062 v -11.89061 c -0.004,-0.21505 0.1322,-0.37369 0.43232,-0.46711 h 2.05096 l 2.01832,-0.72999 1.81194,-0.99071 1.63162,-1.50561 c 0.086,-0.0371 0.163,-0.0569 0.2303,-0.0608 z"
     inkscape:label="profile_right" />
</svg>
