<?xml version="1.0" encoding="UTF-8" standalone="no"?>
<!-- Created with Inkscape (http://www.inkscape.org/) -->

<svg
   width="210mm"
   height="297mm"
   viewBox="0 0 210 297"
   version="1.1"
   id="svg1"
   inkscape:version="1.4 (86a8ad7, 2024-10-11)"
   sodipodi:docname="DSHA-50-030.svg"
   xmlns:inkscape="http://www.inkscape.org/namespaces/inkscape"
   xmlns:sodipodi="http://sodipodi.sourceforge.net/DTD/sodipodi-0.dtd"
   xmlns="http://www.w3.org/2000/svg"
   xmlns:svg="http://www.w3.org/2000/svg">
  <sodipodi:namedview
     id="namedview1"
     pagecolor="#ffffff"
     bordercolor="#000000"
     borderopacity="0.25"
     inkscape:showpageshadow="2"
     inkscape:pageopacity="0.0"
     inkscape:pagecheckerboard="0"
     inkscape:deskcolor="#d1d1d1"
     inkscape:document-units="mm"
     inkscape:zoom="1.0467522"
     inkscape:cx="295.67646"
     inkscape:cy="180.08082"
     inkscape:window-width="2560"
     inkscape:window-height="1377"
     inkscape:window-x="-8"
     inkscape:window-y="-8"
     inkscape:window-maximized="1"
     inkscape:current-layer="svg1" />
  <defs
     id="defs1" />
  <rect
     style="fill:#b8b8b8;fill-opacity:1;fill-rule:evenodd;stroke:#b81e1e;stroke-width:0.045085"
     id="concrete_right"
     width="78.169807"
     height="54.073204"
     x="117.56734"
     y="50.082542" />
  <rect
     style="fill:#b8b8b8;fill-opacity:1;fill-rule:evenodd;stroke:#b81e1e;stroke-width:0.0450992"
     id="concrete_left"
     width="78.208832"
     height="54.080254"
     x="14.255549"
     y="50.25473" />
  <rect
     style="fill:#a39a9a;fill-rule:evenodd;stroke:#b81e1e;stroke-width:0.0444171"
     id="finish_right"
     width="65.795586"
     height="44.945141"
     x="130.10156"
     y="5.1793151" />
  <rect
     style="fill:#a39a9a;fill-rule:evenodd;stroke:#b81e1e;stroke-width:0.0441991"
     id="finish_left"
     width="65.795815"
     height="44.502888"
     x="14.21804"
     y="5.5243521" />
  <rect
     style="fill:#a39a9a;fill-rule:evenodd;stroke:#b81e1e;stroke-width:0.0329314"
     id="cover_right"
     width="65.769066"
     height="4.9670687"
     x="130.0251"
     y="0.10854357" />
  <rect
     style="fill:#a39a9a;fill-rule:evenodd;stroke:#b81e1e;stroke-width:0.0341611"
     id="cover_left"
     width="65.767876"
     height="5.3449874"
     x="14.253533"
     y="0.062800966" />
  <rect
     style="fill:#404242;fill-opacity:0.341246;fill-rule:evenodd;stroke:#b81e1e;stroke-width:0.0198777"
     id="shadow"
     width="137.48599"
     height="0.01261392"
     x="38.353058"
     y="103.91344"
     inkscape:label="shadow" />
  <ellipse
     style="opacity:0;fill:none;fill-opacity:0;fill-rule:evenodd;stroke-width:0.00368993;stroke-opacity:0"
     id="bolt_left"
     cx="-33.365044"
     cy="-47.727943"
     rx="0.094999999"
     ry="0.028942173"
     inkscape:label="bolt_left"
     transform="scale(-1)" />
  <ellipse
     style="opacity:0;fill:none;fill-opacity:0;fill-rule:evenodd;stroke-width:0.000191947;stroke-opacity:0"
     id="bolt_right"
     cx="176.80371"
     cy="47.622505"
     rx="0.0049418169"
     ry="0.0015055466"
     inkscape:label="bolt_right" />
  <path
     style="fill:#5e5e5e;fill-rule:evenodd;stroke:#000000;stroke-width:0.0313521"
     d="m 83.686023,3.7454766 c 0.143274,-0.378324 0.370952,-0.644141 0.582302,-0.931683 0.615712,-0.874553 1.356224,-1.468252 2.162854,-1.913279 1.0675,-0.555306 2.17393,-0.8849683 3.36071,-0.748668 l 2.44567,0.449203 17.701931,3.726734 -0.63221,2.978052 -13.858761,-2.894868 c -0.14665,0.04148 -0.28625,0.123357 -0.41593,0.266177 -0.0912,0.176962 -0.0838,0.338784 -0.0665,0.499119 l 0.2163,0.848496 v 1.098056 l -0.18286,0.998227 -0.366,1.064785 c -0.006,0.138644 -0.0245,0.277282 0.0832,0.415925 0.1221,0.144807 0.24391,0.180733 0.36601,0.183004 l 6.937711,-0.316106 9.81593,2.1129154 0.0665,0.482479 -3.64356,0.183004 c 0,0 -0.2034,-0.47544 -0.41626,-0.484727 -0.26292,-0.0114 -0.30158,0.56318 -0.56442,0.551728 -0.2172,-0.0095 -0.2077,-0.487065 -0.42488,-0.494645 -0.25249,-0.0088 -0.28011,0.533065 -0.53269,0.539039 -0.2528,0.0058 -0.30618,-0.536362 -0.55809,-0.513674 -0.23746,0.02147 -0.19329,0.554269 -0.43124,0.570747 -0.25955,0.0178 -0.29206,-0.565942 -0.55171,-0.551727 -0.24636,0.01354 -0.21691,0.559225 -0.46292,0.577093 -0.25066,0.01809 -0.30158,-0.535956 -0.55174,-0.513673 -0.24207,0.02147 -0.19544,0.562742 -0.43759,0.583432 -0.26078,0.0224 -0.30946,-0.553577 -0.57073,-0.539039 -0.235,0.01325 -0.22151,0.527044 -0.45661,0.539039 -0.23133,0.01197 -0.26937,-0.487712 -0.50099,-0.481966 -0.24667,0.0064 -0.26079,0.531612 -0.50733,0.539039 -0.24974,0.0074 -0.29698,-0.538249 -0.54539,-0.513672 -0.23225,0.02301 -0.17426,0.541069 -0.40586,0.570746 -0.2709,0.03473 -0.356871,-0.560512 -0.627841,-0.526353 -0.23745,0.03006 -0.18039,0.561199 -0.41852,0.583433 -0.25894,0.02424 -0.30527,-0.561337 -0.56442,-0.539045 -0.25157,0.02147 -0.19819,0.594259 -0.45026,0.608799 -0.26875,0.01564 -0.28286,-0.604148 -0.55172,-0.589775 -0.24575,0.01325 -0.1988,0.566776 -0.4439,0.589775 -0.25341,0.02394 -0.3107,-0.532317 -0.56442,-0.513674 -0.23961,0.01748 -0.21691,0.54176 -0.4566,0.558067 -0.2476,0.01687 -0.2976,-0.523203 -0.54537,-0.507331 -0.24421,0.01564 -0.22519,0.550343 -0.46931,0.564404 -0.25678,0.01473 -0.3025,-0.560073 -0.55806,-0.5327 -0.23623,0.02516 -0.16321,0.565917 -0.3995,0.589779 -0.26171,0.02639 -0.30158,-0.563812 -0.56443,-0.551724 -0.24114,0.01111 -0.22824,0.53559 -0.46927,0.551724 -0.25248,0.01687 -0.31257,-0.531132 -0.56441,-0.507331 -0.25372,0.02394 -0.20831,0.600049 -0.46296,0.608798 -0.24697,0.0085 -0.4883,-0.558066 -0.4883,-0.558066 -0.14357,-0.164106 -0.29452,0.349932 -0.53904,0.589773 l -2.50496,-0.0064 c -0.073,0.06568 -2.26787,-0.503726 -3.06936,-1.230286 -0.66181,-0.599967 -1.648778,-1.141823 -1.750293,-2.0293314 -0.02151,-0.185059 0.259849,-0.494648 0.259849,-0.494648 1.062074,-0.249764 2.155874,-0.436054 3.335724,-0.450259 0.7105,0.568577 1.54711,0.969007 2.96092,0.599847 0.75702,-0.419131 1.51818,-0.835218 1.73092,-1.650199 0.33781,-0.576971 0.36707,-1.153942 0.21536,-1.730914 -0.10001,-0.83435 -0.58837,-1.363437 -1.15692,-1.829575 -0.63215,-0.481099 -1.39492,-0.748022 -2.4484,-0.538115 -0.78964,0.157601 -1.15996,0.566786 -1.63227,0.914782 l -2.941633,-0.125565 c -0.229188,0.0048 -0.380313,-0.128428 -0.502258,-0.313887 -0.05956,-0.137746 -0.06098,-0.275503 -0.01282,-0.413271 z"
     id="compensator_left"
     sodipodi:nodetypes="ccccccccccccccccccccsssssssssssssssssssssssssssssssssccsscccccccccccc"
     inkscape:label="compensator_left">
    <title
       id="title9">metal</title>
  </path>
  <path
     style="fill:#5e5e5e;fill-rule:evenodd;stroke:#000000;stroke-width:0.0313521"
     d="m 126.33064,9.4654766 c -0.14327,0.378325 -0.37095,0.6441434 -0.5823,0.9316834 -0.61571,0.874551 -1.35626,1.468255 -2.16287,1.91328 -1.06752,0.555304 -2.17395,0.884966 -3.36071,0.748669 l -2.44565,-0.449205 -17.70196,-3.7267314 0.63222,-2.978055 13.85877,2.894867 c 0.14665,-0.04147 0.28624,-0.123356 0.41592,-0.266177 0.0912,-0.176961 0.0838,-0.338784 0.0665,-0.499119 l -0.2163,-0.848495 v -1.098056 l 0.18286,-0.998228 0.36601,-1.064784 c 0.006,-0.138644 0.0245,-0.277284 -0.0832,-0.415925 -0.1221,-0.144807 -0.24389,-0.180734 -0.36604,-0.183004 l -6.93768,0.316105 -9.815961,-2.112919 -0.0665,-0.482476 3.643551,-0.183005 c 0,0 0.2034,0.475439 0.41626,0.484726 0.26293,0.0114 0.30158,-0.56318 0.56441,-0.551728 0.21722,0.0095 0.2077,0.487065 0.42488,0.494649 0.25249,0.0088 0.28011,-0.533065 0.53269,-0.539042 0.25281,-0.0058 0.30618,0.53636 0.55807,0.513672 0.23746,-0.02147 0.19328,-0.554265 0.43123,-0.570745 0.25955,-0.01779 0.29208,0.565941 0.55174,0.551728 0.24636,-0.01354 0.21691,-0.559227 0.46294,-0.577095 0.25064,-0.0181 0.30158,0.535956 0.55174,0.513674 0.24205,-0.02147 0.19542,-0.562743 0.43754,-0.583433 0.26079,-0.0224 0.30947,0.553579 0.57078,0.539039 0.235,-0.01325 0.22151,-0.527043 0.45659,-0.539039 0.23133,-0.01197 0.26937,0.487714 0.50098,0.481966 0.24665,-0.0064 0.26077,-0.531612 0.50734,-0.539039 0.24974,-0.0074 0.29698,0.538253 0.5454,0.513673 0.23224,-0.02301 0.17425,-0.54107 0.40586,-0.570747 0.27091,-0.03472 0.35686,0.560512 0.62783,0.526353 0.23746,-0.03006 0.18009,-0.561198 0.41853,-0.583432 0.25894,-0.02424 0.30526,0.561337 0.56441,0.539048 0.25157,-0.02147 0.1982,-0.594262 0.45026,-0.608801 0.26875,-0.01564 0.28287,0.60415 0.55171,0.589773 0.24574,-0.01325 0.19911,-0.566776 0.44394,-0.589773 0.2531,-0.02394 0.31069,0.532319 0.56441,0.513672 0.23962,-0.01748 0.2169,-0.541756 0.45661,-0.558065 0.24758,-0.01687 0.29759,0.523201 0.54536,0.507333 0.24421,-0.01564 0.22519,-0.550347 0.46927,-0.564408 0.25679,-0.01472 0.30251,0.560073 0.5581,0.532702 0.23624,-0.02516 0.16322,-0.565917 0.39951,-0.5897809 0.26169,-0.026387 0.30158,0.5638129 0.56441,0.5517249 0.24114,-0.01111 0.22826,-0.535588 0.46928,-0.5517249 0.25249,-0.016869 0.31256,0.5311329 0.56442,0.5073319 0.25372,-0.02394 0.208,-0.6000486 0.46292,-0.6087981 0.24697,-0.00855 0.48832,0.5580651 0.48832,0.5580651 0.14359,0.164106 0.29453,-0.349928 0.53905,-0.5897733 l 2.50494,0.00641 c 0.0731,-0.065682 2.2679,0.5037293 3.06937,1.2302853 0.66182,0.599969 1.64878,1.141823 1.75031,2.029334 0.0215,0.18506 -0.26016,0.494646 -0.26016,0.494646 -1.06208,0.249763 -2.1559,0.436053 -3.33572,0.450258 -0.7105,-0.568577 -1.54711,-0.969005 -2.96092,-0.599845 -0.75702,0.419129 -1.51822,0.835216 -1.73092,1.650198 -0.33781,0.57697 -0.36708,1.153942 -0.21537,1.730913 0.10002,0.83434 0.58837,1.36343 1.15693,1.829568 0.63215,0.481096 1.39488,0.748019 2.4484,0.538111 0.78963,-0.157602 1.15996,-0.566782 1.63224,-0.914782 l 2.94166,0.125578 c 0.22919,-0.0048 0.38031,0.128429 0.50226,0.313886 0.0596,0.137747 0.061,0.275505 0.0128,0.413271 z"
     id="compensator_right"
     sodipodi:nodetypes="ccccccccccccccccccccsssssssssssssssssssssssssssssssssccsscccccccccccc"
     inkscape:label="compensator_right">
    <title
       id="title8">metal</title>
  </path>
  <path
     id="profile_left"
     style="display:inline;fill:#5e5e5e;fill-rule:evenodd;stroke:#000000;stroke-width:0.0431256"
     d="m 84.888907,0.02157552 c 0,0 -0.20663,0.59519 -0.455782,0.59097 -0.236112,-0.006 -0.172242,-0.56317 -0.407805,-0.58004 -0.25831,-0.018 -0.271198,0.56071 -0.529929,0.56915 -0.244321,0.0103 -0.298628,-0.50345 -0.543012,-0.49501 -0.261609,0.009 -0.281747,0.58604 -0.543011,0.56916 -0.246273,-0.0147 -0.198384,-0.58473 -0.444879,-0.59318 -0.258929,-0.0115 -0.258743,0.60542 -0.516842,0.5801 -0.229571,-0.0215 -0.35765,-0.59317 -0.35765,-0.59317 h -1.10129 V 45.652086 c -0.01279,1.42621 -0.917102,1.85418 -2.084817,1.98669 H 32.471825 22.429365 l -0.03054,2.52316 h 70.055177 v -36.5236 l -3.593917,-0.31405 -1.796954,-0.42742 -1.69228,-0.89849 -1.360802,-1.36079 -0.854865,-1.6748205 c -0.121256,-0.46901 0.167485,-0.6357 0.479769,-0.7851 l 3.218822,0.009 0.357649,0.17446 c 0.636574,0.7082 1.329124,1.02424 2.058649,1.08164 1.030022,0.0132 1.635516,-0.3274 2.110989,-0.77633 0.979648,-1.01024 1.068687,-2.14775 0.584448,-3.36714 -0.317002,-0.87106 -1.212455,-1.39967 -2.669269,-1.59632 -0.893627,-0.005 -1.685262,0.62386 -2.464271,1.33029 l -3.175208,0.005 c -0.356506,-0.0833 -0.585152,-0.31144 -0.59317,-0.78945 l 0.741463,-1.29099 0.950816,-1.19073 1.219051,-0.94427998 v -0.80034 z M 82.252353,11.989636 c 0.05104,-0.003 0.105932,0.008 0.167915,0.0349 l 1.703185,1.5418 1.814404,1.03589 1.973601,0.60406 2.084822,0.11127 c 0.365338,0.0945 0.518066,0.25574 0.455778,0.48193 v 13.88935 c 0.03874,0.42689 -0.204896,0.44735 -0.455778,0.4558 l -7.562925,0.0262 c -0.282681,-0.0326 -0.497924,-0.14184 -0.519025,-0.46889 l -0.0109,-17.38076 v -0.002 c 0.08772,-0.18897 0.195764,-0.32034 0.348927,-0.32934 z m 0.06106,18.93789 c 0.02899,5.4e-4 0.05988,0.003 0.09159,0.009 h 7.519307 c 0.32605,-5.4e-4 0.605975,0.0645 0.610616,0.52342 v 16.25982 c -0.127509,0.23962 -0.269007,0.44518 -0.488492,0.45361 h -7.711213 c -0.357185,-10e-4 -0.376931,-0.24399 -0.41871,-0.47103 v -16.41736 c 0.05918,-0.2478 0.194017,-0.36158 0.396901,-0.35764 z"
     inkscape:label="profile_left" />
  <path
     id="profile_right"
     style="display:inline;fill:#5e5e5e;fill-rule:evenodd;stroke:#000000;stroke-width:0.0420671"
     d="m 124.16318,0.02103355 v 0.72608 l 1.12824,0.91954995 0.98479,1.17824 0.67606,1.33911 c 0.0767,0.7373 -0.29282,0.72738 -0.61085,0.80651 h -3.06518 l -0.46956,-0.2913 c -0.55145,-0.48985 -1.1011,-0.98126 -1.96735,-0.96738 -0.92754,-0.11263 -1.5975,0.22864 -2.16086,0.75869 -0.66736,0.58096 -0.78191,1.33176 -0.90432,2.0804 0.12208,0.76657 0.28097,1.51914 0.95215,2.09562 0.58061,0.42757 1.14342,0.8782 2.22606,0.67825 0.47776,0.002 1.23165,-0.54435 2.35433,-1.19346 h 3.09779 c 0.64211,0.10266 0.58263,0.43063 0.5804,0.7413 l -0.91955,1.7108405 -1.32171,1.3065 -1.69345,0.93477 -1.82391,0.41956 -3.59123,0.27391 v 36.44075 h 69.82503 v -2.49997 l -55.23614,-0.002 c -1.53078,-0.15089 -1.94233,-0.98067 -2.06516,-1.98473 V 0.03190355 h -1.11306 c 0,0 -0.16536,0.58043 -0.4043,0.59347 -0.23966,0.0129 -0.22763,-0.53646 -0.46741,-0.54782 -0.25661,-0.0121 -0.29771,0.54157 -0.55432,0.53695 -0.25253,-0.005 -0.2715,-0.55791 -0.5239,-0.54782 -0.236,0.009 -0.214,0.53898 -0.45,0.54782 -0.24975,0.009 -0.26927,-0.54353 -0.51957,-0.5413 -0.241,0.002 -0.2511,0.54894 -0.4913,0.53043 -0.23305,-0.0178 -0.39131,-0.5826 -0.39131,-0.5826 z m 3.51517,11.92156045 c 0.23798,0.008 0.42694,0.0749 0.45218,0.33913 v 17.2106 c -0.0261,0.30364 -0.11051,0.53955 -0.37174,0.56521 h -7.67814 c -0.206,-0.0589 -0.43115,-0.0876 -0.45218,-0.43695 l 0.0174,-13.93674 c 0.0652,-0.21567 0.2087,-0.36953 0.46741,-0.43478 l 2.01737,-0.0652 2.06302,-0.66085 1.77603,-0.98477 z m -7.64772,18.83449 h 7.68685 c 0.23052,0.0661 0.44873,0.146 0.41087,0.48043 v 16.27584 c 0.0303,0.19023 -0.0914,0.36405 -0.36523,0.5239 h -7.6542 c -0.18194,-0.0623 -0.35177,-0.14504 -0.44347,-0.38693 v -16.39107 c -0.0345,-0.20997 0.0657,-0.38337 0.36518,-0.50217 z"
     inkscape:label="profile_right" />
</svg>
