<?xml version="1.0" encoding="UTF-8" standalone="no"?>
<!-- Created with Inkscape (http://www.inkscape.org/) -->

<svg
   width="210mm"
   height="297mm"
   viewBox="0 0 210 297"
   version="1.1"
   id="svg1"
   inkscape:version="1.4 (86a8ad7, 2024-10-11)"
   sodipodi:docname="DSHA-30-170.svg"
   xmlns:inkscape="http://www.inkscape.org/namespaces/inkscape"
   xmlns:sodipodi="http://sodipodi.sourceforge.net/DTD/sodipodi-0.dtd"
   xmlns="http://www.w3.org/2000/svg"
   xmlns:svg="http://www.w3.org/2000/svg">
  <sodipodi:namedview
     id="namedview1"
     pagecolor="#ffffff"
     bordercolor="#000000"
     borderopacity="0.25"
     inkscape:showpageshadow="2"
     inkscape:pageopacity="0.0"
     inkscape:pagecheckerboard="0"
     inkscape:deskcolor="#d1d1d1"
     inkscape:document-units="mm"
     inkscape:zoom="0.37008281"
     inkscape:cx="501.23918"
     inkscape:cy="298.58183"
     inkscape:window-width="2560"
     inkscape:window-height="1377"
     inkscape:window-x="-8"
     inkscape:window-y="-8"
     inkscape:window-maximized="1"
     inkscape:current-layer="svg1" />
  <defs
     id="defs1" />
  <rect
     style="fill:#b8b8b8;fill-opacity:1;fill-rule:evenodd;stroke:#b81e1e;stroke-width:0.0528415"
     id="concrete_right"
     width="78.162048"
     height="74.286728"
     x="181.11385"
     y="29.985788" />
  <rect
     style="fill:#b8b8b8;fill-opacity:1;fill-rule:evenodd;stroke:#b81e1e;stroke-width:0.0528572"
     id="concrete_left"
     width="78.201073"
     height="74.29377"
     x="-49.398502"
     y="30.157976" />
  <rect
     style="fill:#a39a9a;fill-rule:evenodd;stroke:#b81e1e;stroke-width:0.0329538"
     id="finish_right"
     width="65.807053"
     height="24.735327"
     x="193.63846"
     y="5.2942247" />
  <rect
     style="fill:#a39a9a;fill-rule:evenodd;stroke:#b81e1e;stroke-width:0.032828"
     id="finish_left"
     width="65.807182"
     height="24.545748"
     x="-49.445576"
     y="5.639308" />
  <rect
     style="fill:#a39a9a;fill-rule:evenodd;stroke:#b81e1e;stroke-width:0.0329314"
     id="cover_right"
     width="65.769066"
     height="4.9670687"
     x="193.56773"
     y="0.22918507" />
  <rect
     style="fill:#a39a9a;fill-rule:evenodd;stroke:#b81e1e;stroke-width:0.0341611"
     id="cover_left"
     width="65.767876"
     height="5.3449874"
     x="-49.404392"
     y="0.18344247" />
  <rect
     style="fill:#404242;fill-opacity:0.341246;fill-rule:evenodd;stroke:#b81e1e;stroke-width:0.0231264"
     id="shadow"
     width="250.65237"
     height="0.0093652494"
     x="-6.7242956"
     y="104.0357"
     inkscape:label="shadow" />
  <ellipse
     style="opacity:0;fill:none;fill-opacity:0;fill-rule:evenodd;stroke-width:0.00368993;stroke-opacity:0"
     id="bolt_left"
     cx="31.09116"
     cy="-27.548943"
     rx="0.094999999"
     ry="0.028942173"
     inkscape:label="bolt_left"
     transform="scale(-1)" />
  <ellipse
     style="opacity:0;fill:none;fill-opacity:0;fill-rule:evenodd;stroke-width:0.000191947;stroke-opacity:0"
     id="bolt_right"
     cx="240.34634"
     cy="27.743528"
     rx="0.0049418169"
     ry="0.0015055466"
     inkscape:label="bolt_right" />
  <path
     id="profile_left"
     style="display:inline;fill:#5e5e5e;fill-rule:evenodd;stroke:#000000;stroke-width:0.0429187"
     d="m 18.213374,0.02160636 c -0.23763,0.002 -0.24202,0.52778 -0.47965,0.52739 -0.23203,-3.9e-4 -0.4666,-0.51654 -0.4666,-0.51654 h -0.99402 V 26.380086 c -0.0824,0.61577 -0.35762,1.05266 -1.09167,1.06344 h -56.19806 l -0.0326,2.53491 h 69.710433 v -16.3967 l -3.498533,-0.29515 -1.87516,-0.48617 -1.6668,-0.89419 -1.37164,-1.38031 -0.8855,-1.5973497 c -0.0464,-0.40583 0.14455,-0.66715 0.47748,-0.84206 h 3.1947 l 0.43407,0.26043 c 0,0 1.28027,1.01801 2.04877,1.0678 0.747299,0.0483 1.573033,-0.2502 2.109543,-0.77264 0.53973,-0.52559 0.84054,-1.34752 0.83339,-2.10086 -0.007,-0.73408 -0.32581,-1.51822 -0.85077,-2.03141 -0.52682,-0.515 -1.321644,-0.84444 -2.057423,-0.80736 -0.76198,0.0385 -2.03577,1.04608 -2.03577,1.04608 l -0.41887,0.19968 h -3.14044 c -0.40539,-0.15903 -0.59069,-0.41376 -0.61636,-0.7379 l 0.7292,-1.31087 0.90287,-1.17197 1.24141,-0.92020994 v -0.77482 h -1.0678 c 0,0 -0.23044,0.48665 -0.45358,0.49266 -0.24036,0.006 -0.27632,-0.51383 -0.51653,-0.50351 -0.23779,0.0102 -0.22891,0.52897 -0.46663,0.54042 -0.24277,0.0116 -0.28437,-0.5077 -0.52738,-0.50352 -0.22864,0.004 -0.25099,0.49336 -0.47964,0.49049 -0.24006,-0.003 -0.25042,-0.52873 -0.49048,-0.52739 z m 0.34725,11.87379964 c 0.0553,0.003 0.11575,0.021 0.17796,0.0456 l 1.61472,1.47581 1.92723,1.04178 1.90987,0.69448 2.048789,0.0522 c 0.19833,0.0422 0.40984,0.0562 0.451417,0.43406 v 11.87592 c 0.023,0.31734 -0.0926,0.48702 -0.416707,0.4341 h -7.656859 c -0.37849,0.009 -0.37103,-0.23894 -0.4167,-0.45143 v -15.22693 c 0.0655,-0.28917 0.1944,-0.38694 0.36028,-0.37547 z"
     sodipodi:nodetypes="ssccccccccccccccccssssscccccccccssssssscccccccccccssc"
     inkscape:label="profile_left" />
  <path
     id="profile_right"
     style="display:inline;fill:#5e5e5e;fill-rule:evenodd;stroke:#000000;stroke-width:0.0420422"
     d="m 187.54371,0.12102114 v 0.75172 l 1.12762,0.87772996 0.99068,1.12975 0.67352,1.37742 c 0.0678,0.39611 -0.2081,0.63117 -0.56926,0.75389 h -2.9873 l -0.56922,-0.16078 -0.9581,-0.77344 c -0.6517,-0.37077 -1.41998,-0.32241 -2.22256,-0.1499 -0.66422,0.29861 -1.1975,0.82709 -1.61858,1.55123 -0.33888,0.93422 -0.28106,1.69844 0.02,2.35944 0.59564,0.95376 1.4418,1.62285 2.88518,1.60772 0.45692,0.0628 1.2405,-0.32653 2.42682,-1.26662 h 3.02208 c 0.51464,0.0462 0.69688,0.3431 0.60398,0.84513 l -0.85604,1.5381999 -1.39046,1.40132 -1.66418,0.90163 -1.85756,0.50187 -3.5913,0.27374 v 16.4031 l 69.84673,0.0348 v -2.49414 h -9.8614 -46.47833 c -0.63198,-0.006 -0.9633,-0.35686 -0.98854,-1.0624 V 0.13189114 h -1.11662 c 0,0 -0.1946,0.52654 -0.42152,0.53663 -0.22816,0.01 -0.2388,-0.49514 -0.4671,-0.50187 -0.24182,-0.007 -0.28404,0.50986 -0.52578,0.50187 -0.23662,-0.008 -0.24128,-0.51778 -0.47798,-0.52577 -0.23084,-0.008 -0.27062,0.48014 -0.50186,0.48014 -0.23122,0 -0.27104,-0.48813 -0.50186,-0.48014 -0.2366,0.008 -0.2417,0.5388 -0.47798,0.52577 -0.22534,-0.0124 -0.39974,-0.5475 -0.39974,-0.5475 z m 3.6478,11.87322986 c 0.20202,-0.0118 0.31826,0.1269 0.3498,0.42583 v 15.20816 c -0.0456,0.27762 -0.1892,0.42194 -0.44322,0.42149 h -7.7518 c -0.31784,-0.0372 -0.2861,-0.24208 -0.33024,-0.41062 v -11.89061 c -0.004,-0.21505 0.1322,-0.37369 0.43232,-0.46711 h 2.05096 l 2.01832,-0.72999 1.81194,-0.99071 1.63162,-1.50561 c 0.086,-0.0371 0.163,-0.0569 0.2303,-0.0608 z"
     inkscape:label="profile_right" />
  <path
     style="fill:#5e5e5e;fill-rule:evenodd;stroke:#000000;stroke-width:0.0303695"
     d="m 22.911897,0.67826204 c -0.0645,-0.0645 -1.40516,0.81753996 -2.00259,1.36372996 -0.41973,0.38372 -1.11139,1.33628 -1.06887,1.44971 0,0 -0.0297,0.32396 0.049,0.45457 0.0713,0.11887 0.34399,0.23358 0.34399,0.23358 l 2.98545,0.25796 c 0,0 0.26062,-0.0556 0.38086,-0.11055 0.17772,-0.0814 0.3061,-0.25766 0.49142,-0.31941 0.92284,-0.30776 2.02948,-0.6064 2.91175,-0.19644 0.83425,0.38749 1.40593,1.33262 1.63402,2.22372 0.18425,0.72045 0.0776,1.567684 -0.2948,2.211444 -0.36702,0.63463 -1.03624,1.15027 -1.7446,1.33915 -0.86236,0.23002 -1.81307,-0.0565 -2.65374,-0.35629 -0.23566,-0.0841 -0.63885,-0.39314 -0.63885,-0.39314 l -3.12061,0.31944 c -0.0333,0 -0.39463,0.23002 -0.35626,0.40545 0.0327,0.14948 0.12274,0.44226 0.12274,0.44226 0,0 0.83724,1.2117 1.40058,1.67087 0.64197,0.52328 1.42846,0.84667 2.18687,1.17945 0.67166,0.29481 2.10086,0.43725 2.10086,0.38084 h 32.66794 l 14.32526,-2.5677 v -1.92888 h -40.02713 c -0.2211,-0.0737 -0.35219,-0.22943 -0.39317,-0.46688 V 3.897412 c 0.0927,-0.20743 0.25557,-0.30042 0.47914,-0.2948 h 30.96023 l 3.05303,1.48044 h 10.80972 c 0,0 0.31483,-0.25053 0.31275,-0.42702 -0.002,-0.1899 -0.34749,-0.45175 -0.34749,-0.45175 l -12.71831,-4.15256996 -3.05796,0.0348 c 0,0 -0.19466,0.4974 -0.41267,0.50821 -0.24428,0.0119 -0.27221,-0.52324 -0.51688,-0.52122 -0.24666,0.002 -0.26568,0.53804 -0.51255,0.53427 -0.25944,-0.003 -0.26182,-0.58102 -0.52126,-0.57772 -0.26687,0.003 -0.25438,0.60604 -0.52122,0.60812 -0.25142,0.002 -0.24815,-0.56319 -0.49953,-0.56467 -0.22854,-0.002 -0.23181,0.50214 -0.46046,0.50821 -0.26508,0.006 -0.29964,-0.56896 -0.56467,-0.56034 -0.25112,0.009 -0.24815,0.56343 -0.4995,0.56468 -0.23983,0.002 -0.2422,-0.53068 -0.48218,-0.53428 -0.24963,-0.003 -0.26865,0.54114 -0.51828,0.5409 -0.24904,-2.7e-4 -0.26717,-0.55258 -0.51603,-0.5406 -0.21842,0.0119 -0.18811,0.49091 -0.40541,0.51603 -0.26063,0.03 -0.35249,-0.50596 -0.6143,-0.49145 -0.2428,0.0149 -0.27282,0.5214 -0.516,0.51602 -0.26092,-0.006 -0.26746,-0.58289 -0.5283,-0.57745 -0.23537,0.006 -0.21961,0.52628 -0.45457,0.54057 -0.24576,0.0149 -0.2945,-0.51112 -0.54057,-0.50372 -0.2315,0.006 -0.24755,0.49403 -0.47914,0.50372 -0.24637,0.009 -0.30634,-0.49567 -0.55288,-0.49142 -0.23745,0.003 -0.27846,0.49285 -0.51599,0.49142 -0.23448,-0.002 -0.26925,-0.49992 -0.50373,-0.49142 -0.24071,0.009 -0.23833,0.53332 -0.47914,0.54058 -0.24309,0.006 -0.27281,-0.52052 -0.516,-0.51603 -0.23477,0.006 -0.24458,0.51035 -0.47914,0.51603 -0.25766,0.006 -0.2954,-0.54997 -0.55288,-0.54058 -0.23477,0.009 -0.23209,0.52105 -0.46687,0.5283 -0.26063,0.009 -0.55284,-0.55287 -0.55284,-0.55287 h -7.42061 c 0,0 -0.18425,0.51005 -0.40545,0.5283 -0.25706,0.0208 -0.30776,-0.54402 -0.56515,-0.5283 -0.22912,0.0149 -0.21307,0.51317 -0.44229,0.5283 -0.26598,0.0178 -0.32318,-0.5494 -0.58973,-0.54058 -0.25468,0.009 -0.2734,0.55927 -0.52826,0.55285 -0.23805,-0.006 -0.22883,-0.5346 -0.46688,-0.54057 -0.25468,-0.006 -0.2734,0.55602 -0.52829,0.55287 -0.2434,-0.003 -0.24785,-0.54636 -0.49142,-0.5406 -0.24429,0.006 -0.22289,0.5549 -0.46687,0.56515 -0.26331,0.0119 -0.28946,-0.56515 -0.55285,-0.56515 -0.2636,0 -0.28945,0.57481 -0.55288,0.56515 -0.24101,-0.009 -0.22556,-0.54729 -0.46684,-0.55285 -0.22883,-0.006 -0.23804,0.49392 -0.46687,0.50373 -0.24339,0.009 -0.29718,-0.49873 -0.54057,-0.49145 -0.23448,0.006 -0.25676,0.5009 -0.49145,0.50372 -0.24606,0.003 -0.28202,-0.52031 -0.52827,-0.516 -0.24903,0.006 -0.26687,0.53766 -0.51599,0.54058 -0.26657,0.003 -0.299,-0.57662 -0.56515,-0.56515 -0.23507,0.009 -0.21932,0.53044 -0.4546,0.54057 -0.23715,0.009 -0.26627,-0.50518 -0.50369,-0.50372 -0.23448,0.002 -0.25677,0.50226 -0.49145,0.50372 -0.24309,0.002 -0.27281,-0.51885 -0.51599,-0.516 -0.24904,0.003 -0.26687,0.54518 -0.516,0.54058 -0.24072,-0.006 -0.23864,-0.52919 -0.47917,-0.54058 -0.25172,-0.0119 -0.30093,0.52524 -0.55285,0.516 -0.22289,-0.009 -0.2315,-0.48307 -0.45457,-0.49145 -0.24042,-0.009 -0.30746,0.5867 -0.5283,0.49145 -0.27251,-0.11768 -0.55748,-0.64765 -0.54057,-0.54057 h -2.98545 z"
     id="compensator_left"
     sodipodi:nodetypes="cscsccsssssssccscsscccccccccccscccssssassssssssssssssssssssssccssssssssssssssssaasssssssssccc"
     inkscape:label="compensator_left">
    <title
       id="title10">metal</title>
  </path>
  <path
     style="fill:#5e5e5e;fill-rule:evenodd;stroke:#000000;stroke-width:0.0303695"
     d="m 186.70821,0.71767204 c 0.0645,-0.0645 1.40516,0.81753996 2.00259,1.36372996 0.41971,0.38372 1.11139,1.3363 1.06887,1.44971 0,0 0.0297,0.32396 -0.049,0.4546 -0.0713,0.11887 -0.34401,0.23328 -0.34401,0.23328 l -2.98545,0.25796 c 0,0 -0.26063,-0.0556 -0.38084,-0.11056 -0.17772,-0.0814 -0.3061,-0.25765 -0.49145,-0.31941 -0.92281,-0.30776 -2.02948,-0.60636 -2.91172,-0.19643 -0.83425,0.38749 -1.40593,1.33262 -1.63402,2.22371 -0.18425,0.72046 -0.0776,1.567694 0.2948,2.211484 0.36702,0.6346 1.03624,1.15024 1.74458,1.33915 0.86239,0.23002 1.8131,-0.0565 2.65373,-0.35632 0.23567,-0.0841 0.63888,-0.39314 0.63888,-0.39314 l 3.12058,0.31944 c 0.0333,0 0.39463,0.23002 0.35629,0.40545 -0.0327,0.14948 -0.12273,0.44229 -0.12273,0.44229 0,0 -0.83728,1.2117 -1.40059,1.67084 -0.64197,0.52328 -1.42846,0.84667 -2.18686,1.17945 -0.67169,0.29481 -2.1009,0.43725 -2.1009,0.38087 h -32.66794 l -14.32525,-2.56773 v -1.92889 h 40.02715 c 0.22111,-0.0737 0.35219,-0.22942 0.39314,-0.46687 V 3.936552 c -0.0924,-0.20743 -0.25557,-0.30042 -0.47914,-0.2948 h -30.96023 l -3.05302,1.48044 h -10.80972 c 0,0 -0.31481,-0.25053 -0.31273,-0.42702 0.002,-0.1899 0.3475,-0.45175 0.3475,-0.45175 l 12.7183,-4.15256996 3.05796,0.0348 c 0,0 0.19466,0.49739 0.41264,0.50821 0.24428,0.0119 0.27222,-0.52325 0.51692,-0.52122 0.24666,0.002 0.26568,0.53804 0.51254,0.53427 0.25944,-0.003 0.26182,-0.58099 0.52126,-0.57772 0.26687,0.003 0.25439,0.60604 0.52122,0.60812 0.25142,0.002 0.24815,-0.56319 0.49954,-0.56467 0.22853,-0.002 0.2318,0.50214 0.46042,0.5082 0.26508,0.006 0.29965,-0.56895 0.56467,-0.56033 0.25112,0.009 0.24815,0.56343 0.49953,0.56467 0.23983,0.002 0.24221,-0.53067 0.48215,-0.53427 0.24963,-0.003 0.26865,0.54114 0.51831,0.5409 0.24904,-2.7e-4 0.26717,-0.55255 0.516,-0.5406 0.21843,0.0119 0.18811,0.49091 0.40544,0.51602 0.26033,0.03 0.35246,-0.50595 0.61431,-0.49144 0.24279,0.0149 0.27281,0.5214 0.51599,0.51602 0.26093,-0.006 0.26746,-0.58289 0.52827,-0.57745 0.23537,0.006 0.21962,0.52628 0.4546,0.54057 0.24577,0.0149 0.2945,-0.51112 0.54057,-0.50372 0.2315,0.006 0.24755,0.49403 0.47914,0.50372 0.24637,0.009 0.30634,-0.49567 0.55285,-0.49142 0.23745,0.003 0.27846,0.49285 0.51603,0.49142 0.23447,-0.002 0.26924,-0.49992 0.50369,-0.49142 0.24071,0.009 0.23834,0.53332 0.47917,0.54057 0.2431,0.006 0.27281,-0.52051 0.516,-0.51599 0.23477,0.006 0.24458,0.51032 0.47914,0.51599 0.25766,0.006 0.2954,-0.54996 0.55285,-0.54057 0.23477,0.009 0.2321,0.52105 0.46687,0.5283 0.26063,0.009 0.55285,-0.55287 0.55285,-0.55287 h 7.42063 c 0,0 0.18426,0.51005 0.40545,0.52829 0.25706,0.0208 0.30776,-0.54402 0.56515,-0.52829 0.22912,0.0149 0.21308,0.51317 0.44226,0.52829 0.26598,0.0178 0.32322,-0.54939 0.58973,-0.54057 0.25468,0.009 0.2734,0.55927 0.5283,0.55285 0.23804,-0.006 0.22883,-0.53457 0.46684,-0.54057 0.25498,-0.006 0.2734,0.55602 0.5283,0.55287 0.24339,-0.003 0.24785,-0.54634 0.49144,-0.5406 0.24429,0.006 0.22259,0.5549 0.46685,0.56515 0.2633,0.0119 0.28945,-0.56515 0.55287,-0.56515 0.2636,0 0.28946,0.57481 0.55285,0.56515 0.24101,-0.009 0.22585,-0.54729 0.46687,-0.55285 0.22883,-0.006 0.23804,0.49392 0.46687,0.50372 0.24339,0.009 0.29718,-0.49873 0.54057,-0.49144 0.23448,0.006 0.25677,0.50089 0.49142,0.50372 0.24607,0.003 0.28232,-0.52031 0.5283,-0.516 0.24904,0.006 0.26687,0.53769 0.51599,0.54057 0.26628,0.003 0.299,-0.57662 0.56515,-0.56514 0.23507,0.009 0.21932,0.53043 0.45457,0.54057 0.23715,0.009 0.26628,-0.50518 0.50372,-0.50372 0.23448,0.002 0.25677,0.50226 0.49145,0.50372 0.2431,0.002 0.27281,-0.51882 0.516,-0.516 0.24903,0.003 0.26687,0.54518 0.51599,0.54057 0.24072,-0.006 0.23864,-0.52919 0.47915,-0.54057 0.25171,-0.0119 0.30095,0.52524 0.55287,0.516 0.22289,-0.009 0.23151,-0.48307 0.45457,-0.49142 0.24042,-0.009 0.30743,0.58666 0.5283,0.49142 0.27251,-0.11769 0.55748,-0.64765 0.54057,-0.54057 h 2.98545 z"
     id="compensator_right"
     sodipodi:nodetypes="cscsccsssssssccscsscccccccccccscccssssassssssssssssssssssssssccssssssssssssssssaasssssssssccc"
     inkscape:label="compensator_right">
    <title
       id="title11">metal</title>
  </path>
  <path
     style="fill:#5e5e5e;fill-rule:evenodd;stroke:#000000;stroke-width:0.0303695"
     d="m 50.427137,3.804371 h -2.51935 c -0.28084,0.0419 -0.43504,0.25527 -0.48649,0.60812 v 3.822435 c 0.0562,0.24755 0.11085,0.49608 0.48649,0.50387 H 161.90118 c 0.20476,-0.0894 0.29688,-0.22437 0.27014,-0.40646 V 4.228891 c -0.0482,-0.23626 -0.22824,-0.39127 -0.57745,-0.44229 h -2.55543 l -3.01003,1.44973 h -39.56002 c 0,0 -0.24636,0.53208 -0.48648,0.53136 -0.24607,-7.1e-4 -0.24934,-0.53914 -0.4952,-0.54729 -0.24963,-0.009 -0.28886,0.52539 -0.53861,0.52123 -0.24161,-0.003 -0.26211,-0.51814 -0.50387,-0.52123 -0.2312,-0.003 -0.26389,0.47757 -0.49516,0.48649 -0.23834,0.009 -0.30919,-0.47169 -0.54732,-0.46042 -0.24339,0.0119 -0.26895,0.52532 -0.51255,0.52122 -0.24398,-0.003 -0.25141,-0.54512 -0.49519,-0.53861 -0.23656,0.006 -0.21546,0.53787 -0.45174,0.54732 -0.26182,0.0119 -0.2853,-0.57035 -0.54729,-0.5647 -0.24399,0.006 -0.2425,0.54307 -0.48652,0.54731 -0.25587,0.006 -0.274,-0.55804 -0.5299,-0.55599 -0.25617,0.002 -0.26509,0.56467 -0.52126,0.56467 -0.25617,0 -0.26508,-0.56922 -0.52122,-0.56467 -0.24429,0.006 -0.23359,0.55112 -0.47781,0.55599 -0.22942,0.006 -0.23953,-0.50752 -0.46913,-0.50387 -0.2422,0.003 -0.23596,0.53547 -0.47781,0.54732 -0.27013,0.0119 -0.32051,-0.56568 -0.59073,-0.55599 -0.24785,0.009 -0.25588,0.55029 -0.50387,0.54729 -0.25023,-0.003 -0.24518,-0.55347 -0.4952,-0.56468 -0.25587,-0.0119 -0.29997,0.533 -0.55599,0.52993 -0.24993,-0.003 -0.28024,-0.54104 -0.52994,-0.52993 -0.23001,0.009 -0.21278,0.52809 -0.44303,0.52993 -0.25261,0.002 -0.2425,-0.57367 -0.4952,-0.57335 -0.24428,3e-4 -0.23388,0.54004 -0.4778,0.55597 -0.26004,0.0178 -0.32239,-0.54137 -0.58203,-0.52123 -0.24637,0.0178 -0.22229,0.56474 -0.46913,0.57336 -0.2743,0.009 -0.29035,-0.60946 -0.56468,-0.59942 -0.23863,0.009 -0.21307,0.54577 -0.45174,0.556 -0.23329,0.009 -0.2532,-0.49888 -0.48649,-0.50387 -0.24368,-0.006 -0.28618,0.50693 -0.52993,0.50387 -0.26211,-0.003 -0.29391,-0.5582 -0.55599,-0.556 -0.245771,0.002 -0.266871,0.52907 -0.512551,0.52993 -0.211,7.2e-4 -0.2321,-0.45566 -0.44307,-0.45174 -0.21932,0.003 -0.22407,0.47712 -0.44307,0.48648 -0.26419,0.0119 -0.31801,-0.55136 -0.58206,-0.53861 -0.24784,0.0119 -0.24725,0.54682 -0.49516,0.556 -0.25379,0.009 -0.29391,-0.54604 -0.54732,-0.52993 -0.24071,0.0149 -0.211,0.55225 -0.45174,0.56467 -0.26776,0.0149 -0.29659,-0.5801 -0.56468,-0.57338 -0.24814,0.006 -0.24695,0.55775 -0.49516,0.556 -0.25647,-0.002 -0.24725,-0.58385 -0.50387,-0.58206 -0.23834,0.002 -0.22229,0.53424 -0.46045,0.54731 -0.25974,0.0149 -0.30497,-0.55367 -0.56467,-0.53861 -0.24429,0.0149 -0.22438,0.56105 -0.4691,0.56468 -0.26271,0.003 -0.52126,-0.59074 -0.52126,-0.59074 H 53.537047 Z"
     id="compensator_middle"
     sodipodi:nodetypes="ccccccccccccsssssssssssssssssssssssssssssssssssssssssssssccc"
     inkscape:label="compensator_middle">
    <title
       id="title12">metal</title>
  </path>
</svg>
