<?xml version="1.0" encoding="UTF-8" standalone="no"?>
<!-- Created with Inkscape (http://www.inkscape.org/) -->

<svg
   width="210mm"
   height="297mm"
   viewBox="0 0 210 297"
   version="1.1"
   id="svg1"
   inkscape:version="1.4 (86a8ad7, 2024-10-11)"
   sodipodi:docname="DSHA-50-193-corner.svg"
   xmlns:inkscape="http://www.inkscape.org/namespaces/inkscape"
   xmlns:sodipodi="http://sodipodi.sourceforge.net/DTD/sodipodi-0.dtd"
   xmlns="http://www.w3.org/2000/svg"
   xmlns:svg="http://www.w3.org/2000/svg">
  <sodipodi:namedview
     id="namedview1"
     pagecolor="#ffffff"
     bordercolor="#000000"
     borderopacity="0.25"
     inkscape:showpageshadow="2"
     inkscape:pageopacity="0.0"
     inkscape:pagecheckerboard="0"
     inkscape:deskcolor="#d1d1d1"
     inkscape:document-units="mm"
     inkscape:zoom="0.52337612"
     inkscape:cx="518.7474"
     inkscape:cy="295.19879"
     inkscape:window-width="2560"
     inkscape:window-height="1377"
     inkscape:window-x="-8"
     inkscape:window-y="-8"
     inkscape:window-maximized="1"
     inkscape:current-layer="svg1" />
  <defs
     id="defs1" />
  <rect
     style="fill:#b8b8b8;fill-opacity:1;fill-rule:evenodd;stroke:#b81e1e;stroke-width:0.0450729"
     id="concrete_left"
     width="78.208855"
     height="54.017086"
     x="-43.299416"
     y="102.73666" />
  <rect
     style="fill:#a39a9a;fill-rule:evenodd;stroke:#b81e1e;stroke-width:0.0442617"
     id="finish_left"
     width="65.795746"
     height="44.629208"
     x="-43.33688"
     y="57.943127" />
  <rect
     style="fill:#a39a9a;fill-rule:evenodd;stroke:#b81e1e;stroke-width:0.0341611"
     id="cover_left"
     width="65.767876"
     height="5.3449874"
     x="-43.301399"
     y="52.481541" />
  <rect
     style="fill:#404242;fill-opacity:0.341246;fill-rule:evenodd;stroke:#b81e1e;stroke-width:0.023266"
     id="shadow"
     width="257.52795"
     height="0.009225619"
     x="-9.3212385"
     y="156.83424"
     inkscape:label="shadow" />
  <ellipse
     style="opacity:0;fill:none;fill-opacity:0;fill-rule:evenodd;stroke-width:0.00368993;stroke-opacity:0"
     id="bolt_left"
     cx="24.988111"
     cy="-100.14704"
     rx="0.094999999"
     ry="0.028942173"
     inkscape:label="bolt_left"
     transform="scale(-1)" />
  <ellipse
     style="opacity:0;fill:none;fill-opacity:0;fill-rule:evenodd;stroke-width:0.000191947;stroke-opacity:0"
     id="screw_right"
     cx="228.34816"
     cy="17.141953"
     rx="0.0049418169"
     ry="0.0015055466"
     inkscape:label="screw_right" />
  <path
     style="fill:#5e5e5e;fill-rule:evenodd;stroke:#000000;stroke-width:0.0441661"
     d="m 223.07464,60.805721 h 3.29292 c 0.0846,-0.0709 0.72166,0.39848 0.52726,0.78512 -0.22127,0.44001 -0.41877,0.93966 -0.67956,1.37107 -0.25974,0.4296 -0.59704,0.81424 -0.96096,1.16012 -0.40281,0.38249 -1.33586,0.99606 -1.33586,0.99606 v 0.71484 h 1.24207 c 0,0 0.13873,-0.47882 0.33969,-0.50389 0.24462,-0.0302 0.30469,0.50467 0.55083,0.49218 0.24289,-0.0129 0.24894,-0.54162 0.49218,-0.53907 0.24937,0.002 0.24332,0.55156 0.49216,0.5625 0.25932,0.0129 0.30298,-0.54335 0.5625,-0.53903 0.23467,0.004 0.25759,0.49835 0.49214,0.50389 0.23467,0.004 0.28135,-0.49689 0.51559,-0.48047 0.21048,0.0129 0.39848,0.49218 0.39848,0.49218 h 1.12499 V 4.225532 h -0.86049 l -1.43049,4.227839 v 1.59369 c 0,0 0.52004,0.16294 0.53318,0.38075 0.013,0.24852 -0.54258,0.255 -0.55082,0.50389 -0.013,0.25975 0.54603,0.30297 0.53907,0.56254 -0.013,0.25672 -0.56799,0.27055 -0.5625,0.52731 0,0.25759 0.58077,0.24635 0.58592,0.50389 0,0.23468 -0.50865,0.24548 -0.5156,0.48046 -0.013,0.22647 0.47147,0.2658 0.46871,0.49218 0,0.23727 -0.50748,0.26623 -0.5038,0.50389 0,0.26795 0.58716,0.28264 0.58591,0.55077 0,0.2766 -0.6214,0.28611 -0.60938,0.5625 0.013,0.26147 0.61336,0.21869 0.62107,0.48046 0.013,0.24332 -0.4963,0.24289 -0.55075,0.48046 -0.0891,0.38897 0.47639,0.70257 0.46875,1.10152 -0.013,0.37557 -0.55473,0.65122 -0.48051,1.01953 0.0432,0.20615 0.45945,0.21177 0.46871,0.42182 0.013,0.23467 -0.48315,0.28049 -0.48037,0.51559 0,0.2403 0.50517,0.27531 0.50384,0.51561 0,0.23208 -0.47995,0.26061 -0.49218,0.49217 -0.013,0.23598 0.45099,0.31463 0.44528,0.55078 -0.013,0.24073 -0.48724,0.29864 -0.48037,0.53907 0.013,0.25413 0.53763,0.28481 0.53902,0.53902 0,0.25672 -0.55653,0.29432 -0.53902,0.55079 0.0173,0.24158 0.56876,0.20312 0.57413,0.44532 0.013,0.27141 -0.62526,0.25585 -0.62102,0.52731 0,0.26969 0.62606,0.23424 0.6328,0.50389 0.013,0.26579 -0.58653,0.2619 -0.59771,0.52735 -0.013,0.25413 0.53448,0.29649 0.5274,0.55074 -0.013,0.24591 -0.54331,0.25802 -0.53907,0.50393 0,0.24375 0.54386,0.23684 0.55074,0.48046 0.013,0.2403 -0.51289,0.26364 -0.51565,0.50389 0,0.2403 0.51322,0.27531 0.50398,0.515601 -0.013,0.25456 -0.57464,0.24937 -0.57429,0.50389 3.3e-4,0.24375 0.53622,0.23727 0.55081,0.48046 0.0172,0.26234 -0.54303,0.32371 -0.52735,0.58592 0.013,0.2485 0.55562,0.24332 0.5625,0.49217 0.013,0.24592 -0.52294,0.26969 -0.52727,0.5156 0,0.23209 0.48745,0.27185 0.48037,0.50393 -0.013,0.22388 -0.48245,0.23339 -0.49217,0.456999 -0.013,0.27919 0.58695,0.34272 0.56249,0.62109 -0.0216,0.24116 -0.55631,0.204 -0.57416,0.44529 -0.0173,0.27141 0.58354,0.31809 0.56491,0.58946 -0.0173,0.23554 -0.54982,0.20313 -0.55518,0.43919 0,0.24851 0.56456,0.2403 0.56339,0.48889 0,0.26839 -0.66275,0.48046 -0.61314,0.52204 0.0492,0.0432 0.60869,0.24721 0.61314,0.51374 0,0.2524 -0.55848,0.25327 -0.56339,0.50545 0,0.25801 0.5563,0.28092 0.55518,0.53859 -0.002,0.24418 -0.53665,0.26147 -0.53038,0.50548 0.013,0.23295 0.51893,0.22301 0.53038,0.45574 0.013,0.25932 -0.54352,0.30384 -0.5386,0.56345 0,0.2498 0.53847,0.27185 0.5386,0.52204 9e-5,0.26968 -0.59041,0.29389 -0.58012,0.56344 0.013,0.25888 0.60048,0.23814 0.59668,0.49719 0,0.24591 -0.57322,0.21004 -0.58009,0.45574 -0.013,0.24635 0.54361,0.24246 0.55514,0.48889 0.013,0.26147 -0.54541,0.30988 -0.53853,0.57174 0.013,0.25586 0.56633,0.27444 0.55513,0.53034 -0.013,0.24721 -0.56145,0.21696 -0.57999,0.46404 -0.0172,0.24765 0.5082,0.29864 0.50544,0.54689 0,0.22647 -0.47774,0.26234 -0.47226,0.48889 0.013,0.25413 0.56022,0.26796 0.55516,0.52204 0,0.24851 -0.55996,0.24029 -0.56348,0.48885 0,0.22862 0.49073,0.23597 0.50538,0.46404 0.0173,0.25239 -0.49663,0.32716 -0.48884,0.58004 0.013,0.25196 0.52199,0.29475 0.52199,0.54689 0,0.24807 -0.51213,0.29043 -0.51373,0.53859 0,0.2148 0.43931,0.25715 0.43918,0.47234 -8e-5,0.22257 -0.45786,0.26622 -0.45566,0.48889 0,0.25802 0.55242,0.29777 0.5386,0.55515 -0.013,0.23294 -0.52982,0.21436 -0.5386,0.44748 -0.013,0.23036 0.49603,0.25023 0.49706,0.48059 0.002,0.25197 -0.53768,0.27833 -0.53858,0.5303 -7.8e-4,0.23813 0.49446,0.26752 0.50556,0.50548 0.013,0.25067 -0.49342,0.32933 -0.48062,0.58004 0.013,0.22431 0.48062,0.24765 0.48062,0.4723 0,0.21696 -0.44061,0.2403 -0.46404,0.45574 -0.0172,0.15083 0.24851,0.38119 0.24851,0.38119 v 1.62407 c -0.0696,0.29692 -0.22948,0.52973 -0.59654,0.61319 h -3.53824 v 0.74578 l 1.26782,1.00264 1.05233,1.17663 c -0.013,0 0.46737,0.81372 0.62153,1.28437 0.13096,0.39978 -0.52134,0.90051 -0.55518,0.87004 h -3.26479 c -0.7314,-0.78321 -1.57645,-1.20784 -2.5108,-1.35067 -0.0172,-0.0346 -1.54485,0.24073 -2.07976,0.82033 -0.47286,0.51249 -1.00492,1.28131 -1.03579,2.07986 -0.0303,0.79086 0.34359,1.63635 0.90315,2.19586 0.5764,0.57619 1.45167,0.72539 2.23734,0.68774 0.51127,-0.0259 0.96582,-0.12966 1.34234,-0.35613 0.40539,-0.24375 1.1475,-0.83502 1.1475,-0.83502 z"
     id="profile_right"
     sodipodi:nodetypes="ccssscccsssssssccccccsssssssssssssssssssssssssssssssssssssssssssssssssssssssssssssssssssssssssssscccccccscccsssssc"
     inkscape:label="profile_right" />
  <rect
     style="fill:#e1ecec;fill-opacity:0.77;fill-rule:evenodd;stroke:#b81e1e;stroke-width:0.0081378"
     id="finish_right"
     width="57.514656"
     height="2.036227"
     x="-57.518726"
     y="230.36786"
     inkscape:label="finish_right"
     transform="rotate(-90)" />
  <rect
     style="fill:#e1ecec;fill-opacity:0.77;fill-rule:evenodd;stroke:#b81e1e;stroke-width:0.00933925"
     id="cover_right"
     width="57.494617"
     height="0.12774748"
     x="-57.505093"
     y="230.19212"
     inkscape:label="cover_right"
     transform="rotate(-90)" />
  <path
     style="fill:#e1ecec;fill-opacity:0.77;fill-rule:evenodd;stroke:#b81e1e;stroke-width:0.0116676"
     d="m 232.41629,0.01600806 h 20.93689 V 157.50331 H 230.17205 V 57.558411 h 2.23314 z"
     id="concrete_right"
     inkscape:label="concrete_right"
     sodipodi:nodetypes="ccccccc" />
  <path
     id="profile_left"
     style="display:inline;fill:#5e5e5e;fill-rule:evenodd;stroke:#000000;stroke-width:0.0431256"
     d="m 27.457953,52.452021 c 0,0 -0.20663,0.59519 -0.45578,0.59097 -0.236116,-0.006 -0.172246,-0.56317 -0.407809,-0.58004 -0.25831,-0.018 -0.271198,0.56071 -0.529929,0.56915 -0.244321,0.0103 -0.298628,-0.50345 -0.543012,-0.49501 -0.261609,0.009 -0.281747,0.58604 -0.543011,0.56916 -0.246273,-0.0147 -0.198384,-0.58473 -0.444879,-0.59318 -0.258929,-0.0115 -0.258743,0.60542 -0.516842,0.5801 -0.229571,-0.0215 -0.35765,-0.59317 -0.35765,-0.59317 h -1.10129 v 45.58253 c -0.01279,1.42621 -0.917102,1.85418 -2.084817,1.986689 h -45.432065 -10.04246 l -0.03054,2.52316 H 35.023043 V 66.068781 l -3.59391,-0.31405 -1.79696,-0.42742 -1.69228,-0.89849 -1.3608,-1.36079 -0.854865,-1.67482 c -0.121256,-0.46901 0.167485,-0.6357 0.479769,-0.7851 l 3.218826,0.009 0.35765,0.17446 c 0.63657,0.7082 1.32912,1.02424 2.05864,1.08164 1.03003,0.0132 1.63552,-0.3274 2.11099,-0.77633 0.97965,-1.01024 1.06869,-2.14775 0.58445,-3.36714 -0.317,-0.87106 -1.21245,-1.39967 -2.66927,-1.59632 -0.89362,-0.005 -1.68526,0.62386 -2.46427,1.33029 l -3.175207,0.005 c -0.356506,-0.0833 -0.585152,-0.31144 -0.59317,-0.78945 l 0.741463,-1.29099 0.950814,-1.19073 1.21905,-0.94428 v -0.80034 z m -2.636556,11.96806 c 0.05104,-0.003 0.105932,0.008 0.167915,0.0349 l 1.703185,1.5418 1.814406,1.03589 1.9736,0.60406 2.08482,0.11127 c 0.36534,0.0945 0.51807,0.25574 0.45578,0.48193 v 13.88935 c 0.0387,0.42689 -0.2049,0.44735 -0.45578,0.4558 l -7.562924,0.0262 c -0.282681,-0.0326 -0.497924,-0.14184 -0.519025,-0.46889 l -0.0109,-17.38076 v -0.002 c 0.08772,-0.18897 0.195764,-0.32034 0.348927,-0.32934 z m 0.06106,18.93789 c 0.02899,5.4e-4 0.05988,0.003 0.09159,0.009 h 7.519306 c 0.32605,-5.4e-4 0.60598,0.0645 0.61062,0.52342 v 16.259819 c -0.12751,0.23962 -0.26901,0.44518 -0.4885,0.45361 h -7.711208 c -0.357185,-0.001 -0.376931,-0.24399 -0.41871,-0.47103 V 83.715431 c 0.05918,-0.2478 0.194017,-0.36158 0.396901,-0.35764 z"
     inkscape:label="profile_left" />
  <path
     style="fill:#5e5e5e;fill-rule:evenodd;stroke:#000000;stroke-width:0.0302518"
     d="m 223.00091,53.16309 c 0.0642,-0.0642 1.39972,0.81437 1.99483,1.35844 0.41808,0.38227 1.10708,1.33113 1.06472,1.44412 0,0 0.0296,0.32267 -0.0488,0.45281 -0.0711,0.11841 -0.34266,0.23268 -0.34266,0.23268 l -2.97387,0.25695 c 0,0 -0.25962,-0.0554 -0.37939,-0.11012 -0.17703,-0.0811 -0.30491,-0.25666 -0.48952,-0.3182 -0.91926,-0.30657 -2.02161,-0.60402 -2.90046,-0.19568 -0.83101,0.38602 -1.40048,1.32745 -1.62769,2.21513 -0.18353,0.71763 -0.0773,1.56158 0.29366,2.20287 0.3656,0.63214 1.03223,1.14578 1.73784,1.33396 0.85902,0.22913 1.80605,-0.0562 2.64345,-0.35491 0.23475,-0.0838 0.63638,-0.39164 0.63638,-0.39164 l 3.10848,0.3182 c 0.0331,0 0.39313,0.22913 0.35491,0.40387 -0.0326,0.1489 -0.12226,0.44058 -0.12226,0.44058 0,0 -0.83403,1.207 -1.39516,1.66439 -0.63948,0.52125 -1.42292,0.84336 -2.17839,1.17486 -0.66908,0.29366 -2.09271,0.43557 -2.09271,0.37939 H 187.74278 L 173.47305,63.11301 V 61.1916 h 39.87197 c 0.22025,-0.0734 0.35083,-0.22853 0.39162,-0.46503 v -4.35681 c -0.0921,-0.20663 -0.25459,-0.29925 -0.47726,-0.29366 h -30.84021 l -3.0412,1.4747 h -10.76781 c 0,0 -0.31362,-0.24955 -0.31154,-0.42536 0.002,-0.18917 0.34614,-0.45 0.34614,-0.45 l 12.66901,-4.13647 3.04611,0.0346 c 0,0 0.1939,0.49547 0.41106,0.50624 0.24334,0.0119 0.27116,-0.52124 0.51489,-0.51923 0.2457,0.002 0.26465,0.53596 0.51056,0.5322 0.25843,-0.003 0.2608,-0.57874 0.51923,-0.57545 0.26584,0.003 0.2534,0.60366 0.51921,0.60573 0.25044,0.002 0.24718,-0.561 0.49759,-0.56248 0.22765,-0.002 0.2309,0.5002 0.45867,0.50624 0.26406,0.006 0.29848,-0.56675 0.56248,-0.55816 0.25015,0.009 0.24719,0.56124 0.49757,0.56248 0.23889,0.002 0.24126,-0.52862 0.48031,-0.5322 0.24866,-0.003 0.26761,0.53904 0.51627,0.5388 0.24807,-2.3e-4 0.26613,-0.5504 0.51403,-0.53847 0.21758,0.0118 0.18738,0.48898 0.40384,0.51399 0.25962,0.0299 0.35112,-0.50396 0.61192,-0.48954 0.24186,0.0148 0.27175,0.51941 0.51399,0.51402 0.25992,-0.006 0.26643,-0.58063 0.52626,-0.57521 0.23445,0.006 0.21876,0.52424 0.4528,0.53847 0.24482,0.0148 0.29337,-0.50914 0.53848,-0.50173 0.2306,0.006 0.24659,0.49208 0.47729,0.50173 0.2454,0.009 0.30514,-0.49374 0.55073,-0.48951 0.23653,0.003 0.27738,0.49097 0.51399,0.48951 0.23357,-0.002 0.26821,-0.49798 0.50177,-0.48951 0.23979,0.009 0.23742,0.53125 0.47729,0.53848 0.24215,0.006 0.27175,-0.5185 0.51399,-0.514 0.23387,0.006 0.24364,0.50837 0.47729,0.514 0.25666,0.006 0.29426,-0.54783 0.55073,-0.53848 0.23387,0.009 0.2312,0.51903 0.46504,0.52625 0.25961,0.009 0.55073,-0.55073 0.55073,-0.55073 h 7.39184 c 0,0 0.18354,0.50807 0.40388,0.52625 0.25606,0.0207 0.30656,-0.54191 0.56295,-0.52625 0.22824,0.0148 0.21226,0.51118 0.44058,0.52625 0.26495,0.0178 0.32194,-0.54727 0.58744,-0.53848 0.2537,0.009 0.27235,0.5571 0.52622,0.55071 0.23712,-0.006 0.22795,-0.5325 0.46507,-0.53848 0.25369,-0.006 0.27234,0.55387 0.52625,0.55073 0.24244,-0.003 0.24689,-0.54422 0.48951,-0.53847 0.24334,0.006 0.22202,0.55274 0.46506,0.56295 0.26228,0.0118 0.28804,-0.56295 0.5507,-0.56295 0.26258,0 0.28834,0.57254 0.55074,0.56295 0.24008,-0.009 0.22498,-0.54519 0.46503,-0.55073 0.22794,-0.006 0.23712,0.49203 0.46506,0.50177 0.24245,0.009 0.29603,-0.4968 0.53848,-0.48954 0.23356,0.006 0.25577,0.49895 0.48954,0.50177 0.24511,0.003 0.28093,-0.51829 0.52622,-0.514 0.24807,0.006 0.26584,0.53561 0.514,0.53848 0.26524,0.003 0.29783,-0.57439 0.56295,-0.56296 0.23416,0.009 0.21847,0.52838 0.45284,0.53848 0.23623,0.009 0.26524,-0.50322 0.50174,-0.50177 0.23357,0.002 0.25577,0.50035 0.48954,0.50177 0.24245,0.002 0.27176,-0.51681 0.514,-0.514 0.24807,0.003 0.26583,0.54307 0.51399,0.53848 0.23979,-0.006 0.23771,-0.52714 0.47732,-0.53848 0.25074,-0.0118 0.29976,0.5232 0.5507,0.514 0.22202,-0.009 0.23061,-0.48117 0.45281,-0.48952 0.23949,-0.009 0.30627,0.58439 0.52625,0.48952 0.27146,-0.11723 0.55532,-0.64511 0.53848,-0.53848 h 2.97387 z"
     id="compensator_right"
     sodipodi:nodetypes="cscsccsssssssccscsscccccccccccscccssssassssssssssssssssssssssccssssssssssssssssaasssssssssccc"
     inkscape:label="compensator_right">
    <title
       id="title13">metal</title>
  </path>
  <path
     style="fill:#5e5e5e;fill-rule:evenodd;stroke:#000000;stroke-width:0.0302518"
     d="m 29.180486,53.06667 c -0.0643,-0.0642 -1.399711,0.81435 -1.994818,1.35845 -0.418097,0.38223 -1.107098,1.33109 -1.064725,1.44409 0,0 -0.02931,0.3227 0.04896,0.4528 0.07111,0.11841 0.342669,0.23268 0.342669,0.23268 l 2.97388,0.25695 c 0,0 0.259647,-0.0553 0.379382,-0.11012 0.176937,-0.0811 0.304907,-0.25666 0.489526,-0.31817 0.919246,-0.30657 2.021614,-0.60405 2.900453,-0.19568 0.831004,0.386 1.400469,1.32746 1.627674,2.2151 0.183686,0.71766 0.07715,1.56161 -0.29372,2.20287 -0.365596,0.63217 -1.03222,1.14581 -1.73782,1.33397 -0.859038,0.22912 -1.806052,-0.0562 -2.643447,-0.35491 -0.234603,-0.0838 -0.636386,-0.39162 -0.636386,-0.39162 l -3.108497,0.3182 c -0.03312,0 -0.393102,0.22913 -0.354903,0.40387 0.03259,0.14891 0.122379,0.44056 0.122379,0.44056 0,0 0.83402,1.20699 1.395152,1.66439 0.639478,0.52125 1.422919,0.84339 2.178394,1.17488 0.66907,0.29366 2.092727,0.43555 2.092727,0.37936 h 32.541322 l 14.26971,-2.55775 V 61.09518 H 38.836412 c -0.220275,-0.0734 -0.350824,-0.22853 -0.391622,-0.46506 v -4.35677 c 0.09221,-0.20663 0.254525,-0.29926 0.477284,-0.29367 h 30.840204 l 3.0412,1.4747 h 10.76782 c 0,0 0.3136,-0.24955 0.31153,-0.42536 -0.002,-0.18916 -0.34615,-0.44999 -0.34615,-0.44999 l -12.66901,-4.13648 -3.04611,0.0346 c 0,0 -0.19396,0.49546 -0.41104,0.50624 -0.24346,0.0118 -0.27116,-0.52122 -0.5149,-0.51921 -0.24582,0.002 -0.26477,0.53596 -0.51057,0.5322 -0.25834,-0.003 -0.26089,-0.57876 -0.51922,-0.57548 -0.26592,0.003 -0.25328,0.60369 -0.51922,0.60577 -0.25032,0.002 -0.24727,-0.56101 -0.49759,-0.56249 -0.2277,-0.002 -0.23102,0.5002 -0.45865,0.50624 -0.26406,0.006 -0.29849,-0.56675 -0.56249,-0.55816 -0.2502,0.009 -0.24727,0.56124 -0.49758,0.56248 -0.23896,0.002 -0.24136,-0.52862 -0.48029,-0.5322 -0.24872,-0.003 -0.26755,0.53904 -0.51629,0.53878 -0.24814,-2.4e-4 -0.26616,-0.55041 -0.51401,-0.53848 -0.21764,0.0118 -0.18741,0.48901 -0.40386,0.51402 -0.25947,0.0299 -0.3511,-0.50399 -0.61191,-0.48954 -0.241946,0.0148 -0.271756,0.51938 -0.514006,0.514 -0.259795,-0.006 -0.266426,-0.58061 -0.526236,-0.57519 -0.234484,0.006 -0.218736,0.52424 -0.452818,0.53848 -0.244875,0.0148 -0.293246,-0.50914 -0.538479,-0.50177 -0.230725,0.006 -0.246652,0.49212 -0.477285,0.50177 -0.245408,0.009 -0.305144,-0.49375 -0.55072,-0.48952 -0.236557,0.003 -0.277409,0.49094 -0.514004,0.48952 -0.233656,-0.002 -0.268232,-0.49798 -0.501764,-0.48952 -0.239694,0.009 -0.237563,0.53126 -0.47729,0.53848 -0.242211,0.006 -0.271755,-0.51849 -0.514004,-0.51402 -0.233774,0.006 -0.243543,0.50837 -0.477285,0.51402 -0.256657,0.006 -0.294164,-0.54783 -0.550723,-0.53848 -0.233952,0.009 -0.23108,0.51903 -0.46505,0.52623 -0.259499,0.009 -0.550714,-0.55071 -0.550714,-0.55071 h -7.391859 c 0,0 -0.183479,0.50808 -0.403863,0.52625 -0.256006,0.0207 -0.306562,-0.54191 -0.562959,-0.52625 -0.228357,0.0148 -0.212312,0.51119 -0.440574,0.52625 -0.265064,0.0178 -0.321943,-0.54727 -0.587431,-0.53847 -0.253756,0.009 -0.272406,0.55709 -0.526239,0.5507 -0.237089,-0.006 -0.227942,-0.53253 -0.465049,-0.53848 -0.253816,-0.006 -0.272347,0.55387 -0.526245,0.55071 -0.242566,-0.003 -0.247007,-0.54422 -0.489529,-0.53848 -0.243335,0.006 -0.221873,0.55274 -0.465049,0.56296 -0.262282,0.0118 -0.288214,-0.56296 -0.550715,-0.56296 -0.262518,0 -0.288391,0.57258 -0.550723,0.56296 -0.240109,-0.009 -0.224834,-0.54517 -0.46505,-0.55071 -0.228001,-0.006 -0.237208,0.492 -0.46505,0.50177 -0.242359,0.009 -0.295999,-0.49679 -0.538479,-0.48954 -0.233567,0.006 -0.255888,0.49896 -0.489529,0.50177 -0.245171,0.003 -0.281079,-0.51829 -0.526239,-0.514 -0.248101,0.006 -0.265893,0.53558 -0.514001,0.53848 -0.26536,0.003 -0.297823,-0.57438 -0.562958,-0.56296 -0.234307,0.009 -0.218499,0.52838 -0.452815,0.53848 -0.23632,0.009 -0.265242,-0.50322 -0.501763,-0.50177 -0.233656,0.002 -0.255858,0.50032 -0.489525,0.50177 -0.2423,0.002 -0.271725,-0.51684 -0.514004,-0.514 -0.248132,0.003 -0.265894,0.54307 -0.514004,0.53848 -0.239813,-0.006 -0.237712,-0.52714 -0.477294,-0.53848 -0.250825,-0.0118 -0.299777,0.52321 -0.550711,0.514 -0.222141,-0.009 -0.230696,-0.4812 -0.452818,-0.48954 -0.239399,-0.009 -0.306257,0.58442 -0.526239,0.48954 -0.271577,-0.11723 -0.555318,-0.64514 -0.53848,-0.53848 h -2.97388 z"
     id="compensator_left"
     sodipodi:nodetypes="cscsccsssssssccscsscccccccccccscccssssassssssssssssssssssssssccssssssssssssssssaasssssssssccc"
     inkscape:label="compensator_left">
    <title
       id="title14">metal</title>
  </path>
  <path
     style="fill:#5e5e5e;fill-rule:evenodd;stroke:#000000;stroke-width:0.0302518"
     d="M 56.523268,56.13605 H 53.9043 c -0.255029,0.0971 -0.378207,0.26613 -0.379388,0.50177 v 4.05083 c 0.04935,0.21284 0.185314,0.36473 0.46505,0.4161 H 198.16793 c 0.23801,-0.0802 0.43315,-0.20338 0.45281,-0.50177 v -4.01413 c -0.0524,-0.20485 -0.22765,-0.3396 -0.44058,-0.4528 H 195.5 l -3.02281,1.44412 h -39.51481 c 0,0 -0.19449,0.53229 -0.424,0.54377 -0.26702,0.0148 -0.28656,-0.58341 -0.55384,-0.57977 -0.24511,0.003 -0.24808,0.54428 -0.49328,0.54517 -0.23889,7.9e-4 -0.2457,-0.52762 -0.4846,-0.52788 -0.25103,-2.4e-4 -0.25961,0.55265 -0.51059,0.55384 -0.26109,0.002 -0.2756,-0.58176 -0.53652,-0.57113 -0.23593,0.009 -0.20604,0.53688 -0.44132,0.55384 -0.2605,0.0178 -0.31068,-0.5563 -0.57116,-0.53655 -0.23771,0.0178 -0.20337,0.5491 -0.44135,0.56248 -0.26672,0.0148 -0.29543,-0.58122 -0.56248,-0.57113 -0.24541,0.009 -0.23061,0.5523 -0.47596,0.56249 -0.2608,0.0118 -0.29307,-0.56296 -0.55384,-0.55384 -0.23297,0.009 -0.22557,0.52261 -0.45864,0.52788 -0.24688,0.006 -0.26376,-0.53348 -0.51056,-0.53653 -0.25695,-0.003 -0.28803,0.54621 -0.54519,0.5452 -0.25488,-8e-4 -0.28182,-0.55923 -0.53653,-0.5452 -0.24185,0.0118 -0.20751,0.56713 -0.44999,0.57113 -0.26406,0.006 -0.24659,-0.60514 -0.51056,-0.60573 -0.2537,-6e-4 -0.23978,0.56757 -0.49327,0.5798 -0.25666,0.0118 -0.29737,-0.55375 -0.55382,-0.53655 -0.24185,0.0148 -0.20781,0.56352 -0.44999,0.57115 -0.25932,0.009 -0.25991,-0.58042 -0.51923,-0.5798 -0.2392,5.6e-4 -0.23712,0.52643 -0.47596,0.53653 -0.24659,0.0118 -0.28952,-0.51361 -0.53652,-0.51057 -0.24067,0.003 -0.26998,0.51157 -0.51056,0.51057 -0.24275,-7.7e-4 -0.26791,-0.5275 -0.51059,-0.51921 -0.2392,0.009 -0.22795,0.5378 -0.46729,0.54517 -0.26909,0.009 -0.29366,-0.59623 -0.56248,-0.57981 -0.25281,0.0148 -0.20574,0.59413 -0.45867,0.60577 -0.26909,0.0118 -0.2756,-0.59967 -0.54516,-0.59709 -0.25341,0.002 -0.24837,0.57142 -0.50192,0.57113 -0.24541,-2.4e-4 -0.23949,-0.54763 -0.4846,-0.55384 -0.25695,-0.006 -0.27945,0.55283 -0.53655,0.55384 -0.25903,8e-4 -0.28626,-0.56311 -0.54517,-0.55384 -0.2312,0.009 -0.21906,0.51479 -0.44999,0.52788 -0.24038,0.0148 -0.28804,-0.51471 -0.52788,-0.49325 -0.22587,0.0207 -0.18058,0.52803 -0.40672,0.54517 -0.29484,0.0237 -0.33694,-0.64709 -0.63172,-0.62305 -0.24896,0.0207 -0.19213,0.58631 -0.44135,0.60573 -0.25636,0.0207 -0.28804,-0.54517 -0.54517,-0.54517 -0.24482,0 -0.27472,0.5309 -0.51924,0.51924 -0.23534,-0.0118 -0.21491,-0.53016 -0.44999,-0.5452 -0.25251,-0.0148 -0.30085,0.52542 -0.55384,0.51924 -0.24482,-0.006 -0.26583,-0.53786 -0.51056,-0.52788 -0.24985,0.009 -0.22587,0.57651 -0.47596,0.57977 -0.25547,0.003 -0.50191,-0.57977 -0.50191,-0.57977 h -7.3643 c 0,0 -0.22584,0.54756 -0.46729,0.55384 -0.2489,0.006 -0.26169,-0.55221 -0.51057,-0.5452 -0.25177,0.006 -0.23283,0.57243 -0.48461,0.5798 -0.26518,0.009 -0.27989,-0.57784 -0.54518,-0.5798 -0.25296,-0.002 -0.27504,0.55301 -0.52788,0.5452 -0.23516,-0.006 -0.22338,-0.53427 -0.45864,-0.53655 -0.24313,-0.002 -0.24162,0.53616 -0.48461,0.54519 -0.26095,0.009 -0.30165,-0.55706 -0.56249,-0.54519 -0.24316,0.0118 -0.23262,0.54762 -0.47596,0.55384 -0.25088,0.006 -0.26829,-0.54973 -0.51922,-0.54517 -0.23495,0.003 -0.2325,0.5179 -0.46729,0.52788 -0.25479,0.0118 -0.29913,-0.54058 -0.55384,-0.52788 -0.2431,0.0118 -0.23256,0.55212 -0.47596,0.55381 -0.26565,0.002 -0.26225,-0.59203 -0.52787,-0.59709 -0.26314,-0.006 -0.28206,0.57684 -0.54519,0.57116 -0.24526,-0.006 -0.23931,-0.55464 -0.4846,-0.55384 -0.25156,7.7e-4 -0.24173,0.56722 -0.49326,0.57113 -0.24289,0.003 -0.25038,-0.53143 -0.49326,-0.53653 -0.24064,-0.006 -0.26989,0.50852 -0.51057,0.51057 -0.2407,0.002 -0.27874,-0.5127 -0.51922,-0.50192 -0.22475,0.009 -0.21661,0.50061 -0.44134,0.51059 -0.25269,0.0118 -0.29248,-0.53931 -0.54518,-0.52788 -0.24722,0.0118 -0.23718,0.55807 -0.48461,0.56248 -0.26329,0.006 -0.27324,-0.58332 -0.53653,-0.5798 -0.24935,0.003 -0.24387,0.56302 -0.49326,0.56249 -0.26376,-5.4e-4 -0.25547,-0.59754 -0.51923,-0.59709 -0.25156,4.1e-4 -0.24191,0.56091 -0.49325,0.57113 -0.24662,0.009 -0.28114,-0.52534 -0.52788,-0.51921 -0.24695,0.006 -0.25491,0.54209 -0.50191,0.54517 -0.24887,0.003 -0.27039,-0.5418 -0.51922,-0.53653 -0.2431,0.006 -0.24153,0.53901 -0.48461,0.54517 -0.25488,0.006 -0.28161,-0.55041 -0.53653,-0.54517 -0.24908,0.006 -0.25278,0.55589 -0.50192,0.55384 -0.24937,-0.002 -0.24399,-0.55535 -0.49325,-0.56248 -0.2508,-0.006 -0.27706,0.54197 -0.52788,0.53652 -0.23688,-0.006 -0.23916,-0.51976 -0.47595,-0.52788 -0.24464,-0.009 -0.28321,0.51882 -0.52788,0.51057 -0.24085,-0.009 -0.24367,-0.53141 -0.4846,-0.53653 -0.24677,-0.006 -0.27247,0.52365 -0.51923,0.52788 -0.23461,0.003 -0.27596,-0.48768 -0.51057,-0.4846 -0.2325,0.003 -0.26074,0.49517 -0.49326,0.49325 -0.24887,-0.002 -0.27033,-0.53747 -0.51922,-0.53653 -0.25503,8e-4 -0.27285,0.55597 -0.52787,0.55384 -0.2511,-0.002 -0.25959,-0.56071 -0.51058,-0.55384 -0.235552,0.006 -0.214652,0.53306 -0.449992,0.5452 -0.26684,0.0148 -0.57114,-0.56252 -0.57114,-0.56252 H 59.649562 Z"
     id="compensator_middle"
     sodipodi:nodetypes="ccccccccccccsssssssssssssssssssssssssssssssssssssssssssssccsssssssssssssssssssssssssssssssssssssssssssssccc"
     inkscape:label="compensator_middle">
    <title
       id="title15">metal</title>
  </path>
</svg>
