<?xml version="1.0" encoding="UTF-8" standalone="no"?>
<!-- Created with Inkscape (http://www.inkscape.org/) -->

<svg
   width="210mm"
   height="297mm"
   viewBox="0 0 210 297"
   version="1.1"
   id="svg1"
   inkscape:version="1.4 (86a8ad7, 2024-10-11)"
   sodipodi:docname="DSHA-30-080.svg"
   xmlns:inkscape="http://www.inkscape.org/namespaces/inkscape"
   xmlns:sodipodi="http://sodipodi.sourceforge.net/DTD/sodipodi-0.dtd"
   xmlns="http://www.w3.org/2000/svg"
   xmlns:svg="http://www.w3.org/2000/svg">
  <sodipodi:namedview
     id="namedview1"
     pagecolor="#ffffff"
     bordercolor="#000000"
     borderopacity="0.25"
     inkscape:showpageshadow="2"
     inkscape:pageopacity="0.0"
     inkscape:pagecheckerboard="0"
     inkscape:deskcolor="#d1d1d1"
     inkscape:document-units="mm"
     inkscape:zoom="0.52337612"
     inkscape:cx="576.06755"
     inkscape:cy="342.96559"
     inkscape:window-width="2560"
     inkscape:window-height="1377"
     inkscape:window-x="-8"
     inkscape:window-y="-8"
     inkscape:window-maximized="1"
     inkscape:current-layer="svg1" />
  <defs
     id="defs1" />
  <rect
     style="fill:#b8b8b8;fill-opacity:1;fill-rule:evenodd;stroke:#b81e1e;stroke-width:0.0528415"
     id="concrete_right"
     width="78.162048"
     height="74.286728"
     x="144.61841"
     y="29.985788" />
  <rect
     style="fill:#b8b8b8;fill-opacity:1;fill-rule:evenodd;stroke:#b81e1e;stroke-width:0.0528572"
     id="concrete_left"
     width="78.201073"
     height="74.29377"
     x="-19.393953"
     y="30.157976" />
  <rect
     style="fill:#a39a9a;fill-rule:evenodd;stroke:#b81e1e;stroke-width:0.0329538"
     id="finish_right"
     width="65.807053"
     height="24.735327"
     x="157.14302"
     y="5.2942247" />
  <rect
     style="fill:#a39a9a;fill-rule:evenodd;stroke:#b81e1e;stroke-width:0.032828"
     id="finish_left"
     width="65.807182"
     height="24.545748"
     x="-19.441027"
     y="5.639308" />
  <rect
     style="fill:#a39a9a;fill-rule:evenodd;stroke:#b81e1e;stroke-width:0.0329314"
     id="cover_right"
     width="65.769066"
     height="4.9670687"
     x="157.0723"
     y="0.22918507" />
  <rect
     style="fill:#a39a9a;fill-rule:evenodd;stroke:#b81e1e;stroke-width:0.0341611"
     id="cover_left"
     width="65.767876"
     height="5.3449874"
     x="-19.399843"
     y="0.18344247" />
  <rect
     style="fill:#404242;fill-opacity:0.341246;fill-rule:evenodd;stroke:#b81e1e;stroke-width:0.0220968"
     id="shadow"
     width="206.1666"
     height="0.010394817"
     x="23.279797"
     y="104.03519"
     inkscape:label="shadow" />
  <ellipse
     style="opacity:0;fill:none;fill-opacity:0;fill-rule:evenodd;stroke-width:0.00368993;stroke-opacity:0"
     id="bolt_left"
     cx="1.0865561"
     cy="-27.548943"
     rx="0.094999999"
     ry="0.028942173"
     inkscape:label="bolt_left"
     transform="scale(-1)" />
  <ellipse
     style="opacity:0;fill:none;fill-opacity:0;fill-rule:evenodd;stroke-width:0.000191947;stroke-opacity:0"
     id="bolt_right"
     cx="203.85091"
     cy="27.743528"
     rx="0.0049418169"
     ry="0.0015055466"
     inkscape:label="bolt_right" />
  <path
     id="profile_left"
     style="display:inline;fill:#5e5e5e;fill-rule:evenodd;stroke:#000000;stroke-width:0.0429187"
     d="m 48.217966,0.02160636 c -0.23763,0.002 -0.24202,0.52778 -0.47965,0.52739 -0.23203,-3.9e-4 -0.4666,-0.51654 -0.4666,-0.51654 h -0.99402 V 26.380086 c -0.0824,0.61577 -0.35762,1.05266 -1.09167,1.06344 h -56.19806 l -0.0326,2.53491 h 69.710433 v -16.3967 l -3.498533,-0.29515 -1.87516,-0.48617 -1.6668,-0.89419 -1.37164,-1.38031 -0.8855,-1.5973497 c -0.0464,-0.40583 0.14455,-0.66715 0.47748,-0.84206 h 3.1947 l 0.43407,0.26043 c 0,0 1.28027,1.01801 2.04877,1.0678 0.747299,0.0483 1.573033,-0.2502 2.109543,-0.77264 0.53973,-0.52559 0.84054,-1.34752 0.83339,-2.10086 -0.007,-0.73408 -0.32581,-1.51822 -0.85077,-2.03141 -0.52682,-0.515 -1.321644,-0.84444 -2.057423,-0.80736 -0.76198,0.0385 -2.03577,1.04608 -2.03577,1.04608 l -0.41887,0.19968 h -3.14044 c -0.40539,-0.15903 -0.59069,-0.41376 -0.61636,-0.7379 l 0.7292,-1.31087 0.90287,-1.17197 1.24141,-0.92020994 v -0.77482 h -1.0678 c 0,0 -0.23044,0.48665 -0.45358,0.49266 -0.24036,0.006 -0.27632,-0.51383 -0.51653,-0.50351 -0.23779,0.0102 -0.22891,0.52897 -0.46663,0.54042 -0.24277,0.0116 -0.28437,-0.5077 -0.52738,-0.50352 -0.22864,0.004 -0.25099,0.49336 -0.47964,0.49049 -0.24006,-0.003 -0.25042,-0.52873 -0.49048,-0.52739 z m 0.34725,11.87379964 c 0.0553,0.003 0.11575,0.021 0.17796,0.0456 l 1.61472,1.47581 1.92723,1.04178 1.90987,0.69448 2.048789,0.0522 c 0.19833,0.0422 0.40984,0.0562 0.451417,0.43406 v 11.87592 c 0.023,0.31734 -0.0926,0.48702 -0.416707,0.4341 h -7.656859 c -0.37849,0.009 -0.37103,-0.23894 -0.4167,-0.45143 v -15.22693 c 0.0655,-0.28917 0.1944,-0.38694 0.36028,-0.37547 z"
     sodipodi:nodetypes="ssccccccccccccccccssssscccccccccssssssscccccccccccssc"
     inkscape:label="profile_left" />
  <path
     id="profile_right"
     style="display:inline;fill:#5e5e5e;fill-rule:evenodd;stroke:#000000;stroke-width:0.0420422"
     d="m 151.04828,0.12102114 v 0.75172 l 1.12762,0.87772996 0.99068,1.12975 0.67352,1.37742 c 0.0678,0.39611 -0.2081,0.63117 -0.56926,0.75389 h -2.9873 l -0.56922,-0.16078 -0.9581,-0.77344 c -0.6517,-0.37077 -1.41998,-0.32241 -2.22256,-0.1499 -0.66422,0.29861 -1.1975,0.82709 -1.61858,1.55123 -0.33888,0.93422 -0.28106,1.69844 0.02,2.35944 0.59564,0.95376 1.4418,1.62285 2.88518,1.60772 0.45692,0.0628 1.2405,-0.32653 2.42682,-1.26662 h 3.02208 c 0.51464,0.0462 0.69688,0.3431 0.60398,0.84513 l -0.85604,1.5381999 -1.39046,1.40132 -1.66418,0.90163 -1.85756,0.50187 -3.5913,0.27374 v 16.4031 l 69.84673,0.0348 v -2.49414 h -9.8614 -46.47833 c -0.63198,-0.006 -0.9633,-0.35686 -0.98854,-1.0624 V 0.13189114 h -1.11662 c 0,0 -0.1946,0.52654 -0.42152,0.53663 -0.22816,0.01 -0.2388,-0.49514 -0.4671,-0.50187 -0.24182,-0.007 -0.28404,0.50986 -0.52578,0.50187 -0.23662,-0.008 -0.24128,-0.51778 -0.47798,-0.52577 -0.23084,-0.008 -0.27062,0.48014 -0.50186,0.48014 -0.23122,0 -0.27104,-0.48813 -0.50186,-0.48014 -0.2366,0.008 -0.2417,0.5388 -0.47798,0.52577 -0.22534,-0.0124 -0.39974,-0.5475 -0.39974,-0.5475 z m 3.6478,11.87322986 c 0.20202,-0.0118 0.31826,0.1269 0.3498,0.42583 v 15.20816 c -0.0456,0.27762 -0.1892,0.42194 -0.44322,0.42149 h -7.7518 c -0.31784,-0.0372 -0.2861,-0.24208 -0.33024,-0.41062 v -11.89061 c -0.004,-0.21505 0.1322,-0.37369 0.43232,-0.46711 h 2.05096 l 2.01832,-0.72999 1.81194,-0.99071 1.63162,-1.50561 c 0.086,-0.0371 0.163,-0.0569 0.2303,-0.0608 z"
     inkscape:label="profile_right" />
  <path
     style="fill:#5e5e5e;fill-rule:evenodd;stroke:#000000;stroke-width:0.0301566"
     d="m 49.904745,3.7481885 c 0.0071,-0.3527956 0.266,-0.6551919 0.494085,-0.9637727 0.536936,-0.7277017 1.175026,-1.4014515 2.055645,-1.94585095 0.86434,-0.4567501 1.782536,-0.71155598 2.738827,-0.82348002 L 56.077785,0.02128112 118.43529,4.47286 118.19803,7.7422958 62.046453,3.6659388 c -0.06543,0 -0.423566,0.1093348 -0.40564,0.2470561 0.018,0.1381328 -0.0032,0.4178433 -0.0032,0.4178433 0,0 0.324328,1.1747841 0.387337,1.7780999 0.03396,0.325594 0.0071,0.6549825 -0.0062,0.9820709 -0.02951,0.7265495 -0.414822,1.5064077 -0.451384,2.0861511 -0.01121,0.1751408 0.384283,0.3598859 0.384283,0.3598859 l 29.426391,-0.017704 29.59313,2.117803 c -0.003,-0.02921 0.23341,0.04075 0.30194,0.448575 0.0504,0.299686 -0.10357,0.905781 -0.10357,0.905781 0,0 -1.08312,0.200372 -1.55277,-0.01711 -0.21838,-0.10125 -0.23224,-0.546967 -0.47307,-0.54589 -0.25084,7.82e-4 -0.23726,0.565411 -0.48798,0.573381 -0.25732,0.0083 -0.27945,-0.564719 -0.53679,-0.555079 -0.25112,0.0094 -0.23076,0.574272 -0.48189,0.57948 -0.25762,0.0056 -0.26086,-0.56994 -0.51848,-0.57338 -0.24434,-0.0032 -0.26175,0.529884 -0.50627,0.530686 -0.25468,7.82e-4 -0.27622,-0.55682 -0.53071,-0.548989 -0.25673,0.008 -0.24345,0.588895 -0.50019,0.585584 -0.24876,-0.0032 -0.22103,-0.57499 -0.46967,-0.579486 -0.25349,-0.0047 -0.2467,0.56541 -0.50019,0.573389 -0.2774,0.0089 -0.30889,-0.612498 -0.58559,-0.591683 -0.2408,0.018 -0.18592,0.568978 -0.42699,0.585587 -0.24257,0.01682 -0.26322,-0.521703 -0.50629,-0.524594 -0.23726,-0.0032 -0.26913,0.505875 -0.50627,0.500192 -0.24021,-0.0056 -0.24789,-0.538324 -0.48801,-0.530686 -0.24552,0.0077 -0.21807,0.559803 -0.46356,0.57338 -0.28271,0.01564 -0.32098,-0.611492 -0.6039,-0.597782 -0.23519,0.01151 -0.216,0.538659 -0.4514,0.542886 -0.23165,0.0038 -0.23195,-0.512013 -0.46357,-0.518484 -0.2588,-0.0071 -0.29009,0.549722 -0.54901,0.548979 -0.25171,-7.17e-4 -0.27915,-0.543547 -0.53066,-0.536786 -0.24198,0.0062 -0.23992,0.540591 -0.48191,0.542895 -0.24906,0.0024 -0.25732,-0.556431 -0.50627,-0.548992 -0.24404,0.0071 -0.21955,0.558273 -0.4636,0.567284 -0.27178,0.01003 -0.28948,-0.603295 -0.56117,-0.591683 -0.25734,0.01092 -0.22428,0.599896 -0.48191,0.603886 -0.26677,0.0038 -0.25172,-0.613263 -0.51845,-0.609985 -0.24582,0.0032 -0.21779,0.56904 -0.4636,0.573381 -0.26647,0.0047 -0.25792,-0.608961 -0.52459,-0.603877 -0.26619,0.0047 -0.23402,0.618212 -0.50021,0.622179 -0.25673,0.0038 -0.24345,-0.585702 -0.50018,-0.585584 -0.25379,1.15e-4 -0.24021,0.576162 -0.49408,0.579487 -0.24316,0.0032 -0.24464,-0.539963 -0.48798,-0.542886 -0.24581,-0.0032 -0.26027,0.539873 -0.50629,0.53679 -0.26501,-0.0032 -0.26589,-0.596246 -0.53068,-0.591692 -0.25969,0.0047 -0.24051,0.5934 -0.50019,0.597788 -0.26204,0.0047 -0.26263,-0.593557 -0.52459,-0.585586 -0.24878,0.0077 -0.21513,0.568574 -0.4636,0.585586 -0.27268,0.01859 -0.31909,-0.586335 -0.591668,-0.567284 -0.24257,0.01682 -0.208048,0.567986 -0.451385,0.573381 -0.252306,0.0056 -0.241979,-0.568281 -0.494079,-0.573381 -0.256158,-0.0056 -0.26855,0.566003 -0.524604,0.561188 -0.24198,-0.0047 -0.233718,-0.545367 -0.475786,-0.548992 -0.24316,-0.0038 -0.251127,0.529276 -0.49408,0.536787 -0.281813,0.0086 -0.329214,-0.610219 -0.609994,-0.585584 -0.223096,0.01947 -0.173526,0.521771 -0.396503,0.542883 -0.252012,0.0239 -0.302851,-0.540738 -0.555069,-0.518485 -0.253192,0.02243 -0.203622,0.597757 -0.457492,0.609986 -0.283303,0.01357 -0.29068,-0.648791 -0.573378,-0.628287 -0.242274,0.0177 -0.166429,0.582783 -0.408674,0.603885 -0.259403,0.02243 -0.282713,-0.567789 -0.542898,-0.561185 -0.256437,0.0062 -0.249946,0.584572 -0.506295,0.579487 -0.255847,-0.0047 -0.226046,-0.58905 -0.481894,-0.597788 -0.260288,-0.0089 -0.27032,0.574138 -0.530682,0.573389 -0.259093,-7.41e-4 -0.265584,-0.581095 -0.524589,-0.573389 -0.235488,0.0071 -0.210113,0.534864 -0.445276,0.54899 -0.268536,0.01593 -0.311069,-0.576881 -0.579486,-0.561187 -0.256732,0.01505 -0.230767,0.595696 -0.487972,0.597782 -0.25539,0.0024 -0.238896,-0.575537 -0.494094,-0.585585 -0.245668,-0.0097 -0.272725,0.531843 -0.518481,0.524589 -0.221768,-0.0062 -0.217313,-0.499807 -0.439184,-0.500191 -0.257869,-4.42e-4 -0.254564,0.577708 -0.512388,0.57949 -0.272061,0.0016 -0.277018,-0.610157 -0.548991,-0.603888 -0.261321,0.0062 -0.238822,0.600819 -0.500187,0.603888 -0.266618,0.0032 -0.258031,-0.61083 -0.52459,-0.603888 -0.247615,0.0062 -0.209847,0.58069 -0.457492,0.585585 -0.26107,0.0056 -0.245166,-0.599481 -0.50628,-0.597782 -0.255641,0.0016 -0.232626,0.579449 -0.487987,0.591683 -0.275734,0.01328 -0.309888,-0.599412 -0.585578,-0.585584 -0.243898,0.01239 -0.219703,0.555047 -0.4636,0.567282 -0.258474,0.01298 -0.290311,-0.557006 -0.548991,-0.548979 -0.254844,0.008 -0.251392,0.579909 -0.50628,0.57338 -0.241567,-0.0062 -0.210084,-0.554315 -0.451385,-0.567284 -0.242628,-0.01298 -0.26939,0.519148 -0.512388,0.518484 -0.253044,-6.87e-4 -0.2778,-0.552142 -0.530697,-0.542883 -0.255228,0.0094 -0.238675,0.584929 -0.494079,0.585584 -0.253841,6.58e-4 -0.240269,-0.576081 -0.49408,-0.579486 -0.24617,-0.0032 -0.24791,0.549746 -0.494095,0.54899 -0.244841,-7.58e-4 -0.243248,-0.555651 -0.487986,-0.54899 -0.254579,0.0071 -0.221208,0.590373 -0.475786,0.597788 -0.261956,0.0077 -0.262516,-0.583819 -0.524589,-0.585583 -0.24319,-0.0016 -0.25092,0.53313 -0.49408,0.536785 -0.25303,0.0038 -0.524515,-0.567269 -0.530697,-0.542885 -0.0059,0.02449 -0.26408,0.585235 -0.524574,0.57948 -0.245432,-0.0056 -0.224247,-0.56281 -0.469693,-0.567284 -0.250537,-0.0047 -0.249622,0.557704 -0.500188,0.561185 -0.243071,0.0032 -0.257145,-0.5257 -0.500187,-0.530686 -0.250124,-0.0056 -0.286741,0.533371 -0.53679,0.524589 -0.244694,-0.0086 -0.243278,-0.541087 -0.487987,-0.548991 -0.248618,-0.008 -0.282019,0.531026 -0.530682,0.524592 -0.250359,-0.0062 -0.255906,-0.559623 -0.506295,-0.555088 -0.245196,0.0047 -0.230708,0.552504 -0.475771,0.561186 -0.252912,0.0089 -0.277727,-0.549577 -0.530697,-0.542883 -0.246288,0.0062 -0.241626,0.556304 -0.487987,0.555088 -0.252277,-0.0016 -0.241802,-0.575742 -0.49408,-0.573391 -0.248353,0.0024 -0.22758,0.564691 -0.4758,0.573391 -0.252956,0.0089 -0.271516,-0.543995 -0.524575,-0.548992 -0.257352,-0.0056 -0.297908,0.54721 -0.555098,0.536787 -0.246164,-0.01003 -0.241913,-0.567152 -0.487978,-0.555088 -0.240091,0.0118 -0.181573,0.562942 -0.42089,0.585585 -0.270605,0.02567 -0.320414,-0.57856 -0.591689,-0.561187 -0.240858,0.01534 -0.216158,0.558523 -0.45748,0.561187 -0.253815,0.0032 -0.24027,-0.577192 -0.494095,-0.57948 -0.257827,-0.0024 -0.254552,0.576553 -0.512388,0.57948 -0.260394,0.0032 -0.524503,-0.597764 -0.530679,-0.57338 -0.0062,0.02449 -0.241656,0.550534 -0.487987,0.555088 -0.263168,0.0047 -0.27984,-0.582682 -0.542894,-0.573391 -0.249771,0.0089 -0.225898,0.574264 -0.475783,0.579487 -0.256264,0.0056 -0.256087,-0.576036 -0.512387,-0.573389 -0.243693,0.0024 -0.232272,0.545733 -0.475789,0.555088 -0.25287,0.0097 -0.283914,-0.545804 -0.536787,-0.536787 -0.242009,0.0086 -0.233659,0.544984 -0.475783,0.548992 -0.263256,0.0047 -0.27388,-0.594011 -0.536788,-0.57949 -0.242394,0.01328 -0.190546,0.574841 -0.433089,0.585586 -0.263316,0.01151 -0.261014,-0.591252 -0.524584,-0.591683 -0.25346,-4.13e-4 -0.252988,0.558642 -0.506288,0.567284 -0.250036,0.0086 -0.286983,-0.538558 -0.536786,-0.524592 -0.243809,0.01357 -0.219582,0.557549 -0.46359,0.567294 -0.281642,0.01121 -0.304066,-0.623743 -0.585583,-0.609986 -0.255968,0.01239 -0.219612,0.596609 -0.475793,0.603879 -0.257737,0.0071 -0.254639,-0.58617 -0.512387,-0.57948 -0.241566,0.0062 -0.209962,0.556728 -0.451384,0.567284 -0.277304,0.0121 -0.296252,-0.619525 -0.573388,-0.603885 -0.249298,0.01416 -0.451384,0.597789 -0.451384,0.597789 0,0 -1.597188,-0.04591 -2.394214,-0.0983 C 53.447386,12.82325 52.29035,12.210773 51.351103,11.365548 50.764942,10.83806 49.962237,9.4504692 49.962237,9.4504692 L 49.945124,9.1485391 50.178045,8.984643 53.09379,8.7431046 c 1.068194,0.8909708 2.430177,1.5175934 4.019947,0.8540247 0.77387,-0.3230136 1.315106,-0.8935142 1.55276,-1.863315 0.183521,-0.7489535 0.345418,-1.6159948 0.09491,-2.3636604 C 58.512138,4.6262091 58.035335,3.8874042 57.269026,3.5499665 56.151386,3.0578253 54.988805,2.9948253 53.783929,3.7052468 53.53106,3.8543308 53.460818,4.0506409 53.292215,4.2055848 l -0.284681,0.051769 -2.889866,-0.2415385 z"
     id="compensator_left"
     sodipodi:nodetypes="ccccccccscssscccscsssssssssssssssssssasssssssssssssssssssssssssaaaaasssssssaaasssssssssssssssssssssssssssssssssssssasssssssssssssssssssssssssscssccccssasscccc"
     inkscape:label="compensator_left">
    <title
       id="title5">metal</title>
  </path>
  <path
     style="fill:#5e5e5e;fill-rule:evenodd;stroke:#000000;stroke-width:0.0301566"
     d="m 153.14577,9.3518141 c -0.006,0.3527942 -0.26589,0.6551909 -0.49409,0.9637679 -0.53693,0.727704 -1.17503,1.401456 -2.05565,1.945853 -0.86434,0.456748 -1.78254,0.711557 -2.73883,0.823481 l -0.88448,-0.0062 -62.357492,-4.4515788 0.237229,-3.2694359 56.151563,4.0763585 c 0.0655,0 0.42359,-0.1093053 0.40564,-0.2470561 -0.0177,-0.1381033 0.003,-0.4178418 0.003,-0.4178418 0,0 -0.3243,-1.1747842 -0.38734,-1.7781 -0.0339,-0.3255939 -0.006,-0.6549809 0.006,-0.9820738 0.0295,-0.7265466 0.41482,-1.5064047 0.45138,-2.086151 0.0118,-0.1751394 -0.38427,-0.3598831 -0.38427,-0.3598831 L 111.67188,3.5806617 82.07872,1.462858 c 0.003,0.029211 -0.233334,-0.040748 -0.301921,-0.4485725 -0.05031,-0.29968613 0.103567,-0.90578138 0.103567,-0.90578138 0,0 1.08311,-0.20037154 1.552758,0.0171135 0.218464,0.1012502 0.232302,0.54696796 0.473072,0.54588951 0.250979,-7.8191e-4 0.23714,-0.56540928 0.487987,-0.57338035 0.257263,-0.0082617 0.27957,0.56472326 0.536789,0.55507919 0.251038,-0.009442 0.230709,-0.57426996 0.481879,-0.57947779 0.257618,-0.0056062 0.260834,0.56993699 0.518496,0.57338036 0.244458,0.003246 0.261808,-0.52988246 0.506281,-0.53068798 0.25452,-7.8043e-4 0.276295,0.55682006 0.530682,0.54899061 0.256585,-0.007967 0.243514,-0.58889761 0.500187,-0.58558703 0.248619,0.0032457 0.22109,0.57498992 0.469693,0.57948665 0.253576,0.004721 0.246671,-0.56540633 0.500188,-0.57338626 0.277357,-0.0088518 0.30887,0.6124966 0.585578,0.59168004 0.240888,-0.0179987 0.186007,-0.56897509 0.426998,-0.58558408 0.242451,-0.01681848 0.263283,0.52170189 0.50628,0.52459053 0.2372,0.003246 0.26914,-0.50587481 0.506266,-0.50019046 0.240224,0.005606 0.247896,0.53832268 0.488016,0.53068798 0.245521,-0.007672 0.218065,-0.55980313 0.4636,-0.57338036 0.282698,-0.01563824 0.320968,0.61149044 0.603857,0.59777895 0.235194,-0.0115074 0.216,-0.53865904 0.4514,-0.54288136 0.231947,-0.003836 0.231947,0.51200913 0.46357,0.51848277 0.258813,0.007081 0.290089,-0.54972236 0.549005,-0.54898176 0.251717,7.17e-4 0.279158,0.54354673 0.530682,0.53678541 0.24198,-0.006196 0.239915,-0.54058875 0.481894,-0.5428917 0.249061,-0.0023605 0.257323,0.55643205 0.506266,0.54898913 0.244045,-0.007081 0.219555,-0.55827175 0.4636,-0.56728144 0.271781,-0.01003208 0.289484,0.60329217 0.561191,0.59168299 0.257323,-0.0109173 0.224261,-0.59989897 0.481894,-0.60388819 0.266765,-0.0038358 0.251717,0.61326376 0.518481,0.60998415 0.245816,-0.003246 0.217785,-0.56904 0.463571,-0.57338035 0.266764,-0.004721 0.257913,0.60896029 0.524589,0.60387934 0.266189,-0.004721 0.234013,-0.61821488 0.500202,-0.62218198 0.256733,-0.0038358 0.243455,0.58570211 0.500188,0.58558703 0.253782,-1.1802e-4 0.240209,-0.5761613 0.494079,-0.57948664 0.24316,-0.0032457 0.244635,0.53996174 0.488002,0.54288284 0.245813,0.003246 0.260273,-0.53987027 0.506263,-0.53678688 0.26501,0.0032457 0.2659,0.59624316 0.53071,0.59169332 0.25969,-0.004721 0.24051,-0.59340172 0.50016,-0.59778928 0.26205,-0.004721 0.26264,0.59355368 0.52461,0.5855826 0.24876,-0.007672 0.21511,-0.56857086 0.46358,-0.5855826 0.27268,-0.01858885 0.31912,0.58633354 0.59167,0.56728144 0.24259,-0.0168185 0.20834,-0.56798664 0.45139,-0.57338183 0.2523,-0.0056062 0.24198,0.56828613 0.49411,0.57338183 0.25586,0.005606 0.26855,-0.56600383 0.52457,-0.56118548 0.24227,0.004721 0.23372,0.54536873 0.47579,0.54898913 0.24316,0.003836 0.25112,-0.52927315 0.49411,-0.5367854 0.28182,-0.0085568 0.32918,0.6102202 0.60996,0.58558555 0.22339,-0.019474 0.17353,-0.52177122 0.3965,-0.54288579 0.25202,-0.0238999 0.30288,0.54073775 0.55507,0.51848719 0.25319,-0.0224246 0.20362,-0.59775977 0.45749,-0.60998563 0.28331,-0.01357281 0.29068,0.64878764 0.57338,0.62828827 0.24228,-0.0177037 0.16643,-0.58278395 0.40872,-0.60388967 0.25939,-0.02242464 0.2827,0.5677919 0.54285,0.56118548 0.25644,-0.006196 0.24995,-0.58456907 0.5063,-0.57948664 0.25586,0.004721 0.22605,0.589054 0.48189,0.59778781 0.26029,0.008852 0.27032,-0.57413572 0.53068,-0.57338626 0.2591,7.406e-4 0.26559,0.58109473 0.52459,0.57338626 0.23549,-0.007081 0.21012,-0.53486456 0.44528,-0.54898766 0.26854,-0.01622836 0.31107,0.5768783 0.57952,0.561184 0.25673,-0.0150481 0.23076,-0.59569582 0.48797,-0.59777895 0.25525,-0.0023605 0.23903,0.57553578 0.49408,0.58558261 0.24552,0.009737 0.27268,-0.53184314 0.51849,-0.52458906 0.22192,0.006196 0.2172,0.49980688 0.43919,0.50019046 0.25792,4.4554e-4 0.25468,-0.57770595 0.51238,-0.57948665 0.27208,-0.0016228 0.2771,0.61015677 0.549,0.60388525 0.26117,-0.006196 0.23873,-0.60081514 0.50017,-0.60388525 0.26676,-0.0032457 0.25821,0.61082656 0.52459,0.60388525 0.24758,-0.006196 0.20982,-0.58068755 0.45749,-0.58558261 0.26116,-0.0056062 0.24522,0.59948293 0.50629,0.59777895 0.25556,-0.001623 0.23254,-0.57944828 0.48798,-0.59168299 0.27563,-0.01327775 0.30988,0.59941212 0.58559,0.58558703 0.24404,-0.0123926 0.21955,-0.55504968 0.4636,-0.56728439 0.2585,-0.01298269 0.29038,0.55700889 0.54898,0.54898176 0.25496,-0.007967 0.25142,-0.57990859 0.50629,-0.57338036 0.24169,0.0061963 0.21011,0.55431499 0.45139,0.56728144 0.24256,0.0129827 0.26942,-0.51914813 0.51237,-0.51848424 0.25319,6.8749e-4 0.2777,0.55214628 0.53071,0.54288579 0.25526,-0.009442 0.23873,-0.58493199 0.49408,-0.58558703 0.25378,-6.5503e-4 0.24021,0.57608459 0.49408,0.57948665 0.24611,0.003246 0.24788,-0.54974597 0.49408,-0.54898766 0.24493,7.5535e-4 0.24316,0.55564866 0.488,0.54898766 0.25468,-0.007081 0.22133,-0.5903685 0.47579,-0.59778781 0.26206,-0.0076716 0.26265,0.58382109 0.52457,0.58558556 0.24316,0.001623 0.25083,-0.53313256 0.49411,-0.53678541 0.2529,-0.003836 0.52452,0.56726669 0.53068,0.54288284 0.006,-0.0244901 0.26411,-0.58523296 0.52459,-0.57947779 0.24552,0.0056062 0.22428,0.56280832 0.46968,0.56728144 0.25054,0.004721 0.24965,-0.55770228 0.50019,-0.56118548 0.24316,-0.0032457 0.25703,0.52569997 0.50018,0.53068945 0.25026,0.005606 0.28685,-0.5333745 0.53679,-0.52458906 0.24464,0.0085568 0.24316,0.54108592 0.48798,0.54898766 0.24876,0.007967 0.28212,-0.53102287 0.53071,-0.52458906 0.25024,0.006196 0.25585,0.55962313 0.50626,0.55508804 0.24523,-0.004721 0.23077,-0.55250331 0.47579,-0.56118695 0.2529,-0.0088518 0.27768,0.54957483 0.5307,0.54288432 0.24611,-0.006196 0.24168,-0.55630665 0.48798,-0.55508805 0.25231,0.0016228 0.24169,0.57573937 0.49408,0.57339068 0.24847,-0.00236 0.22752,-0.56469375 0.47579,-0.57339068 0.2529,-0.0088518 0.27149,0.54399227 0.52459,0.54898913 0.25732,0.005606 0.29791,-0.54720844 0.55508,-0.5367854 0.24611,0.0100321 0.24198,0.56715014 0.488,0.55508657 0.24021,-0.0118025 0.1815,-0.56293962 0.42088,-0.58558261 0.2706,-0.02567031 0.32041,0.5785572 0.5917,0.56118401 0.2408,-0.0153432 0.21629,-0.55852256 0.45748,-0.56118401 0.25379,-0.0032457 0.24021,0.57719107 0.49409,0.57947779 0.25791,0.00236 0.25467,-0.57655078 0.51237,-0.57947779 0.26057,-0.0032457 0.52451,0.5977642 0.53067,0.57338036 0.006,-0.0244901 0.24169,-0.55053673 0.48802,-0.55508805 0.26322,-0.004721 0.27975,0.58268068 0.54288,0.57339068 0.24965,-0.008852 0.22575,-0.57426406 0.47579,-0.57948664 0.25614,-0.0056062 0.25614,0.57603443 0.51239,0.57338626 0.24375,-0.00236 0.23222,-0.54573314 0.47578,-0.55508657 0.2529,-0.009737 0.28388,0.54580394 0.53678,0.5367854 0.24198,-0.008557 0.23371,-0.54498368 0.47578,-0.54898913 0.26323,-0.004721 0.27385,0.59400955 0.53679,0.57948664 0.24228,-0.0132777 0.19063,-0.5748409 0.43311,-0.5855826 0.26324,-0.01150738 0.26088,0.5912522 0.52457,0.59168004 0.25349,4.1604e-4 0.2529,-0.55863763 0.5063,-0.56728144 0.24994,-0.008557 0.28712,0.53855725 0.53679,0.52458906 0.24375,-0.0135728 0.21954,-0.55754591 0.46358,-0.5672903 0.28153,-0.01121232 0.30408,0.6237399 0.58557,0.60998268 0.25586,-0.0123926 0.21955,-0.59660756 0.47581,-0.60387639 0.25763,-0.0070815 0.25468,0.58616978 0.51239,0.57947779 0.24168,-0.006196 0.21011,-0.55672563 0.45138,-0.56728144 0.27739,-0.0120975 0.29625,0.61952495 0.57337,0.60388524 0.24937,-0.0141629 0.45138,-0.59778928 0.45138,-0.59778928 0,0 1.5972,0.0459115 2.39423,0.09829959 1.31549,0.0864381 2.47252,0.69891556 3.41176,1.54414012 0.58618,0.5274881 1.38888,1.915082 1.38888,1.915082 l 0.0177,0.3019272 -0.23284,0.1638975 -2.91573,0.241537 c -1.0682,-0.8909708 -2.4302,-1.5175934 -4.01994,-0.8540247 -0.77387,0.3230166 -1.3151,0.8935172 -1.55278,1.8633165 -0.18355,0.7489549 -0.34541,1.6159933 -0.095,2.3636618 0.24936,0.7439419 0.72609,1.4827468 1.49239,1.8201845 1.11764,0.492141 2.28024,0.555141 3.48512,-0.1552803 0.25289,-0.1490826 0.3231,-0.3453911 0.49169,-0.500338 l 0.28476,-0.051754 2.88987,0.241537 z"
     id="compensator_right"
     sodipodi:nodetypes="ccccccccscssscccscsssssssssssssssssssasssssssssssssssssssssssssaaaaasssssssaaasssssssssssssssssssssssssssssssssssssasssssssssssssssssssssssssscssccccssasscccc"
     inkscape:label="compensator_right">
    <title
       id="title6">metal</title>
  </path>
</svg>
