<?xml version="1.0" encoding="UTF-8" standalone="no"?>
<!-- Created with Inkscape (http://www.inkscape.org/) -->

<svg
   width="210mm"
   height="297mm"
   viewBox="0 0 210 297"
   version="1.1"
   id="svg1"
   inkscape:version="1.4 (86a8ad7, 2024-10-11)"
   sodipodi:docname="DSHA-50-080.svg"
   xmlns:inkscape="http://www.inkscape.org/namespaces/inkscape"
   xmlns:sodipodi="http://sodipodi.sourceforge.net/DTD/sodipodi-0.dtd"
   xmlns="http://www.w3.org/2000/svg"
   xmlns:svg="http://www.w3.org/2000/svg">
  <sodipodi:namedview
     id="namedview1"
     pagecolor="#ffffff"
     bordercolor="#000000"
     borderopacity="0.25"
     inkscape:showpageshadow="2"
     inkscape:pageopacity="0.0"
     inkscape:pagecheckerboard="0"
     inkscape:deskcolor="#d1d1d1"
     inkscape:document-units="mm"
     inkscape:zoom="0.74016561"
     inkscape:cx="103.35525"
     inkscape:cy="162.8014"
     inkscape:window-width="2560"
     inkscape:window-height="1377"
     inkscape:window-x="-8"
     inkscape:window-y="-8"
     inkscape:window-maximized="1"
     inkscape:current-layer="svg1" />
  <defs
     id="defs1" />
  <rect
     style="fill:#b8b8b8;fill-opacity:1;fill-rule:evenodd;stroke:#b81e1e;stroke-width:0.045085"
     id="concrete_right"
     width="78.169807"
     height="54.073204"
     x="147.85982"
     y="50.082542" />
  <rect
     style="fill:#b8b8b8;fill-opacity:1;fill-rule:evenodd;stroke:#b81e1e;stroke-width:0.0450992"
     id="concrete_left"
     width="78.208832"
     height="54.080254"
     x="-16.152231"
     y="50.25473" />
  <rect
     style="fill:#a39a9a;fill-rule:evenodd;stroke:#b81e1e;stroke-width:0.0444171"
     id="finish_right"
     width="65.795586"
     height="44.945141"
     x="160.39404"
     y="5.1793151" />
  <rect
     style="fill:#a39a9a;fill-rule:evenodd;stroke:#b81e1e;stroke-width:0.0441991"
     id="finish_left"
     width="65.795815"
     height="44.502888"
     x="-16.189743"
     y="5.5243521" />
  <rect
     style="fill:#a39a9a;fill-rule:evenodd;stroke:#b81e1e;stroke-width:0.0329314"
     id="cover_right"
     width="65.769066"
     height="4.9670687"
     x="160.31758"
     y="0.10854357" />
  <rect
     style="fill:#a39a9a;fill-rule:evenodd;stroke:#b81e1e;stroke-width:0.0341611"
     id="cover_left"
     width="65.767876"
     height="5.3449874"
     x="-16.154251"
     y="0.062800966" />
  <rect
     style="fill:#404242;fill-opacity:0.341246;fill-rule:evenodd;stroke:#b81e1e;stroke-width:0.020786"
     id="shadow"
     width="162.00339"
     height="0.011705615"
     x="7.9457459"
     y="103.91389"
     inkscape:label="shadow" />
  <ellipse
     style="opacity:0;fill:none;fill-opacity:0;fill-rule:evenodd;stroke-width:0.00368993;stroke-opacity:0"
     id="bolt_left"
     cx="-2.9572694"
     cy="-47.727943"
     rx="0.094999999"
     ry="0.028942173"
     inkscape:label="bolt_left"
     transform="scale(-1)" />
  <ellipse
     style="opacity:0;fill:none;fill-opacity:0;fill-rule:evenodd;stroke-width:0.000191947;stroke-opacity:0"
     id="bolt_right"
     cx="207.09619"
     cy="47.622505"
     rx="0.0049418169"
     ry="0.0015055466"
     inkscape:label="bolt_right" />
  <path
     id="profile_left"
     style="display:inline;fill:#5e5e5e;fill-rule:evenodd;stroke:#000000;stroke-width:0.0431256"
     d="m 54.481139,0.02157552 c 0,0 -0.20663,0.59519 -0.455782,0.59097 -0.236112,-0.006 -0.172242,-0.56317 -0.407805,-0.58004 -0.25831,-0.018 -0.271198,0.56071 -0.529929,0.56915 -0.244321,0.0103 -0.298628,-0.50345 -0.543012,-0.49501 -0.261609,0.009 -0.281747,0.58604 -0.543011,0.56916 -0.246273,-0.0147 -0.198384,-0.58473 -0.444879,-0.59318 -0.258929,-0.0115 -0.258743,0.60542 -0.516842,0.5801 -0.229571,-0.0215 -0.35765,-0.59317 -0.35765,-0.59317 h -1.10129 V 45.652086 c -0.01279,1.42621 -0.917102,1.85418 -2.084817,1.98669 H 2.0640552 -7.9784048 l -0.03054,2.52316 H 62.046234 v -36.5236 l -3.593917,-0.31405 -1.796954,-0.42742 -1.69228,-0.89849 -1.360802,-1.36079 -0.854865,-1.6748205 c -0.121256,-0.46901 0.167485,-0.6357 0.479769,-0.7851 l 3.218822,0.009 0.357649,0.17446 c 0.636574,0.7082 1.329124,1.02424 2.058649,1.08164 1.030022,0.0132 1.635516,-0.3274 2.110989,-0.77633 0.979648,-1.01024 1.068687,-2.14775 0.584448,-3.36714 -0.317002,-0.87106 -1.212455,-1.39967 -2.669269,-1.59632 -0.893627,-0.005 -1.685262,0.62386 -2.464271,1.33029 l -3.175208,0.005 c -0.356506,-0.0833 -0.585152,-0.31144 -0.59317,-0.78945 l 0.741463,-1.29099 0.950816,-1.19073 1.219051,-0.94427998 v -0.80034 z M 51.844585,11.989636 c 0.05104,-0.003 0.105932,0.008 0.167915,0.0349 l 1.703185,1.5418 1.814404,1.03589 1.973601,0.60406 2.084822,0.11127 c 0.365338,0.0945 0.518066,0.25574 0.455778,0.48193 v 13.88935 c 0.03874,0.42689 -0.204896,0.44735 -0.455778,0.4558 l -7.562925,0.0262 c -0.282681,-0.0326 -0.497924,-0.14184 -0.519025,-0.46889 l -0.0109,-17.38076 v -0.002 c 0.08772,-0.18897 0.195764,-0.32034 0.348927,-0.32934 z m 0.06106,18.93789 c 0.02899,5.4e-4 0.05988,0.003 0.09159,0.009 h 7.519307 c 0.32605,-5.4e-4 0.605975,0.0645 0.610616,0.52342 v 16.25982 c -0.127509,0.23962 -0.269007,0.44518 -0.488492,0.45361 h -7.711213 c -0.357185,-10e-4 -0.376931,-0.24399 -0.41871,-0.47103 v -16.41736 c 0.05918,-0.2478 0.194017,-0.36158 0.396901,-0.35764 z"
     inkscape:label="profile_left" />
  <path
     id="profile_right"
     style="display:inline;fill:#5e5e5e;fill-rule:evenodd;stroke:#000000;stroke-width:0.0420671"
     d="m 154.45566,0.02103355 v 0.72608 l 1.12824,0.91954995 0.98479,1.17824 0.67606,1.33911 c 0.0767,0.7373 -0.29282,0.72738 -0.61085,0.80651 h -3.06518 l -0.46956,-0.2913 c -0.55145,-0.48985 -1.1011,-0.98126 -1.96735,-0.96738 -0.92754,-0.11263 -1.5975,0.22864 -2.16086,0.75869 -0.66736,0.58096 -0.78191,1.33176 -0.90432,2.0804 0.12208,0.76657 0.28097,1.51914 0.95215,2.09562 0.58061,0.42757 1.14342,0.8782 2.22606,0.67825 0.47776,0.002 1.23165,-0.54435 2.35433,-1.19346 h 3.09779 c 0.64211,0.10266 0.58263,0.43063 0.5804,0.7413 l -0.91955,1.7108405 -1.32171,1.3065 -1.69345,0.93477 -1.82391,0.41956 -3.59123,0.27391 v 36.44075 h 69.82503 v -2.49997 l -55.23614,-0.002 c -1.53078,-0.15089 -1.94233,-0.98067 -2.06516,-1.98473 V 0.03190355 h -1.11306 c 0,0 -0.16536,0.58043 -0.4043,0.59347 -0.23966,0.0129 -0.22763,-0.53646 -0.46741,-0.54782 -0.25661,-0.0121 -0.29771,0.54157 -0.55432,0.53695 -0.25253,-0.005 -0.2715,-0.55791 -0.5239,-0.54782 -0.236,0.009 -0.214,0.53898 -0.45,0.54782 -0.24975,0.009 -0.26927,-0.54353 -0.51957,-0.5413 -0.241,0.002 -0.2511,0.54894 -0.4913,0.53043 -0.23305,-0.0178 -0.39131,-0.5826 -0.39131,-0.5826 z m 3.51517,11.92156045 c 0.23798,0.008 0.42694,0.0749 0.45218,0.33913 v 17.2106 c -0.0261,0.30364 -0.11051,0.53955 -0.37174,0.56521 h -7.67814 c -0.206,-0.0589 -0.43115,-0.0876 -0.45218,-0.43695 l 0.0174,-13.93674 c 0.0652,-0.21567 0.2087,-0.36953 0.46741,-0.43478 l 2.01737,-0.0652 2.06302,-0.66085 1.77603,-0.98477 z m -7.64772,18.83449 h 7.68685 c 0.23052,0.0661 0.44873,0.146 0.41087,0.48043 v 16.27584 c 0.0303,0.19023 -0.0914,0.36405 -0.36523,0.5239 h -7.6542 c -0.18194,-0.0623 -0.35177,-0.14504 -0.44347,-0.38693 v -16.39107 c -0.0345,-0.20997 0.0657,-0.38337 0.36518,-0.50217 z"
     inkscape:label="profile_right" />
  <path
     style="fill:#5e5e5e;fill-rule:evenodd;stroke:#000000;stroke-width:0.0301566"
     d="m 53.500257,3.7701885 c 0.0071,-0.3527956 0.266,-0.6551919 0.494085,-0.9637727 0.536936,-0.7277017 1.175026,-1.4014515 2.055645,-1.94585095 0.86434,-0.4567501 1.782536,-0.71155598 2.738827,-0.82348002 L 59.673297,0.04328112 122.0308,4.49486 121.79354,7.7642958 65.641965,3.6879388 c -0.06543,0 -0.423566,0.1093348 -0.40564,0.2470561 0.018,0.1381328 -0.0032,0.4178433 -0.0032,0.4178433 0,0 0.324328,1.1747841 0.387337,1.7780999 0.03396,0.325594 0.0071,0.6549825 -0.0062,0.9820709 -0.02951,0.7265495 -0.414822,1.5064077 -0.451384,2.0861511 -0.01121,0.1751408 0.384283,0.3598859 0.384283,0.3598859 l 29.426391,-0.017704 29.593128,2.117803 c -0.003,-0.02921 0.23341,0.04075 0.30194,0.448575 0.0505,0.299686 -0.10357,0.905781 -0.10357,0.905781 0,0 -1.08312,0.200372 -1.55277,-0.01711 -0.21837,-0.10125 -0.23224,-0.546967 -0.47307,-0.54589 -0.25083,7.82e-4 -0.23726,0.565411 -0.48797,0.573381 -0.25733,0.0083 -0.27946,-0.564719 -0.53679,-0.555079 -0.25113,0.0094 -0.23077,0.574272 -0.4819,0.57948 -0.25761,0.0056 -0.26086,-0.56994 -0.51848,-0.57338 -0.24434,-0.0032 -0.26175,0.529884 -0.50626,0.530686 -0.25469,7.82e-4 -0.27623,-0.55682 -0.53072,-0.548989 -0.25673,0.008 -0.24345,0.588895 -0.50018,0.585584 -0.24877,-0.0032 -0.22103,-0.57499 -0.46968,-0.579486 -0.25349,-0.0047 -0.2467,0.56541 -0.50019,0.573389 -0.2774,0.0089 -0.30888,-0.612498 -0.58559,-0.591683 -0.2408,0.018 -0.18592,0.568978 -0.42698,0.585587 -0.24257,0.01682 -0.26323,-0.521703 -0.5063,-0.524594 -0.23726,-0.0032 -0.26913,0.505875 -0.50627,0.500192 -0.24021,-0.0056 -0.24789,-0.538324 -0.48801,-0.530686 -0.24552,0.0077 -0.21807,0.559803 -0.46356,0.57338 -0.28271,0.01564 -0.32098,-0.611492 -0.6039,-0.597782 -0.23519,0.01151 -0.216,0.538659 -0.4514,0.542886 -0.23165,0.0038 -0.23195,-0.512013 -0.46357,-0.518484 -0.2588,-0.0071 -0.29009,0.549722 -0.549,0.548979 -0.25172,-7.17e-4 -0.27916,-0.543547 -0.53067,-0.536786 -0.24198,0.0062 -0.23992,0.540591 -0.48191,0.542895 -0.24906,0.0024 -0.25732,-0.556431 -0.50627,-0.548992 -0.24404,0.0071 -0.21955,0.558273 -0.4636,0.567284 -0.27178,0.01003 -0.28948,-0.603295 -0.56117,-0.591683 -0.25734,0.01092 -0.22428,0.599896 -0.48191,0.603886 -0.26677,0.0038 -0.25172,-0.613263 -0.51845,-0.609985 -0.24582,0.0032 -0.21779,0.56904 -0.4636,0.573381 -0.26647,0.0047 -0.25792,-0.608961 -0.52459,-0.603877 -0.26619,0.0047 -0.23401,0.618212 -0.5002,0.622179 -0.25674,0.0038 -0.24346,-0.585702 -0.50019,-0.585584 -0.25378,1.15e-4 -0.24021,0.576162 -0.49408,0.579487 -0.24316,0.0032 -0.24464,-0.539963 -0.48797,-0.542886 -0.24582,-0.0032 -0.26028,0.539873 -0.5063,0.53679 -0.26501,-0.0032 -0.26589,-0.596246 -0.53068,-0.591692 -0.25968,0.0047 -0.2405,0.5934 -0.50019,0.597788 -0.26204,0.0047 -0.26263,-0.593557 -0.52459,-0.585586 -0.24878,0.0077 -0.21513,0.568574 -0.4636,0.585586 -0.27268,0.01859 -0.31909,-0.586335 -0.59167,-0.567284 -0.24257,0.01682 -0.20805,0.567986 -0.45138,0.573381 -0.25231,0.0056 -0.24198,-0.568281 -0.49408,-0.573381 -0.25616,-0.0056 -0.26855,0.566003 -0.52461,0.561188 -0.24198,-0.0047 -0.23371,-0.545367 -0.47578,-0.548992 -0.24316,-0.0038 -0.25113,0.529276 -0.49408,0.536787 -0.28181,0.0086 -0.32922,-0.610219 -0.61,-0.585584 -0.22309,0.01947 -0.17352,0.521771 -0.3965,0.542883 -0.252009,0.0239 -0.302848,-0.540738 -0.555066,-0.518485 -0.253192,0.02243 -0.203622,0.597757 -0.457492,0.609986 -0.283303,0.01357 -0.29068,-0.648791 -0.573378,-0.628287 -0.242274,0.0177 -0.166429,0.582783 -0.408674,0.603885 -0.259403,0.02243 -0.282713,-0.567789 -0.542898,-0.561185 -0.256437,0.0062 -0.249946,0.584572 -0.506295,0.579487 -0.255847,-0.0047 -0.226046,-0.58905 -0.481894,-0.597788 -0.260288,-0.0089 -0.27032,0.574138 -0.530682,0.573389 -0.259093,-7.41e-4 -0.265584,-0.581095 -0.524589,-0.573389 -0.235488,0.0071 -0.210113,0.534864 -0.445276,0.54899 -0.268536,0.01593 -0.311069,-0.576881 -0.579486,-0.561187 -0.256732,0.01505 -0.230767,0.595696 -0.487972,0.597782 -0.25539,0.0024 -0.238896,-0.575537 -0.494094,-0.585585 -0.245668,-0.0097 -0.272725,0.531843 -0.518481,0.524589 -0.221768,-0.0062 -0.217313,-0.499807 -0.439184,-0.500191 -0.257869,-4.42e-4 -0.254564,0.577708 -0.512388,0.57949 -0.272061,0.0016 -0.277018,-0.610157 -0.548991,-0.603888 -0.261321,0.0062 -0.238822,0.600819 -0.500187,0.603888 -0.266618,0.0032 -0.258031,-0.61083 -0.52459,-0.603888 -0.247615,0.0062 -0.209847,0.58069 -0.457492,0.585585 -0.26107,0.0056 -0.245166,-0.599481 -0.50628,-0.597782 -0.255641,0.0016 -0.232626,0.579449 -0.487987,0.591683 -0.275734,0.01328 -0.309888,-0.599412 -0.585578,-0.585584 -0.243898,0.01239 -0.219703,0.555047 -0.4636,0.567282 -0.258474,0.01298 -0.290311,-0.557006 -0.548991,-0.548979 -0.254844,0.008 -0.251392,0.579909 -0.50628,0.57338 -0.241567,-0.0062 -0.210084,-0.554315 -0.451385,-0.567284 -0.242628,-0.01298 -0.26939,0.519148 -0.512388,0.518484 -0.253044,-6.87e-4 -0.2778,-0.552142 -0.530697,-0.542883 -0.255228,0.0094 -0.238675,0.584929 -0.494079,0.585584 -0.253841,6.58e-4 -0.240269,-0.576081 -0.49408,-0.579486 -0.24617,-0.0032 -0.24791,0.549746 -0.494095,0.54899 -0.244841,-7.58e-4 -0.243248,-0.555651 -0.487986,-0.54899 -0.254579,0.0071 -0.221208,0.590373 -0.475786,0.597788 -0.261956,0.0077 -0.262516,-0.583819 -0.524589,-0.585583 -0.24319,-0.0016 -0.25092,0.53313 -0.49408,0.536785 -0.25303,0.0038 -0.524515,-0.567269 -0.530697,-0.542885 -0.0059,0.02449 -0.26408,0.585235 -0.524574,0.57948 -0.245432,-0.0056 -0.224247,-0.56281 -0.469693,-0.567284 -0.250537,-0.0047 -0.249622,0.557704 -0.500188,0.561185 -0.243071,0.0032 -0.257145,-0.5257 -0.500187,-0.530686 -0.250124,-0.0056 -0.286741,0.533371 -0.53679,0.524589 -0.244694,-0.0086 -0.243278,-0.541087 -0.487987,-0.548991 -0.248618,-0.008 -0.282019,0.531026 -0.530682,0.524592 -0.250359,-0.0062 -0.255906,-0.559623 -0.506295,-0.555088 -0.245196,0.0047 -0.230708,0.552504 -0.475771,0.561186 -0.252912,0.0089 -0.277727,-0.549577 -0.530697,-0.542883 -0.246288,0.0062 -0.241626,0.556304 -0.487987,0.555088 -0.252277,-0.0016 -0.241802,-0.575742 -0.49408,-0.573391 -0.248353,0.0024 -0.22758,0.564691 -0.4758,0.573391 -0.252956,0.0089 -0.271516,-0.543995 -0.524575,-0.548992 -0.257352,-0.0056 -0.297908,0.54721 -0.555098,0.536787 -0.246164,-0.01003 -0.241913,-0.567152 -0.487978,-0.555088 -0.240091,0.0118 -0.181573,0.562942 -0.42089,0.585585 -0.270605,0.02567 -0.320414,-0.57856 -0.591689,-0.561187 -0.240858,0.01534 -0.216158,0.558523 -0.45748,0.561187 -0.253815,0.0032 -0.24027,-0.577192 -0.494095,-0.57948 -0.257827,-0.0024 -0.254552,0.576553 -0.512388,0.57948 -0.260394,0.0032 -0.524503,-0.597764 -0.530679,-0.57338 -0.0062,0.02449 -0.241656,0.550534 -0.487987,0.555088 -0.263168,0.0047 -0.27984,-0.582682 -0.542894,-0.573391 -0.249771,0.0089 -0.225898,0.574264 -0.475783,0.579487 -0.256264,0.0056 -0.256087,-0.576036 -0.512387,-0.573389 -0.243693,0.0024 -0.232272,0.545733 -0.475789,0.555088 -0.25287,0.0097 -0.283914,-0.545804 -0.536787,-0.536787 -0.242009,0.0086 -0.233659,0.544984 -0.475783,0.548992 -0.263256,0.0047 -0.27388,-0.594011 -0.536788,-0.57949 -0.242394,0.01328 -0.190546,0.574841 -0.433089,0.585586 -0.263316,0.01151 -0.261014,-0.591252 -0.524584,-0.591683 -0.25346,-4.13e-4 -0.252988,0.558642 -0.506288,0.567284 -0.250036,0.0086 -0.286983,-0.538558 -0.536786,-0.524592 -0.243809,0.01357 -0.219582,0.557549 -0.46359,0.567294 -0.281642,0.01121 -0.304066,-0.623743 -0.585583,-0.609986 -0.255968,0.01239 -0.219612,0.596609 -0.475793,0.603879 -0.257737,0.0071 -0.254639,-0.58617 -0.512387,-0.57948 -0.241566,0.0062 -0.209962,0.556728 -0.451384,0.567284 -0.277304,0.0121 -0.296252,-0.619525 -0.573388,-0.603885 -0.249298,0.01416 -0.451384,0.597789 -0.451384,0.597789 0,0 -1.597188,-0.04591 -2.394214,-0.0983 -1.315492,-0.08644 -2.472528,-0.698915 -3.411775,-1.54414 C 54.360454,10.86006 53.557749,9.4724692 53.557749,9.4724692 L 53.540636,9.1705391 53.773557,9.006643 56.689302,8.7651046 c 1.068194,0.8909708 2.430177,1.5175934 4.019947,0.8540247 0.77387,-0.3230136 1.315106,-0.8935142 1.55276,-1.863315 C 62.44553,7.0068608 62.607427,6.1398195 62.356919,5.3921539 62.10765,4.6482091 61.630847,3.9094042 60.864538,3.5719665 59.746898,3.0798253 58.584317,3.0168253 57.379441,3.7272468 57.126572,3.8763308 57.05633,4.0726409 56.887727,4.2275848 L 56.603046,4.2793538 53.71318,4.0378153 Z"
     id="compensator_left"
     sodipodi:nodetypes="ccccccccscssscccscsssssssssssssssssssasssssssssssssssssssssssssaaaaasssssssaaasssssssssssssssssssssssssssssssssssssasssssssssssssssssssssssssscssccccssasscccc"
     inkscape:label="compensator_left">
    <title
       id="title11">metal</title>
  </path>
  <path
     style="fill:#5e5e5e;fill-rule:evenodd;stroke:#000000;stroke-width:0.0301566"
     d="m 156.74128,9.3738141 c -0.006,0.3527942 -0.26589,0.6551909 -0.49409,0.9637679 -0.53693,0.727704 -1.17502,1.401456 -2.05565,1.945853 -0.86434,0.456748 -1.78254,0.711557 -2.73883,0.823481 l -0.88447,-0.0062 -62.3575,-4.4515788 0.237229,-3.2694359 56.151561,4.0763585 c 0.0655,0 0.42359,-0.1093053 0.40564,-0.2470561 -0.0177,-0.1381033 0.003,-0.4178418 0.003,-0.4178418 0,0 -0.3243,-1.1747842 -0.38734,-1.7781 -0.0339,-0.3255939 -0.006,-0.6549809 0.006,-0.9820738 0.0295,-0.7265466 0.41483,-1.5064047 0.45138,-2.086151 0.0118,-0.1751394 -0.38427,-0.3598831 -0.38427,-0.3598831 L 115.2674,3.6026617 85.674232,1.484858 c 0.003,0.029211 -0.233334,-0.040748 -0.301921,-0.4485725 -0.05031,-0.29968613 0.103567,-0.90578138 0.103567,-0.90578138 0,0 1.08311,-0.20037154 1.552758,0.0171135 0.218464,0.1012502 0.232302,0.54696796 0.473072,0.54588951 0.250979,-7.8191e-4 0.23714,-0.56540928 0.487987,-0.57338035 0.257263,-0.008262 0.27957,0.56472326 0.536789,0.55507919 0.251038,-0.009442 0.230709,-0.57426996 0.481879,-0.57947779 0.257618,-0.0056062 0.260834,0.56993699 0.518496,0.57338036 0.244458,0.003246 0.261808,-0.52988246 0.506281,-0.53068798 0.25452,-7.8043e-4 0.276295,0.55682006 0.530682,0.54899061 0.256585,-0.007967 0.243514,-0.58889761 0.500187,-0.58558703 0.248619,0.003246 0.22109,0.57498992 0.469693,0.57948665 0.253576,0.004721 0.246671,-0.56540633 0.500188,-0.57338626 0.277357,-0.0088518 0.30887,0.6124966 0.585578,0.59168004 0.240888,-0.0179987 0.186007,-0.56897509 0.426998,-0.58558408 0.242451,-0.01681848 0.263283,0.52170189 0.50628,0.52459053 0.2372,0.003246 0.26914,-0.50587481 0.506266,-0.50019046 0.240224,0.005606 0.247896,0.53832268 0.488016,0.53068798 0.245521,-0.007672 0.218065,-0.55980313 0.4636,-0.57338036 0.282698,-0.01563824 0.320968,0.61149044 0.603857,0.59777895 0.235194,-0.0115074 0.216,-0.53865904 0.4514,-0.54288136 0.231947,-0.003836 0.231947,0.51200913 0.46357,0.51848277 0.258813,0.007081 0.290089,-0.54972236 0.549005,-0.54898176 0.251717,7.17e-4 0.279158,0.54354673 0.530682,0.53678541 0.24198,-0.006196 0.239915,-0.54058875 0.481894,-0.5428917 0.249061,-0.00236 0.257323,0.55643205 0.506266,0.54898913 0.244045,-0.007081 0.219555,-0.55827175 0.4636,-0.56728144 0.271781,-0.01003208 0.289484,0.60329217 0.561191,0.59168299 0.257323,-0.0109173 0.224261,-0.59989897 0.481897,-0.60388819 0.26676,-0.0038358 0.25171,0.61326376 0.51848,0.60998415 0.24581,-0.003246 0.21778,-0.56904 0.46357,-0.57338035 0.26676,-0.004721 0.25791,0.60896029 0.52459,0.60387934 0.26619,-0.004721 0.23401,-0.61821488 0.5002,-0.62218198 0.25673,-0.0038358 0.24345,0.58570211 0.50019,0.58558703 0.25378,-1.1802e-4 0.24021,-0.5761613 0.49408,-0.57948664 0.24316,-0.003246 0.24463,0.53996174 0.488,0.54288284 0.24581,0.003246 0.26027,-0.53987027 0.50626,-0.53678688 0.26501,0.003246 0.2659,0.59624316 0.53072,0.59169332 0.25968,-0.004721 0.2405,-0.59340172 0.50015,-0.59778928 0.26205,-0.004721 0.26264,0.59355368 0.52461,0.5855826 0.24876,-0.007672 0.21511,-0.56857086 0.46358,-0.5855826 0.27268,-0.01858885 0.31913,0.58633354 0.59167,0.56728144 0.24259,-0.0168185 0.20835,-0.56798664 0.45139,-0.57338183 0.25231,-0.0056062 0.24198,0.56828613 0.49411,0.57338183 0.25586,0.005606 0.26855,-0.56600383 0.52457,-0.56118548 0.24228,0.004721 0.23372,0.54536873 0.47579,0.54898913 0.24316,0.003836 0.25112,-0.52927315 0.49411,-0.5367854 0.28183,-0.008557 0.32918,0.6102202 0.60996,0.58558555 0.22339,-0.019474 0.17353,-0.52177122 0.39651,-0.54288579 0.25201,-0.0239 0.30288,0.54073775 0.55506,0.51848719 0.2532,-0.0224246 0.20363,-0.59775977 0.4575,-0.60998563 0.2833,-0.01357281 0.29068,0.64878764 0.57337,0.62828827 0.24228,-0.0177037 0.16643,-0.58278395 0.40872,-0.60388967 0.25939,-0.02242464 0.2827,0.5677919 0.54286,0.56118548 0.25643,-0.006196 0.24994,-0.58456907 0.50629,-0.57948664 0.25586,0.004721 0.22605,0.589054 0.48189,0.59778781 0.26029,0.008852 0.27033,-0.57413572 0.53069,-0.57338626 0.25909,7.406e-4 0.26558,0.58109473 0.52459,0.57338626 0.23548,-0.007081 0.21011,-0.53486456 0.44527,-0.54898766 0.26854,-0.0162284 0.31107,0.5768783 0.57952,0.561184 0.25673,-0.0150481 0.23076,-0.59569582 0.48797,-0.59777895 0.25526,-0.0023605 0.23903,0.57553578 0.49408,0.58558261 0.24552,0.009737 0.27268,-0.53184314 0.5185,-0.52458906 0.22191,0.006196 0.21719,0.49980688 0.43918,0.50019046 0.25793,4.4554e-4 0.25468,-0.57770595 0.51239,-0.57948665 0.27207,-0.0016228 0.27709,0.61015677 0.54899,0.60388525 0.26117,-0.006196 0.23873,-0.60081514 0.50017,-0.60388525 0.26677,-0.0032457 0.25821,0.61082656 0.52459,0.60388525 0.24759,-0.006196 0.20982,-0.58068755 0.45749,-0.58558261 0.26116,-0.0056062 0.24523,0.59948293 0.5063,0.59777895 0.25555,-0.001623 0.23253,-0.57944828 0.48797,-0.59168299 0.27563,-0.01327775 0.30989,0.59941212 0.58559,0.58558703 0.24405,-0.0123926 0.21956,-0.55504968 0.4636,-0.56728439 0.2585,-0.0129827 0.29039,0.55700889 0.54898,0.54898176 0.25496,-0.007967 0.25142,-0.57990859 0.50629,-0.57338036 0.24169,0.0061963 0.21012,0.55431499 0.45139,0.56728144 0.24257,0.0129827 0.26942,-0.51914813 0.51237,-0.51848424 0.25319,6.8749e-4 0.2777,0.55214628 0.53071,0.54288579 0.25526,-0.009442 0.23874,-0.58493199 0.49408,-0.58558703 0.25378,-6.5503e-4 0.24021,0.57608459 0.49408,0.57948665 0.24611,0.003246 0.24788,-0.54974597 0.49408,-0.54898766 0.24493,7.5535e-4 0.24316,0.55564866 0.488,0.54898766 0.25469,-0.007081 0.22133,-0.5903685 0.47579,-0.59778781 0.26206,-0.0076716 0.26265,0.58382109 0.52457,0.58558556 0.24316,0.001623 0.25083,-0.53313256 0.49411,-0.53678541 0.2529,-0.003836 0.52452,0.56726669 0.53068,0.54288284 0.006,-0.0244901 0.26411,-0.58523296 0.52459,-0.57947779 0.24552,0.0056062 0.22428,0.56280832 0.46968,0.56728144 0.25054,0.004721 0.24965,-0.55770228 0.50019,-0.56118548 0.24316,-0.0032457 0.25703,0.52569997 0.50019,0.53068945 0.25025,0.005606 0.28684,-0.5333745 0.53679,-0.52458906 0.24463,0.008557 0.24316,0.54108592 0.48797,0.54898766 0.24876,0.007967 0.28212,-0.53102287 0.53071,-0.52458906 0.25024,0.006196 0.25585,0.55962313 0.50627,0.55508804 0.24522,-0.004721 0.23076,-0.55250331 0.47578,-0.56118695 0.2529,-0.008852 0.27768,0.54957483 0.5307,0.54288432 0.24611,-0.006196 0.24168,-0.55630665 0.48799,-0.55508805 0.2523,0.001623 0.24168,0.57573937 0.49408,0.57339068 0.24847,-0.00236 0.22752,-0.56469375 0.47578,-0.57339068 0.2529,-0.008852 0.27149,0.54399227 0.52459,0.54898913 0.25732,0.005606 0.29791,-0.54720844 0.55508,-0.5367854 0.24611,0.0100321 0.24198,0.56715014 0.48801,0.55508657 0.2402,-0.0118025 0.18149,-0.56293962 0.42087,-0.58558261 0.2706,-0.02567031 0.32041,0.5785572 0.5917,0.56118401 0.2408,-0.0153432 0.2163,-0.55852256 0.45748,-0.56118401 0.2538,-0.0032457 0.24021,0.57719107 0.49409,0.57947779 0.25792,0.00236 0.25467,-0.57655078 0.51238,-0.57947779 0.26057,-0.0032457 0.5245,0.5977642 0.53066,0.57338036 0.006,-0.0244901 0.24169,-0.55053673 0.48802,-0.55508805 0.26322,-0.004721 0.27975,0.58268068 0.54288,0.57339068 0.24965,-0.008852 0.22575,-0.57426406 0.47579,-0.57948664 0.25614,-0.005606 0.25614,0.57603443 0.51239,0.57338626 0.24375,-0.00236 0.23223,-0.54573314 0.47578,-0.55508657 0.2529,-0.009737 0.28388,0.54580394 0.53678,0.5367854 0.24198,-0.008557 0.23372,-0.54498368 0.47578,-0.54898913 0.26323,-0.004721 0.27385,0.59400955 0.53679,0.57948664 0.24228,-0.0132777 0.19063,-0.5748409 0.43311,-0.5855826 0.26324,-0.01150738 0.26088,0.5912522 0.52457,0.59168004 0.25349,4.1604e-4 0.2529,-0.55863763 0.5063,-0.56728144 0.24995,-0.008557 0.28712,0.53855725 0.53679,0.52458906 0.24375,-0.0135728 0.21954,-0.55754591 0.46358,-0.5672903 0.28154,-0.01121232 0.30408,0.6237399 0.58557,0.60998268 0.25586,-0.0123926 0.21955,-0.59660756 0.47581,-0.60387639 0.25764,-0.0070815 0.25469,0.58616978 0.51239,0.57947779 0.24169,-0.006196 0.21011,-0.55672563 0.45139,-0.56728144 0.27738,-0.0120975 0.29624,0.61952495 0.57336,0.60388524 0.24937,-0.0141629 0.45138,-0.59778928 0.45138,-0.59778928 0,0 1.5972,0.0459115 2.39423,0.0982996 1.31549,0.0864381 2.47252,0.69891556 3.41176,1.54414011 0.58619,0.5274881 1.38888,1.915082 1.38888,1.915082 l 0.0177,0.3019272 -0.23283,0.1638975 -2.91574,0.241537 c -1.06819,-0.8909708 -2.4302,-1.5175934 -4.01994,-0.8540247 -0.77387,0.3230166 -1.3151,0.8935172 -1.55277,1.8633165 -0.18356,0.7489549 -0.34542,1.6159933 -0.095,2.3636618 0.24935,0.7439419 0.72608,1.4827468 1.49239,1.8201845 1.11763,0.492141 2.28023,0.555141 3.48511,-0.1552803 0.2529,-0.1490826 0.32311,-0.3453911 0.49169,-0.500338 l 0.28476,-0.051754 2.88988,0.241537 z"
     id="compensator_right"
     sodipodi:nodetypes="ccccccccscssscccscsssssssssssssssssssasssssssssssssssssssssssssaaaaasssssssaaasssssssssssssssssssssssssssssssssssssasssssssssssssssssssssssssscssccccssasscccc"
     inkscape:label="compensator_right">
    <title
       id="title10">metal</title>
  </path>
</svg>
