<?xml version="1.0" encoding="UTF-8" standalone="no"?>
<!-- Created with Inkscape (http://www.inkscape.org/) -->

<svg
   width="210mm"
   height="297mm"
   viewBox="0 0 210 297"
   version="1.1"
   id="svg1"
   inkscape:version="1.4 (86a8ad7, 2024-10-11)"
   sodipodi:docname="DSHA-0-105.svg"
   xmlns:inkscape="http://www.inkscape.org/namespaces/inkscape"
   xmlns:sodipodi="http://sodipodi.sourceforge.net/DTD/sodipodi-0.dtd"
   xmlns="http://www.w3.org/2000/svg"
   xmlns:svg="http://www.w3.org/2000/svg">
  <sodipodi:namedview
     id="namedview1"
     pagecolor="#ffffff"
     bordercolor="#000000"
     borderopacity="0.25"
     inkscape:showpageshadow="2"
     inkscape:pageopacity="0.0"
     inkscape:pagecheckerboard="0"
     inkscape:deskcolor="#d1d1d1"
     inkscape:document-units="mm"
     inkscape:zoom="0.74016561"
     inkscape:cx="264.13008"
     inkscape:cy="56.068533"
     inkscape:window-width="2560"
     inkscape:window-height="1377"
     inkscape:window-x="-8"
     inkscape:window-y="-8"
     inkscape:window-maximized="1"
     inkscape:current-layer="svg1" />
  <defs
     id="defs1" />
  <path
     style="fill:#5e5e5e;fill-rule:evenodd;stroke:#000000;stroke-width:0.0422391"
     d="m -34.158699,4.0815784 v -1.267873 l 18.74939,-2.63095996 c 0,0 0.202693,0.46797 0.412042,0.475456 0.238952,0.0091 0.268268,-0.508976 0.507234,-0.507162 0.250324,6.46e-4 0.272947,0.546611 0.52306,0.53885 0.243236,-0.0083 0.232119,-0.543599 0.475471,-0.554708 0.257544,-0.01267 0.297497,0.556483 0.554624,0.538866 0.214093,-0.0146 0.183149,-0.482916 0.396288,-0.507177 0.250171,-0.027 0.335965,0.501505 0.586413,0.475475 0.216487,-0.0223 0.194169,-0.505499 0.412028,-0.507164 0.255007,-6.55e-4 0.236461,0.581979 0.491353,0.586402 0.245133,0.0011 0.246489,-0.536235 0.491309,-0.546753 0.227958,-0.0091 0.271393,0.475746 0.499211,0.467515 0.2373428,-0.0091 0.2461098,-0.521949 0.4835257,-0.523034 0.2466381,-6.52e-4 0.2603431,0.539037 0.50708,0.53889 0.2392091,-9.2e-5 0.2537171,-0.497859 0.491366,-0.52302 0.405824,-0.04287 0.5982111,0.698328 1.0063961,0.697384 0.386996,-6.56e-4 0.566758,-0.71129 0.950904,-0.665695 0.241444,0.02694 0.239846,0.539323 0.483322,0.546813 0.254108,0.0083 0.284873,-0.541953 0.538866,-0.538853 0.229974,6.52e-4 0.245973,0.497343 0.475398,0.499217 0.233671,6.27e-4 0.258295,-0.508166 0.491382,-0.499217 0.220982,0.0091 0.207251,0.497792 0.427962,0.507146 0.250185,0.01273 0.280758,-0.531887 0.530982,-0.530937 0.244889,6.46e-4 0.270754,0.53009 0.515132,0.523008 0.228387,-0.0056 0.223849,-0.503338 0.451706,-0.515055 0.248377,-0.01322 0.298285,0.515825 0.546717,0.507151 0.231524,-0.0083 0.243796,-0.507151 0.475488,-0.507151 0.231774,0 0.243698,0.507151 0.4753588,0.507151 0.23182302,0 0.24421602,-0.497602 0.47574502,-0.507151 0.2595,-0.01273 0.319174,0.538848 0.578296,0.522984 0.233644,-0.01453 0.226055,-0.518139 0.459675,-0.530937 0.248157,-0.01359 0.298389,0.519123 0.546798,0.507162 0.22241298,-0.0093 0.22096598,-0.503444 0.44385498,-0.499209 0.232575,0.0011 0.211077,0.5322 0.443547,0.538816 0.237409,0.0055 0.246079,-0.524841 0.483546,-0.522978 0.237459,6.52e-4 0.237569,0.524375 0.475452,0.530914 0.25759,0.0055 0.289056,-0.555607 0.546684,-0.546752 0.245233,0.0091 0.238294,0.554417 0.483579,0.554691 0.252589,2.25e-4 0.246675,-0.565064 0.499173,-0.570579 0.244786,-0.0055 0.262536,0.530262 0.507246,0.530943 0.216514,6.04e-4 0.234903,-0.463906 0.451745,-0.467546 0.227984,-0.0011 0.263144,0.476452 0.491073,0.475475 0.241044,-6.34e-4 0.274335,-0.51017 0.515188,-0.507146 0.216403,6.52e-4 0.235209,0.457207 0.451589,0.467515 0.239677,0.01288 0.307382,-0.483706 0.547053,-0.467515 0.229325,0.01506 0.229277,0.510442 0.459449,0.515059 0.224218,0.0011 0.243792,-0.473672 0.467621,-0.483388 0.213234,-0.0091 0.270334,0.425713 0.483219,0.420004 0.224238,-0.0055 0.259351,-0.472989 0.483618,-0.467513 0.235179,0.0055 0.247961,0.515055 0.483207,0.515055 0.235583,0 0.248297,-0.507787 0.4835494,-0.515055 0.246716,-0.0083 0.292706,0.52062 0.538847,0.507151 0.23573,-0.0132 0.223816,-0.529515 0.459532,-0.538879 0.250142,-0.0091 0.280827,0.536912 0.531065,0.530937 0.235273,-0.0055 0.23974,-0.519935 0.475451,-0.52302 0.263088,-6.55e-4 0.283214,0.57503 0.546627,0.570563 0.237493,-0.0011 0.237907,-0.530914 0.475488,-0.530914 0.237479,0 0.237874,0.528074 0.475799,0.530914 0.23884,6.53e-4 0.252584,-0.504363 0.490999,-0.522999 0.403568,-0.03065 0.554348,0.743215 0.958968,0.744862 0.422059,6.55e-4 0.585577,-0.80309 1.006491,-0.768615 0.245698,0.02097 0.260378,0.542543 0.506993,0.538816 0.247156,-6.57e-4 0.24431,-0.554839 0.491386,-0.554704 0.243441,7.7e-5 0.239799,0.5478 0.483596,0.546785 0.241213,-6.41e-4 0.233411,-0.548493 0.475395,-0.546785 0.245301,6.31e-4 0.230207,0.554235 0.475414,0.56264 0.242555,0.0091 0.264436,-0.513164 0.507031,-0.522999 0.256211,-0.0091 0.324143,0.537374 0.578584,0.507144 0.218275,-0.02426 0.160343,-0.526052 0.380417,-0.53885 0.240702,-0.01448 0.241614,0.533174 0.483234,0.53885 0.259772,0.0055 0.287288,-0.544225 0.547026,-0.554708 0.39105,-0.01503 0.49789,0.750499 0.889171,0.76722 0.416936,0.01782 0.598767,-0.774389 1.014285,-0.734083 0.226202,0.02195 0.237472,0.499739 0.464972,0.498742 0.242945,-6.59e-4 0.249863,-0.532652 0.493212,-0.53793 0.256191,-0.0055 0.287263,0.55236 0.543447,0.543537 0.230631,-0.0083 0.223819,-0.514418 0.453948,-0.521121 0.245683,-0.0083 0.26996,0.533304 0.515515,0.526739 0.226178,-0.0055 0.222074,-0.503955 0.448105,-0.509967 0.230213,-0.0055 0.252562,0.485135 0.481886,0.493129 0.24978,0.0091 0.310544,-0.510442 0.560371,-0.498718 0.222278,0.01282 0.232,0.48354 0.453857,0.487516 0.232498,0.0011 0.260723,-0.495029 0.493203,-0.493117 0.239244,6.33e-4 0.25993,0.521852 0.49873,0.515531 0.227414,-0.0055 0.220527,-0.508866 0.448041,-0.515531 0.234761,-0.0055 0.258326,0.500527 0.493527,0.504319 0.248112,0.0011 0.289235,-0.516782 0.537665,-0.515503 0.240615,6.28e-4 0.275264,0.507101 0.515607,0.504301 0.214614,-6.53e-4 0.234259,-0.450442 0.448402,-0.459483 0.256239,-0.01262 0.327498,0.53346 0.582778,0.50429 0.220072,-0.02378 0.170736,-0.521853 0.392212,-0.537924 0.245321,-0.01782 0.269957,0.528241 0.515311,0.526734 0.232871,-6.48e-4 0.24931,-0.500354 0.482123,-0.504319 0.234721,-0.0011 0.269007,0.498386 0.504189,0.493116 0.234766,-0.0054 0.247169,-0.51156 0.481912,-0.515531 0.237902,-0.0011 0.266668,0.502984 0.504174,0.504319 0.230639,6.51e-4 0.263416,-0.481818 0.493201,-0.481904 0.218712,-4.7e-5 0.251699,0.456874 0.470753,0.459481 0.219229,6.57e-4 0.262605,-0.446877 0.481895,-0.448262 0.216947,-6.3e-4 0.264922,0.439937 0.481784,0.437068 0.237981,-6.55e-4 0.277675,-0.498287 0.515596,-0.493089 0.248313,0.0054 0.267634,0.545042 0.515582,0.537918 0.234811,-0.0055 0.224244,-0.53113 0.459419,-0.537918 0.253932,-0.0083 0.273107,0.553282 0.526615,0.549121 0.246508,-0.0011 0.247444,-0.546575 0.493217,-0.549121 0.240637,-6.63e-4 0.252995,0.526886 0.493183,0.526706 0.231021,-1.48e-4 0.240766,-0.500348 0.470791,-0.504319 0.237547,-0.0011 0.266375,0.502859 0.504156,0.504319 0.219254,6.51e-4 0.252604,-0.451802 0.47054,-0.45949 0.225229,-0.0083 0.290418,0.442531 0.515593,0.437067 0.234638,-0.0055 0.280316,-0.497174 0.51557,-0.481896 0.246545,0.01544 0.224276,0.571809 0.47084,0.571569 0.241502,-2.38e-4 0.218216,-0.553812 0.459429,-0.560379 0.237906,-0.0055 0.243421,0.524039 0.481803,0.526734 0.247996,6.38e-4 0.268505,-0.515325 0.51559,-0.537924 0.394511,-0.03614 0.567672,0.691513 0.963637,0.694836 0.418796,6.55e-4 0.616529,-0.776873 1.031128,-0.717223 0.242032,0.03494 0.214688,0.567489 0.459483,0.57155 0.246599,0.0011 0.234716,-0.548482 0.481839,-0.560347 0.247525,-0.01289 0.289475,0.525816 0.538032,0.515503 0.213238,-0.0091 0.211308,-0.471712 0.425644,-0.481904 0.234236,-0.01267 0.279825,0.484636 0.515613,0.481904 0.246047,-6.59e-4 0.280282,-0.523738 0.52687,-0.515503 0.234346,0.0083 0.234346,0.518701 0.470846,0.526715 0.224255,0.0083 0.256676,-0.468142 0.481788,-0.470702 0.231134,-6.27e-4 0.275399,0.478472 0.504194,0.470702 0.240737,-0.0083 0.253639,-0.532399 0.493206,-0.526715 0.231133,0.0055 0.217933,0.513814 0.448157,0.526715 0.252066,0.01447 0.298545,-0.523807 0.549251,-0.515531 0.231151,0.0083 0.240815,0.513105 0.47048,0.504319 0.214182,-0.0091 0.403614,-0.504319 0.403614,-0.504319 h 3.048031 v 0.773264 c 0,0 -1.431857,0.99685496 -1.949669,1.68106296 -0.410957,0.542315 -0.863113,1.84917 -0.863113,1.84917 0.04549,0.219401 0.186314,0.39691 0.437052,0.526739 h 3.373521 c 0.149754,-0.161797 0.297852,-0.311814 0.448424,-0.414704 1.267348,-1.228141 2.442421,-1.016951 3.496077,-0.504277 0.880519,0.428336 1.430723,1.690713 1.43483,2.566364 7.01e-4,0.853729 -0.391261,1.602579 -1.031113,2.084496 -0.871912,0.65487 -1.898888,0.803983 -2.891381,0.470702 -0.565826,-0.189877 -1.501984,-1.053434 -1.501984,-1.053434 h -3.249834 c 0,0 -0.390933,0.04715 -0.493206,0.190527 -0.109306,0.15203 -0.0056,0.560339 -0.0056,0.560339 0,0 1.192795,2.1227456 2.118055,2.8689556 0.886387,0.714824 3.115565,1.400896 3.115565,1.400896 l 0.952565,0.04481 2.947326,0.302632 v 2.364678 H 49.358661 V 4.0460314 Z"
     id="profile_left"
     sodipodi:nodetypes="cccssssssssssssssssssssssssssssssssssssssssssssssssssssssssssssssssssssssssssssssssssssssssssssssssssssssssssssssssssssssssssssssssscccsccccssssccscsccccccc"
     inkscape:label="profile_left" />
  <path
     style="fill:#5e5e5e;fill-rule:evenodd;stroke:#000000;stroke-width:0.0422391"
     d="M 243.64343,4.0815774 V 2.8137054 L 224.89411,0.18274544 c 0,0 -0.20314,0.467969 -0.41222,0.475455 -0.23893,0.0091 -0.26856,-0.508975 -0.50721,-0.507162 -0.25058,6.46e-4 -0.27305,0.546612 -0.52315,0.53885 -0.24299,-0.0083 -0.23253,-0.543599 -0.47542,-0.554707 -0.25634,-0.01267 -0.29697,0.556482 -0.55451,0.538865 -0.2133,-0.0146 -0.18625,-0.482915 -0.39758,-0.507176 -0.24954,-0.02701 -0.33622,0.501504 -0.58623,0.475475 -0.21664,-0.0223 -0.19486,-0.505499 -0.41232,-0.507164 -0.25488,-6.56e-4 -0.23512,0.581978 -0.49141,0.586401 -0.246,0.0011 -0.24649,-0.536235 -0.49143,-0.546752 -0.22821,-0.0091 -0.27119,0.475746 -0.49899,0.467515 -0.23568,-0.0091 -0.24678,-0.52195 -0.48382,-0.523034 -0.2465,-6.53e-4 -0.25803,0.539036 -0.50684,0.538889 -0.23965,-9.2e-5 -0.25381,-0.497858 -0.49137,-0.523019 -0.40638,-0.04287 -0.59832,0.698327 -1.00656,0.697384 -0.38734,-6.57e-4 -0.56664,-0.711291 -0.95092,-0.665695 -0.24048,0.02694 -0.23984,0.539322 -0.48342,0.546813 -0.25392,0.0083 -0.28422,-0.541954 -0.53901,-0.538853 -0.231,6.52e-4 -0.24611,0.497343 -0.47519,0.499216 -0.23342,6.27e-4 -0.25677,-0.508166 -0.49143,-0.499216 -0.22023,0.0091 -0.20916,0.497792 -0.42793,0.507145 -0.2504,0.01273 -0.27878,-0.531887 -0.53076,-0.530937 -0.24439,6.46e-4 -0.26988,0.53009 -0.51555,0.523008 -0.22898,-0.0056 -0.22365,-0.503338 -0.45135,-0.515055 -0.24795,-0.01321 -0.29767,0.515825 -0.54667,0.507151 -0.23194,-0.0083 -0.24286,-0.507151 -0.47544,-0.507151 -0.23234,0 -0.24276,0.507151 -0.47565,0.507151 -0.23248,0 -0.24395,-0.497601 -0.47555,-0.507151 -0.25752,-0.01273 -0.31826,0.538848 -0.57823,0.522984 -0.23336,-0.01453 -0.22698,-0.518138 -0.45982,-0.530937 -0.24798,-0.01359 -0.29769,0.519123 -0.54661,0.507162 -0.22328,-0.0093 -0.22029,-0.503444 -0.44403,-0.499209 -0.23286,0.0011 -0.21094,0.532201 -0.44376,0.538817 -0.23527,0.0055 -0.24626,-0.524841 -0.48324,-0.522978 -0.23569,6.52e-4 -0.23664,0.524374 -0.47507,0.530913 -0.2564,0.0055 -0.28892,-0.555607 -0.54736,-0.546752 -0.24591,0.0091 -0.23614,0.554417 -0.48321,0.554692 -0.25339,2.24e-4 -0.2472,-0.565064 -0.49963,-0.570579 -0.24289,-0.0055 -0.26175,0.530261 -0.50691,0.530942 -0.21647,6.05e-4 -0.2342,-0.463906 -0.45166,-0.467546 -0.22829,-0.0011 -0.26251,0.476452 -0.49142,0.475475 -0.24055,-6.33e-4 -0.27435,-0.51017 -0.51483,-0.507145 -0.21582,6.52e-4 -0.23394,0.457207 -0.45162,0.467515 -0.23954,0.01288 -0.30684,-0.483706 -0.54707,-0.467515 -0.23066,0.01506 -0.23066,0.510442 -0.45942,0.515058 -0.22457,0.0011 -0.24317,-0.473671 -0.46747,-0.483388 -0.21212,-0.0091 -0.26944,0.425713 -0.48372,0.420004 -0.22471,-0.0055 -0.25748,-0.472989 -0.4832,-0.467513 -0.23467,0.0055 -0.24817,0.515055 -0.48335,0.515055 -0.23426,0 -0.24742,-0.507786 -0.48347,-0.515055 -0.24664,-0.0083 -0.29171,0.52062 -0.53905,0.507151 -0.23419,-0.0132 -0.22419,-0.529515 -0.45933,-0.538879 -0.25059,-0.0091 -0.27902,0.536913 -0.531,0.530937 -0.23429,-0.0055 -0.23989,-0.519934 -0.47551,-0.523019 -0.26239,-6.56e-4 -0.28101,0.575029 -0.54698,0.570562 -0.23571,-0.0011 -0.2366,-0.530913 -0.47518,-0.530913 -0.23707,0 -0.23707,0.528073 -0.47571,0.530913 -0.23945,6.53e-4 -0.25356,-0.504363 -0.4913,-0.522998 -0.40434,-0.03065 -0.55413,0.743214 -0.9587,0.744861 -0.42211,6.55e-4 -0.58562,-0.803089 -1.00623,-0.768615 -0.24666,0.02097 -0.25928,0.542543 -0.50761,0.538817 -0.24705,-6.58e-4 -0.24397,-0.554839 -0.49142,-0.554704 -0.2431,7.7e-5 -0.24002,0.547799 -0.48324,0.546784 -0.24108,-6.4e-4 -0.23349,-0.548492 -0.4754,-0.546784 -0.24613,6.3e-4 -0.23152,0.554234 -0.47551,0.562639 -0.24158,0.0091 -0.26379,-0.513164 -0.50728,-0.522998 -0.25546,-0.0091 -0.32195,0.537373 -0.57864,0.507143 -0.21795,-0.02426 -0.16385,-0.526051 -0.38106,-0.53885 -0.24051,-0.01448 -0.24136,0.533174 -0.48321,0.53885 -0.25784,0.0055 -0.28749,-0.544225 -0.54725,-0.554707 -0.39239,-0.01503 -0.49835,0.750499 -0.88923,0.76722 -0.41694,0.01782 -0.59883,-0.77439 -1.01397,-0.734084 -0.22609,0.02195 -0.23701,0.499739 -0.46546,0.498743 -0.24273,-6.59e-4 -0.25009,-0.532652 -0.49296,-0.537931 -0.25532,-0.0055 -0.28738,0.55236 -0.54354,0.543537 -0.23145,-0.0083 -0.22421,-0.514418 -0.45411,-0.521121 -0.24587,-0.0083 -0.26901,0.533304 -0.51484,0.526739 -0.22634,-0.0055 -0.22079,-0.503955 -0.44866,-0.509967 -0.23101,-0.0055 -0.25295,0.485135 -0.48176,0.493129 -0.25046,0.0091 -0.31022,-0.510441 -0.5602,-0.498717 -0.2208,0.01282 -0.23277,0.483539 -0.45416,0.487515 -0.2324,0.0011 -0.25854,-0.495029 -0.49313,-0.493117 -0.23896,6.33e-4 -0.25766,0.521853 -0.49882,0.515532 -0.22876,-0.0055 -0.22155,-0.508866 -0.44803,-0.515532 -0.23414,-0.0055 -0.25667,0.500527 -0.49319,0.504319 -0.24792,0.0011 -0.28964,-0.516782 -0.538,-0.515502 -0.24019,6.27e-4 -0.27539,0.5071 -0.51554,0.5043 -0.2128,-6.53e-4 -0.23374,-0.450442 -0.44822,-0.459483 -0.2557,-0.01262 -0.32501,0.533461 -0.58265,0.504291 -0.22034,-0.02378 -0.17155,-0.521853 -0.39369,-0.537925 -0.24565,-0.01782 -0.26915,0.528241 -0.51486,0.526735 -0.23287,-6.48e-4 -0.24954,-0.500354 -0.48212,-0.50432 -0.23422,-0.0011 -0.26885,0.498387 -0.50484,0.493117 -0.234,-0.0054 -0.2469,-0.511561 -0.48139,-0.515532 -0.23696,-0.0011 -0.26682,0.502985 -0.50438,0.504319 -0.23102,6.51e-4 -0.26303,-0.481818 -0.49326,-0.481904 -0.21858,-4.6e-5 -0.25204,0.456875 -0.47069,0.459482 -0.2192,6.56e-4 -0.26216,-0.446877 -0.48195,-0.448263 -0.21678,-6.29e-4 -0.26466,0.439938 -0.48194,0.437068 -0.2358,-6.54e-4 -0.27685,-0.498286 -0.51537,-0.493088 -0.24791,0.0054 -0.26778,0.54504 -0.51553,0.537918 -0.23445,-0.0055 -0.22381,-0.531131 -0.45936,-0.537918 -0.25435,-0.0083 -0.27348,0.553281 -0.52704,0.549121 -0.24626,-0.0011 -0.24718,-0.546576 -0.49284,-0.549121 -0.24056,-6.64e-4 -0.25334,0.526886 -0.49325,0.526705 -0.23109,-1.47e-4 -0.24072,-0.500348 -0.4707,-0.504319 -0.23679,-0.0011 -0.26682,0.502859 -0.50459,0.504319 -0.21895,6.51e-4 -0.25264,-0.451801 -0.4705,-0.45949 -0.22549,-0.0083 -0.28999,0.442531 -0.5155,0.437068 -0.23402,-0.0055 -0.27882,-0.497175 -0.51538,-0.481897 -0.2466,0.01544 -0.22457,0.57181 -0.47079,0.57157 -0.24057,-2.39e-4 -0.21785,-0.553813 -0.45946,-0.56038 -0.23652,-0.0055 -0.2428,0.524039 -0.48211,0.526735 -0.24792,6.37e-4 -0.26818,-0.515326 -0.51525,-0.537925 -0.39546,-0.03614 -0.56777,0.691514 -0.96374,0.694837 -0.41876,6.55e-4 -0.61716,-0.776873 -1.03111,-0.717223 -0.2419,0.03494 -0.21444,0.567489 -0.45954,0.57155 -0.24632,0.0011 -0.23471,-0.548483 -0.48207,-0.560347 -0.24747,-0.01289 -0.28887,0.525816 -0.53801,0.515502 -0.21236,-0.0091 -0.21108,-0.471712 -0.42576,-0.481904 -0.23337,-0.01267 -0.27857,0.484637 -0.51528,0.481904 -0.24678,-6.59e-4 -0.27944,-0.523738 -0.52681,-0.515502 -0.2342,0.0083 -0.2342,0.5187 -0.47076,0.526715 -0.22512,0.0083 -0.25635,-0.468143 -0.48149,-0.470703 -0.23141,-6.26e-4 -0.27478,0.478472 -0.50478,0.470703 -0.24042,-0.0083 -0.25313,-0.532399 -0.493,-0.526715 -0.23135,0.0055 -0.21829,0.513814 -0.44846,0.526715 -0.25052,0.01447 -0.29712,-0.523807 -0.549,-0.515532 -0.23084,0.0083 -0.24062,0.513105 -0.47063,0.504319 -0.21536,-0.0091 -0.40431,-0.504319 -0.40431,-0.504319 h -3.04807 v 0.773265 c 0,0 1.43187,0.99685396 1.9496,1.68106096 0.41111,0.542317 0.86315,1.849171 0.86315,1.849171 -0.0462,0.219401 -0.18675,0.39691 -0.43701,0.52674 h -3.37349 c -0.15095,-0.161798 -0.29805,-0.311815 -0.44848,-0.414705 -1.26715,-1.22814 -2.44233,-1.016951 -3.49604,-0.504277 -0.88087,0.428337 -1.43068,1.690714 -1.43475,2.566364 -6.7e-4,0.853729 0.39045,1.60258 1.03118,2.084497 0.87178,0.654869 1.89835,0.803983 2.89136,0.470701 0.56567,-0.189876 1.50191,-1.053434 1.50191,-1.053434 h 3.24992 c 0,0 0.39176,0.04715 0.49297,0.190528 0.10788,0.15203 0.004,0.560338 0.004,0.560338 0,0 -1.19313,2.1227456 -2.11802,2.8689566 -0.88647,0.714823 -3.11558,1.400896 -3.11558,1.400896 l -0.95263,0.0448 -2.94757,0.302632 v 2.364671 h 12.28295 V 4.0460314 Z"
     id="profile_right"
     sodipodi:nodetypes="cccssssssssssssssssssssssssssssssssssssssssssssssssssssssssssssssssssssssssssssssssssssssssssssssssssssssssssssssssssssssssssssssssscccsccccssssccscsccccccc"
     inkscape:label="profile_right" />
  <rect
     style="fill:#ddd5d5;fill-opacity:0.768047;fill-rule:evenodd;stroke:#b81e1e;stroke-width:0.0184572"
     id="concrete_left"
     width="140.11058"
     height="49.982468"
     x="-90.812744"
     y="6.4095378" />
  <ellipse
     style="fill:#b4cdd0;fill-opacity:0;fill-rule:evenodd;stroke:#b81e1e;stroke-width:0.00016359"
     id="screw_left"
     cx="7.6238914"
     cy="-0.95641983"
     rx="0.049918205"
     ry="0.032774579"
     transform="scale(-1)"
     inkscape:label="screw_left" />
  <ellipse
     style="fill:#b4cdd0;fill-opacity:0;fill-rule:evenodd;stroke:#b81e1e;stroke-width:0.000455593"
     id="screw_right"
     cx="-217.01428"
     cy="0.96869695"
     rx="0.1390205"
     ry="0.091276094"
     transform="scale(-1,1)"
     inkscape:label="screw_right" />
  <rect
     style="fill:#e1ecec;fill-opacity:0.77;fill-rule:evenodd;stroke:#b81e1e;stroke-width:0.0126854"
     id="finish_left"
     width="140.11874"
     height="2.0309176"
     x="-90.836761"
     y="4.2668114"
     inkscape:label="finish_left" />
  <rect
     style="fill:#e1ecec;fill-opacity:0.77;fill-rule:evenodd;stroke:#b81e1e;stroke-width:0.0144776"
     id="cover_left"
     width="140.11621"
     height="0.12596738"
     x="-90.823479"
     y="4.0904512"
     inkscape:label="cover_left" />
  <rect
     style="fill:#ddd5d5;fill-opacity:0.768047;fill-rule:evenodd;stroke:#b81e1e;stroke-width:0.0184876"
     id="concrete_right"
     width="140.57491"
     height="49.982399"
     x="160.25896"
     y="6.3068304"
     inkscape:label="concrete_right" />
  <rect
     style="fill:#e1ecec;fill-opacity:0.77;fill-rule:evenodd;stroke:#b81e1e;stroke-width:0.0127064"
     id="finish_right"
     width="140.58311"
     height="2.0309153"
     x="160.23471"
     y="4.2639852"
     inkscape:label="finish_right" />
  <rect
     style="fill:#e1ecec;fill-opacity:0.77;fill-rule:evenodd;stroke:#b81e1e;stroke-width:0.0145015"
     id="cover_right"
     width="140.58055"
     height="0.12596722"
     x="160.24811"
     y="4.0876427"
     inkscape:label="cover_right" />
  <rect
     style="fill:#404242;fill-opacity:0.341246;fill-rule:evenodd;stroke:#b81e1e;stroke-width:0.0247487"
     id="shadow"
     width="316.43805"
     height="0.0084954519"
     x="-37.37669"
     y="56.224564"
     inkscape:label="shadow" />
  <path
     style="fill:#5e5e5e;fill-rule:evenodd;stroke:#000000;stroke-width:0.0301566"
     d="m 53.255287,3.7481885 c 0.0071,-0.3527956 0.266,-0.6551919 0.494085,-0.9637727 0.536936,-0.7277017 1.175026,-1.4014515 2.055645,-1.94585095 0.86434,-0.4567501 1.782536,-0.71155598 2.738827,-0.82348002 L 59.428327,0.02128112 121.78583,4.47286 121.54857,7.7422958 65.396995,3.6659388 c -0.06543,0 -0.423566,0.1093348 -0.40564,0.2470561 0.018,0.1381328 -0.0032,0.4178433 -0.0032,0.4178433 0,0 0.324328,1.1747841 0.387337,1.7780999 0.03396,0.325594 0.0071,0.6549825 -0.0062,0.9820709 -0.02951,0.7265495 -0.414822,1.5064077 -0.451384,2.0861511 -0.01121,0.1751408 0.384283,0.3598859 0.384283,0.3598859 l 29.426391,-0.017704 29.593128,2.117803 c -0.003,-0.02921 0.23341,0.04075 0.30194,0.448575 0.0505,0.299686 -0.10357,0.905781 -0.10357,0.905781 0,0 -1.08312,0.200372 -1.55277,-0.01711 -0.21837,-0.10125 -0.23224,-0.546967 -0.47307,-0.54589 -0.25083,7.82e-4 -0.23726,0.565411 -0.48797,0.573381 -0.25733,0.0083 -0.27946,-0.564719 -0.53679,-0.555079 -0.25113,0.0094 -0.23077,0.574272 -0.4819,0.57948 -0.25761,0.0056 -0.26086,-0.56994 -0.51848,-0.57338 -0.24434,-0.0032 -0.26175,0.529884 -0.50626,0.530686 -0.25469,7.82e-4 -0.27623,-0.55682 -0.53072,-0.548989 -0.25673,0.008 -0.24345,0.588895 -0.50018,0.585584 -0.24877,-0.0032 -0.22103,-0.57499 -0.46968,-0.579486 -0.25349,-0.0047 -0.2467,0.56541 -0.50019,0.573389 -0.2774,0.0089 -0.30888,-0.612498 -0.58559,-0.591683 -0.2408,0.018 -0.18592,0.568978 -0.42698,0.585587 -0.24257,0.01682 -0.26323,-0.521703 -0.5063,-0.524594 -0.23726,-0.0032 -0.26913,0.505875 -0.50627,0.500192 -0.24021,-0.0056 -0.24789,-0.538324 -0.48801,-0.530686 -0.24552,0.0077 -0.21807,0.559803 -0.46356,0.57338 -0.28271,0.01564 -0.32098,-0.611492 -0.6039,-0.597782 -0.23519,0.01151 -0.216,0.538659 -0.4514,0.542886 -0.23165,0.0038 -0.23195,-0.512013 -0.46357,-0.518484 -0.2588,-0.0071 -0.29009,0.549722 -0.549,0.548979 -0.25172,-7.17e-4 -0.27916,-0.543547 -0.53067,-0.536786 -0.24198,0.0062 -0.23992,0.540591 -0.48191,0.542895 -0.24906,0.0024 -0.25732,-0.556431 -0.50627,-0.548992 -0.24404,0.0071 -0.21955,0.558273 -0.4636,0.567284 -0.27178,0.01003 -0.28948,-0.603295 -0.56117,-0.591683 -0.25734,0.01092 -0.22428,0.599896 -0.48191,0.603886 -0.26677,0.0038 -0.25172,-0.613263 -0.51845,-0.609985 -0.24582,0.0032 -0.21779,0.56904 -0.4636,0.573381 -0.26647,0.0047 -0.25792,-0.608961 -0.52459,-0.603877 -0.26619,0.0047 -0.23401,0.618212 -0.5002,0.622179 -0.25674,0.0038 -0.24346,-0.585702 -0.50019,-0.585584 -0.25378,1.15e-4 -0.24021,0.576162 -0.49408,0.579487 -0.24316,0.0032 -0.24464,-0.539963 -0.48797,-0.542886 -0.24582,-0.0032 -0.26028,0.539873 -0.5063,0.53679 -0.26501,-0.0032 -0.26589,-0.596246 -0.53068,-0.591692 -0.25968,0.0047 -0.2405,0.5934 -0.50019,0.597788 -0.26204,0.0047 -0.26263,-0.593557 -0.52459,-0.585586 -0.24878,0.0077 -0.21513,0.568574 -0.4636,0.585586 -0.27268,0.01859 -0.31909,-0.586335 -0.59167,-0.567284 -0.24257,0.01682 -0.20805,0.567986 -0.45138,0.573381 -0.25231,0.0056 -0.24198,-0.568281 -0.49408,-0.573381 -0.25616,-0.0056 -0.26855,0.566003 -0.52461,0.561188 -0.24198,-0.0047 -0.23371,-0.545367 -0.47578,-0.548992 -0.24316,-0.0038 -0.25113,0.529276 -0.49408,0.536787 -0.28181,0.0086 -0.32922,-0.610219 -0.61,-0.585584 -0.22309,0.01947 -0.17352,0.521771 -0.396497,0.542883 -0.252012,0.0239 -0.302851,-0.540738 -0.555069,-0.518485 -0.253192,0.02243 -0.203622,0.597757 -0.457492,0.609986 -0.283303,0.01357 -0.29068,-0.648791 -0.573378,-0.628287 -0.242274,0.0177 -0.166429,0.582783 -0.408674,0.603885 -0.259403,0.02243 -0.282713,-0.567789 -0.542898,-0.561185 -0.256437,0.0062 -0.249946,0.584572 -0.506295,0.579487 -0.255847,-0.0047 -0.226046,-0.58905 -0.481894,-0.597788 -0.260288,-0.0089 -0.27032,0.574138 -0.530682,0.573389 -0.259093,-7.41e-4 -0.265584,-0.581095 -0.524589,-0.573389 -0.235488,0.0071 -0.210113,0.534864 -0.445276,0.54899 -0.268536,0.01593 -0.311069,-0.576881 -0.579486,-0.561187 -0.256732,0.01505 -0.230767,0.595696 -0.487972,0.597782 -0.25539,0.0024 -0.238896,-0.575537 -0.494094,-0.585585 -0.245668,-0.0097 -0.272725,0.531843 -0.518481,0.524589 -0.221768,-0.0062 -0.217313,-0.499807 -0.439184,-0.500191 -0.257869,-4.42e-4 -0.254564,0.577708 -0.512388,0.57949 -0.272061,0.0016 -0.277018,-0.610157 -0.548991,-0.603888 -0.261321,0.0062 -0.238822,0.600819 -0.500187,0.603888 -0.266618,0.0032 -0.258031,-0.61083 -0.52459,-0.603888 -0.247615,0.0062 -0.209847,0.58069 -0.457492,0.585585 -0.26107,0.0056 -0.245166,-0.599481 -0.50628,-0.597782 -0.255641,0.0016 -0.232626,0.579449 -0.487987,0.591683 -0.275734,0.01328 -0.309888,-0.599412 -0.585578,-0.585584 -0.243898,0.01239 -0.219703,0.555047 -0.4636,0.567282 -0.258474,0.01298 -0.290311,-0.557006 -0.548991,-0.548979 -0.254844,0.008 -0.251392,0.579909 -0.50628,0.57338 -0.241567,-0.0062 -0.210084,-0.554315 -0.451385,-0.567284 -0.242628,-0.01298 -0.26939,0.519148 -0.512388,0.518484 -0.253044,-6.87e-4 -0.2778,-0.552142 -0.530697,-0.542883 -0.255228,0.0094 -0.238675,0.584929 -0.494079,0.585584 -0.253841,6.58e-4 -0.240269,-0.576081 -0.49408,-0.579486 -0.24617,-0.0032 -0.24791,0.549746 -0.494095,0.54899 -0.244841,-7.58e-4 -0.243248,-0.555651 -0.487986,-0.54899 -0.254579,0.0071 -0.221208,0.590373 -0.475786,0.597788 -0.261956,0.0077 -0.262516,-0.583819 -0.524589,-0.585583 -0.24319,-0.0016 -0.25092,0.53313 -0.49408,0.536785 -0.25303,0.0038 -0.524515,-0.567269 -0.530697,-0.542885 -0.0059,0.02449 -0.26408,0.585235 -0.524574,0.57948 -0.245432,-0.0056 -0.224247,-0.56281 -0.469693,-0.567284 -0.250537,-0.0047 -0.249622,0.557704 -0.500188,0.561185 -0.243071,0.0032 -0.257145,-0.5257 -0.500187,-0.530686 -0.250124,-0.0056 -0.286741,0.533371 -0.53679,0.524589 -0.244694,-0.0086 -0.243278,-0.541087 -0.487987,-0.548991 -0.248618,-0.008 -0.282019,0.531026 -0.530682,0.524592 -0.250359,-0.0062 -0.255906,-0.559623 -0.506295,-0.555088 -0.245196,0.0047 -0.230708,0.552504 -0.475771,0.561186 -0.252912,0.0089 -0.277727,-0.549577 -0.530697,-0.542883 -0.246288,0.0062 -0.241626,0.556304 -0.487987,0.555088 -0.252277,-0.0016 -0.241802,-0.575742 -0.49408,-0.573391 -0.248353,0.0024 -0.22758,0.564691 -0.4758,0.573391 -0.252956,0.0089 -0.271516,-0.543995 -0.524575,-0.548992 -0.257352,-0.0056 -0.297908,0.54721 -0.555098,0.536787 -0.246164,-0.01003 -0.241913,-0.567152 -0.487978,-0.555088 -0.240091,0.0118 -0.181573,0.562942 -0.42089,0.585585 -0.270605,0.02567 -0.320414,-0.57856 -0.591689,-0.561187 -0.240858,0.01534 -0.216158,0.558523 -0.45748,0.561187 -0.253815,0.0032 -0.24027,-0.577192 -0.494095,-0.57948 -0.257827,-0.0024 -0.254552,0.576553 -0.512388,0.57948 -0.260394,0.0032 -0.524503,-0.597764 -0.530679,-0.57338 -0.0062,0.02449 -0.241656,0.550534 -0.487987,0.555088 -0.263168,0.0047 -0.27984,-0.582682 -0.542894,-0.573391 -0.249771,0.0089 -0.225898,0.574264 -0.475783,0.579487 -0.256264,0.0056 -0.256087,-0.576036 -0.512387,-0.573389 -0.243693,0.0024 -0.232272,0.545733 -0.475789,0.555088 -0.25287,0.0097 -0.283914,-0.545804 -0.536787,-0.536787 -0.242009,0.0086 -0.233659,0.544984 -0.475783,0.548992 -0.263256,0.0047 -0.27388,-0.594011 -0.536788,-0.57949 -0.242394,0.01328 -0.190546,0.574841 -0.433089,0.585586 -0.263316,0.01151 -0.261014,-0.591252 -0.524584,-0.591683 -0.25346,-4.13e-4 -0.252988,0.558642 -0.506288,0.567284 -0.250036,0.0086 -0.286983,-0.538558 -0.536786,-0.524592 -0.243809,0.01357 -0.219582,0.557549 -0.46359,0.567294 -0.281642,0.01121 -0.304066,-0.623743 -0.585583,-0.609986 -0.255968,0.01239 -0.219612,0.596609 -0.475793,0.603879 -0.257737,0.0071 -0.254639,-0.58617 -0.512387,-0.57948 -0.241566,0.0062 -0.209962,0.556728 -0.451384,0.567284 -0.277304,0.0121 -0.296252,-0.619525 -0.573388,-0.603885 -0.249298,0.01416 -0.451384,0.597789 -0.451384,0.597789 0,0 -1.597188,-0.04591 -2.394214,-0.0983 -1.315492,-0.08644 -2.472528,-0.698915 -3.411775,-1.54414 C 54.115484,10.83806 53.312779,9.4504692 53.312779,9.4504692 L 53.295666,9.1485391 53.528587,8.984643 56.444332,8.7431046 c 1.068194,0.8909708 2.430177,1.5175934 4.019947,0.8540247 0.77387,-0.3230136 1.315106,-0.8935142 1.55276,-1.863315 C 62.20056,6.9848608 62.362457,6.1178195 62.111949,5.3701539 61.86268,4.6262091 61.385877,3.8874042 60.619568,3.5499665 59.501928,3.0578253 58.339347,2.9948253 57.134471,3.7052468 56.881602,3.8543308 56.81136,4.0506409 56.642757,4.2055848 L 56.358076,4.2573538 53.46821,4.0158153 Z"
     id="compensator_left"
     sodipodi:nodetypes="ccccccccscssscccscsssssssssssssssssssasssssssssssssssssssssssssaaaaasssssssaaasssssssssssssssssssssssssssssssssssssasssssssssssssssssssssssssscssccccssasscccc"
     inkscape:label="compensator_left">
    <title
       id="title5">metal</title>
  </path>
  <path
     style="fill:#5e5e5e;fill-rule:evenodd;stroke:#000000;stroke-width:0.0301566"
     d="m 156.49631,9.3518141 c -0.006,0.3527942 -0.26589,0.6551909 -0.49409,0.9637679 -0.53693,0.727704 -1.17502,1.401456 -2.05565,1.945853 -0.86434,0.456748 -1.78254,0.711557 -2.73883,0.823481 l -0.88447,-0.0062 -62.3575,-4.4515788 0.237229,-3.2694359 56.151561,4.0763585 c 0.0655,0 0.42359,-0.1093053 0.40564,-0.2470561 -0.0177,-0.1381033 0.003,-0.4178418 0.003,-0.4178418 0,0 -0.3243,-1.1747842 -0.38734,-1.7781 -0.0339,-0.3255939 -0.006,-0.6549809 0.006,-0.9820738 0.0295,-0.7265466 0.41483,-1.5064047 0.45138,-2.086151 0.0118,-0.1751394 -0.38427,-0.3598831 -0.38427,-0.3598831 L 115.02243,3.5806617 85.429262,1.462858 c 0.003,0.029211 -0.233334,-0.040748 -0.301921,-0.4485725 -0.05031,-0.29968613 0.103567,-0.90578138 0.103567,-0.90578138 0,0 1.08311,-0.20037154 1.552758,0.0171135 0.218464,0.1012502 0.232302,0.54696796 0.473072,0.54588951 0.250979,-7.8191e-4 0.23714,-0.56540928 0.487987,-0.57338035 0.257263,-0.0082617 0.27957,0.56472326 0.536789,0.55507919 0.251038,-0.009442 0.230709,-0.57426996 0.481879,-0.57947779 0.257618,-0.0056062 0.260834,0.56993699 0.518496,0.57338036 0.244458,0.003246 0.261808,-0.52988246 0.506281,-0.53068798 0.25452,-7.8043e-4 0.276295,0.55682006 0.530682,0.54899061 0.256585,-0.007967 0.243514,-0.58889761 0.500187,-0.58558703 0.248619,0.0032457 0.22109,0.57498992 0.469693,0.57948665 0.253576,0.004721 0.246671,-0.56540633 0.500188,-0.57338626 0.277357,-0.0088518 0.30887,0.6124966 0.585578,0.59168004 0.240888,-0.0179987 0.186007,-0.56897509 0.426998,-0.58558408 0.242451,-0.01681848 0.263283,0.52170189 0.50628,0.52459053 0.2372,0.003246 0.26914,-0.50587481 0.506266,-0.50019046 0.240224,0.005606 0.247896,0.53832268 0.488016,0.53068798 0.245521,-0.007672 0.218065,-0.55980313 0.4636,-0.57338036 0.282698,-0.01563824 0.320968,0.61149044 0.603857,0.59777895 0.235194,-0.0115074 0.216,-0.53865904 0.4514,-0.54288136 0.231947,-0.003836 0.231947,0.51200913 0.46357,0.51848277 0.258813,0.007081 0.290089,-0.54972236 0.549005,-0.54898176 0.251717,7.17e-4 0.279158,0.54354673 0.530682,0.53678541 0.24198,-0.006196 0.239915,-0.54058875 0.481894,-0.5428917 0.249061,-0.0023605 0.257323,0.55643205 0.506266,0.54898913 0.244045,-0.007081 0.219555,-0.55827175 0.4636,-0.56728144 0.271781,-0.01003208 0.289484,0.60329217 0.561191,0.59168299 0.257323,-0.0109173 0.224261,-0.59989897 0.481894,-0.60388819 0.266763,-0.0038358 0.251713,0.61326376 0.518483,0.60998415 0.24581,-0.003246 0.21778,-0.56904 0.46357,-0.57338035 0.26676,-0.004721 0.25791,0.60896029 0.52459,0.60387934 0.26619,-0.004721 0.23401,-0.61821488 0.5002,-0.62218198 0.25673,-0.0038358 0.24345,0.58570211 0.50019,0.58558703 0.25378,-1.1802e-4 0.24021,-0.5761613 0.49408,-0.57948664 0.24316,-0.0032457 0.24463,0.53996174 0.488,0.54288284 0.24581,0.003246 0.26027,-0.53987027 0.50626,-0.53678688 0.26501,0.0032457 0.2659,0.59624316 0.53072,0.59169332 0.25968,-0.004721 0.2405,-0.59340172 0.50015,-0.59778928 0.26205,-0.004721 0.26264,0.59355368 0.52461,0.5855826 0.24876,-0.007672 0.21511,-0.56857086 0.46358,-0.5855826 0.27268,-0.01858885 0.31913,0.58633354 0.59167,0.56728144 0.24259,-0.0168185 0.20835,-0.56798664 0.45139,-0.57338183 0.25231,-0.0056062 0.24198,0.56828613 0.49411,0.57338183 0.25586,0.005606 0.26855,-0.56600383 0.52457,-0.56118548 0.24228,0.004721 0.23372,0.54536873 0.47579,0.54898913 0.24316,0.003836 0.25112,-0.52927315 0.49411,-0.5367854 0.28183,-0.0085568 0.32918,0.6102202 0.60996,0.58558555 0.22339,-0.019474 0.17353,-0.52177122 0.39651,-0.54288579 0.25201,-0.0238999 0.30288,0.54073775 0.55506,0.51848719 0.2532,-0.0224246 0.20363,-0.59775977 0.4575,-0.60998563 0.2833,-0.01357281 0.29068,0.64878764 0.57337,0.62828827 0.24228,-0.0177037 0.16643,-0.58278395 0.40872,-0.60388967 0.25939,-0.02242464 0.2827,0.5677919 0.54286,0.56118548 0.25643,-0.006196 0.24994,-0.58456907 0.50629,-0.57948664 0.25586,0.004721 0.22605,0.589054 0.48189,0.59778781 0.26029,0.008852 0.27033,-0.57413572 0.53069,-0.57338626 0.25909,7.406e-4 0.26558,0.58109473 0.52459,0.57338626 0.23548,-0.007081 0.21011,-0.53486456 0.44527,-0.54898766 0.26854,-0.01622836 0.31107,0.5768783 0.57952,0.561184 0.25673,-0.0150481 0.23076,-0.59569582 0.48797,-0.59777895 0.25526,-0.0023605 0.23903,0.57553578 0.49408,0.58558261 0.24552,0.009737 0.27268,-0.53184314 0.5185,-0.52458906 0.22191,0.006196 0.21719,0.49980688 0.43918,0.50019046 0.25793,4.4554e-4 0.25468,-0.57770595 0.51239,-0.57948665 0.27207,-0.0016228 0.27709,0.61015677 0.54899,0.60388525 0.26117,-0.006196 0.23873,-0.60081514 0.50017,-0.60388525 0.26677,-0.0032457 0.25821,0.61082656 0.52459,0.60388525 0.24759,-0.006196 0.20982,-0.58068755 0.45749,-0.58558261 0.26116,-0.0056062 0.24523,0.59948293 0.5063,0.59777895 0.25555,-0.001623 0.23253,-0.57944828 0.48797,-0.59168299 0.27563,-0.01327775 0.30989,0.59941212 0.58559,0.58558703 0.24405,-0.0123926 0.21956,-0.55504968 0.4636,-0.56728439 0.2585,-0.01298269 0.29039,0.55700889 0.54898,0.54898176 0.25496,-0.007967 0.25142,-0.57990859 0.50629,-0.57338036 0.24169,0.0061963 0.21012,0.55431499 0.45139,0.56728144 0.24257,0.0129827 0.26942,-0.51914813 0.51237,-0.51848424 0.25319,6.8749e-4 0.2777,0.55214628 0.53071,0.54288579 0.25526,-0.009442 0.23874,-0.58493199 0.49408,-0.58558703 0.25378,-6.5503e-4 0.24021,0.57608459 0.49408,0.57948665 0.24611,0.003246 0.24788,-0.54974597 0.49408,-0.54898766 0.24493,7.5535e-4 0.24316,0.55564866 0.488,0.54898766 0.25469,-0.007081 0.22133,-0.5903685 0.47579,-0.59778781 0.26206,-0.0076716 0.26265,0.58382109 0.52457,0.58558556 0.24316,0.001623 0.25083,-0.53313256 0.49411,-0.53678541 0.2529,-0.003836 0.52452,0.56726669 0.53068,0.54288284 0.006,-0.0244901 0.26411,-0.58523296 0.52459,-0.57947779 0.24552,0.0056062 0.22428,0.56280832 0.46968,0.56728144 0.25054,0.004721 0.24965,-0.55770228 0.50019,-0.56118548 0.24316,-0.0032457 0.25703,0.52569997 0.50019,0.53068945 0.25025,0.005606 0.28684,-0.5333745 0.53679,-0.52458906 0.24463,0.0085568 0.24316,0.54108592 0.48797,0.54898766 0.24876,0.007967 0.28212,-0.53102287 0.53071,-0.52458906 0.25024,0.006196 0.25585,0.55962313 0.50627,0.55508804 0.24522,-0.004721 0.23076,-0.55250331 0.47578,-0.56118695 0.2529,-0.0088518 0.27768,0.54957483 0.5307,0.54288432 0.24611,-0.006196 0.24168,-0.55630665 0.48799,-0.55508805 0.2523,0.0016228 0.24168,0.57573937 0.49408,0.57339068 0.24847,-0.00236 0.22752,-0.56469375 0.47578,-0.57339068 0.2529,-0.0088518 0.27149,0.54399227 0.52459,0.54898913 0.25732,0.005606 0.29791,-0.54720844 0.55508,-0.5367854 0.24611,0.0100321 0.24198,0.56715014 0.48801,0.55508657 0.2402,-0.0118025 0.18149,-0.56293962 0.42087,-0.58558261 0.2706,-0.02567031 0.32041,0.5785572 0.5917,0.56118401 0.2408,-0.0153432 0.2163,-0.55852256 0.45748,-0.56118401 0.2538,-0.0032457 0.24021,0.57719107 0.49409,0.57947779 0.25792,0.00236 0.25467,-0.57655078 0.51238,-0.57947779 0.26057,-0.0032457 0.5245,0.5977642 0.53066,0.57338036 0.006,-0.0244901 0.24169,-0.55053673 0.48802,-0.55508805 0.26322,-0.004721 0.27975,0.58268068 0.54288,0.57339068 0.24965,-0.008852 0.22575,-0.57426406 0.47579,-0.57948664 0.25614,-0.0056062 0.25614,0.57603443 0.51239,0.57338626 0.24375,-0.00236 0.23223,-0.54573314 0.47578,-0.55508657 0.2529,-0.009737 0.28388,0.54580394 0.53678,0.5367854 0.24198,-0.008557 0.23372,-0.54498368 0.47578,-0.54898913 0.26323,-0.004721 0.27385,0.59400955 0.53679,0.57948664 0.24228,-0.0132777 0.19063,-0.5748409 0.43311,-0.5855826 0.26324,-0.01150738 0.26088,0.5912522 0.52457,0.59168004 0.25349,4.1604e-4 0.2529,-0.55863763 0.5063,-0.56728144 0.24995,-0.008557 0.28712,0.53855725 0.53679,0.52458906 0.24375,-0.0135728 0.21954,-0.55754591 0.46358,-0.5672903 0.28154,-0.01121232 0.30408,0.6237399 0.58557,0.60998268 0.25586,-0.0123926 0.21955,-0.59660756 0.47581,-0.60387639 0.25764,-0.0070815 0.25469,0.58616978 0.51239,0.57947779 0.24169,-0.006196 0.21011,-0.55672563 0.45139,-0.56728144 0.27738,-0.0120975 0.29624,0.61952495 0.57336,0.60388524 0.24937,-0.0141629 0.45138,-0.59778928 0.45138,-0.59778928 0,0 1.5972,0.0459115 2.39423,0.09829959 1.31549,0.0864381 2.47252,0.69891556 3.41176,1.54414012 0.58619,0.5274881 1.38888,1.915082 1.38888,1.915082 l 0.0177,0.3019272 -0.23283,0.1638975 -2.91574,0.241537 c -1.06819,-0.8909708 -2.4302,-1.5175934 -4.01994,-0.8540247 -0.77387,0.3230166 -1.3151,0.8935172 -1.55277,1.8633165 -0.18356,0.7489549 -0.34542,1.6159933 -0.095,2.3636618 0.24935,0.7439419 0.72608,1.4827468 1.49239,1.8201845 1.11763,0.492141 2.28023,0.555141 3.48511,-0.1552803 0.2529,-0.1490826 0.32311,-0.3453911 0.49169,-0.500338 l 0.28476,-0.051754 2.88988,0.241537 z"
     id="compensator_right"
     sodipodi:nodetypes="ccccccccscssscccscsssssssssssssssssssasssssssssssssssssssssssssaaaaasssssssaaasssssssssssssssssssssssssssssssssssssasssssssssssssssssssssssssscssccccssasscccc"
     inkscape:label="compensator_right">
    <title
       id="title6">metal</title>
  </path>
</svg>
