<?xml version="1.0" encoding="UTF-8" standalone="no"?>
<!-- Created with Inkscape (http://www.inkscape.org/) -->

<svg
   width="210mm"
   height="297mm"
   viewBox="0 0 210 297"
   version="1.1"
   id="svg1"
   inkscape:version="1.4 (86a8ad7, 2024-10-11)"
   sodipodi:docname="DSHA-75-030.svg"
   xmlns:inkscape="http://www.inkscape.org/namespaces/inkscape"
   xmlns:sodipodi="http://sodipodi.sourceforge.net/DTD/sodipodi-0.dtd"
   xmlns="http://www.w3.org/2000/svg"
   xmlns:svg="http://www.w3.org/2000/svg">
  <sodipodi:namedview
     id="namedview1"
     pagecolor="#ffffff"
     bordercolor="#000000"
     borderopacity="0.25"
     inkscape:showpageshadow="2"
     inkscape:pageopacity="0.0"
     inkscape:pagecheckerboard="0"
     inkscape:deskcolor="#d1d1d1"
     inkscape:document-units="mm"
     inkscape:zoom="0.74016561"
     inkscape:cx="284.39581"
     inkscape:cy="210.08812"
     inkscape:window-width="2560"
     inkscape:window-height="1377"
     inkscape:window-x="-8"
     inkscape:window-y="-8"
     inkscape:window-maximized="1"
     inkscape:current-layer="svg1" />
  <defs
     id="defs1" />
  <rect
     style="fill:#b8b8b8;fill-opacity:1;fill-rule:evenodd;stroke:#b81e1e;stroke-width:0.0331264"
     id="concrete_right"
     width="78.181763"
     height="29.187719"
     x="117.80398"
     y="75.094658" />
  <rect
     style="fill:#b8b8b8;fill-opacity:1;fill-rule:evenodd;stroke:#b81e1e;stroke-width:0.033353"
     id="concrete_left"
     width="78.220573"
     height="29.5737"
     x="13.891756"
     y="75.087799" />
  <rect
     style="fill:#a39a9a;fill-rule:evenodd;stroke:#b81e1e;stroke-width:0.0553103"
     id="finish_right"
     width="65.784698"
     height="69.705307"
     x="130.34962"
     y="5.3054028" />
  <rect
     style="fill:#a39a9a;fill-rule:evenodd;stroke:#b81e1e;stroke-width:0.0551358"
     id="finish_left"
     width="65.784874"
     height="69.263016"
     x="13.865583"
     y="5.8504615" />
  <rect
     style="fill:#a39a9a;fill-rule:evenodd;stroke:#b81e1e;stroke-width:0.0329314"
     id="cover_right"
     width="65.769066"
     height="4.9670687"
     x="130.26772"
     y="0.22918507" />
  <rect
     style="fill:#a39a9a;fill-rule:evenodd;stroke:#b81e1e;stroke-width:0.0341611"
     id="cover_left"
     width="65.767876"
     height="5.3449874"
     x="13.895626"
     y="0.38344243" />
  <rect
     style="fill:#404242;fill-opacity:0.341246;fill-rule:evenodd;stroke:#b81e1e;stroke-width:0.0197636"
     id="shadow"
     width="134.69411"
     height="0.012728008"
     x="56.573944"
     y="104.23403"
     inkscape:label="shadow" />
  <ellipse
     style="opacity:0;fill:none;fill-opacity:0;fill-rule:evenodd;stroke-width:0.00368993;stroke-opacity:0"
     id="bolt_left"
     cx="-32.20887"
     cy="-72.648941"
     rx="0.094999999"
     ry="0.028942173"
     inkscape:label="bolt_left"
     transform="scale(-1)" />
  <ellipse
     style="opacity:0;fill:none;fill-opacity:0;fill-rule:evenodd;stroke-width:0.000191947;stroke-opacity:0"
     id="bolt_right"
     cx="177.04633"
     cy="72.643509"
     rx="0.0049418169"
     ry="0.0015055466"
     inkscape:label="bolt_right" />
  <path
     id="profile_left"
     style="display:inline;fill:#5e5e5e;fill-rule:evenodd;stroke:#000000;stroke-width:0.0421211"
     d="M 79.716467,0.12106055 V 70.55147 c -0.17263,1.41678 -0.99041,1.86676 -2.01125,2.01124 H 32.319495 22.306835 l -0.0131,2.516229 h 69.8384 V 13.514091 l -2.49881,-0.35697 -1.57591,-0.282981 -2.46399,-1.02303 -1.760916,-1.612909 -0.515877,-1.2907505 c -0.10813,-0.33406 0.0175,-0.56986 0.208964,-0.7771 h 2.990739 c 0,0 0.53676,0.61527 0.89897,0.77491 0.96073,0.42289 2.14366,0.73522 3.12786,0.37003 0.63729,-0.23646 1.14657,-0.86352 1.38002,-1.50191 0.30469,-0.83336 -0.0211,-2.50569 -0.11102,-2.65986 -0.5904,-1.01041 -1.36936,-1.61071 -2.49446,-1.6129399 -0.64814,0.0243 -1.55503,0.1774899 -2.6773,1.2429099 l -0.34391,0.148 h -2.474866 c -0.654397,-0.20583 -0.543337,-0.55359 -0.518067,-0.8859199 l 0.504997,-1.0361001 0.912027,-0.9598999 0.966439,-0.79882 V 0.12540055 h -1.110088 c 0,0 -0.182489,0.50961999 -0.4005,0.51803999 -0.233858,0.0108 -0.244848,-0.52211999 -0.478879,-0.51370999 -0.246092,0.007 -0.228562,0.55330999 -0.474516,0.56593999 -0.26654,0.0117 -0.29931,-0.57434999 -0.56593,-0.56593999 -0.23642,0.008 -0.22926,0.53216999 -0.465811,0.53548999 -0.240267,0.003 -0.247357,-0.52267999 -0.487577,-0.53109999 -0.25337,-0.008 -0.29726,0.56041999 -0.54852,0.52671999 -0.20765,-0.0279 -0.32214,-0.53977999 -0.32214,-0.53977999 z M 82.223981,11.718351 c 0.0448,1.1e-4 0.0935,0.003 0.145841,0.013 l 1.375646,1.11444 1.097049,0.870681 1.358238,0.679119 1.35824,0.365661 2.0896,0.29603 c 0.4484,0.23797 0.54818,0.47596 0.48757,0.71395 v 15.21927 H 81.690704 V 12.23634 c 0.0844,-0.29334 0.21997,-0.518889 0.533277,-0.51804 z m -0.594227,20.36271 h 8.519471 V 52.00408 h -8.421521 z m 0.074,20.932999 h 8.445471 v 20.07103 h -8.495531 z"
     inkscape:label="profile_left" />
  <path
     id="profile_right"
     style="display:inline;fill:#5e5e5e;fill-rule:evenodd;stroke:#000000;stroke-width:0.0421162"
     d="M 124.1787,0.02105811 V 1.202878 l 1.01634,0.79873 0.93152,1.2623101 0.55283,1.03383 -0.71821,0.60066 h -2.39842 l -0.40483,-0.1610499 -0.67466,-0.7073501 c -1.17887,-0.59843 -1.45293,-0.68367 -2.84896,-0.36561 -0.84147,0.1916301 -1.24338,0.8371501 -1.60398,1.5517702 -0.2485,0.9164099 -0.48427,1.8345902 0.13055,2.8141199 0.54344,1.0538303 1.38416,1.4492599 2.42236,1.405969 0.72672,-0.0889 1.45405,-0.2220786 2.18079,-0.7769992 l 0.52449,-0.5571598 h 3.07743 c 0.25818,0.097695 0.41253,0.2684499 0.36999,0.5811203 l -1.12954,1.9217605 -1.32325,1.17092 -1.72807,0.80092 -2.28522,0.507079 -2.54858,0.365651 v 61.529393 h 69.85854 v -2.478911 h -9.8831 -45.52627 c -1.18716,-0.193739 -1.90049,-0.888659 -2.08282,-2.14814 V 0.03848811 h -1.08386 c 0,0 -0.12722,0.59779994 -0.3656,0.61591002 -0.24554,0.0168003 -0.22174,-0.56806004 -0.46795,-0.57021004 -0.23249,-0.0020005 -0.21885,0.51693003 -0.45052,0.53103998 -0.26617,0.0168998 -0.32168,-0.56153003 -0.5876,-0.54191001 -0.22659,0.0168998 -0.20192,0.51638999 -0.42878,0.53105005 -0.24174,0.0168003 -0.28223,-0.50620005 -0.52451,-0.50279003 -0.23545,0.002995 -0.2632,0.51554997 -0.49841,0.50279003 -0.24766,-0.0125992 -0.46138,-0.58331 -0.46138,-0.58331 z m 3.4779,11.58940089 c 0.23388,-0.008 0.39123,0.182829 0.53757,0.400491 v 18.98922 l -8.50762,-0.03261 V 15.734819 c 0.0503,-0.31293 0.16504,-0.590391 0.59417,-0.69644 l 1.81512,-0.25248 1.53004,-0.42222 1.38201,-0.685569 1.1992,-0.855331 1.18617,-1.13175 c 0.0973,-0.0529 0.1854,-0.0779 0.26334,-0.0805 z m -7.93521,20.41262 8.49453,0.06311 v 19.93381 h -8.49453 z m 0.0174,20.937101 h 8.4967 v 20.057831 h -8.54895 z"
     inkscape:label="profile_right" />
  <path
     style="fill:#5e5e5e;fill-rule:evenodd;stroke:#000000;stroke-width:0.0313521"
     d="m 83.602719,3.6539998 c 0.143274,-0.378324 0.370952,-0.644141 0.582302,-0.931683 0.615712,-0.874553 1.356224,-1.468252 2.162854,-1.913279 1.0675,-0.55530598 2.17393,-0.88496798 3.36071,-0.74866798 l 2.44567,0.449203 17.701935,3.72673398 -0.63221,2.978052 -13.858765,-2.894868 c -0.14665,0.04148 -0.28625,0.123357 -0.41593,0.266177 -0.0912,0.176962 -0.0838,0.338784 -0.0665,0.499119 l 0.2163,0.848496 v 1.098056 l -0.18286,0.998227 -0.366,1.064785 c -0.006,0.138644 -0.0245,0.277282 0.0832,0.415925 0.1221,0.144807 0.24391,0.180733 0.36601,0.183004 l 6.937715,-0.316106 9.81593,2.1129152 0.0665,0.482479 -3.64356,0.183004 c 0,0 -0.2034,-0.47544 -0.41626,-0.484727 -0.26292,-0.0114 -0.30158,0.56318 -0.56442,0.551728 -0.2172,-0.0095 -0.2077,-0.487065 -0.42488,-0.494645 -0.25249,-0.0088 -0.28011,0.533065 -0.53269,0.539039 -0.2528,0.0058 -0.30618,-0.536362 -0.55809,-0.513674 -0.23746,0.02147 -0.19329,0.554269 -0.43124,0.570747 -0.25955,0.0178 -0.29206,-0.565942 -0.55171,-0.551727 -0.24636,0.01354 -0.21691,0.559225 -0.46292,0.577093 -0.25066,0.01809 -0.30158,-0.535956 -0.55174,-0.513673 -0.24207,0.02147 -0.19544,0.562742 -0.43759,0.583432 -0.26078,0.0224 -0.30946,-0.553577 -0.57073,-0.539039 -0.235,0.01325 -0.22151,0.527044 -0.45661,0.539039 -0.23133,0.01197 -0.26937,-0.487712 -0.50099,-0.481966 -0.24667,0.0064 -0.26079,0.531612 -0.50733,0.539039 -0.24974,0.0074 -0.29698,-0.538249 -0.54539,-0.513672 -0.23225,0.02301 -0.17426,0.541069 -0.40586,0.570746 -0.270905,0.03473 -0.356875,-0.560512 -0.627845,-0.526353 -0.23745,0.03006 -0.18039,0.561199 -0.41852,0.583433 -0.25894,0.02424 -0.30527,-0.561337 -0.56442,-0.539045 -0.25157,0.02147 -0.19819,0.594259 -0.45026,0.608799 -0.26875,0.01564 -0.28286,-0.604148 -0.55172,-0.589775 -0.24575,0.01325 -0.1988,0.566776 -0.4439,0.589775 -0.25341,0.02394 -0.3107,-0.532317 -0.56442,-0.513674 -0.23961,0.01748 -0.21691,0.54176 -0.4566,0.558067 -0.2476,0.01687 -0.2976,-0.523203 -0.54537,-0.507331 -0.24421,0.01564 -0.22519,0.550343 -0.46931,0.564404 -0.25678,0.01473 -0.3025,-0.560073 -0.55806,-0.5327 -0.23623,0.02516 -0.16321,0.565917 -0.3995,0.589779 -0.26171,0.02639 -0.30158,-0.563812 -0.56443,-0.551724 -0.24114,0.01111 -0.22824,0.53559 -0.46927,0.551724 -0.25248,0.01687 -0.31257,-0.531132 -0.56441,-0.507331 -0.25372,0.02394 -0.20831,0.600049 -0.46296,0.608798 -0.24697,0.0085 -0.4883,-0.558066 -0.4883,-0.558066 -0.14357,-0.164106 -0.29452,0.349932 -0.53904,0.589773 l -2.50496,-0.0064 c -0.0729,0.06568 -2.26787,-0.503726 -3.06936,-1.230286 -0.661814,-0.599967 -1.648778,-1.141823 -1.750293,-2.0293312 -0.02151,-0.185059 0.259849,-0.494648 0.259849,-0.494648 1.062078,-0.249764 2.155874,-0.436054 3.335724,-0.450259 0.7105,0.568577 1.54711,0.969007 2.96092,0.599847 0.75702,-0.419131 1.51818,-0.835218 1.73092,-1.650199 0.33781,-0.576971 0.36707,-1.153942 0.21536,-1.730914 -0.10001,-0.83435 -0.58837,-1.363437 -1.15692,-1.829575 -0.63215,-0.481099 -1.39492,-0.748022 -2.4484,-0.538115 -0.78964,0.157601 -1.15996,0.566786 -1.63227,0.914782 l -2.941633,-0.125565 c -0.229188,0.0048 -0.380313,-0.128428 -0.502258,-0.313887 -0.05956,-0.137746 -0.06098,-0.275503 -0.01282,-0.413271 z"
     id="compensator_left"
     sodipodi:nodetypes="ccccccccccccccccccccsssssssssssssssssssssssssssssssssccsscccccccccccc"
     inkscape:label="compensator_left">
    <title
       id="title2">metal</title>
  </path>
  <path
     style="fill:#5e5e5e;fill-rule:evenodd;stroke:#000000;stroke-width:0.0313521"
     d="m 126.24734,9.3739998 c -0.14327,0.378325 -0.37095,0.6441432 -0.5823,0.9316832 -0.61571,0.874551 -1.35626,1.468255 -2.16287,1.91328 -1.06752,0.555304 -2.17395,0.884966 -3.36071,0.748669 l -2.44565,-0.449205 -17.701965,-3.7267312 0.632225,-2.978055 13.85877,2.894867 c 0.14665,-0.04147 0.28624,-0.123356 0.41592,-0.266177 0.0912,-0.176961 0.0838,-0.338784 0.0665,-0.499119 l -0.2163,-0.848495 v -1.098056 l 0.18286,-0.998228 0.36601,-1.064784 c 0.006,-0.138644 0.0245,-0.277284 -0.0832,-0.415925 -0.1221,-0.144807 -0.24389,-0.180734 -0.36604,-0.183004 l -6.93768,0.316105 -9.815965,-2.112919 -0.0665,-0.482477 3.643555,-0.183004 c 0,0 0.2034,0.475439 0.41626,0.484726 0.26293,0.0114 0.30158,-0.56317998 0.56441,-0.551728 0.21722,0.0096 0.2077,0.487065 0.42488,0.494649 0.25249,0.0088 0.28011,-0.53306498 0.53269,-0.53904198 0.25281,-0.0058 0.30618,0.53635998 0.55807,0.51367198 0.23746,-0.02147 0.19328,-0.55426498 0.43123,-0.57074498 0.25955,-0.01779 0.29208,0.56594098 0.55174,0.55172798 0.24636,-0.01353 0.21691,-0.55922698 0.46294,-0.57709498 0.25064,-0.0181 0.30158,0.53595598 0.55174,0.51367398 0.24205,-0.02147 0.19542,-0.56274298 0.43754,-0.58343298 0.26079,-0.0224 0.30947,0.55357798 0.57078,0.53903898 0.235,-0.01325 0.22151,-0.52704298 0.45659,-0.53903898 0.23133,-0.01197 0.26937,0.48771398 0.50098,0.48196498 0.24665,-0.0064 0.26077,-0.53161098 0.50734,-0.53903898 0.24974,-0.0074 0.29698,0.53825398 0.5454,0.51367398 0.23224,-0.02301 0.17425,-0.54106998 0.40586,-0.57074698 0.27091,-0.03472 0.35686,0.56051198 0.62783,0.52635298 0.23746,-0.03006 0.18009,-0.56119798 0.41853,-0.58343198 0.25894,-0.02423 0.30526,0.56133698 0.56441,0.53904798 0.25157,-0.02147 0.1982,-0.59426198 0.45026,-0.60880198 0.26875,-0.01564 0.28287,0.60415098 0.55171,0.58977398 0.24574,-0.01325 0.19911,-0.56677598 0.44394,-0.58977398 0.2531,-0.02394 0.31069,0.53231998 0.56441,0.51367298 0.23962,-0.01748 0.2169,-0.54175598 0.45661,-0.55806498 0.24758,-0.01687 0.29759,0.52320098 0.54536,0.50733298 0.24421,-0.01564 0.22519,-0.55034698 0.46927,-0.56440798 0.25679,-0.01472 0.30251,0.56007298 0.5581,0.532702 0.23624,-0.02516 0.16322,-0.565918 0.39951,-0.589781 0.26169,-0.02639 0.30158,0.563813 0.56441,0.551725 0.24114,-0.01111 0.22826,-0.535588 0.46928,-0.551725 0.25249,-0.01687 0.31256,0.531133 0.56442,0.507332 0.25372,-0.02394 0.208,-0.600049 0.46292,-0.608798 0.24697,-0.0085 0.48832,0.558065 0.48832,0.558065 0.14359,0.16410598 0.29453,-0.349928 0.53905,-0.589773 l 2.50494,0.0064 c 0.0731,-0.06568 2.2679,0.503728 3.06937,1.23028498 0.66182,0.599969 1.64878,1.141823 1.75031,2.029334 0.0215,0.18506 -0.26016,0.494646 -0.26016,0.494646 -1.06208,0.249763 -2.1559,0.436053 -3.33572,0.450258 -0.7105,-0.568577 -1.54711,-0.969005 -2.96092,-0.599845 -0.75702,0.419129 -1.51822,0.835216 -1.73092,1.650198 -0.33781,0.57697 -0.36708,1.153942 -0.21537,1.730913 0.10002,0.83434 0.58837,1.36343 1.15693,1.829568 0.63215,0.481096 1.39488,0.748019 2.4484,0.538111 0.78963,-0.157602 1.15996,-0.566782 1.63224,-0.914782 l 2.94166,0.125578 c 0.22919,-0.0048 0.38031,0.128429 0.50226,0.313886 0.0596,0.137747 0.061,0.275505 0.0128,0.413271 z"
     id="compensator_right"
     sodipodi:nodetypes="ccccccccccccccccccccsssssssssssssssssssssssssssssssssccsscccccccccccc"
     inkscape:label="compensator_right">
    <title
       id="title1">metal</title>
  </path>
</svg>
