<?xml version="1.0" encoding="UTF-8" standalone="no"?>
<!-- Created with Inkscape (http://www.inkscape.org/) -->

<svg
   width="210mm"
   height="297mm"
   viewBox="0 0 210 297"
   version="1.1"
   id="svg1"
   inkscape:version="1.4 (86a8ad7, 2024-10-11)"
   sodipodi:docname="DSHA-15-063-corner.svg"
   xmlns:inkscape="http://www.inkscape.org/namespaces/inkscape"
   xmlns:sodipodi="http://sodipodi.sourceforge.net/DTD/sodipodi-0.dtd"
   xmlns="http://www.w3.org/2000/svg"
   xmlns:svg="http://www.w3.org/2000/svg">
  <sodipodi:namedview
     id="namedview1"
     pagecolor="#ffffff"
     bordercolor="#000000"
     borderopacity="0.25"
     inkscape:showpageshadow="2"
     inkscape:pageopacity="0.0"
     inkscape:pagecheckerboard="0"
     inkscape:deskcolor="#d1d1d1"
     inkscape:document-units="mm"
     inkscape:zoom="0.74016558"
     inkscape:cx="311.41681"
     inkscape:cy="366.80982"
     inkscape:window-width="2560"
     inkscape:window-height="1377"
     inkscape:window-x="-8"
     inkscape:window-y="-8"
     inkscape:window-maximized="1"
     inkscape:current-layer="svg1" />
  <defs
     id="defs1" />
  <rect
     style="fill:#b8b8b8;fill-opacity:1;fill-rule:evenodd;stroke:#b81e1e;stroke-width:0.0579259"
     id="concrete_left"
     width="78.195999"
     height="89.231377"
     x="20.407026"
     y="67.615494" />
  <rect
     style="fill:#a39a9a;fill-rule:evenodd;stroke:#b81e1e;stroke-width:0.0205287"
     id="finish_left"
     width="65.819481"
     height="9.5968637"
     x="20.351263"
     y="58.030811" />
  <rect
     style="fill:#a39a9a;fill-rule:evenodd;stroke:#b81e1e;stroke-width:0.0341611"
     id="cover_left"
     width="65.767876"
     height="5.3449874"
     x="20.398588"
     y="52.581093" />
  <rect
     style="fill:#404242;fill-opacity:0.341246;fill-rule:evenodd;stroke:#b81e1e;stroke-width:0.0192373"
     id="shadow"
     width="122.54688"
     height="0.013254385"
     x="63.268452"
     y="156.8322"
     inkscape:label="shadow" />
  <ellipse
     style="opacity:0;fill:none;fill-opacity:0;fill-rule:evenodd;stroke-width:0.00253958;stroke-opacity:0"
     id="bolt_left"
     cx="-38.661865"
     cy="-64.746941"
     rx="0.045000002"
     ry="0.028942173"
     inkscape:label="bolt_left"
     transform="scale(-1)" />
  <ellipse
     style="opacity:0;fill:none;fill-opacity:0;fill-rule:evenodd;stroke-width:0.000191947;stroke-opacity:0"
     id="screw_right"
     cx="164.64816"
     cy="17.141939"
     rx="0.0049418169"
     ry="0.0015055466"
     inkscape:label="screw_right" />
  <path
     style="fill:#5e5e5e;fill-rule:evenodd;stroke:#000000;stroke-width:0.0441661"
     d="m 159.37463,60.805714 h 3.29292 c 0.0846,-0.0709 0.72166,0.39848 0.52726,0.78512 -0.22127,0.44001 -0.41877,0.93966 -0.67956,1.37107 -0.25974,0.4296 -0.59704,0.81424 -0.96096,1.16012 -0.40281,0.38249 -1.33586,0.99606 -1.33586,0.99606 v 0.71484 h 1.24207 c 0,0 0.13873,-0.47882 0.33969,-0.50389 0.24462,-0.0302 0.30469,0.50467 0.55083,0.49218 0.24289,-0.0129 0.24894,-0.54162 0.49218,-0.53907 0.24937,0.002 0.24332,0.55156 0.49216,0.5625 0.25932,0.0129 0.30298,-0.54335 0.5625,-0.53903 0.23467,0.004 0.25759,0.49835 0.49214,0.50389 0.23467,0.004 0.28135,-0.49689 0.51559,-0.48047 0.21048,0.0129 0.39848,0.49218 0.39848,0.49218 h 1.12499 V 4.2255222 h -0.86049 l -1.43049,4.227839 v 1.5936928 c 0,0 0.52004,0.16294 0.53318,0.38075 0.013,0.24852 -0.54258,0.255 -0.55082,0.50389 -0.013,0.25975 0.54603,0.30297 0.53907,0.56254 -0.013,0.25672 -0.56799,0.27055 -0.5625,0.52731 0,0.25759 0.58077,0.24635 0.58592,0.50389 0,0.23468 -0.50865,0.24548 -0.5156,0.48046 -0.013,0.22647 0.47147,0.2658 0.46871,0.49218 0,0.23727 -0.50748,0.26623 -0.5038,0.50389 0,0.26795 0.58716,0.28264 0.58591,0.55077 0,0.2766 -0.6214,0.28611 -0.60938,0.5625 0.013,0.26147 0.61336,0.21869 0.62107,0.48046 0.013,0.24332 -0.4963,0.24289 -0.55075,0.48046 -0.0891,0.38897 0.47639,0.70257 0.46875,1.10152 -0.013,0.37557 -0.55473,0.65122 -0.48051,1.01953 0.0432,0.20615 0.45945,0.21177 0.46871,0.42182 0.013,0.23467 -0.48315,0.28049 -0.48037,0.51559 0,0.2403 0.50517,0.27531 0.50384,0.51561 0,0.23208 -0.47995,0.26061 -0.49218,0.49217 -0.013,0.23598 0.45099,0.31463 0.44528,0.55078 -0.013,0.24073 -0.48724,0.29864 -0.48037,0.53907 0.013,0.25413 0.53763,0.28481 0.53902,0.53902 0,0.25672 -0.55653,0.29432 -0.53902,0.55079 0.0173,0.24158 0.56876,0.20312 0.57413,0.44532 0.013,0.27141 -0.62526,0.25585 -0.62102,0.52731 0,0.26969 0.62606,0.23424 0.6328,0.50389 0.013,0.26579 -0.58653,0.2619 -0.59771,0.52735 -0.013,0.25413 0.53448,0.29649 0.5274,0.55074 -0.013,0.24591 -0.54331,0.25802 -0.53907,0.50393 0,0.24375 0.54386,0.23684 0.55074,0.48046 0.013,0.2403 -0.51289,0.26364 -0.51565,0.50389 0,0.2403 0.51322,0.27531 0.50398,0.515601 -0.013,0.25456 -0.57464,0.24937 -0.57429,0.50389 3.3e-4,0.24375 0.53622,0.23727 0.55081,0.48046 0.0172,0.26234 -0.54303,0.32371 -0.52735,0.58592 0.013,0.2485 0.55562,0.24332 0.5625,0.49217 0.013,0.24592 -0.52294,0.26969 -0.52727,0.5156 0,0.23209 0.48745,0.27185 0.48037,0.50393 -0.013,0.22388 -0.48245,0.23339 -0.49217,0.456999 -0.013,0.27919 0.58695,0.34272 0.56249,0.62109 -0.0216,0.24116 -0.55631,0.204 -0.57416,0.44529 -0.0173,0.27141 0.58354,0.31809 0.56491,0.58946 -0.0173,0.23554 -0.54982,0.20313 -0.55518,0.43919 0,0.24851 0.56456,0.2403 0.56339,0.48889 0,0.26839 -0.66275,0.48046 -0.61314,0.52204 0.0492,0.0432 0.60869,0.24721 0.61314,0.51374 0,0.2524 -0.55848,0.25327 -0.56339,0.50545 0,0.25801 0.5563,0.28092 0.55518,0.53859 -0.002,0.24418 -0.53665,0.26147 -0.53038,0.50548 0.013,0.23295 0.51893,0.22301 0.53038,0.45574 0.013,0.25932 -0.54352,0.30384 -0.5386,0.56345 0,0.2498 0.53847,0.27185 0.5386,0.52204 9e-5,0.26968 -0.59041,0.29389 -0.58012,0.56344 0.013,0.25888 0.60048,0.23814 0.59668,0.49719 0,0.24591 -0.57322,0.21004 -0.58009,0.45574 -0.013,0.24635 0.54361,0.24246 0.55514,0.48889 0.013,0.26147 -0.54541,0.30988 -0.53853,0.57174 0.013,0.25586 0.56633,0.27444 0.55513,0.53034 -0.013,0.24721 -0.56145,0.21696 -0.57999,0.46404 -0.0172,0.24765 0.5082,0.29864 0.50544,0.54689 0,0.22647 -0.47774,0.26234 -0.47226,0.48889 0.013,0.25413 0.56022,0.26796 0.55516,0.52204 0,0.24851 -0.55996,0.24029 -0.56348,0.48885 0,0.22862 0.49073,0.23597 0.50538,0.46404 0.0173,0.25239 -0.49663,0.32716 -0.48884,0.58004 0.013,0.25196 0.52199,0.29475 0.52199,0.54689 0,0.24807 -0.51213,0.29043 -0.51373,0.53859 0,0.2148 0.43931,0.25715 0.43918,0.47234 -8e-5,0.22257 -0.45786,0.26622 -0.45566,0.48889 0,0.25802 0.55242,0.29777 0.5386,0.55515 -0.013,0.23294 -0.52982,0.21436 -0.5386,0.44748 -0.013,0.23036 0.49603,0.25023 0.49706,0.48059 0.002,0.25197 -0.53768,0.27833 -0.53858,0.5303 -7.8e-4,0.23813 0.49446,0.26752 0.50556,0.50548 0.013,0.25067 -0.49342,0.32933 -0.48062,0.58004 0.013,0.22431 0.48062,0.24765 0.48062,0.4723 0,0.21696 -0.44061,0.2403 -0.46404,0.45574 -0.0172,0.15083 0.24851,0.38119 0.24851,0.38119 v 1.62407 c -0.0696,0.29692 -0.22948,0.52973 -0.59654,0.61319 h -3.53824 v 0.74578 l 1.26782,1.00264 1.05233,1.17663 c -0.013,0 0.46737,0.81372 0.62153,1.28437 0.13096,0.39978 -0.52134,0.90051 -0.55518,0.87004 h -3.26479 c -0.7314,-0.78321 -1.57645,-1.20784 -2.5108,-1.35067 -0.0172,-0.0346 -1.54485,0.24073 -2.07976,0.82033 -0.47286,0.51249 -1.00492,1.28131 -1.03579,2.07986 -0.0303,0.79086 0.34359,1.63635 0.90315,2.19586 0.5764,0.57619 1.45167,0.72539 2.23734,0.68774 0.51127,-0.0259 0.96582,-0.12966 1.34234,-0.35613 0.40539,-0.24375 1.1475,-0.83502 1.1475,-0.83502 z"
     id="profile_right"
     sodipodi:nodetypes="ccssscccsssssssccccccsssssssssssssssssssssssssssssssssssssssssssssssssssssssssssssssssssssssssssscccccccscccsssssc"
     inkscape:label="profile_right" />
  <rect
     style="fill:#e1ecec;fill-opacity:0.77;fill-rule:evenodd;stroke:#b81e1e;stroke-width:0.0081378"
     id="finish_right"
     width="57.514656"
     height="2.036227"
     x="-57.518726"
     y="166.66786"
     inkscape:label="finish_right"
     transform="rotate(-90)" />
  <rect
     style="fill:#e1ecec;fill-opacity:0.77;fill-rule:evenodd;stroke:#b81e1e;stroke-width:0.00933925"
     id="cover_right"
     width="57.494617"
     height="0.12774748"
     x="-57.505093"
     y="166.49213"
     inkscape:label="cover_right"
     transform="rotate(-90)" />
  <path
     style="fill:#e1ecec;fill-opacity:0.77;fill-rule:evenodd;stroke:#b81e1e;stroke-width:0.0116676"
     d="m 168.71628,0.0159984 20.93689,-8.06e-6 V 157.50331 H 166.47204 V 57.558404 h 2.23314 z"
     id="concrete_right"
     inkscape:label="concrete_right"
     sodipodi:nodetypes="ccccccc" />
  <path
     style="fill:#5e5e5e;fill-rule:evenodd;stroke:#000000;stroke-width:0.0426565"
     d="m 29.498993,64.612549 h 9.72732 45.916685 c 0.54206,-0.04174 0.95075,-0.305129 1.07985,-1.034522 V 52.632704 h 1.09214 c 0,0 0.19868,0.523932 0.42705,0.536897 0.22415,0.01252 0.2517,-0.477195 0.47589,-0.475879 0.24462,0.0011 0.26841,0.536136 0.51247,0.524683 0.24544,-0.01168 0.21789,-0.563457 0.46371,-0.573496 0.24127,-0.01002 0.2588,0.534172 0.50027,0.524692 0.2254,-0.0088 0.20245,-0.506855 0.42705,-0.524692 0.25546,-0.02045 0.31807,0.535816 0.57354,0.512491 0.20494,-0.01878 0.37817,-0.488085 0.37817,-0.488085 h 1.04939 v 0.768736 l -1.1226,0.939566 -0.97838,1.097621 c 0.0292,0 -0.55975,0.835968 -0.67299,1.333063 -0.0714,0.313477 0.522,0.811075 0.522,0.811075 l 3.17521,-0.0167 1.30717,-1.005191 c 0.72335,-0.3442 1.44664,-0.371913 2.16997,-0.09487 0.83208,0.327669 1.35936,0.845859 1.63936,1.518561 0.33686,0.904505 0.36482,1.649421 0.0334,2.208839 -0.3139,0.753941 -0.75954,1.370674 -1.62212,1.553081 -0.84743,0.396543 -1.63438,0.248783 -2.38999,-0.181158 l -1.13032,-0.854199 h -3.20108 c -0.30888,0.09726 -0.57682,0.240015 -0.50043,0.767921 l 0.90595,1.622121 1.32016,1.371877 1.64796,0.888719 1.8292,0.45728 3.50302,0.284681 v 1.449561 H 29.270293 v -2.752407 c -0.003,-0.118963 0.0855,-0.187002 0.2287,-0.224568 z"
     id="profile_left"
     sodipodi:nodetypes="ccccccssssssscccccsccccccccccccccccccccc"
     inkscape:label="profile_left" />
  <path
     style="fill:#5e5e5e;fill-rule:evenodd;stroke:#000000;stroke-width:0.0298261"
     d="m 92.900188,57.211558 -2.49766,-0.132741 c -0.31046,-0.0617 -0.55355,-0.270179 -0.5309,-0.518837 0.0435,-0.477373 0.40234,-0.852518 0.69982,-1.182467 1.20335,-1.363541 2.639,-2.273784 4.50062,-2.352877 l 1.25487,-0.01204 39.685072,3.873183 -0.30163,3.064766 -33.71896,-3.277637 c -0.16605,0.02628 -0.30775,0.101158 -0.40953,0.255965 -0.054,0.121503 -0.0834,0.24648 -0.0257,0.383944 0.4219,0.736038 0.43422,1.569976 0.38394,2.363345 0.0419,0.964479 -0.37404,1.564157 -0.58871,2.30363 -0.0576,0.19844 0.13892,0.501855 0.38394,0.494857 l 16.76878,-0.478903 18.15937,1.815933 0.0362,0.796358 -1.59272,0.03622 c 0,0 -0.17542,-0.494133 -0.3861,-0.500744 -0.23788,-0.0075 -0.23321,0.521561 -0.47059,0.536937 -0.24604,0.01605 -0.3087,-0.497915 -0.55504,-0.488671 -0.2472,0.0093 -0.27143,0.534663 -0.51881,0.530903 -0.23757,-0.0038 -0.24517,-0.530804 -0.48265,-0.524873 -0.23263,0.0061 -0.21424,0.520155 -0.44644,0.536942 -0.24284,0.01752 -0.30039,-0.509714 -0.54299,-0.48868 -0.22414,0.01956 -0.19321,0.502536 -0.41625,0.530907 -0.25626,0.03257 -0.35829,-0.494719 -0.61536,-0.470573 -0.20695,0.01956 -0.20869,0.451065 -0.4163,0.464541 -0.24632,0.01605 -0.31512,-0.502123 -0.56108,-0.482638 -0.23904,0.01897 -0.22532,0.53341 -0.46453,0.549001 -0.24136,0.01576 -0.29499,-0.493597 -0.53694,-0.48867 -0.22591,0.0046 -0.25655,0.476635 -0.48263,0.476603 -0.23757,-3.9e-5 -0.26939,-0.510247 -0.50677,-0.500736 -0.24924,0.0099 -0.23932,0.558551 -0.48869,0.567099 -0.25451,0.0087 -0.28253,-0.551427 -0.53692,-0.542966 -0.2364,0.0078 -0.22823,0.52628 -0.46461,0.536905 -0.2402,0.01073 -0.27873,-0.513382 -0.51885,-0.500741 -0.24371,0.01291 -0.22677,0.54902 -0.47058,0.561069 -0.25275,0.01262 -0.2901,-0.541709 -0.54294,-0.530904 -0.24926,0.01073 -0.23934,0.560015 -0.48868,0.567103 -0.24604,0.007 -0.26676,-0.531566 -0.5128,-0.530903 -0.25042,6.71e-4 -0.2688,0.551609 -0.51884,0.542966 -0.23263,-0.0081 -0.21366,-0.537435 -0.44644,-0.536934 -0.23699,5.08e-4 -0.21569,0.535652 -0.45248,0.549003 -0.25713,0.01459 -0.29785,-0.547628 -0.55504,-0.536934 -0.25626,0.01073 -0.25041,0.566882 -0.50676,0.57917 -0.24312,0.01175 -0.28808,-0.515036 -0.53091,-0.500743 -0.22532,0.01349 -0.20897,0.510124 -0.43438,0.518836 -0.25568,0.0099 -0.28136,-0.561078 -0.53694,-0.549 -0.24283,0.01131 -0.21568,0.552861 -0.45852,0.567101 -0.24136,0.01407 -0.27698,-0.511609 -0.51881,-0.506773 -0.25188,0.0055 -0.26707,0.546194 -0.51886,0.549006 -0.24019,0.0023 -0.26647,-0.518644 -0.50677,-0.512806 -0.23494,0.0055 -0.23581,0.519159 -0.47059,0.524865 -0.24019,0.0061 -0.26355,-0.518308 -0.50676,-0.512803 -0.24313,0.0055 -0.24838,0.541893 -0.4947,0.549006 -0.24575,0.007 -0.27932,-0.532672 -0.52487,-0.518841 -0.23992,0.01349 -0.21248,0.548255 -0.45247,0.561074 -0.27553,0.01489 -0.31023,-0.607192 -0.5852,-0.585205 -0.24984,0.02014 -0.1903,0.594311 -0.44042,0.609337 -0.25129,0.01518 -0.26092,-0.560704 -0.5128,-0.555036 -0.25246,0.0055 -0.23641,0.567028 -0.48867,0.57917 -0.2443,0.01175 -0.28049,-0.520048 -0.52486,-0.512812 -0.23903,0.007 -0.24341,0.525213 -0.48266,0.530905 -0.25596,0.0061 -0.2872,-0.552427 -0.54295,-0.542968 -0.23087,0.0084 -0.22211,0.50705 -0.45249,0.524875 -0.2291,0.01781 -0.2958,-0.463227 -0.52487,-0.446448 -0.21599,0.01576 -0.21249,0.469735 -0.42835,0.488672 -0.24663,0.02159 -0.33214,-0.479597 -0.57918,-0.464541 -0.22998,0.01407 -0.25217,0.493289 -0.48262,0.49471 -0.23612,0.0016 -0.26473,-0.509157 -0.50075,-0.50074 -0.23933,0.0084 -0.23116,0.533715 -0.47058,0.542967 -0.23728,0.009 -0.26939,-0.504271 -0.50677,-0.500734 -0.23903,0.0038 -0.25595,0.512053 -0.4947,0.518832 -0.25888,0.0075 -0.30891,-0.550788 -0.5671,-0.530903 -0.2472,0.01897 -0.21102,0.573155 -0.45851,0.585199 -0.24167,0.01175 -0.25888,-0.524893 -0.50073,-0.524864 -0.23903,3.1e-5 -0.25595,0.509151 -0.4947,0.518835 -0.22357,0.009 -0.27727,-0.452106 -0.50076,-0.446439 -0.21744,0.0055 -0.24924,0.426747 -0.46452,0.458507 -0.19819,0.02928 -0.3177,-0.378945 -0.53696,-0.50074 -0.21393,-0.11885 -0.22689,0.526648 -0.46454,0.542968 -0.23874,0.01634 -0.29769,-0.482309 -0.53692,-0.476603 -0.2417,0.0055 -0.2771,0.505322 -0.51885,0.506772 -0.23894,0.0016 -0.27998,-0.50203 -0.51884,-0.49471 -0.22756,0.007 -0.23687,0.498595 -0.46454,0.50074 -0.22897,0.0023 -0.24765,-0.497775 -0.4766,-0.494711 -0.25051,0.0032 -0.25641,0.546435 -0.50678,0.555039 -0.244492,0.0084 -0.286732,-0.522049 -0.530902,-0.506772 -0.20971,0.0132 -0.18861,0.473713 -0.39819,0.48868 -0.24273,0.01752 -0.29366,-0.50177 -0.53693,-0.49471 -0.24878,0.007 -0.27012,0.528263 -0.51884,0.536934 -0.24336,0.0084 -0.29981,-0.501546 -0.54296,-0.488672 -0.24033,0.01291 -0.2443,0.503682 -0.48265,0.536934 -0.75131,0.104813 -2.42801,-0.04363 -2.42584,-0.0046 -1.03027,-0.08315 -2.01894,-0.518602 -2.90939,-1.151811 -0.75421,-0.617842 -1.40795,-1.257215 -1.71493,-1.970886 -0.0803,-0.124679 -0.13216,-0.253135 0.0257,-0.409536 0.19535,-0.31451 0.29781,-0.211047 0.43513,-0.264487 0.81571,-0.145436 1.6435,-0.248581 2.49134,-0.281562 0.75251,0.522163 1.49938,1.055924 2.53398,0.998241 0.76658,-0.01956 1.57141,-0.212478 2.57666,-1.313924 0.50534,-0.690811 0.67148,-1.430074 0.6143,-2.201242 -0.0571,-0.925712 -0.47792,-1.673996 -1.19447,-2.278033 -0.74641,-0.55573 -1.59138,-0.838944 -2.61078,-0.639904 -0.59424,0.01634 -1.34362,0.485252 -2.12913,1.059501 z"
     id="compensator_left"
     sodipodi:nodetypes="ccscccccccccssccccsssssssssssssssssssssssssssssssssssasasssssssssssssssssssssssssssssssssssssscccccccccccc"
     inkscape:label="compensator_left">
    <title
       id="title3">metal</title>
  </path>
  <path
     style="fill:#5e5e5e;fill-rule:evenodd;stroke:#000000;stroke-width:0.0298261"
     d="m 159.31509,61.234424 2.49766,0.132742 c 0.31045,0.0617 0.55354,0.270179 0.53089,0.518832 -0.0435,0.477373 -0.40236,0.852521 -0.69983,1.182469 -1.20336,1.36354 -2.63901,2.273785 -4.5006,2.352875 l -1.25487,0.01204 -39.68511,-3.873186 0.30166,-3.064764 33.71897,3.277635 c 0.16607,-0.02626 0.30774,-0.101158 0.40951,-0.255965 0.0539,-0.121503 0.0835,-0.246478 0.0262,-0.383941 -0.42192,-0.736038 -0.43423,-1.569979 -0.38395,-2.363345 -0.0418,-0.964477 0.37404,-1.564157 0.58872,-2.303633 0.0574,-0.198409 -0.13892,-0.501852 -0.38394,-0.494855 l -16.7688,0.478902 -18.15933,-1.815934 -0.0363,-0.796354 1.59272,-0.03622 c 0,0 0.1754,0.494132 0.38609,0.50074 0.23788,0.0075 0.23321,-0.521559 0.47057,-0.536934 0.24604,-0.01605 0.30874,0.497915 0.55504,0.488672 0.24722,-0.0093 0.27143,-0.534666 0.51885,-0.530904 0.23758,0.0038 0.24516,0.530804 0.48266,0.524875 0.23261,-0.0061 0.21422,-0.520158 0.44643,-0.536948 0.24283,-0.01752 0.30038,0.509716 0.54296,0.488681 0.22415,-0.01955 0.19321,-0.502532 0.41629,-0.530904 0.25625,-0.03257 0.35826,0.494718 0.61536,0.47057 0.20693,-0.01955 0.20869,-0.451065 0.41628,-0.464539 0.24605,-0.01605 0.31514,0.502123 0.56106,0.482641 0.23903,-0.01897 0.22531,-0.533415 0.46456,-0.549006 0.24137,-0.01576 0.29495,0.493597 0.53692,0.488671 0.22589,-0.0046 0.25655,-0.476631 0.48265,-0.476599 0.23758,3.7e-5 0.2694,0.510246 0.50676,0.50073 0.24926,-0.0099 0.23933,-0.558549 0.48867,-0.567097 0.25451,-0.0087 0.28252,0.551431 0.53694,0.542966 0.23671,-0.0078 0.22825,-0.526278 0.46463,-0.536905 0.2402,-0.01073 0.27872,0.513383 0.51881,0.500743 0.2437,-0.01291 0.22678,-0.549023 0.47057,-0.561068 0.25275,-0.01262 0.29012,0.541709 0.54299,0.530905 0.24926,-0.01073 0.23932,-0.560019 0.48867,-0.567108 0.24603,-0.007 0.26676,0.53157 0.51281,0.530904 0.25042,-6.71e-4 0.2688,-0.551606 0.51884,-0.542963 0.23261,0.0081 0.21364,0.537436 0.44644,0.536934 0.23699,-5.12e-4 0.21569,-0.535654 0.45248,-0.549006 0.25713,-0.01459 0.29785,0.547631 0.55503,0.536937 0.25627,-0.01073 0.25042,-0.566883 0.50677,-0.57917 0.24312,-0.01174 0.28806,0.515035 0.53089,0.50074 0.22503,-0.0132 0.20898,-0.510123 0.43439,-0.518832 0.25567,-0.0099 0.28135,0.561073 0.53695,0.548997 0.24283,-0.01146 0.21568,-0.552859 0.45849,-0.567099 0.24136,-0.01407 0.27727,0.511607 0.51884,0.506773 0.25188,-0.0055 0.26705,-0.546195 0.51884,-0.549006 0.24021,-0.0023 0.26647,0.51864 0.50677,0.512803 0.23494,-0.0055 0.23554,-0.51916 0.47057,-0.524866 0.24021,-0.0061 0.26355,0.51831 0.50676,0.512803 0.24342,-0.0055 0.24838,-0.541893 0.49472,-0.549006 0.24604,-0.007 0.27932,0.532674 0.52489,0.518845 0.2399,-0.01349 0.21247,-0.548256 0.45247,-0.561078 0.27552,-0.01489 0.31019,0.607196 0.58519,0.58521 0.24984,-0.02014 0.1903,-0.594312 0.44042,-0.609341 0.2513,-0.01518 0.26093,0.560707 0.51278,0.555036 0.25247,-0.0055 0.23641,-0.567028 0.4887,-0.579167 0.24428,-0.01174 0.28048,0.520047 0.52486,0.512812 0.23904,-0.007 0.24342,-0.525213 0.48262,-0.530904 0.25597,-0.0061 0.2872,0.552426 0.54299,0.542966 0.23086,-0.0084 0.22211,-0.507049 0.45248,-0.524874 0.22911,-0.01781 0.2958,0.463227 0.52486,0.446447 0.21597,-0.01576 0.21248,-0.469738 0.42834,-0.488671 0.24662,-0.02159 0.33213,0.479598 0.57917,0.464537 0.22998,-0.01407 0.25217,-0.493289 0.48266,-0.49471 0.23612,-0.0016 0.26472,0.50916 0.50072,0.500742 0.23932,-0.0084 0.23116,-0.533714 0.47057,-0.542966 0.2373,-0.009 0.2694,0.504269 0.5068,0.500734 0.23903,-0.0038 0.25568,-0.512055 0.49471,-0.518836 0.25889,-0.0075 0.3089,0.55079 0.56709,0.530905 0.24721,-0.01897 0.21102,-0.573152 0.45849,-0.5852 0.24166,-0.0116 0.25889,0.524898 0.50075,0.524866 0.23903,-2.9e-5 0.25597,-0.509152 0.49471,-0.518833 0.22356,-0.009 0.27727,0.452107 0.50072,0.446435 0.21744,-0.0055 0.24926,-0.426745 0.46457,-0.458507 0.19817,-0.02928 0.31768,0.378945 0.53694,0.500743 0.21393,0.11885 0.22678,-0.526651 0.46452,-0.542967 0.23876,-0.01634 0.29768,0.482309 0.53696,0.4766 0.24165,-0.0055 0.27696,-0.505319 0.51881,-0.506773 0.23903,-0.0016 0.2799,0.502033 0.51885,0.49471 0.22765,-0.007 0.23698,-0.498591 0.46456,-0.50074 0.22881,-0.0023 0.24749,0.497775 0.47658,0.494711 0.25043,-0.0032 0.25655,-0.546434 0.50676,-0.555036 0.24459,-0.0084 0.2869,0.522046 0.53094,0.506773 0.20955,-0.0132 0.18854,-0.473714 0.39815,-0.48868 0.24283,-0.01752 0.29367,0.501768 0.53696,0.49471 0.24866,-0.007 0.27025,-0.528262 0.51884,-0.536934 0.24341,-0.0084 0.29979,0.501543 0.54295,0.488672 0.2402,-0.01291 0.24429,-0.503686 0.48266,-0.536938 0.75128,-0.104813 2.428,0.04363 2.42584,0.0046 1.03027,0.08315 2.01893,0.518602 2.90938,1.15181 0.75421,0.617843 1.40795,1.257211 1.71494,1.970887 0.0803,0.124679 0.13225,0.253135 -0.0263,0.409532 -0.19525,0.314514 -0.29782,0.211048 -0.43513,0.264488 -0.8157,0.145436 -1.64349,0.24858 -2.49133,0.281561 -0.75252,-0.522162 -1.49939,-1.055924 -2.53399,-0.998237 -0.76659,0.01955 -1.57141,0.212477 -2.57664,1.313924 -0.50536,0.690808 -0.6715,1.430074 -0.61432,2.20124 0.0571,0.925712 0.47794,1.673998 1.19449,2.27803 0.74642,0.55573 1.59136,0.838944 2.61078,0.639904 0.59423,-0.01634 1.3436,-0.48525 2.12913,-1.059499 z"
     id="compensator_right"
     sodipodi:nodetypes="ccscccccccccssccccsssssssssssssssssssssssssssssssssssasasssssssssssssssssssssssssssssssssssssscccccccccccc"
     inkscape:label="compensator_right">
    <title
       id="title4">metal</title>
  </path>
</svg>
