<?xml version="1.0" encoding="UTF-8" standalone="no"?>
<!-- Created with Inkscape (http://www.inkscape.org/) -->

<svg
   width="210mm"
   height="297mm"
   viewBox="0 0 210 297"
   version="1.1"
   id="svg1"
   inkscape:version="1.4 (86a8ad7, 2024-10-11)"
   sodipodi:docname="DSHA-15-0130.svg"
   xmlns:inkscape="http://www.inkscape.org/namespaces/inkscape"
   xmlns:sodipodi="http://sodipodi.sourceforge.net/DTD/sodipodi-0.dtd"
   xmlns="http://www.w3.org/2000/svg"
   xmlns:svg="http://www.w3.org/2000/svg">
  <sodipodi:namedview
     id="namedview1"
     pagecolor="#ffffff"
     bordercolor="#000000"
     borderopacity="0.25"
     inkscape:showpageshadow="2"
     inkscape:pageopacity="0.0"
     inkscape:pagecheckerboard="0"
     inkscape:deskcolor="#d1d1d1"
     inkscape:document-units="mm"
     inkscape:zoom="2.9606623"
     inkscape:cx="207.55491"
     inkscape:cy="75.827628"
     inkscape:window-width="2560"
     inkscape:window-height="1377"
     inkscape:window-x="-8"
     inkscape:window-y="-8"
     inkscape:window-maximized="1"
     inkscape:current-layer="svg1" />
  <defs
     id="defs1" />
  <path
     style="fill:#5e5e5e;fill-rule:evenodd;stroke:#000000;stroke-width:0.0424045"
     d="M -30.520503,12.035284 H -20.851 24.79484 c 0.538858,-0.04148 0.945134,-0.303325 1.073478,-1.028409 V 0.12620636 h 1.08568 c 0,0 0.197514,0.520835 0.424531,0.533725 0.22283,0.01232 0.250215,-0.474377 0.473083,-0.473067 0.243166,0.0011 0.266813,0.532967 0.509439,0.521582 0.24399,-0.01162 0.216603,-0.560128 0.460964,-0.570109 0.239847,-0.01008 0.257272,0.531017 0.49732,0.521594 0.224072,-0.0088 0.201254,-0.503862 0.424532,-0.521594 0.253953,-0.02033 0.316194,0.532651 0.570145,0.509465 0.203736,-0.01867 0.375946,-0.485203 0.375946,-0.485203 h 1.043186 v 0.764194 l -1.115968,0.93401794 -0.9726,1.091136 c 0.029,0 -0.556451,0.831031 -0.669028,1.325189 -0.07096,0.311626 0.518934,0.806283 0.518934,0.806283 l 3.156446,-0.0166 1.299456,-0.999253 c 0.719072,-0.342166 1.438093,-0.369716 2.157161,-0.09432 0.827163,0.325734 1.351325,0.840863 1.629674,1.50959 0.334869,0.899162 0.362666,1.639678 0.0332,2.195793 -0.312043,0.749487 -0.755048,1.362576 -1.612538,1.543906 -0.842431,0.394201 -1.624739,0.247313 -2.375879,-0.180088 l -1.123643,-0.849154 h -3.182172 c -0.307066,0.09668 -0.573423,0.238598 -0.497487,0.763385 l 0.900606,1.6125397 1.312367,1.363773 1.638221,0.883469 1.818396,0.454579 3.482343,0.282999 v 1.440999 h -68.878484 v -2.736145 c -0.0033,-0.118263 0.08499,-0.185897 0.227351,-0.223242 z"
     id="profile_left"
     sodipodi:nodetypes="ccccccssssssscccccsccccccccccccccccccccc"
     inkscape:label="profile_left" />
  <path
     style="fill:#5e5e5e;fill-rule:evenodd;stroke:#000000;stroke-width:0.0424045"
     d="m 240.7014,12.046286 h -9.67007 -45.64527 c -0.53886,-0.04148 -0.94514,-0.303326 -1.07348,-1.028411 V 0.13720636 h -1.08568 c 0,0 -0.19751,0.520836 -0.42452,0.533726 -0.22283,0.01232 -0.25021,-0.474376 -0.47309,-0.473068 -0.24316,0.0011 -0.26681,0.532969 -0.50944,0.521582 -0.24398,-0.01162 -0.2166,-0.560126 -0.46096,-0.570107 -0.23985,-0.01008 -0.25727,0.531017 -0.49732,0.521593 -0.22406,-0.0088 -0.20126,-0.503861 -0.42453,-0.521593 -0.25395,-0.02033 -0.31619,0.532652 -0.57015,0.509463 -0.20373,-0.01868 -0.37594,-0.485203 -0.37594,-0.485203 h -1.04318 v 0.764197 l 1.11596,0.93401494 0.9726,1.091138 c -0.0289,0 0.55645,0.83103 0.66903,1.325189 0.071,0.311626 -0.51893,0.806284 -0.51893,0.806284 l -3.15645,-0.01659 -1.29946,-0.999252 c -0.71907,-0.342167 -1.43809,-0.369715 -2.15717,-0.09432 -0.82716,0.325733 -1.35132,0.840862 -1.62966,1.509591 -0.33487,0.899162 -0.36267,1.63968 -0.0332,2.195793 0.31204,0.749485 0.75504,1.362575 1.61253,1.543905 0.84244,0.3942 1.62475,0.247315 2.37588,-0.180087 l 1.12365,-0.849154 h 3.18217 c 0.30706,0.0967 0.57342,0.238597 0.49748,0.763384 l -0.90059,1.6125397 -1.31238,1.363773 -1.63822,0.88347 -1.81839,0.454578 -3.48235,0.283 v 1.440999 h 68.8785 v -2.736149 c 0.004,-0.118263 -0.0849,-0.185897 -0.22735,-0.223242 z"
     id="profile_right"
     sodipodi:nodetypes="ccccccssssssscccccsccccccccccccccccccccc"
     onclick=""
     inkscape:label="profile_right" />
  <rect
     style="fill:#b8b8b8;fill-opacity:1;fill-rule:evenodd;stroke:#b81e1e;stroke-width:0.0451594"
     id="concrete_right"
     width="78.169731"
     height="54.251862"
     x="171.97865"
     y="15.164102" />
  <rect
     style="fill:#b8b8b8;fill-opacity:1;fill-rule:evenodd;stroke:#b81e1e;stroke-width:0.0450992"
     id="concrete_left"
     width="78.208832"
     height="54.080254"
     x="-40.148418"
     y="15.054899" />
  <rect
     style="fill:#a39a9a;fill-rule:evenodd;stroke:#b81e1e;stroke-width:0.0205795"
     id="finish_right"
     width="65.819427"
     height="9.644803"
     x="184.3222"
     y="5.3624005" />
  <rect
     style="fill:#a39a9a;fill-rule:evenodd;stroke:#b81e1e;stroke-width:0.0204448"
     id="finish_left"
     width="65.819572"
     height="9.5185556"
     x="-40.045452"
     y="5.3074355" />
  <rect
     style="fill:#a39a9a;fill-rule:evenodd;stroke:#b81e1e;stroke-width:0.0329314"
     id="cover_right"
     width="65.769066"
     height="4.9670687"
     x="184.25766"
     y="0.30354768" />
  <rect
     style="fill:#a39a9a;fill-rule:evenodd;stroke:#b81e1e;stroke-width:0.0329316"
     id="cover_left"
     width="65.769104"
     height="4.9670682"
     x="-39.998699"
     y="0.23629573" />
  <rect
     style="fill:#404242;fill-opacity:0.341246;fill-rule:evenodd;stroke:#b81e1e;stroke-width:0.021828"
     id="shadow"
     width="196.10831"
     height="0.010663663"
     x="6.0817337"
     y="69.056648"
     inkscape:label="shadow" />
  <ellipse
     style="opacity:0;fill:none;fill-opacity:0;fill-rule:evenodd;stroke-width:0.00368993;stroke-opacity:0"
     id="bolt_left"
     cx="20.756001"
     cy="-12.222942"
     rx="0.094999999"
     ry="0.028942173"
     inkscape:label="bolt_left"
     transform="scale(-1)" />
  <ellipse
     style="opacity:0;fill:none;fill-opacity:0;fill-rule:evenodd;stroke-width:0.000191947;stroke-opacity:0"
     id="bolt_right"
     cx="231.03627"
     cy="12.146371"
     rx="0.0049418169"
     ry="0.0015055466"
     inkscape:label="bolt_right" />
  <path
     style="fill:#5e5e5e;fill-rule:evenodd;stroke:#000000;stroke-width:0.0295938"
     d="M 32.88239,4.3725907 29.913338,4.0732943 C 29.617719,3.937505 29.507026,3.7060441 29.673905,3.3310311 c 0,0 0.659689,-0.8691616 1.029592,-1.2690304 C 30.998693,1.74289 31.295729,1.4170225 31.649289,1.164097 31.95706,0.94392192 32.654935,0.63732979 32.654935,0.63732979 V 0.07465078 l 3.028909,0.03593604 c 0,0 0.237668,0.47067384 0.454935,0.46691161 0.237262,-0.00378 0.241605,-0.52958161 0.478881,-0.52677011 0.237609,0.0031982 0.229413,0.53027164 0.466913,0.53873619 0.231236,0.008432 0.25953,-0.49648519 0.490845,-0.49084668 0.231586,0.0055241 0.235293,0.51866221 0.466913,0.51479337 0.240649,-0.00378 0.227183,-0.52924338 0.466903,-0.5507139 0.262603,-0.02345339 0.348072,0.52745627 0.610576,0.50282439 0.217225,-0.0202746 0.200885,-0.49800578 0.419011,-0.50282439 0.242888,-0.0055241 0.24818,0.52758711 0.490865,0.53874492 0.248315,0.0112906 0.30313,-0.5251371 0.550709,-0.50282439 0.209859,0.01882087 0.173283,0.48327666 0.383104,0.50282439 0.272903,0.0254886 0.336808,-0.56399124 0.610564,-0.5507139 0.248296,0.01216281 0.254285,0.55552378 0.502823,0.5507139 0.234999,-0.004652 0.454938,-0.53874492 0.454938,-0.53874492 0,0 0.254256,0.55440539 0.502823,0.5507139 0.263144,-0.00378 0.251649,-0.60197992 0.514802,-0.5986005 0.252406,0.0031982 0.22649,0.58250197 0.478876,0.58663152 0.248878,0.00378 0.242006,-0.56829814 0.490845,-0.5626887 0.249866,0.0055241 0.217021,0.58208814 0.466916,0.58663151 0.257503,0.004652 0.245311,-0.58246417 0.502824,-0.58663151 0.254169,-0.0037797 0.260594,0.56628811 0.514792,0.5626887 0.237025,-0.003198 0.227934,-0.53548179 0.464969,-0.53808493 0.235726,-0.0023259 0.238304,0.52381615 0.474059,0.52485895 0.237664,7.6757e-4 0.244904,-0.52777802 0.482539,-0.52485895 0.239951,0.0031982 0.23433,0.53097234 0.474069,0.54179192 0.253209,0.0112906 0.296821,-0.52996152 0.550253,-0.52485895 0.239428,0.0046519 0.26011,0.52358743 0.499461,0.51639344 0.234049,-0.006978 0.457137,-0.53332641 0.457137,-0.53332641 h 7.306451 c 0,0 0.169989,0.51519848 0.389094,0.53209849 0.2447,0.0188209 0.275403,-0.52217731 0.520772,-0.52078077 0.248461,0.0015506 0.272505,0.53871875 0.520762,0.53274976 0.237471,-0.005524 0.235445,-0.53223708 0.472906,-0.53274976 0.230221,-4.9814e-4 0.230803,0.50464542 0.460937,0.5147895 0.256582,0.0112906 0.306183,-0.541852 0.562678,-0.52676721 0.250205,0.01476983 0.234272,0.57647872 0.484855,0.57465672 0.242394,-0.001551 0.21864,-0.55425226 0.460918,-0.56267901 0.238333,-0.0084316 0.25223,0.51944916 0.490854,0.52078077 0.229931,0.001551 0.249042,-0.49143688 0.478895,-0.49683795 0.247017,-0.0061056 0.291821,0.51598639 0.538721,0.50880694 0.238333,-0.006978 0.25224,-0.52016148 0.490855,-0.52078465 0.231384,-5.9602e-4 0.247317,0.5040901 0.478895,0.50282439 0.240077,-0.001551 0.250786,-0.52763362 0.490825,-0.52676721 0.265556,7.6757e-4 0.273959,0.60557353 0.538759,0.58663152 0.229068,-0.0165046 0.160433,-0.54550085 0.389094,-0.56867125 0.251359,-0.02548861 0.292257,0.53417828 0.54472,0.5267672 0.235726,-0.006978 0.478895,-0.52078465 0.478895,-0.52078465 0,0 0.305602,0.5578323 0.562668,0.53276236 0.236308,-0.0231626 0.176075,-0.56561553 0.413042,-0.58064896 0.243838,-0.01535132 0.252531,0.53089771 0.496824,0.53874491 0.236889,0.007559 0.27772,-0.49576026 0.514802,-0.49085831 0.241231,0.0055242 0.261797,0.52835467 0.502814,0.52078465 0.246154,-0.00785 0.232547,-0.56929926 0.478895,-0.56267901 0.253394,0.0069779 0.207931,0.59169629 0.460918,0.60458306 0.262368,0.0133161 0.276265,-0.57042638 0.538749,-0.57465381 0.242675,-0.0037797 0.272506,0.53111965 0.514773,0.5147895 0.220094,-0.0147698 0.401092,-0.52676721 0.401092,-0.52676721 h 3.022911 c 0,0 12.279437,4.1575704 12.360293,4.1572108 0.149715,-6.745e-4 0.337865,0.4194979 0.283506,0.4528987 -0.09469,0.180878 -0.232829,0.3099376 -0.440207,0.3555506 L 75.047635,4.9892038 72.162392,3.5465785 h -29.95187 c -0.170163,0.055716 -0.404639,0.058469 -0.457128,0.2585466 l -0.06774,0.2581986 v 4.1283854 c 0.08897,0.2716931 0.228515,0.4674476 0.475018,0.5028234 h 38.830183 l -0.02607,1.8999025 -14.0497,2.460896 H 35.133126 c -1.529726,0.04306 -2.583591,-0.50395 -3.555678,-1.152359 -0.803291,-0.599336 -1.474413,-1.295604 -1.939463,-2.1429903 -0.06849,-0.4401777 0.09843,-0.6281586 0.344166,-0.7317131 l 2.984046,-0.2679289 c 0,0 0.490528,0.3656714 0.778175,0.4489426 0.951423,0.2754291 2.070217,0.5358462 2.969055,0.119717 C 37.407419,9.0077042 37.894651,8.2501246 38.12612,7.5212327 38.351045,6.8129585 38.301931,5.9813543 38.018364,5.294443 37.763959,4.6780741 37.275832,4.1042538 36.677501,3.8099146 35.959511,3.4567103 35.16366,3.6320487 34.414792,3.7261123 c -0.251829,0.031652 -0.495539,0.1189921 -0.730289,0.2154834 -0.280729,0.1154024 -0.802127,0.430994 -0.802127,0.430994 z"
     id="compensator_left"
     sodipodi:nodetypes="cccsscccssssssssssssscsssssssssssssccssssssssssssssssscsssssssssccscccccscccccccccccsssssaac"
     inkscape:label="compensator_left">
    <title
       id="title6">metal</title>
  </path>
  <path
     style="fill:#5e5e5e;fill-rule:evenodd;stroke:#000000;stroke-width:0.0295938"
     d="m 177.37033,4.4028562 2.96905,-0.2992973 c 0.29561,-0.1357884 0.40633,-0.3672492 0.23949,-0.7422632 0,0 -0.65968,-0.8691607 -1.02958,-1.2690305 -0.29521,-0.3191106 -0.59223,-0.6449781 -0.9458,-0.8979027 -0.30774,-0.22017504 -1.00563,-0.52676716 -1.00563,-0.52676716 V 0.10491536 l -3.0289,0.035936 c 0,0 -0.23777,0.47067385 -0.45495,0.46691258 -0.23718,-0.00378 -0.24152,-0.52958258 -0.47887,-0.5267672 -0.23775,0.0031982 -0.22936,0.53026777 -0.4669,0.53873328 -0.23139,0.008432 -0.25948,-0.49648518 -0.49086,-0.49084667 -0.23167,0.005524 -0.23543,0.51866124 -0.46691,0.5147924 -0.24065,-0.00378 -0.22733,-0.52924338 -0.4669,-0.5507139 -0.26266,-0.0234534 -0.34809,0.52745724 -0.61058,0.50282438 -0.21719,-0.0202746 -0.20097,-0.4980019 -0.41904,-0.50282438 -0.24296,-0.0055241 -0.24818,0.5275871 -0.49085,0.53874491 -0.24818,0.0112906 -0.30311,-0.52513709 -0.55068,-0.50282341 -0.20996,0.0188209 -0.17318,0.48327665 -0.38313,0.50282341 -0.27279,0.0254886 -0.33679,-0.56399123 -0.61058,-0.55071002 -0.24817,0.01216282 -0.25425,0.55552087 -0.50281,0.55071002 -0.23486,-0.004652 -0.45492,-0.53874491 -0.45492,-0.53874491 0,0 -0.25426,0.55440635 -0.50284,0.5507139 -0.26323,-0.00378 -0.25165,-0.60197993 -0.51481,-0.59860051 -0.25223,0.0031982 -0.22646,0.58250198 -0.47886,0.58663152 -0.24876,0.00378 -0.24209,-0.56829716 -0.49086,-0.56268773 -0.24991,0.0055242 -0.2169,0.58208815 -0.4669,0.58663152 -0.25745,0.004652 -0.24528,-0.58246418 -0.50282,-0.58663152 -0.25426,-0.0037797 -0.26063,0.56628812 -0.5148,0.56268773 -0.23718,-0.003198 -0.22791,-0.53548082 -0.46497,-0.53808395 -0.23572,-0.002326 -0.23833,0.52381614 -0.47406,0.52485895 -0.23775,7.6756e-4 -0.24499,-0.52777803 -0.48254,-0.52485895 -0.24007,0.0031982 -0.23428,0.53097234 -0.47406,0.54179094 -0.25311,0.0112906 -0.29683,-0.52996151 -0.55025,-0.52485894 -0.23949,0.004652 -0.26005,0.52358742 -0.49946,0.5163944 -0.23399,-0.006978 -0.45715,-0.5333264 -0.45715,-0.5333264 h -7.30644 c 0,0 -0.16999,0.5151975 -0.38909,0.53209849 -0.24471,0.0188209 -0.2754,-0.52217732 -0.5208,-0.52078174 -0.24847,0.001551 -0.27251,0.53871874 -0.52077,0.53275072 -0.23746,-0.005524 -0.23544,-0.53223804 -0.4729,-0.53275072 -0.23023,-4.9814e-4 -0.2308,0.50464541 -0.46092,0.51479046 -0.25657,0.0112906 -0.30621,-0.54185297 -0.56269,-0.52676817 -0.25021,0.01476983 -0.23429,0.57648162 -0.48487,0.57465768 -0.24238,-0.001551 -0.21864,-0.55425322 -0.46091,-0.56267997 -0.23833,-0.0084316 -0.25223,0.51944916 -0.49085,0.52078174 -0.22994,0.001551 -0.24905,-0.49143786 -0.47887,-0.49683795 -0.24702,-0.006106 -0.29185,0.51598542 -0.53876,0.50880693 -0.23833,-0.006978 -0.25223,-0.52016245 -0.49085,-0.52078174 -0.23139,-5.999e-4 -0.24731,0.50408622 -0.47887,0.50282148 -0.24007,-0.001551 -0.25078,-0.52763362 -0.49085,-0.52676817 -0.26556,7.6757e-4 -0.27395,0.60557353 -0.53875,0.58663152 -0.22907,-0.0165046 -0.16043,-0.54550085 -0.38907,-0.56867029 -0.25136,-0.02548861 -0.29225,0.53417732 -0.54475,0.5267672 -0.23572,-0.006978 -0.47886,-0.52078174 -0.47886,-0.52078174 0,0 -0.30561,0.55782842 -0.56268,0.53275848 -0.23631,-0.0231627 -0.17606,-0.56561552 -0.41304,-0.58064799 -0.24384,-0.01535131 -0.25252,0.53089675 -0.49684,0.53874491 -0.23689,0.007559 -0.27772,-0.49576123 -0.51479,-0.4908554 -0.24123,0.005524 -0.26178,0.52835177 -0.50284,0.52078174 -0.24615,-0.00785 -0.23254,-0.56930023 -0.47887,-0.56267997 -0.25339,0.0069779 -0.20792,0.59169629 -0.4609,0.60458306 -0.26237,0.0133258 -0.27628,-0.57042542 -0.53876,-0.57465381 -0.24268,-0.00378 -0.2728,0.53111965 -0.51481,0.51479046 -0.22008,-0.0147698 -0.40105,-0.52676817 -0.40105,-0.52676817 h -3.02292 c 0,0 -12.27942,4.15757035 -12.36031,4.15721175 -0.14972,-6.745e-4 -0.33786,0.419497 -0.28351,0.4528987 0.0947,0.1808781 0.23284,0.3099367 0.4402,0.3555497 l 10.56953,-0.039154 2.88524,-1.4426224 h 29.95196 c 0.17028,0.055687 0.40465,0.058469 0.45715,0.2585456 l 0.0677,0.2581986 v 4.1283854 c -0.0889,0.2716941 -0.22849,0.4674476 -0.47504,0.5028244 h -38.83014 l 0.0261,1.8999034 14.04972,2.460896 h 31.78267 c 1.52972,0.04306 2.58357,-0.503951 3.55567,-1.152361 0.8033,-0.599336 1.47442,-1.295602 1.93947,-2.1429902 0.0686,-0.4401767 -0.0985,-0.6281586 -0.34418,-0.7317131 l -2.98405,-0.2679289 c 0,0 -0.49051,0.3656714 -0.77816,0.4489426 -0.95144,0.2754301 -2.07022,0.5358462 -2.96905,0.119717 -0.694,-0.3212941 -1.18123,-1.0788738 -1.4127,-1.8077666 -0.22502,-0.7082733 -0.17579,-1.5398784 0.10773,-2.2267887 0.25454,-0.6163699 0.7425,-1.1901892 1.34085,-1.4845265 0.71799,-0.3532072 1.51383,-0.1778659 2.26271,-0.083802 0.25195,0.031652 0.49552,0.1189931 0.73029,0.2154844 0.28061,0.1154014 0.80211,0.430994 0.80211,0.430994 z"
     id="compensator_right"
     sodipodi:nodetypes="cccsscccssssssssssssscsssssssssssssccssssssssssssssssscsssssssssccscccccscccccccccccsssssaac"
     inkscape:label="compensator_right">
    <title
       id="title5">metal</title>
  </path>
  <path
     style="fill:#5e5e5e;fill-rule:evenodd;stroke:#000000;stroke-width:0.0295938"
     d="m 72.083118,3.7966082 h -2.47191 c -0.173468,0.031187 -0.317164,0.1219751 -0.389414,0.3555525 l -0.03392,4.0126332 c 0.04167,0.256114 0.119312,0.4744739 0.406354,0.4740591 H 140.8058 c 0.27917,-0.042681 0.45448,-0.1943725 0.50791,-0.4740591 v -4.046501 c -0.0976,-0.1922879 -0.23195,-0.3593061 -0.54179,-0.4063408 h -2.40418 L 135.3371,5.2018786 H 75.113695 Z"
     id="compensator_middle"
     sodipodi:nodetypes="ccccccccccccc"
     inkscape:label="compensator_middle">
    <title
       id="title4">metal</title>
  </path>
</svg>
