<?xml version="1.0" encoding="UTF-8" standalone="no"?>
<!-- Created with Inkscape (http://www.inkscape.org/) -->

<svg
   width="210mm"
   height="297mm"
   viewBox="0 0 210 297"
   version="1.1"
   id="svg1"
   inkscape:version="1.4 (86a8ad7, 2024-10-11)"
   sodipodi:docname="DSHA-75-050-corner.svg"
   xmlns:inkscape="http://www.inkscape.org/namespaces/inkscape"
   xmlns:sodipodi="http://sodipodi.sourceforge.net/DTD/sodipodi-0.dtd"
   xmlns="http://www.w3.org/2000/svg"
   xmlns:svg="http://www.w3.org/2000/svg">
  <sodipodi:namedview
     id="namedview1"
     pagecolor="#ffffff"
     bordercolor="#000000"
     borderopacity="0.25"
     inkscape:showpageshadow="2"
     inkscape:pageopacity="0.0"
     inkscape:pagecheckerboard="0"
     inkscape:deskcolor="#d1d1d1"
     inkscape:document-units="mm"
     inkscape:zoom="1.0467522"
     inkscape:cx="492.47566"
     inkscape:cy="124.67134"
     inkscape:window-width="2560"
     inkscape:window-height="1377"
     inkscape:window-x="-8"
     inkscape:window-y="-8"
     inkscape:window-maximized="1"
     inkscape:current-layer="svg1" />
  <defs
     id="defs1" />
  <rect
     style="fill:#b8b8b8;fill-opacity:1;fill-rule:evenodd;stroke:#b81e1e;stroke-width:0.033353"
     id="concrete_left"
     width="78.220573"
     height="29.5737"
     x="20.344543"
     y="75.087799" />
  <rect
     style="fill:#a39a9a;fill-rule:evenodd;stroke:#b81e1e;stroke-width:0.0551358"
     id="finish_left"
     width="65.784874"
     height="69.263016"
     x="20.318371"
     y="5.8504615" />
  <rect
     style="fill:#a39a9a;fill-rule:evenodd;stroke:#b81e1e;stroke-width:0.0341611"
     id="cover_left"
     width="65.767876"
     height="5.3449874"
     x="20.348415"
     y="0.38344243" />
  <rect
     style="fill:#404242;fill-opacity:0.341246;fill-rule:evenodd;stroke:#b81e1e;stroke-width:0.0193496"
     id="shadow"
     width="125.04297"
     height="0.013142006"
     x="63.026562"
     y="104.23383"
     inkscape:label="shadow" />
  <ellipse
     style="opacity:0;fill:none;fill-opacity:0;fill-rule:evenodd;stroke-width:0.00368993;stroke-opacity:0"
     id="bolt_left"
     cx="-38.661694"
     cy="-72.648941"
     rx="0.094999999"
     ry="0.028942173"
     inkscape:label="bolt_left"
     transform="scale(-1)" />
  <ellipse
     style="opacity:0;fill:none;fill-opacity:0;fill-rule:evenodd;stroke-width:0.000191947;stroke-opacity:0"
     id="screw_right"
     cx="164.69833"
     cy="-35.456493"
     rx="0.0049418169"
     ry="0.0015055466"
     inkscape:label="screw_right" />
  <path
     id="profile_left"
     style="display:inline;fill:#5e5e5e;fill-rule:evenodd;stroke:#000000;stroke-width:0.0421211"
     d="M 86.169245,0.12106055 V 70.55147 c -0.17263,1.41678 -0.99041,1.86676 -2.011248,2.01124 H 38.772275 28.759615 l -0.0131,2.516229 h 69.8384 V 13.514091 l -2.49881,-0.35697 -1.57591,-0.282981 -2.46399,-1.02303 -1.76092,-1.612909 -0.51587,-1.2907505 c -0.10813,-0.33406 0.0175,-0.56986 0.20896,-0.7771 h 2.99074 c 0,0 0.53676,0.61527 0.89897,0.77491 0.96073,0.42289 2.14366,0.73522 3.12786,0.37003 0.63729,-0.23646 1.14657,-0.86352 1.38002,-1.50191 0.30469,-0.83336 -0.0211,-2.50569 -0.11102,-2.65986 -0.5904,-1.01041 -1.36936,-1.61071 -2.49446,-1.6129399 -0.64814,0.0243 -1.55503,0.1774899 -2.6773,1.2429099 l -0.34391,0.148 h -2.47487 c -0.65439,-0.20583 -0.54333,-0.55359 -0.51806,-0.8859199 l 0.50499,-1.0361001 0.91203,-0.9598999 0.96644,-0.79882 V 0.12540055 h -1.11009 c 0,0 -0.18249,0.50961999 -0.4005,0.51803999 -0.23386,0.0108 -0.24485,-0.52211999 -0.47888,-0.51370999 -0.24609,0.007 -0.22856,0.55330999 -0.47451,0.56593999 -0.26654,0.0117 -0.29931,-0.57434999 -0.56593,-0.56593999 -0.23642,0.008 -0.22926,0.53216999 -0.46581,0.53548999 -0.24027,0.003 -0.24736,-0.52267999 -0.48758,-0.53109999 -0.25337,-0.008 -0.29726,0.56041999 -0.54852,0.52671999 -0.20765,-0.0279 -0.32214,-0.53977999 -0.32214,-0.53977999 z m 2.50752,11.59729045 c 0.0448,1.1e-4 0.0935,0.003 0.14584,0.013 l 1.37564,1.11444 1.09705,0.870681 1.35824,0.679119 1.35824,0.365661 2.0896,0.29603 c 0.4484,0.23797 0.54818,0.47596 0.48757,0.71395 v 15.21927 h -8.44546 V 12.23634 c 0.0844,-0.29334 0.21997,-0.518889 0.53328,-0.51804 z m -0.59423,20.36271 h 8.51947 V 52.00408 h -8.42152 z m 0.074,20.932999 h 8.44547 v 20.07103 h -8.49553 z"
     inkscape:label="profile_left" />
  <path
     style="fill:#5e5e5e;fill-rule:evenodd;stroke:#000000;stroke-width:0.0441661"
     d="m 159.42482,8.2072717 h 3.29292 c 0.0846,-0.0709 0.72166,0.39848 0.52726,0.78512 -0.22127,0.44001 -0.41877,0.93966 -0.67956,1.3710703 -0.25974,0.4296 -0.59704,0.81424 -0.96096,1.16012 -0.40281,0.38249 -1.33586,0.99606 -1.33586,0.99606 v 0.71484 h 1.24207 c 0,0 0.13873,-0.47882 0.33969,-0.50389 0.24462,-0.0302 0.30469,0.50467 0.55083,0.49218 0.24289,-0.0129 0.24894,-0.54162 0.49218,-0.53907 0.24937,0.002 0.24332,0.55156 0.49216,0.5625 0.25932,0.0129 0.30298,-0.54335 0.5625,-0.53903 0.23467,0.004 0.25759,0.49835 0.49214,0.50389 0.23467,0.004 0.28135,-0.49689 0.51559,-0.48047 0.21048,0.0129 0.39848,0.49218 0.39848,0.49218 h 1.12499 v -61.595689 h -0.86049 l -1.43049,4.227839 v 1.59369 c 0,0 0.52004,0.16294 0.53318,0.38075 0.013,0.24852 -0.54258,0.255 -0.55082,0.50389 -0.013,0.25975 0.54603,0.30297 0.53907,0.56254 -0.013,0.25672 -0.56799,0.27055 -0.5625,0.52731 0,0.25759 0.58077,0.24635 0.58592,0.50389 0,0.23468 -0.50865,0.24548 -0.5156,0.48046 -0.013,0.22647 0.47147,0.2658 0.46871,0.49218 0,0.23727 -0.50748,0.26623 -0.5038,0.50389 0,0.26795 0.58716,0.28264 0.58591,0.55077 0,0.2766 -0.6214,0.28611 -0.60938,0.5625 0.013,0.26147 0.61336,0.21869 0.62107,0.48046 0.013,0.24332 -0.4963,0.24289 -0.55075,0.48046 -0.0891,0.38897 0.47639,0.70257 0.46875,1.10152 -0.013,0.37557 -0.55473,0.65122 -0.48051,1.01953 0.0432,0.20615 0.45945,0.21177 0.46871,0.42182 0.013,0.23467 -0.48315,0.28049 -0.48037,0.51559 0,0.2403 0.50517,0.27531 0.50384,0.51561 0,0.23208 -0.47995,0.26061 -0.49218,0.49217 -0.013,0.23598 0.45099,0.31463 0.44528,0.55078 -0.013,0.24073 -0.48724,0.29864 -0.48037,0.53907 0.013,0.25413 0.53763,0.28481 0.53902,0.53902 0,0.25672 -0.55653,0.29432 -0.53902,0.55079 0.0173,0.24158 0.56876,0.20312 0.57413,0.44532 0.013,0.27141 -0.62526,0.25585 -0.62102,0.52731 0,0.26969 0.62606,0.23424 0.6328,0.50389 0.013,0.26579 -0.58653,0.2619 -0.59771,0.52735 -0.013,0.25413 0.53448,0.29649 0.5274,0.55074 -0.013,0.24591 -0.54331,0.25802 -0.53907,0.50393 0,0.24375 0.54386,0.23684 0.55074,0.48046 0.013,0.2403 -0.51289,0.26364 -0.51565,0.50389 0,0.2403 0.51322,0.27531 0.50398,0.515601 -0.013,0.25456 -0.57464,0.24937 -0.57429,0.50389 3.3e-4,0.24375 0.53622,0.23727 0.55081,0.48046 0.0172,0.26234 -0.54303,0.32371 -0.52735,0.58592 0.013,0.2485 0.55562,0.24332 0.5625,0.49217 0.013,0.24592 -0.52294,0.26969 -0.52727,0.5156 0,0.23209 0.48745,0.27185 0.48037,0.50393 -0.013,0.22388 -0.48245,0.23339 -0.49217,0.457 -0.013,0.27919 0.58695,0.34272 0.56249,0.62109 -0.0216,0.24116 -0.55631,0.204 -0.57416,0.44529 -0.0173,0.27141 0.58354,0.31809 0.56491,0.58946 -0.0173,0.23554 -0.54982,0.20313 -0.55518,0.43919 0,0.24851 0.56456,0.2403 0.56339,0.48889 0,0.26839 -0.66275,0.48046 -0.61314,0.52204 0.0492,0.0432 0.60869,0.24721 0.61314,0.51374 0,0.2524 -0.55848,0.25327 -0.56339,0.50545 0,0.25801 0.5563,0.28092 0.55518,0.53859 -0.002,0.24418 -0.53665,0.26147 -0.53038,0.50548 0.013,0.23295 0.51893,0.22301 0.53038,0.45574 0.013,0.25932 -0.54352,0.30384 -0.5386,0.56345 0,0.2498 0.53847,0.27185 0.5386,0.52204 9e-5,0.26968 -0.59041,0.29389 -0.58012,0.56344 0.013,0.25888 0.60048,0.23814 0.59668,0.49719 0,0.24591 -0.57322,0.21004 -0.58009,0.45574 -0.013,0.24635 0.54361,0.24246 0.55514,0.48889 0.013,0.26147 -0.54541,0.30988 -0.53853,0.57174 0.013,0.25586 0.56633,0.27444 0.55513,0.53034 -0.013,0.24721 -0.56145,0.21696 -0.57999,0.46404 -0.0172,0.24765 0.5082,0.29864 0.50544,0.54689 0,0.22647 -0.47774,0.26234 -0.47226,0.48889 0.013,0.25413 0.56022,0.26796 0.55516,0.52204 0,0.24851 -0.55996,0.24029 -0.56348,0.48885 0,0.2286199 0.49073,0.2359699 0.50538,0.4640399 0.0173,0.25239 -0.49663,0.32716 -0.48884,0.58004 0.013,0.25196 0.52199,0.29475 0.52199,0.54689 0,0.24807 -0.51213,0.29043 -0.51373,0.53859 0,0.2148 0.43931,0.25715 0.43918,0.47234 -8e-5,0.22257 -0.45786,0.26622 -0.45566,0.48889 0,0.25802 0.55242,0.29777 0.5386,0.55515 -0.013,0.232939 -0.52982,0.214359 -0.5386,0.447479 -0.013,0.23036 0.49603,0.25023 0.49706,0.48059 0.002,0.25197 -0.53768,0.27833 -0.53858,0.5303 -7.8e-4,0.23813 0.49446,0.26752 0.50556,0.50548 0.013,0.25067 -0.49342,0.32933 -0.48062,0.58004 0.013,0.22431 0.48062,0.24765 0.48062,0.4723 0,0.21696 -0.44061,0.2403 -0.46404,0.45574 -0.0172,0.15083 0.24851,0.38119 0.24851,0.38119 v 1.62407018 c -0.0696,0.29692 -0.22948,0.5297298 -0.59654,0.6131898 H 160.299 v 0.74578 l 1.26782,1.00263982 1.05233,1.17663 c -0.013,0 0.46737,0.81372 0.62153,1.28437 0.13096,0.39978 -0.52134,0.90051 -0.55518,0.87004 h -3.26479 c -0.7314,-0.78321 -1.57645,-1.20784 -2.5108,-1.35067 -0.0172,-0.0346 -1.54485,0.24073 -2.07976,0.82033 -0.47286,0.51249 -1.00492,1.28131 -1.03579,2.07986 -0.0303,0.79086 0.34359,1.63635 0.90315,2.19586 0.5764,0.57619 1.45167,0.72539 2.23734,0.68774 0.51127,-0.0259 0.96582,-0.12966 1.34234,-0.35613 0.40539,-0.24375 1.1475,-0.83502 1.1475,-0.83502 z"
     id="profile_right"
     sodipodi:nodetypes="ccssscccsssssssccccccsssssssssssssssssssssssssssssssssssssssssssssssssssssssssssssssssssssssssssscccccccscccsssssc"
     inkscape:label="profile_right" />
  <rect
     style="fill:#e1ecec;fill-opacity:0.77;fill-rule:evenodd;stroke:#b81e1e;stroke-width:0.0081378"
     id="finish_right"
     width="57.514656"
     height="2.036227"
     x="-4.9202671"
     y="166.71803"
     inkscape:label="finish_right"
     transform="rotate(-90)" />
  <rect
     style="fill:#e1ecec;fill-opacity:0.77;fill-rule:evenodd;stroke:#b81e1e;stroke-width:0.00933925"
     id="cover_right"
     width="57.494617"
     height="0.12774748"
     x="-4.9066343"
     y="166.5423"
     inkscape:label="cover_right"
     transform="rotate(-90)" />
  <path
     style="fill:#e1ecec;fill-opacity:0.77;fill-rule:evenodd;stroke:#b81e1e;stroke-width:0.0116676"
     d="m 168.76647,-52.582441 h 20.93689 V 104.90486 H 166.52223 V 4.9599641 h 2.23314 z"
     id="concrete_right"
     inkscape:label="concrete_right"
     sodipodi:nodetypes="ccccccc" />
  <path
     style="fill:#5e5e5e;fill-rule:evenodd;stroke:#000000;stroke-width:0.0298261"
     d="M 93.115736,4.4885712 90.618077,4.3558295 C 90.307618,4.294128 90.064529,4.0856507 90.087173,3.8369927 90.130661,3.3596199 90.489516,2.9844745 90.786999,2.6545256 91.990341,1.2909852 93.425998,0.38074157 95.287617,0.30164902 l 1.254865,-0.0120358 39.685078,3.87318258 -0.30164,3.064766 -33.71895,-3.2776371 c -0.16605,0.026276 -0.30776,0.1011586 -0.40954,0.255965 -0.0539,0.1215035 -0.0834,0.2464799 -0.0257,0.3839446 0.42191,0.7360379 0.43422,1.569976 0.38394,2.3633449 0.0419,0.9644786 -0.37403,1.5641567 -0.58871,2.3036299 -0.0576,0.1984397 0.13892,0.5018547 0.38395,0.4948566 l 16.76878,-0.4789027 18.15937,1.815933 0.0362,0.796358 -1.59273,0.03622 c 0,0 -0.17542,-0.494133 -0.3861,-0.500744 -0.23787,-0.0075 -0.23321,0.521561 -0.47059,0.536937 -0.24603,0.01605 -0.30869,-0.497915 -0.55503,-0.488671 -0.2472,0.0093 -0.27143,0.534663 -0.51882,0.530903 -0.23757,-0.0038 -0.24517,-0.530804 -0.48265,-0.524873 -0.23262,0.0061 -0.21424,0.520155 -0.44644,0.536942 -0.24283,0.01752 -0.30039,-0.509714 -0.54299,-0.48868 -0.22414,0.01956 -0.19321,0.502536 -0.41625,0.530907 -0.25626,0.03257 -0.35829,-0.494719 -0.61536,-0.470573 -0.20694,0.01956 -0.20868,0.451065 -0.41629,0.464541 -0.24633,0.01605 -0.31512,-0.502123 -0.56109,-0.482638 -0.23903,0.01897 -0.22532,0.53341 -0.46452,0.549001 -0.24137,0.01576 -0.295,-0.493597 -0.53694,-0.48867 -0.22591,0.0046 -0.25655,0.476635 -0.48264,0.476603 -0.23757,-3.9e-5 -0.26938,-0.510247 -0.50676,-0.500736 -0.24925,0.0099 -0.23933,0.558551 -0.4887,0.567099 -0.25451,0.0087 -0.28252,-0.551427 -0.53691,-0.542966 -0.23641,0.0078 -0.22823,0.52628 -0.46461,0.536905 -0.24021,0.01073 -0.27874,-0.513382 -0.51886,-0.500741 -0.2437,0.01291 -0.22677,0.54902 -0.47057,0.561069 -0.25275,0.01262 -0.29011,-0.541709 -0.54295,-0.530904 -0.24925,0.01073 -0.23934,0.560015 -0.48868,0.567103 -0.24604,0.007 -0.26676,-0.531566 -0.5128,-0.530903 -0.25041,6.71e-4 -0.2688,0.551609 -0.51884,0.542966 -0.23262,-0.0081 -0.21366,-0.537435 -0.44644,-0.536934 -0.23699,5.08e-4 -0.21569,0.535652 -0.45247,0.549003 -0.25714,0.01459 -0.29785,-0.547628 -0.55504,-0.536934 -0.25626,0.01073 -0.25042,0.566882 -0.50677,0.57917 -0.24312,0.01175 -0.28807,-0.515036 -0.53091,-0.500743 -0.22531,0.01349 -0.20897,0.510124 -0.43437,0.518836 -0.25568,0.0099 -0.28136,-0.561078 -0.53694,-0.549 -0.24284,0.01131 -0.21569,0.552861 -0.45852,0.567101 -0.24137,0.01407 -0.27699,-0.511609 -0.51882,-0.506773 -0.25188,0.0055 -0.26706,0.546194 -0.51886,0.549006 -0.24019,0.0023 -0.26647,-0.518644 -0.50676,-0.512806 -0.23495,0.0055 -0.23582,0.519159 -0.4706,0.524865 -0.24019,0.0061 -0.26355,-0.518308 -0.50676,-0.512803 -0.24312,0.0055 -0.24837,0.541893 -0.4947,0.549006 -0.24575,0.007 -0.27932,-0.532672 -0.52486,-0.518841 -0.23992,0.01349 -0.21249,0.548255 -0.45248,0.561074 -0.27553,0.01489 -0.31023,-0.607192 -0.5852,-0.585205 -0.24984,0.02014 -0.19029,0.594311 -0.44042,0.609337 -0.25129,0.01518 -0.26092,-0.560704 -0.5128,-0.555036 -0.25246,0.0055 -0.23641,0.567028 -0.48867,0.57917 -0.24429,0.01175 -0.28049,-0.520048 -0.52486,-0.512812 -0.23903,0.007 -0.24341,0.525213 -0.48266,0.530905 -0.25596,0.0061 -0.28719,-0.552427 -0.54295,-0.542968 -0.23087,0.0084 -0.22211,0.50705 -0.45249,0.524875 -0.2291,0.01781 -0.2958,-0.463227 -0.52487,-0.446448 -0.21599,0.01576 -0.21248,0.469735 -0.42835,0.488672 -0.24663,0.02159 -0.33214,-0.479597 -0.57918,-0.464541 -0.22998,0.01407 -0.25217,0.493289 -0.48262,0.49471 -0.23612,0.0016 -0.26473,-0.509157 -0.50075,-0.50074 -0.23933,0.0084 -0.23115,0.533715 -0.47058,0.542967 -0.23728,0.009 -0.26938,-0.504271 -0.50676,-0.500734 -0.23904,0.0038 -0.25596,0.512053 -0.4947,0.518832 -0.25889,0.0075 -0.30892,-0.550788 -0.56711,-0.530903 -0.2472,0.01897 -0.21102,0.573155 -0.4585,0.585199 -0.24168,0.01175 -0.25889,-0.524893 -0.50074,-0.524864 -0.23903,3.1e-5 -0.25595,0.509151 -0.4947,0.518835 -0.22357,0.009 -0.27727,-0.452106 -0.50076,-0.446439 -0.21744,0.0055 -0.24924,0.426747 -0.46452,0.458507 -0.19819,0.02928 -0.3177,-0.378945 -0.53696,-0.50074 -0.21393,-0.11885 -0.22689,0.526648 -0.46453,0.542968 -0.23875,0.01634 -0.29769,-0.482309 -0.53693,-0.476603 -0.2417,0.0055 -0.2771,0.505322 -0.51885,0.506772 -0.23894,0.0016 -0.27998,-0.50203 -0.51884,-0.49471 -0.22756,0.007 -0.23687,0.498595 -0.46454,0.50074 -0.22897,0.0023 -0.24764,-0.497775 -0.4766,-0.494711 -0.2505,0.0032 -0.25641,0.546435 -0.50678,0.555039 -0.24449,0.0084 -0.28673,-0.522049 -0.530893,-0.506772 -0.209713,0.0132 -0.188614,0.473713 -0.398197,0.48868 -0.242731,0.01752 -0.293658,-0.50177 -0.536926,-0.49471 -0.248779,0.007 -0.270124,0.528263 -0.518844,0.536934 -0.243355,0.0084 -0.299808,-0.501546 -0.54296,-0.488672 -0.240324,0.01291 -0.244297,0.503682 -0.482649,0.536934 -0.751309,0.104813 -2.428008,-0.04363 -2.42584,-0.0046 C 93.967072,12.859096 92.9784,12.423644 92.087947,11.790435 91.333795,11.172557 90.68006,10.533184 90.373076,9.8195127 90.292814,9.6948335 90.240915,9.5663783 90.398758,9.4099768 90.594103,9.0954671 90.696565,9.19893 90.833889,9.1454896 91.649598,9.0000538 92.477383,8.8969085 93.325227,8.8639275 94.077735,9.3860909 94.824606,9.9198521 95.85921,9.8621687 96.625788,9.8426067 97.430616,9.6496906 98.435865,8.5482447 98.941209,7.8574339 99.107346,7.118171 99.050169,6.3470031 98.993035,5.4212913 98.572247,4.6730074 97.855697,4.0689703 97.109289,3.5132401 96.26432,3.2300264 95.244913,3.4290664 94.650679,3.445409 93.901296,3.9143176 93.115789,4.4885669 Z"
     id="compensator_left"
     sodipodi:nodetypes="ccscccccccccssccccsssssssssssssssssssssssssssssssssssasasssssssssssssssssssssssssssssssssssssscccccccccccc"
     inkscape:label="compensator_left">
    <title
       id="title3">metal</title>
  </path>
  <path
     style="fill:#5e5e5e;fill-rule:evenodd;stroke:#000000;stroke-width:0.0298261"
     d="m 159.53063,8.511437 2.49766,0.1327417 c 0.31045,0.061701 0.55354,0.2701788 0.53089,0.5188324 -0.0435,0.4773728 -0.40235,0.8525209 -0.69983,1.1824689 -1.20336,1.36354 -2.63901,2.273785 -4.5006,2.352875 l -1.25487,0.01204 -39.68511,-3.8731858 0.30166,-3.0647646 33.71897,3.2776357 c 0.16607,-0.026261 0.30774,-0.1011587 0.40951,-0.255965 0.0539,-0.1215035 0.0835,-0.2464785 0.0263,-0.3839417 -0.42192,-0.7360379 -0.43423,-1.569979 -0.38396,-2.3633449 -0.0418,-0.9644772 0.37404,-1.5641568 0.58873,-2.3036328 0.0574,-0.1984093 -0.13892,-0.5018519 -0.38395,-0.4948552 l -16.7688,0.4789027 -18.15933,-1.815934 -0.0362,-0.7963545 1.59271,-0.036223 c 0,0 0.1754,0.4941315 0.3861,0.5007396 0.23787,0.00754 0.2332,-0.5215586 0.47057,-0.536934 0.24604,-0.016053 0.30874,0.4979149 0.55504,0.4886719 0.24721,-0.00928 0.27142,-0.53466601 0.51884,-0.5309045 0.23758,0.00377 0.24517,0.5308045 0.48266,0.524875 0.23261,-0.00609 0.21423,-0.5201578 0.44643,-0.536947 0.24283,-0.0175171 0.30039,0.5097157 0.54296,0.4886806 0.22416,-0.019547 0.19321,-0.50253191 0.41629,-0.53090447 0.25625,-0.0325691 0.35826,0.49471887 0.61537,0.47057037 0.20692,-0.019547 0.20868,-0.45106514 0.41627,-0.46453943 0.24606,-0.0160526 0.31514,0.50212303 0.56106,0.48264103 0.23903,-0.018967 0.22532,-0.53341466 0.46457,-0.54900608 0.24137,-0.0157625 0.29495,0.49359788 0.53691,0.48867188 0.2259,-0.00464 0.25655,-0.47663174 0.48265,-0.47659984 0.23758,3.77e-5 0.2694,0.51024644 0.50676,0.50073094 0.24926,-0.00986 0.23933,-0.55854914 0.48867,-0.56709745 0.25451,-0.008701 0.28252,0.55143065 0.53694,0.54296635 0.23672,-0.00783 0.22825,-0.52627865 0.46463,-0.53690495 0.24021,-0.0107307 0.27872,0.51338305 0.51881,0.50074255 0.24371,-0.012906 0.22678,-0.54902347 0.47057,-0.56106796 0.25276,-0.0126158 0.29012,0.54170916 0.54299,0.53090446 0.24926,-0.010731 0.23933,-0.56001802 0.48867,-0.56710754 0.24604,-0.00696 0.26676,0.53157014 0.51281,0.53090454 0.25042,-6.714e-4 0.26881,-0.5516061 0.51885,-0.54296353 0.2326,0.008121 0.21364,0.53743573 0.44644,0.53693403 0.23699,-5.119e-4 0.21568,-0.5356536 0.45247,-0.54900607 0.25713,-0.014588 0.29785,0.54763137 0.55504,0.53693687 0.25626,-0.010731 0.25041,-0.56688279 0.50676,-0.57916945 0.24313,-0.0117458 0.28806,0.51503465 0.5309,0.50073965 0.22502,-0.013196 0.20897,-0.51012321 0.43439,-0.51883248 0.25566,-0.009861 0.28134,0.56107378 0.53694,0.54899738 0.24283,-0.011456 0.21569,-0.55285899 0.45849,-0.56709892 0.24137,-0.0140659 0.27727,0.51160662 0.51884,0.50677342 0.25189,-0.00551 0.26705,-0.54619571 0.51885,-0.54900599 0.24021,-0.00232 0.26647,0.51863959 0.50676,0.51280299 0.23495,-0.00551 0.23554,-0.51916021 0.47057,-0.52486634 0.24021,-0.00609 0.26356,0.51831044 0.50677,0.51280294 0.24341,-0.00551 0.24837,-0.5418933 0.49471,-0.54900601 0.24604,-0.00696 0.27932,0.53267361 0.52489,0.51884551 0.23991,-0.013486 0.21247,-0.54825634 0.45248,-0.56107809 0.27551,-0.0148925 0.31019,0.60719549 0.58518,0.58520909 0.24984,-0.020142 0.1903,-0.59431133 0.44043,-0.60934012 0.2513,-0.0151825 0.26093,0.56070682 0.51278,0.55503552 0.25246,-0.00551 0.23641,-0.56702781 0.48869,-0.57916655 0.24429,-0.0117458 0.28048,0.52004619 0.52487,0.51281166 0.23903,-0.00696 0.24341,-0.52521288 0.48262,-0.5309045 0.25597,-0.00609 0.28719,0.55242682 0.54299,0.54296639 0.23085,-0.008411 0.22211,-0.50704898 0.45247,-0.52487355 0.22911,-0.0178072 0.2958,0.46322711 0.52486,0.44644661 0.21598,-0.0157625 0.21248,-0.46973804 0.42834,-0.48867049 0.24662,-0.0215919 0.33213,0.47959724 0.57917,0.46453655 0.22999,-0.0140659 0.25217,-0.49328903 0.48267,-0.49471013 0.23612,-0.001595 0.26471,0.50916033 0.50071,0.50074253 0.23933,-0.008411 0.23116,-0.53371479 0.47057,-0.5429664 0.2373,-0.008991 0.2694,0.50426916 0.5068,0.50073382 0.23903,-0.00377 0.25568,-0.51205471 0.49471,-0.51883536 0.25889,-0.00754 0.3089,0.55078966 0.56709,0.53090451 0.24721,-0.0189672 0.21102,-0.57315158 0.45849,-0.58520042 0.24166,-0.0116008 0.25889,0.52489821 0.50075,0.52486631 0.23903,-2.901e-5 0.25597,-0.50915163 0.49471,-0.51883247 0.22357,-0.008991 0.27728,0.45210634 0.50072,0.44643501 0.21744,-0.00551 0.24926,-0.42674561 0.46457,-0.45850705 0.19817,-0.0292774 0.31769,0.37894468 0.53694,0.50074253 0.21393,0.1188498 0.22678,-0.52665138 0.46452,-0.5429664 0.23876,-0.0163426 0.29768,0.48230891 0.53696,0.47659989 0.24166,-0.00551 0.27697,-0.50531903 0.51881,-0.50677347 0.23904,-0.001595 0.2799,0.50203311 0.51885,0.49471013 0.22765,-0.00696 0.23699,-0.49859059 0.46457,-0.50073963 0.22881,-0.00232 0.24748,0.49777418 0.47657,0.49471013 0.25043,-0.00319 0.25655,-0.54643357 0.50676,-0.55503554 0.24459,-0.008411 0.28691,0.52204588 0.53094,0.50677347 0.20956,-0.0131959 0.18854,-0.4737142 0.39815,-0.48868063 0.24284,-0.0175171 0.29368,0.50176774 0.53696,0.49471013 0.24866,-0.00696 0.27025,-0.52826243 0.51884,-0.536934 0.24342,-0.0084106 0.2998,0.50154297 0.54295,0.48867193 0.24021,-0.0129058 0.2443,-0.50368622 0.48266,-0.53693835 0.75128,-0.10481288 2.428,0.04363336 2.42584,0.0046403 1.03028,0.08314846 2.01894,0.5186019 2.90938,1.15181064 0.75421,0.617842 1.40796,1.2572108 1.71494,1.9708867 0.0803,0.1246792 0.13225,0.2531344 -0.0262,0.4095316 -0.19526,0.314514 -0.29782,0.2110483 -0.43513,0.2644886 -0.81571,0.1454359 -1.6435,0.2485797 -2.49134,0.2815607 -0.75251,-0.5221619 -1.49938,-1.0559246 -2.53398,-0.9982369 -0.7666,0.019547 -1.57141,0.2124767 -2.57665,1.313924 -0.50536,0.690808 -0.67149,1.4300738 -0.61432,2.2012402 0.0571,0.9257118 0.47794,1.6739971 1.19449,2.2780299 0.74642,0.5557302 1.59136,0.8389439 2.61078,0.6399039 0.59424,-0.016343 1.3436,-0.4852497 2.12913,-1.059499 z"
     id="compensator_right"
     sodipodi:nodetypes="ccscccccccccssccccsssssssssssssssssssssssssssssssssssasasssssssssssssssssssssssssssssssssssssscccccccccccc"
     inkscape:label="compensator_right">
    <title
       id="title4">metal</title>
  </path>
</svg>
