<?xml version="1.0" encoding="UTF-8" standalone="no"?>
<!-- Created with Inkscape (http://www.inkscape.org/) -->

<svg
   width="210mm"
   height="297mm"
   viewBox="0 0 210 297"
   version="1.1"
   id="svg1"
   inkscape:version="1.4 (86a8ad7, 2024-10-11)"
   sodipodi:docname="DSHA-0-055.svg"
   xmlns:inkscape="http://www.inkscape.org/namespaces/inkscape"
   xmlns:sodipodi="http://sodipodi.sourceforge.net/DTD/sodipodi-0.dtd"
   xmlns="http://www.w3.org/2000/svg"
   xmlns:svg="http://www.w3.org/2000/svg">
  <sodipodi:namedview
     id="namedview1"
     pagecolor="#ffffff"
     bordercolor="#000000"
     borderopacity="0.25"
     inkscape:showpageshadow="2"
     inkscape:pageopacity="0.0"
     inkscape:pagecheckerboard="0"
     inkscape:deskcolor="#d1d1d1"
     inkscape:document-units="mm"
     inkscape:zoom="0.74016561"
     inkscape:cx="422.20281"
     inkscape:cy="120.91888"
     inkscape:window-width="2560"
     inkscape:window-height="1377"
     inkscape:window-x="-8"
     inkscape:window-y="-8"
     inkscape:window-maximized="1"
     inkscape:current-layer="svg1" />
  <defs
     id="defs1" />
  <path
     style="fill:#5e5e5e;fill-rule:evenodd;stroke:#000000;stroke-width:0.0422391"
     d="M -3.7583849,3.9833871 V 2.7155141 L 14.991004,0.08455412 c 0,0 0.202693,0.46797 0.412042,0.475456 0.238952,0.0091 0.268268,-0.508976 0.507234,-0.507162 0.250324,6.46e-4 0.272947,0.546611 0.52306,0.53885 0.243236,-0.0083 0.232119,-0.543599 0.475471,-0.554708 0.257544,-0.01267 0.297497,0.556483 0.554624,0.538866 0.214093,-0.0146 0.183149,-0.482916 0.396288,-0.507177 0.250171,-0.027 0.335965,0.501505 0.586413,0.475475 0.216487,-0.0223 0.194169,-0.505499 0.412028,-0.507164 0.255007,-6.55e-4 0.236461,0.581979 0.491353,0.586402 0.245133,0.0011 0.246489,-0.536235 0.491309,-0.546753 0.227958,-0.0091 0.271393,0.475746 0.499211,0.467515 0.237343,-0.0091 0.24611,-0.521949 0.483526,-0.523034 0.246638,-6.52e-4 0.260343,0.539037 0.50708,0.53889 0.239209,-9.2e-5 0.253717,-0.497859 0.491366,-0.52302 0.405824,-0.04287 0.598211,0.698328 1.006396,0.697384 0.386996,-6.56e-4 0.566758,-0.71129 0.950904,-0.665695 0.241444,0.02694 0.239846,0.539323 0.483322,0.546813 0.254108,0.0083 0.284873,-0.541953 0.538866,-0.538853 0.229974,6.52e-4 0.245973,0.497343 0.475398,0.499217 0.233671,6.27e-4 0.258295,-0.508166 0.491382,-0.499217 0.220982,0.0091 0.207251,0.497792 0.427962,0.507146 0.250185,0.01273 0.280758,-0.531887 0.530982,-0.530937 0.244889,6.46e-4 0.270754,0.53009 0.515132,0.523008 0.228387,-0.0056 0.223849,-0.503338 0.451706,-0.515055 0.248377,-0.01322 0.298285,0.515825 0.546717,0.507151 0.231524,-0.0083 0.243796,-0.507151 0.475488,-0.507151 0.231774,0 0.243698,0.507151 0.475359,0.507151 0.231823,0 0.244216,-0.497602 0.475745,-0.507151 0.2595,-0.01273 0.319174,0.538848 0.578296,0.522984 0.233644,-0.01453 0.226055,-0.518139 0.459675,-0.530937 0.248157,-0.01359 0.298389,0.519123 0.546798,0.507162 0.222413,-0.0093 0.220966,-0.503444 0.443855,-0.499209 0.232575,0.0011 0.211077,0.5322 0.443547,0.538816 0.237409,0.0055 0.246079,-0.524841 0.483546,-0.522978 0.237459,6.52e-4 0.237569,0.524375 0.475452,0.530914 0.25759,0.0055 0.289056,-0.555607 0.546684,-0.546752 0.245233,0.0091 0.238294,0.554417 0.483579,0.554691 0.252589,2.25e-4 0.246675,-0.565064 0.499173,-0.570579 0.244786,-0.0055 0.262536,0.530262 0.507246,0.530943 0.216514,6.04e-4 0.234903,-0.463906 0.451745,-0.467546 0.227984,-0.0011 0.263144,0.476452 0.491073,0.475475 0.241044,-6.34e-4 0.274335,-0.51017 0.515188,-0.507146 0.216403,6.52e-4 0.235209,0.457207 0.451589,0.467515 0.239677,0.01288 0.307382,-0.483706 0.547053,-0.467515 0.229325,0.01506 0.229277,0.510442 0.459449,0.515059 0.224218,0.0011 0.243792,-0.473672 0.467621,-0.483388 0.213234,-0.0091 0.270334,0.425713 0.483219,0.420004 0.224238,-0.0055 0.259351,-0.472989 0.483618,-0.467513 0.235179,0.0055 0.247961,0.515055 0.483207,0.515055 0.235583,0 0.248297,-0.507787 0.483549,-0.515055 0.246716,-0.0083 0.292706,0.52062 0.538847,0.507151 0.23573,-0.0132 0.223816,-0.529515 0.459532,-0.538879 0.250142,-0.0091 0.280827,0.536912 0.531065,0.530937 0.235273,-0.0055 0.23974,-0.519935 0.475451,-0.52302 0.263088,-6.55e-4 0.283214,0.57503 0.546627,0.570563 0.237493,-0.0011 0.237907,-0.530914 0.475488,-0.530914 0.237479,0 0.237874,0.528074 0.475799,0.530914 0.23884,6.53e-4 0.252584,-0.504363 0.490999,-0.522999 0.403568,-0.03065 0.554348,0.743215 0.958968,0.744862 0.422059,6.55e-4 0.585577,-0.80309 1.006491,-0.768615 0.245698,0.02097 0.260378,0.542543 0.506993,0.538816 0.247156,-6.57e-4 0.24431,-0.554839 0.491386,-0.554704 0.243441,7.7e-5 0.239799,0.5478 0.483596,0.546785 0.241213,-6.41e-4 0.233411,-0.548493 0.475395,-0.546785 0.245301,6.31e-4 0.230207,0.554235 0.475414,0.56264 0.242555,0.0091 0.264436,-0.513164 0.507031,-0.522999 0.256211,-0.0091 0.324143,0.537374 0.578584,0.507144 0.218275,-0.02426 0.160343,-0.526052 0.380417,-0.53885 0.240702,-0.01448 0.241614,0.533174 0.483234,0.53885 0.259772,0.0055 0.287288,-0.544225 0.547026,-0.554708 0.39105,-0.01503 0.49789,0.750499 0.889171,0.76722 0.416936,0.01782 0.598767,-0.774389 1.014285,-0.734083 0.226202,0.02195 0.237472,0.499739 0.464972,0.498742 0.242945,-6.59e-4 0.249863,-0.532652 0.493212,-0.53793 0.256191,-0.0055 0.287263,0.55236 0.543447,0.543537 0.230631,-0.0083 0.223819,-0.514418 0.453948,-0.521121 0.245683,-0.0083 0.26996,0.533304 0.515515,0.526739 0.226178,-0.0055 0.222074,-0.503955 0.448105,-0.509967 0.230213,-0.0055 0.252562,0.485135 0.481886,0.493129 0.24978,0.0091 0.310544,-0.510442 0.560371,-0.498718 0.222278,0.01282 0.232,0.48354 0.453857,0.487516 0.232498,0.0011 0.260723,-0.495029 0.493203,-0.493117 0.239244,6.33e-4 0.25993,0.521852 0.49873,0.515531 0.227414,-0.0055 0.220527,-0.508866 0.448041,-0.515531 0.234761,-0.0055 0.258326,0.500527 0.493527,0.504319 0.248112,0.0011 0.289235,-0.516782 0.537665,-0.515503 0.240615,6.28e-4 0.275264,0.507101 0.515607,0.504301 0.214614,-6.53e-4 0.234259,-0.450442 0.448402,-0.459483 0.256239,-0.01262 0.327498,0.53346 0.582778,0.50429 0.220072,-0.02378 0.170736,-0.521853 0.392212,-0.537924 0.245321,-0.01782 0.269957,0.528241 0.515311,0.526734 0.232871,-6.48e-4 0.24931,-0.500354 0.482123,-0.504319 0.234721,-0.0011 0.269007,0.498386 0.504189,0.493116 0.234766,-0.0054 0.247169,-0.51156 0.481912,-0.515531 0.237902,-0.0011 0.266668,0.502984 0.504174,0.504319 0.230639,6.51e-4 0.263416,-0.481818 0.493201,-0.481904 0.218712,-4.7e-5 0.251699,0.456874 0.470753,0.459481 0.219229,6.57e-4 0.262605,-0.446877 0.481895,-0.448262 0.216947,-6.3e-4 0.264922,0.439937 0.481784,0.437068 0.237981,-6.55e-4 0.277675,-0.498287 0.515596,-0.493089 0.248313,0.0054 0.267634,0.545042 0.515582,0.537918 0.234811,-0.0055 0.224244,-0.53113 0.459419,-0.537918 0.253932,-0.0083 0.273107,0.553282 0.526615,0.549121 0.246508,-0.0011 0.247444,-0.546575 0.493217,-0.549121 0.240637,-6.63e-4 0.252995,0.526886 0.493183,0.526706 0.231021,-1.48e-4 0.240766,-0.500348 0.470791,-0.504319 0.237547,-0.0011 0.266375,0.502859 0.504156,0.504319 0.219254,6.51e-4 0.252604,-0.451802 0.47054,-0.45949 0.225229,-0.0083 0.290418,0.442531 0.515593,0.437067 0.234638,-0.0055 0.280316,-0.497174 0.51557,-0.481896 0.246545,0.01544 0.224276,0.571809 0.47084,0.571569 0.241502,-2.38e-4 0.218216,-0.553812 0.459429,-0.560379 0.237906,-0.0055 0.243421,0.524039 0.481803,0.526734 0.247996,6.38e-4 0.268505,-0.515325 0.51559,-0.537924 0.394511,-0.03614 0.567672,0.691513 0.963637,0.694836 0.418796,6.55e-4 0.616529,-0.776873 1.031128,-0.717223 0.242032,0.03494 0.214688,0.567489 0.459483,0.57155 0.246599,0.0011 0.234716,-0.548482 0.481839,-0.560347 0.247525,-0.01289 0.289475,0.525816 0.538032,0.515503 0.213238,-0.0091 0.211308,-0.471712 0.425644,-0.481904 0.234236,-0.01267 0.279825,0.484636 0.515613,0.481904 0.246047,-6.59e-4 0.280282,-0.523738 0.52687,-0.515503 0.234346,0.0083 0.234346,0.518701 0.470846,0.526715 0.224255,0.0083 0.256676,-0.468142 0.481788,-0.470702 0.231134,-6.27e-4 0.275399,0.478472 0.504194,0.470702 0.240737,-0.0083 0.253639,-0.532399 0.493206,-0.526715 0.231133,0.0055 0.217933,0.513814 0.448157,0.526715 0.252066,0.01447 0.298545,-0.523807 0.549251,-0.515531 0.231151,0.0083 0.240815,0.513105 0.47048,0.504319 0.214182,-0.0091 0.403614,-0.504319 0.403614,-0.504319 h 3.048031 v 0.773264 c 0,0 -1.431857,0.99685498 -1.949669,1.68106298 -0.410957,0.542315 -0.863113,1.84917 -0.863113,1.84917 0.04549,0.219401 0.186314,0.39691 0.437052,0.526739 h 3.373521 c 0.149754,-0.161797 0.297852,-0.311814 0.448424,-0.414704 1.267348,-1.228141 2.442417,-1.016951 3.496077,-0.504277 0.88052,0.428336 1.43072,1.690713 1.43483,2.566364 7e-4,0.853729 -0.39126,1.602579 -1.03111,2.084496 -0.87191,0.65487 -1.898891,0.803983 -2.891384,0.470702 -0.565826,-0.189877 -1.501984,-1.053434 -1.501984,-1.053434 h -3.249834 c 0,0 -0.390933,0.04715 -0.493206,0.190527 -0.109306,0.15203 -0.0056,0.560339 -0.0056,0.560339 0,0 1.192795,2.1227459 2.118055,2.8689559 0.886387,0.714824 3.115565,1.400896 3.115565,1.400896 l 0.952565,0.04481 2.947323,0.302632 v 2.364678 H 79.758974 V 3.9478401 Z"
     id="profile_left"
     sodipodi:nodetypes="cccssssssssssssssssssssssssssssssssssssssssssssssssssssssssssssssssssssssssssssssssssssssssssssssssssssssssssssssssssssssssssssssssscccsccccssssccscsccccccc"
     inkscape:label="profile_left" />
  <path
     style="fill:#5e5e5e;fill-rule:evenodd;stroke:#000000;stroke-width:0.0422391"
     d="M 213.24316,3.9833861 V 2.7155141 L 194.49384,0.08455412 c 0,0 -0.20314,0.467969 -0.41222,0.475455 -0.23893,0.0091 -0.26856,-0.508975 -0.50721,-0.507162 -0.25058,6.46e-4 -0.27305,0.546612 -0.52315,0.53885 -0.24299,-0.0083 -0.23253,-0.543599 -0.47542,-0.554707 -0.25634,-0.01267 -0.29697,0.556482 -0.55451,0.538865 -0.2133,-0.0146 -0.18625,-0.482915 -0.39758,-0.507176 -0.24954,-0.02701 -0.33622,0.501504 -0.58623,0.475475 -0.21664,-0.0223 -0.19486,-0.505499 -0.41232,-0.507164 -0.25488,-6.56e-4 -0.23512,0.581978 -0.49141,0.586401 -0.246,0.0011 -0.24649,-0.536235 -0.49143,-0.546752 -0.22821,-0.0091 -0.27119,0.475746 -0.49899,0.467515 -0.23568,-0.0091 -0.24678,-0.52195 -0.48382,-0.523034 -0.2465,-6.53e-4 -0.25803,0.539036 -0.50684,0.538889 -0.23965,-9.2e-5 -0.25381,-0.497858 -0.49137,-0.523019 -0.40638,-0.04287 -0.59832,0.698327 -1.00656,0.697384 -0.38734,-6.57e-4 -0.56664,-0.711291 -0.95092,-0.665695 -0.24048,0.02694 -0.23984,0.539322 -0.48342,0.546813 -0.25392,0.0083 -0.28422,-0.541954 -0.53901,-0.538853 -0.231,6.52e-4 -0.24611,0.497343 -0.47519,0.499216 -0.23342,6.27e-4 -0.25677,-0.508166 -0.49143,-0.499216 -0.22023,0.0091 -0.20916,0.497792 -0.42793,0.507145 -0.2504,0.01273 -0.27878,-0.531887 -0.53076,-0.530937 -0.24439,6.46e-4 -0.26988,0.53009 -0.51555,0.523008 -0.22898,-0.0056 -0.22365,-0.503338 -0.45135,-0.515055 -0.24795,-0.01321 -0.29767,0.515825 -0.54667,0.507151 -0.23194,-0.0083 -0.24286,-0.507151 -0.47544,-0.507151 -0.23234,0 -0.24276,0.507151 -0.47565,0.507151 -0.23248,0 -0.24395,-0.497601 -0.47555,-0.507151 -0.25752,-0.01273 -0.31826,0.538848 -0.57823,0.522984 -0.23336,-0.01453 -0.22698,-0.518138 -0.45982,-0.530937 -0.24798,-0.01359 -0.29769,0.519123 -0.54661,0.507162 -0.22328,-0.0093 -0.22029,-0.503444 -0.44403,-0.499209 -0.23286,0.0011 -0.21094,0.532201 -0.44376,0.538817 -0.23527,0.0055 -0.24626,-0.524841 -0.48324,-0.522978 -0.23569,6.52e-4 -0.23664,0.524374 -0.47507,0.530913 -0.2564,0.0055 -0.28892,-0.555607 -0.54736,-0.546752 -0.24591,0.0091 -0.23614,0.554417 -0.48321,0.554692 -0.25339,2.24e-4 -0.2472,-0.565064 -0.49963,-0.570579 -0.24289,-0.0055 -0.26175,0.530261 -0.50691,0.530942 -0.21647,6.05e-4 -0.2342,-0.463906 -0.45166,-0.467546 -0.22829,-0.0011 -0.26251,0.476452 -0.49142,0.475475 -0.24055,-6.33e-4 -0.27435,-0.51017 -0.51483,-0.507145 -0.21582,6.52e-4 -0.23394,0.457207 -0.45162,0.467515 -0.23954,0.01288 -0.30684,-0.483706 -0.54707,-0.467515 -0.23066,0.01506 -0.23066,0.510442 -0.45942,0.515058 -0.22457,0.0011 -0.24317,-0.473671 -0.46747,-0.483388 -0.21212,-0.0091 -0.26944,0.425713 -0.48372,0.420004 -0.22471,-0.0055 -0.25748,-0.472989 -0.4832,-0.467513 -0.23467,0.0055 -0.24817,0.515055 -0.48335,0.515055 -0.23426,0 -0.24742,-0.507786 -0.48347,-0.515055 -0.24664,-0.0083 -0.29171,0.52062 -0.53905,0.507151 -0.23419,-0.0132 -0.22419,-0.529515 -0.45933,-0.538879 -0.25059,-0.0091 -0.27902,0.536913 -0.531,0.530937 -0.23429,-0.0055 -0.23989,-0.519934 -0.47551,-0.523019 -0.26239,-6.56e-4 -0.28101,0.575029 -0.54698,0.570562 -0.23571,-0.0011 -0.2366,-0.530913 -0.47518,-0.530913 -0.23707,0 -0.23707,0.528073 -0.47571,0.530913 -0.23945,6.53e-4 -0.25356,-0.504363 -0.4913,-0.522998 -0.40434,-0.03065 -0.55413,0.743214 -0.9587,0.744861 -0.42211,6.55e-4 -0.58562,-0.803089 -1.00623,-0.768615 -0.24666,0.02097 -0.25928,0.542543 -0.50761,0.538817 -0.24705,-6.58e-4 -0.24397,-0.554839 -0.49142,-0.554704 -0.2431,7.7e-5 -0.24002,0.547799 -0.48324,0.546784 -0.24108,-6.4e-4 -0.23349,-0.548492 -0.4754,-0.546784 -0.24613,6.3e-4 -0.23152,0.554234 -0.47551,0.562639 -0.24158,0.0091 -0.26379,-0.513164 -0.50728,-0.522998 -0.25546,-0.0091 -0.32195,0.537373 -0.57864,0.507143 -0.21795,-0.02426 -0.16385,-0.526051 -0.38106,-0.53885 -0.24051,-0.01448 -0.24136,0.533174 -0.48321,0.53885 -0.25784,0.0055 -0.28749,-0.544225 -0.54725,-0.554707 -0.39239,-0.01503 -0.49835,0.750499 -0.88923,0.76722 -0.41694,0.01782 -0.59883,-0.77439 -1.01397,-0.734084 -0.22609,0.02195 -0.23701,0.499739 -0.46546,0.498743 -0.24273,-6.59e-4 -0.25009,-0.532652 -0.49296,-0.537931 -0.25532,-0.0055 -0.28738,0.55236 -0.54354,0.543537 -0.23145,-0.0083 -0.22421,-0.514418 -0.45411,-0.521121 -0.24587,-0.0083 -0.26901,0.533304 -0.51484,0.526739 -0.22634,-0.0055 -0.22079,-0.503955 -0.44866,-0.509967 -0.23101,-0.0055 -0.25295,0.485135 -0.48176,0.493129 -0.25046,0.0091 -0.31022,-0.510441 -0.5602,-0.498717 -0.2208,0.01282 -0.23277,0.483539 -0.45416,0.487515 -0.2324,0.0011 -0.25854,-0.495029 -0.49313,-0.493117 -0.23896,6.33e-4 -0.25766,0.521853 -0.49882,0.515532 -0.22876,-0.0055 -0.22155,-0.508866 -0.44803,-0.515532 -0.23414,-0.0055 -0.25667,0.500527 -0.49319,0.504319 -0.24792,0.0011 -0.28964,-0.516782 -0.538,-0.515502 -0.24019,6.27e-4 -0.27539,0.5071 -0.51554,0.5043 -0.2128,-6.53e-4 -0.23374,-0.450442 -0.44822,-0.459483 -0.2557,-0.01262 -0.32501,0.533461 -0.58265,0.504291 -0.22034,-0.02378 -0.17155,-0.521853 -0.39369,-0.537925 -0.24565,-0.01782 -0.26915,0.528241 -0.51486,0.526735 -0.23287,-6.48e-4 -0.24954,-0.500354 -0.48212,-0.50432 -0.23422,-0.0011 -0.26885,0.498387 -0.50484,0.493117 -0.234,-0.0054 -0.2469,-0.511561 -0.48139,-0.515532 -0.23696,-0.0011 -0.26682,0.502985 -0.50438,0.504319 -0.23102,6.51e-4 -0.26303,-0.481818 -0.49326,-0.481904 -0.21858,-4.6e-5 -0.25204,0.456875 -0.47069,0.459482 -0.2192,6.56e-4 -0.26216,-0.446877 -0.48195,-0.448263 -0.21678,-6.29e-4 -0.26466,0.439938 -0.48194,0.437068 -0.2358,-6.54e-4 -0.27685,-0.498286 -0.51537,-0.493088 -0.24791,0.0054 -0.26778,0.54504 -0.51553,0.537918 -0.23445,-0.0055 -0.22381,-0.531131 -0.45936,-0.537918 -0.25435,-0.0083 -0.27348,0.553281 -0.52704,0.549121 -0.24626,-0.0011 -0.24718,-0.546576 -0.49284,-0.549121 -0.24056,-6.64e-4 -0.25334,0.526886 -0.49325,0.526705 -0.23109,-1.47e-4 -0.24072,-0.500348 -0.4707,-0.504319 -0.23679,-0.0011 -0.26682,0.502859 -0.50459,0.504319 -0.21895,6.51e-4 -0.25264,-0.451801 -0.4705,-0.45949 -0.22549,-0.0083 -0.28999,0.442531 -0.5155,0.437068 -0.23402,-0.0055 -0.27882,-0.497175 -0.51538,-0.481897 -0.2466,0.01544 -0.22457,0.57181 -0.47079,0.57157 -0.24057,-2.39e-4 -0.21785,-0.553813 -0.45946,-0.56038 -0.23652,-0.0055 -0.2428,0.524039 -0.48211,0.526735 -0.24792,6.37e-4 -0.26818,-0.515326 -0.51525,-0.537925 -0.39546,-0.03614 -0.56777,0.691514 -0.96374,0.694837 -0.41876,6.55e-4 -0.61716,-0.776873 -1.03111,-0.717223 -0.2419,0.03494 -0.21444,0.567489 -0.45954,0.57155 -0.24632,0.0011 -0.23471,-0.548483 -0.48207,-0.560347 -0.24747,-0.01289 -0.28887,0.525816 -0.53801,0.515502 -0.21236,-0.0091 -0.21108,-0.471712 -0.42576,-0.481904 -0.23337,-0.01267 -0.27857,0.484637 -0.51528,0.481904 -0.24678,-6.59e-4 -0.27944,-0.523738 -0.52681,-0.515502 -0.2342,0.0083 -0.2342,0.5187 -0.47076,0.526715 -0.22512,0.0083 -0.25635,-0.468143 -0.48149,-0.470703 -0.23141,-6.26e-4 -0.27478,0.478472 -0.50478,0.470703 -0.24042,-0.0083 -0.25313,-0.532399 -0.493,-0.526715 -0.23135,0.0055 -0.21829,0.513814 -0.44846,0.526715 -0.25052,0.01447 -0.29712,-0.523807 -0.549,-0.515532 -0.23084,0.0083 -0.24062,0.513105 -0.47063,0.504319 -0.21536,-0.0091 -0.40431,-0.504319 -0.40431,-0.504319 h -3.04807 v 0.773265 c 0,0 1.43187,0.99685398 1.9496,1.68106098 0.41111,0.542317 0.86315,1.849171 0.86315,1.849171 -0.0462,0.219401 -0.18675,0.39691 -0.43701,0.52674 h -3.37349 c -0.15095,-0.161798 -0.29805,-0.311815 -0.44848,-0.414705 -1.26715,-1.22814 -2.44233,-1.016951 -3.49604,-0.504277 -0.88087,0.428337 -1.43068,1.690714 -1.43475,2.566364 -6.7e-4,0.853729 0.39045,1.60258 1.03118,2.084497 0.87178,0.654869 1.89835,0.803983 2.89136,0.470701 0.56567,-0.189876 1.50191,-1.053434 1.50191,-1.053434 h 3.24992 c 0,0 0.39176,0.04715 0.49297,0.190528 0.10788,0.15203 0.004,0.560338 0.004,0.560338 0,0 -1.19313,2.1227459 -2.11802,2.8689569 -0.88647,0.714823 -3.11558,1.400896 -3.11558,1.400896 l -0.95263,0.0448 -2.94757,0.302632 v 2.364671 h 12.28295 V 3.9478401 Z"
     id="profile_right"
     sodipodi:nodetypes="cccssssssssssssssssssssssssssssssssssssssssssssssssssssssssssssssssssssssssssssssssssssssssssssssssssssssssssssssssssssssssssssssssscccsccccssssccscsccccccc"
     inkscape:label="profile_right" />
  <rect
     style="fill:#ddd5d5;fill-opacity:0.768047;fill-rule:evenodd;stroke:#b81e1e;stroke-width:0.0184572"
     id="concrete_left"
     width="140.11058"
     height="49.982468"
     x="-60.412479"
     y="6.3113465" />
  <ellipse
     style="fill:#b4cdd0;fill-opacity:0;fill-rule:evenodd;stroke:#b81e1e;stroke-width:0.00016359"
     id="screw_left"
     cx="-22.776426"
     cy="-0.8582285"
     rx="0.049918205"
     ry="0.032774579"
     transform="scale(-1)"
     inkscape:label="screw_left" />
  <ellipse
     style="fill:#b4cdd0;fill-opacity:0;fill-rule:evenodd;stroke:#b81e1e;stroke-width:0.000455593"
     id="screw_right"
     cx="-186.61401"
     cy="0.87050563"
     rx="0.1390205"
     ry="0.091276094"
     transform="scale(-1,1)"
     inkscape:label="screw_right" />
  <rect
     style="fill:#e1ecec;fill-opacity:0.77;fill-rule:evenodd;stroke:#b81e1e;stroke-width:0.0126854"
     id="finish_left"
     width="140.11874"
     height="2.0309176"
     x="-60.436497"
     y="4.1686201"
     inkscape:label="finish_left" />
  <rect
     style="fill:#e1ecec;fill-opacity:0.77;fill-rule:evenodd;stroke:#b81e1e;stroke-width:0.0144776"
     id="cover_left"
     width="140.11621"
     height="0.12596738"
     x="-60.423214"
     y="3.99226"
     inkscape:label="cover_left" />
  <rect
     style="fill:#ddd5d5;fill-opacity:0.768047;fill-rule:evenodd;stroke:#b81e1e;stroke-width:0.0184876"
     id="concrete_right"
     width="140.57491"
     height="49.982399"
     x="129.85869"
     y="6.2086391"
     inkscape:label="concrete_right" />
  <rect
     style="fill:#e1ecec;fill-opacity:0.77;fill-rule:evenodd;stroke:#b81e1e;stroke-width:0.0127064"
     id="finish_right"
     width="140.58311"
     height="2.0309153"
     x="129.83444"
     y="4.1657939"
     inkscape:label="finish_right" />
  <rect
     style="fill:#e1ecec;fill-opacity:0.77;fill-rule:evenodd;stroke:#b81e1e;stroke-width:0.0145015"
     id="cover_right"
     width="140.58055"
     height="0.12596722"
     x="129.84784"
     y="3.9894514"
     inkscape:label="cover_right" />
  <rect
     style="fill:#404242;fill-opacity:0.341246;fill-rule:evenodd;stroke:#b81e1e;stroke-width:0.0238976"
     id="shadow"
     width="268.18112"
     height="0.0093465438"
     x="-6.9768057"
     y="56.125946"
     inkscape:label="shadow" />
  <path
     style="fill:#5e5e5e;fill-rule:evenodd;stroke:#000000;stroke-width:0.0313521"
     d="m 83.471437,3.5540624 c 0.143274,-0.378324 0.370952,-0.644141 0.582302,-0.931683 0.615712,-0.874553 1.35622,-1.4682524 2.162852,-1.9132795 1.067506,-0.5553055 2.173936,-0.8849679 3.360707,-0.7486676 l 2.44567,0.4492031 17.701932,3.726734 -0.63221,2.9780525 -13.858762,-2.8948685 c -0.14665,0.04148 -0.28625,0.123357 -0.41593,0.266177 -0.0912,0.176962 -0.0838,0.338784 -0.0665,0.499119 l 0.2163,0.8484965 v 1.098056 l -0.18286,0.998227 -0.366,1.064785 c -0.006,0.138644 -0.0245,0.277282 0.0832,0.415925 0.1221,0.144807 0.24391,0.180733 0.36601,0.183004 l 6.937712,-0.316106 9.81593,2.1129141 0.0665,0.482479 -3.64356,0.183004 c 0,0 -0.2034,-0.47544 -0.41626,-0.484727 -0.26292,-0.0114 -0.30158,0.56318 -0.56442,0.551728 -0.2172,-0.0095 -0.2077,-0.487065 -0.42488,-0.494645 -0.25249,-0.0088 -0.28011,0.533065 -0.53269,0.539039 -0.2528,0.0058 -0.30618,-0.536362 -0.55809,-0.513674 -0.23746,0.02147 -0.19329,0.554269 -0.43124,0.570747 -0.25955,0.0178 -0.29206,-0.565942 -0.55171,-0.551727 -0.24636,0.01354 -0.21691,0.559225 -0.46292,0.577093 -0.25066,0.01809 -0.30158,-0.535956 -0.55174,-0.513673 -0.24207,0.02147 -0.19544,0.562742 -0.43759,0.583432 -0.26078,0.0224 -0.30946,-0.553577 -0.57073,-0.539039 -0.235,0.01325 -0.22151,0.527044 -0.45661,0.539039 -0.23133,0.01197 -0.26937,-0.487712 -0.50099,-0.481966 -0.24667,0.0064 -0.26079,0.531612 -0.50733,0.539039 -0.24974,0.0074 -0.29698,-0.538249 -0.54539,-0.513672 -0.23225,0.02301 -0.17426,0.541069 -0.40586,0.570746 -0.270902,0.03473 -0.356872,-0.560512 -0.627842,-0.526353 -0.23745,0.03006 -0.18039,0.561199 -0.41852,0.583433 -0.25894,0.02424 -0.30527,-0.561337 -0.56442,-0.539045 -0.25157,0.02147 -0.19819,0.594259 -0.45026,0.608799 -0.26875,0.01564 -0.28286,-0.604148 -0.55172,-0.589775 -0.24575,0.01325 -0.1988,0.566776 -0.4439,0.589775 -0.25341,0.02394 -0.3107,-0.532317 -0.56442,-0.513674 -0.23961,0.01748 -0.21691,0.54176 -0.4566,0.558067 -0.2476,0.01687 -0.2976,-0.523203 -0.54537,-0.507331 -0.24421,0.01564 -0.22519,0.550343 -0.46931,0.564404 -0.25678,0.01473 -0.3025,-0.560073 -0.55806,-0.5327 -0.23623,0.02516 -0.16321,0.565917 -0.3995,0.589779 -0.26171,0.02639 -0.30158,-0.563812 -0.56443,-0.551724 -0.24114,0.01111 -0.22824,0.53559 -0.46927,0.551724 -0.25248,0.01687 -0.31257,-0.531132 -0.56441,-0.507331 -0.25372,0.02394 -0.20831,0.600049 -0.46296,0.608798 -0.24697,0.0085 -0.4883,-0.558066 -0.4883,-0.558066 -0.14357,-0.164106 -0.29452,0.349932 -0.53904,0.589773 l -2.504952,-0.0064 c -0.07295,0.06568 -2.267871,-0.503726 -3.069359,-1.230286 -0.661818,-0.599967 -1.648782,-1.141823 -1.750297,-2.0293301 -0.02151,-0.185059 0.259849,-0.494648 0.259849,-0.494648 1.062078,-0.249764 2.155871,-0.436054 3.335719,-0.450259 0.710503,0.568577 1.547111,0.969007 2.96092,0.599847 0.75702,-0.419131 1.51818,-0.835218 1.73092,-1.650199 0.33781,-0.576971 0.36707,-1.153942 0.21536,-1.730914 -0.10001,-0.8343505 -0.58837,-1.3634375 -1.15692,-1.8295755 -0.63215,-0.481099 -1.39491,-0.748022 -2.4484,-0.538115 -0.789633,0.157601 -1.159959,0.566786 -1.632269,0.914782 L 83.98689,4.2812644 c -0.229188,0.0048 -0.380313,-0.128428 -0.502258,-0.313887 -0.05956,-0.137746 -0.06098,-0.275503 -0.01282,-0.413271 z"
     id="compensator_left"
     sodipodi:nodetypes="ccccccccccccccccccccsssssssssssssssssssssssssssssssssccsscccccccccccc"
     inkscape:label="compensator_left">
    <title
       id="title2">metal</title>
  </path>
  <path
     style="fill:#5e5e5e;fill-rule:evenodd;stroke:#000000;stroke-width:0.0313521"
     d="m 126.11605,9.2740619 c -0.14327,0.378325 -0.37095,0.644143 -0.5823,0.9316821 -0.61571,0.874551 -1.35626,1.468255 -2.16287,1.91328 -1.06752,0.555304 -2.17395,0.884966 -3.36071,0.748669 l -2.44565,-0.449205 -17.701962,-3.7267301 0.632222,-2.978054 13.85877,2.894866 c 0.14665,-0.04147 0.28624,-0.123356 0.41592,-0.266177 0.0912,-0.17696 0.0838,-0.338784 0.0665,-0.499119 l -0.2163,-0.848495 v -1.098056 l 0.18286,-0.9982275 0.36601,-1.064784 c 0.006,-0.138644 0.0245,-0.277284 -0.0832,-0.415925 -0.1221,-0.144807 -0.24389,-0.180734 -0.36604,-0.183004 l -6.93768,0.316105 -9.815962,-2.112919 -0.0665,-0.4824766 3.643552,-0.1830041 c 0,0 0.2034,0.4754388 0.41626,0.4847254 0.26293,0.011398 0.30158,-0.5631801 0.56441,-0.5517279 0.21722,0.00955 0.2077,0.4870649 0.42488,0.4946489 0.25249,0.00883 0.28011,-0.5330648 0.53269,-0.5390417 0.25281,-0.00584 0.30618,0.5363603 0.55807,0.5136723 0.23746,-0.021471 0.19328,-0.5542653 0.43123,-0.5707456 0.25955,-0.017795 0.29208,0.5659413 0.55174,0.5517279 0.24636,-0.013535 0.21691,-0.5592265 0.46294,-0.5770944 0.25064,-0.018095 0.30158,0.5359557 0.55174,0.5136737 0.24205,-0.021471 0.19542,-0.5627427 0.43754,-0.5834331 0.26079,-0.022397 0.30947,0.5535786 0.57078,0.5390388 0.235,-0.01325 0.22151,-0.5270423 0.45659,-0.5390388 0.23133,-0.011968 0.26937,0.4877145 0.50098,0.4819656 0.24665,-0.00641 0.26077,-0.5316116 0.50734,-0.5390389 0.24974,-0.00741 0.29698,0.5382538 0.5454,0.5136738 0.23224,-0.02301 0.17425,-0.5410707 0.40586,-0.5707471 0.27091,-0.034722 0.35686,0.5605115 0.62783,0.5263528 0.23746,-0.030063 0.18009,-0.5611983 0.41853,-0.5834318 0.25894,-0.024235 0.30526,0.5613365 0.56441,0.5390475 0.25157,-0.021471 0.1982,-0.5942615 0.45026,-0.6088012 0.26875,-0.015644 0.28287,0.6041507 0.55171,0.5897734 0.24574,-0.01325 0.19911,-0.5667762 0.44394,-0.5897734 0.2531,-0.023936 0.31069,0.5323197 0.56441,0.5136724 0.23962,-0.017482 0.2169,-0.541756 0.45661,-0.5580653 0.24758,-0.016869 0.29759,0.5232012 0.54536,0.5073336 0.24421,-0.015644 0.22519,-0.5503472 0.46927,-0.5644083 0.25679,-0.014718 0.30251,0.5600728 0.5581,0.5327016 0.23624,-0.025161 0.16322,-0.5659171 0.39951,-0.5897805 0.26169,-0.026387 0.30158,0.5638127 0.56441,0.551725 0.24114,-0.011113 0.22826,-0.5355881 0.46928,-0.551725 0.25249,-0.016869 0.31256,0.5311328 0.56442,0.5073321 0.25372,-0.023936 0.208,-0.6000488 0.46292,-0.6087983 0.24697,-0.008550001 0.48832,0.5580652 0.48832,0.5580652 0.14359,0.164106 0.29453,-0.3499282 0.53905,-0.5897734 l 2.50494,0.00641 c 0.0731,-0.065682 2.2679,0.5037289 3.06937,1.2302855 0.66182,0.5999689 1.64878,1.1418229 1.75031,2.0293339 0.0215,0.18506 -0.26016,0.494646 -0.26016,0.494646 -1.06208,0.249763 -2.1559,0.436053 -3.33572,0.450258 -0.7105,-0.568577 -1.54711,-0.969005 -2.96092,-0.599845 -0.75702,0.419129 -1.51822,0.835216 -1.73092,1.650198 -0.33781,0.5769705 -0.36708,1.1539425 -0.21537,1.7309135 0.10002,0.83434 0.58837,1.36343 1.15693,1.829568 0.63215,0.481096 1.39488,0.748019 2.4484,0.538111 0.78963,-0.157602 1.15996,-0.566782 1.63224,-0.914782 l 2.94166,0.125578 c 0.22919,-0.0048 0.38031,0.128429 0.50226,0.313886 0.0596,0.137747 0.061,0.275505 0.0128,0.413271 z"
     id="compensator_right"
     sodipodi:nodetypes="ccccccccccccccccccccsssssssssssssssssssssssssssssssssccsscccccccccccc"
     inkscape:label="compensator_right">
    <title
       id="title1">metal</title>
  </path>
</svg>
