<?xml version="1.0" encoding="UTF-8" standalone="no"?>
<!-- Created with Inkscape (http://www.inkscape.org/) -->

<svg
   width="210mm"
   height="297mm"
   viewBox="0 0 210 297"
   version="1.1"
   id="svg1"
   inkscape:version="1.4 (86a8ad7, 2024-10-11)"
   sodipodi:docname="DSHA-0-17.svg"
   xmlns:inkscape="http://www.inkscape.org/namespaces/inkscape"
   xmlns:sodipodi="http://sodipodi.sourceforge.net/DTD/sodipodi-0.dtd"
   xmlns="http://www.w3.org/2000/svg"
   xmlns:svg="http://www.w3.org/2000/svg">
  <sodipodi:namedview
     id="namedview1"
     pagecolor="#ffffff"
     bordercolor="#000000"
     borderopacity="0.25"
     inkscape:showpageshadow="2"
     inkscape:pageopacity="0.0"
     inkscape:pagecheckerboard="0"
     inkscape:deskcolor="#d1d1d1"
     inkscape:document-units="mm"
     inkscape:zoom="0.52337612"
     inkscape:cx="358.25096"
     inkscape:cy="169.09445"
     inkscape:window-width="2560"
     inkscape:window-height="1377"
     inkscape:window-x="-8"
     inkscape:window-y="-8"
     inkscape:window-maximized="1"
     inkscape:current-layer="svg1" />
  <defs
     id="defs1" />
  <path
     style="fill:#5e5e5e;fill-rule:evenodd;stroke:#000000;stroke-width:0.0422391"
     d="m -45.458827,4.1196908 v -1.267873 l 18.749385,-2.63095997 c 0,0 0.202693,0.46797 0.412042,0.475456 0.238952,0.0091 0.268268,-0.508976 0.507234,-0.507162 0.250324,6.46e-4 0.272947,0.546611 0.52306,0.53885 0.243236,-0.0083 0.232119,-0.543599 0.475471,-0.554708 0.257544,-0.01267 0.297497,0.556483 0.554624,0.538866 0.214093,-0.0146 0.183149,-0.482916 0.396288,-0.507177 0.250171,-0.027 0.335965,0.501505 0.586413,0.475475 0.216487,-0.0223 0.194169,-0.505499 0.412028,-0.507164 0.255007,-6.55e-4 0.236461,0.581979 0.491353,0.586402 0.245133,0.0011 0.246489,-0.536235 0.491309,-0.546753 0.227958,-0.0091 0.271393,0.475746 0.499211,0.467515 0.237343,-0.0091 0.24611,-0.521949 0.483526,-0.523034 0.246638,-6.52e-4 0.260343,0.539037 0.50708,0.53889 0.239209,-9.2e-5 0.253717,-0.497859 0.491366,-0.52302 0.405824,-0.04287 0.598211,0.698328 1.006396,0.697384 0.386996,-6.56e-4 0.566758,-0.71129 0.950904,-0.665695 0.241444,0.02694 0.239846,0.539323 0.483322,0.546813 0.254108,0.0083 0.284873,-0.541953 0.538866,-0.538853 0.229974,6.52e-4 0.245973,0.497343 0.475398,0.499217 0.233671,6.27e-4 0.258295,-0.508166 0.491382,-0.499217 0.220982,0.0091 0.207251,0.497792 0.427962,0.507146 0.250185,0.01273 0.280758,-0.531887 0.530982,-0.530937 0.244889,6.46e-4 0.270754,0.53009 0.515132,0.523008 0.228387,-0.0056 0.223849,-0.503338 0.451706,-0.515055 0.248377,-0.01322 0.298285,0.515825 0.546717,0.507151 0.231524,-0.0083 0.243796,-0.507151 0.475488,-0.507151 0.231774,0 0.243698,0.507151 0.475359,0.507151 0.231824,0 0.244217,-0.497602 0.475746,-0.507151 0.259501,-0.01273 0.319175,0.538848 0.578297,0.522984 0.233645,-0.01453 0.226056,-0.518139 0.459677,-0.530937 0.248157,-0.01359 0.298389,0.519123 0.546799,0.507162 0.222413,-0.0093 0.220966,-0.503444 0.443855,-0.499209 0.2325744,0.0011 0.2110764,0.5322 0.4435464,0.538816 0.237409,0.0055 0.246079,-0.524841 0.483546,-0.522978 0.237459,6.52e-4 0.237569,0.524375 0.475452,0.530914 0.25759,0.0055 0.289056,-0.555607 0.546684,-0.546752 0.245233,0.0091 0.238294,0.554417 0.483579,0.554691 0.252589,2.25e-4 0.246675,-0.565064 0.499173,-0.570579 0.244786,-0.0055 0.262536,0.530262 0.507246,0.530943 0.216514,6.04e-4 0.234903,-0.463906 0.451745,-0.467546 0.227984,-0.0011 0.263144,0.476452 0.491073,0.475475 0.241044,-6.34e-4 0.274335,-0.51017 0.515188,-0.507146 0.216403,6.52e-4 0.235209,0.457207 0.451589,0.467515 0.239677,0.01288 0.307382,-0.483706 0.547053,-0.467515 0.229325,0.01506 0.229277,0.510442 0.459449,0.515059 0.224218,0.0011 0.243792,-0.473672 0.467621,-0.483388 0.213234,-0.0091 0.270334,0.425713 0.483219,0.420004 0.224238,-0.0055 0.259351,-0.472989 0.483618,-0.467513 0.235179,0.0055 0.247961,0.515055 0.483207,0.515055 0.235583,0 0.248297,-0.507787 0.483549,-0.515055 0.246716,-0.0083 0.29270603,0.52062 0.53884703,0.507151 0.23573,-0.0132 0.223816,-0.529515 0.459532,-0.538879 0.2501420036,-0.0091 0.280827,0.536912 0.531065,0.530937 0.235273,-0.0055 0.23974,-0.519935 0.475451,-0.52302 0.26308797,-6.55e-4 0.28321397,0.57503 0.54662697,0.570563 0.237493,-0.0011 0.237907,-0.530914 0.475488,-0.530914 0.237479,0 0.237874,0.528074 0.475799,0.530914 0.23884,6.53e-4 0.252584,-0.504363 0.4909996,-0.522999 0.403568,-0.03065 0.5543481,0.743215 0.958968,0.744862 0.422059,6.55e-4 0.585577,-0.80309 1.0064909,-0.768615 0.245698,0.02097 0.260378,0.542543 0.506993,0.538816 0.247156,-6.57e-4 0.24431,-0.554839 0.491386,-0.554704 0.243441,7.7e-5 0.239799,0.5478 0.483596,0.546785 0.241213,-6.41e-4 0.233411,-0.548493 0.475395,-0.546785 0.245301,6.31e-4 0.230207,0.554235 0.475414,0.56264 0.242555,0.0091 0.264436,-0.513164 0.507031,-0.522999 0.256211,-0.0091 0.324143,0.537374 0.578584,0.507144 0.218275,-0.02426 0.160343,-0.526052 0.380417,-0.53885 0.240702,-0.01448 0.241614,0.533174 0.4832335,0.53885 0.259772,0.0055 0.287288,-0.544225 0.547026,-0.554708 0.3910506,-0.01503 0.4978906,0.750499 0.8891716,0.76722 0.416936,0.01782 0.598767,-0.774389 1.014285,-0.734083 0.226202,0.02195 0.237472,0.499739 0.464972,0.498742 0.242945,-6.59e-4 0.249863,-0.532652 0.493212,-0.53793 0.256191,-0.0055 0.287263,0.55236 0.543447,0.543537 0.230631,-0.0083 0.223819,-0.514418 0.453948,-0.521121 0.245683,-0.0083 0.26996,0.533304 0.515515,0.526739 0.226178,-0.0055 0.222074,-0.503955 0.448105,-0.509967 0.230213,-0.0055 0.252562,0.485135 0.481886,0.493129 0.24978,0.0091 0.310544,-0.510442 0.560371,-0.498718 0.222278,0.01282 0.232,0.48354 0.453857,0.487516 0.232498,0.0011 0.260723,-0.495029 0.493203,-0.493117 0.239244,6.33e-4 0.25993,0.521852 0.49873,0.515531 0.227414,-0.0055 0.220527,-0.508866 0.448041,-0.515531 0.234761,-0.0055 0.258326,0.500527 0.493527,0.504319 0.248112,0.0011 0.289235,-0.516782 0.537665,-0.515503 0.240615,6.28e-4 0.275264,0.507101 0.515607,0.504301 0.214614,-6.53e-4 0.234259,-0.450442 0.448402,-0.459483 0.256239,-0.01262 0.327498,0.53346 0.582778,0.50429 0.220072,-0.02378 0.170736,-0.521853 0.392212,-0.537924 0.245321,-0.01782 0.269957,0.528241 0.515311,0.526734 0.232871,-6.48e-4 0.24931,-0.500354 0.482123,-0.504319 0.234721,-0.0011 0.269007,0.498386 0.504189,0.493116 0.234766,-0.0054 0.247169,-0.51156 0.481912,-0.515531 0.237902,-0.0011 0.266668,0.502984 0.504174,0.504319 0.230639,6.51e-4 0.263416,-0.481818 0.493201,-0.481904 0.218712,-4.7e-5 0.251699,0.456874 0.470753,0.459481 0.219229,6.57e-4 0.262605,-0.446877 0.481895,-0.448262 0.216947,-6.3e-4 0.264922,0.439937 0.481784,0.437068 0.237981,-6.55e-4 0.277675,-0.498287 0.515596,-0.493089 0.248313,0.0054 0.267634,0.545042 0.515582,0.537918 0.234811,-0.0055 0.224244,-0.53113 0.459419,-0.537918 0.253932,-0.0083 0.273107,0.553282 0.526615,0.549121 0.246508,-0.0011 0.247444,-0.546575 0.493217,-0.549121 0.240637,-6.63e-4 0.252995,0.526886 0.493183,0.526706 0.231021,-1.48e-4 0.240766,-0.500348 0.470791,-0.504319 0.237547,-0.0011 0.266375,0.502859 0.504156,0.504319 0.219254,6.51e-4 0.252604,-0.451802 0.47054,-0.45949 0.225229,-0.0083 0.290418,0.442531 0.515593,0.437067 0.234638,-0.0055 0.280316,-0.497174 0.51557,-0.481896 0.246545,0.01544 0.224276,0.571809 0.47084,0.571569 0.241502,-2.38e-4 0.218216,-0.553812 0.459429,-0.560379 0.237906,-0.0055 0.243421,0.524039 0.481803,0.526734 0.247996,6.38e-4 0.268505,-0.515325 0.51559,-0.537924 0.394511,-0.03614 0.567672,0.691513 0.963637,0.694836 0.418796,6.55e-4 0.616529,-0.776873 1.031128,-0.717223 0.242032,0.03494 0.214688,0.567489 0.459483,0.57155 0.246599,0.0011 0.234716,-0.548482 0.481839,-0.560347 0.247525,-0.01289 0.289475,0.525816 0.538032,0.515503 0.213238,-0.0091 0.211308,-0.471712 0.425644,-0.481904 0.234236,-0.01267 0.279825,0.484636 0.515613,0.481904 0.246047,-6.59e-4 0.280282,-0.523738 0.52687,-0.515503 0.234346,0.0083 0.234346,0.518701 0.470846,0.526715 0.224255,0.0083 0.256676,-0.468142 0.481788,-0.470702 0.231134,-6.27e-4 0.275399,0.478472 0.504194,0.470702 0.240737,-0.0083 0.253639,-0.532399 0.493206,-0.526715 0.231133,0.0055 0.217933,0.513814 0.448157,0.526715 0.252066,0.01447 0.298545,-0.523807 0.549251,-0.515531 0.231151,0.0083 0.240815,0.513105 0.47048,0.504319 0.214182,-0.0091 0.403614,-0.504319 0.403614,-0.504319 h 3.048031 v 0.773264 c 0,0 -1.431857,0.99685497 -1.949669,1.68106297 -0.410957,0.542315 -0.863113,1.84917 -0.863113,1.84917 0.04549,0.219401 0.186314,0.39691 0.437052,0.526739 h 3.373521 c 0.149754,-0.161797 0.297852,-0.311814 0.448424,-0.414704 1.267348,-1.228141 2.442421,-1.016951 3.496077,-0.504277 0.880519,0.428336 1.430723,1.690713 1.43483,2.566364 7.01e-4,0.853729 -0.391261,1.602579 -1.031113,2.084496 -0.871912,0.65487 -1.898888,0.803983 -2.891381,0.470702 -0.565826,-0.189877 -1.501984,-1.053434 -1.501984,-1.053434 h -3.249834 c 0,0 -0.390933,0.04715 -0.493206,0.190527 -0.109306,0.15203 -0.0056,0.560339 -0.0056,0.560339 0,0 1.192795,2.1227452 2.118055,2.8689552 0.886387,0.714824 3.115565,1.400896 3.115565,1.400896 l 0.952565,0.04481 2.947326,0.302632 v 2.364678 H 38.058533 V 4.0841438 Z"
     id="profile_left"
     sodipodi:nodetypes="cccssssssssssssssssssssssssssssssssssssssssssssssssssssssssssssssssssssssssssssssssssssssssssssssssssssssssssssssssssssssssssssssssscccsccccssssccscsccccccc"
     inkscape:label="profile_left" />
  <path
     style="fill:#5e5e5e;fill-rule:evenodd;stroke:#000000;stroke-width:0.0422391"
     d="M 254.94353,4.1196898 V 2.8518178 L 236.19421,0.22085783 c 0,0 -0.20314,0.467969 -0.41222,0.475455 -0.23893,0.0091 -0.26856,-0.508975 -0.50721,-0.507162 -0.25058,6.46e-4 -0.27305,0.546612 -0.52315,0.53885 -0.24299,-0.0083 -0.23253,-0.543599 -0.47542,-0.554707 -0.25634,-0.01267 -0.29697,0.556482 -0.55451,0.538865 -0.2133,-0.0146 -0.18625,-0.482915 -0.39758,-0.507176 -0.24954,-0.02701 -0.33622,0.501504 -0.58623,0.475475 -0.21664,-0.0223 -0.19486,-0.505499 -0.41232,-0.507164 -0.25488,-6.56e-4 -0.23512,0.581978 -0.49141,0.586401 -0.246,0.0011 -0.24649,-0.536235 -0.49143,-0.546752 -0.22821,-0.0091 -0.27119,0.475746 -0.49899,0.467515 -0.23568,-0.0091 -0.24678,-0.52195 -0.48382,-0.523034 -0.2465,-6.53e-4 -0.25803,0.539036 -0.50684,0.538889 -0.23965,-9.2e-5 -0.25381,-0.497858 -0.49137,-0.523019 -0.40638,-0.04287 -0.59832,0.698327 -1.00656,0.697384 -0.38734,-6.57e-4 -0.56664,-0.711291 -0.95092,-0.665695 -0.24048,0.02694 -0.23984,0.539322 -0.48342,0.546813 -0.25392,0.0083 -0.28422,-0.541954 -0.53901,-0.538853 -0.231,6.52e-4 -0.24611,0.497343 -0.47519,0.499216 -0.23342,6.27e-4 -0.25677,-0.508166 -0.49143,-0.499216 -0.22023,0.0091 -0.20916,0.497792 -0.42793,0.507145 -0.2504,0.01273 -0.27878,-0.531887 -0.53076,-0.530937 -0.24439,6.46e-4 -0.26988,0.53009 -0.51555,0.523008 -0.22898,-0.0056 -0.22365,-0.503338 -0.45135,-0.515055 -0.24795,-0.01321 -0.29767,0.515825 -0.54667,0.507151 -0.23194,-0.0083 -0.24286,-0.507151 -0.47544,-0.507151 -0.23234,0 -0.24276,0.507151 -0.47565,0.507151 -0.23248,0 -0.24395,-0.497601 -0.47555,-0.507151 -0.25752,-0.01273 -0.31826,0.538848 -0.57823,0.522984 -0.23336,-0.01453 -0.22698,-0.518138 -0.45982,-0.530937 -0.24798,-0.01359 -0.29769,0.519123 -0.54661,0.507162 -0.22328,-0.0093 -0.22029,-0.503444 -0.44403,-0.499209 -0.23286,0.0011 -0.21094,0.532201 -0.44376,0.538817 -0.23527,0.0055 -0.24626,-0.524841 -0.48324,-0.522978 -0.23569,6.52e-4 -0.23664,0.524374 -0.47507,0.530913 -0.2564,0.0055 -0.28892,-0.555607 -0.54736,-0.546752 -0.24591,0.0091 -0.23614,0.554417 -0.48321,0.554692 -0.25339,2.24e-4 -0.2472,-0.565064 -0.49963,-0.570579 -0.24289,-0.0055 -0.26175,0.530261 -0.50691,0.530942 -0.21647,6.05e-4 -0.2342,-0.463906 -0.45166,-0.467546 -0.22829,-0.0011 -0.26251,0.476452 -0.49142,0.475475 -0.24055,-6.33e-4 -0.27435,-0.51017 -0.51483,-0.507145 -0.21582,6.52e-4 -0.23394,0.457207 -0.45162,0.467515 -0.23954,0.01288 -0.30684,-0.483706 -0.54707,-0.467515 -0.23066,0.01506 -0.23066,0.510442 -0.45942,0.515058 -0.22457,0.0011 -0.24317,-0.473671 -0.46747,-0.483388 -0.21212,-0.0091 -0.26944,0.425713 -0.48372,0.420004 -0.22471,-0.0055 -0.25748,-0.472989 -0.4832,-0.467513 -0.23467,0.0055 -0.24817,0.515055 -0.48335,0.515055 -0.23426,0 -0.24742,-0.507786 -0.48347,-0.515055 -0.24664,-0.0083 -0.29171,0.52062 -0.53905,0.507151 -0.23419,-0.0132 -0.22419,-0.529515 -0.45933,-0.538879 -0.25059,-0.0091 -0.27902,0.536913 -0.531,0.530937 -0.23429,-0.0055 -0.23989,-0.519934 -0.47551,-0.523019 -0.26239,-6.56e-4 -0.28101,0.575029 -0.54698,0.570562 -0.23571,-0.0011 -0.2366,-0.530913 -0.47518,-0.530913 -0.23707,0 -0.23707,0.528073 -0.47571,0.530913 -0.23945,6.53e-4 -0.25356,-0.504363 -0.4913,-0.522998 -0.40434,-0.03065 -0.55413,0.743214 -0.9587,0.744861 -0.42211,6.55e-4 -0.58562,-0.803089 -1.00623,-0.768615 -0.24666,0.02097 -0.25928,0.542543 -0.50761,0.538817 -0.24705,-6.58e-4 -0.24397,-0.554839 -0.49142,-0.554704 -0.2431,7.7e-5 -0.24002,0.547799 -0.48324,0.546784 -0.24108,-6.4e-4 -0.23349,-0.548492 -0.4754,-0.546784 -0.24613,6.3e-4 -0.23152,0.554234 -0.47551,0.562639 -0.24158,0.0091 -0.26379,-0.513164 -0.50728,-0.522998 -0.25546,-0.0091 -0.32195,0.537373 -0.57864,0.507143 -0.21795,-0.02426 -0.16385,-0.526051 -0.38106,-0.53885 -0.24051,-0.01448 -0.24136,0.533174 -0.48321,0.53885 -0.25784,0.0055 -0.28749,-0.544225 -0.54725,-0.554707 -0.39239,-0.01503 -0.49835,0.750499 -0.88923,0.76722 -0.41694,0.01782 -0.59883,-0.77439 -1.01397,-0.734084 -0.22609,0.02195 -0.23701,0.499739 -0.46546,0.498743 -0.24273,-6.59e-4 -0.25009,-0.532652 -0.49296,-0.537931 -0.25532,-0.0055 -0.28738,0.55236 -0.54354,0.543537 -0.23145,-0.0083 -0.22421,-0.514418 -0.45411,-0.521121 -0.24587,-0.0083 -0.26901,0.533304 -0.51484,0.526739 -0.22634,-0.0055 -0.22079,-0.503955 -0.44866,-0.509967 -0.23101,-0.0055 -0.25295,0.485135 -0.48176,0.493129 -0.25046,0.0091 -0.31022,-0.510441 -0.5602,-0.498717 -0.2208,0.01282 -0.23277,0.483539 -0.45416,0.487515 -0.2324,0.0011 -0.25854,-0.495029 -0.49313,-0.493117 -0.23896,6.33e-4 -0.25766,0.521853 -0.49882,0.515532 -0.22876,-0.0055 -0.22155,-0.508866 -0.44803,-0.515532 -0.23414,-0.0055 -0.25667,0.500527 -0.49319,0.504319 -0.24792,0.0011 -0.28964,-0.516782 -0.538,-0.515502 -0.24019,6.27e-4 -0.27539,0.5071 -0.51554,0.5043 -0.2128,-6.53e-4 -0.23374,-0.450442 -0.44822,-0.459483 -0.2557,-0.01262 -0.32501,0.533461 -0.58265,0.504291 -0.22034,-0.02378 -0.17155,-0.521853 -0.39369,-0.537925 -0.24565,-0.01782 -0.26915,0.528241 -0.51486,0.526735 -0.23287,-6.48e-4 -0.24954,-0.500354 -0.48212,-0.50432 -0.23422,-0.0011 -0.26885,0.498387 -0.50484,0.493117 -0.234,-0.0054 -0.2469,-0.511561 -0.48139,-0.515532 -0.23696,-0.0011 -0.26682,0.502985 -0.50438,0.504319 -0.23102,6.51e-4 -0.26303,-0.481818 -0.49326,-0.481904 -0.21858,-4.6e-5 -0.25204,0.456875 -0.47069,0.459482 -0.2192,6.56e-4 -0.26216,-0.446877 -0.48195,-0.448263 -0.21678,-6.29e-4 -0.26466,0.439938 -0.48194,0.437068 -0.2358,-6.54e-4 -0.27685,-0.498286 -0.51537,-0.493088 -0.24791,0.0054 -0.26778,0.54504 -0.51553,0.537918 -0.23445,-0.0055 -0.22381,-0.531131 -0.45936,-0.537918 -0.25435,-0.0083 -0.27348,0.553281 -0.52704,0.549121 -0.24626,-0.0011 -0.24718,-0.546576 -0.49284,-0.549121 -0.24056,-6.64e-4 -0.25334,0.526886 -0.49325,0.526705 -0.23109,-1.47e-4 -0.24072,-0.500348 -0.4707,-0.504319 -0.23679,-0.0011 -0.26682,0.502859 -0.50459,0.504319 -0.21895,6.51e-4 -0.25264,-0.451801 -0.4705,-0.45949 -0.22549,-0.0083 -0.28999,0.442531 -0.5155,0.437068 -0.23402,-0.0055 -0.27882,-0.497175 -0.51538,-0.481897 -0.2466,0.01544 -0.22457,0.57181 -0.47079,0.57157 -0.24057,-2.39e-4 -0.21785,-0.553813 -0.45946,-0.56038 -0.23652,-0.0055 -0.2428,0.524039 -0.48211,0.526735 -0.24792,6.37e-4 -0.26818,-0.515326 -0.51525,-0.537925 -0.39546,-0.03614 -0.56777,0.691514 -0.96374,0.694837 -0.41876,6.55e-4 -0.61716,-0.776873 -1.03111,-0.717223 -0.2419,0.03494 -0.21444,0.567489 -0.45954,0.57155 -0.24632,0.0011 -0.23471,-0.548483 -0.48207,-0.560347 -0.24747,-0.01289 -0.28887,0.525816 -0.53801,0.515502 -0.21236,-0.0091 -0.21108,-0.471712 -0.42576,-0.481904 -0.23337,-0.01267 -0.27857,0.484637 -0.51528,0.481904 -0.24678,-6.59e-4 -0.27944,-0.523738 -0.52681,-0.515502 -0.2342,0.0083 -0.2342,0.5187 -0.47076,0.526715 -0.22512,0.0083 -0.25635,-0.468143 -0.48149,-0.470703 -0.23141,-6.26e-4 -0.27478,0.478472 -0.50478,0.470703 -0.24042,-0.0083 -0.25313,-0.532399 -0.493,-0.526715 -0.23135,0.0055 -0.21829,0.513814 -0.44846,0.526715 -0.25052,0.01447 -0.29712,-0.523807 -0.549,-0.515532 -0.23084,0.0083 -0.24062,0.513105 -0.47063,0.504319 -0.21536,-0.0091 -0.40431,-0.504319 -0.40431,-0.504319 h -3.04807 v 0.773265 c 0,0 1.43187,0.99685397 1.9496,1.68106097 0.41111,0.542317 0.86315,1.849171 0.86315,1.849171 -0.0462,0.219401 -0.18675,0.39691 -0.43701,0.52674 h -3.37349 c -0.15095,-0.161798 -0.29805,-0.311815 -0.44848,-0.414705 -1.26715,-1.22814 -2.44233,-1.016951 -3.49604,-0.504277 -0.88087,0.428337 -1.43068,1.690714 -1.43475,2.566364 -6.7e-4,0.853729 0.39045,1.60258 1.03118,2.084497 0.87178,0.654869 1.89835,0.803983 2.89136,0.470701 0.56567,-0.189876 1.50191,-1.053434 1.50191,-1.053434 h 3.24992 c 0,0 0.39176,0.04715 0.49297,0.190528 0.10788,0.15203 0.004,0.560338 0.004,0.560338 0,0 -1.19313,2.1227452 -2.11802,2.8689562 -0.88647,0.714823 -3.11558,1.400896 -3.11558,1.400896 l -0.95263,0.0448 -2.94757,0.302632 v 2.364671 h 12.28295 V 4.0841438 Z"
     id="profile_right"
     sodipodi:nodetypes="cccssssssssssssssssssssssssssssssssssssssssssssssssssssssssssssssssssssssssssssssssssssssssssssssssssssssssssssssssssssssssssssssssscccsccccssssccscsccccccc"
     inkscape:label="profile_right" />
  <rect
     style="fill:#ddd5d5;fill-opacity:0.768047;fill-rule:evenodd;stroke:#b81e1e;stroke-width:0.0184572"
     id="concrete_left"
     width="140.11058"
     height="49.982468"
     x="-102.11285"
     y="6.44765" />
  <ellipse
     style="fill:#b4cdd0;fill-opacity:0;fill-rule:evenodd;stroke:#b81e1e;stroke-width:0.00016359"
     id="screw_left"
     cx="18.92403"
     cy="-0.99453223"
     rx="0.049918205"
     ry="0.032774579"
     transform="scale(-1)"
     inkscape:label="screw_left" />
  <ellipse
     style="fill:#b4cdd0;fill-opacity:0;fill-rule:evenodd;stroke:#b81e1e;stroke-width:0.000455593"
     id="screw_right"
     cx="-228.31438"
     cy="1.0068094"
     rx="0.1390205"
     ry="0.091276094"
     transform="scale(-1,1)"
     inkscape:label="screw_right" />
  <rect
     style="fill:#e1ecec;fill-opacity:0.77;fill-rule:evenodd;stroke:#b81e1e;stroke-width:0.0126854"
     id="finish_left"
     width="140.11874"
     height="2.0309176"
     x="-102.13686"
     y="4.3049235"
     inkscape:label="finish_left" />
  <rect
     style="fill:#e1ecec;fill-opacity:0.77;fill-rule:evenodd;stroke:#b81e1e;stroke-width:0.0144776"
     id="cover_left"
     width="140.11621"
     height="0.12596738"
     x="-102.12357"
     y="4.1285634"
     inkscape:label="cover_left" />
  <rect
     style="fill:#ddd5d5;fill-opacity:0.768047;fill-rule:evenodd;stroke:#b81e1e;stroke-width:0.0184876"
     id="concrete_right"
     width="140.57491"
     height="49.982399"
     x="171.55905"
     y="6.3449426"
     inkscape:label="concrete_right" />
  <rect
     style="fill:#e1ecec;fill-opacity:0.77;fill-rule:evenodd;stroke:#b81e1e;stroke-width:0.0127064"
     id="finish_right"
     width="140.58311"
     height="2.0309153"
     x="171.53481"
     y="4.3020973"
     inkscape:label="finish_right" />
  <rect
     style="fill:#e1ecec;fill-opacity:0.77;fill-rule:evenodd;stroke:#b81e1e;stroke-width:0.0145015"
     id="cover_right"
     width="140.58055"
     height="0.12596722"
     x="171.5482"
     y="4.1257548"
     inkscape:label="cover_right" />
  <rect
     style="fill:#404242;fill-opacity:0.341246;fill-rule:evenodd;stroke:#b81e1e;stroke-width:0.0247487"
     id="shadow"
     width="316.43805"
     height="0.0084954519"
     x="-48.6768"
     y="56.262676"
     inkscape:label="shadow" />
  <path
     style="fill:#5e5e5e;fill-rule:evenodd;stroke:#000000;stroke-width:0.0295876"
     d="M 45.280563,4.371665 42.31214,4.072432 C 42.016583,3.9366714 41.905913,3.7052596 42.072758,3.330326 c 0,0 0.659549,-0.8689776 1.029373,-1.2687618 0.295134,-0.319043 0.592107,-0.6448416 0.945592,-0.8977135 0.307706,-0.22012852 1.005433,-0.52665573 1.005433,-0.52665573 V 0.0746351 l 3.028268,0.03592843 c 0,0 0.237617,0.47057419 0.454839,0.46681275 0.237211,-0.003779 0.241554,-0.52946948 0.478779,-0.52665858 0.237559,0.0031975 0.229365,0.53015937 0.466814,0.53862212 0.231188,0.00843 0.259475,-0.49638006 0.490742,-0.49074274 0.231536,0.005523 0.235243,0.51855239 0.466813,0.51468437 0.240599,-0.003779 0.227135,-0.52913132 0.466804,-0.5505973 0.262548,-0.02344843 0.347999,0.52734459 0.610447,0.50271792 0.217179,-0.0202703 0.200843,-0.49790033 0.418923,-0.50271792 0.242837,-0.005523 0.248127,0.5274754 0.49076,0.53863085 0.248263,0.0112882 0.303066,-0.52502591 0.550593,-0.50271792 0.209815,0.01881688 0.173247,0.48317433 0.383023,0.50271792 0.272845,0.0254832 0.336737,-0.56387182 0.610434,-0.5505973 0.248244,0.01216024 0.254232,0.55540616 0.502717,0.5505973 0.23495,-0.004651 0.454842,-0.53863085 0.454842,-0.53863085 0,0 0.254202,0.554288 0.502717,0.5505973 0.263087,-0.003779 0.251596,-0.60185247 0.514693,-0.59847376 0.252352,0.0031975 0.226442,0.58237864 0.478774,0.58650731 0.248825,0.003779 0.241955,-0.56817781 0.490741,-0.56256956 0.249813,0.005523 0.216976,0.5819649 0.466818,0.58650731 0.257448,0.004651 0.245259,-0.58234086 0.502717,-0.58650731 0.254115,-0.0037789 0.260539,0.56616821 0.514683,0.56256956 0.236975,-0.003198 0.227886,-0.53536841 0.46487,-0.53797099 0.235676,-0.0023255 0.238254,0.52370523 0.473959,0.52474781 0.237614,7.6741e-4 0.244852,-0.52766627 0.482437,-0.52474781 0.2399,0.0031975 0.234281,0.53085991 0.473968,0.5416772 0.253156,0.0112882 0.296758,-0.52984931 0.550137,-0.52474782 0.239378,0.0046509 0.260055,0.52347656 0.499355,0.51628409 0.234,-0.006976 0.457041,-0.53321347 0.457041,-0.53321347 h 7.304904 c 0,0 0.169952,0.51508939 0.389011,0.53198582 0.244649,0.0188169 0.275345,-0.52206675 0.520662,-0.5206705 0.248408,0.0015503 0.272447,0.53860468 0.520652,0.53263695 0.23742,-0.005523 0.235395,-0.53212438 0.472806,-0.53263695 0.230172,-4.9804e-4 0.230753,0.50453856 0.460839,0.51468049 0.256528,0.0112882 0.306118,-0.54173727 0.562559,-0.52665567 0.250152,0.0147667 0.234222,0.57635666 0.484752,0.57453505 0.242343,-0.00155 0.218594,-0.55413491 0.46082,-0.56255987 0.238283,-0.0084298 0.252177,0.51933917 0.490751,0.5206705 0.229882,0.00155 0.248989,-0.49133283 0.478793,-0.49673275 0.246965,-0.0061043 0.291759,0.51587714 0.538607,0.5086992 0.238283,-0.006976 0.252187,-0.52005135 0.490751,-0.52067438 0.231335,-5.959e-4 0.247264,0.50398336 0.478793,0.50271792 0.240027,-0.00155 0.250734,-0.5275219 0.490722,-0.52665567 0.2655,7.6741e-4 0.273901,0.60544531 0.538645,0.58650731 0.22902,-0.0165011 0.160399,-0.54538534 0.389012,-0.56855084 0.251305,-0.02548322 0.292194,0.53406518 0.544604,0.52665566 0.235676,-0.006976 0.478794,-0.52067438 0.478794,-0.52067438 0,0 0.305537,0.55771419 0.562549,0.53264956 0.236257,-0.0231577 0.176038,-0.56549577 0.412954,-0.58052602 0.243786,-0.01534807 0.252477,0.5307853 0.496719,0.53863084 0.236839,0.007558 0.277661,-0.49565529 0.514693,-0.49075438 0.24118,0.005523 0.261741,0.5282428 0.502707,0.52067438 0.246102,-0.007848 0.232498,-0.56917872 0.478794,-0.56255987 0.25334,0.0069764 0.207887,0.59157101 0.46082,0.60445505 0.262312,0.0133133 0.276207,-0.5703056 0.538636,-0.57453213 0.242623,-0.0037789 0.272447,0.53100719 0.514664,0.51468049 0.220047,-0.0147667 0.401007,-0.52665567 0.401007,-0.52665567 h 3.02227 c 0,0 12.276838,4.15669015 12.357677,4.15633065 0.149682,-6.744e-4 0.337793,0.4194091 0.283445,0.4528028 -0.09467,0.1808397 -0.232779,0.309872 -0.440114,0.3554753 L 87.43688,4.9881476 84.552248,3.5458277 H 54.60672 c -0.170127,0.055705 -0.404553,0.058456 -0.457031,0.2584919 l -0.06773,0.2581439 v 4.1275113 c 0.08895,0.2716356 0.228467,0.4673486 0.474918,0.502717 h 38.821961 l -0.02607,1.8995002 -14.046725,2.460375 H 47.530822 c -1.529402,0.04305 -2.583043,-0.503844 -3.554925,-1.152116 -0.803121,-0.599209 -1.474101,-1.295329 -1.939052,-2.1425357 -0.06847,-0.4400844 0.09841,-0.6280256 0.344093,-0.7315581 L 45.364353,8.758485 c 0,0 0.490424,0.365594 0.77801,0.4488476 0.951222,0.2753708 2.069779,0.5357327 2.968426,0.1196916 0.693845,-0.321227 1.180974,-1.0786463 1.412394,-1.8073839 C 50.74806,6.8115161 50.698956,5.980088 50.415449,5.2933221 50.161099,4.6770838 49.673075,4.1033849 49.07487,3.8091081 48.357033,3.4559786 47.56135,3.6312798 46.81264,3.7253231 46.560865,3.7569691 46.317207,3.84429 46.082507,3.9407609 45.801837,4.0561388 45.280549,4.3716637 45.280549,4.3716637 Z"
     id="compensator_left"
     sodipodi:nodetypes="cccsscccssssssssssssscsssssssssssssccssssssssssssssssscsssssssssccscccccscccccccccccsssssaac"
     inkscape:label="compensator_left">
    <title
       id="title7">metal</title>
  </path>
  <path
     style="fill:#5e5e5e;fill-rule:evenodd;stroke:#000000;stroke-width:0.0295876"
     d="m 164.43792,4.4019242 2.96842,-0.299234 c 0.29555,-0.1357596 0.40624,-0.3671714 0.23944,-0.7421061 0,0 -0.65954,-0.8689766 -1.02936,-1.2687617 -0.29515,-0.3190431 -0.59211,-0.6448416 -0.9456,-0.8977126 -0.30768,-0.22012848 -1.00541,-0.52665569 -1.00541,-0.52665569 V 0.10489327 l -3.02827,0.0359284 c 0,0 -0.23771,0.47057418 -0.45485,0.46681371 -0.23713,-0.003779 -0.24147,-0.52947045 -0.47877,-0.52665566 -0.2377,0.0031975 -0.22931,0.53015549 -0.4668,0.53861921 -0.23134,0.00843 -0.25943,-0.49638006 -0.49076,-0.49074275 -0.23162,0.005523 -0.23538,0.51855143 -0.4668,0.51468341 -0.2406,-0.003779 -0.22729,-0.52913132 -0.46681,-0.5505973 -0.2626,-0.02344843 -0.34802,0.52734556 -0.61045,0.50271792 -0.21715,-0.0202703 -0.20093,-0.49789646 -0.41895,-0.50271792 -0.24291,-0.005523 -0.24812,0.5274754 -0.49075,0.53863084 -0.24812,0.0112882 -0.30304,-0.5250259 -0.55056,-0.50271695 -0.20991,0.0188169 -0.17314,0.48317433 -0.38305,0.50271695 -0.27273,0.0254832 -0.33672,-0.56387182 -0.61045,-0.55059341 -0.24811,0.01216024 -0.2542,0.55540325 -0.5027,0.55059341 -0.23481,-0.004651 -0.45483,-0.53863084 -0.45483,-0.53863084 0,0 -0.2542,0.55428897 -0.50273,0.5505973 -0.26318,-0.003779 -0.2516,-0.60185247 -0.5147,-0.59847376 -0.25217,0.0031975 -0.22641,0.58237864 -0.47876,0.5865073 -0.24871,0.003779 -0.24204,-0.56817683 -0.49075,-0.56256859 -0.24986,0.005523 -0.21686,0.5819649 -0.46681,0.58650731 -0.25739,0.004651 -0.24523,-0.58234085 -0.50271,-0.58650731 -0.25421,-0.0037789 -0.26057,0.56616822 -0.51469,0.56256859 -0.23713,-0.003198 -0.22787,-0.53536744 -0.46487,-0.53797002 -0.23568,-0.0023255 -0.23828,0.52370524 -0.47396,0.52474782 -0.2377,7.674e-4 -0.24494,-0.52766628 -0.48245,-0.52474782 -0.24001,0.0031975 -0.23422,0.53085992 -0.47395,0.54167623 -0.25305,0.0112882 -0.29677,-0.5298493 -0.55013,-0.52474782 -0.23945,0.004651 -0.26,0.52347657 -0.49936,0.51628507 -0.23394,-0.006976 -0.45705,-0.53321348 -0.45705,-0.53321348 h -7.30489 c 0,0 -0.16995,0.51508842 -0.38901,0.53198583 -0.24466,0.0188169 -0.27535,-0.52206675 -0.52069,-0.52067148 -0.24842,0.00155 -0.27245,0.53860468 -0.52066,0.53263793 -0.23742,-0.005523 -0.23539,-0.53212535 -0.4728,-0.53263793 -0.23018,-4.9803e-4 -0.23075,0.50453857 -0.46082,0.51468147 -0.25652,0.0112882 -0.30615,-0.54173824 -0.56258,-0.52665664 -0.25015,0.0147667 -0.23423,0.57635957 -0.48476,0.57453601 -0.24233,-0.00155 -0.21859,-0.55413587 -0.46081,-0.56256084 -0.23828,-0.0084298 -0.25218,0.51933918 -0.49075,0.52067148 -0.22989,0.00155 -0.249,-0.4913338 -0.47877,-0.49673276 -0.24697,-0.006104 -0.29178,0.51587618 -0.53864,0.50869921 -0.23828,-0.006976 -0.25218,-0.52005232 -0.49075,-0.52067147 -0.23134,-5.9978e-4 -0.24726,0.50397948 -0.47877,0.50271501 -0.24001,-0.00155 -0.25073,-0.5275219 -0.49075,-0.52665664 -0.2655,7.6741e-4 -0.27389,0.60544531 -0.53863,0.58650731 -0.22902,-0.0165011 -0.1604,-0.54538535 -0.38899,-0.56854988 -0.25131,-0.02548321 -0.29219,0.53406421 -0.54463,0.52665567 -0.23568,-0.006976 -0.47876,-0.52067147 -0.47876,-0.52067147 0,0 -0.30555,0.5577103 -0.56256,0.53264567 -0.23626,-0.0231577 -0.17603,-0.56549576 -0.41296,-0.58052505 -0.24378,-0.01534806 -0.25246,0.53078434 -0.49674,0.53863084 -0.23683,0.007558 -0.27766,-0.49565626 -0.51467,-0.49075146 -0.24118,0.005523 -0.26173,0.52823989 -0.50274,0.52067147 -0.2461,-0.007848 -0.23248,-0.56917969 -0.47876,-0.56256084 -0.25334,0.0069764 -0.20788,0.59157101 -0.46081,0.60445505 -0.26231,0.013323 -0.27622,-0.57030463 -0.53865,-0.57453214 -0.24262,-0.003779 -0.27273,0.5310072 -0.51469,0.51468147 -0.22004,-0.0147667 -0.40097,-0.52665664 -0.40097,-0.52665664 h -3.02228 c 0,0 -12.27682,4.15669011 -12.35769,4.15633161 -0.14969,-6.744e-4 -0.33779,0.4194082 -0.28345,0.4528028 0.0947,0.1808397 0.23279,0.309871 0.44011,0.3554744 l 10.56729,-0.039145 2.88463,-1.4423169 h 29.94562 c 0.17024,0.055675 0.40456,0.058456 0.45705,0.2584909 l 0.0677,0.2581439 v 4.1275113 c -0.0889,0.2716366 -0.22843,0.4673486 -0.47493,0.502718 h -38.82192 l 0.0261,1.8994997 14.04674,2.460375 h 31.77594 c 1.5294,0.04305 2.58303,-0.503844 3.55492,-1.152116 0.80313,-0.59921 1.47411,-1.295329 1.93906,-2.1425362 0.0686,-0.4400835 -0.0984,-0.6280255 -0.3441,-0.7315581 l -2.98342,-0.2678722 c 0,0 -0.49041,0.365594 -0.778,0.4488476 -0.95124,0.2753718 -2.06978,0.5357327 -2.96841,0.1196916 -0.69387,-0.3212261 -1.18099,-1.0786453 -1.41241,-1.8073838 -0.22497,-0.7081233 -0.17575,-1.5395524 0.1077,-2.2263173 0.2545,-0.6162393 0.74235,-1.1899372 1.34058,-1.4842121 0.71783,-0.3531324 1.5135,-0.1778283 2.26223,-0.083785 0.25189,0.031646 0.49541,0.1189679 0.73013,0.2154388 0.28055,0.115377 0.80194,0.4309027 0.80194,0.4309027 z"
     id="compensator_right"
     sodipodi:nodetypes="cccsscccssssssssssssscsssssssssssssccssssssssssssssssscsssssssssccscccccscccccccccccsssssaac"
     inkscape:label="compensator_right">
    <title
       id="title8">metal</title>
  </path>
  <path
     style="fill:#5e5e5e;fill-rule:evenodd;stroke:#000000;stroke-width:0.0295876"
     d="m 70.772745,3.7958045 h -2.471387 c -0.173431,0.031181 -0.317096,0.1219493 -0.389331,0.3554772 l -0.03391,4.0117836 c 0.04166,0.2560598 0.119286,0.4743735 0.406268,0.4739587 h 71.196485 c 0.27911,-0.042672 0.45439,-0.1943313 0.50781,-0.4739587 V 4.117421 C 139.89108,3.9251739 139.75677,3.7581911 139.447,3.7111663 h -2.40367 l -3.03,1.4896111 H 73.80268 Z"
     id="compensator_middle"
     sodipodi:nodetypes="ccccccccccccc"
     inkscape:label="compensator_middle">
    <title
       id="title9">metal</title>
  </path>
</svg>
