<?xml version="1.0" encoding="UTF-8" standalone="no"?>
<!-- Created with Inkscape (http://www.inkscape.org/) -->

<svg
   width="210mm"
   height="297mm"
   viewBox="0 0 210 297"
   version="1.1"
   id="svg1"
   inkscape:version="1.4 (86a8ad7, 2024-10-11)"
   sodipodi:docname="DSHA-75-200.svg"
   xmlns:inkscape="http://www.inkscape.org/namespaces/inkscape"
   xmlns:sodipodi="http://sodipodi.sourceforge.net/DTD/sodipodi-0.dtd"
   xmlns="http://www.w3.org/2000/svg"
   xmlns:svg="http://www.w3.org/2000/svg">
  <sodipodi:namedview
     id="namedview1"
     pagecolor="#ffffff"
     bordercolor="#000000"
     borderopacity="0.25"
     inkscape:showpageshadow="2"
     inkscape:pageopacity="0.0"
     inkscape:pagecheckerboard="0"
     inkscape:deskcolor="#d1d1d1"
     inkscape:document-units="mm"
     inkscape:zoom="0.52337612"
     inkscape:cx="-239.78931"
     inkscape:cy="-39.168772"
     inkscape:window-width="2560"
     inkscape:window-height="1377"
     inkscape:window-x="-8"
     inkscape:window-y="-8"
     inkscape:window-maximized="1"
     inkscape:current-layer="svg1" />
  <defs
     id="defs1" />
  <rect
     style="fill:#b8b8b8;fill-opacity:1;fill-rule:evenodd;stroke:#b81e1e;stroke-width:0.0331264"
     id="concrete_right"
     width="78.181763"
     height="29.187719"
     x="196.05388"
     y="75.094658" />
  <rect
     style="fill:#b8b8b8;fill-opacity:1;fill-rule:evenodd;stroke:#b81e1e;stroke-width:0.033353"
     id="concrete_left"
     width="78.220573"
     height="29.5737"
     x="-64.358154"
     y="74.987801" />
  <rect
     style="fill:#a39a9a;fill-rule:evenodd;stroke:#b81e1e;stroke-width:0.0553103"
     id="finish_right"
     width="65.784698"
     height="69.705307"
     x="208.59953"
     y="5.3054028" />
  <rect
     style="fill:#a39a9a;fill-rule:evenodd;stroke:#b81e1e;stroke-width:0.0551358"
     id="finish_left"
     width="65.784874"
     height="69.263016"
     x="-64.384323"
     y="5.7504616" />
  <rect
     style="fill:#a39a9a;fill-rule:evenodd;stroke:#b81e1e;stroke-width:0.0329314"
     id="cover_right"
     width="65.769066"
     height="4.9670687"
     x="208.51762"
     y="0.22918507" />
  <rect
     style="fill:#a39a9a;fill-rule:evenodd;stroke:#b81e1e;stroke-width:0.0341611"
     id="cover_left"
     width="65.767876"
     height="5.3449874"
     x="-64.354279"
     y="0.28344244" />
  <rect
     style="fill:#404242;fill-opacity:0.341246;fill-rule:evenodd;stroke:#b81e1e;stroke-width:0.0230489"
     id="shadow"
     width="246.93484"
     height="0.0094426908"
     x="-21.674322"
     y="104.13567"
     inkscape:label="shadow" />
  <ellipse
     style="opacity:0;fill:none;fill-opacity:0;fill-rule:evenodd;stroke-width:0.00368993;stroke-opacity:0"
     id="bolt_left"
     cx="46.04105"
     cy="-72.548943"
     rx="0.094999999"
     ry="0.028942173"
     inkscape:label="bolt_left"
     transform="scale(-1)" />
  <ellipse
     style="opacity:0;fill:none;fill-opacity:0;fill-rule:evenodd;stroke-width:0.000191947;stroke-opacity:0"
     id="bolt_right"
     cx="255.29623"
     cy="72.643509"
     rx="0.0049418169"
     ry="0.0015055466"
     inkscape:label="bolt_right" />
  <path
     id="profile_left"
     style="display:inline;fill:#5e5e5e;fill-rule:evenodd;stroke:#000000;stroke-width:0.0421211"
     d="M 1.466529,0.02106055 V 70.45147 c -0.17263,1.41678 -0.99041004,1.86676 -2.01125004,2.01124 H -45.930441 -55.943101 l -0.0131,2.516229 H 13.882197 V 13.414091 L 11.383387,13.057121 9.807477,12.77414 7.343487,11.75111 5.582561,10.138201 5.066692,8.8474505 c -0.108131,-0.33406 0.0175,-0.56986 0.208959,-0.7771 h 2.990746 c 0,0 0.53676,0.61527 0.89897,0.77491 0.96073,0.42289 2.14366,0.73522 3.12786,0.37003 0.63729,-0.23646 1.14657,-0.86352 1.38002,-1.50191 0.30469,-0.83336 -0.0211,-2.50569 -0.11102,-2.65986 -0.5904,-1.01041 -1.36936,-1.61071 -2.49446,-1.6129399 -0.64814,0.0243 -1.55503,0.1774899 -2.6773,1.2429099 l -0.34391,0.148 H 5.571682 C 4.917292,4.6256605 5.028352,4.2779005 5.053621,3.9455706 L 5.558611,2.9094705 6.470642,1.9495706 7.437087,1.1507506 V 0.02540055 H 6.326992 c 0,0 -0.18249,0.50961999 -0.4005,0.51803999 -0.233861,0.0108 -0.244851,-0.52211999 -0.478881,-0.51370999 -0.24609,0.007 -0.22856,0.55330999 -0.47451,0.56593999 -0.26654,0.0117 -0.29931,-0.57434999 -0.565929,-0.56593999 -0.236421,0.008 -0.22926,0.53216999 -0.465811,0.53548999 -0.24027,0.003 -0.24736,-0.52267999 -0.48758,-0.53109999 -0.25337,-0.008 -0.29726,0.56041999 -0.54852,0.52671999 -0.20765,-0.0279 -0.32214,-0.53977999 -0.32214,-0.53977999 z M 3.974049,11.618351 c 0.0448,1.1e-4 0.0935,0.003 0.14584,0.013 l 1.37564,1.11444 1.097046,0.870681 1.358239,0.679119 1.358241,0.365661 2.089599,0.29603 c 0.448401,0.23797 0.548181,0.47596 0.487571,0.71395 v 15.21927 H 3.440769 V 12.13634 c 0.0844,-0.29334 0.21997,-0.518889 0.53328,-0.51804 z m -0.59423,20.36271 h 8.519466 V 51.90408 H 3.477769 Z m 0.074,20.932999 h 8.445466 V 72.98509 H 3.40376 Z"
     inkscape:label="profile_left" />
  <path
     id="profile_right"
     style="display:inline;fill:#5e5e5e;fill-rule:evenodd;stroke:#000000;stroke-width:0.0421162"
     d="M 202.42859,0.02105811 V 1.202878 l 1.01634,0.79873 0.93152,1.2623101 0.55283,1.03383 -0.71821,0.60066 h -2.39842 l -0.40483,-0.1610499 -0.67466,-0.7073501 c -1.17887,-0.59843 -1.45293,-0.68367 -2.84896,-0.36561 -0.84147,0.1916301 -1.24338,0.8371501 -1.60398,1.5517702 -0.2485,0.9164099 -0.48427,1.8345902 0.13055,2.8141199 0.54344,1.0538303 1.38416,1.4492599 2.42236,1.405969 0.72672,-0.0889 1.45405,-0.2220786 2.18079,-0.7769992 l 0.52449,-0.5571598 h 3.07743 c 0.25818,0.097695 0.41253,0.2684499 0.36999,0.5811203 l -1.12954,1.9217605 -1.32325,1.17092 -1.72807,0.80092 -2.28522,0.507079 -2.54858,0.365651 v 61.529393 h 69.85854 v -2.478911 h -9.8831 -45.52627 c -1.18716,-0.193739 -1.90049,-0.888659 -2.08282,-2.14814 V 0.03848811 h -1.08386 c 0,0 -0.12722,0.59779994 -0.3656,0.61591002 -0.24554,0.0168003 -0.22174,-0.56806004 -0.46795,-0.57021004 -0.23249,-0.0020005 -0.21885,0.51693003 -0.45052,0.53103998 -0.26617,0.0168998 -0.32168,-0.56153003 -0.5876,-0.54191001 -0.22659,0.0168998 -0.20192,0.51638999 -0.42878,0.53105005 -0.24174,0.0168003 -0.28223,-0.50620005 -0.52451,-0.50279003 -0.23545,0.002995 -0.2632,0.51554997 -0.49841,0.50279003 -0.24766,-0.0125992 -0.46138,-0.58331 -0.46138,-0.58331 z m 3.4779,11.58940089 c 0.23388,-0.008 0.39123,0.182829 0.53757,0.400491 v 18.98922 l -8.50762,-0.03261 V 15.734819 c 0.0503,-0.31293 0.16504,-0.590391 0.59417,-0.69644 l 1.81512,-0.25248 1.53004,-0.42222 1.38201,-0.685569 1.1992,-0.855331 1.18617,-1.13175 c 0.0973,-0.0529 0.1854,-0.0779 0.26334,-0.0805 z m -7.93521,20.41262 8.49453,0.06311 v 19.93381 h -8.49453 z m 0.0174,20.937101 h 8.4967 v 20.057831 h -8.54895 z"
     inkscape:label="profile_right" />
  <path
     style="fill:#5e5e5e;fill-rule:evenodd;stroke:#000000;stroke-width:0.0301658"
     d="m 201.71635,0.48055823 c 0.064,-0.0640174 1.39574,0.81205427 1.98916,1.35457707 0.41689,0.381183 1.10393,1.3273448 1.06169,1.4400135 0,0 0.0295,0.3217525 -0.0487,0.4515224 -0.0709,0.1180733 -0.34168,0.2320183 -0.34168,0.2320183 l -2.96542,0.2562194 c 0,0 -0.25888,-0.055243 -0.37831,-0.1098069 -0.17653,-0.080869 -0.30404,-0.2559301 -0.48813,-0.3172951 -0.91664,-0.3056983 -2.01586,-0.6023024 -2.89221,-0.1951236 -0.82865,0.3849223 -1.3965,1.3236752 -1.62306,2.208831 -0.18301,0.7155893 -0.0771,1.5571395 0.29282,2.1966059 0.36456,0.6303424 1.0293,1.1425218 1.7329,1.3301667 0.85658,0.2284784 1.80092,-0.05604 2.63594,-0.3539008 0.23408,-0.083562 0.63457,-0.3905263 0.63457,-0.3905263 l 3.09964,0.3172952 c 0.033,0 0.39201,0.2284784 0.3539,0.4027215 -0.0325,0.1484766 -0.12192,0.4393272 -0.12192,0.4393272 0,0 -0.83165,1.2035673 -1.39119,1.6596573 -0.63766,0.519768 -1.41887,0.840962 -2.17219,1.171519 -0.66718,0.292825 -2.08676,0.434331 -2.08676,0.378311 H 166.55848 L 152.32933,10.402184 V 8.4862382 h 39.75859 c 0.21962,-0.073191 0.34983,-0.2278801 0.39051,-0.4637076 V 3.6781097 c -0.0918,-0.2060424 -0.25387,-0.2983991 -0.47591,-0.292825 h -30.75251 l -3.03255,1.4705066 h -10.73719 c 0,0 -0.31273,-0.2488404 -0.31066,-0.4241505 0.002,-0.1886321 0.34516,-0.4487204 0.34516,-0.4487204 l 12.63298,-4.12470741 3.03745,0.0345016 c 0,0 0.19335,0.49406108 0.40989,0.50480045 0.24265,0.0118662 0.27039,-0.51975779 0.51343,-0.51775351 0.245,0.001994 0.2639,0.53443594 0.50911,0.53068663 0.25769,-0.002991 0.26006,-0.57709429 0.51775,-0.57381364 0.26509,0.002991 0.25268,0.60194342 0.51774,0.60400753 0.24972,0.001994 0.24647,-0.55940473 0.49617,-0.56088052 0.227,-0.001994 0.23024,0.49877762 0.45737,0.50480045 0.2633,0.005983 0.29763,-0.56513838 0.56088,-0.55657281 0.24943,0.008974 0.24648,0.55964405 0.49615,0.56088052 0.23821,0.001994 0.24058,-0.5271168 0.47895,-0.53068662 0.24795,-0.002991 0.26684,0.53750717 0.5148,0.53726786 0.24736,-2.2935e-4 0.26537,-0.54883488 0.51257,-0.5369388 0.21696,0.0117664 0.18684,0.48758953 0.40269,0.51252841 0.25888,0.029815 0.35012,-0.50252693 0.61018,-0.48814794 0.24117,0.0147579 0.27097,0.517933 0.51253,0.51255833 0.25918,-0.005983 0.26567,-0.57897891 0.52476,-0.57357433 0.23378,0.005983 0.21814,0.52274927 0.45151,0.5369388 0.24413,0.0147579 0.29254,-0.5076922 0.53695,-0.50030327 0.22994,0.005983 0.24589,0.49068071 0.47593,0.50030327 0.24471,0.008974 0.30428,-0.49233599 0.54917,-0.48811802 0.23585,0.002991 0.27659,0.48957387 0.51253,0.48811802 0.2329,-0.001994 0.26744,-0.49656393 0.50034,-0.48811802 0.23911,0.008974 0.23674,0.52973933 0.47593,0.53694877 0.24146,0.005983 0.27098,-0.51702558 0.51253,-0.51253838 0.2332,0.0059829 0.24295,0.50692439 0.47593,0.51253838 0.25593,0.005983 0.29343,-0.54627218 0.54917,-0.53694877 0.2332,0.008974 0.23054,0.51755408 0.46371,0.52475355 0.25888,0.008974 0.54917,-0.54916394 0.54917,-0.54916394 h 7.37082 c 0,0 0.18302,0.50662524 0.40273,0.52475355 0.25533,0.0206411 0.30569,-0.54036902 0.56135,-0.52475355 0.22759,0.0147579 0.21166,0.5097264 0.43933,0.52475355 0.26419,0.0177494 0.32102,-0.54571377 0.58577,-0.53694877 0.25297,0.008974 0.27157,0.55551582 0.52472,0.54914399 0.23645,-0.005983 0.2273,-0.53098577 0.46375,-0.53694877 0.25297,-0.005983 0.27156,0.55229501 0.52475,0.54916394 0.24175,-0.002991 0.24619,-0.54267245 0.48812,-0.5369388 0.24265,0.005983 0.22139,0.55116822 0.46374,0.56134918 0.26153,0.0117665 0.28722,-0.56134918 0.54913,-0.56134918 0.26183,0 0.28752,0.57091191 0.54917,0.56134918 0.2394,-0.008974 0.22434,-0.54363968 0.46371,-0.54916393 0.22729,-0.005983 0.23645,0.49063085 0.46374,0.50034316 0.24176,0.008974 0.29519,-0.49538729 0.53695,-0.48814794 0.23289,0.005983 0.25504,0.49753118 0.48815,0.50034316 0.24441,0.002991 0.28013,-0.51681618 0.52472,-0.51253838 0.24736,0.005983 0.26508,0.53408693 0.51254,0.53694877 0.26448,0.002991 0.29698,-0.57275665 0.56135,-0.56135916 0.23349,0.008974 0.21785,0.52687749 0.45155,0.53694877 0.23556,0.008974 0.26449,-0.50178903 0.50031,-0.50034316 0.23291,0.001994 0.25505,0.4989272 0.48815,0.50034316 0.24176,0.001994 0.27099,-0.51534039 0.51254,-0.51253838 0.24736,0.002991 0.26507,0.54152572 0.51253,0.53694877 0.23911,-0.005983 0.23703,-0.52564102 0.47596,-0.53694877 0.25003,-0.0117664 0.29891,0.52171222 0.54913,0.51253838 0.22139,-0.008974 0.22996,-0.47980173 0.45153,-0.48812799 0.23881,-0.008974 0.3054,0.58272822 0.52475,0.48812799 0.27069,-0.11689664 0.55374,-0.64327555 0.53695,-0.53694877 h 2.96541 z"
     id="compensator_right"
     sodipodi:nodetypes="cscsccsssssssccscsscccccccccccscccssssassssssssssssssssssssssccssssssssssssssssaasssssssssccc"
     inkscape:label="compensator_right">
    <title
       id="title13">metal</title>
  </path>
  <path
     style="fill:#5e5e5e;fill-rule:evenodd;stroke:#000000;stroke-width:0.0301658"
     d="M 8.447079,0.38441242 C 8.382959,0.32039502 7.051348,1.1964467 6.457933,1.7389995 6.041025,2.1201426 5.353983,3.0663044 5.396236,3.1789831 c 0,0 -0.02923,0.3217823 0.04882,0.4515124 0.07091,0.1180733 0.341694,0.2320183 0.341694,0.2320183 l 2.965424,0.2562193 c 0,0 0.258909,-0.055143 0.378303,-0.1098068 0.176434,-0.080869 0.30404,-0.2559302 0.488134,-0.3172653 0.916632,-0.3056982 2.015865,-0.6023323 2.892205,-0.1951235 0.828641,0.3849023 1.396487,1.3236852 1.623046,2.2088011 0.183164,0.7156192 0.07693,1.5571693 -0.292885,2.1966058 C 13.476421,8.5323168 12.811692,9.0444962 12.108099,9.2321211 11.251504,9.4605896 10.307183,9.1760811 9.472169,8.8782204 9.238233,8.7946584 8.837592,8.487714 8.837592,8.487714 L 5.737935,8.8050092 c -0.03303,0 -0.391985,0.2284784 -0.353894,0.4027215 0.0325,0.1484866 0.122031,0.4393072 0.122031,0.4393072 0,0 0.831648,1.2035581 1.391184,1.6596571 0.63766,0.519768 1.418874,0.840992 2.1722,1.171539 0.667168,0.292825 2.086776,0.434312 2.086776,0.378281 H 43.605019 L 57.834152,10.306039 V 8.3900924 H 18.075547 C 17.855899,8.3169011 17.725721,8.1622122 17.685039,7.9263548 v -4.344381 c 0.09195,-0.2060424 0.253801,-0.298409 0.475927,-0.2928349 h 30.752506 l 3.032552,1.4705065 h 10.7372 c 0,0 0.312708,-0.2488403 0.310644,-0.4241504 -0.002,-0.1886221 -0.345165,-0.4487104 -0.345165,-0.4487104 l -12.632984,-4.12471742 -3.037448,0.0345016 c 0,0 -0.193409,0.4940511 -0.409872,0.50480044 -0.242767,0.0117665 -0.270389,-0.51973785 -0.513435,-0.51773356 -0.245121,0.001994 -0.264018,0.53443593 -0.509119,0.53068662 -0.257605,-0.002991 -0.260148,-0.57711422 -0.517743,-0.57384355 -0.265164,0.002991 -0.25256,0.60197333 -0.517744,0.60404742 -0.249608,0.001994 -0.246566,-0.5594147 -0.496175,-0.56089049 -0.227052,-0.001994 -0.230363,0.49877762 -0.457345,0.50480044 -0.26331,0.005983 -0.297642,-0.56513837 -0.560891,-0.5565728 -0.249488,0.008974 -0.246567,0.55964405 -0.496165,0.56088052 -0.238281,0.001994 -0.240674,-0.52711681 -0.478924,-0.53068663 -0.248013,-0.002991 -0.266789,0.53750718 -0.514822,0.53724792 -0.247435,-2.3932e-4 -0.265403,-0.54884485 -0.512548,-0.53694877 -0.217022,0.0117665 -0.186878,0.48761944 -0.402712,0.51255832 -0.258732,0.029815 -0.350102,-0.50255684 -0.61017,-0.48814793 -0.241258,0.0147579 -0.270983,0.51790308 -0.512544,0.51253838 -0.259057,-0.005983 -0.265669,-0.57895897 -0.52474,-0.57355438 -0.233817,0.005983 -0.218114,0.52274926 -0.45153,0.53694877 -0.244179,0.0147579 -0.292412,-0.5076922 -0.536948,-0.50034316 -0.230069,0.005983 -0.245951,0.4907206 -0.475928,0.50034316 -0.24471,0.008974 -0.304276,-0.49234597 -0.549154,-0.48812799 -0.235884,0.002991 -0.27662,0.48954395 -0.512542,0.48812799 -0.232992,-0.001994 -0.267469,-0.49656394 -0.500337,-0.48812799 -0.239013,0.008974 -0.236888,0.52974929 -0.475933,0.53694876 -0.241522,0.005983 -0.270982,-0.51701561 -0.512543,-0.51255832 -0.233109,0.005983 -0.24285,0.50692439 -0.475927,0.51255832 -0.255927,0.005983 -0.293328,-0.54627218 -0.549157,-0.53694876 -0.233287,0.008974 -0.230423,0.51755407 -0.463728,0.5247336 -0.258761,0.008974 -0.549148,-0.54914399 -0.549148,-0.54914399 h -7.370839 c 0,0 -0.182957,0.50663521 -0.402715,0.52475354 -0.255278,0.0206411 -0.30569,-0.54036901 -0.561358,-0.52475354 -0.227708,0.0147579 -0.211708,0.50973637 -0.439321,0.52475354 -0.26431,0.0177494 -0.321028,-0.54571377 -0.585761,-0.53693879 -0.253034,0.008974 -0.271631,0.55550584 -0.524742,0.54913402 -0.236415,-0.005983 -0.227294,-0.53101569 -0.463727,-0.53694877 -0.253094,-0.005983 -0.271572,0.552295 -0.524748,0.54914399 -0.241877,-0.002991 -0.246305,-0.54267245 -0.488137,-0.53694877 -0.242643,0.005983 -0.221242,0.55116822 -0.463727,0.56135916 -0.261536,0.0117664 -0.287394,-0.56135916 -0.549149,-0.56135916 -0.261771,0 -0.287571,0.5709518 -0.549157,0.56135916 -0.239426,-0.008974 -0.224194,-0.54361975 -0.463727,-0.54914399 -0.227353,-0.005983 -0.236534,0.49060094 -0.463728,0.50034315 -0.24167,0.008974 -0.295157,-0.49537732 -0.536948,-0.48814793 -0.232903,0.005983 -0.25516,0.49754115 -0.488137,0.50034316 -0.244474,0.002991 -0.280279,-0.51681618 -0.524742,-0.51253838 -0.247396,0.005983 -0.265137,0.53405701 -0.51254,0.53694876 -0.264605,0.002991 -0.296976,-0.57274668 -0.561357,-0.56135915 -0.233641,0.008974 -0.217877,0.52687749 -0.451527,0.53694877 -0.235648,0.008974 -0.264488,-0.50178904 -0.500336,-0.50034316 -0.232992,0.001994 -0.255131,0.49889728 -0.488133,0.50034316 -0.241611,0.001994 -0.270953,-0.51537031 -0.512543,-0.51253838 -0.247426,0.002991 -0.265138,0.54152571 -0.512542,0.53694876 -0.239131,-0.005983 -0.237036,-0.52564101 -0.475937,-0.53694876 -0.250112,-0.0117665 -0.298924,0.52172219 -0.549145,0.51253838 -0.221509,-0.008974 -0.23004,-0.47983165 -0.45153,-0.48814794 -0.238718,-0.008974 -0.305386,0.58275813 -0.524743,0.48814794 -0.270804,-0.11689665 -0.553739,-0.64330547 -0.536949,-0.53694877 H 8.447079 Z"
     id="compensator_left"
     sodipodi:nodetypes="cscsccsssssssccscsscccccccccccscccssssassssssssssssssssssssssccssssssssssssssssaasssssssssccc"
     inkscape:label="compensator_left">
    <title
       id="title14">metal</title>
  </path>
  <path
     style="fill:#5e5e5e;fill-rule:evenodd;stroke:#000000;stroke-width:0.0301658"
     d="m 35.712109,3.4450643 h -2.611521 c -0.254304,0.096824 -0.377132,0.2653732 -0.378309,0.5003431 v 4.039311 c 0.04921,0.2122348 0.184787,0.3636928 0.463727,0.4149168 H 176.95399 c 0.23733,-0.079972 0.43192,-0.2028017 0.45152,-0.5003432 V 3.8965767 c -0.0523,-0.2042675 -0.227,-0.3386343 -0.43933,-0.4515124 h -2.67254 l -3.01421,1.4400134 h -39.40245 c 0,0 -0.19393,0.5307764 -0.42279,0.5422238 -0.26626,0.014758 -0.28575,-0.581751 -0.55227,-0.5781214 -0.24441,0.00299 -0.24737,0.5427323 -0.49187,0.5436198 -0.23821,7.877e-4 -0.245,-0.5261197 -0.48322,-0.526379 -0.25032,-2.393e-4 -0.25888,0.5510785 -0.50914,0.5522651 -0.26035,0.00199 -0.27482,-0.5801057 -0.535,-0.5695059 -0.23526,0.00897 -0.20545,0.5353533 -0.44006,0.5522651 -0.25976,0.017749 -0.3098,-0.5547181 -0.56954,-0.5350243 -0.23703,0.017749 -0.20279,0.5475386 -0.44009,0.5608806 -0.26596,0.014758 -0.29459,-0.5795673 -0.56088,-0.569506 -0.24472,0.00897 -0.22996,0.5507295 -0.47461,0.5608905 -0.26006,0.011767 -0.29224,-0.5613591 -0.55227,-0.5522651 -0.2323,0.00897 -0.22492,0.5211239 -0.45733,0.526379 -0.24618,0.00598 -0.26301,-0.531963 -0.50911,-0.5350044 -0.25622,-0.00299 -0.28721,0.5446568 -0.54364,0.5436497 -0.25415,-7.977e-4 -0.28102,-0.5576398 -0.535,-0.5436497 -0.24117,0.011767 -0.20692,0.5655173 -0.44871,0.569506 -0.26331,0.00598 -0.24589,-0.6034193 -0.50911,-0.6040076 -0.25298,-5.983e-4 -0.2391,0.5659561 -0.49187,0.5781513 -0.25593,0.011766 -0.29652,-0.5521753 -0.55224,-0.5350243 -0.24117,0.014758 -0.20722,0.5619176 -0.44871,0.5695259 -0.25859,0.00897 -0.25918,-0.5787695 -0.51776,-0.5781513 -0.23852,5.584e-4 -0.23644,0.5249331 -0.4746,0.5350044 -0.24589,0.011766 -0.2887,-0.5121495 -0.535,-0.5091182 -0.23998,0.00299 -0.26921,0.5101153 -0.50911,0.5091182 -0.24206,-7.679e-4 -0.26715,-0.526 -0.50914,-0.5177336 -0.23852,0.00897 -0.2273,0.5362707 -0.46596,0.5436197 -0.26832,0.00897 -0.29282,-0.5945345 -0.56088,-0.5781612 -0.25209,0.014758 -0.20515,0.5924405 -0.45736,0.6040474 -0.26833,0.011767 -0.27482,-0.5979648 -0.54361,-0.5953921 -0.25269,0.00199 -0.24767,0.5697951 -0.5005,0.5695059 -0.24471,-2.393e-4 -0.2388,-0.5460727 -0.48322,-0.5522651 -0.25622,-0.00598 -0.27865,0.551258 -0.53502,0.5522651 -0.25829,7.978e-4 -0.28545,-0.5615087 -0.54362,-0.5522651 -0.23054,0.00897 -0.21844,0.5133262 -0.44871,0.526379 -0.2397,0.014758 -0.28722,-0.5132464 -0.52638,-0.4918474 -0.22523,0.020641 -0.18007,0.5265284 -0.40556,0.5436197 -0.29401,0.023633 -0.33599,-0.6452499 -0.62993,-0.6212783 -0.24825,0.020641 -0.19158,0.5846428 -0.44009,0.6040076 -0.25563,0.020641 -0.28722,-0.5436198 -0.54362,-0.5436198 -0.24413,0 -0.27394,0.5293903 -0.51777,0.5177635 -0.23467,-0.011766 -0.21429,-0.5286524 -0.44871,-0.5436497 -0.25179,-0.014758 -0.29999,0.5239259 -0.55226,0.5177635 -0.24413,-0.00598 -0.26508,-0.5363305 -0.50911,-0.5263789 -0.24914,0.00897 -0.22523,0.5748706 -0.47461,0.5781214 -0.25474,0.00299 -0.50048,-0.5781214 -0.50048,-0.5781214 h -7.34336 c 0,0 -0.2252,0.546003 -0.46596,0.5522651 -0.24819,0.00598 -0.26094,-0.5506397 -0.50912,-0.5436497 -0.25105,0.00598 -0.23216,0.5708023 -0.483228,0.5781513 -0.264426,0.00897 -0.279094,-0.5761968 -0.54363,-0.5781513 -0.252241,-0.00199 -0.274258,0.5514375 -0.526379,0.5436497 -0.234491,-0.00598 -0.222745,-0.5327507 -0.457336,-0.5350243 -0.242438,-0.00199 -0.240933,0.5346354 -0.483232,0.5436397 -0.260208,0.00897 -0.300792,-0.5554759 -0.56089,-0.5436397 -0.242471,0.011767 -0.231961,0.5460628 -0.474609,0.5522651 -0.250166,0.00598 -0.267527,-0.5481667 -0.517743,-0.5436197 -0.234282,0.00299 -0.231839,0.5164273 -0.465961,0.5263789 -0.254066,0.011766 -0.29828,-0.5390428 -0.552265,-0.5263789 -0.242409,0.011766 -0.231899,0.55055 -0.474607,0.5522352 -0.264895,0.00199 -0.261504,-0.5903465 -0.526369,-0.5953921 -0.262392,-0.00598 -0.281258,0.5751996 -0.54364,0.5695358 -0.244562,-0.00598 -0.238629,-0.5530628 -0.483222,-0.5522651 -0.250844,7.678e-4 -0.241042,0.565607 -0.491857,0.5695059 -0.242199,0.00299 -0.249668,-0.5299188 -0.491857,-0.5350043 -0.239956,-0.00598 -0.269123,0.507074 -0.509118,0.5091182 -0.240016,0.00199 -0.277948,-0.5112421 -0.517744,-0.5004928 -0.224111,0.00897 -0.215994,0.4991865 -0.440085,0.5091381 -0.251971,0.011766 -0.291648,-0.5377764 -0.54363,-0.5263789 -0.246517,0.011766 -0.236505,0.556483 -0.483232,0.5608805 -0.262541,0.00598 -0.272463,-0.5816613 -0.535004,-0.5781513 -0.248641,0.00299 -0.243177,0.561419 -0.491857,0.5608905 -0.26301,-5.384e-4 -0.254744,-0.5958408 -0.517754,-0.5953921 -0.250845,4.089e-4 -0.241222,0.559315 -0.491847,0.569506 -0.245919,0.00897 -0.280341,-0.5238462 -0.526379,-0.5177336 -0.246248,0.00598 -0.254185,0.5405485 -0.500483,0.5436197 -0.248162,0.00299 -0.269621,-0.5402593 -0.517743,-0.5350043 -0.242409,0.00598 -0.240844,0.5374773 -0.483232,0.5436198 -0.254156,0.00598 -0.28081,-0.5488449 -0.535005,-0.5436198 -0.248371,0.00598 -0.252061,0.5543093 -0.500492,0.5522651 -0.248661,-0.00199 -0.243297,-0.5537708 -0.491848,-0.5608805 -0.250087,-0.00598 -0.276272,0.5404288 -0.526379,0.5349943 -0.236206,-0.00598 -0.23848,-0.518282 -0.474596,-0.5263789 -0.243945,-0.00897 -0.282405,0.5173447 -0.526379,0.5091182 -0.240165,-0.00897 -0.242977,-0.5298989 -0.483222,-0.5350044 -0.246068,-0.00598 -0.271695,0.522161 -0.517754,0.5263789 -0.233943,0.00299 -0.275175,-0.4862932 -0.509118,-0.4832219 -0.231839,0.00299 -0.259998,0.4937619 -0.491857,0.4918474 -0.248162,-0.00199 -0.269561,-0.5359417 -0.517744,-0.5350044 -0.254305,7.978e-4 -0.272074,0.5543891 -0.526369,0.5522651 -0.250386,-0.00199 -0.258851,-0.5591155 -0.509128,-0.5522651 -0.23488,0.00598 -0.214039,0.5315442 -0.44871,0.5436497 C 78.438455,5.4162032 78.13502,4.8405248 78.13502,4.8405248 H 38.829513 Z"
     id="compensator_middle"
     sodipodi:nodetypes="ccccccccccccsssssssssssssssssssssssssssssssssssssssssssssccsssssssssssssssssssssssssssssssssssssssssssssccc"
     inkscape:label="compensator_middle">
    <title
       id="title15">metal</title>
  </path>
</svg>
