<?xml version="1.0" encoding="UTF-8" standalone="no"?>
<!-- Created with Inkscape (http://www.inkscape.org/) -->

<svg
   width="210mm"
   height="297mm"
   viewBox="0 0 210 297"
   version="1.1"
   id="svg1"
   inkscape:version="1.4 (86a8ad7, 2024-10-11)"
   sodipodi:docname="DSHA-50-043-corner.svg"
   xmlns:inkscape="http://www.inkscape.org/namespaces/inkscape"
   xmlns:sodipodi="http://sodipodi.sourceforge.net/DTD/sodipodi-0.dtd"
   xmlns="http://www.w3.org/2000/svg"
   xmlns:svg="http://www.w3.org/2000/svg">
  <sodipodi:namedview
     id="namedview1"
     pagecolor="#ffffff"
     bordercolor="#000000"
     borderopacity="0.25"
     inkscape:showpageshadow="2"
     inkscape:pageopacity="0.0"
     inkscape:pagecheckerboard="0"
     inkscape:deskcolor="#d1d1d1"
     inkscape:document-units="mm"
     inkscape:zoom="1.0467522"
     inkscape:cx="323.3812"
     inkscape:cy="378.79069"
     inkscape:window-width="2560"
     inkscape:window-height="1377"
     inkscape:window-x="-8"
     inkscape:window-y="-8"
     inkscape:window-maximized="1"
     inkscape:current-layer="svg1" />
  <defs
     id="defs1" />
  <rect
     style="fill:#b8b8b8;fill-opacity:1;fill-rule:evenodd;stroke:#b81e1e;stroke-width:0.0450729"
     id="concrete_left"
     width="78.208855"
     height="54.017086"
     x="35.350594"
     y="102.83621" />
  <rect
     style="fill:#a39a9a;fill-rule:evenodd;stroke:#b81e1e;stroke-width:0.0442617"
     id="finish_left"
     width="65.795746"
     height="44.629208"
     x="35.313129"
     y="58.042679" />
  <rect
     style="fill:#a39a9a;fill-rule:evenodd;stroke:#b81e1e;stroke-width:0.0341611"
     id="cover_left"
     width="65.767876"
     height="5.3449874"
     x="35.34861"
     y="52.581093" />
  <rect
     style="fill:#404242;fill-opacity:0.341246;fill-rule:evenodd;stroke:#b81e1e;stroke-width:0.0179392"
     id="shadow"
     width="97.060127"
     height="0.014552513"
     x="74.717918"
     y="156.83157"
     inkscape:label="shadow" />
  <ellipse
     style="opacity:0;fill:none;fill-opacity:0;fill-rule:evenodd;stroke-width:0.00368993;stroke-opacity:0"
     id="bolt_left"
     cx="-53.661858"
     cy="-100.24659"
     rx="0.094999999"
     ry="0.028942173"
     inkscape:label="bolt_left"
     transform="scale(-1)" />
  <ellipse
     style="opacity:0;fill:none;fill-opacity:0;fill-rule:evenodd;stroke-width:0.000191947;stroke-opacity:0"
     id="screw_right"
     cx="149.69815"
     cy="17.141947"
     rx="0.0049418169"
     ry="0.0015055466"
     inkscape:label="screw_right" />
  <path
     style="fill:#5e5e5e;fill-rule:evenodd;stroke:#000000;stroke-width:0.0441661"
     d="m 144.42463,60.805718 h 3.29292 c 0.0846,-0.0709 0.72166,0.39848 0.52726,0.78512 -0.22127,0.44001 -0.41877,0.93966 -0.67956,1.37107 -0.25974,0.4296 -0.59704,0.81424 -0.96096,1.16012 -0.40281,0.38249 -1.33586,0.99606 -1.33586,0.99606 v 0.71484 h 1.24207 c 0,0 0.13873,-0.47882 0.33969,-0.50389 0.24462,-0.0302 0.30469,0.50467 0.55083,0.49218 0.24289,-0.0129 0.24894,-0.54162 0.49218,-0.53907 0.24937,0.002 0.24332,0.55156 0.49216,0.5625 0.25932,0.0129 0.30298,-0.54335 0.5625,-0.53903 0.23467,0.004 0.25759,0.49835 0.49214,0.50389 0.23467,0.004 0.28135,-0.49689 0.51559,-0.48047 0.21048,0.0129 0.39848,0.49218 0.39848,0.49218 h 1.12499 V 4.2255278 h -0.86049 l -1.43049,4.227839 v 1.5936912 c 0,0 0.52004,0.16294 0.53318,0.38075 0.013,0.24852 -0.54258,0.255 -0.55082,0.50389 -0.013,0.25975 0.54603,0.30297 0.53907,0.56254 -0.013,0.25672 -0.56799,0.27055 -0.5625,0.52731 0,0.25759 0.58077,0.24635 0.58592,0.50389 0,0.23468 -0.50865,0.24548 -0.5156,0.48046 -0.013,0.22647 0.47147,0.2658 0.46871,0.49218 0,0.23727 -0.50748,0.26623 -0.5038,0.50389 0,0.26795 0.58716,0.28264 0.58591,0.55077 0,0.2766 -0.6214,0.28611 -0.60938,0.5625 0.013,0.26147 0.61336,0.21869 0.62107,0.48046 0.013,0.24332 -0.4963,0.24289 -0.55075,0.48046 -0.0891,0.38897 0.47639,0.70257 0.46875,1.10152 -0.013,0.37557 -0.55473,0.65122 -0.48051,1.01953 0.0432,0.20615 0.45945,0.21177 0.46871,0.42182 0.013,0.23467 -0.48315,0.28049 -0.48037,0.51559 0,0.2403 0.50517,0.27531 0.50384,0.51561 0,0.23208 -0.47995,0.26061 -0.49218,0.49217 -0.013,0.23598 0.45099,0.31463 0.44528,0.55078 -0.013,0.24073 -0.48724,0.29864 -0.48037,0.53907 0.013,0.25413 0.53763,0.28481 0.53902,0.53902 0,0.25672 -0.55653,0.29432 -0.53902,0.55079 0.0173,0.24158 0.56876,0.20312 0.57413,0.44532 0.013,0.27141 -0.62526,0.25585 -0.62102,0.52731 0,0.26969 0.62606,0.23424 0.6328,0.50389 0.013,0.26579 -0.58653,0.2619 -0.59771,0.52735 -0.013,0.25413 0.53448,0.29649 0.5274,0.55074 -0.013,0.24591 -0.54331,0.25802 -0.53907,0.50393 0,0.24375 0.54386,0.23684 0.55074,0.48046 0.013,0.2403 -0.51289,0.26364 -0.51565,0.50389 0,0.2403 0.51322,0.27531 0.50398,0.515601 -0.013,0.25456 -0.57464,0.24937 -0.57429,0.50389 3.3e-4,0.24375 0.53622,0.23727 0.55081,0.48046 0.0172,0.26234 -0.54303,0.32371 -0.52735,0.58592 0.013,0.2485 0.55562,0.24332 0.5625,0.49217 0.013,0.24592 -0.52294,0.26969 -0.52727,0.5156 0,0.23209 0.48745,0.27185 0.48037,0.50393 -0.013,0.22388 -0.48245,0.23339 -0.49217,0.456999 -0.013,0.27919 0.58695,0.34272 0.56249,0.62109 -0.0216,0.24116 -0.55631,0.204 -0.57416,0.44529 -0.0173,0.27141 0.58354,0.31809 0.56491,0.58946 -0.0173,0.23554 -0.54982,0.20313 -0.55518,0.43919 0,0.24851 0.56456,0.2403 0.56339,0.48889 0,0.26839 -0.66275,0.48046 -0.61314,0.52204 0.0492,0.0432 0.60869,0.24721 0.61314,0.51374 0,0.2524 -0.55848,0.25327 -0.56339,0.50545 0,0.25801 0.5563,0.28092 0.55518,0.53859 -0.002,0.24418 -0.53665,0.26147 -0.53038,0.50548 0.013,0.23295 0.51893,0.22301 0.53038,0.45574 0.013,0.25932 -0.54352,0.30384 -0.5386,0.56345 0,0.2498 0.53847,0.27185 0.5386,0.52204 9e-5,0.26968 -0.59041,0.29389 -0.58012,0.56344 0.013,0.25888 0.60048,0.23814 0.59668,0.49719 0,0.24591 -0.57322,0.21004 -0.58009,0.45574 -0.013,0.24635 0.54361,0.24246 0.55514,0.48889 0.013,0.26147 -0.54541,0.30988 -0.53853,0.57174 0.013,0.25586 0.56633,0.27444 0.55513,0.53034 -0.013,0.24721 -0.56145,0.21696 -0.57999,0.46404 -0.0172,0.24765 0.5082,0.29864 0.50544,0.54689 0,0.22647 -0.47774,0.26234 -0.47226,0.48889 0.013,0.25413 0.56022,0.26796 0.55516,0.52204 0,0.24851 -0.55996,0.24029 -0.56348,0.48885 0,0.22862 0.49073,0.23597 0.50538,0.46404 0.0173,0.25239 -0.49663,0.32716 -0.48884,0.58004 0.013,0.25196 0.52199,0.29475 0.52199,0.54689 0,0.24807 -0.51213,0.29043 -0.51373,0.53859 0,0.2148 0.43931,0.25715 0.43918,0.47234 -8e-5,0.22257 -0.45786,0.26622 -0.45566,0.48889 0,0.25802 0.55242,0.29777 0.5386,0.55515 -0.013,0.23294 -0.52982,0.21436 -0.5386,0.44748 -0.013,0.23036 0.49603,0.25023 0.49706,0.48059 0.002,0.25197 -0.53768,0.27833 -0.53858,0.5303 -7.8e-4,0.23813 0.49446,0.26752 0.50556,0.50548 0.013,0.25067 -0.49342,0.32933 -0.48062,0.58004 0.013,0.22431 0.48062,0.24765 0.48062,0.4723 0,0.21696 -0.44061,0.2403 -0.46404,0.45574 -0.0172,0.15083 0.24851,0.38119 0.24851,0.38119 v 1.62407 c -0.0696,0.29692 -0.22948,0.52973 -0.59654,0.61319 h -3.53824 v 0.74578 l 1.26782,1.00264 1.05233,1.17663 c -0.013,0 0.46737,0.81372 0.62153,1.28437 0.13096,0.39978 -0.52134,0.90051 -0.55518,0.87004 h -3.26479 c -0.7314,-0.78321 -1.57645,-1.20784 -2.5108,-1.35067 -0.0172,-0.0346 -1.54485,0.24073 -2.07976,0.82033 -0.47286,0.51249 -1.00492,1.28131 -1.03579,2.07986 -0.0303,0.79086 0.34359,1.63635 0.90315,2.19586 0.5764,0.57619 1.45167,0.72539 2.23734,0.68774 0.51127,-0.0259 0.96582,-0.12966 1.34234,-0.35613 0.40539,-0.24375 1.1475,-0.83502 1.1475,-0.83502 z"
     id="profile_right"
     sodipodi:nodetypes="ccssscccsssssssccccccsssssssssssssssssssssssssssssssssssssssssssssssssssssssssssssssssssssssssssscccccccscccsssssc"
     inkscape:label="profile_right" />
  <rect
     style="fill:#e1ecec;fill-opacity:0.77;fill-rule:evenodd;stroke:#b81e1e;stroke-width:0.0081378"
     id="finish_right"
     width="57.514656"
     height="2.036227"
     x="-57.518726"
     y="151.71785"
     inkscape:label="finish_right"
     transform="rotate(-90)" />
  <rect
     style="fill:#e1ecec;fill-opacity:0.77;fill-rule:evenodd;stroke:#b81e1e;stroke-width:0.00933925"
     id="cover_right"
     width="57.494617"
     height="0.12774748"
     x="-57.505093"
     y="151.54211"
     inkscape:label="cover_right"
     transform="rotate(-90)" />
  <path
     style="fill:#e1ecec;fill-opacity:0.77;fill-rule:evenodd;stroke:#b81e1e;stroke-width:0.0116676"
     d="m 153.76628,0.01600392 20.93689,-8.06e-6 V 157.50331 H 151.52204 V 57.558408 h 2.23314 z"
     id="concrete_right"
     inkscape:label="concrete_right"
     sodipodi:nodetypes="ccccccc" />
  <path
     id="profile_left"
     style="display:inline;fill:#5e5e5e;fill-rule:evenodd;stroke:#000000;stroke-width:0.0431256"
     d="m 106.10798,52.551573 c 0,0 -0.20663,0.59519 -0.45578,0.59097 -0.23612,-0.006 -0.17225,-0.56317 -0.40781,-0.58004 -0.25831,-0.018 -0.2712,0.56071 -0.52993,0.56915 -0.24432,0.0103 -0.29863,-0.50345 -0.54301,-0.49501 -0.26161,0.009 -0.28175,0.58604 -0.54302,0.56916 -0.24627,-0.0147 -0.19838,-0.58473 -0.44487,-0.59318 -0.25893,-0.0115 -0.25875,0.60542 -0.51684,0.5801 -0.22958,-0.0215 -0.35765,-0.59317 -0.35765,-0.59317 h -1.10129 v 45.58253 c -0.0128,1.42621 -0.91711,1.854187 -2.084822,1.986687 H 53.690892 43.648432 l -0.03054,2.52316 H 113.67307 V 66.168333 l -3.59391,-0.31405 -1.79696,-0.42742 -1.69228,-0.89849 -1.3608,-1.36079 -0.85487,-1.67482 c -0.12125,-0.46901 0.16749,-0.6357 0.47977,-0.7851 l 3.21883,0.009 0.35765,0.17446 c 0.63657,0.7082 1.32912,1.02424 2.05864,1.08164 1.03003,0.0132 1.63552,-0.3274 2.11099,-0.77633 0.97965,-1.01024 1.06869,-2.14775 0.58445,-3.36714 -0.317,-0.87106 -1.21245,-1.39967 -2.66927,-1.59632 -0.89362,-0.005 -1.68526,0.62386 -2.46427,1.33029 l -3.17521,0.005 c -0.35651,-0.0833 -0.58515,-0.31144 -0.59317,-0.78945 l 0.74146,-1.29099 0.95082,-1.19073 1.21905,-0.94428 v -0.80034 z m -2.63656,11.96806 c 0.051,-0.003 0.10593,0.008 0.16791,0.0349 l 1.70319,1.5418 1.81441,1.03589 1.9736,0.60406 2.08482,0.11127 c 0.36534,0.0945 0.51807,0.25574 0.45578,0.48193 v 13.88935 c 0.0387,0.42689 -0.2049,0.44735 -0.45578,0.4558 l -7.56293,0.0262 c -0.28268,-0.0326 -0.49792,-0.14184 -0.51902,-0.46889 l -0.0109,-17.38076 v -0.002 c 0.0877,-0.18897 0.19576,-0.32034 0.34892,-0.32934 z m 0.0611,18.93789 c 0.029,5.4e-4 0.0599,0.003 0.0916,0.009 h 7.51931 c 0.32605,-5.4e-4 0.60598,0.0645 0.61062,0.52342 v 16.259817 c -0.12751,0.23962 -0.26901,0.44518 -0.4885,0.45361 h -7.71121 c -0.35718,-0.001 -0.37693,-0.24399 -0.41871,-0.47103 V 83.814983 c 0.0592,-0.2478 0.19402,-0.36158 0.3969,-0.35764 z"
     inkscape:label="profile_left" />
  <path
     style="fill:#5e5e5e;fill-rule:evenodd;stroke:#000000;stroke-width:0.0313521"
     d="m 104.89663,56.263847 c 0.14327,-0.378324 0.37095,-0.644141 0.5823,-0.931683 0.61571,-0.874553 1.35622,-1.468252 2.16285,-1.913279 1.06751,-0.555306 2.17394,-0.884968 3.36071,-0.748668 l 2.44567,0.449203 17.70193,3.726734 -0.63221,2.978052 -13.85876,-2.894868 c -0.14664,0.04148 -0.28625,0.123357 -0.41593,0.266177 -0.0912,0.176962 -0.0838,0.338784 -0.0665,0.499119 l 0.2163,0.848496 v 1.098056 l -0.18286,0.998227 -0.366,1.064785 c -0.006,0.138644 -0.0245,0.277282 0.0832,0.415925 0.1221,0.144807 0.24391,0.180733 0.36601,0.183004 l 6.93771,-0.316106 9.81593,2.112915 0.0665,0.482479 -3.64356,0.183004 c 0,0 -0.2034,-0.47544 -0.41626,-0.484727 -0.26291,-0.0114 -0.30158,0.56318 -0.56441,0.551728 -0.21721,-0.0095 -0.20771,-0.487065 -0.42488,-0.494645 -0.25249,-0.0088 -0.28012,0.533065 -0.5327,0.539039 -0.2528,0.0058 -0.30618,-0.536362 -0.55808,-0.513674 -0.23746,0.02147 -0.1933,0.554269 -0.43124,0.570747 -0.25956,0.0178 -0.29207,-0.565942 -0.55171,-0.551727 -0.24636,0.01354 -0.21691,0.559225 -0.46292,0.577093 -0.25066,0.01809 -0.30158,-0.535956 -0.55174,-0.513673 -0.24207,0.02147 -0.19544,0.562742 -0.43759,0.583432 -0.26078,0.0224 -0.30946,-0.553577 -0.57073,-0.539039 -0.235,0.01325 -0.22151,0.527044 -0.45661,0.539039 -0.23133,0.01197 -0.26937,-0.487712 -0.50099,-0.481966 -0.24667,0.0064 -0.26079,0.531612 -0.50733,0.539039 -0.24974,0.0074 -0.29698,-0.538249 -0.54539,-0.513672 -0.23225,0.02301 -0.17426,0.541069 -0.40586,0.570746 -0.2709,0.03473 -0.35687,-0.560512 -0.62784,-0.526353 -0.23745,0.03006 -0.18039,0.561199 -0.41852,0.583433 -0.25894,0.02424 -0.30527,-0.561337 -0.56442,-0.539045 -0.25157,0.02147 -0.19819,0.594259 -0.45026,0.608799 -0.26875,0.01564 -0.28286,-0.604148 -0.55172,-0.589775 -0.24575,0.01325 -0.1988,0.566776 -0.4439,0.589775 -0.25341,0.02394 -0.3107,-0.532317 -0.56442,-0.513674 -0.23961,0.01748 -0.21691,0.54176 -0.4566,0.558067 -0.2476,0.01687 -0.2976,-0.523203 -0.54537,-0.507331 -0.24421,0.01564 -0.22519,0.550343 -0.46931,0.564404 -0.25678,0.01473 -0.3025,-0.560073 -0.55806,-0.5327 -0.23623,0.02516 -0.16321,0.565917 -0.3995,0.589779 -0.26171,0.02639 -0.30158,-0.563812 -0.56443,-0.551724 -0.24114,0.01111 -0.22824,0.53559 -0.46927,0.551724 -0.25248,0.01687 -0.31257,-0.531132 -0.56441,-0.507331 -0.25372,0.02394 -0.20831,0.600049 -0.46296,0.608798 -0.24697,0.0085 -0.4883,-0.558066 -0.4883,-0.558066 -0.14357,-0.164106 -0.29452,0.349932 -0.53905,0.589773 l -2.50495,-0.0064 c -0.0729,0.06568 -2.26787,-0.503726 -3.06936,-1.230286 -0.66182,-0.599967 -1.64878,-1.141823 -1.7503,-2.029331 -0.0215,-0.185059 0.25985,-0.494648 0.25985,-0.494648 1.06208,-0.249764 2.15587,-0.436054 3.33572,-0.450259 0.7105,0.568577 1.54711,0.969007 2.96092,0.599847 0.75702,-0.419131 1.51819,-0.835218 1.73093,-1.650199 0.33781,-0.576971 0.36707,-1.153942 0.21536,-1.730914 -0.10001,-0.83435 -0.58837,-1.363437 -1.15692,-1.829575 -0.63216,-0.481099 -1.39492,-0.748022 -2.44841,-0.538115 -0.78963,0.157601 -1.15996,0.566786 -1.63227,0.914782 l -2.94163,-0.125565 c -0.22918,0.0048 -0.38031,-0.128428 -0.50225,-0.313887 -0.0596,-0.137746 -0.061,-0.275503 -0.0128,-0.413271 z"
     id="compensator_left"
     sodipodi:nodetypes="ccccccccccccccccccccsssssssssssssssssssssssssssssssssccsscccccccccccc"
     inkscape:label="compensator_left">
    <title
       id="title2">metal</title>
  </path>
  <path
     style="fill:#5e5e5e;fill-rule:evenodd;stroke:#000000;stroke-width:0.0313521"
     d="m 147.54124,61.983847 c -0.14327,0.378325 -0.37094,0.644143 -0.5823,0.931683 -0.61571,0.874551 -1.35626,1.468255 -2.16287,1.91328 -1.06752,0.555304 -2.17395,0.884966 -3.36071,0.748669 l -2.44565,-0.449205 -17.70196,-3.726731 0.63222,-2.978055 13.85878,2.894867 c 0.14665,-0.04147 0.28623,-0.123356 0.41592,-0.266177 0.0912,-0.176961 0.0838,-0.338784 0.0665,-0.499119 l -0.21629,-0.848495 v -1.098056 l 0.18286,-0.998228 0.36601,-1.064784 c 0.006,-0.138644 0.0245,-0.277284 -0.0832,-0.415925 -0.12209,-0.144807 -0.24388,-0.180734 -0.36604,-0.183004 l -6.93768,0.316105 -9.81595,-2.112919 -0.0665,-0.482477 3.64355,-0.183004 c 0,0 0.2034,0.475439 0.41626,0.484726 0.26292,0.0114 0.30158,-0.56318 0.5644,-0.551728 0.21722,0.0096 0.2077,0.487065 0.42488,0.494649 0.25249,0.0088 0.28011,-0.533065 0.5327,-0.539042 0.2528,-0.0058 0.30617,0.53636 0.55807,0.513672 0.23746,-0.02147 0.19328,-0.554265 0.43123,-0.570745 0.25955,-0.01779 0.29207,0.565941 0.55173,0.551728 0.24636,-0.01353 0.21691,-0.559227 0.46294,-0.577095 0.25064,-0.0181 0.30158,0.535956 0.55174,0.513674 0.24205,-0.02147 0.19542,-0.562743 0.43754,-0.583433 0.26079,-0.0224 0.30947,0.553578 0.57078,0.539039 0.235,-0.01325 0.22151,-0.527043 0.45659,-0.539039 0.23133,-0.01197 0.26937,0.487714 0.50098,0.481965 0.24665,-0.0064 0.26077,-0.531611 0.50734,-0.539038 0.24974,-0.0074 0.29699,0.538253 0.5454,0.513673 0.23225,-0.02301 0.17425,-0.54107 0.40587,-0.570747 0.2709,-0.03472 0.35685,0.560512 0.62782,0.526353 0.23746,-0.03006 0.18009,-0.561198 0.41853,-0.583432 0.25894,-0.02423 0.30526,0.561337 0.56442,0.539048 0.25156,-0.02147 0.19819,-0.594262 0.45025,-0.608802 0.26875,-0.01564 0.28287,0.604151 0.55172,0.589774 0.24573,-0.01325 0.1991,-0.566776 0.44394,-0.589774 0.25309,-0.02394 0.31068,0.53232 0.5644,0.513673 0.23962,-0.01748 0.2169,-0.541756 0.45661,-0.558065 0.24758,-0.01687 0.29759,0.523201 0.54536,0.507333 0.24421,-0.01564 0.22519,-0.550347 0.46927,-0.564408 0.25679,-0.01472 0.30251,0.560073 0.5581,0.532702 0.23624,-0.02516 0.16322,-0.565918 0.39951,-0.589781 0.26169,-0.02639 0.30158,0.563813 0.56441,0.551725 0.24114,-0.01111 0.22826,-0.535588 0.46928,-0.551725 0.25249,-0.01687 0.31256,0.531133 0.56442,0.507332 0.25372,-0.02394 0.208,-0.600049 0.46292,-0.608798 0.24697,-0.0085 0.48832,0.558065 0.48832,0.558065 0.14359,0.164106 0.29453,-0.349928 0.53905,-0.589773 l 2.50494,0.0064 c 0.0731,-0.06568 2.2679,0.503729 3.06937,1.230285 0.66183,0.599969 1.64878,1.141823 1.75031,2.029334 0.0215,0.18506 -0.26016,0.494646 -0.26016,0.494646 -1.06208,0.249763 -2.1559,0.436053 -3.33572,0.450258 -0.7105,-0.568577 -1.54711,-0.969005 -2.96091,-0.599845 -0.75703,0.419129 -1.51823,0.835216 -1.73092,1.650198 -0.33782,0.57697 -0.36709,1.153942 -0.21538,1.730913 0.10002,0.83434 0.58837,1.36343 1.15694,1.829568 0.63215,0.481096 1.39488,0.748019 2.4484,0.538111 0.78963,-0.157602 1.15996,-0.566782 1.63224,-0.914782 l 2.94166,0.125578 c 0.22919,-0.0048 0.3803,0.128429 0.50226,0.313886 0.0596,0.137747 0.061,0.275505 0.0128,0.413271 z"
     id="compensator_right"
     sodipodi:nodetypes="ccccccccccccccccccccsssssssssssssssssssssssssssssssssccsscccccccccccc"
     inkscape:label="compensator_right">
    <title
       id="title1">metal</title>
  </path>
</svg>
