<?xml version="1.0" encoding="UTF-8" standalone="no"?>
<!-- Created with Inkscape (http://www.inkscape.org/) -->

<svg
   width="210mm"
   height="297mm"
   viewBox="0 0 210 297"
   version="1.1"
   id="svg1"
   inkscape:version="1.4 (86a8ad7, 2024-10-11)"
   sodipodi:docname="DSHA-0-205-corner.svg"
   xmlns:inkscape="http://www.inkscape.org/namespaces/inkscape"
   xmlns:sodipodi="http://sodipodi.sourceforge.net/DTD/sodipodi-0.dtd"
   xmlns="http://www.w3.org/2000/svg"
   xmlns:svg="http://www.w3.org/2000/svg">
  <sodipodi:namedview
     id="namedview1"
     pagecolor="#ffffff"
     bordercolor="#000000"
     borderopacity="0.25"
     inkscape:showpageshadow="2"
     inkscape:pageopacity="0.0"
     inkscape:pagecheckerboard="0"
     inkscape:deskcolor="#d1d1d1"
     inkscape:document-units="mm"
     inkscape:zoom="0.37008281"
     inkscape:cx="290.47553"
     inkscape:cy="33.776225"
     inkscape:window-width="2560"
     inkscape:window-height="1377"
     inkscape:window-x="-8"
     inkscape:window-y="-8"
     inkscape:window-maximized="1"
     inkscape:current-layer="svg1" />
  <defs
     id="defs1" />
  <path
     style="fill:#5e5e5e;fill-rule:evenodd;stroke:#000000;stroke-width:0.0422391"
     d="M -23.819386,61.238443 V 59.97057 l 18.7493981,-2.63096 c 0,0 0.2027,0.46797 0.41205,0.475456 0.23895,0.0091 0.26826,-0.508976 0.50723,-0.507162 0.25032,6.46e-4 0.27295,0.546611 0.52306,0.53885 0.24324,-0.0083 0.23212,-0.543599 0.47547,-0.554708 0.25754,-0.01267 0.2975,0.556483 0.55462,0.538866 0.2141,-0.0146 0.18315,-0.482916 0.39629,-0.507177 0.25017,-0.027 0.33597,0.501505 0.58641,0.475475 0.21649,-0.0223 0.19417,-0.505499 0.41203,-0.507164 0.25501,-6.55e-4 0.23646,0.581979 0.49136,0.586402 0.24513,0.0011 0.24648,-0.536235 0.49131,-0.546753 0.22795,-0.0091 0.27139,0.475746 0.49921,0.467515 0.23734,-0.0091 0.24611,-0.521949 0.48352,-0.523034 0.24664,-6.52e-4 0.26035,0.539037 0.50708,0.53889 0.23921,-9.2e-5 0.25372,-0.497859 0.49137,-0.52302 0.40582,-0.04287 0.59821,0.698328 1.0064,0.697384 0.38699,-6.56e-4 0.56676,-0.71129 0.9509,-0.665695 0.24145,0.02694 0.23985,0.539323 0.48332,0.546813 0.25411,0.0083 0.28488,-0.541953 0.53887,-0.538853 0.22997,6.52e-4 0.24597,0.497343 0.4754,0.499217 0.23367,6.27e-4 0.25829,-0.508166 0.49138,-0.499217 0.22098,0.0091 0.20725,0.497792 0.42796,0.507146 0.25019,0.01273 0.28076,-0.531887 0.53098,-0.530937 0.24489,6.46e-4 0.27076,0.53009 0.51513,0.523008 0.22839,-0.0056 0.22385,-0.503338 0.45171,-0.515055 0.24838,-0.01322 0.29829,0.515825 0.54672,0.507151 0.23152,-0.0083 0.24379,-0.507151 0.47549,-0.507151 0.23177,0 0.24369,0.507151 0.47536,0.507151 0.23182,0 0.24421,-0.497602 0.47574,-0.507151 0.2595,-0.01273 0.31917,0.538848 0.5782999,0.522984 0.23364,-0.01453 0.22605,-0.518139 0.45967,-0.530937 0.24816,-0.01359 0.29839,0.519123 0.5468,0.507162 0.22241,-0.0093 0.22097,-0.503444 0.44385,-0.499209 0.23258,0.0011 0.21108,0.5322 0.44355,0.538816 0.23741,0.0055 0.24608,-0.524841 0.48355,-0.522978 0.23746,6.52e-4 0.23757,0.524375 0.47545,0.530914 0.25759,0.0055 0.28906,-0.555607 0.54668,-0.546752 0.24524,0.0091 0.2383,0.554417 0.48358,0.554691 0.25259,2.25e-4 0.24668,-0.565064 0.49917,-0.570579 0.24479,-0.0055 0.26254,0.530262 0.50725,0.530943 0.21651,6.04e-4 0.2349,-0.463906 0.45175,-0.467546 0.22798,-0.0011 0.26314,0.476452 0.49107,0.475475 0.24104,-6.34e-4 0.27433,-0.51017 0.51519,-0.507146 0.2164,6.52e-4 0.23521,0.457207 0.45159,0.467515 0.23967,0.01288 0.30738,-0.483706 0.54705,-0.467515 0.22932,0.01506 0.22928,0.510442 0.45945,0.515059 0.22422,0.0011 0.24379,-0.473672 0.46762,-0.483388 0.21323,-0.0091 0.27033,0.425713 0.48322,0.420004 0.22424,-0.0055 0.25935,-0.472989 0.48362,-0.467513 0.23517,0.0055 0.24796,0.515055 0.4832,0.515055 0.23559,0 0.2483,-0.507787 0.48355,-0.515055 0.24672,-0.0083 0.29271,0.52062 0.53885,0.507151 0.23573,-0.0132 0.22382,-0.529515 0.45953,-0.538879 0.25014,-0.0091 0.28083,0.536912 0.53106,0.530937 0.23528,-0.0055 0.23974,-0.519935 0.47545,-0.52302 0.26309,-6.55e-4 0.28322,0.57503 0.54663,0.570563 0.23749,-0.0011 0.23791,-0.530914 0.47549,-0.530914 0.23748,0 0.23787,0.528074 0.4758,0.530914 0.23884,6.53e-4 0.25258,-0.504363 0.491,-0.522999 0.40357,-0.03065 0.55435,0.743215 0.95897,0.744862 0.42205,6.55e-4 0.58557,-0.80309 1.00649,-0.768615 0.24569,0.02097 0.26037,0.542543 0.50699,0.538816 0.24716,-6.57e-4 0.24431,-0.554839 0.49139,-0.554704 0.24344,7.7e-5 0.23979,0.5478 0.48359,0.546785 0.24121,-6.41e-4 0.23341,-0.548493 0.4754,-0.546785 0.2453,6.31e-4 0.2302,0.554235 0.47541,0.56264 0.24256,0.0091 0.26444,-0.513164 0.50703,-0.522999 0.25621,-0.0091 0.32414,0.537374 0.57859,0.507144 0.21827,-0.02426 0.16034,-0.526052 0.38041,-0.53885 0.2407,-0.01448 0.24162,0.533174 0.48324,0.53885 0.25977,0.0055 0.28728,-0.544225 0.54702,-0.554708 0.39105,-0.01503 0.49789,0.750499 0.88917,0.76722 0.41694,0.01782 0.59877,-0.774389 1.01429,-0.734083 0.2262,0.02195 0.23747,0.499739 0.46497,0.498742 0.24295,-6.59e-4 0.24986,-0.532652 0.49321,-0.53793 0.25619,-0.0055 0.28727,0.55236 0.54345,0.543537 0.23063,-0.0083 0.22382,-0.514418 0.45395,-0.521121 0.24568,-0.0083 0.26996,0.533304 0.51551,0.526739 0.22618,-0.0055 0.22208,-0.503955 0.44811,-0.509967 0.23021,-0.0055 0.25256,0.485135 0.48188,0.493129 0.24978,0.0091 0.31055,-0.510442 0.56037,-0.498718 0.222279,0.01282 0.231999,0.48354 0.453862,0.487516 0.2325,0.0011 0.26072,-0.495029 0.4932,-0.493117 0.23925,6.33e-4 0.25993,0.521852 0.49873,0.515531 0.22742,-0.0055 0.22053,-0.508866 0.44805,-0.515531 0.23476,-0.0055 0.25832,0.500527 0.49352,0.504319 0.24811,0.0011 0.28924,-0.516782 0.53767,-0.515503 0.24061,6.28e-4 0.27526,0.507101 0.5156,0.504301 0.21462,-6.53e-4 0.23426,-0.450442 0.44841,-0.459483 0.25624,-0.01262 0.32749,0.53346 0.58277,0.50429 0.22008,-0.02378 0.17074,-0.521853 0.39222,-0.537924 0.24532,-0.01782 0.26995,0.528241 0.51531,0.526734 0.23287,-6.48e-4 0.24931,-0.500354 0.48212,-0.504319 0.23472,-0.0011 0.26901,0.498386 0.50419,0.493116 0.23477,-0.0054 0.24717,-0.51156 0.48191,-0.515531 0.2379,-0.0011 0.26667,0.502984 0.50418,0.504319 0.23063,6.51e-4 0.26341,-0.481818 0.4932,-0.481904 0.21871,-4.7e-5 0.2517,0.456874 0.47075,0.459481 0.21923,6.57e-4 0.2626,-0.446877 0.48189,-0.448262 0.21695,-6.3e-4 0.26493,0.439937 0.48179,0.437068 0.23798,-6.55e-4 0.27767,-0.498287 0.51559,-0.493089 0.24832,0.0054 0.26764,0.545042 0.51559,0.537918 0.23481,-0.0055 0.22424,-0.53113 0.45942,-0.537918 0.25393,-0.0083 0.2731,0.553282 0.52661,0.549121 0.24651,-0.0011 0.24744,-0.546575 0.49322,-0.549121 0.24063,-6.63e-4 0.25299,0.526886 0.49318,0.526706 0.23102,-1.48e-4 0.24077,-0.500348 0.47079,-0.504319 0.23755,-0.0011 0.26638,0.502859 0.50416,0.504319 0.21925,6.51e-4 0.2526,-0.451802 0.47054,-0.45949 0.22523,-0.0083 0.29042,0.442531 0.51559,0.437067 0.23464,-0.0055 0.28032,-0.497174 0.51557,-0.481896 0.24655,0.01544 0.22428,0.571809 0.47084,0.571569 0.2415,-2.38e-4 0.21822,-0.553812 0.45943,-0.560379 0.23791,-0.0055 0.24342,0.524039 0.4818,0.526734 0.248,6.38e-4 0.26851,-0.515325 0.51559,-0.537924 0.39451,-0.03614 0.56767,0.691513 0.96364,0.694836 0.4188,6.55e-4 0.61653,-0.776873 1.03113,-0.717223 0.24203,0.03494 0.21469,0.567489 0.45948,0.57155 0.2466,0.0011 0.23472,-0.548482 0.48184,-0.560347 0.24752,-0.01289 0.28947,0.525816 0.53803,0.515503 0.21324,-0.0091 0.21131,-0.471712 0.42565,-0.481904 0.23423,-0.01267 0.27982,0.484636 0.51561,0.481904 0.24605,-6.59e-4 0.28028,-0.523738 0.52687,-0.515503 0.23434,0.0083 0.23434,0.518701 0.47084,0.526715 0.22426,0.0083 0.25668,-0.468142 0.48179,-0.470702 0.23114,-6.27e-4 0.2754,0.478472 0.5042,0.470702 0.24073,-0.0083 0.25364,-0.532399 0.4932,-0.526715 0.23114,0.0055 0.21794,0.513814 0.44816,0.526715 0.25207,0.01447 0.29854,-0.523807 0.54925,-0.515531 0.23115,0.0083 0.24082,0.513105 0.47048,0.504319 0.21418,-0.0091 0.40361,-0.504319 0.40361,-0.504319 h 3.04804 v 0.773264 c 0,0 -1.43186,0.996855 -1.94967,1.681063 -0.41096,0.542315 -0.86312,1.84917 -0.86312,1.84917 0.0455,0.219401 0.18632,0.39691 0.43706,0.526739 h 3.37352 c 0.14975,-0.161797 0.29785,-0.311814 0.44842,-0.414704 1.26735,-1.228141 2.44242,-1.016951 3.49608,-0.504277 0.88052,0.428336 1.43072,1.690713 1.43483,2.566364 7e-4,0.853729 -0.39126,1.602579 -1.03111,2.084496 -0.87191,0.65487 -1.89889,0.803983 -2.89139,0.470702 -0.56582,-0.189877 -1.50198,-1.053434 -1.50198,-1.053434 h -3.24983 c 0,0 -0.39094,0.04715 -0.49321,0.190527 -0.10931,0.15203 -0.006,0.560339 -0.006,0.560339 0,0 1.19279,2.122746 2.11805,2.868956 0.88639,0.714824 3.11557,1.400896 3.11557,1.400896 l 0.95256,0.04481 2.94733,0.302632 v 2.364678 H 59.697984 V 61.202896 Z"
     id="profile_left"
     sodipodi:nodetypes="cccssssssssssssssssssssssssssssssssssssssssssssssssssssssssssssssssssssssssssssssssssssssssssssssssssssssssssssssssssssssssssssssssscccsccccssssccscsccccccc"
     inkscape:label="profile_left" />
  <rect
     style="fill:#ddd5d5;fill-opacity:0.768047;fill-rule:evenodd;stroke:#b81e1e;stroke-width:0.0184572"
     id="concrete_left"
     width="140.11058"
     height="49.982468"
     x="-80.473457"
     y="63.566406" />
  <ellipse
     style="fill:#b4cdd0;fill-opacity:0;fill-rule:evenodd;stroke:#b81e1e;stroke-width:0.00016359"
     id="screw_left"
     cx="-2.7155581"
     cy="-58.113285"
     rx="0.049918205"
     ry="0.032774579"
     transform="scale(-1)"
     inkscape:label="screw_left" />
  <rect
     style="fill:#e1ecec;fill-opacity:0.77;fill-rule:evenodd;stroke:#b81e1e;stroke-width:0.0126854"
     id="finish_left"
     width="140.11874"
     height="2.0309176"
     x="-80.497459"
     y="61.423679"
     inkscape:label="finish_left" />
  <rect
     style="fill:#e1ecec;fill-opacity:0.77;fill-rule:evenodd;stroke:#b81e1e;stroke-width:0.0144776"
     id="cover_left"
     width="140.11621"
     height="0.12596738"
     x="-80.4842"
     y="61.247318"
     inkscape:label="cover_left" />
  <rect
     style="fill:#404242;fill-opacity:0.341246;fill-rule:evenodd;stroke:#b81e1e;stroke-width:0.0246624"
     id="shadow"
     width="311.07617"
     height="0.0085817361"
     x="-27.037378"
     y="113.38139"
     inkscape:label="shadow" />
  <ellipse
     style="opacity:0;fill:none;fill-opacity:0;fill-rule:evenodd;stroke-width:0.000191947;stroke-opacity:0"
     id="screw_right"
     cx="265.49295"
     cy="21.699633"
     rx="0.0049418169"
     ry="0.0015055466"
     inkscape:label="screw_right" />
  <path
     style="fill:#5e5e5e;fill-rule:evenodd;stroke:#000000;stroke-width:0.0441661"
     d="m 260.21942,65.363404 h 3.29292 c 0.0846,-0.0709 0.72166,0.39848 0.52726,0.78512 -0.22127,0.44001 -0.41877,0.93966 -0.67956,1.37107 -0.25974,0.4296 -0.59704,0.81424 -0.96096,1.16012 -0.40281,0.38249 -1.33586,0.99606 -1.33586,0.99606 v 0.71484 h 1.24207 c 0,0 0.13873,-0.47882 0.33969,-0.50389 0.24462,-0.0302 0.30469,0.50467 0.55083,0.49218 0.24289,-0.0129 0.24894,-0.54162 0.49218,-0.53907 0.24937,0.002 0.24332,0.55156 0.49216,0.5625 0.25932,0.0129 0.30298,-0.54335 0.5625,-0.53903 0.23467,0.004 0.25759,0.49835 0.49214,0.50389 0.23467,0.004 0.28135,-0.49689 0.51559,-0.48047 0.21048,0.0129 0.39848,0.49218 0.39848,0.49218 h 1.12499 V 8.7832135 h -0.86049 l -1.43049,4.2278385 v 1.593692 c 0,0 0.52004,0.16294 0.53318,0.38075 0.013,0.24852 -0.54258,0.255 -0.55082,0.50389 -0.013,0.25975 0.54603,0.30297 0.53907,0.56254 -0.013,0.25672 -0.56799,0.27055 -0.5625,0.52731 0,0.25759 0.58077,0.24635 0.58592,0.50389 0,0.23468 -0.50865,0.24548 -0.5156,0.48046 -0.013,0.22647 0.47147,0.2658 0.46871,0.49218 0,0.23727 -0.50748,0.26623 -0.5038,0.50389 0,0.26795 0.58716,0.28264 0.58591,0.55077 0,0.2766 -0.6214,0.28611 -0.60938,0.5625 0.013,0.26147 0.61336,0.21869 0.62107,0.48046 0.013,0.24332 -0.4963,0.24289 -0.55075,0.48046 -0.0891,0.38897 0.47639,0.70257 0.46875,1.10152 -0.013,0.37557 -0.55473,0.65122 -0.48051,1.01953 0.0432,0.20615 0.45945,0.21177 0.46871,0.42182 0.013,0.23467 -0.48315,0.28049 -0.48037,0.51559 0,0.2403 0.50517,0.27531 0.50384,0.51561 0,0.23208 -0.47995,0.26061 -0.49218,0.49217 -0.013,0.23598 0.45099,0.31463 0.44528,0.55078 -0.013,0.24073 -0.48724,0.29864 -0.48037,0.53907 0.013,0.25413 0.53763,0.28481 0.53902,0.53902 0,0.25672 -0.55653,0.29432 -0.53902,0.55079 0.0173,0.24158 0.56876,0.20312 0.57413,0.44532 0.013,0.27141 -0.62526,0.25585 -0.62102,0.52731 0,0.26969 0.62606,0.23424 0.6328,0.50389 0.013,0.26579 -0.58653,0.2619 -0.59771,0.52735 -0.013,0.25413 0.53448,0.29649 0.5274,0.55074 -0.013,0.24591 -0.54331,0.25802 -0.53907,0.50393 0,0.24375 0.54386,0.23684 0.55074,0.48046 0.013,0.2403 -0.51289,0.26364 -0.51565,0.50389 0,0.2403 0.51322,0.27531 0.50398,0.515601 -0.013,0.25456 -0.57464,0.24937 -0.57429,0.50389 3.3e-4,0.24375 0.53622,0.23727 0.55081,0.48046 0.0172,0.26234 -0.54303,0.32371 -0.52735,0.58592 0.013,0.2485 0.55562,0.24332 0.5625,0.49217 0.013,0.24592 -0.52294,0.26969 -0.52727,0.5156 0,0.23209 0.48745,0.27185 0.48037,0.50393 -0.013,0.22388 -0.48245,0.23339 -0.49217,0.456999 -0.013,0.27919 0.58695,0.34272 0.56249,0.62109 -0.0216,0.24116 -0.55631,0.204 -0.57416,0.44529 -0.0173,0.27141 0.58354,0.31809 0.56491,0.58946 -0.0173,0.23554 -0.54982,0.20313 -0.55518,0.43919 0,0.24851 0.56456,0.2403 0.56339,0.48889 0,0.26839 -0.66275,0.48046 -0.61314,0.52204 0.0492,0.0432 0.60869,0.24721 0.61314,0.51374 0,0.2524 -0.55848,0.25327 -0.56339,0.50545 0,0.25801 0.5563,0.28092 0.55518,0.53859 -0.002,0.24418 -0.53665,0.26147 -0.53038,0.50548 0.013,0.23295 0.51893,0.22301 0.53038,0.45574 0.013,0.25932 -0.54352,0.30384 -0.5386,0.56345 0,0.2498 0.53847,0.27185 0.5386,0.52204 9e-5,0.26968 -0.59041,0.29389 -0.58012,0.56344 0.013,0.25888 0.60048,0.23814 0.59668,0.49719 0,0.24591 -0.57322,0.21004 -0.58009,0.45574 -0.013,0.24635 0.54361,0.24246 0.55514,0.48889 0.013,0.26147 -0.54541,0.30988 -0.53853,0.57174 0.013,0.25586 0.56633,0.27444 0.55513,0.53034 -0.013,0.24721 -0.56145,0.21696 -0.57999,0.46404 -0.0172,0.24765 0.5082,0.29864 0.50544,0.54689 0,0.22647 -0.47774,0.26234 -0.47226,0.48889 0.013,0.25413 0.56022,0.26796 0.55516,0.52204 0,0.24851 -0.55996,0.24029 -0.56348,0.48885 0,0.22862 0.49073,0.23597 0.50538,0.46404 0.0173,0.25239 -0.49663,0.32716 -0.48884,0.58004 0.013,0.25196 0.52199,0.29475 0.52199,0.54689 0,0.24807 -0.51213,0.29043 -0.51373,0.53859 0,0.2148 0.43931,0.25715 0.43918,0.47234 -8e-5,0.22257 -0.45786,0.26622 -0.45566,0.48889 0,0.25802 0.55242,0.29777 0.5386,0.55515 -0.013,0.23294 -0.52982,0.21436 -0.5386,0.44748 -0.013,0.23036 0.49603,0.25023 0.49706,0.48059 0.002,0.25197 -0.53768,0.27833 -0.53858,0.5303 -7.8e-4,0.23813 0.49446,0.26752 0.50556,0.50548 0.013,0.25067 -0.49342,0.32933 -0.48062,0.58004 0.013,0.22431 0.48062,0.24765 0.48062,0.4723 0,0.21696 -0.44061,0.2403 -0.46404,0.45574 -0.0172,0.15083 0.24851,0.38119 0.24851,0.38119 v 1.62407 c -0.0696,0.29692 -0.22948,0.52973 -0.59654,0.61319 h -3.53824 v 0.74578 l 1.26782,1.00264 1.05233,1.17663 c -0.013,0 0.46737,0.81372 0.62153,1.28437 0.13096,0.39978 -0.52134,0.90051 -0.55518,0.87004 h -3.26479 c -0.7314,-0.78321 -1.57645,-1.20784 -2.5108,-1.35067 -0.0172,-0.0346 -1.54485,0.24073 -2.07976,0.82033 -0.47286,0.51249 -1.00492,1.28131 -1.03579,2.07986 -0.0303,0.79086 0.34359,1.63635 0.90315,2.19586 0.5764,0.57619 1.45167,0.72539 2.23734,0.68774 0.51127,-0.0259 0.96582,-0.12966 1.34234,-0.35613 0.40539,-0.24375 1.1475,-0.83502 1.1475,-0.83502 z"
     id="profile_right"
     sodipodi:nodetypes="ccssscccsssssssccccccsssssssssssssssssssssssssssssssssssssssssssssssssssssssssssssssssssssssssssscccccccscccsssssc"
     inkscape:label="profile_right" />
  <rect
     style="fill:#e1ecec;fill-opacity:0.77;fill-rule:evenodd;stroke:#b81e1e;stroke-width:0.00839695"
     id="finish_right"
     width="61.239105"
     height="2.0361254"
     x="-61.243305"
     y="267.51279"
     inkscape:label="finish_right"
     transform="rotate(-90)" />
  <rect
     style="fill:#e1ecec;fill-opacity:0.77;fill-rule:evenodd;stroke:#b81e1e;stroke-width:0.00963666"
     id="cover_right"
     width="61.21777"
     height="0.12774111"
     x="-61.228786"
     y="267.33707"
     inkscape:label="cover_right"
     transform="rotate(-90)" />
  <path
     style="fill:#e1ecec;fill-opacity:0.77;fill-rule:evenodd;stroke:#b81e1e;stroke-width:0.00990152"
     d="m 269.56035,0.01555446 20.9385,-6e-6 V 113.42588 H 267.31594 V 61.270116 h 2.23331 z"
     id="concrete_right"
     inkscape:label="concrete_right"
     sodipodi:nodetypes="ccccccc" />
  <path
     style="fill:#5e5e5e;fill-rule:evenodd;stroke:#000000;stroke-width:0.0302518"
     d="m 260.38397,57.837747 c 0.0642,-0.0642 1.39972,0.81437 1.99483,1.35844 0.41808,0.38227 1.10708,1.33113 1.06472,1.44412 0,0 0.0296,0.32267 -0.0488,0.45281 -0.0711,0.11841 -0.34266,0.23268 -0.34266,0.23268 l -2.97387,0.25695 c 0,0 -0.25962,-0.0554 -0.37939,-0.11012 -0.17703,-0.0811 -0.30491,-0.25666 -0.48952,-0.3182 -0.91926,-0.30657 -2.02161,-0.60402 -2.90046,-0.19568 -0.83101,0.38602 -1.40048,1.32745 -1.62769,2.21513 -0.18353,0.71763 -0.0773,1.56158 0.29366,2.20287 0.3656,0.63214 1.03223,1.14578 1.73784,1.33396 0.85902,0.22913 1.80605,-0.0562 2.64345,-0.35491 0.23475,-0.0838 0.63638,-0.39164 0.63638,-0.39164 l 3.10848,0.3182 c 0.0331,0 0.39313,0.22913 0.35491,0.40387 -0.0326,0.1489 -0.12226,0.44058 -0.12226,0.44058 0,0 -0.83403,1.207 -1.39516,1.66439 -0.63948,0.52125 -1.42292,0.84336 -2.17839,1.17486 -0.66908,0.29366 -2.09271,0.43557 -2.09271,0.37939 h -32.54149 l -14.26973,-2.55778 v -1.92141 h 39.87197 c 0.22025,-0.0734 0.35083,-0.22853 0.39162,-0.46503 v -4.35681 c -0.0921,-0.20663 -0.25459,-0.29925 -0.47726,-0.29366 h -30.84021 l -3.0412,1.4747 h -10.76781 c 0,0 -0.31362,-0.24955 -0.31154,-0.42536 0.002,-0.18917 0.34614,-0.45 0.34614,-0.45 l 12.66901,-4.13647 3.04611,0.0346 c 0,0 0.1939,0.49547 0.41106,0.50624 0.24334,0.0119 0.27116,-0.52124 0.51489,-0.51923 0.2457,0.002 0.26465,0.53596 0.51056,0.5322 0.25843,-0.003 0.2608,-0.57874 0.51923,-0.57545 0.26584,0.003 0.2534,0.60366 0.51921,0.60573 0.25044,0.002 0.24718,-0.561 0.49759,-0.56248 0.22765,-0.002 0.2309,0.5002 0.45867,0.50624 0.26406,0.006 0.29848,-0.56675 0.56248,-0.55816 0.25015,0.009 0.24719,0.56124 0.49757,0.56248 0.23889,0.002 0.24126,-0.52862 0.48031,-0.5322 0.24866,-0.003 0.26761,0.53904 0.51627,0.5388 0.24807,-2.3e-4 0.26613,-0.5504 0.51403,-0.53847 0.21758,0.0118 0.18738,0.48898 0.40384,0.51399 0.25962,0.0299 0.35112,-0.50396 0.61192,-0.48954 0.24186,0.0148 0.27175,0.51941 0.51399,0.51402 0.25992,-0.006 0.26643,-0.58063 0.52626,-0.57521 0.23445,0.006 0.21876,0.52424 0.4528,0.53847 0.24482,0.0148 0.29337,-0.50914 0.53848,-0.50173 0.2306,0.006 0.24659,0.49208 0.47729,0.50173 0.2454,0.009 0.30514,-0.49374 0.55073,-0.48951 0.23653,0.003 0.27738,0.49097 0.51399,0.48951 0.23357,-0.002 0.26821,-0.49798 0.50177,-0.48951 0.23979,0.009 0.23742,0.53125 0.47729,0.53848 0.24215,0.006 0.27175,-0.5185 0.51399,-0.514 0.23387,0.006 0.24364,0.50837 0.47729,0.514 0.25666,0.006 0.29426,-0.54783 0.55073,-0.53848 0.23387,0.009 0.2312,0.51903 0.46504,0.52625 0.25961,0.009 0.55073,-0.55073 0.55073,-0.55073 h 7.39184 c 0,0 0.18354,0.50807 0.40388,0.52625 0.25606,0.0207 0.30656,-0.54191 0.56295,-0.52625 0.22824,0.0148 0.21226,0.51118 0.44058,0.52625 0.26495,0.0178 0.32194,-0.54727 0.58744,-0.53848 0.2537,0.009 0.27235,0.5571 0.52622,0.55071 0.23712,-0.006 0.22795,-0.5325 0.46507,-0.53848 0.25369,-0.006 0.27234,0.55387 0.52625,0.55073 0.24244,-0.003 0.24689,-0.54422 0.48951,-0.53847 0.24334,0.006 0.22202,0.55274 0.46506,0.56295 0.26228,0.0118 0.28804,-0.56295 0.5507,-0.56295 0.26258,0 0.28834,0.57254 0.55074,0.56295 0.24008,-0.009 0.22498,-0.54519 0.46503,-0.55073 0.22794,-0.006 0.23712,0.49203 0.46506,0.50177 0.24245,0.009 0.29603,-0.4968 0.53848,-0.48954 0.23356,0.006 0.25577,0.49895 0.48954,0.50177 0.24511,0.003 0.28093,-0.51829 0.52622,-0.514 0.24807,0.006 0.26584,0.53561 0.514,0.53848 0.26524,0.003 0.29783,-0.57439 0.56295,-0.56296 0.23416,0.009 0.21847,0.52838 0.45284,0.53848 0.23623,0.009 0.26524,-0.50322 0.50174,-0.50177 0.23357,0.002 0.25577,0.50035 0.48954,0.50177 0.24245,0.002 0.27176,-0.51681 0.514,-0.514 0.24807,0.003 0.26583,0.54307 0.51399,0.53848 0.23979,-0.006 0.23771,-0.52714 0.47732,-0.53848 0.25074,-0.0118 0.29976,0.5232 0.5507,0.514 0.22202,-0.009 0.23061,-0.48117 0.45281,-0.48952 0.23949,-0.009 0.30627,0.58439 0.52625,0.48952 0.27146,-0.11723 0.55532,-0.64511 0.53848,-0.53848 h 2.97387 z"
     id="compensator_right"
     sodipodi:nodetypes="cscsccsssssssccscsscccccccccccscccssssassssssssssssssssssssssccssssssssssssssssaasssssssssccc"
     inkscape:label="compensator_right">
    <title
       id="title13">metal</title>
  </path>
  <path
     style="fill:#5e5e5e;fill-rule:evenodd;stroke:#000000;stroke-width:0.0302518"
     d="m 66.563555,57.741327 c -0.0643,-0.0642 -1.399711,0.81435 -1.994818,1.35845 -0.418097,0.38223 -1.107098,1.33109 -1.064725,1.44409 0,0 -0.02931,0.3227 0.04896,0.4528 0.07111,0.11841 0.342669,0.23268 0.342669,0.23268 l 2.97388,0.25695 c 0,0 0.259647,-0.0553 0.379382,-0.11012 0.176937,-0.0811 0.304907,-0.25666 0.489526,-0.31817 0.919246,-0.30657 2.021614,-0.60405 2.900453,-0.19568 0.831004,0.386 1.400469,1.32746 1.627674,2.2151 0.183686,0.71766 0.07715,1.56161 -0.29372,2.20287 -0.365596,0.63217 -1.03222,1.14581 -1.73782,1.33397 -0.859038,0.22912 -1.806052,-0.0562 -2.643447,-0.35491 -0.234603,-0.0838 -0.636386,-0.39162 -0.636386,-0.39162 l -3.108497,0.3182 c -0.03312,0 -0.393102,0.22913 -0.354903,0.40387 0.03259,0.14891 0.122379,0.44056 0.122379,0.44056 0,0 0.83402,1.20699 1.395152,1.66439 0.639478,0.52125 1.422919,0.84339 2.178394,1.17488 0.66907,0.29366 2.092727,0.43555 2.092727,0.37936 h 32.541325 l 14.26971,-2.55775 v -1.92141 H 76.219481 c -0.220275,-0.0734 -0.350824,-0.22853 -0.391622,-0.46506 v -4.35677 c 0.09221,-0.20663 0.254525,-0.29926 0.477284,-0.29367 h 30.840207 l 3.0412,1.4747 h 10.76782 c 0,0 0.3136,-0.24955 0.31153,-0.42536 -0.002,-0.18916 -0.34615,-0.44999 -0.34615,-0.44999 l -12.66901,-4.13648 -3.04611,0.0346 c 0,0 -0.19396,0.49546 -0.41104,0.50624 -0.24346,0.0118 -0.27116,-0.52122 -0.5149,-0.51921 -0.24582,0.002 -0.26477,0.53596 -0.51057,0.5322 -0.25834,-0.003 -0.26089,-0.57876 -0.51922,-0.57548 -0.26592,0.003 -0.25328,0.60369 -0.51922,0.60577 -0.25032,0.002 -0.24727,-0.56101 -0.49759,-0.56249 -0.2277,-0.002 -0.23102,0.5002 -0.45865,0.50624 -0.26406,0.006 -0.29849,-0.56675 -0.56249,-0.55816 -0.2502,0.009 -0.24727,0.56124 -0.49758,0.56248 -0.23896,0.002 -0.24136,-0.52862 -0.48029,-0.5322 -0.248723,-0.003 -0.267553,0.53904 -0.516293,0.53878 -0.24814,-2.4e-4 -0.26616,-0.55041 -0.51401,-0.53848 -0.21764,0.0118 -0.18741,0.48901 -0.40386,0.51402 -0.25947,0.0299 -0.3511,-0.50399 -0.61191,-0.48954 -0.241946,0.0148 -0.271756,0.51938 -0.514006,0.514 -0.259795,-0.006 -0.266426,-0.58061 -0.526236,-0.57519 -0.234484,0.006 -0.218736,0.52424 -0.452818,0.53848 -0.244875,0.0148 -0.293246,-0.50914 -0.538479,-0.50177 -0.230725,0.006 -0.246652,0.49212 -0.477285,0.50177 -0.245408,0.009 -0.305144,-0.49375 -0.55072,-0.48952 -0.236557,0.003 -0.277409,0.49094 -0.514004,0.48952 -0.233656,-0.002 -0.268232,-0.49798 -0.501764,-0.48952 -0.239694,0.009 -0.237563,0.53126 -0.47729,0.53848 -0.242211,0.006 -0.271755,-0.51849 -0.514004,-0.51402 -0.233774,0.006 -0.243543,0.50837 -0.477285,0.51402 -0.256657,0.006 -0.294164,-0.54783 -0.550723,-0.53848 -0.233952,0.009 -0.23108,0.51903 -0.46505,0.52623 -0.259499,0.009 -0.550714,-0.55071 -0.550714,-0.55071 H 83.68477 c 0,0 -0.183479,0.50808 -0.403863,0.52625 -0.256006,0.0207 -0.306562,-0.54191 -0.562959,-0.52625 -0.228357,0.0148 -0.212312,0.51119 -0.440574,0.52625 -0.265064,0.0178 -0.321943,-0.54727 -0.587431,-0.53847 -0.253756,0.009 -0.272406,0.55709 -0.526239,0.5507 -0.237089,-0.006 -0.227942,-0.53253 -0.465049,-0.53848 -0.253816,-0.006 -0.272347,0.55387 -0.526245,0.55071 -0.242566,-0.003 -0.247007,-0.54422 -0.489529,-0.53848 -0.243335,0.006 -0.221873,0.55274 -0.465049,0.56296 -0.262282,0.0118 -0.288214,-0.56296 -0.550715,-0.56296 -0.262518,0 -0.288391,0.57258 -0.550723,0.56296 -0.240109,-0.009 -0.224834,-0.54517 -0.46505,-0.55071 -0.228001,-0.006 -0.237208,0.492 -0.46505,0.50177 -0.242359,0.009 -0.295999,-0.49679 -0.538479,-0.48954 -0.233567,0.006 -0.255888,0.49896 -0.489529,0.50177 -0.245171,0.003 -0.281079,-0.51829 -0.526239,-0.514 -0.248101,0.006 -0.265893,0.53558 -0.514001,0.53848 -0.26536,0.003 -0.297823,-0.57438 -0.562958,-0.56296 -0.234307,0.009 -0.218499,0.52838 -0.452815,0.53848 -0.23632,0.009 -0.265242,-0.50322 -0.501763,-0.50177 -0.233656,0.002 -0.255858,0.50032 -0.489525,0.50177 -0.2423,0.002 -0.271725,-0.51684 -0.514004,-0.514 -0.248132,0.003 -0.265894,0.54307 -0.514004,0.53848 -0.239813,-0.006 -0.237712,-0.52714 -0.477294,-0.53848 -0.250825,-0.0118 -0.299777,0.52321 -0.550711,0.514 -0.222141,-0.009 -0.230696,-0.4812 -0.452818,-0.48954 -0.239399,-0.009 -0.306257,0.58442 -0.526239,0.48954 -0.271577,-0.11723 -0.555318,-0.64514 -0.53848,-0.53848 h -2.97388 z"
     id="compensator_left"
     sodipodi:nodetypes="cscsccsssssssccscsscccccccccccscccssssassssssssssssssssssssssccssssssssssssssssaasssssssssccc"
     inkscape:label="compensator_left">
    <title
       id="title14">metal</title>
  </path>
  <path
     style="fill:#5e5e5e;fill-rule:evenodd;stroke:#000000;stroke-width:0.0302518"
     d="m 93.906337,60.810707 h -2.618968 c -0.255029,0.0971 -0.378207,0.26613 -0.379388,0.50177 v 4.05083 c 0.04935,0.21284 0.185314,0.36473 0.46505,0.4161 H 235.55099 c 0.23801,-0.0802 0.43316,-0.20338 0.45281,-0.50177 v -4.01413 c -0.0524,-0.20485 -0.22765,-0.3396 -0.44058,-0.4528 h -2.68016 l -3.02281,1.44412 h -39.51481 c 0,0 -0.19449,0.53229 -0.424,0.54377 -0.26702,0.0148 -0.28656,-0.58341 -0.55384,-0.57977 -0.24511,0.003 -0.24808,0.54428 -0.49328,0.54517 -0.23889,7.9e-4 -0.2457,-0.52762 -0.4846,-0.52788 -0.25103,-2.4e-4 -0.25961,0.55265 -0.51059,0.55384 -0.26109,0.002 -0.2756,-0.58176 -0.53652,-0.57113 -0.23593,0.009 -0.20604,0.53688 -0.44132,0.55384 -0.2605,0.0178 -0.31068,-0.5563 -0.57116,-0.53655 -0.23771,0.0178 -0.20337,0.5491 -0.44135,0.56248 -0.26672,0.0148 -0.29543,-0.58122 -0.56248,-0.57113 -0.2454,0.009 -0.23061,0.5523 -0.47595,0.56249 -0.2608,0.0118 -0.29307,-0.56296 -0.55384,-0.55384 -0.23297,0.009 -0.22558,0.52261 -0.45865,0.52788 -0.24688,0.006 -0.26376,-0.53348 -0.51056,-0.53653 -0.25695,-0.003 -0.28803,0.54621 -0.54519,0.5452 -0.25488,-8e-4 -0.28182,-0.55923 -0.53653,-0.5452 -0.24185,0.0118 -0.20751,0.56713 -0.44999,0.57113 -0.26406,0.006 -0.24659,-0.60514 -0.51056,-0.60573 -0.25369,-6e-4 -0.23977,0.56757 -0.49326,0.5798 -0.25666,0.0118 -0.29737,-0.55375 -0.55382,-0.53655 -0.24185,0.0148 -0.20781,0.56352 -0.44999,0.57115 -0.25933,0.009 -0.25992,-0.58042 -0.51923,-0.5798 -0.2392,5.6e-4 -0.23712,0.52643 -0.47596,0.53653 -0.24659,0.0118 -0.28952,-0.51361 -0.53652,-0.51057 -0.24067,0.003 -0.26998,0.51157 -0.51056,0.51057 -0.24275,-7.7e-4 -0.26791,-0.5275 -0.51059,-0.51921 -0.2392,0.009 -0.22795,0.5378 -0.46729,0.54517 -0.26909,0.009 -0.29366,-0.59623 -0.56248,-0.57981 -0.25281,0.0148 -0.20574,0.59413 -0.45867,0.60577 -0.26909,0.0118 -0.2756,-0.59967 -0.54516,-0.59709 -0.25341,0.002 -0.24837,0.57142 -0.50192,0.57113 -0.24541,-2.4e-4 -0.23949,-0.54763 -0.4846,-0.55384 -0.25695,-0.006 -0.27945,0.55283 -0.53655,0.55384 -0.25903,8e-4 -0.28626,-0.56311 -0.54517,-0.55384 -0.2312,0.009 -0.21906,0.51479 -0.44999,0.52788 -0.24038,0.0148 -0.28804,-0.51471 -0.52788,-0.49325 -0.22587,0.0207 -0.18058,0.52803 -0.40672,0.54517 -0.29484,0.0237 -0.33694,-0.64709 -0.63172,-0.62305 -0.24896,0.0207 -0.19213,0.58631 -0.44135,0.60573 -0.25636,0.0207 -0.28804,-0.54517 -0.54517,-0.54517 -0.24482,0 -0.27472,0.5309 -0.51924,0.51924 -0.23534,-0.0118 -0.21491,-0.53016 -0.44999,-0.5452 -0.25251,-0.0148 -0.30085,0.52542 -0.55384,0.51924 -0.24482,-0.006 -0.26583,-0.53786 -0.51056,-0.52788 -0.24985,0.009 -0.22587,0.57651 -0.47596,0.57977 -0.25547,0.003 -0.50191,-0.57977 -0.50191,-0.57977 h -7.3643 c 0,0 -0.22584,0.54756 -0.46729,0.55384 -0.2489,0.006 -0.26169,-0.55221 -0.51057,-0.5452 -0.25177,0.006 -0.23283,0.57243 -0.48461,0.5798 -0.26518,0.009 -0.27989,-0.57784 -0.54518,-0.5798 -0.25296,-0.002 -0.27504,0.55301 -0.52788,0.5452 -0.23516,-0.006 -0.22338,-0.53427 -0.45864,-0.53655 -0.24313,-0.002 -0.24162,0.53616 -0.48461,0.54519 -0.26095,0.009 -0.30165,-0.55706 -0.56249,-0.54519 -0.24316,0.0118 -0.23262,0.54762 -0.47596,0.55384 -0.25088,0.006 -0.26829,-0.54973 -0.51922,-0.54517 -0.23495,0.003 -0.2325,0.5179 -0.46729,0.52788 -0.25479,0.0118 -0.29913,-0.54058 -0.55384,-0.52788 -0.2431,0.0118 -0.23256,0.55212 -0.47596,0.55381 -0.26565,0.002 -0.26225,-0.59203 -0.52787,-0.59709 -0.26314,-0.006 -0.28206,0.57684 -0.54519,0.57116 -0.24526,-0.006 -0.23931,-0.55464 -0.4846,-0.55384 -0.25156,7.7e-4 -0.24173,0.56722 -0.49326,0.57113 -0.24289,0.003 -0.25038,-0.53143 -0.49326,-0.53653 -0.24064,-0.006 -0.26989,0.50852 -0.51057,0.51057 -0.2407,0.002 -0.27874,-0.5127 -0.51922,-0.50192 -0.22475,0.009 -0.21661,0.50061 -0.44134,0.51059 -0.25269,0.0118 -0.29248,-0.53931 -0.54518,-0.52788 -0.24722,0.0118 -0.23718,0.55807 -0.48461,0.56248 -0.26329,0.006 -0.27324,-0.58332 -0.53653,-0.5798 -0.24935,0.003 -0.24387,0.56302 -0.49326,0.56249 -0.26376,-5.4e-4 -0.25547,-0.59754 -0.51923,-0.59709 -0.25156,4.1e-4 -0.24191,0.56091 -0.49325,0.57113 -0.24662,0.009 -0.28114,-0.52534 -0.52788,-0.51921 -0.24695,0.006 -0.25491,0.54209 -0.50191,0.54517 -0.24887,0.003 -0.27039,-0.5418 -0.51922,-0.53653 -0.2431,0.006 -0.24153,0.53901 -0.48461,0.54517 -0.25488,0.006 -0.28161,-0.55041 -0.53653,-0.54517 -0.24908,0.006 -0.25278,0.55589 -0.50192,0.55384 -0.24937,-0.002 -0.24399,-0.55535 -0.49325,-0.56248 -0.2508,-0.006 -0.27706,0.54197 -0.52788,0.53652 -0.23688,-0.006 -0.23916,-0.51976 -0.47595,-0.52788 -0.24464,-0.009 -0.28321,0.51882 -0.52788,0.51057 -0.24085,-0.009 -0.24367,-0.53141 -0.4846,-0.53653 -0.24677,-0.006 -0.27247,0.52365 -0.51923,0.52788 -0.23461,0.003 -0.27596,-0.48768 -0.51057,-0.4846 -0.2325,0.003 -0.26074,0.49517 -0.49326,0.49325 -0.24887,-0.002 -0.27033,-0.53747 -0.51922,-0.53653 -0.25503,8e-4 -0.27285,0.55597 -0.52787,0.55384 -0.2511,-0.002 -0.25959,-0.56071 -0.51058,-0.55384 -0.23555,0.006 -0.21465,0.53306 -0.44999,0.5452 -0.26684,0.0148 -0.57114,-0.56252 -0.57114,-0.56252 H 97.032631 Z"
     id="compensator_middle"
     sodipodi:nodetypes="ccccccccccccsssssssssssssssssssssssssssssssssssssssssssssccsssssssssssssssssssssssssssssssssssssssssssssccc"
     inkscape:label="compensator_middle">
    <title
       id="title15">metal</title>
  </path>
</svg>
