<?xml version="1.0" encoding="UTF-8" standalone="no"?>
<!-- Created with Inkscape (http://www.inkscape.org/) -->

<svg
   width="210mm"
   height="297mm"
   viewBox="0 0 210 297"
   version="1.1"
   id="svg1"
   inkscape:version="1.4 (86a8ad7, 2024-10-11)"
   sodipodi:docname="DSHA-15-080.svg"
   xmlns:inkscape="http://www.inkscape.org/namespaces/inkscape"
   xmlns:sodipodi="http://sodipodi.sourceforge.net/DTD/sodipodi-0.dtd"
   xmlns="http://www.w3.org/2000/svg"
   xmlns:svg="http://www.w3.org/2000/svg">
  <sodipodi:namedview
     id="namedview1"
     pagecolor="#ffffff"
     bordercolor="#000000"
     borderopacity="0.25"
     inkscape:showpageshadow="2"
     inkscape:pageopacity="0.0"
     inkscape:pagecheckerboard="0"
     inkscape:deskcolor="#d1d1d1"
     inkscape:document-units="mm"
     inkscape:zoom="1.4803312"
     inkscape:cx="135.44267"
     inkscape:cy="63.837067"
     inkscape:window-width="2560"
     inkscape:window-height="1377"
     inkscape:window-x="-8"
     inkscape:window-y="-8"
     inkscape:window-maximized="1"
     inkscape:current-layer="svg1" />
  <defs
     id="defs1" />
  <path
     style="fill:#5e5e5e;fill-rule:evenodd;stroke:#000000;stroke-width:0.0424045"
     d="M -3.6204396,12.019037 H 6.0494156 51.694902 c 0.538858,-0.04148 0.945134,-0.303325 1.073478,-1.028409 V 0.10995925 h 1.08568 c 0,0 0.197514,0.520835 0.424531,0.533725 0.22283,0.01232 0.250215,-0.474377 0.473083,-0.473067 0.243166,0.0011 0.266813,0.532967 0.509439,0.521582 0.24399,-0.01162 0.216603,-0.560128 0.460964,-0.570109 0.239847,-0.01008 0.257272,0.531017 0.49732,0.521594 0.224072,-0.0088 0.201254,-0.503862 0.424532,-0.521594 0.253953,-0.02033 0.316194,0.532651 0.570145,0.509465 0.203736,-0.01867 0.375946,-0.485203 0.375946,-0.485203 h 1.043186 v 0.764194 l -1.115968,0.93401795 -0.9726,1.091136 c 0.029,0 -0.556451,0.831031 -0.669028,1.325189 -0.07096,0.311626 0.518934,0.806283 0.518934,0.806283 l 3.156446,-0.0166 1.299456,-0.999253 c 0.719072,-0.342166 1.438093,-0.369716 2.157161,-0.09432 0.827164,0.325734 1.351326,0.840863 1.629675,1.50959 0.334868,0.899162 0.362665,1.639678 0.0332,2.195793 -0.312043,0.749487 -0.755048,1.362576 -1.612539,1.543906 -0.842431,0.394201 -1.624739,0.247313 -2.375879,-0.180088 l -1.123643,-0.849154 h -3.182172 c -0.307066,0.09668 -0.573423,0.238598 -0.497487,0.763385 l 0.900606,1.6125398 1.312367,1.363773 1.638221,0.883469 1.818396,0.454579 3.482344,0.282999 V 14.97879 H -3.8477876 v -2.736145 c -0.0033,-0.118263 0.08499,-0.185897 0.227351,-0.223242 z"
     id="profile_left"
     sodipodi:nodetypes="ccccccssssssscccccsccccccccccccccccccccc"
     inkscape:label="profile_left" />
  <path
     style="fill:#5e5e5e;fill-rule:evenodd;stroke:#000000;stroke-width:0.0424045"
     d="m 213.80137,11.930282 h -9.67007 -45.64527 c -0.53886,-0.04148 -0.94514,-0.303326 -1.07348,-1.028411 V 0.02120225 h -1.08568 c 0,0 -0.19751,0.520836 -0.42452,0.533726 -0.22283,0.01232 -0.25021,-0.474376 -0.47309,-0.473068 -0.24316,0.0011 -0.26681,0.532969 -0.50944,0.521582 -0.24398,-0.01162 -0.2166,-0.560126 -0.46096,-0.570107 -0.23985,-0.01008 -0.25727,0.531017 -0.49732,0.521593 -0.22406,-0.0088 -0.20126,-0.503861 -0.42453,-0.521593 -0.25395,-0.02033 -0.31619,0.532652 -0.57015,0.509463 -0.20373,-0.01868 -0.37594,-0.485203 -0.37594,-0.485203 h -1.04318 v 0.764197 l 1.11596,0.93401495 0.9726,1.091138 c -0.0289,0 0.55645,0.83103 0.66903,1.325189 0.071,0.311626 -0.51893,0.806284 -0.51893,0.806284 l -3.15645,-0.01659 -1.29946,-0.999252 c -0.71907,-0.342167 -1.43809,-0.369715 -2.15717,-0.09432 -0.82716,0.325733 -1.35132,0.840862 -1.62966,1.509591 -0.33487,0.899162 -0.36267,1.63968 -0.0332,2.195793 0.31204,0.749485 0.75504,1.362575 1.61253,1.543905 0.84244,0.3942 1.62475,0.247315 2.37588,-0.180087 l 1.12365,-0.849154 h 3.18217 c 0.30706,0.0967 0.57342,0.238597 0.49748,0.763384 l -0.90059,1.6125398 -1.31238,1.363773 -1.63822,0.88347 -1.81839,0.454578 -3.48235,0.283 v 1.440999 h 68.8785 v -2.736149 c 0.004,-0.118263 -0.0849,-0.185897 -0.22735,-0.223242 z"
     id="profile_right"
     sodipodi:nodetypes="ccccccssssssscccccsccccccccccccccccccccc"
     onclick=""
     inkscape:label="profile_right" />
  <rect
     style="fill:#b8b8b8;fill-opacity:1;fill-rule:evenodd;stroke:#b81e1e;stroke-width:0.0451594"
     id="concrete_right"
     width="78.169731"
     height="54.251862"
     x="145.07863"
     y="15.048098" />
  <rect
     style="fill:#b8b8b8;fill-opacity:1;fill-rule:evenodd;stroke:#b81e1e;stroke-width:0.0450992"
     id="concrete_left"
     width="78.208832"
     height="54.080254"
     x="-13.248387"
     y="15.038652" />
  <rect
     style="fill:#a39a9a;fill-rule:evenodd;stroke:#b81e1e;stroke-width:0.0205795"
     id="finish_right"
     width="65.819427"
     height="9.644803"
     x="157.42218"
     y="5.2463965" />
  <rect
     style="fill:#a39a9a;fill-rule:evenodd;stroke:#b81e1e;stroke-width:0.0204448"
     id="finish_left"
     width="65.819572"
     height="9.5185556"
     x="-13.145421"
     y="5.2911887" />
  <rect
     style="fill:#a39a9a;fill-rule:evenodd;stroke:#b81e1e;stroke-width:0.0329314"
     id="cover_right"
     width="65.769066"
     height="4.9670687"
     x="157.35764"
     y="0.18754357" />
  <rect
     style="fill:#a39a9a;fill-rule:evenodd;stroke:#b81e1e;stroke-width:0.0329316"
     id="cover_left"
     width="65.769104"
     height="4.9670682"
     x="-13.098668"
     y="0.22004861" />
  <rect
     style="fill:#404242;fill-opacity:0.341246;fill-rule:evenodd;stroke:#b81e1e;stroke-width:0.0198777"
     id="shadow"
     width="137.48599"
     height="0.01261392"
     x="37.805"
     y="68.939667"
     inkscape:label="shadow" />
  <ellipse
     style="opacity:0;fill:none;fill-opacity:0;fill-rule:evenodd;stroke-width:0.00368993;stroke-opacity:0"
     id="bolt_left"
     cx="-6.0134854"
     cy="-12.106802"
     rx="0.094999999"
     ry="0.028942173"
     inkscape:label="bolt_left"
     transform="scale(-1)" />
  <ellipse
     style="opacity:0;fill:none;fill-opacity:0;fill-rule:evenodd;stroke-width:0.000191947;stroke-opacity:0"
     id="bolt_right"
     cx="204.13625"
     cy="12.030367"
     rx="0.0049418169"
     ry="0.0015055466"
     inkscape:label="bolt_right" />
  <path
     style="fill:#5e5e5e;fill-rule:evenodd;stroke:#000000;stroke-width:0.0283741"
     d="m 56.531861,3.9417101 c 0.0067,-0.3319431 0.250278,-0.6164657 0.464882,-0.9068073 0.5052,-0.6846897 1.105574,-1.3186164 1.934142,-1.8308382 0.813252,-0.42975312 1.677177,-0.66949827 2.576945,-0.77480684 l 0.832204,0.00583 L 121.0118,4.6235486 120.78856,7.699739 67.955913,3.8643218 c -0.06156,0 -0.39853,0.1028725 -0.381663,0.2324535 0.01693,0.1299682 -0.0031,0.393146 -0.0031,0.393146 0,0 0.305158,1.1053465 0.364443,1.6730023 0.03195,0.3063492 0.0067,0.6162686 -0.0058,0.924024 -0.02776,0.6836055 -0.390304,1.4173689 -0.424705,1.9628455 -0.01055,0.1647889 0.361569,0.3386143 0.361569,0.3386143 l 27.687095,-0.016657 27.843988,1.9926256 c -0.003,-0.02748 0.21961,0.03834 0.28409,0.422062 0.0475,0.281972 -0.0974,0.852243 -0.0974,0.852243 0,0 -1.0191,0.188529 -1.46099,-0.0161 -0.20547,-0.09526 -0.21852,-0.514637 -0.44511,-0.513623 -0.23601,7.35e-4 -0.22324,0.531991 -0.45913,0.539489 -0.24212,0.0078 -0.26294,-0.53134 -0.50506,-0.52227 -0.23629,0.0089 -0.21713,0.54033 -0.45342,0.54523 -0.24239,0.0053 -0.24544,-0.536253 -0.48783,-0.53949 -0.2299,-0.0031 -0.24628,0.498564 -0.47634,0.499319 -0.23963,7.36e-4 -0.2599,-0.523908 -0.49935,-0.51654 -0.24155,0.0075 -0.22906,0.554087 -0.47062,0.550972 -0.23406,-0.0031 -0.20796,-0.541004 -0.44192,-0.545235 -0.2385,-0.0044 -0.23212,0.531991 -0.47062,0.539498 -0.261,0.0083 -0.29063,-0.576295 -0.55098,-0.55671 -0.22657,0.01693 -0.17493,0.535347 -0.40175,0.550975 -0.22823,0.01582 -0.24766,-0.490868 -0.47636,-0.493587 -0.22324,-0.0031 -0.25322,0.475974 -0.47635,0.470627 -0.22601,-0.0053 -0.23324,-0.506505 -0.45917,-0.499319 -0.23101,0.0072 -0.20517,0.526715 -0.43615,0.53949 -0.26601,0.01471 -0.30201,-0.575349 -0.56821,-0.562449 -0.22129,0.01083 -0.20323,0.50682 -0.42472,0.510797 -0.21796,0.0036 -0.21824,-0.48175 -0.43617,-0.487838 -0.2435,-0.0067 -0.27294,0.51723 -0.51656,0.51653 -0.23683,-6.74e-4 -0.26265,-0.511419 -0.4993,-0.505057 -0.22767,0.0058 -0.22573,0.508637 -0.45342,0.510806 -0.23434,0.0022 -0.24212,-0.523542 -0.47634,-0.516543 -0.22962,0.0067 -0.20658,0.525275 -0.4362,0.533754 -0.25572,0.0094 -0.27238,-0.567637 -0.52801,-0.556711 -0.24213,0.01027 -0.21102,0.564438 -0.45342,0.568192 -0.251,0.0036 -0.23684,-0.577015 -0.48781,-0.57393 -0.23129,0.0031 -0.20491,0.535406 -0.4362,0.539489 -0.25072,0.0044 -0.24267,-0.572966 -0.49358,-0.568183 -0.25046,0.0044 -0.22018,0.581672 -0.47064,0.585404 -0.24156,0.0036 -0.22906,-0.551083 -0.47062,-0.550972 -0.23878,1.08e-4 -0.22601,0.542106 -0.46488,0.545235 -0.22879,0.0031 -0.23017,-0.508048 -0.45913,-0.510797 -0.23128,-0.0031 -0.24489,0.507963 -0.47637,0.505062 -0.24934,-0.0031 -0.25018,-0.561004 -0.49931,-0.556719 -0.24434,0.0044 -0.22629,0.558326 -0.47063,0.562454 -0.24655,0.0044 -0.24711,-0.558473 -0.49358,-0.550973 -0.23407,0.0072 -0.20241,0.534967 -0.4362,0.550973 -0.25656,0.01749 -0.30023,-0.551679 -0.5567,-0.533754 -0.22823,0.01582 -0.19575,0.534415 -0.4247,0.539491 -0.23739,0.0053 -0.22768,-0.534692 -0.46488,-0.539491 -0.24101,-0.0053 -0.25267,0.532549 -0.49359,0.528019 -0.22768,-0.0044 -0.21991,-0.513133 -0.44767,-0.516543 -0.22878,-0.0036 -0.23628,0.497992 -0.46487,0.505059 -0.26516,0.0081 -0.30976,-0.574151 -0.57394,-0.550972 -0.20991,0.01832 -0.16327,0.490931 -0.37307,0.510794 -0.23712,0.02249 -0.28495,-0.508776 -0.522262,-0.487838 -0.238227,0.0211 -0.191587,0.562425 -0.430452,0.573931 -0.266558,0.01277 -0.273498,-0.610442 -0.539487,-0.59115 -0.227954,0.01666 -0.156592,0.548336 -0.384519,0.568191 -0.24407,0.0211 -0.266002,-0.534229 -0.510808,-0.528015 -0.241281,0.0058 -0.235173,0.550019 -0.47637,0.545235 -0.240725,-0.0044 -0.212686,-0.554233 -0.453411,-0.562455 -0.244903,-0.0083 -0.254342,0.540203 -0.499315,0.539498 -0.243779,-6.97e-4 -0.249887,-0.546748 -0.493582,-0.539498 -0.22157,0.0067 -0.197694,0.503251 -0.418958,0.516542 -0.252663,0.01499 -0.292682,-0.542784 -0.545234,-0.528017 -0.241558,0.01416 -0.217127,0.560486 -0.45913,0.562449 -0.240294,0.0022 -0.224775,-0.54152 -0.46489,-0.550974 -0.231147,-0.0092 -0.256605,0.500408 -0.487835,0.493582 -0.20866,-0.0058 -0.204468,-0.470265 -0.413225,-0.470625 -0.242627,-4.17e-4 -0.239518,0.543561 -0.482103,0.545237 -0.25598,0.0015 -0.260644,-0.574092 -0.516542,-0.568194 -0.245875,0.0058 -0.224706,0.565307 -0.470623,0.568194 -0.250858,0.0031 -0.242779,-0.574725 -0.493582,-0.568194 -0.23298,0.0058 -0.197444,0.546368 -0.430451,0.550974 -0.245639,0.0053 -0.230676,-0.564048 -0.476356,-0.562449 -0.240531,0.0015 -0.218877,0.545199 -0.459144,0.55671 -0.259437,0.01249 -0.291571,-0.563983 -0.550966,-0.550972 -0.229482,0.01166 -0.206717,0.52224 -0.436198,0.533751 -0.243196,0.01222 -0.273152,-0.524083 -0.516542,-0.51653 -0.239781,0.0075 -0.236533,0.545632 -0.476356,0.53949 -0.227288,-0.0058 -0.197666,-0.521552 -0.424705,-0.533754 -0.228287,-0.01222 -0.253468,0.488463 -0.482102,0.487838 -0.238088,-6.47e-4 -0.26138,-0.519507 -0.499329,-0.510795 -0.240143,0.0089 -0.224568,0.550356 -0.464877,0.550972 -0.238837,6.19e-4 -0.226066,-0.542031 -0.464876,-0.545235 -0.231619,-0.0031 -0.233257,0.517252 -0.46489,0.516542 -0.23037,-7.14e-4 -0.228871,-0.522809 -0.459144,-0.516542 -0.239531,0.0067 -0.208132,0.555478 -0.447664,0.562455 -0.246471,0.0072 -0.246999,-0.549311 -0.493582,-0.550971 -0.228815,-0.0015 -0.236089,0.501618 -0.464876,0.505058 -0.238074,0.0036 -0.493513,-0.533741 -0.499329,-0.510798 -0.0056,0.02304 -0.248471,0.550645 -0.493569,0.54523 -0.230925,-0.0053 -0.210992,-0.529544 -0.441931,-0.533754 -0.235728,-0.0044 -0.234867,0.524739 -0.470623,0.528015 -0.228704,0.0031 -0.241946,-0.494627 -0.470623,-0.499319 -0.235339,-0.0053 -0.269792,0.501846 -0.505062,0.493582 -0.230231,-0.0081 -0.228898,-0.509105 -0.459143,-0.516541 -0.233924,-0.0075 -0.26535,0.499638 -0.499316,0.493585 -0.235561,-0.0058 -0.24078,-0.526546 -0.476369,-0.522279 -0.230703,0.0044 -0.217072,0.519847 -0.44765,0.528016 -0.237963,0.0083 -0.261311,-0.517093 -0.499329,-0.510795 -0.231731,0.0058 -0.227344,0.523422 -0.459144,0.522279 -0.237366,-0.0015 -0.22751,-0.541713 -0.464876,-0.5395 -0.233674,0.0022 -0.214129,0.531314 -0.447678,0.5395 -0.238004,0.0083 -0.255467,-0.511842 -0.493568,-0.516543 -0.242141,-0.0053 -0.2803,0.514866 -0.522289,0.505059 -0.231613,-0.0094 -0.227614,-0.533629 -0.459135,-0.522279 -0.2259,0.01111 -0.170841,0.529669 -0.396012,0.550974 -0.254611,0.02415 -0.301476,-0.544364 -0.556716,-0.528017 -0.226622,0.01444 -0.203383,0.52551 -0.430441,0.528017 -0.238812,0.0031 -0.226068,-0.543077 -0.46489,-0.54523 -0.242588,-0.0022 -0.239506,0.542476 -0.482103,0.54523 -0.245003,0.0031 -0.493501,-0.562433 -0.499312,-0.53949 -0.0058,0.02304 -0.227373,0.517993 -0.459143,0.522279 -0.247613,0.0044 -0.2633,-0.548242 -0.510806,-0.5395 -0.235008,0.0083 -0.212546,0.540321 -0.447661,0.545235 -0.241117,0.0053 -0.24095,-0.541988 -0.482102,-0.539498 -0.229288,0.0022 -0.218543,0.513477 -0.447666,0.522279 -0.237924,0.0092 -0.267133,-0.513544 -0.50506,-0.505059 -0.227704,0.0081 -0.219848,0.512771 -0.447661,0.516543 -0.247696,0.0044 -0.257692,-0.558902 -0.50506,-0.545238 -0.228067,0.01249 -0.179284,0.540864 -0.407491,0.550973 -0.247752,0.01083 -0.245586,-0.556305 -0.493577,-0.55671 -0.238479,-3.89e-4 -0.238035,0.525622 -0.476363,0.533754 -0.235257,0.0081 -0.270021,-0.506727 -0.505059,-0.493585 -0.229398,0.01277 -0.206603,0.524594 -0.436188,0.533762 -0.264995,0.01055 -0.286094,-0.586876 -0.550971,-0.573931 -0.240839,0.01166 -0.206632,0.561345 -0.447671,0.568186 -0.242503,0.0067 -0.239588,-0.551524 -0.482101,-0.54523 -0.227288,0.0058 -0.197552,0.523822 -0.424705,0.533754 -0.260913,0.01138 -0.278741,-0.582907 -0.539496,-0.568191 -0.234564,0.01333 -0.424705,0.562456 -0.424705,0.562456 0,0 -1.502783,-0.0432 -2.2527,-0.09249 -1.237737,-0.08133 -2.326384,-0.657605 -3.210116,-1.452871 C 57.341249,10.612525 56.58599,9.3069501 56.58599,9.3069501 l -0.0161,-0.284084 0.219154,-0.1542088 2.743404,-0.2272619 C 60.53747,9.4797017 61.81895,10.069287 63.314754,9.4449394 64.042883,9.141018 64.552129,8.6042378 64.775736,7.6917587 64.948409,6.9870734 65.100737,6.17128 64.865033,5.4678065 64.630497,4.7678338 64.181877,4.0726972 63.460862,3.7552043 62.409282,3.2921519 61.315416,3.2328757 60.181757,3.9013065 c -0.237923,0.1402722 -0.304013,0.324979 -0.46265,0.4707647 l -0.267854,0.048709 -2.719056,-0.227262 z"
     id="compensator_left"
     sodipodi:nodetypes="ccccccccscssscccscsssssssssssssssssssasssssssssssssssssssssssssaaaaasssssssaaasssssssssssssssssssssssssssssssssssssasssssssssssssssssssssssssscssccccssasscccc"
     inkscape:label="compensator_left">
    <title
       id="title4">metal</title>
  </path>
  <path
     style="fill:#5e5e5e;fill-rule:evenodd;stroke:#000000;stroke-width:0.0283741"
     d="m 153.67066,9.2141239 c -0.006,0.3319417 -0.25018,0.6164643 -0.46489,0.9068031 -0.50519,0.684691 -1.10557,1.318621 -1.93415,1.83084 -0.81324,0.429751 -1.67717,0.669499 -2.57694,0.774808 l -0.8322,-0.0058 -58.671757,-4.188491 0.223207,-3.0761904 52.83264,3.8354186 c 0.0616,0 0.39855,-0.1028447 0.38166,-0.2324535 -0.0167,-0.1299405 0.003,-0.3931446 0.003,-0.3931446 0,0 -0.30513,-1.1053465 -0.36444,-1.6730023 -0.0319,-0.3063492 -0.006,-0.6162672 0.006,-0.9240268 0.0278,-0.6836028 0.39031,-1.4173661 0.4247,-1.9628455 0.0111,-0.1647875 -0.36156,-0.3386116 -0.36156,-0.3386116 L 114.64816,3.7840852 86.80414,1.7914578 c 0.0028,0.027484 -0.219543,-0.038339 -0.284076,-0.4220588 -0.04733,-0.2819727 0.09744,-0.85224367 0.09744,-0.85224367 0,0 1.019092,-0.18852824 1.460981,0.016102 0.20555,0.0952656 0.218571,0.51463857 0.44511,0.51362377 0.236144,-7.356e-4 0.223124,-0.53198979 0.459143,-0.53948972 0.242058,-0.007773 0.263046,0.53134432 0.505062,0.52227032 0.2362,-0.00888 0.217072,-0.54032678 0.453397,-0.5452268 0.242391,-0.005275 0.245417,0.5362499 0.487849,0.5394898 0.230009,0.00305 0.246333,-0.49856291 0.476356,-0.49932082 0.239476,-7.343e-4 0.259964,0.52390832 0.499315,0.51654162 0.24142,-0.0075 0.229121,-0.55408985 0.470623,-0.55097495 0.233924,0.003054 0.208022,0.54100415 0.441931,0.54523515 0.238588,0.00444 0.232091,-0.53198707 0.470623,-0.53949533 0.260964,-0.008329 0.290614,0.57629393 0.550967,0.55670783 0.22665,-0.016935 0.175012,-0.5353449 0.401759,-0.55097218 0.228121,-0.0158244 0.247721,0.49086582 0.476356,0.49358373 0.22318,0.003054 0.253232,-0.47597423 0.476342,-0.47062587 0.226025,0.005275 0.233244,0.50650422 0.459171,0.49932082 0.231009,-0.00722 0.205176,-0.52671507 0.436199,-0.5394898 0.265988,-0.0147139 0.301996,0.5753473 0.568165,0.5624462 0.221291,-0.010827 0.203232,-0.50682067 0.424718,-0.51079342 0.218238,-0.003609 0.218238,0.48174602 0.436171,0.48783702 0.243515,0.00666 0.272943,-0.51723014 0.516555,-0.51653332 0.236839,6.7462e-4 0.262657,0.51141952 0.499315,0.50505782 0.227677,-0.00583 0.225734,-0.50863635 0.453411,-0.51080318 0.23434,-0.002221 0.242113,0.52354318 0.476342,0.51654018 0.22962,-0.00666 0.206578,-0.52527414 0.436198,-0.5337513 0.255717,-0.009439 0.272374,0.5676336 0.528021,0.5567106 0.242116,-0.010272 0.211006,-0.56444095 0.453416,-0.56819439 0.25099,-0.003609 0.23683,0.57701579 0.48783,0.57392999 0.23129,-0.00305 0.20491,-0.53540591 0.43617,-0.53948972 0.251,-0.004442 0.24267,0.57296672 0.49358,0.56818602 0.25046,-0.00444 0.22019,-0.58167423 0.47064,-0.58540685 0.24156,-0.003609 0.22907,0.55108325 0.47062,0.55097495 0.23879,-1.11e-4 0.22602,-0.54210634 0.46488,-0.54523513 0.22879,-0.003054 0.23018,0.50804643 0.45916,0.51079483 0.23128,0.00305 0.24489,-0.50796032 0.47634,-0.50505918 0.24935,0.003054 0.25018,0.56100118 0.49934,0.55672028 0.24434,-0.00444 0.22629,-0.55832771 0.4706,-0.56245593 0.24655,-0.004442 0.24711,0.55847073 0.49359,0.55097073 0.23407,-0.00722 0.2024,-0.53496449 0.43619,-0.55097073 0.25656,-0.0174901 0.30026,0.55167733 0.5567,0.53375133 0.22824,-0.015824 0.19603,-0.53441485 0.4247,-0.53949115 0.2374,-0.005275 0.22768,0.53469665 0.46491,0.53949115 0.24074,0.00527 0.25267,-0.53254923 0.49357,-0.52801568 0.22795,0.004442 0.2199,0.51313378 0.44766,0.51654018 0.22879,0.00361 0.23628,-0.49798955 0.4649,-0.50505778 0.26517,-0.008051 0.30973,0.57415218 0.57392,0.55097358 0.21018,-0.018323 0.16326,-0.4909311 0.37306,-0.51079766 0.23712,-0.0224873 0.28498,0.50877656 0.52226,0.48784116 0.23823,-0.021099 0.19159,-0.5624282 0.43045,-0.57393142 0.26656,-0.0127706 0.2735,0.61043992 0.53949,0.59115222 0.22796,-0.016657 0.15659,-0.54833752 0.38456,-0.56819575 0.24406,-0.0210992 0.26599,0.53423165 0.51077,0.52801565 0.24129,-0.00583 0.23517,-0.55001711 0.47638,-0.54523509 0.24074,0.004442 0.21268,0.55423699 0.45341,0.56245459 0.2449,0.00833 0.25434,-0.54020049 0.49931,-0.53949533 0.24378,6.9683e-4 0.24988,0.54674813 0.49359,0.53949533 0.22157,-0.00666 0.19768,-0.50325052 0.41894,-0.51653885 0.25267,-0.0152692 0.29269,0.54278095 0.54527,0.52801425 0.24156,-0.014159 0.21712,-0.56048619 0.45914,-0.5624462 0.24017,-0.002221 0.2249,0.5415178 0.46487,0.5509708 0.23101,0.00916 0.25657,-0.50040769 0.48784,-0.49358237 0.2088,0.00583 0.20436,0.47026497 0.41323,0.47062587 0.24269,4.192e-4 0.23963,-0.54355968 0.48211,-0.54523512 0.25598,-0.001527 0.26071,0.57409242 0.51654,0.56819162 0.24574,-0.00583 0.22462,-0.56530298 0.47061,-0.56819162 0.251,-0.003054 0.24294,0.57472262 0.49357,0.56819162 0.23295,-0.00583 0.19742,-0.54636506 0.43045,-0.5509708 0.24573,-0.005275 0.23073,0.5640495 0.47637,0.5624462 0.24045,-0.00153 0.2188,-0.54519899 0.45913,-0.55671055 0.25934,-0.0124929 0.29157,0.56398285 0.55098,0.55097495 0.22962,-0.01166 0.20658,-0.52224256 0.4362,-0.53375412 0.24323,-0.0122153 0.27322,0.52408592 0.51653,0.51653332 0.23989,-0.0075 0.23656,-0.54563216 0.47637,-0.5394898 0.2274,0.00583 0.19769,0.5215513 0.4247,0.5337513 0.22824,0.012215 0.2535,-0.48846298 0.48209,-0.48783834 0.23823,6.4686e-4 0.26129,0.51951074 0.49936,0.51079764 0.24017,-0.00888 0.22462,-0.55035863 0.46487,-0.55097495 0.23878,-6.1631e-4 0.22601,0.54203415 0.46487,0.54523515 0.23157,0.00305 0.23324,-0.51725234 0.46488,-0.51653885 0.23045,7.1071e-4 0.22879,0.52280615 0.45916,0.51653885 0.23963,-0.00666 0.20825,-0.55547381 0.44767,-0.56245459 0.24656,-0.007218 0.24711,0.54931339 0.49356,0.55097359 0.22879,0.00153 0.236,-0.50162091 0.46491,-0.50505785 0.23795,-0.003609 0.49351,0.53373745 0.49931,0.51079485 0.006,-0.023042 0.2485,-0.55064179 0.49359,-0.5452268 0.23099,0.005275 0.21102,0.5295426 0.4419,0.5337513 0.23573,0.00444 0.2349,-0.52473833 0.47063,-0.52801565 0.22878,-0.003054 0.24183,0.49462759 0.47062,0.49932216 0.23546,0.005275 0.26989,-0.50184851 0.50506,-0.49358234 0.23018,0.008051 0.22879,0.50910413 0.45913,0.51653883 0.23406,0.0075 0.26545,-0.49963588 0.49934,-0.49358235 0.23545,0.00583 0.24073,0.52654565 0.47635,0.52227865 0.23073,-0.00444 0.21712,-0.51984669 0.44766,-0.52801708 0.23795,-0.008329 0.26127,0.51709128 0.49933,0.51079628 0.23156,-0.00583 0.2274,-0.52342526 0.45914,-0.52227868 0.2374,0.001527 0.22741,0.54170938 0.46488,0.53949948 0.23378,-0.00222 0.21407,-0.5313166 0.44766,-0.53949948 0.23795,-0.008329 0.25544,0.51183868 0.49358,0.51654018 0.24212,0.00527 0.2803,-0.51486474 0.52228,-0.50505778 0.23156,0.009439 0.22768,0.53362778 0.45916,0.52227728 0.22601,-0.011105 0.17076,-0.52966616 0.39599,-0.5509708 0.25461,-0.024153 0.30147,0.5443606 0.55673,0.5280143 0.22657,-0.0144363 0.20351,-0.52551015 0.43044,-0.5280143 0.2388,-0.003054 0.22601,0.5430752 0.46489,0.5452268 0.24267,0.00222 0.23961,-0.54247279 0.48209,-0.5452268 0.24517,-0.003054 0.4935,0.5624324 0.4993,0.5394898 0.006,-0.023043 0.2274,-0.51799638 0.45917,-0.52227868 0.24767,-0.004442 0.26321,0.54824038 0.5108,0.53949948 0.23489,-0.00833 0.2124,-0.54032124 0.44766,-0.54523513 0.241,-0.005275 0.241,0.54198693 0.4821,0.53949533 0.22935,-0.00222 0.2185,-0.51347669 0.44767,-0.52227728 0.23795,-0.009161 0.2671,0.51354328 0.50504,0.50505778 0.22768,-0.00805 0.21991,-0.51277148 0.44767,-0.51654018 0.24766,-0.004442 0.25766,0.55889968 0.50506,0.54523508 0.22795,-0.012493 0.17936,-0.54086394 0.40751,-0.55097073 0.24768,-0.0108272 0.24545,0.55630523 0.49356,0.55670783 0.23851,3.914e-4 0.23795,-0.52561845 0.47637,-0.53375135 0.23518,-0.008051 0.27016,0.50672495 0.50507,0.49358235 0.22934,-0.0127706 0.20656,-0.52459123 0.43618,-0.53375966 0.26489,-0.0105496 0.2861,0.58687276 0.55095,0.57392866 0.24074,-0.01166 0.20658,-0.5613441 0.44769,-0.5681833 0.24241,-0.006663 0.23963,0.5515233 0.48211,0.5452268 0.2274,-0.00583 0.19769,-0.52381944 0.4247,-0.53375133 0.26099,-0.0113825 0.27873,0.58290693 0.53948,0.56819163 0.23463,-0.013326 0.4247,-0.56245598 0.4247,-0.56245598 0,0 1.50279,0.0431978 2.25271,0.0924894 1.23774,0.0813291 2.32638,0.65760498 3.21011,1.45287118 0.55153,0.4963098 1.30679,1.8018878 1.30679,1.8018878 l 0.0166,0.2840813 -0.21907,0.1542101 -2.74339,0.2272605 c -1.00506,-0.8383085 -2.28656,-1.4278935 -3.78234,-0.8035462 -0.72813,0.3039241 -1.23737,0.8407044 -1.46099,1.7531821 -0.17271,0.7046867 -0.325,1.5204773 -0.0894,2.2239536 0.23462,0.69997 0.68317,1.3951065 1.40418,1.7125994 1.05158,0.4630524 2.14546,0.5223287 3.27912,-0.1461022 0.23795,-0.1402707 0.30401,-0.3249761 0.46263,-0.4707646 l 0.26793,-0.048695 2.71906,0.2272605 z"
     id="compensator_right"
     sodipodi:nodetypes="ccccccccscssscccscsssssssssssssssssssasssssssssssssssssssssssssaaaaasssssssaaasssssssssssssssssssssssssssssssssssssasssssssssssssssssssssssssscssccccssasscccc"
     inkscape:label="compensator_right">
    <title
       id="title3">metal</title>
  </path>
</svg>
