<?xml version="1.0" encoding="UTF-8" standalone="no"?>
<!-- Created with Inkscape (http://www.inkscape.org/) -->

<svg
   width="210mm"
   height="297mm"
   viewBox="0 0 210 297"
   version="1.1"
   id="svg1"
   inkscape:version="1.4 (86a8ad7, 2024-10-11)"
   sodipodi:docname="DSHA-15-170.svg"
   xmlns:inkscape="http://www.inkscape.org/namespaces/inkscape"
   xmlns:sodipodi="http://sodipodi.sourceforge.net/DTD/sodipodi-0.dtd"
   xmlns="http://www.w3.org/2000/svg"
   xmlns:svg="http://www.w3.org/2000/svg">
  <sodipodi:namedview
     id="namedview1"
     pagecolor="#ffffff"
     bordercolor="#000000"
     borderopacity="0.25"
     inkscape:showpageshadow="2"
     inkscape:pageopacity="0.0"
     inkscape:pagecheckerboard="0"
     inkscape:deskcolor="#d1d1d1"
     inkscape:document-units="mm"
     inkscape:zoom="0.74016558"
     inkscape:cx="110.1105"
     inkscape:cy="223.59862"
     inkscape:window-width="2560"
     inkscape:window-height="1377"
     inkscape:window-x="-8"
     inkscape:window-y="-8"
     inkscape:window-maximized="1"
     inkscape:current-layer="svg1" />
  <defs
     id="defs1" />
  <path
     style="fill:#5e5e5e;fill-rule:evenodd;stroke:#000000;stroke-width:0.0424045"
     d="m -39.120553,12.007746 h 9.669503 45.645837 c 0.538858,-0.04148 0.945134,-0.303325 1.073478,-1.028409 V 0.09866828 h 1.08568 c 0,0 0.197514,0.52083495 0.424531,0.53372495 0.222831,0.01232 0.250216,-0.47437695 0.473084,-0.47306695 0.243165,0.0011 0.266813,0.53296695 0.509439,0.52158195 0.243991,-0.01162 0.216603,-0.56012795 0.460966,-0.57010895 0.239847,-0.01008 0.257272,0.53101695 0.49732,0.52159395 0.224072,-0.0088 0.201254,-0.50386195 0.424532,-0.52159395 0.253953,-0.02033 0.316194,0.53265095 0.570145,0.50946495 0.203736,-0.01867 0.375946,-0.48520295 0.375946,-0.48520295 h 1.043186 v 0.76419395 l -1.115968,0.93401797 -0.9726,1.091136 c 0.029,0 -0.556451,0.831031 -0.669028,1.325189 -0.07096,0.311626 0.518934,0.806283 0.518934,0.806283 l 3.156446,-0.0166 1.299456,-0.999253 c 0.719072,-0.342166 1.438093,-0.369716 2.157161,-0.09432 0.827163,0.325734 1.351325,0.840863 1.629674,1.50959 0.334869,0.899162 0.362666,1.639678 0.0332,2.195793 -0.312043,0.749487 -0.755048,1.362576 -1.612538,1.543906 -0.842431,0.3942008 -1.624739,0.247313 -2.375879,-0.180088 l -1.123643,-0.849154 h -3.182172 c -0.307066,0.09668 -0.573423,0.238598 -0.497487,0.763385 l 0.900606,1.6125398 1.312367,1.363773 1.638221,0.883469 1.818396,0.454579 3.482343,0.282999 v 1.440999 h -68.878484 v -2.736145 c -0.0033,-0.118263 0.08499,-0.185897 0.227351,-0.223242 z"
     id="profile_left"
     sodipodi:nodetypes="ccccccssssssscccccsccccccccccccccccccccc"
     inkscape:label="profile_left" />
  <path
     style="fill:#5e5e5e;fill-rule:evenodd;stroke:#000000;stroke-width:0.0424045"
     d="m 249.30142,12.018752 h -9.67007 -45.64527 c -0.53886,-0.04148 -0.94514,-0.303326 -1.07348,-1.028411 V 0.10967239 h -1.08568 c 0,0 -0.19751,0.520836 -0.42452,0.533726 -0.22283,0.01232 -0.25021,-0.474376 -0.47309,-0.473068 -0.24316,0.0011 -0.26681,0.532969 -0.50944,0.521582 -0.24398,-0.01162 -0.2166,-0.560126 -0.46096,-0.570107 -0.23985,-0.01008 -0.25727,0.531017 -0.49732,0.521593 -0.22406,-0.0088 -0.20126,-0.503861 -0.42453,-0.521593 -0.25395,-0.02033 -0.31619,0.532652 -0.57015,0.509463 -0.20373,-0.01868 -0.37594,-0.485203 -0.37594,-0.485203 h -1.04318 v 0.764197 l 1.11596,0.93401491 0.9726,1.091138 c -0.0289,0 0.55645,0.83103 0.66903,1.325189 0.071,0.311626 -0.51893,0.806284 -0.51893,0.806284 l -3.15645,-0.01659 -1.29946,-0.999252 c -0.71907,-0.342167 -1.43809,-0.369715 -2.15717,-0.09432 -0.82716,0.325733 -1.35132,0.840862 -1.62966,1.509591 -0.33487,0.899162 -0.36267,1.63968 -0.0332,2.195793 0.31204,0.749485 0.75504,1.362575 1.61253,1.543905 0.84244,0.3942 1.62475,0.247315 2.37588,-0.180087 l 1.12365,-0.849154 h 3.18217 c 0.30706,0.0967 0.57342,0.238597 0.49748,0.763384 l -0.90059,1.6125397 -1.31238,1.363773 -1.63822,0.88347 -1.81839,0.454578 -3.48235,0.283 v 1.440999 h 68.8785 v -2.736149 c 0.004,-0.118263 -0.0849,-0.185897 -0.22735,-0.223242 z"
     id="profile_right"
     sodipodi:nodetypes="ccccccssssssscccccsccccccccccccccccccccc"
     onclick=""
     inkscape:label="profile_right" />
  <rect
     style="fill:#b8b8b8;fill-opacity:1;fill-rule:evenodd;stroke:#b81e1e;stroke-width:0.0451594"
     id="concrete_right"
     width="78.169731"
     height="54.251862"
     x="180.57867"
     y="15.136568" />
  <rect
     style="fill:#b8b8b8;fill-opacity:1;fill-rule:evenodd;stroke:#b81e1e;stroke-width:0.0450992"
     id="concrete_left"
     width="78.208832"
     height="54.080254"
     x="-48.748432"
     y="15.027361" />
  <rect
     style="fill:#a39a9a;fill-rule:evenodd;stroke:#b81e1e;stroke-width:0.0205795"
     id="finish_right"
     width="65.819427"
     height="9.644803"
     x="192.92223"
     y="5.3348665" />
  <rect
     style="fill:#a39a9a;fill-rule:evenodd;stroke:#b81e1e;stroke-width:0.0204448"
     id="finish_left"
     width="65.819572"
     height="9.5185556"
     x="-48.645466"
     y="5.2798977" />
  <rect
     style="fill:#a39a9a;fill-rule:evenodd;stroke:#b81e1e;stroke-width:0.0329314"
     id="cover_right"
     width="65.769066"
     height="4.9670687"
     x="192.85768"
     y="0.2760137" />
  <rect
     style="fill:#a39a9a;fill-rule:evenodd;stroke:#b81e1e;stroke-width:0.0329316"
     id="cover_left"
     width="65.769104"
     height="4.9670682"
     x="-48.598713"
     y="0.20875764" />
  <rect
     style="fill:#404242;fill-opacity:0.341246;fill-rule:evenodd;stroke:#b81e1e;stroke-width:0.021828"
     id="shadow"
     width="196.10831"
     height="0.010663663"
     x="14.681751"
     y="69.029114"
     inkscape:label="shadow" />
  <ellipse
     style="opacity:0;fill:none;fill-opacity:0;fill-rule:evenodd;stroke-width:0.00368993;stroke-opacity:0"
     id="bolt_left"
     cx="29.356041"
     cy="-12.195404"
     rx="0.094999999"
     ry="0.028942173"
     inkscape:label="bolt_left"
     transform="scale(-1)" />
  <ellipse
     style="opacity:0;fill:none;fill-opacity:0;fill-rule:evenodd;stroke-width:0.000191947;stroke-opacity:0"
     id="bolt_right"
     cx="239.63629"
     cy="12.118837"
     rx="0.0049999999"
     ry="0.0015055466"
     inkscape:label="bolt_right" />
  <path
     style="fill:#5e5e5e;fill-rule:evenodd;stroke:#000000;stroke-width:0.0301099"
     d="M 23.902675,0.67246326 C 23.838727,0.6085147 22.509529,1.4830138 21.917206,2.0245341 21.501065,2.4049736 20.815318,3.3493897 20.857475,3.46185 c 0,0 -0.02945,0.3211903 0.04858,0.4506836 0.07069,0.1178538 0.341049,0.2315831 0.341049,0.2315831 l 2.959926,0.2557546 c 0,0 0.258392,-0.055125 0.377604,-0.1096049 0.1762,-0.080704 0.303483,-0.2554572 0.487218,-0.3166792 0.914951,-0.3051289 2.012129,-0.6012157 2.886856,-0.1947606 0.827118,0.3841772 1.393911,1.3212269 1.620051,2.2047085 0.182674,0.7142905 0.07694,1.5542812 -0.29228,2.1925374 -0.363882,0.6292043 -1.027381,1.1404358 -1.729685,1.327701 C 26.701808,9.731827 25.759226,9.4477566 24.925743,9.1505296 24.692098,9.0671486 24.292355,8.7607507 24.292355,8.7607507 l -3.093931,0.316709 c -0.03301,0 -0.391256,0.2280535 -0.353214,0.4019836 0.03242,0.1482021 0.121691,0.438479 0.121691,0.438479 0,0 0.830082,1.2013407 1.388606,1.6565847 0.636481,0.518807 1.416247,0.839432 2.168173,1.169367 0.665918,0.292289 2.082899,0.433511 2.082899,0.377584 H 58.995227 L 73.198014,10.57571 V 8.6633209 H 33.513093 C 33.293883,8.590251 33.163914,8.4358524 33.123285,8.2004324 v -4.336341 c 0.09191,-0.2056566 0.253385,-0.2978516 0.475043,-0.2922797 h 30.695538 l 3.026928,1.4677831 h 10.717303 c 0,0 0.312139,-0.2483881 0.310076,-0.4233692 -0.002,-0.1882765 -0.344519,-0.4478878 -0.344519,-0.4478878 L 65.394079,0.05126991 62.362262,0.08577239 c 0,0 -0.192995,0.49314751 -0.409142,0.50386509 -0.242191,0.0117983 -0.269882,-0.5187666 -0.512461,-0.51676386 -0.244551,0.0019829 -0.263408,0.53344006 -0.508167,0.52970229 C 60.67527,0.59960156 60.67291,0.0265233 60.415688,0.02979509 60.1511,0.03276944 60.163483,0.63065379 59.898924,0.63271601 59.649654,0.63469891 59.652896,0.07434096 59.403665,0.07287362 59.177079,0.07089071 59.173837,0.5707206 58.947141,0.57673871 58.684328,0.58268741 58.650063,0.01264299 58.387299,0.0211893 58.138326,0.03011235 58.141271,0.57980229 57.89207,0.5810416 57.65429,0.58302451 57.65194,0.05489862 57.414012,0.05132939 57.166516,0.04835504 57.147659,0.58784296 56.900163,0.58760501 56.653252,0.58733732 56.635277,0.03974925 56.388545,0.05162683 56.171992,0.06342509 56.202043,0.53833983 55.986601,0.56324507 55.728199,0.59298858 55.637124,0.06161074 55.377553,0.07599668 55.136828,0.0907693 55.107065,0.59293901 54.865964,0.58760501 54.607275,0.5816563 54.600791,0.00969838 54.342181,0.01509188 c -0.233358,0.0059487 -0.217733,0.5217806 -0.450684,0.53594843 -0.243659,0.0147726 -0.291982,-0.50675021 -0.535948,-0.49941348 -0.229521,0.0059487 -0.245434,0.48980632 -0.475044,0.49941348 -0.244264,0.008923 -0.303721,-0.4914323 -0.548153,-0.48721864 -0.23542,0.0029744 -0.27608,0.48863641 -0.511579,0.48721864 -0.232475,-0.001983 -0.266948,-0.49564597 -0.499423,-0.48721864 -0.238652,0.0089231 -0.236293,0.52876042 -0.475044,0.53595835 -0.241011,0.005949 -0.270477,-0.51606985 -0.511588,-0.51161824 -0.232763,0.0059487 -0.242489,0.5059868 -0.475044,0.51161824 -0.255457,0.005949 -0.292874,-0.54526807 -0.548153,-0.53595835 -0.232763,0.0089231 -0.230106,0.51659532 -0.462879,0.52378334 -0.258401,0.008923 -0.548113,-0.54814328 -0.548113,-0.54814328 h -7.357168 c 0,0 -0.182675,0.50568936 -0.401984,0.52378334 C 40.286515,0.58386724 40.236248,0.02387613 39.981059,0.03946173 39.753898,0.05423434 39.769811,0.54824442 39.54255,0.56324507 39.278844,0.58089289 39.222133,0.01854212 38.957862,0.02728672 38.705359,0.03620977 38.6868,0.58177528 38.434118,0.57541017 38.198104,0.56946146 38.207245,0.04538069 37.97123,0.03946173 c -0.252503,-0.0059487 -0.271063,0.55126635 -0.523773,0.54814328 -0.24132,-0.002974 -0.245731,-0.54168894 -0.487219,-0.53597818 -0.242202,0.0059487 -0.220985,0.55015592 -0.462879,0.56031829 -0.261058,0.0117983 -0.286985,-0.56031829 -0.548123,-0.56031829 -0.261346,0 -0.286975,0.5698957 -0.548153,0.56031829 -0.23895,-0.008923 -0.223632,-0.54261098 -0.462849,-0.54812345 -0.226874,-0.0059487 -0.236005,0.48969727 -0.462879,0.4994234 -0.241309,0.008923 -0.294639,-0.49446615 -0.535948,-0.48724839 -0.232475,0.0059487 -0.254565,0.49661759 -0.487248,0.49941349 -0.243957,0.002974 -0.279609,-0.51586165 -0.523754,-0.5115885 -0.246901,0.0059487 -0.264588,0.53306331 -0.511579,0.53595835 -0.264291,0.002974 -0.296443,-0.57169023 -0.560318,-0.56031829 -0.23306,0.0089231 -0.217445,0.52590504 -0.450713,0.53594844 -0.235123,0.008923 -0.263994,-0.500861 -0.499384,-0.49941349 -0.232475,0.0019829 -0.254575,0.49796597 -0.487248,0.49941349 -0.241012,0.001983 -0.270478,-0.51441413 -0.511579,-0.5115885 -0.246911,0.0029744 -0.264588,0.54051902 -0.511588,0.53595835 -0.238662,-0.005949 -0.2366,-0.52466573 -0.475074,-0.53595835 -0.249568,-0.01179826 -0.298357,0.5207495 -0.548123,0.5115885 C 28.151814,0.56648711 28.143278,0.09647014 27.922115,0.08816178 27.68375,0.07923873 27.617284,0.66984583 27.398332,0.57541017 27.128151,0.45873626 26.845618,-0.0667028 26.862383,0.03946173 h -2.959926 z"
     id="compensator_left"
     sodipodi:nodetypes="cscsccsssssssccscsscccccccccccscccssssassssssssssssssssssssssccssssssssssssssssaasssssssssccc"
     inkscape:label="compensator_left">
    <title
       id="title8">metal</title>
  </path>
  <path
     style="fill:#5e5e5e;fill-rule:evenodd;stroke:#000000;stroke-width:0.0301099"
     d="m 186.29862,0.71153633 c 0.064,-0.0639486 1.39314,0.81055047 1.98547,1.35207087 0.41612,0.3804394 1.10189,1.3248754 1.05973,1.4373158 0,0 0.0294,0.3211903 -0.0486,0.4507134 -0.0707,0.1178538 -0.34107,0.2312856 -0.34107,0.2312856 l -2.95993,0.2557546 c 0,0 -0.2584,-0.055125 -0.37758,-0.1096147 -0.1762,-0.080704 -0.30348,-0.2554473 -0.48725,-0.3166793 -0.91492,-0.3051288 -2.01213,-0.6011759 -2.88683,-0.1947506 -0.82711,0.3841772 -1.39391,1.3212268 -1.62005,2.2046985 -0.18267,0.7143005 -0.0769,1.5542911 0.29228,2.1925771 0.36389,0.6291745 1.02738,1.1404061 1.72967,1.327701 0.85502,0.2280535 1.7976,-0.056017 2.63104,-0.3532736 0.23366,-0.083381 0.63342,-0.3897789 0.63342,-0.3897789 l 3.0939,0.316709 c 0.033,0 0.39126,0.2280534 0.35324,0.4019836 -0.0324,0.148202 -0.12168,0.4385087 -0.12168,0.4385087 0,0 -0.83012,1.2013406 -1.38861,1.6565556 -0.63648,0.518806 -1.41625,0.839431 -2.16817,1.169366 -0.66594,0.29229 -2.08294,0.433512 -2.08294,0.377614 H 151.20604 L 137.00326,10.614515 V 8.7021163 h 39.68494 c 0.21922,-0.07307 0.34918,-0.2274586 0.38978,-0.4628785 V 3.9028967 c -0.0916,-0.2056566 -0.25339,-0.2978515 -0.47504,-0.2922796 H 145.9074 l -3.02692,1.4677831 h -10.7173 c 0,0 -0.31212,-0.2483881 -0.31006,-0.4233692 0.002,-0.1882765 0.34453,-0.4478878 0.34453,-0.4478878 l 12.60956,-4.11706792 3.03182,0.03450248 c 0,0 0.193,0.4931376 0.40911,0.5038651 0.24219,0.0117983 0.2699,-0.51877651 0.5125,-0.51676387 0.24456,0.001983 0.26341,0.53344007 0.50816,0.5297023 0.25722,-0.002974 0.25958,-0.57602287 0.51681,-0.57278083 0.26458,0.0029744 0.25221,0.60085871 0.51676,0.60292092 0.24927,0.001983 0.24603,-0.55837504 0.49527,-0.55984239 0.22657,-0.001983 0.22982,0.49784699 0.45648,0.50385518 0.26282,0.005949 0.29709,-0.5640858 0.55984,-0.5555395 0.24898,0.0089231 0.24603,0.558613 0.49526,0.5598424 0.23778,0.001983 0.24014,-0.52613308 0.47803,-0.5297023 0.2475,-0.0029744 0.26636,0.53651356 0.51388,0.53627561 0.24691,-2.6769e-4 0.26489,-0.54782601 0.51159,-0.53597818 0.21656,0.01179827 0.1865,0.486713 0.40197,0.51160833 0.25811,0.0297435 0.34945,-0.50162442 0.60906,-0.48723847 0.24072,0.0147726 0.27048,0.51694233 0.51158,0.51160832 0.2587,-0.005949 0.26517,-0.57790662 0.52375,-0.57251313 0.23336,0.0059487 0.21775,0.52178061 0.45072,0.53594844 0.24367,0.0147726 0.29198,-0.50675022 0.53594,-0.49941349 0.22953,0.0059487 0.24544,0.48980633 0.47505,0.49941349 0.24426,0.008923 0.30372,-0.49143231 0.54812,-0.48721864 0.23542,0.002974 0.27608,0.48863641 0.51162,0.48721864 0.23247,-0.001983 0.26694,-0.49564597 0.49938,-0.48721864 0.23866,0.008923 0.23631,0.52876041 0.47508,0.53594843 0.24102,0.005949 0.27047,-0.51605993 0.51159,-0.51157858 0.23276,0.005949 0.24248,0.50595706 0.47504,0.51157858 0.25546,0.005949 0.29287,-0.54525815 0.54812,-0.53594843 0.23277,0.008923 0.23012,0.51659532 0.46288,0.52378333 0.2584,0.008923 0.54812,-0.54814327 0.54812,-0.54814327 h 7.35719 c 0,0 0.18269,0.50568936 0.40199,0.52377342 0.25486,0.0206222 0.30513,-0.53936894 0.56031,-0.52377342 0.22717,0.01477261 0.21126,0.50878269 0.43848,0.52377342 0.26371,0.0176478 0.32046,-0.54469303 0.58469,-0.53594844 0.2525,0.0089231 0.27106,0.55448856 0.52378,0.54812345 0.23601,-0.005949 0.22688,-0.52999973 0.46285,-0.53594843 0.2528,-0.0059487 0.27107,0.55126634 0.52379,0.54814327 0.24131,-0.002974 0.24573,-0.5416691 0.48724,-0.53597818 0.2422,0.0059487 0.22068,0.55015593 0.46285,0.56031829 0.26105,0.0117983 0.28698,-0.56031829 0.54815,-0.56031829 0.26134,0 0.28698,0.56989571 0.54812,0.56031829 0.23895,-0.008923 0.22392,-0.54261098 0.46288,-0.54812344 0.22687,-0.0059487 0.236,0.48969726 0.46288,0.49941348 0.24131,0.008923 0.29464,-0.49446614 0.53595,-0.48723847 0.23247,0.005949 0.25457,0.49660768 0.48722,0.49941348 0.24396,0.002974 0.2799,-0.51586165 0.52378,-0.51158849 0.24691,0.005949 0.26459,0.53309305 0.51158,0.53594843 0.264,0.002974 0.29644,-0.57169023 0.56032,-0.56030837 0.23306,0.0089231 0.21744,0.52589512 0.45068,0.53594843 0.23512,0.008923 0.264,-0.500861 0.49941,-0.49941348 0.23248,0.001983 0.25458,0.49796596 0.48725,0.49941348 0.24102,0.001983 0.27048,-0.51438438 0.51159,-0.51158849 0.2469,0.002974 0.26459,0.54051902 0.51158,0.53594843 0.23866,-0.005949 0.2366,-0.52466573 0.47505,-0.53594843 0.24956,-0.01179827 0.29838,0.52074949 0.54814,0.51158849 0.22099,-0.008923 0.22954,-0.47894003 0.45069,-0.48721864 0.23836,-0.008923 0.3048,0.58164439 0.52378,0.48721864 0.27018,-0.11668382 0.55272,-0.64211296 0.53595,-0.53594843 h 2.95993 z"
     id="compensator_right"
     sodipodi:nodetypes="cscsccsssssssccscsscccccccccccscccssssassssssssssssssssssssssccssssssssssssssssaasssssssssccc"
     inkscape:label="compensator_right">
    <title
       id="title7">metal</title>
  </path>
  <path
     style="fill:#5e5e5e;fill-rule:evenodd;stroke:#000000;stroke-width:0.0301099"
     d="m 51.182676,3.7718458 h -2.497811 c -0.278439,0.041542 -0.431321,0.2530876 -0.482331,0.6029209 v 3.7897554 c 0.05572,0.2454336 0.109902,0.4918388 0.482331,0.4995622 H 161.70367 c 0.20301,-0.088636 0.29435,-0.2224518 0.26783,-0.402985 V 4.1927364 c -0.0478,-0.2342401 -0.22628,-0.3879249 -0.57251,-0.4385087 h -2.53358 l -2.9843,1.4373357 h -39.2218 c 0,0 -0.24426,0.527531 -0.48232,0.5268171 -0.24397,-7.039e-4 -0.24721,-0.5345306 -0.49097,-0.5426109 -0.24749,-0.00892 -0.28639,0.5208982 -0.534,0.5167737 -0.23955,-0.00297 -0.25987,-0.5137102 -0.49957,-0.5167737 -0.22922,-0.00297 -0.26163,0.473487 -0.49092,0.4823308 -0.2363,0.00892 -0.30655,-0.4676574 -0.54264,-0.4564837 -0.24131,0.011798 -0.26665,0.5208288 -0.50817,0.5167638 -0.2419,-0.00297 -0.24926,-0.5404595 -0.49096,-0.5340051 -0.23454,0.00595 -0.21362,0.5332715 -0.44788,0.5426407 -0.25958,0.011798 -0.28286,-0.5654739 -0.54261,-0.5598722 -0.2419,0.00595 -0.24042,0.5384271 -0.48236,0.5426309 -0.25368,0.00595 -0.27165,-0.5532691 -0.52537,-0.5512366 -0.25398,0.00198 -0.26282,0.5598423 -0.5168,0.5598423 -0.25398,0 -0.26281,-0.5643534 -0.51676,-0.5598423 -0.24221,0.00595 -0.2316,0.5464082 -0.47373,0.5512366 -0.22746,0.00595 -0.23748,-0.503181 -0.46512,-0.4995622 -0.24013,0.00297 -0.23394,0.530892 -0.47372,0.5426407 -0.26782,0.011798 -0.31777,-0.5608438 -0.58568,-0.5512366 -0.24573,0.00892 -0.2537,0.5455853 -0.49957,0.542611 -0.24809,-0.00297 -0.24308,-0.5487382 -0.49096,-0.5598523 -0.25368,-0.011798 -0.29741,0.5284431 -0.55124,0.5253994 -0.24779,-0.00297 -0.27784,-0.5364145 -0.52541,-0.5253994 -0.22804,0.00892 -0.21096,0.5235751 -0.43924,0.5253994 -0.25045,0.00198 -0.24043,-0.5687655 -0.49097,-0.5684482 -0.24219,2.974e-4 -0.23188,0.5354229 -0.47371,0.5512167 -0.25782,0.017648 -0.31963,-0.5367416 -0.57706,-0.5167737 -0.24426,0.017648 -0.22038,0.5599118 -0.46511,0.5684581 -0.27196,0.00892 -0.28787,-0.6042495 -0.55986,-0.5942953 -0.23659,0.00892 -0.21125,0.5411039 -0.44787,0.5512465 -0.2313,0.00892 -0.25104,-0.4946149 -0.48234,-0.4995622 -0.24159,-0.00595 -0.28373,0.502596 -0.52539,0.4995622 -0.25987,-0.00297 -0.2914,-0.5534277 -0.55124,-0.5512465 -0.24367,0.00198 -0.26459,0.5245467 -0.50817,0.5253994 -0.209195,7.138e-4 -0.230115,-0.4517644 -0.439281,-0.4478779 -0.217445,0.00297 -0.222155,0.4730409 -0.439282,0.4823209 -0.261932,0.011798 -0.315292,-0.5466462 -0.577084,-0.5340052 -0.245721,0.011798 -0.245136,0.542145 -0.490927,0.5512465 -0.25162,0.00892 -0.291395,-0.5413717 -0.542638,-0.5253994 -0.238653,0.014773 -0.209197,0.5475286 -0.447878,0.5598424 -0.265471,0.014773 -0.294055,-0.5751405 -0.559853,-0.568478 -0.246018,0.00595 -0.244838,0.5529816 -0.490926,0.5512466 -0.254278,-0.00198 -0.245136,-0.5788585 -0.499563,-0.5770838 -0.236302,0.00198 -0.220389,0.5296726 -0.456513,0.5426309 -0.257519,0.014773 -0.302363,-0.5489365 -0.559842,-0.5340052 -0.242202,0.014773 -0.222462,0.5562533 -0.46509,0.5598523 C 93.772249,5.7385962 93.51591,5.1499324 93.51591,5.1499324 H 54.265998 Z"
     id="compensator_middle"
     sodipodi:nodetypes="ccccccccccccsssssssssssssssssssssssssssssssssssssssssssssccc"
     inkscape:label="compensator_middle"
     onclick="">
    <title
       id="title6">metal</title>
  </path>
</svg>
