<?xml version="1.0" encoding="UTF-8" standalone="no"?>
<!-- Created with Inkscape (http://www.inkscape.org/) -->

<svg
   width="210mm"
   height="297mm"
   viewBox="0 0 210 297"
   version="1.1"
   id="svg1"
   inkscape:version="1.4 (86a8ad7, 2024-10-11)"
   sodipodi:docname="DSHA-50-050.svg"
   xmlns:inkscape="http://www.inkscape.org/namespaces/inkscape"
   xmlns:sodipodi="http://sodipodi.sourceforge.net/DTD/sodipodi-0.dtd"
   xmlns="http://www.w3.org/2000/svg"
   xmlns:svg="http://www.w3.org/2000/svg">
  <sodipodi:namedview
     id="namedview1"
     pagecolor="#ffffff"
     bordercolor="#000000"
     borderopacity="0.25"
     inkscape:showpageshadow="2"
     inkscape:pageopacity="0.0"
     inkscape:pagecheckerboard="0"
     inkscape:deskcolor="#d1d1d1"
     inkscape:document-units="mm"
     inkscape:zoom="1.4803312"
     inkscape:cx="333.37134"
     inkscape:cy="139.49581"
     inkscape:window-width="2560"
     inkscape:window-height="1377"
     inkscape:window-x="-8"
     inkscape:window-y="-8"
     inkscape:window-maximized="1"
     inkscape:current-layer="svg1" />
  <defs
     id="defs1" />
  <rect
     style="fill:#b8b8b8;fill-opacity:1;fill-rule:evenodd;stroke:#b81e1e;stroke-width:0.045085"
     id="concrete_right"
     width="78.169807"
     height="54.073204"
     x="132.35966"
     y="50.082542" />
  <rect
     style="fill:#b8b8b8;fill-opacity:1;fill-rule:evenodd;stroke:#b81e1e;stroke-width:0.0450992"
     id="concrete_left"
     width="78.208832"
     height="54.080254"
     x="-0.65206683"
     y="50.25473" />
  <rect
     style="fill:#a39a9a;fill-rule:evenodd;stroke:#b81e1e;stroke-width:0.0444171"
     id="finish_right"
     width="65.795586"
     height="44.945141"
     x="144.89389"
     y="5.1793151" />
  <rect
     style="fill:#a39a9a;fill-rule:evenodd;stroke:#b81e1e;stroke-width:0.0441991"
     id="finish_left"
     width="65.795815"
     height="44.502888"
     x="-0.68957865"
     y="5.5243521" />
  <rect
     style="fill:#a39a9a;fill-rule:evenodd;stroke:#b81e1e;stroke-width:0.0329314"
     id="cover_right"
     width="65.769066"
     height="4.9670687"
     x="144.81743"
     y="0.10854357" />
  <rect
     style="fill:#a39a9a;fill-rule:evenodd;stroke:#b81e1e;stroke-width:0.0341611"
     id="cover_left"
     width="65.767876"
     height="5.3449874"
     x="-0.65408671"
     y="0.062800966" />
  <rect
     style="fill:#404242;fill-opacity:0.341246;fill-rule:evenodd;stroke:#b81e1e;stroke-width:0.0198777"
     id="shadow"
     width="137.48599"
     height="0.01261392"
     x="23.445456"
     y="103.91344"
     inkscape:label="shadow" />
  <ellipse
     style="opacity:0;fill:none;fill-opacity:0;fill-rule:evenodd;stroke-width:0.00368993;stroke-opacity:0"
     id="bolt_left"
     cx="-18.457436"
     cy="-47.727943"
     rx="0.094999999"
     ry="0.028942173"
     inkscape:label="bolt_left"
     transform="scale(-1)" />
  <ellipse
     style="opacity:0;fill:none;fill-opacity:0;fill-rule:evenodd;stroke-width:0.000191947;stroke-opacity:0"
     id="bolt_right"
     cx="191.59604"
     cy="47.622505"
     rx="0.0049418169"
     ry="0.0015055466"
     inkscape:label="bolt_right" />
  <path
     id="profile_left"
     style="display:inline;fill:#5e5e5e;fill-rule:evenodd;stroke:#000000;stroke-width:0.0431256"
     d="m 69.981296,0.02157552 c 0,0 -0.20663,0.59519 -0.455782,0.59097 -0.236112,-0.006 -0.172242,-0.56317 -0.407805,-0.58004 -0.25831,-0.018 -0.271198,0.56071 -0.529929,0.56915 -0.244321,0.0103 -0.298628,-0.50345 -0.543012,-0.49501 -0.261609,0.009 -0.281747,0.58604 -0.543011,0.56916 -0.246273,-0.0147 -0.198384,-0.58473 -0.444879,-0.59318 -0.258929,-0.0115 -0.258743,0.60542 -0.516842,0.5801 -0.229571,-0.0215 -0.35765,-0.59317 -0.35765,-0.59317 h -1.10129 V 45.652086 c -0.01279,1.42621 -0.917102,1.85418 -2.084817,1.98669 H 17.564212 7.5217521 l -0.03054,2.52316 H 77.546391 v -36.5236 l -3.593917,-0.31405 -1.796954,-0.42742 -1.69228,-0.89849 -1.360802,-1.36079 -0.854865,-1.6748205 c -0.121256,-0.46901 0.167485,-0.6357 0.479769,-0.7851 l 3.218822,0.009 0.357649,0.17446 c 0.636574,0.7082 1.329124,1.02424 2.058649,1.08164 1.030022,0.0132 1.635516,-0.3274 2.110989,-0.77633 0.979648,-1.01024 1.068687,-2.14775 0.584448,-3.36714 -0.317002,-0.87106 -1.212455,-1.39967 -2.669269,-1.59632 -0.893627,-0.005 -1.685262,0.62386 -2.464271,1.33029 l -3.175208,0.005 c -0.356506,-0.0833 -0.585152,-0.31144 -0.59317,-0.78945 l 0.741463,-1.29099 0.950816,-1.19073 1.219051,-0.94427998 v -0.80034 z M 67.344742,11.989636 c 0.05104,-0.003 0.105932,0.008 0.167915,0.0349 l 1.703185,1.5418 1.814404,1.03589 1.973601,0.60406 2.084822,0.11127 c 0.365338,0.0945 0.518066,0.25574 0.455778,0.48193 v 13.88935 c 0.03874,0.42689 -0.204896,0.44735 -0.455778,0.4558 l -7.562925,0.0262 c -0.282681,-0.0326 -0.497924,-0.14184 -0.519025,-0.46889 l -0.0109,-17.38076 v -0.002 c 0.08772,-0.18897 0.195764,-0.32034 0.348927,-0.32934 z m 0.06106,18.93789 c 0.02899,5.4e-4 0.05988,0.003 0.09159,0.009 h 7.519307 c 0.32605,-5.4e-4 0.605975,0.0645 0.610616,0.52342 v 16.25982 c -0.127509,0.23962 -0.269007,0.44518 -0.488492,0.45361 H 67.42761 c -0.357185,-10e-4 -0.376931,-0.24399 -0.41871,-0.47103 v -16.41736 c 0.05918,-0.2478 0.194017,-0.36158 0.396901,-0.35764 z"
     inkscape:label="profile_left" />
  <path
     id="profile_right"
     style="display:inline;fill:#5e5e5e;fill-rule:evenodd;stroke:#000000;stroke-width:0.0420671"
     d="m 138.9555,0.02103355 v 0.72608 l 1.12824,0.91954995 0.98479,1.17824 0.67606,1.33911 c 0.0767,0.7373 -0.29282,0.72738 -0.61085,0.80651 h -3.06518 l -0.46956,-0.2913 c -0.55145,-0.48985 -1.1011,-0.98126 -1.96735,-0.96738 -0.92754,-0.11263 -1.5975,0.22864 -2.16086,0.75869 -0.66736,0.58096 -0.78191,1.33176 -0.90432,2.0804 0.12208,0.76657 0.28097,1.51914 0.95215,2.09562 0.58061,0.42757 1.14342,0.8782 2.22606,0.67825 0.47776,0.002 1.23165,-0.54435 2.35433,-1.19346 h 3.09779 c 0.64211,0.10266 0.58263,0.43063 0.5804,0.7413 l -0.91955,1.7108405 -1.32171,1.3065 -1.69345,0.93477 -1.82391,0.41956 -3.59123,0.27391 v 36.44075 h 69.82503 v -2.49997 l -55.23614,-0.002 c -1.53078,-0.15089 -1.94233,-0.98067 -2.06516,-1.98473 V 0.03190355 h -1.11306 c 0,0 -0.16536,0.58043 -0.4043,0.59347 -0.23966,0.0129 -0.22763,-0.53646 -0.46741,-0.54782 -0.25661,-0.0121 -0.29771,0.54157 -0.55432,0.53695 -0.25253,-0.005 -0.2715,-0.55791 -0.5239,-0.54782 -0.236,0.009 -0.214,0.53898 -0.45,0.54782 -0.24975,0.009 -0.26927,-0.54353 -0.51957,-0.5413 -0.241,0.002 -0.2511,0.54894 -0.4913,0.53043 -0.23305,-0.0178 -0.39131,-0.5826 -0.39131,-0.5826 z m 3.51517,11.92156045 c 0.23798,0.008 0.42694,0.0749 0.45218,0.33913 v 17.2106 c -0.0261,0.30364 -0.11051,0.53955 -0.37174,0.56521 h -7.67814 c -0.206,-0.0589 -0.43115,-0.0876 -0.45218,-0.43695 l 0.0174,-13.93674 c 0.0652,-0.21567 0.2087,-0.36953 0.46741,-0.43478 l 2.01737,-0.0652 2.06302,-0.66085 1.77603,-0.98477 z m -7.64772,18.83449 h 7.68685 c 0.23052,0.0661 0.44873,0.146 0.41087,0.48043 v 16.27584 c 0.0303,0.19023 -0.0914,0.36405 -0.36523,0.5239 h -7.6542 c -0.18194,-0.0623 -0.35177,-0.14504 -0.44347,-0.38693 v -16.39107 c -0.0345,-0.20997 0.0657,-0.38337 0.36518,-0.50217 z"
     inkscape:label="profile_right" />
  <path
     style="fill:#5e5e5e;fill-rule:evenodd;stroke:#000000;stroke-width:0.0298261"
     d="M 71.855364,4.5779372 69.357705,4.4451955 C 69.047246,4.383494 68.804157,4.1750167 68.826801,3.9263587 68.870289,3.4489859 69.229144,3.0738405 69.526627,2.7438916 70.729969,1.3803512 72.165626,0.47010757 74.027245,0.39101502 l 1.254865,-0.0120358 39.68508,3.87318258 -0.30164,3.064766 -33.718954,-3.2776371 c -0.16605,0.026276 -0.307753,0.1011586 -0.409536,0.255965 -0.05394,0.1215035 -0.08338,0.2464799 -0.02567,0.3839446 0.421905,0.7360379 0.434216,1.569976 0.383941,2.3633449 0.04191,0.9644786 -0.374037,1.5641567 -0.588709,2.3036299 -0.05757,0.1984397 0.138919,0.5018547 0.383942,0.4948566 l 16.76878,-0.4789027 18.159366,1.815933 0.0363,0.796358 -1.59273,0.03622 c 0,0 -0.17542,-0.494133 -0.3861,-0.500744 -0.23788,-0.0075 -0.23321,0.521561 -0.47059,0.536937 -0.24604,0.01605 -0.3087,-0.497915 -0.55504,-0.488671 -0.2472,0.0093 -0.27143,0.534663 -0.51881,0.530903 -0.23757,-0.0038 -0.24517,-0.530804 -0.48265,-0.524873 -0.23263,0.0061 -0.21424,0.520155 -0.44644,0.536942 -0.24284,0.01752 -0.30039,-0.509714 -0.54299,-0.48868 -0.22414,0.01956 -0.19321,0.502536 -0.41625,0.530907 -0.25626,0.03257 -0.35829,-0.494719 -0.61536,-0.470573 -0.20695,0.01956 -0.20869,0.451065 -0.4163,0.464541 -0.24633,0.01605 -0.31512,-0.502123 -0.56108,-0.482638 -0.23904,0.01897 -0.22532,0.53341 -0.46453,0.549001 -0.24136,0.01576 -0.29499,-0.493597 -0.53694,-0.48867 -0.22591,0.0046 -0.25655,0.476635 -0.48263,0.476603 -0.23757,-3.9e-5 -0.26939,-0.510247 -0.50677,-0.500736 -0.24924,0.0099 -0.23932,0.558551 -0.48869,0.567099 -0.25451,0.0087 -0.28253,-0.551427 -0.53692,-0.542966 -0.23641,0.0078 -0.22823,0.52628 -0.46461,0.536905 -0.24021,0.01073 -0.27873,-0.513382 -0.51886,-0.500741 -0.2437,0.01291 -0.22676,0.54902 -0.47057,0.561069 -0.25275,0.01262 -0.2901,-0.541709 -0.54294,-0.530904 -0.24926,0.01073 -0.23934,0.560015 -0.48868,0.567103 -0.24604,0.007 -0.26676,-0.531566 -0.5128,-0.530903 -0.25042,6.71e-4 -0.2688,0.551609 -0.51884,0.542966 -0.23263,-0.0081 -0.21366,-0.537435 -0.44644,-0.536934 -0.23699,5.08e-4 -0.21569,0.535652 -0.45248,0.549003 -0.25713,0.01459 -0.29785,-0.547628 -0.55504,-0.536934 -0.25626,0.01073 -0.25041,0.566882 -0.50676,0.57917 -0.243123,0.01175 -0.288076,-0.515036 -0.530909,-0.500743 -0.225316,0.01349 -0.208973,0.510124 -0.434376,0.518836 -0.255681,0.0099 -0.281362,-0.561078 -0.536942,-0.549 -0.242832,0.01131 -0.215687,0.552861 -0.45852,0.567101 -0.241368,0.01407 -0.276982,-0.511609 -0.518815,-0.506773 -0.251881,0.0055 -0.267064,0.546194 -0.518858,0.549006 -0.240194,0.0023 -0.26647,-0.518644 -0.506765,-0.512806 -0.234944,0.0055 -0.235815,0.519159 -0.470595,0.524865 -0.240194,0.0061 -0.263555,-0.518308 -0.506765,-0.512803 -0.243123,0.0055 -0.248372,0.541893 -0.4947,0.549006 -0.245747,0.007 -0.279317,-0.532672 -0.524862,-0.518841 -0.239918,0.01349 -0.212482,0.548255 -0.452473,0.561074 -0.275533,0.01489 -0.310233,-0.607192 -0.5852,-0.585205 -0.249837,0.02014 -0.190296,0.594311 -0.440423,0.609337 -0.251287,0.01518 -0.260916,-0.560704 -0.512797,-0.555036 -0.252462,0.0055 -0.236409,0.567028 -0.488668,0.57917 -0.244298,0.01175 -0.280492,-0.520048 -0.524862,-0.512812 -0.239034,0.007 -0.243413,0.525213 -0.482664,0.530905 -0.255957,0.0061 -0.287192,-0.552427 -0.542945,-0.542968 -0.23087,0.0084 -0.222111,0.50705 -0.452488,0.524875 -0.2291,0.01781 -0.295804,-0.463227 -0.524876,-0.446448 -0.215992,0.01576 -0.212482,0.469735 -0.428344,0.488672 -0.246632,0.02159 -0.332144,-0.479597 -0.579182,-0.464541 -0.229985,0.01407 -0.252172,0.493289 -0.482621,0.49471 -0.236119,0.0016 -0.264729,-0.509157 -0.500747,-0.50074 -0.239338,0.0084 -0.231159,0.533715 -0.470585,0.542967 -0.237279,0.009 -0.269384,-0.504271 -0.506764,-0.500734 -0.239034,0.0038 -0.255957,0.512053 -0.4947,0.518832 -0.258886,0.0075 -0.308914,-0.550788 -0.567104,-0.530903 -0.247197,0.01897 -0.211017,0.573155 -0.458505,0.585199 -0.241673,0.01175 -0.258886,-0.524893 -0.500733,-0.524864 -0.239033,3.1e-5 -0.255956,0.509151 -0.4947,0.518835 -0.223575,0.009 -0.277272,-0.452106 -0.500761,-0.446439 -0.217442,0.0055 -0.249242,0.426747 -0.464523,0.458507 -0.198185,0.02928 -0.317702,-0.378945 -0.536956,-0.50074 -0.213933,-0.11885 -0.226897,0.526648 -0.464538,0.542968 -0.238744,0.01634 -0.29769,-0.482309 -0.536927,-0.476603 -0.241702,0.0055 -0.277099,0.505322 -0.518844,0.506772 -0.238947,0.0016 -0.279984,-0.50203 -0.518844,-0.49471 -0.227563,0.007 -0.236873,0.498595 -0.464538,0.50074 -0.22897,0.0023 -0.247647,-0.497775 -0.476603,-0.494711 -0.250504,0.0032 -0.256406,0.546435 -0.506779,0.555039 -0.244486,0.0084 -0.286727,-0.522049 -0.530894,-0.506772 -0.209713,0.0132 -0.188614,0.473713 -0.398197,0.48868 -0.242731,0.01752 -0.293658,-0.50177 -0.536926,-0.49471 -0.248779,0.007 -0.270124,0.528263 -0.518844,0.536934 -0.243355,0.0084 -0.299808,-0.501546 -0.54296,-0.488672 -0.240324,0.01291 -0.244297,0.503682 -0.482649,0.536934 -0.751309,0.104813 -2.428008,-0.04363 -2.42584,-0.0046 C 72.70679,12.948462 71.718118,12.51301 70.827665,11.879801 70.073459,11.261959 69.419724,10.622586 69.11274,9.9089147 69.03248,9.7842355 68.980579,9.6557803 69.13842,9.4993788 69.333765,9.1848691 69.436227,9.288332 69.573551,9.2348916 70.38926,9.0894558 71.217045,8.9863105 72.064889,8.9533295 c 0.752508,0.5221634 1.499379,1.0559245 2.533983,0.9982412 0.766578,-0.019562 1.571406,-0.2124781 2.576655,-1.313924 0.50531,-0.6908468 0.671447,-1.4301097 0.61427,-2.2012776 C 77.732663,5.5106573 77.311875,4.7623734 76.595325,4.1583363 75.848917,3.6026061 75.003948,3.3193924 73.984541,3.5184324 73.390307,3.534775 72.640924,4.0036836 71.855417,4.5779329 Z"
     id="compensator_left"
     sodipodi:nodetypes="ccscccccccccssccccsssssssssssssssssssssssssssssssssssasasssssssssssssssssssssssssssssssssssssscccccccccccc"
     inkscape:label="compensator_left">
    <title
       id="title10">metal</title>
  </path>
  <path
     style="fill:#5e5e5e;fill-rule:evenodd;stroke:#000000;stroke-width:0.0298261"
     d="m 138.27026,8.600803 2.49766,0.1327417 c 0.31045,0.061701 0.55354,0.2701788 0.53089,0.5188324 -0.0435,0.4773728 -0.40236,0.8525209 -0.69983,1.1824689 -1.20336,1.36354 -2.63901,2.273785 -4.5006,2.352875 l -1.25487,0.01204 -39.685111,-3.8731858 0.301664,-3.0647646 33.718967,3.2776357 c 0.16607,-0.026261 0.30774,-0.1011587 0.40951,-0.255965 0.0539,-0.1215035 0.0835,-0.2464785 0.0262,-0.3839417 -0.42192,-0.7360379 -0.43423,-1.569979 -0.38396,-2.3633449 -0.0418,-0.9644772 0.37404,-1.5641568 0.58872,-2.3036328 0.0574,-0.1984093 -0.13891,-0.5018519 -0.38394,-0.4948552 L 112.66681,3.8166054 94.507481,2.0006714 94.471228,1.2043169 96.06394,1.1680935 c 0,0 0.175404,0.4941315 0.386098,0.5007396 0.237874,0.00754 0.233205,-0.5215586 0.470571,-0.536934 0.246037,-0.016053 0.308739,0.4979149 0.555038,0.4886719 0.247212,-0.00928 0.271429,-0.534666 0.518844,-0.5309045 0.237584,0.00377 0.245168,0.5308045 0.482664,0.524875 0.23261,-0.00609 0.214223,-0.5201578 0.446427,-0.536947 0.242833,-0.017517 0.300387,0.5097157 0.542959,0.4886806 0.224156,-0.019547 0.193211,-0.5025319 0.416293,-0.5309045 0.256246,-0.032569 0.358256,0.4947189 0.615366,0.4705704 0.20692,-0.019547 0.20868,-0.4510651 0.41627,-0.4645394 0.24606,-0.016053 0.31514,0.502123 0.56106,0.482641 0.23903,-0.018967 0.22532,-0.53341466 0.46457,-0.54900608 0.24137,-0.0157625 0.29495,0.49359788 0.53691,0.48867188 0.2259,-0.00464 0.25655,-0.47663174 0.48265,-0.47659984 0.23758,3.77e-5 0.2694,0.51024644 0.50676,0.50073094 0.24926,-0.00986 0.23933,-0.55854914 0.48867,-0.56709745 0.25451,-0.008701 0.28252,0.55143065 0.53694,0.54296635 0.23672,-0.00783 0.22825,-0.52627865 0.46463,-0.53690495 0.24021,-0.0107307 0.27872,0.51338305 0.51881,0.50074255 0.24371,-0.012906 0.22678,-0.54902347 0.47057,-0.56106796 0.25276,-0.0126158 0.29012,0.54170916 0.54299,0.53090446 0.24926,-0.010731 0.23933,-0.56001802 0.48867,-0.56710754 0.24604,-0.00696 0.26676,0.53157014 0.51281,0.53090454 0.25042,-6.714e-4 0.26881,-0.5516061 0.51885,-0.54296353 0.23261,0.008121 0.21364,0.53743573 0.44644,0.53693403 0.23699,-5.119e-4 0.21568,-0.5356536 0.45247,-0.54900607 0.25713,-0.014588 0.29785,0.54763137 0.55504,0.53693687 0.25626,-0.010731 0.25042,-0.56688279 0.50676,-0.57916945 0.24313,-0.0117458 0.28806,0.51503465 0.5309,0.50073965 0.22502,-0.013196 0.20897,-0.51012321 0.43439,-0.51883248 0.25566,-0.009861 0.28135,0.56107378 0.53694,0.54899738 0.24283,-0.011456 0.21569,-0.55285899 0.45849,-0.56709892 0.24137,-0.0140659 0.27727,0.51160662 0.51884,0.50677342 0.25189,-0.00551 0.26705,-0.54619571 0.51885,-0.54900599 0.24021,-0.00232 0.26647,0.51863959 0.50676,0.51280299 0.23495,-0.00551 0.23554,-0.51916021 0.47057,-0.52486634 0.24021,-0.00609 0.26356,0.51831044 0.50677,0.51280294 0.24341,-0.00551 0.24837,-0.5418933 0.49471,-0.54900601 0.24604,-0.00696 0.27932,0.53267361 0.52489,0.51884551 0.23991,-0.013486 0.21247,-0.54825634 0.45248,-0.56107809 0.27551,-0.0148925 0.31019,0.60719549 0.58518,0.58520909 0.24984,-0.020142 0.1903,-0.59431133 0.44042,-0.60934012 0.25131,-0.0151825 0.26093,0.56070682 0.51279,0.55503552 0.25246,-0.00551 0.23641,-0.56702781 0.48869,-0.57916655 0.24429,-0.0117458 0.28048,0.52004615 0.52487,0.51281165 0.23903,-0.00696 0.24341,-0.52521287 0.48262,-0.53090449 0.25597,-0.00609 0.28719,0.55242679 0.54298,0.54296639 0.23086,-0.00841 0.22212,-0.50704898 0.45248,-0.52487355 0.22911,-0.0178072 0.2958,0.46322715 0.52486,0.44644661 0.21598,-0.0157625 0.21248,-0.46973804 0.42834,-0.48867049 0.24662,-0.0215919 0.33213,0.47959724 0.57917,0.46453655 0.22999,-0.0140659 0.25217,-0.49328903 0.48267,-0.49471013 0.23611,-0.001595 0.26471,0.50916033 0.50071,0.50074253 0.23933,-0.008411 0.23116,-0.53371479 0.47057,-0.5429664 0.2373,-0.008991 0.2694,0.50426916 0.5068,0.50073382 0.23903,-0.00377 0.25568,-0.51205471 0.49471,-0.51883536 0.25889,-0.00754 0.3089,0.55078966 0.56709,0.53090451 0.24721,-0.0189672 0.21102,-0.57315158 0.45849,-0.58520042 0.24166,-0.0116008 0.25889,0.52489821 0.50075,0.52486631 0.23903,-2.901e-5 0.25597,-0.50915163 0.49471,-0.51883247 0.22356,-0.008991 0.27728,0.45210634 0.50072,0.44643501 0.21744,-0.00551 0.24926,-0.42674561 0.46457,-0.45850705 0.19817,-0.0292774 0.31768,0.37894468 0.53694,0.50074253 0.21393,0.1188498 0.22678,-0.52665138 0.46452,-0.5429664 0.23876,-0.0163426 0.29768,0.48230891 0.53696,0.47659989 0.24166,-0.00551 0.27697,-0.50531903 0.51881,-0.50677347 0.23904,-0.001595 0.2799,0.50203311 0.51885,0.49471013 0.22765,-0.00696 0.23699,-0.49859059 0.46456,-0.50073963 0.22881,-0.00232 0.24749,0.49777418 0.47658,0.49471013 0.25043,-0.00319 0.25655,-0.54643357 0.50676,-0.55503554 0.24459,-0.008411 0.2869,0.52204588 0.53094,0.50677347 0.20955,-0.0131959 0.18854,-0.4737142 0.39815,-0.48868063 0.24284,-0.0175171 0.29368,0.50176774 0.53696,0.49471013 0.24866,-0.00696 0.27025,-0.52826243 0.51884,-0.536934 0.24342,-0.008411 0.2998,0.50154297 0.54295,0.48867193 0.24021,-0.0129058 0.2443,-0.50368622 0.48266,-0.53693835 0.75128,-0.10481288 2.428,0.0436334 2.42584,0.00464 1.03028,0.0831485 2.01894,0.5186019 2.90938,1.15181064 0.75421,0.617842 1.40796,1.2572108 1.71494,1.9708867 0.0803,0.1246792 0.13225,0.2531344 -0.0262,0.4095316 -0.19526,0.314514 -0.29783,0.2110483 -0.43513,0.2644886 -0.81571,0.1454359 -1.6435,0.2485797 -2.49134,0.2815607 -0.75251,-0.5221619 -1.49938,-1.0559246 -2.53398,-0.9982369 -0.7666,0.019547 -1.57141,0.2124767 -2.57665,1.313924 -0.50536,0.690808 -0.6715,1.4300738 -0.61432,2.2012402 0.0571,0.9257118 0.47794,1.6739971 1.19449,2.2780299 0.74642,0.5557302 1.59136,0.8389439 2.61078,0.6399039 0.59423,-0.016343 1.3436,-0.4852497 2.12913,-1.059499 z"
     id="compensator_right"
     sodipodi:nodetypes="ccscccccccccssccccsssssssssssssssssssssssssssssssssssasasssssssssssssssssssssssssssssssssssssscccccccccccc"
     inkscape:label="compensator_right">
    <title
       id="title9">metal</title>
  </path>
</svg>
