<?xml version="1.0" encoding="UTF-8" standalone="no"?>
<!-- Created with Inkscape (http://www.inkscape.org/) -->

<svg
   width="210mm"
   height="297mm"
   viewBox="0 0 210 297"
   version="1.1"
   id="svg1"
   inkscape:version="1.4 (86a8ad7, 2024-10-11)"
   sodipodi:docname="DSHA-0-175.svg"
   xmlns:inkscape="http://www.inkscape.org/namespaces/inkscape"
   xmlns:sodipodi="http://sodipodi.sourceforge.net/DTD/sodipodi-0.dtd"
   xmlns="http://www.w3.org/2000/svg"
   xmlns:svg="http://www.w3.org/2000/svg">
  <sodipodi:namedview
     id="namedview1"
     pagecolor="#ffffff"
     bordercolor="#000000"
     borderopacity="0.25"
     inkscape:showpageshadow="2"
     inkscape:pageopacity="0.0"
     inkscape:pagecheckerboard="0"
     inkscape:deskcolor="#d1d1d1"
     inkscape:document-units="mm"
     inkscape:zoom="2.9606624"
     inkscape:cx="379.13812"
     inkscape:cy="-23.474476"
     inkscape:window-width="2560"
     inkscape:window-height="1377"
     inkscape:window-x="-8"
     inkscape:window-y="-8"
     inkscape:window-maximized="1"
     inkscape:current-layer="svg1" />
  <defs
     id="defs1" />
  <path
     style="fill:#5e5e5e;fill-rule:evenodd;stroke:#000000;stroke-width:0.0422391"
     d="m -67.459109,3.9833871 v -1.267873 l 18.749385,-2.63095998 c 0,0 0.202693,0.46797 0.412042,0.475456 0.238952,0.0091 0.268268,-0.508976 0.507234,-0.507162 0.250324,6.46e-4 0.272947,0.546611 0.52306,0.53885 0.243236,-0.0083 0.232119,-0.543599 0.475471,-0.554708 0.257544,-0.01267 0.297497,0.556483 0.554624,0.538866 0.214093,-0.0146 0.183149,-0.482916 0.396288,-0.507177 0.250171,-0.027 0.335965,0.501505 0.586413,0.475475 0.216487,-0.0223 0.194169,-0.505499 0.412028,-0.507164 0.255007,-6.55e-4 0.236461,0.581979 0.491353,0.586402 0.245133,0.0011 0.246489,-0.536235 0.491309,-0.546753 0.227958,-0.0091 0.271393,0.475746 0.499211,0.467515 0.237343,-0.0091 0.24611,-0.521949 0.483526,-0.523034 0.246638,-6.52e-4 0.260343,0.539037 0.50708,0.53889 0.239209,-9.2e-5 0.253717,-0.497859 0.491366,-0.52302 0.405824,-0.04287 0.598211,0.698328 1.006396,0.697384 0.386996,-6.56e-4 0.566758,-0.71129 0.950904,-0.665695 0.241444,0.02694 0.239846,0.539323 0.483322,0.546813 0.254108,0.0083 0.284873,-0.541953 0.538866,-0.538853 0.229974,6.52e-4 0.245973,0.497343 0.475398,0.499217 0.233671,6.27e-4 0.258295,-0.508166 0.491382,-0.499217 0.220982,0.0091 0.207251,0.497792 0.427962,0.507146 0.250185,0.01273 0.280758,-0.531887 0.530982,-0.530937 0.244889,6.46e-4 0.270754,0.53009 0.515132,0.523008 0.228387,-0.0056 0.223849,-0.503338 0.451706,-0.515055 0.248377,-0.01322 0.298285,0.515825 0.546717,0.507151 0.231524,-0.0083 0.243796,-0.507151 0.475488,-0.507151 0.231774,0 0.243698,0.507151 0.475359,0.507151 0.231824,0 0.244217,-0.497602 0.475746,-0.507151 0.259501,-0.01273 0.319175,0.538848 0.578297,0.522984 0.233645,-0.01453 0.226056,-0.518139 0.459677,-0.530937 0.248157,-0.01359 0.298389,0.519123 0.546799,0.507162 0.222413,-0.0093 0.220966,-0.503444 0.443855,-0.499209 0.232574,0.0011 0.211076,0.5322 0.443546,0.538816 0.237409,0.0055 0.246079,-0.524841 0.483546,-0.522978 0.237459,6.52e-4 0.237569,0.524375 0.475452,0.530914 0.25759,0.0055 0.289056,-0.555607 0.546684,-0.546752 0.245233,0.0091 0.238294,0.554417 0.483579,0.554691 0.252589,2.25e-4 0.246675,-0.565064 0.499173,-0.570579 0.244786,-0.0055 0.262536,0.530262 0.507246,0.530943 0.216514,6.04e-4 0.234903,-0.463906 0.451745,-0.467546 0.227983,-0.0011 0.263143,0.476452 0.491072,0.475475 0.241044,-6.34e-4 0.274335,-0.51017 0.515188,-0.507146 0.216403,6.52e-4 0.235209,0.457207 0.451589,0.467515 0.239677,0.01288 0.307382,-0.483706 0.547053,-0.467515 0.229325,0.01506 0.229277,0.510442 0.459449,0.515059 0.224218,0.0011 0.243792,-0.473672 0.467621,-0.483388 0.213234,-0.0091 0.270334,0.425713 0.483219,0.420004 0.224238,-0.0055 0.259351,-0.472989 0.483618,-0.467513 0.235179,0.0055 0.247961,0.515055 0.483207,0.515055 0.235583,0 0.248297,-0.507787 0.483549,-0.515055 0.246716,-0.0083 0.292706,0.52062 0.538847,0.507151 0.23573,-0.0132 0.223816,-0.529515 0.459532,-0.538879 0.250142,-0.0091 0.280827,0.536912 0.531065,0.530937 0.235273,-0.0055 0.23974,-0.519935 0.475451,-0.52302 0.263088,-6.55e-4 0.283214,0.57503 0.546627,0.570563 0.237493,-0.0011 0.237907,-0.530914 0.475488,-0.530914 0.237479,0 0.237874,0.528074 0.475799,0.530914 0.23884,6.53e-4 0.252584,-0.504363 0.491,-0.522999 0.403568,-0.03065 0.554348,0.743215 0.958968,0.744862 0.422059,6.55e-4 0.585577,-0.80309 1.006491,-0.768615 0.245698,0.02097 0.260378,0.542543 0.506993,0.538816 0.247156,-6.57e-4 0.24431,-0.554839 0.491386,-0.554704 0.243441,7.7e-5 0.239799,0.5478 0.483596,0.546785 0.241213,-6.41e-4 0.233411,-0.548493 0.475395,-0.546785 0.245301,6.31e-4 0.230207,0.554235 0.475414,0.56264 0.242555,0.0091 0.264436,-0.513164 0.507031,-0.522999 0.256211,-0.0091 0.324143,0.537374 0.578584,0.507144 0.218275,-0.02426 0.160343,-0.526052 0.380417,-0.53885 0.240702,-0.01448 0.241614,0.533174 0.483234,0.53885 0.259772,0.0055 0.287288,-0.544225 0.547026,-0.554708 0.391051,-0.01503 0.497891,0.750499 0.889172,0.76722 0.416936,0.01782 0.598766,-0.774389 1.014284,-0.734083 0.226202,0.02195 0.237472,0.499739 0.4649721,0.498742 0.242945,-6.59e-4 0.249863,-0.532652 0.493212,-0.53793 0.256191,-0.0055 0.287263,0.55236 0.543447,0.543537 0.230631,-0.0083 0.223819,-0.514418 0.453948,-0.521121 0.245683,-0.0083 0.26996,0.533304 0.515516,0.526739 0.226177,-0.0055 0.222073,-0.503955 0.448104,-0.509967 0.230213,-0.0055 0.252562,0.485135 0.481886,0.493129 0.24978,0.0091 0.310544,-0.510442 0.560371,-0.498718 0.222278,0.01282 0.232,0.48354 0.453857,0.487516 0.2324981,0.0011 0.2607231,-0.495029 0.4932031,-0.493117 0.239244,6.33e-4 0.25993,0.521852 0.49873,0.515531 0.227414,-0.0055 0.220527,-0.508866 0.448041,-0.515531 0.234761,-0.0055 0.258326,0.500527 0.493527,0.504319 0.248112,0.0011 0.289235,-0.516782 0.537665,-0.515503 0.240615,6.28e-4 0.275264,0.507101 0.515607,0.504301 0.214614,-6.53e-4 0.234259,-0.450442 0.448402,-0.459483 0.256239,-0.01262 0.327498,0.53346 0.582778,0.50429 0.220072,-0.02378 0.170736,-0.521853 0.392212,-0.537924 0.245321,-0.01782 0.269957,0.528241 0.515311,0.526734 0.23287101,-6.48e-4 0.24931001,-0.500354 0.48212301,-0.504319 0.234721,-0.0011 0.269007,0.498386 0.504189,0.493116 0.234766,-0.0054 0.247169,-0.51156 0.481912,-0.515531 0.237902,-0.0011 0.266668,0.502984 0.504174,0.504319 0.23063899,6.51e-4 0.26341599,-0.481818 0.49320099,-0.481904 0.218712,-4.7e-5 0.251699,0.456874 0.470753,0.459481 0.219229,6.57e-4 0.262605,-0.446877 0.481895,-0.448262 0.216947,-6.3e-4 0.264922,0.439937 0.481784,0.437068 0.237981,-6.55e-4 0.277675,-0.498287 0.515596,-0.493089 0.248313,0.0054 0.267634,0.545042 0.515582,0.537918 0.234811,-0.0055 0.224244,-0.53113 0.459419,-0.537918 0.253932,-0.0083 0.273107,0.553282 0.526615,0.549121 0.246508,-0.0011 0.247444,-0.546575 0.493217,-0.549121 0.240637,-6.63e-4 0.252995,0.526886 0.493183,0.526706 0.231021,-1.48e-4 0.240766,-0.500348 0.470791,-0.504319 0.237547,-0.0011 0.266375,0.502859 0.504156,0.504319 0.219254,6.51e-4 0.252604,-0.451802 0.47054,-0.45949 0.225229,-0.0083 0.290418,0.442531 0.515593,0.437067 0.234638,-0.0055 0.280316,-0.497174 0.51557,-0.481896 0.246545,0.01544 0.224276,0.571809 0.47084,0.571569 0.241502,-2.38e-4 0.218216,-0.553812 0.459429,-0.560379 0.237906,-0.0055 0.243421,0.524039 0.481803,0.526734 0.247996,6.38e-4 0.268505,-0.515325 0.5155908,-0.537924 0.394511,-0.03614 0.567672,0.691513 0.963637,0.694836 0.418796,6.55e-4 0.616529,-0.776873 1.031128,-0.717223 0.242032,0.03494 0.214688,0.567489 0.459483,0.57155 0.246599,0.0011 0.234716,-0.548482 0.481839,-0.560347 0.247525,-0.01289 0.289475,0.525816 0.538032,0.515503 0.213238,-0.0091 0.211308,-0.471712 0.425644,-0.481904 0.234236,-0.01267 0.279825,0.484636 0.515613,0.481904 0.246047,-6.59e-4 0.280282,-0.523738 0.52687,-0.515503 0.234346,0.0083 0.234346,0.518701 0.470846,0.526715 0.224255,0.0083 0.256676,-0.468142 0.481788,-0.470702 0.231134,-6.27e-4 0.275399,0.478472 0.504194,0.470702 0.240737,-0.0083 0.253639,-0.532399 0.493206,-0.526715 0.231133,0.0055 0.217933,0.513814 0.448157,0.526715 0.252066,0.01447 0.298545,-0.523807 0.549251,-0.515531 0.231151,0.0083 0.240815,0.513105 0.47048,0.504319 0.214182,-0.0091 0.403614,-0.504319 0.403614,-0.504319 h 3.048031 v 0.773264 c 0,0 -1.431857,0.99685498 -1.949669,1.68106298 -0.410957,0.542315 -0.863113,1.84917 -0.863113,1.84917 0.04549,0.219401 0.186314,0.39691 0.437052,0.526739 h 3.373521 c 0.149754,-0.161797 0.297852,-0.311814 0.448424,-0.414704 1.267348,-1.228141 2.442421,-1.016951 3.496077,-0.504277 0.880519,0.428336 1.430723,1.690713 1.43483,2.566364 7.01e-4,0.853729 -0.391261,1.602579 -1.031113,2.084496 -0.871912,0.65487 -1.898888,0.803983 -2.891381,0.470702 -0.565826,-0.189877 -1.501984,-1.053434 -1.501984,-1.053434 h -3.249834 c 0,0 -0.390933,0.04715 -0.493206,0.190527 -0.109306,0.15203 -0.0056,0.560339 -0.0056,0.560339 0,0 1.192795,2.1227459 2.118055,2.8689559 0.886387,0.714824 3.115565,1.400896 3.115565,1.400896 l 0.952565,0.04481 2.947326,0.302632 v 2.364678 H 16.058251 V 3.9478401 Z"
     id="profile_left"
     sodipodi:nodetypes="cccssssssssssssssssssssssssssssssssssssssssssssssssssssssssssssssssssssssssssssssssssssssssssssssssssssssssssssssssssssssssssssssssscccsccccssssccscsccccccc"
     inkscape:label="profile_left" />
  <path
     style="fill:#5e5e5e;fill-rule:evenodd;stroke:#000000;stroke-width:0.0422391"
     d="M 276.94371,3.9833861 V 2.7155141 L 258.19439,0.08455412 c 0,0 -0.20314,0.467969 -0.41222,0.475455 -0.23893,0.0091 -0.26856,-0.508975 -0.50721,-0.507162 -0.25058,6.46e-4 -0.27305,0.546612 -0.52315,0.53885 -0.24299,-0.0083 -0.23253,-0.543599 -0.47542,-0.554707 -0.25634,-0.01267 -0.29697,0.556482 -0.55451,0.538865 -0.2133,-0.0146 -0.18625,-0.482915 -0.39758,-0.507176 -0.24954,-0.02701 -0.33622,0.501504 -0.58623,0.475475 -0.21664,-0.0223 -0.19486,-0.505499 -0.41232,-0.507164 -0.25488,-6.56e-4 -0.23512,0.581978 -0.49141,0.586401 -0.246,0.0011 -0.24649,-0.536235 -0.49143,-0.546752 -0.22821,-0.0091 -0.27119,0.475746 -0.49899,0.467515 -0.23568,-0.0091 -0.24678,-0.52195 -0.48382,-0.523034 -0.2465,-6.53e-4 -0.25803,0.539036 -0.50684,0.538889 -0.23965,-9.2e-5 -0.25381,-0.497858 -0.49137,-0.523019 -0.40638,-0.04287 -0.59832,0.698327 -1.00656,0.697384 -0.38734,-6.57e-4 -0.56664,-0.711291 -0.95092,-0.665695 -0.24048,0.02694 -0.23984,0.539322 -0.48342,0.546813 -0.25392,0.0083 -0.28422,-0.541954 -0.53901,-0.538853 -0.231,6.52e-4 -0.24611,0.497343 -0.47519,0.499216 -0.23342,6.27e-4 -0.25677,-0.508166 -0.49143,-0.499216 -0.22023,0.0091 -0.20916,0.497792 -0.42793,0.507145 -0.2504,0.01273 -0.27878,-0.531887 -0.53076,-0.530937 -0.24439,6.46e-4 -0.26988,0.53009 -0.51555,0.523008 -0.22898,-0.0056 -0.22365,-0.503338 -0.45135,-0.515055 -0.24795,-0.01321 -0.29767,0.515825 -0.54667,0.507151 -0.23194,-0.0083 -0.24286,-0.507151 -0.47544,-0.507151 -0.23234,0 -0.24276,0.507151 -0.47565,0.507151 -0.23248,0 -0.24395,-0.497601 -0.47555,-0.507151 -0.25752,-0.01273 -0.31826,0.538848 -0.57823,0.522984 -0.23336,-0.01453 -0.22698,-0.518138 -0.45982,-0.530937 -0.24798,-0.01359 -0.29769,0.519123 -0.54661,0.507162 -0.22328,-0.0093 -0.22029,-0.503444 -0.44403,-0.499209 -0.23286,0.0011 -0.21094,0.532201 -0.44376,0.538817 -0.23527,0.0055 -0.24626,-0.524841 -0.48324,-0.522978 -0.23569,6.52e-4 -0.23664,0.524374 -0.47507,0.530913 -0.2564,0.0055 -0.28892,-0.555607 -0.54736,-0.546752 -0.24591,0.0091 -0.23614,0.554417 -0.48321,0.554692 -0.25339,2.24e-4 -0.2472,-0.565064 -0.49963,-0.570579 -0.24289,-0.0055 -0.26175,0.530261 -0.50691,0.530942 -0.21647,6.05e-4 -0.2342,-0.463906 -0.45166,-0.467546 -0.22829,-0.0011 -0.26251,0.476452 -0.49142,0.475475 -0.24055,-6.33e-4 -0.27435,-0.51017 -0.51483,-0.507145 -0.21582,6.52e-4 -0.23394,0.457207 -0.45162,0.467515 -0.23954,0.01288 -0.30684,-0.483706 -0.54707,-0.467515 -0.23066,0.01506 -0.23066,0.510442 -0.45942,0.515058 -0.22457,0.0011 -0.24317,-0.473671 -0.46747,-0.483388 -0.21212,-0.0091 -0.26944,0.425713 -0.48372,0.420004 -0.22471,-0.0055 -0.25748,-0.472989 -0.4832,-0.467513 -0.23467,0.0055 -0.24817,0.515055 -0.48335,0.515055 -0.23426,0 -0.24742,-0.507786 -0.48347,-0.515055 -0.24664,-0.0083 -0.29171,0.52062 -0.53905,0.507151 -0.23419,-0.0132 -0.22419,-0.529515 -0.45933,-0.538879 -0.25059,-0.0091 -0.27902,0.536913 -0.531,0.530937 -0.23429,-0.0055 -0.23989,-0.519934 -0.47551,-0.523019 -0.26239,-6.56e-4 -0.28101,0.575029 -0.54698,0.570562 -0.23571,-0.0011 -0.2366,-0.530913 -0.47518,-0.530913 -0.23707,0 -0.23707,0.528073 -0.47571,0.530913 -0.23945,6.53e-4 -0.25356,-0.504363 -0.4913,-0.522998 -0.40434,-0.03065 -0.55413,0.743214 -0.9587,0.744861 -0.42211,6.55e-4 -0.58562,-0.803089 -1.00623,-0.768615 -0.24666,0.02097 -0.25928,0.542543 -0.50761,0.538817 -0.24705,-6.58e-4 -0.24397,-0.554839 -0.49142,-0.554704 -0.2431,7.7e-5 -0.24002,0.547799 -0.48324,0.546784 -0.24108,-6.4e-4 -0.23349,-0.548492 -0.4754,-0.546784 -0.24613,6.3e-4 -0.23152,0.554234 -0.47551,0.562639 -0.24158,0.0091 -0.26379,-0.513164 -0.50728,-0.522998 -0.25546,-0.0091 -0.32195,0.537373 -0.57864,0.507143 -0.21795,-0.02426 -0.16385,-0.526051 -0.38106,-0.53885 -0.24051,-0.01448 -0.24136,0.533174 -0.48321,0.53885 -0.25784,0.0055 -0.28749,-0.544225 -0.54725,-0.554707 -0.39239,-0.01503 -0.49835,0.750499 -0.88923,0.76722 -0.41694,0.01782 -0.59883,-0.77439 -1.01397,-0.734084 -0.22609,0.02195 -0.23701,0.499739 -0.46546,0.498743 -0.24273,-6.59e-4 -0.25009,-0.532652 -0.49296,-0.537931 -0.25532,-0.0055 -0.28738,0.55236 -0.54354,0.543537 -0.23145,-0.0083 -0.22421,-0.514418 -0.45411,-0.521121 -0.24587,-0.0083 -0.26901,0.533304 -0.51484,0.526739 -0.22634,-0.0055 -0.22079,-0.503955 -0.44866,-0.509967 -0.23101,-0.0055 -0.25295,0.485135 -0.48176,0.493129 -0.25046,0.0091 -0.31022,-0.510441 -0.5602,-0.498717 -0.2208,0.01282 -0.23277,0.483539 -0.45416,0.487515 -0.2324,0.0011 -0.25854,-0.495029 -0.49313,-0.493117 -0.23896,6.33e-4 -0.25766,0.521853 -0.49882,0.515532 -0.22876,-0.0055 -0.22155,-0.508866 -0.44803,-0.515532 -0.23414,-0.0055 -0.25667,0.500527 -0.49319,0.504319 -0.24792,0.0011 -0.28964,-0.516782 -0.538,-0.515502 -0.24019,6.27e-4 -0.27539,0.5071 -0.51554,0.5043 -0.2128,-6.53e-4 -0.23374,-0.450442 -0.44822,-0.459483 -0.2557,-0.01262 -0.32501,0.533461 -0.58265,0.504291 -0.22034,-0.02378 -0.17155,-0.521853 -0.39369,-0.537925 -0.24565,-0.01782 -0.26915,0.528241 -0.51486,0.526735 -0.23287,-6.48e-4 -0.24954,-0.500354 -0.48212,-0.50432 -0.23422,-0.0011 -0.26885,0.498387 -0.50484,0.493117 -0.234,-0.0054 -0.2469,-0.511561 -0.48139,-0.515532 -0.23696,-0.0011 -0.26682,0.502985 -0.50438,0.504319 -0.23102,6.51e-4 -0.26303,-0.481818 -0.49326,-0.481904 -0.21858,-4.6e-5 -0.25204,0.456875 -0.47069,0.459482 -0.2192,6.56e-4 -0.26216,-0.446877 -0.48195,-0.448263 -0.21678,-6.29e-4 -0.26466,0.439938 -0.48194,0.437068 -0.2358,-6.54e-4 -0.27685,-0.498286 -0.51537,-0.493088 -0.24791,0.0054 -0.26778,0.54504 -0.51553,0.537918 -0.23445,-0.0055 -0.22381,-0.531131 -0.45936,-0.537918 -0.25435,-0.0083 -0.27348,0.553281 -0.52704,0.549121 -0.24626,-0.0011 -0.24718,-0.546576 -0.49284,-0.549121 -0.24056,-6.64e-4 -0.25334,0.526886 -0.49325,0.526705 -0.23109,-1.47e-4 -0.24072,-0.500348 -0.4707,-0.504319 -0.23679,-0.0011 -0.26682,0.502859 -0.50459,0.504319 -0.21895,6.51e-4 -0.25264,-0.451801 -0.4705,-0.45949 -0.22549,-0.0083 -0.28999,0.442531 -0.5155,0.437068 -0.23402,-0.0055 -0.27882,-0.497175 -0.51538,-0.481897 -0.2466,0.01544 -0.22457,0.57181 -0.47079,0.57157 -0.24057,-2.39e-4 -0.21785,-0.553813 -0.45946,-0.56038 -0.23652,-0.0055 -0.2428,0.524039 -0.48211,0.526735 -0.24792,6.37e-4 -0.26818,-0.515326 -0.51525,-0.537925 -0.39546,-0.03614 -0.56777,0.691514 -0.96374,0.694837 -0.41876,6.55e-4 -0.61716,-0.776873 -1.03111,-0.717223 -0.2419,0.03494 -0.21444,0.567489 -0.45954,0.57155 -0.24632,0.0011 -0.23471,-0.548483 -0.48207,-0.560347 -0.24747,-0.01289 -0.28887,0.525816 -0.53801,0.515502 -0.21236,-0.0091 -0.21108,-0.471712 -0.42576,-0.481904 -0.23337,-0.01267 -0.27857,0.484637 -0.51528,0.481904 -0.24678,-6.59e-4 -0.27944,-0.523738 -0.52681,-0.515502 -0.2342,0.0083 -0.2342,0.5187 -0.47076,0.526715 -0.22512,0.0083 -0.25635,-0.468143 -0.48149,-0.470703 -0.23141,-6.26e-4 -0.27478,0.478472 -0.50478,0.470703 -0.24042,-0.0083 -0.25313,-0.532399 -0.493,-0.526715 -0.23135,0.0055 -0.21829,0.513814 -0.44846,0.526715 -0.25052,0.01447 -0.29712,-0.523807 -0.549,-0.515532 -0.23084,0.0083 -0.24062,0.513105 -0.47063,0.504319 -0.21536,-0.0091 -0.40431,-0.504319 -0.40431,-0.504319 h -3.04807 v 0.773265 c 0,0 1.43187,0.99685398 1.9496,1.68106098 0.41111,0.542317 0.86315,1.849171 0.86315,1.849171 -0.0462,0.219401 -0.18675,0.39691 -0.43701,0.52674 h -3.37349 c -0.15095,-0.161798 -0.29805,-0.311815 -0.44848,-0.414705 -1.26715,-1.22814 -2.44233,-1.016951 -3.49604,-0.504277 -0.88087,0.428337 -1.43068,1.690714 -1.43475,2.566364 -6.7e-4,0.853729 0.39045,1.60258 1.03118,2.084497 0.87178,0.654869 1.89835,0.803983 2.89136,0.470701 0.56567,-0.189876 1.50191,-1.053434 1.50191,-1.053434 h 3.24992 c 0,0 0.39176,0.04715 0.49297,0.190528 0.10788,0.15203 0.004,0.560338 0.004,0.560338 0,0 -1.19313,2.1227459 -2.11802,2.8689569 -0.88647,0.714823 -3.11558,1.400896 -3.11558,1.400896 l -0.95263,0.0448 -2.94757,0.302632 v 2.364671 h 12.28295 V 3.9478401 Z"
     id="profile_right"
     sodipodi:nodetypes="cccssssssssssssssssssssssssssssssssssssssssssssssssssssssssssssssssssssssssssssssssssssssssssssssssssssssssssssssssssssssssssssssssscccsccccssssccscsccccccc"
     inkscape:label="profile_right" />
  <rect
     style="fill:#ddd5d5;fill-opacity:0.768047;fill-rule:evenodd;stroke:#b81e1e;stroke-width:0.0184572"
     id="concrete_left"
     width="140.11058"
     height="49.982468"
     x="-124.11312"
     y="6.3113461" />
  <ellipse
     style="fill:#b4cdd0;fill-opacity:0;fill-rule:evenodd;stroke:#b81e1e;stroke-width:0.00016359"
     id="screw_left"
     cx="40.924301"
     cy="-0.8582285"
     rx="0.049918205"
     ry="0.032774579"
     transform="scale(-1)"
     inkscape:label="screw_left" />
  <ellipse
     style="fill:#b4cdd0;fill-opacity:0;fill-rule:evenodd;stroke:#b81e1e;stroke-width:0.000455593"
     id="screw_right"
     cx="-250.31465"
     cy="0.87050569"
     rx="0.1390205"
     ry="0.091276094"
     transform="scale(-1,1)"
     inkscape:label="screw_right" />
  <rect
     style="fill:#e1ecec;fill-opacity:0.77;fill-rule:evenodd;stroke:#b81e1e;stroke-width:0.0126854"
     id="finish_left"
     width="140.11874"
     height="2.0309176"
     x="-124.13713"
     y="4.1686196"
     inkscape:label="finish_left" />
  <rect
     style="fill:#e1ecec;fill-opacity:0.77;fill-rule:evenodd;stroke:#b81e1e;stroke-width:0.0144776"
     id="cover_left"
     width="140.11621"
     height="0.12596738"
     x="-124.12382"
     y="3.9922595"
     inkscape:label="cover_left" />
  <rect
     style="fill:#ddd5d5;fill-opacity:0.768047;fill-rule:evenodd;stroke:#b81e1e;stroke-width:0.0184876"
     id="concrete_right"
     width="140.57491"
     height="49.982399"
     x="193.55933"
     y="6.2086387"
     inkscape:label="concrete_right" />
  <rect
     style="fill:#e1ecec;fill-opacity:0.77;fill-rule:evenodd;stroke:#b81e1e;stroke-width:0.0127064"
     id="finish_right"
     width="140.58311"
     height="2.0309153"
     x="193.53508"
     y="4.1657934"
     inkscape:label="finish_right" />
  <rect
     style="fill:#e1ecec;fill-opacity:0.77;fill-rule:evenodd;stroke:#b81e1e;stroke-width:0.0145015"
     id="cover_right"
     width="140.58055"
     height="0.12596722"
     x="193.54848"
     y="3.9894512"
     inkscape:label="cover_right" />
  <rect
     style="fill:#404242;fill-opacity:0.341246;fill-rule:evenodd;stroke:#b81e1e;stroke-width:0.0247487"
     id="shadow"
     width="316.43805"
     height="0.0084954519"
     x="-59.077324"
     y="56.126373"
     inkscape:label="shadow" />
  <path
     style="fill:#5e5e5e;fill-rule:evenodd;stroke:#000000;stroke-width:0.0303695"
     d="m 22.858204,0.46816615 c -0.0645,-0.0645 -1.40516,0.81753995 -2.00259,1.36372995 -0.41973,0.38372 -1.11139,1.33628 -1.06887,1.44971 0,0 -0.0297,0.32396 0.049,0.45457 0.0713,0.11887 0.34399,0.23358 0.34399,0.23358 l 2.98545,0.25796 c 0,0 0.26062,-0.0556 0.38086,-0.11055 0.17772,-0.0814 0.3061,-0.25766 0.49142,-0.31941 0.92284,-0.30776 2.02948,-0.6064 2.91175,-0.19644 0.83425,0.38749 1.40593,1.33262 1.63402,2.22372 0.18425,0.72045 0.0776,1.567684 -0.2948,2.211444 -0.36702,0.63463 -1.03624,1.15027 -1.7446,1.33915 -0.86236,0.23002 -1.81307,-0.0565 -2.65374,-0.35629 -0.23566,-0.0841 -0.63885,-0.39314 -0.63885,-0.39314 l -3.12061,0.31944 c -0.0333,0 -0.39463,0.23002 -0.35626,0.40545 0.0327,0.14948 0.12274,0.44226 0.12274,0.44226 0,0 0.83724,1.2116999 1.40058,1.6708699 0.64197,0.52328 1.42846,0.84667 2.18687,1.17945 0.67166,0.29481 2.10086,0.43725 2.10086,0.38084 h 32.66794 l 14.32526,-2.5677 V 8.5279301 h -40.02713 c -0.2211,-0.0737 -0.35219,-0.22943 -0.39317,-0.46688 v -4.373734 c 0.0927,-0.20743 0.25557,-0.30042 0.47914,-0.2948 h 30.96023 l 3.05303,1.48044 h 10.80972 c 0,0 0.31483,-0.25053 0.31275,-0.42702 -0.002,-0.1899 -0.34749,-0.45175 -0.34749,-0.45175 l -12.71831,-4.15256995 -3.05796,0.0348 c 0,0 -0.19466,0.4974 -0.41267,0.50821 -0.24428,0.0119 -0.27221,-0.52324 -0.51688,-0.52122 -0.24666,0.002 -0.26568,0.53804 -0.51255,0.53427 -0.25944,-0.003 -0.26182,-0.58102 -0.52126,-0.57772 -0.26687,0.003 -0.25438,0.60604 -0.52122,0.60812 -0.25142,0.002 -0.24815,-0.56319 -0.49953,-0.56467 -0.22854,-0.002 -0.23181,0.50214 -0.46046,0.50821 -0.26508,0.006 -0.29964,-0.56896 -0.56467,-0.56034 -0.25112,0.009 -0.24815,0.56343 -0.4995,0.56468 -0.23983,0.002 -0.2422,-0.53068 -0.48218,-0.53428 -0.24963,-0.003 -0.26865,0.54114 -0.51828,0.5409 -0.24904,-2.7e-4 -0.26717,-0.55258 -0.51603,-0.5406 -0.21842,0.0119 -0.18811,0.49091 -0.40541,0.51603 -0.26063,0.03 -0.35249,-0.50596 -0.6143,-0.49145 -0.2428,0.0149 -0.27282,0.5214 -0.516,0.51602 -0.26092,-0.006 -0.26746,-0.58289 -0.5283,-0.57745 -0.23537,0.006 -0.21961,0.52628 -0.45457,0.54057 -0.24576,0.0149 -0.2945,-0.51112 -0.54057,-0.50372 -0.2315,0.006 -0.24755,0.49403 -0.47914,0.50372 -0.24637,0.009 -0.30634,-0.49567 -0.55288,-0.49142 -0.23745,0.003 -0.27846,0.49285 -0.51599,0.49142 -0.23448,-0.002 -0.26925,-0.49992 -0.50373,-0.49142 -0.24071,0.009 -0.23833,0.53332 -0.47914,0.54058 -0.24309,0.006 -0.27281,-0.52052 -0.516,-0.51603 -0.23477,0.006 -0.24458,0.51035 -0.47914,0.51603 -0.25766,0.006 -0.2954,-0.54997 -0.55288,-0.54058 -0.23477,0.009 -0.23209,0.52105 -0.46687,0.5283 -0.26063,0.009 -0.55284,-0.55287 -0.55284,-0.55287 h -7.42061 c 0,0 -0.18425,0.51005 -0.40545,0.5283 -0.25706,0.0208 -0.30776,-0.54402 -0.56515,-0.5283 -0.22912,0.0149 -0.21307,0.51317 -0.44229,0.5283 -0.26598,0.0178 -0.32318,-0.5494 -0.58973,-0.54058 -0.25468,0.009 -0.2734,0.55927 -0.52826,0.55285 -0.23805,-0.006 -0.22883,-0.5346 -0.46688,-0.54057 -0.25468,-0.006 -0.2734,0.55602 -0.52829,0.55287 -0.2434,-0.003 -0.24785,-0.54636 -0.49142,-0.5406 -0.24429,0.006 -0.22289,0.5549 -0.46687,0.56515 -0.26331,0.0119 -0.28946,-0.56515 -0.55285,-0.56515 -0.2636,0 -0.28945,0.57481 -0.55288,0.56515 -0.24101,-0.009 -0.22556,-0.54729 -0.46684,-0.55285 -0.22883,-0.006 -0.23804,0.49392 -0.46687,0.50373 -0.24339,0.009 -0.29718,-0.49873 -0.54057,-0.49145 -0.23448,0.006 -0.25676,0.5009 -0.49145,0.50372 -0.24606,0.003 -0.28202,-0.52031 -0.52827,-0.516 -0.24903,0.006 -0.26687,0.53766 -0.51599,0.54058 -0.26657,0.003 -0.299,-0.57662 -0.56515,-0.56515 -0.23507,0.009 -0.21932,0.53044 -0.4546,0.54057 -0.23715,0.009 -0.26627,-0.50518 -0.50369,-0.50372 -0.23448,0.002 -0.25677,0.50226 -0.49145,0.50372 -0.24309,0.002 -0.27281,-0.51885 -0.51599,-0.516 -0.24904,0.003 -0.26687,0.54518 -0.516,0.54058 -0.24072,-0.006 -0.23864,-0.52919 -0.47917,-0.54058 -0.25172,-0.0119 -0.30093,0.52524 -0.55285,0.516 -0.22289,-0.009 -0.2315,-0.48307 -0.45457,-0.49145 -0.24042,-0.009 -0.30746,0.5867 -0.5283,0.49145 -0.27251,-0.11768 -0.55748,-0.64765 -0.54057,-0.54057 h -2.98545 z"
     id="compensator_left"
     sodipodi:nodetypes="cscsccsssssssccscsscccccccccccscccssssassssssssssssssssssssssccssssssssssssssssaasssssssssccc"
     inkscape:label="compensator_left">
    <title
       id="title10">metal</title>
  </path>
  <path
     style="fill:#5e5e5e;fill-rule:evenodd;stroke:#000000;stroke-width:0.0303695"
     d="m 186.65451,0.50757615 c 0.0645,-0.0645 1.40516,0.81753995 2.00259,1.36372995 0.41971,0.38372 1.11139,1.3363 1.06887,1.44971 0,0 0.0297,0.32396 -0.049,0.4546 -0.0713,0.11887 -0.34401,0.23328 -0.34401,0.23328 l -2.98545,0.25796 c 0,0 -0.26063,-0.0556 -0.38084,-0.11056 -0.17772,-0.0814 -0.3061,-0.25765 -0.49145,-0.31941 -0.92281,-0.30776 -2.02948,-0.60636 -2.91172,-0.19643 -0.83425,0.38749 -1.40593,1.33262 -1.63402,2.22371 -0.18425,0.72046 -0.0776,1.567694 0.2948,2.211484 0.36702,0.6346 1.03624,1.15024 1.74458,1.33915 0.86239,0.23002 1.8131,-0.0565 2.65373,-0.35632 0.23567,-0.0841 0.63888,-0.39314 0.63888,-0.39314 l 3.12058,0.31944 c 0.0333,0 0.39463,0.23002 0.35629,0.40545 -0.0327,0.14948 -0.12273,0.44229 -0.12273,0.44229 0,0 -0.83728,1.2116999 -1.40059,1.6708399 -0.64197,0.52328 -1.42846,0.84667 -2.18686,1.17945 -0.67169,0.29481 -2.1009,0.43725 -2.1009,0.38087 H 151.25932 L 136.93407,10.49595 V 8.5670601 h 40.02715 c 0.22111,-0.0737 0.35219,-0.22942 0.39314,-0.46687 v -4.373734 c -0.0924,-0.20743 -0.25557,-0.30042 -0.47914,-0.2948 h -30.96023 l -3.05302,1.48044 h -10.80972 c 0,0 -0.31481,-0.25053 -0.31273,-0.42702 0.002,-0.1899 0.3475,-0.45175 0.3475,-0.45175 l 12.7183,-4.15256995 3.05796,0.0348 c 0,0 0.19466,0.49739 0.41264,0.50821 0.24428,0.0119 0.27222,-0.52325 0.51692,-0.52122 0.24666,0.002 0.26568,0.53804 0.51254,0.53427 0.25944,-0.003 0.26182,-0.58099 0.52126,-0.57772 0.26687,0.003 0.25439,0.60604 0.52122,0.60812 0.25142,0.002 0.24815,-0.56319 0.49954,-0.56467 0.22853,-0.002 0.2318,0.50214 0.46042,0.5082 0.26508,0.006 0.29965,-0.56895 0.56467,-0.56033 0.25112,0.009 0.24815,0.56343 0.49953,0.56467 0.23983,0.002 0.24221,-0.53067 0.48215,-0.53427 0.24963,-0.003 0.26865,0.54114 0.51831,0.5409 0.24904,-2.7e-4 0.26717,-0.55255 0.516,-0.5406 0.21843,0.0119 0.18811,0.49091 0.40544,0.51602 0.26033,0.03 0.35246,-0.50595 0.61431,-0.49144 0.24279,0.0149 0.27281,0.5214 0.51599,0.51602 0.26093,-0.006 0.26746,-0.58289 0.52827,-0.57745 0.23537,0.006 0.21962,0.52628 0.4546,0.54057 0.24577,0.0149 0.2945,-0.51112 0.54057,-0.50372 0.2315,0.006 0.24755,0.49403 0.47914,0.50372 0.24637,0.009 0.30634,-0.49567 0.55285,-0.49142 0.23745,0.003 0.27846,0.49285 0.51603,0.49142 0.23447,-0.002 0.26924,-0.49992 0.50369,-0.49142 0.24071,0.009 0.23834,0.53332 0.47917,0.54057 0.2431,0.006 0.27281,-0.52051 0.516,-0.51599 0.23477,0.006 0.24458,0.51032 0.47914,0.51599 0.25766,0.006 0.2954,-0.54996 0.55285,-0.54057 0.23477,0.009 0.2321,0.52105 0.46687,0.5283 0.26063,0.009 0.55285,-0.55287 0.55285,-0.55287 h 7.42063 c 0,0 0.18426,0.51005 0.40545,0.52829 0.25706,0.0208 0.30776,-0.54402 0.56515,-0.52829 0.22912,0.0149 0.21308,0.51317 0.44226,0.52829 0.26598,0.0178 0.32322,-0.54939 0.58973,-0.54057 0.25468,0.009 0.2734,0.55927 0.5283,0.55285 0.23804,-0.006 0.22883,-0.53457 0.46684,-0.54057 0.25498,-0.006 0.2734,0.55602 0.5283,0.55287 0.24339,-0.003 0.24785,-0.54634 0.49144,-0.5406 0.24429,0.006 0.22259,0.5549 0.46685,0.56515 0.2633,0.0119 0.28945,-0.56515 0.55287,-0.56515 0.2636,0 0.28946,0.57481 0.55285,0.56515 0.24101,-0.009 0.22585,-0.54729 0.46687,-0.55285 0.22883,-0.006 0.23804,0.49392 0.46687,0.50372 0.24339,0.009 0.29718,-0.49873 0.54057,-0.49144 0.23448,0.006 0.25677,0.50089 0.49142,0.50372 0.24607,0.003 0.28232,-0.52031 0.5283,-0.516 0.24904,0.006 0.26687,0.53769 0.51599,0.54057 0.26628,0.003 0.299,-0.57662 0.56515,-0.56514 0.23507,0.009 0.21932,0.53043 0.45457,0.54057 0.23715,0.009 0.26628,-0.50518 0.50372,-0.50372 0.23448,0.002 0.25677,0.50226 0.49145,0.50372 0.2431,0.002 0.27281,-0.51882 0.516,-0.516 0.24903,0.003 0.26687,0.54518 0.51599,0.54057 0.24072,-0.006 0.23864,-0.52919 0.47915,-0.54057 0.25171,-0.0119 0.30095,0.52524 0.55287,0.516 0.22289,-0.009 0.23151,-0.48307 0.45457,-0.49142 0.24042,-0.009 0.30743,0.58666 0.5283,0.49142 0.27251,-0.11769 0.55748,-0.64765 0.54057,-0.54057 h 2.98545 z"
     id="compensator_right"
     sodipodi:nodetypes="cscsccsssssssccscsscccccccccccscccssssassssssssssssssssssssssccssssssssssssssssaasssssssssccc"
     inkscape:label="compensator_right">
    <title
       id="title11">metal</title>
  </path>
  <path
     style="fill:#5e5e5e;fill-rule:evenodd;stroke:#000000;stroke-width:0.0303695"
     d="m 50.373444,3.4939547 h -2.51935 c -0.28084,0.0419 -0.43504,0.25527 -0.48649,0.60812 v 3.822435 c 0.0562,0.24755 0.11085,0.49608 0.48649,0.50387 H 161.84748 c 0.20476,-0.0894 0.29688,-0.22437 0.27014,-0.40646 v -4.103445 c -0.0482,-0.23626 -0.22824,-0.39127 -0.57745,-0.44229 h -2.55543 l -3.01003,1.44973 h -39.56002 c 0,0 -0.24636,0.53208 -0.48648,0.53136 -0.24607,-7.1e-4 -0.24934,-0.53914 -0.4952,-0.54729 -0.24963,-0.009 -0.28886,0.52539 -0.53861,0.52123 -0.24161,-0.003 -0.26211,-0.51814 -0.50387,-0.52123 -0.2312,-0.003 -0.26389,0.47757 -0.49516,0.48649 -0.23834,0.009 -0.30919,-0.47169 -0.54732,-0.46042 -0.24339,0.0119 -0.26895,0.52532 -0.51255,0.52122 -0.24398,-0.003 -0.25141,-0.54512 -0.49519,-0.53861 -0.23656,0.006 -0.21546,0.53787 -0.45174,0.54732 -0.26182,0.0119 -0.2853,-0.57035 -0.54729,-0.5647 -0.24399,0.006 -0.2425,0.54307 -0.48652,0.54731 -0.25587,0.006 -0.274,-0.55804 -0.5299,-0.55599 -0.25617,0.002 -0.26509,0.56467 -0.52126,0.56467 -0.25617,0 -0.26508,-0.56922 -0.52122,-0.56467 -0.24429,0.006 -0.23359,0.55112 -0.47781,0.55599 -0.22942,0.006 -0.23953,-0.50752 -0.46913,-0.50387 -0.2422,0.003 -0.23596,0.53547 -0.47781,0.54732 -0.27013,0.0119 -0.32051,-0.56568 -0.59073,-0.55599 -0.24785,0.009 -0.25588,0.55029 -0.50387,0.54729 -0.25023,-0.003 -0.24518,-0.55347 -0.4952,-0.56468 -0.25587,-0.0119 -0.29997,0.533 -0.55599,0.52993 -0.24993,-0.003 -0.28024,-0.54104 -0.52994,-0.52993 -0.23001,0.009 -0.21278,0.52809 -0.44303,0.52993 -0.25261,0.002 -0.2425,-0.57367 -0.4952,-0.57335 -0.24428,3e-4 -0.23388,0.54004 -0.4778,0.55597 -0.26004,0.0178 -0.32239,-0.54137 -0.58203,-0.52123 -0.24637,0.0178 -0.22229,0.56474 -0.46913,0.57336 -0.2743,0.009 -0.29035,-0.60946 -0.56468,-0.59942 -0.23863,0.009 -0.21307,0.54577 -0.45174,0.556 -0.23329,0.009 -0.2532,-0.49888 -0.48649,-0.50387 -0.24368,-0.006 -0.28618,0.50693 -0.52993,0.50387 -0.26211,-0.003 -0.29391,-0.5582 -0.55599,-0.556 -0.245772,0.002 -0.266872,0.52907 -0.512552,0.52993 -0.211,7.2e-4 -0.2321,-0.45566 -0.44307,-0.45174 -0.21932,0.003 -0.22407,0.47712 -0.44307,0.48648 -0.26419,0.0119 -0.31801,-0.55136 -0.58206,-0.53861 -0.24784,0.0119 -0.24725,0.54682 -0.49516,0.556 -0.25379,0.009 -0.2939,-0.54604 -0.54731,-0.52993 -0.24071,0.0149 -0.211,0.55225 -0.45174,0.56467 -0.26776,0.0149 -0.29659,-0.5801 -0.56468,-0.57338 -0.24814,0.006 -0.24695,0.55775 -0.49516,0.556 -0.25647,-0.002 -0.24725,-0.58385 -0.50387,-0.58206 -0.23834,0.002 -0.22229,0.53424 -0.46045,0.54731 -0.25974,0.0149 -0.30497,-0.55367 -0.56467,-0.53861 -0.24429,0.0149 -0.22438,0.56105 -0.4691,0.56468 -0.26271,0.003 -0.52126,-0.59074 -0.52126,-0.59074 H 53.483354 Z"
     id="compensator_middle"
     sodipodi:nodetypes="ccccccccccccsssssssssssssssssssssssssssssssssssssssssssssccc"
     inkscape:label="compensator_middle">
    <title
       id="title12">metal</title>
  </path>
</svg>
