<?xml version="1.0" encoding="UTF-8" standalone="no"?>
<!-- Created with Inkscape (http://www.inkscape.org/) -->

<svg
   width="210mm"
   height="297mm"
   viewBox="0 0 210 297"
   version="1.1"
   id="svg1"
   inkscape:version="1.4 (86a8ad7, 2024-10-11)"
   sodipodi:docname="DSHA-15-030.svg"
   xmlns:inkscape="http://www.inkscape.org/namespaces/inkscape"
   xmlns:sodipodi="http://sodipodi.sourceforge.net/DTD/sodipodi-0.dtd"
   xmlns="http://www.w3.org/2000/svg"
   xmlns:svg="http://www.w3.org/2000/svg">
  <sodipodi:namedview
     id="namedview1"
     pagecolor="#ffffff"
     bordercolor="#000000"
     borderopacity="0.25"
     inkscape:showpageshadow="2"
     inkscape:pageopacity="0.0"
     inkscape:pagecheckerboard="0"
     inkscape:deskcolor="#d1d1d1"
     inkscape:document-units="mm"
     inkscape:zoom="1.0467522"
     inkscape:cx="129.44801"
     inkscape:cy="135.18003"
     inkscape:window-width="2560"
     inkscape:window-height="1377"
     inkscape:window-x="-8"
     inkscape:window-y="-8"
     inkscape:window-maximized="1"
     inkscape:current-layer="svg1" />
  <defs
     id="defs1" />
  <path
     style="fill:#5e5e5e;fill-rule:evenodd;stroke:#000000;stroke-width:0.0308157"
     d="m 84.182078,3.7704002 c 0.140823,-0.371851 0.364605,-0.633121 0.572339,-0.915743 0.605178,-0.85959 1.333017,-1.443133 2.125848,-1.88054595 1.049242,-0.545804 2.136742,-0.869827 3.303211,-0.735858 l 2.403825,0.441517 17.399079,3.66297295 -0.62139,2.927101 -13.621658,-2.845339 c -0.144143,0.04077 -0.281353,0.121246 -0.408816,0.261622 -0.08962,0.173934 -0.08234,0.332988 -0.0654,0.490579 l 0.212593,0.83398 v 1.079269 l -0.179726,0.981148 -0.359746,1.046568 c -0.0056,0.136271 -0.02409,0.272538 0.08178,0.408808 0.120014,0.14233 0.239733,0.177641 0.359746,0.179873 l 6.819027,-0.310697 9.64798,2.0767648 0.0654,0.474224 -3.58121,0.179873 c 0,0 -0.19992,-0.467306 -0.40914,-0.476433 -0.25843,-0.0112 -0.29642,0.553544 -0.55477,0.542288 -0.21349,-0.0094 -0.20415,-0.478732 -0.41761,-0.486182 -0.24817,-0.0087 -0.27531,0.523945 -0.52357,0.529817 -0.24848,0.0057 -0.30095,-0.527185 -0.54855,-0.504886 -0.23339,0.0211 -0.18998,0.544786 -0.42386,0.560983 -0.25511,0.01749 -0.28706,-0.55626 -0.54227,-0.542289 -0.24214,0.0133 -0.2132,0.549657 -0.455,0.56722 -0.24637,0.01778 -0.29642,-0.526786 -0.5423,-0.504884 -0.23793,0.0211 -0.19209,0.553113 -0.4301,0.57345 -0.25632,0.02201 -0.30417,-0.544106 -0.56097,-0.529817 -0.23098,0.01302 -0.21772,0.518027 -0.4488,0.529817 -0.22737,0.01176 -0.26476,-0.479368 -0.49242,-0.47372 -0.24245,0.0063 -0.25632,0.522516 -0.49865,0.529816 -0.24546,0.0073 -0.2919,-0.52904 -0.53605,-0.504883 -0.22828,0.02262 -0.17128,0.531812 -0.39892,0.56098 -0.26627,0.03414 -0.35077,-0.550921 -0.617098,-0.517347 -0.233389,0.02955 -0.177303,0.551598 -0.411364,0.573451 -0.254507,0.02382 -0.300048,-0.551732 -0.554765,-0.529822 -0.247266,0.0211 -0.194794,0.584091 -0.442551,0.598382 -0.264155,0.01538 -0.278019,-0.593811 -0.542291,-0.579684 -0.241539,0.01302 -0.195396,0.557079 -0.436305,0.579684 -0.249074,0.02353 -0.305383,-0.523209 -0.554765,-0.504885 -0.235503,0.01718 -0.213195,0.532491 -0.448783,0.548519 -0.243359,0.01658 -0.292513,-0.514251 -0.536041,-0.498651 -0.240027,0.01538 -0.221331,0.540927 -0.461274,0.554748 -0.252392,0.01448 -0.297331,-0.550491 -0.548519,-0.523587 -0.232185,0.02473 -0.160415,0.556235 -0.392669,0.579689 -0.257224,0.02593 -0.296421,-0.554165 -0.554765,-0.542284 -0.237016,0.01092 -0.224342,0.526426 -0.461246,0.542284 -0.248163,0.01658 -0.307217,-0.522044 -0.55475,-0.498651 -0.249382,0.02353 -0.204751,0.589783 -0.455043,0.598383 -0.242744,0.0084 -0.479942,-0.548519 -0.479942,-0.548519 -0.141117,-0.161298 -0.289488,0.343945 -0.529823,0.579683 l -2.462095,-0.0063 c -0.0717,0.06456 -2.229071,-0.495108 -3.016846,-1.209237 -0.650495,-0.589703 -1.620573,-1.122287 -1.720351,-1.9946108 -0.02115,-0.181893 0.255403,-0.486185 0.255403,-0.486185 1.043907,-0.245491 2.118986,-0.428593 3.278649,-0.442555 0.698346,0.558849 1.520641,0.952427 2.910262,0.589584 0.744069,-0.41196 1.492213,-0.820929 1.701305,-1.621966 0.332033,-0.5671 0.360797,-1.134199 0.211683,-1.701299 -0.09831,-0.820065 -0.578305,-1.340099 -1.13713,-1.798262 -0.621339,-0.472868 -1.371052,-0.735224 -2.406514,-0.528909 -0.776124,0.154906 -1.140113,0.557089 -1.604343,0.899131 l -2.8913,-0.123416 c -0.225267,0.0048 -0.373806,-0.126231 -0.493666,-0.308517 -0.05854,-0.13539 -0.05994,-0.270789 -0.0126,-0.4062 z"
     id="compensator_left"
     sodipodi:nodetypes="ccccccccccccccccccccsssssssssssssssssssssssssssssssssccsscccccccccccc"
     inkscape:label="compensator_left">
    <title
       id="title6">metal</title>
  </path>
  <path
     style="fill:#5e5e5e;fill-rule:evenodd;stroke:#000000;stroke-width:0.0308157"
     d="m 126.0971,9.3925352 c -0.14083,0.371852 -0.36461,0.6331228 -0.57234,0.9157428 -0.60518,0.859589 -1.33306,1.443135 -2.12586,1.880545 -1.04926,0.545804 -2.13676,0.869826 -3.30322,0.735861 l -2.40381,-0.44152 -17.3991,-3.6629698 0.62141,-2.927103 13.62166,2.845339 c 0.14415,-0.04077 0.28134,-0.121246 0.4088,-0.261624 0.0896,-0.173933 0.0823,-0.332988 0.0654,-0.490579 l -0.21259,-0.833978 v -1.07927 l 0.17973,-0.981149 0.35974,-1.046566 c 0.006,-0.136272 0.0241,-0.27254 -0.0818,-0.408809 -0.12001,-0.14233 -0.23972,-0.177642 -0.35977,-0.179873 l -6.81899,0.310696 -9.648017,-2.076768 -0.0654,-0.474222 3.581217,-0.179873 c 0,0 0.19992,0.467304 0.40914,0.476432 0.25843,0.0112 0.29642,-0.55354495 0.55475,-0.54228895 0.21351,0.0094 0.20415,0.47873195 0.41761,0.48618595 0.24818,0.0087 0.27532,-0.52394395 0.52358,-0.52981895 0.24849,-0.0057 0.30094,0.52718395 0.54852,0.50488395 0.2334,-0.0211 0.18998,-0.54478195 0.42386,-0.56098095 0.2551,-0.01749 0.28707,0.55625895 0.5423,0.54228895 0.24214,-0.0133 0.21319,-0.54965895 0.45501,-0.56722095 0.24636,-0.01778 0.29642,0.52678595 0.5423,0.50488495 0.23791,-0.0211 0.19208,-0.55311495 0.43006,-0.57345095 0.25633,-0.02201 0.30418,0.54410695 0.56101,0.52981595 0.23098,-0.01302 0.21772,-0.51802495 0.44878,-0.52981595 0.22737,-0.01176 0.26476,0.47936995 0.49241,0.47371995 0.24243,-0.0063 0.25631,-0.52251695 0.49866,-0.52981695 0.24546,-0.0073 0.2919,0.52904495 0.53607,0.50488495 0.22827,-0.02262 0.17127,-0.53181295 0.39892,-0.56098195 0.26627,-0.03413 0.35075,0.55092195 0.61708,0.51734795 0.2334,-0.02955 0.17701,-0.55159695 0.41138,-0.57344995 0.25451,-0.02382 0.30003,0.55173195 0.55475,0.52982495 0.24727,-0.0211 0.19481,-0.58409395 0.44255,-0.59838495 0.26416,-0.01538 0.27803,0.59381395 0.54227,0.57968195 0.24154,-0.01302 0.19571,-0.55707895 0.43635,-0.57968195 0.24877,-0.02353 0.30537,0.52321195 0.55475,0.50488295 0.23552,-0.01718 0.2132,-0.53248695 0.4488,-0.54851695 0.24334,-0.01658 0.2925,0.51424995 0.53602,0.498654 0.24005,-0.01538 0.22135,-0.540932 0.46125,-0.554752 0.25239,-0.01447 0.29733,0.55049 0.54855,0.523588 0.2322,-0.02473 0.16043,-0.556235 0.39268,-0.57969 0.25721,-0.02594 0.29642,0.554166 0.55475,0.542285 0.23702,-0.01092 0.22436,-0.526425 0.46125,-0.542285 0.24817,-0.01658 0.30721,0.522045 0.55476,0.498652 0.24938,-0.02353 0.20445,-0.589783 0.455,-0.598383 0.24275,-0.0084 0.47997,0.548518 0.47997,0.548518 0.14113,0.161298 0.28949,-0.343942 0.52983,-0.579683 l 2.46208,0.0063 c 0.0718,-0.06456 2.2291,0.495111 3.01686,1.20923695 0.65049,0.589704 1.62057,1.122288 1.72036,1.994614 0.0212,0.181894 -0.25571,0.486184 -0.25571,0.486184 -1.04391,0.245489 -2.11901,0.428592 -3.27865,0.442554 -0.69834,-0.55885 -1.52064,-0.952427 -2.91026,-0.589583 -0.74407,0.411959 -1.49224,0.820927 -1.70131,1.621965 -0.33203,0.567099 -0.36079,1.1342 -0.21168,1.701299 0.0983,0.820065 0.57831,1.340103 1.13713,1.798266 0.62134,0.472865 1.37103,0.735221 2.40652,0.528904 0.77612,-0.154905 1.14011,-0.557084 1.60431,-0.899131 l 2.89133,0.12343 c 0.22527,-0.0048 0.3738,0.126231 0.49366,0.308516 0.0585,0.13539 0.0599,0.270791 0.0126,0.4062 z"
     id="compensator_right"
     sodipodi:nodetypes="ccccccccccccccccccccsssssssssssssssssssssssssssssssssccsscccccccccccc"
     inkscape:label="compensator_right">
    <title
       id="title7">metal</title>
  </path>
  <path
     style="fill:#5e5e5e;fill-rule:evenodd;stroke:#000000;stroke-width:0.0424045"
     d="m 24.071956,12.019037 h 9.669855 45.645485 c 0.538858,-0.04148 0.945134,-0.303325 1.073478,-1.028409 V 0.10995925 h 1.08568 c 0,0 0.197514,0.520835 0.424531,0.533725 0.22283,0.01232 0.250215,-0.474377 0.473083,-0.473067 0.243166,0.0011 0.266813,0.532967 0.509439,0.521582 0.24399,-0.01162 0.216603,-0.560128 0.460964,-0.570109 0.239847,-0.01008 0.257272,0.531017 0.49732,0.521594 0.224072,-0.0088 0.201254,-0.503862 0.424532,-0.521594 0.253953,-0.02033 0.316194,0.532651 0.570145,0.509465 0.203736,-0.01867 0.375946,-0.485203 0.375946,-0.485203 H 86.3256 v 0.764194 l -1.115968,0.93401795 -0.9726,1.091136 c 0.029,0 -0.556451,0.831031 -0.669028,1.325189 -0.07096,0.311626 0.518934,0.806283 0.518934,0.806283 l 3.156446,-0.0166 1.299456,-0.999253 c 0.719072,-0.342166 1.438093,-0.369716 2.157161,-0.09432 0.827164,0.325734 1.351326,0.840863 1.629675,1.50959 0.334868,0.899162 0.362665,1.639678 0.0332,2.195793 -0.312043,0.749487 -0.755048,1.362576 -1.612539,1.543906 -0.842431,0.394201 -1.624739,0.247313 -2.375879,-0.180088 l -1.123643,-0.849154 h -3.182172 c -0.307066,0.09668 -0.573423,0.238598 -0.497487,0.763385 l 0.900606,1.6125398 1.312367,1.363773 1.638221,0.883469 1.818396,0.454579 3.482344,0.282999 V 14.97879 H 23.844608 v -2.736145 c -0.0033,-0.118263 0.08499,-0.185897 0.227351,-0.223242 z"
     id="profile_left"
     sodipodi:nodetypes="ccccccssssssscccccsccccccccccccccccccccc"
     inkscape:label="profile_left" />
  <path
     style="fill:#5e5e5e;fill-rule:evenodd;stroke:#000000;stroke-width:0.0424045"
     d="m 186.10896,11.930282 h -9.67007 -45.64527 c -0.53886,-0.04148 -0.94514,-0.303326 -1.07348,-1.028411 V 0.02120225 h -1.08568 c 0,0 -0.19751,0.520836 -0.42452,0.533726 -0.22283,0.01232 -0.25021,-0.474376 -0.47309,-0.473068 -0.24316,0.0011 -0.26681,0.532969 -0.50944,0.521582 -0.24398,-0.01162 -0.2166,-0.560126 -0.46096,-0.570107 -0.23985,-0.01008 -0.25727,0.531017 -0.49732,0.521593 -0.22406,-0.0088 -0.20126,-0.503861 -0.42453,-0.521593 -0.25395,-0.02033 -0.31619,0.532652 -0.57015,0.509463 -0.20373,-0.01868 -0.37594,-0.485203 -0.37594,-0.485203 h -1.04318 v 0.764197 l 1.11596,0.93401495 0.9726,1.091138 c -0.0289,0 0.55645,0.83103 0.66903,1.325189 0.071,0.311626 -0.51893,0.806284 -0.51893,0.806284 l -3.15645,-0.01659 -1.29946,-0.999252 c -0.71907,-0.342167 -1.43809,-0.369715 -2.15717,-0.09432 -0.82716,0.325733 -1.35132,0.840862 -1.62966,1.509591 -0.33487,0.899162 -0.36267,1.63968 -0.0332,2.195793 0.31204,0.749485 0.75504,1.362575 1.61253,1.543905 0.84244,0.3942 1.62475,0.247315 2.37588,-0.180087 l 1.12365,-0.849154 h 3.18217 c 0.30706,0.0967 0.57342,0.238597 0.49748,0.763384 l -0.90059,1.6125398 -1.31238,1.363773 -1.63822,0.88347 -1.81839,0.454578 -3.48235,0.283 v 1.440999 h 68.8785 v -2.736149 c 0.004,-0.118263 -0.0849,-0.185897 -0.22735,-0.223242 z"
     id="profile_right"
     sodipodi:nodetypes="ccccccssssssscccccsccccccccccccccccccccc"
     onclick=""
     inkscape:label="profile_right" />
  <rect
     style="fill:#b8b8b8;fill-opacity:1;fill-rule:evenodd;stroke:#b81e1e;stroke-width:0.0451594"
     id="concrete_right"
     width="78.169731"
     height="54.251862"
     x="117.38622"
     y="15.048098" />
  <rect
     style="fill:#b8b8b8;fill-opacity:1;fill-rule:evenodd;stroke:#b81e1e;stroke-width:0.0450992"
     id="concrete_left"
     width="78.208832"
     height="54.080254"
     x="14.444016"
     y="15.038652" />
  <rect
     style="fill:#a39a9a;fill-rule:evenodd;stroke:#b81e1e;stroke-width:0.0205795"
     id="finish_right"
     width="65.819427"
     height="9.644803"
     x="129.72977"
     y="5.2463965" />
  <rect
     style="fill:#a39a9a;fill-rule:evenodd;stroke:#b81e1e;stroke-width:0.0204448"
     id="finish_left"
     width="65.819572"
     height="9.5185556"
     x="14.546982"
     y="5.2911887" />
  <rect
     style="fill:#a39a9a;fill-rule:evenodd;stroke:#b81e1e;stroke-width:0.0329314"
     id="cover_right"
     width="65.769066"
     height="4.9670687"
     x="129.66522"
     y="0.18754357" />
  <rect
     style="fill:#a39a9a;fill-rule:evenodd;stroke:#b81e1e;stroke-width:0.0329316"
     id="cover_left"
     width="65.769104"
     height="4.9670682"
     x="14.593737"
     y="0.22004861" />
  <rect
     style="fill:#404242;fill-opacity:0.341246;fill-rule:evenodd;stroke:#b81e1e;stroke-width:0.0198777"
     id="shadow"
     width="137.48599"
     height="0.01261392"
     x="44.601055"
     y="68.939667"
     inkscape:label="shadow" />
  <ellipse
     style="opacity:0;fill:none;fill-opacity:0;fill-rule:evenodd;stroke-width:0.00368993;stroke-opacity:0"
     id="bolt_left"
     cx="-33.705887"
     cy="-12.106802"
     rx="0.094999999"
     ry="0.028942173"
     inkscape:label="bolt_left"
     transform="scale(-1)" />
  <ellipse
     style="opacity:0;fill:none;fill-opacity:0;fill-rule:evenodd;stroke-width:0.000191947;stroke-opacity:0"
     id="bolt_right"
     cx="176.44383"
     cy="12.030367"
     rx="0.0049418169"
     ry="0.0015055466"
     inkscape:label="bolt_right" />
</svg>
