<?xml version="1.0" encoding="UTF-8" standalone="no"?>
<!-- Created with Inkscape (http://www.inkscape.org/) -->

<svg
   width="210mm"
   height="297mm"
   viewBox="0 0 210 297"
   version="1.1"
   id="svg1"
   inkscape:version="1.4 (86a8ad7, 2024-10-11)"
   sodipodi:docname="DSHA-30-063-corner.svg"
   xmlns:inkscape="http://www.inkscape.org/namespaces/inkscape"
   xmlns:sodipodi="http://sodipodi.sourceforge.net/DTD/sodipodi-0.dtd"
   xmlns="http://www.w3.org/2000/svg"
   xmlns:svg="http://www.w3.org/2000/svg">
  <sodipodi:namedview
     id="namedview1"
     pagecolor="#ffffff"
     bordercolor="#000000"
     borderopacity="0.25"
     inkscape:showpageshadow="2"
     inkscape:pageopacity="0.0"
     inkscape:pagecheckerboard="0"
     inkscape:deskcolor="#d1d1d1"
     inkscape:document-units="mm"
     inkscape:zoom="1.0467522"
     inkscape:cx="350.13062"
     inkscape:cy="422.73615"
     inkscape:window-width="2560"
     inkscape:window-height="1377"
     inkscape:window-x="-8"
     inkscape:window-y="-8"
     inkscape:window-maximized="1"
     inkscape:current-layer="svg1" />
  <defs
     id="defs1" />
  <rect
     style="fill:#b8b8b8;fill-opacity:1;fill-rule:evenodd;stroke:#b81e1e;stroke-width:0.0528797"
     id="concrete_left"
     width="78.20105"
     height="74.356941"
     x="7.9097681"
     y="82.492455" />
  <rect
     style="fill:#a39a9a;fill-rule:evenodd;stroke:#b81e1e;stroke-width:0.0327435"
     id="finish_left"
     width="65.807266"
     height="24.419449"
     x="7.8626451"
     y="58.036919" />
  <rect
     style="fill:#a39a9a;fill-rule:evenodd;stroke:#b81e1e;stroke-width:0.0341611"
     id="cover_left"
     width="65.767876"
     height="5.3449874"
     x="7.9038706"
     y="52.581093" />
  <rect
     style="fill:#404242;fill-opacity:0.341246;fill-rule:evenodd;stroke:#b81e1e;stroke-width:0.0204114"
     id="shadow"
     width="151.36913"
     height="0.012080346"
     x="50.774395"
     y="156.83279"
     inkscape:label="shadow" />
  <ellipse
     style="opacity:0;fill:none;fill-opacity:0;fill-rule:evenodd;stroke-width:0.00253958;stroke-opacity:0"
     id="bolt_left"
     cx="-26.167164"
     cy="-80.046944"
     rx="0.045000002"
     ry="0.028942173"
     inkscape:label="bolt_left"
     transform="scale(-1)" />
  <ellipse
     style="opacity:0;fill:none;fill-opacity:0;fill-rule:evenodd;stroke-width:0.000191947;stroke-opacity:0"
     id="screw_right"
     cx="152.15343"
     cy="17.141941"
     rx="0.0049418169"
     ry="0.0015055466"
     inkscape:label="screw_right" />
  <path
     style="fill:#5e5e5e;fill-rule:evenodd;stroke:#000000;stroke-width:0.0441661"
     d="m 146.8799,60.805715 h 3.29292 c 0.0846,-0.0709 0.72166,0.39848 0.52726,0.78512 -0.22127,0.44001 -0.41877,0.93966 -0.67956,1.37107 -0.25974,0.4296 -0.59704,0.81424 -0.96096,1.16012 -0.40281,0.38249 -1.33586,0.99606 -1.33586,0.99606 v 0.71484 h 1.24207 c 0,0 0.13873,-0.47882 0.33969,-0.50389 0.24462,-0.0302 0.30469,0.50467 0.55083,0.49218 0.24289,-0.0129 0.24894,-0.54162 0.49218,-0.53907 0.24937,0.002 0.24332,0.55156 0.49216,0.5625 0.25932,0.0129 0.30298,-0.54335 0.5625,-0.53903 0.23467,0.004 0.25759,0.49835 0.49214,0.50389 0.23467,0.004 0.28135,-0.49689 0.51559,-0.48047 0.21048,0.0129 0.39848,0.49218 0.39848,0.49218 h 1.12499 V 4.2255236 h -0.86049 l -1.43049,4.227839 v 1.5936924 c 0,0 0.52004,0.16294 0.53318,0.38075 0.013,0.24852 -0.54258,0.255 -0.55082,0.50389 -0.013,0.25975 0.54603,0.30297 0.53907,0.56254 -0.013,0.25672 -0.56799,0.27055 -0.5625,0.52731 0,0.25759 0.58077,0.24635 0.58592,0.50389 0,0.23468 -0.50865,0.24548 -0.5156,0.48046 -0.013,0.22647 0.47147,0.2658 0.46871,0.49218 0,0.23727 -0.50748,0.26623 -0.5038,0.50389 0,0.26795 0.58716,0.28264 0.58591,0.55077 0,0.2766 -0.6214,0.28611 -0.60938,0.5625 0.013,0.26147 0.61336,0.21869 0.62107,0.48046 0.013,0.24332 -0.4963,0.24289 -0.55075,0.48046 -0.0891,0.38897 0.47639,0.70257 0.46875,1.10152 -0.013,0.37557 -0.55473,0.65122 -0.48051,1.01953 0.0432,0.20615 0.45945,0.21177 0.46871,0.42182 0.013,0.23467 -0.48315,0.28049 -0.48037,0.51559 0,0.2403 0.50517,0.27531 0.50384,0.51561 0,0.23208 -0.47995,0.26061 -0.49218,0.49217 -0.013,0.23598 0.45099,0.31463 0.44528,0.55078 -0.013,0.24073 -0.48724,0.29864 -0.48037,0.53907 0.013,0.25413 0.53763,0.28481 0.53902,0.53902 0,0.25672 -0.55653,0.29432 -0.53902,0.55079 0.0173,0.24158 0.56876,0.20312 0.57413,0.44532 0.013,0.27141 -0.62526,0.25585 -0.62102,0.52731 0,0.26969 0.62606,0.23424 0.6328,0.50389 0.013,0.26579 -0.58653,0.2619 -0.59771,0.52735 -0.013,0.25413 0.53448,0.29649 0.5274,0.55074 -0.013,0.24591 -0.54331,0.25802 -0.53907,0.50393 0,0.24375 0.54386,0.23684 0.55074,0.48046 0.013,0.2403 -0.51289,0.26364 -0.51565,0.50389 0,0.2403 0.51322,0.27531 0.50398,0.515601 -0.013,0.25456 -0.57464,0.24937 -0.57429,0.50389 3.3e-4,0.24375 0.53622,0.23727 0.55081,0.48046 0.0172,0.26234 -0.54303,0.32371 -0.52735,0.58592 0.013,0.2485 0.55562,0.24332 0.5625,0.49217 0.013,0.24592 -0.52294,0.26969 -0.52727,0.5156 0,0.23209 0.48745,0.27185 0.48037,0.50393 -0.013,0.22388 -0.48245,0.23339 -0.49217,0.456999 -0.013,0.27919 0.58695,0.34272 0.56249,0.62109 -0.0216,0.24116 -0.55631,0.204 -0.57416,0.44529 -0.0173,0.27141 0.58354,0.31809 0.56491,0.58946 -0.0173,0.23554 -0.54982,0.20313 -0.55518,0.43919 0,0.24851 0.56456,0.2403 0.56339,0.48889 0,0.26839 -0.66275,0.48046 -0.61314,0.52204 0.0492,0.0432 0.60869,0.24721 0.61314,0.51374 0,0.2524 -0.55848,0.25327 -0.56339,0.50545 0,0.25801 0.5563,0.28092 0.55518,0.53859 -0.002,0.24418 -0.53665,0.26147 -0.53038,0.50548 0.013,0.23295 0.51893,0.22301 0.53038,0.45574 0.013,0.25932 -0.54352,0.30384 -0.5386,0.56345 0,0.2498 0.53847,0.27185 0.5386,0.52204 9e-5,0.26968 -0.59041,0.29389 -0.58012,0.56344 0.013,0.25888 0.60048,0.23814 0.59668,0.49719 0,0.24591 -0.57322,0.21004 -0.58009,0.45574 -0.013,0.24635 0.54361,0.24246 0.55514,0.48889 0.013,0.26147 -0.54541,0.30988 -0.53853,0.57174 0.013,0.25586 0.56633,0.27444 0.55513,0.53034 -0.013,0.24721 -0.56145,0.21696 -0.57999,0.46404 -0.0172,0.24765 0.5082,0.29864 0.50544,0.54689 0,0.22647 -0.47774,0.26234 -0.47226,0.48889 0.013,0.25413 0.56022,0.26796 0.55516,0.52204 0,0.24851 -0.55996,0.24029 -0.56348,0.48885 0,0.22862 0.49073,0.23597 0.50538,0.46404 0.0173,0.25239 -0.49663,0.32716 -0.48884,0.58004 0.013,0.25196 0.52199,0.29475 0.52199,0.54689 0,0.24807 -0.51213,0.29043 -0.51373,0.53859 0,0.2148 0.43931,0.25715 0.43918,0.47234 -8e-5,0.22257 -0.45786,0.26622 -0.45566,0.48889 0,0.25802 0.55242,0.29777 0.5386,0.55515 -0.013,0.23294 -0.52982,0.21436 -0.5386,0.44748 -0.013,0.23036 0.49603,0.25023 0.49706,0.48059 0.002,0.25197 -0.53768,0.27833 -0.53858,0.5303 -7.8e-4,0.23813 0.49446,0.26752 0.50556,0.50548 0.013,0.25067 -0.49342,0.32933 -0.48062,0.58004 0.013,0.22431 0.48062,0.24765 0.48062,0.4723 0,0.21696 -0.44061,0.2403 -0.46404,0.45574 -0.0172,0.15083 0.24851,0.38119 0.24851,0.38119 v 1.62407 c -0.0696,0.29692 -0.22948,0.52973 -0.59654,0.61319 h -3.53824 v 0.74578 l 1.26782,1.00264 1.05233,1.17663 c -0.013,0 0.46737,0.81372 0.62153,1.28437 0.13096,0.39978 -0.52134,0.90051 -0.55518,0.87004 h -3.26479 c -0.7314,-0.78321 -1.57645,-1.20784 -2.5108,-1.35067 -0.0172,-0.0346 -1.54485,0.24073 -2.07976,0.82033 -0.47286,0.51249 -1.00492,1.28131 -1.03579,2.07986 -0.0303,0.79086 0.34359,1.63635 0.90315,2.19586 0.5764,0.57619 1.45167,0.72539 2.23734,0.68774 0.51127,-0.0259 0.96582,-0.12966 1.34234,-0.35613 0.40539,-0.24375 1.1475,-0.83502 1.1475,-0.83502 z"
     id="profile_right"
     sodipodi:nodetypes="ccssscccsssssssccccccsssssssssssssssssssssssssssssssssssssssssssssssssssssssssssssssssssssssssssscccccccscccsssssc"
     inkscape:label="profile_right" />
  <rect
     style="fill:#e1ecec;fill-opacity:0.77;fill-rule:evenodd;stroke:#b81e1e;stroke-width:0.0081378"
     id="finish_right"
     width="57.514656"
     height="2.036227"
     x="-57.518726"
     y="154.17313"
     inkscape:label="finish_right"
     transform="rotate(-90)" />
  <rect
     style="fill:#e1ecec;fill-opacity:0.77;fill-rule:evenodd;stroke:#b81e1e;stroke-width:0.00933925"
     id="cover_right"
     width="57.494617"
     height="0.12774748"
     x="-57.505093"
     y="153.99739"
     inkscape:label="cover_right"
     transform="rotate(-90)" />
  <path
     style="fill:#e1ecec;fill-opacity:0.77;fill-rule:evenodd;stroke:#b81e1e;stroke-width:0.0116676"
     d="m 156.22155,0.01599978 20.93689,-8.06e-6 V 157.50331 H 153.97731 V 57.558405 h 2.23314 z"
     id="concrete_right"
     inkscape:label="concrete_right"
     sodipodi:nodetypes="ccccccc" />
  <path
     id="profile_left"
     style="display:inline;fill:#5e5e5e;fill-rule:evenodd;stroke:#000000;stroke-width:0.0429187"
     d="m 75.656595,52.511603 c -0.23763,0.002 -0.24202,0.52778 -0.47965,0.52739 -0.23203,-3.9e-4 -0.4666,-0.51654 -0.4666,-0.51654 h -0.99402 v 26.347634 c -0.0824,0.61577 -0.35763,1.05266 -1.09167,1.06344 H 16.426591 l -0.0326,2.53491 H 86.104435 V 66.071733 l -3.49854,-0.29515 -1.87516,-0.48617 -1.6668,-0.89419 -1.37164,-1.38031 -0.8855,-1.59735 c -0.0464,-0.40583 0.14455,-0.66715 0.47748,-0.84206 h 3.1947 l 0.43407,0.26043 c 0,0 1.28027,1.01801 2.04877,1.0678 0.7473,0.0483 1.57304,-0.2502 2.10955,-0.77264 0.53973,-0.52559 0.84054,-1.34752 0.83339,-2.10086 -0.007,-0.73408 -0.32581,-1.51822 -0.85077,-2.03141 -0.52682,-0.515 -1.32165,-0.84444 -2.05743,-0.80736 -0.76198,0.0385 -2.03577,1.04608 -2.03577,1.04608 l -0.41887,0.19968 h -3.14044 c -0.40539,-0.15903 -0.59069,-0.41376 -0.61636,-0.7379 l 0.7292,-1.31087 0.90287,-1.17197 1.24141,-0.92021 v -0.77482 h -1.0678 c 0,0 -0.23044,0.48665 -0.45358,0.49266 -0.24036,0.006 -0.27632,-0.51383 -0.51653,-0.50351 -0.23779,0.0102 -0.22891,0.52897 -0.46663,0.54042 -0.24277,0.0116 -0.28437,-0.5077 -0.52738,-0.50352 -0.22864,0.004 -0.25099,0.49336 -0.47964,0.49049 -0.24006,-0.003 -0.25042,-0.52873 -0.49048,-0.52739 z m 0.34725,11.8738 c 0.0553,0.003 0.11575,0.021 0.17796,0.0456 l 1.61471,1.47581 1.92724,1.04178 1.90987,0.69448 2.04879,0.0522 c 0.19833,0.0422 0.40984,0.0562 0.45142,0.43406 v 11.875924 c 0.023,0.31734 -0.0926,0.48702 -0.41671,0.4341 h -7.65686 c -0.37849,0.009 -0.37103,-0.23894 -0.4167,-0.45143 V 64.760993 c 0.0655,-0.28917 0.1944,-0.38694 0.36028,-0.37547 z"
     sodipodi:nodetypes="ssccccccccccccccccssssscccccccccssssssscccccccccccssc"
     inkscape:label="profile_left" />
  <path
     style="fill:#5e5e5e;fill-rule:evenodd;stroke:#000000;stroke-width:0.0298261"
     d="M 80.492422,57.012893 77.99562,56.864919 c -0.310077,-0.06359 -0.551889,-0.273551 -0.52773,-0.522066 0.0464,-0.477099 0.407536,-0.850048 0.707026,-1.178176 1.211637,-1.356175 2.652819,-2.257645 4.514886,-2.325381 l 1.254915,-0.0044 39.660713,4.115178 -0.32032,3.062869 -33.698339,-3.483252 c -0.166207,0.02526 -0.308365,0.09928 -0.411089,0.253462 -0.05468,0.121172 -0.08488,0.245967 -0.02801,0.383781 0.417407,0.738598 0.424632,1.572596 0.369518,2.365643 0.03602,0.964716 -0.383571,1.561846 -0.60275,2.299996 -0.05878,0.198085 0.135856,0.502693 0.380916,0.497189 l 16.771394,-0.376609 18.14795,1.926666 0.0314,0.796565 -1.59292,0.02651 c 0,0 -0.1724,-0.495194 -0.38304,-0.50309 -0.23783,-0.009 -0.23638,0.520129 -0.47385,0.534056 -0.24614,0.01455 -0.30566,-0.499788 -0.55205,-0.492047 -0.24725,0.0078 -0.27469,0.532998 -0.52205,0.527729 -0.23754,-0.0052 -0.24192,-0.53229 -0.47943,-0.527808 -0.23266,0.0047 -0.21741,0.518839 -0.44971,0.53421 -0.24294,0.01604 -0.29728,-0.511537 -0.54,-0.491984 -0.22426,0.01819 -0.19627,0.501348 -0.41948,0.528359 -0.25645,0.031 -0.35527,-0.496895 -0.61248,-0.474318 -0.20706,0.0183 -0.21143,0.449783 -0.41912,0.461993 -0.24642,0.01455 -0.31205,-0.504036 -0.55813,-0.486052 -0.23915,0.01751 -0.22857,0.532026 -0.46786,0.546158 -0.24146,0.01429 -0.29198,-0.495388 -0.53395,-0.491937 -0.22594,0.0033 -0.25946,0.475061 -0.48554,0.47365 -0.23756,-0.0015 -0.26627,-0.51188 -0.5037,-0.503817 -0.2493,0.0083 -0.24273,0.557081 -0.49215,0.564108 -0.25455,0.0071 -0.27915,-0.553141 -0.53359,-0.546232 -0.23645,0.0064 -0.23143,0.524879 -0.46787,0.534061 -0.24027,0.0093 -0.2756,-0.515072 -0.5158,-0.503896 -0.24377,0.01142 -0.23011,0.547627 -0.47398,0.558188 -0.25283,0.01107 -0.2868,-0.543468 -0.5397,-0.534206 -0.24932,0.0092 -0.24275,0.558545 -0.49213,0.564112 -0.24608,0.0055 -0.26351,-0.533183 -0.50955,-0.534021 -0.25042,-8.56e-4 -0.27216,0.549959 -0.52215,0.539791 -0.23257,-0.0095 -0.21037,-0.538729 -0.44315,-0.539647 -0.23699,-9.38e-4 -0.21895,0.534327 -0.45582,0.546233 -0.25721,0.01302 -0.2945,-0.549435 -0.55175,-0.54031 -0.25632,0.0092 -0.25387,0.565344 -0.51029,0.576068 -0.24319,0.01026 -0.28493,-0.516784 -0.52784,-0.503972 -0.2254,0.01211 -0.21208,0.508839 -0.43753,0.516177 -0.25574,0.0083 -0.27794,-0.562784 -0.53359,-0.552266 -0.24289,0.0098 -0.21905,0.551536 -0.46197,0.564295 -0.24145,0.01259 -0.27385,-0.51329 -0.51571,-0.509929 -0.25191,0.004 -0.27039,0.544555 -0.5222,0.545831 -0.2402,8.55e-4 -0.2633,-0.52026 -0.50363,-0.515887 -0.23497,0.0041 -0.23897,0.51771 -0.47379,0.521984 -0.24022,0.0046 -0.26038,-0.519905 -0.50362,-0.515884 -0.24315,0.004 -0.25168,0.540368 -0.49804,0.545978 -0.24579,0.0055 -0.27606,-0.534366 -0.52169,-0.522033 -0.24,0.01202 -0.21582,0.546949 -0.45589,0.558303 -0.27561,0.01321 -0.30652,-0.609072 -0.58162,-0.588763 -0.24995,0.01862 -0.19391,0.593139 -0.44413,0.606639 -0.25137,0.01365 -0.25749,-0.562285 -0.5094,-0.558153 -0.25249,0.004 -0.23986,0.565575 -0.49219,0.576178 -0.24437,0.01026 -0.27732,-0.521749 -0.52173,-0.516003 -0.23907,0.0055 -0.24661,0.523718 -0.485891,0.52795 -0.255989,0.0045 -0.283816,-0.554168 -0.539623,-0.54627 -0.230916,0.007 -0.225199,0.505687 -0.455681,0.522106 -0.229204,0.01641 -0.292973,-0.465023 -0.522143,-0.449642 -0.216084,0.01445 -0.215344,0.468431 -0.431316,0.48605 -0.24676,0.02009 -0.329213,-0.481614 -0.576339,-0.468065 -0.230066,0.01266 -0.255175,0.491742 -0.485629,0.491757 -0.236124,1.55e-4 -0.261619,-0.510762 -0.497683,-0.503784 -0.239385,0.007 -0.234411,0.532295 -0.473888,0.540086 -0.23733,0.0075 -0.266303,-0.505905 -0.503701,-0.503816 -0.239052,0.0023 -0.259075,0.510482 -0.497856,0.515805 -0.258926,0.006 -0.305548,-0.552662 -0.563854,-0.534352 -0.247309,0.01746 -0.21451,0.571857 -0.462067,0.582391 -0.24174,0.01027 -0.255679,-0.526463 -0.497521,-0.527909 -0.239029,-0.0014 -0.259057,0.507581 -0.497856,0.515808 -0.223626,0.0076 -0.274509,-0.453789 -0.498028,-0.449486 -0.217472,0.0042 -0.251841,0.425219 -0.467312,0.455665 -0.198359,0.02807 -0.315384,-0.380875 -0.533891,-0.504005 -0.213204,-0.120153 -0.230105,0.525255 -0.467842,0.540124 -0.238839,0.01489 -0.294742,-0.484116 -0.534009,-0.479869 -0.241731,0.004 -0.280176,0.503622 -0.521926,0.503598 -0.238952,1.37e-4 -0.276917,-0.503729 -0.515817,-0.497866 -0.227601,0.0056 -0.23991,0.497141 -0.467583,0.497897 -0.22898,9.23e-4 -0.244607,-0.499276 -0.473577,-0.497608 -0.250519,0.0017 -0.259734,0.544861 -0.510155,0.551937 -0.244533,0.0069 -0.283538,-0.523788 -0.527794,-0.510001 -0.209789,0.01192 -0.191499,0.472553 -0.401169,0.486242 -0.242834,0.01604 -0.290593,-0.503552 -0.533899,-0.497976 -0.248816,0.0054 -0.273341,0.526605 -0.52211,0.53376 -0.243401,0.0069 -0.296742,-0.503366 -0.539968,-0.491975 -0.240399,0.01144 -0.247365,0.502182 -0.485916,0.53398 -0.751934,0.100228 -2.427696,-0.05844 -2.425766,-0.01944 -1.029743,-0.08943 -2.015741,-0.530907 -2.902314,-1.169536 -0.750424,-0.622431 -1.400246,-1.26578 -1.702871,-1.98131 -0.0795,-0.125167 -0.130615,-0.253936 0.02818,-0.409372 0.19726,-0.313312 0.299089,-0.209226 0.436736,-0.261828 0.816581,-0.140458 1.64498,-0.238552 2.493009,-0.266361 0.749309,0.526744 1.492911,1.065051 2.527847,1.01368 0.766683,-0.01489 1.572673,-0.202889 2.584622,-1.298183 0.509548,-0.687716 0.680192,-1.425951 0.627719,-2.197454 -0.05149,-0.926043 -0.467702,-1.676879 -1.180555,-2.285276 -0.743003,-0.560273 -1.586229,-0.848635 -2.606831,-0.655817 -0.594323,0.01272 -1.346552,0.477047 -2.135547,1.046494 z"
     id="compensator_left"
     sodipodi:nodetypes="ccscccccccccssccccsssssssssssssssssssssssssssssssssssasasssssssssssssssssssssssssssssssssssssscccccccccccc"
     inkscape:label="compensator_left">
    <title
       id="title3">metal</title>
  </path>
  <path
     style="fill:#5e5e5e;fill-rule:evenodd;stroke:#000000;stroke-width:0.0298261"
     d="m 146.88155,61.440795 2.4968,0.147974 c 0.31007,0.06359 0.55188,0.273551 0.52772,0.522062 -0.0464,0.477098 -0.40755,0.850051 -0.70703,1.178177 -1.21166,1.356175 -2.65284,2.257646 -4.51487,2.325379 l -1.25492,0.0044 -39.66075,-4.11518 0.32035,-3.062868 33.69835,3.483251 c 0.16622,-0.02525 0.30835,-0.09928 0.41106,-0.253463 0.0547,-0.121172 0.085,-0.245964 0.0286,-0.383774 -0.41742,-0.738598 -0.42465,-1.572599 -0.36953,-2.365643 -0.0359,-0.964714 0.38357,-1.561846 0.60276,-2.299999 0.0586,-0.198055 -0.13585,-0.50269 -0.38091,-0.497188 l -16.77141,0.376609 -18.14792,-1.926667 -0.0314,-0.796561 1.59291,-0.02651 c 0,0 0.17238,0.495192 0.38303,0.503085 0.23783,0.009 0.23638,-0.520126 0.47384,-0.534053 0.24613,-0.01455 0.3057,0.499788 0.55205,0.492048 0.24726,-0.0078 0.27468,-0.533001 0.52207,-0.52773 0.23756,0.0052 0.24193,0.53229 0.47945,0.527809 0.23265,-0.0047 0.2174,-0.518841 0.4497,-0.534214 0.24293,-0.01604 0.29727,0.511539 0.53997,0.491984 0.22427,-0.01818 0.19627,-0.501344 0.41952,-0.528355 0.25644,-0.03101 0.35524,0.496894 0.61248,0.474315 0.20704,-0.01828 0.21143,-0.449784 0.4191,-0.461992 0.24615,-0.01455 0.31207,0.504036 0.55811,0.486054 0.23914,-0.01751 0.22856,-0.53203 0.4679,-0.546162 0.24146,-0.01429 0.29194,0.495388 0.53393,0.491938 0.22592,-0.0033 0.25945,-0.475058 0.48554,-0.473647 0.23758,0.0015 0.26628,0.51188 0.5037,0.503813 0.24932,-0.0083 0.24273,-0.557079 0.49212,-0.564106 0.25456,-0.0071 0.27915,0.553143 0.53362,0.546231 0.23676,-0.0064 0.23145,-0.524876 0.46789,-0.534061 0.24027,-0.0093 0.27559,0.515074 0.51575,0.503898 0.24378,-0.01142 0.23013,-0.54763 0.47399,-0.558187 0.25282,-0.01107 0.28681,0.543469 0.53974,0.534207 0.24931,-0.0092 0.24273,-0.558548 0.49211,-0.564117 0.24608,-0.0055 0.26352,0.533188 0.50957,0.534023 0.25041,8.56e-4 0.27216,-0.549956 0.52214,-0.539789 0.23256,0.0095 0.21037,0.538729 0.44316,0.539648 0.23699,9.33e-4 0.21895,-0.534328 0.45582,-0.546236 0.25721,-0.01302 0.2945,0.549438 0.55175,0.540312 0.25632,-0.0092 0.25387,-0.565345 0.51029,-0.576067 0.24319,-0.01026 0.28491,0.516782 0.52783,0.503968 0.2251,-0.01182 0.21208,-0.508839 0.43754,-0.516173 0.25573,-0.0083 0.27792,0.562779 0.53359,0.552262 0.24289,-0.01 0.21905,-0.551533 0.46194,-0.564291 0.24145,-0.01259 0.27415,0.513288 0.51574,0.509929 0.25191,-0.004 0.27038,-0.544557 0.52218,-0.545832 0.24022,-8.54e-4 0.26331,0.520256 0.50363,0.515885 0.23498,-0.0041 0.2387,-0.517714 0.47377,-0.521986 0.24024,-0.0046 0.26038,0.519908 0.50362,0.515884 0.24344,-0.004 0.25168,-0.540368 0.49806,-0.545978 0.24607,-0.0055 0.27606,0.534368 0.52171,0.522038 0.23998,-0.01202 0.21581,-0.54695 0.45589,-0.558308 0.2756,-0.01321 0.30648,0.609076 0.58161,0.588768 0.24995,-0.01862 0.19391,-0.59314 0.44413,-0.606643 0.25139,-0.01365 0.2575,0.562288 0.50938,0.558153 0.2525,-0.004 0.23987,-0.565575 0.49222,-0.576175 0.24436,-0.01026 0.27731,0.521748 0.52173,0.516004 0.23907,-0.0055 0.24661,-0.523718 0.48585,-0.527951 0.256,-0.0045 0.28382,0.554169 0.53967,0.546269 0.2309,-0.007 0.2252,-0.505685 0.45566,-0.522104 0.22922,-0.01641 0.29298,0.465023 0.52213,0.44964 0.21607,-0.01445 0.21534,-0.468434 0.43132,-0.486049 0.24674,-0.02009 0.3292,0.481614 0.57632,0.468061 0.23007,-0.01266 0.25518,-0.491742 0.48567,-0.491757 0.23613,-1.55e-4 0.26161,0.510765 0.49766,0.503787 0.23937,-0.007 0.23441,-0.532295 0.47387,-0.540086 0.23735,-0.0075 0.26632,0.505903 0.50373,0.503816 0.23905,-0.0023 0.2588,-0.510485 0.49787,-0.515808 0.25893,-0.006 0.30554,0.552664 0.56384,0.534354 0.24732,-0.01746 0.21451,-0.571854 0.46205,-0.582393 0.24173,-0.01013 0.25568,0.526468 0.49754,0.527911 0.23903,0.0014 0.25907,-0.507581 0.49787,-0.515805 0.22361,-0.0076 0.27451,0.453789 0.49798,0.449481 0.21748,-0.0042 0.25186,-0.425218 0.46736,-0.455665 0.19834,-0.02807 0.31537,0.380875 0.53388,0.504008 0.2132,0.120153 0.22999,-0.525258 0.46782,-0.540123 0.23886,-0.01489 0.29473,0.484116 0.53404,0.479867 0.24169,-0.004 0.28005,-0.503621 0.5219,-0.5036 0.23904,-1.37e-4 0.27683,0.503731 0.51582,0.497866 0.22768,-0.0056 0.24002,-0.497136 0.46761,-0.497897 0.22882,-9.24e-4 0.24445,0.499275 0.47355,0.497608 0.25044,-0.0017 0.25987,-0.544858 0.51014,-0.551934 0.24463,-0.0069 0.28371,0.523786 0.52783,0.510003 0.20963,-0.01192 0.19143,-0.472556 0.40113,-0.486243 0.24293,-0.01604 0.29061,0.50355 0.53393,0.497976 0.2487,-0.0054 0.27347,-0.526604 0.52211,-0.533759 0.24346,-0.0069 0.29672,0.503362 0.53995,0.491975 0.24028,-0.01144 0.24737,-0.502187 0.48593,-0.533985 0.75191,-0.100228 2.42769,0.05844 2.42576,0.01944 1.02975,0.08943 2.01574,0.530908 2.90231,1.169536 0.75042,0.622431 1.40026,1.265775 1.70288,1.981311 0.0796,0.125167 0.13071,0.253936 -0.0287,0.409363 -0.19717,0.313318 -0.2991,0.209228 -0.43674,0.26183 -0.81658,0.140458 -1.64498,0.23855 -2.493,0.266359 -0.74932,-0.526742 -1.49292,-1.065051 -2.52785,-1.013675 -0.7667,0.01487 -1.57268,0.202888 -2.58461,1.298183 -0.50956,0.687712 -0.68021,1.425951 -0.62774,2.197452 0.0515,0.926043 0.46772,1.676881 1.18057,2.285274 0.74302,0.560272 1.58622,0.848635 2.60683,0.655816 0.59433,-0.01272 1.34654,-0.477045 2.13556,-1.046492 z"
     id="compensator_right"
     sodipodi:nodetypes="ccscccccccccssccccsssssssssssssssssssssssssssssssssssasasssssssssssssssssssssssssssssssssssssscccccccccccc"
     inkscape:label="compensator_right">
    <title
       id="title4">metal</title>
  </path>
</svg>
