<?xml version="1.0" encoding="UTF-8" standalone="no"?>
<!-- Created with Inkscape (http://www.inkscape.org/) -->

<svg
   width="210mm"
   height="297mm"
   viewBox="0 0 210 297"
   version="1.1"
   id="svg1"
   inkscape:version="1.4 (86a8ad7, 2024-10-11)"
   sodipodi:docname="DSHA-0-075-corner.svg"
   xmlns:inkscape="http://www.inkscape.org/namespaces/inkscape"
   xmlns:sodipodi="http://sodipodi.sourceforge.net/DTD/sodipodi-0.dtd"
   xmlns="http://www.w3.org/2000/svg"
   xmlns:svg="http://www.w3.org/2000/svg">
  <sodipodi:namedview
     id="namedview1"
     pagecolor="#ffffff"
     bordercolor="#000000"
     borderopacity="0.25"
     inkscape:showpageshadow="2"
     inkscape:pageopacity="0.0"
     inkscape:pagecheckerboard="0"
     inkscape:deskcolor="#d1d1d1"
     inkscape:document-units="mm"
     inkscape:zoom="0.74016561"
     inkscape:cx="430.3091"
     inkscape:cy="254.67273"
     inkscape:window-width="2560"
     inkscape:window-height="1377"
     inkscape:window-x="-8"
     inkscape:window-y="-8"
     inkscape:window-maximized="1"
     inkscape:current-layer="svg1" />
  <defs
     id="defs1" />
  <path
     style="fill:#5e5e5e;fill-rule:evenodd;stroke:#000000;stroke-width:0.0422391"
     d="M 39.780498,61.238433 V 59.97056 L 58.52989,57.3396 c 0,0 0.2027,0.46797 0.41205,0.475456 0.23895,0.0091 0.26826,-0.508976 0.50723,-0.507162 0.25032,6.46e-4 0.27295,0.546611 0.52306,0.53885 0.24324,-0.0083 0.23212,-0.543599 0.47547,-0.554708 0.25754,-0.01267 0.2975,0.556483 0.55462,0.538866 0.2141,-0.0146 0.18315,-0.482916 0.39629,-0.507177 0.25017,-0.027 0.33597,0.501505 0.58641,0.475475 0.21649,-0.0223 0.19417,-0.505499 0.41203,-0.507164 0.25501,-6.55e-4 0.23646,0.581979 0.49136,0.586402 0.24513,0.0011 0.24648,-0.536235 0.49131,-0.546753 0.22795,-0.0091 0.27139,0.475746 0.49921,0.467515 0.23734,-0.0091 0.24611,-0.521949 0.48352,-0.523034 0.24664,-6.52e-4 0.26035,0.539037 0.50708,0.53889 0.23921,-9.2e-5 0.25372,-0.497859 0.49137,-0.52302 0.40582,-0.04287 0.59821,0.698328 1.0064,0.697384 0.38699,-6.56e-4 0.56676,-0.71129 0.9509,-0.665695 0.24145,0.02694 0.23985,0.539323 0.48332,0.546813 0.25411,0.0083 0.28488,-0.541953 0.53887,-0.538853 0.22997,6.52e-4 0.24597,0.497343 0.4754,0.499217 0.23367,6.27e-4 0.25829,-0.508166 0.49138,-0.499217 0.22098,0.0091 0.20725,0.497792 0.42796,0.507146 0.25019,0.01273 0.28076,-0.531887 0.53098,-0.530937 0.24489,6.46e-4 0.27076,0.53009 0.51513,0.523008 0.22839,-0.0056 0.22385,-0.503338 0.45171,-0.515055 0.24838,-0.01322 0.29829,0.515825 0.54672,0.507151 0.23152,-0.0083 0.24379,-0.507151 0.47549,-0.507151 0.23177,0 0.24369,0.507151 0.47536,0.507151 0.23182,0 0.24421,-0.497602 0.47574,-0.507151 0.2595,-0.01273 0.31917,0.538848 0.5783,0.522984 0.23364,-0.01453 0.22605,-0.518139 0.45967,-0.530937 0.24816,-0.01359 0.29839,0.519123 0.5468,0.507162 0.22241,-0.0093 0.22097,-0.503444 0.44385,-0.499209 0.23258,0.0011 0.21108,0.5322 0.44355,0.538816 0.23741,0.0055 0.24608,-0.524841 0.48355,-0.522978 0.23746,6.52e-4 0.23757,0.524375 0.47545,0.530914 0.25759,0.0055 0.28906,-0.555607 0.54668,-0.546752 0.24524,0.0091 0.2383,0.554417 0.48358,0.554691 0.25259,2.25e-4 0.24668,-0.565064 0.49917,-0.570579 0.24479,-0.0055 0.26254,0.530262 0.50725,0.530943 0.21651,6.04e-4 0.2349,-0.463906 0.45175,-0.467546 0.22798,-0.0011 0.26314,0.476452 0.49107,0.475475 0.24104,-6.34e-4 0.27433,-0.51017 0.51519,-0.507146 0.2164,6.52e-4 0.23521,0.457207 0.45159,0.467515 0.23967,0.01288 0.30738,-0.483706 0.54705,-0.467515 0.22932,0.01506 0.22928,0.510442 0.45945,0.515059 0.22422,0.0011 0.24379,-0.473672 0.46762,-0.483388 0.21323,-0.0091 0.27033,0.425713 0.48322,0.420004 0.22424,-0.0055 0.25935,-0.472989 0.48362,-0.467513 0.23517,0.0055 0.24796,0.515055 0.4832,0.515055 0.23559,0 0.2483,-0.507787 0.48355,-0.515055 0.24672,-0.0083 0.29271,0.52062 0.53885,0.507151 0.235735,-0.0132 0.223825,-0.529515 0.459525,-0.538879 0.25015,-0.0091 0.28084,0.536912 0.53106,0.530937 0.23529,-0.0055 0.23975,-0.519935 0.47545,-0.52302 0.26309,-6.55e-4 0.28322,0.57503 0.54663,0.570563 0.23749,-0.0011 0.23791,-0.530914 0.47549,-0.530914 0.23748,0 0.23787,0.528074 0.4758,0.530914 0.23884,6.53e-4 0.25258,-0.504363 0.491,-0.522999 0.40357,-0.03065 0.55435,0.743215 0.95897,0.744862 0.42205,6.55e-4 0.58557,-0.80309 1.00649,-0.768615 0.24569,0.02097 0.26037,0.542543 0.50699,0.538816 0.24716,-6.57e-4 0.24431,-0.554839 0.49139,-0.554704 0.24344,7.7e-5 0.23979,0.5478 0.48359,0.546785 0.24121,-6.41e-4 0.23341,-0.548493 0.4754,-0.546785 0.2453,6.31e-4 0.2302,0.554235 0.47541,0.56264 0.24256,0.0091 0.26444,-0.513164 0.50703,-0.522999 0.25621,-0.0091 0.32414,0.537374 0.57859,0.507144 0.21827,-0.02426 0.16034,-0.526052 0.38041,-0.53885 0.2407,-0.01448 0.24162,0.533174 0.48324,0.53885 0.25977,0.0055 0.28728,-0.544225 0.54702,-0.554708 0.39105,-0.01503 0.49789,0.750499 0.88917,0.76722 0.41694,0.01782 0.59877,-0.774389 1.01429,-0.734083 0.2262,0.02195 0.23747,0.499739 0.46497,0.498742 0.24295,-6.59e-4 0.24986,-0.532652 0.49321,-0.53793 0.25619,-0.0055 0.28727,0.55236 0.54345,0.543537 0.23063,-0.0083 0.22382,-0.514418 0.45395,-0.521121 0.24568,-0.0083 0.26996,0.533304 0.51551,0.526739 0.22618,-0.0055 0.22208,-0.503955 0.44811,-0.509967 0.23021,-0.0055 0.25256,0.485135 0.481875,0.493129 0.24978,0.0091 0.31055,-0.510442 0.56037,-0.498718 0.22228,0.01282 0.232,0.48354 0.45386,0.487516 0.2325,0.0011 0.26072,-0.495029 0.4932,-0.493117 0.23925,6.33e-4 0.25993,0.521852 0.49873,0.515531 0.22742,-0.0055 0.22053,-0.508866 0.44805,-0.515531 0.23476,-0.0055 0.25832,0.500527 0.49352,0.504319 0.24811,0.0011 0.28924,-0.516782 0.53767,-0.515503 0.24061,6.28e-4 0.27526,0.507101 0.5156,0.504301 0.21462,-6.53e-4 0.23426,-0.450442 0.44841,-0.459483 0.25624,-0.01262 0.32749,0.53346 0.58277,0.50429 0.22008,-0.02378 0.17074,-0.521853 0.39222,-0.537924 0.24532,-0.01782 0.26995,0.528241 0.51531,0.526734 0.23287,-6.48e-4 0.24931,-0.500354 0.48212,-0.504319 0.23472,-0.0011 0.26901,0.498386 0.50419,0.493116 0.23477,-0.0054 0.24717,-0.51156 0.48191,-0.515531 0.2379,-0.0011 0.26667,0.502984 0.50418,0.504319 0.23063,6.51e-4 0.26341,-0.481818 0.4932,-0.481904 0.21871,-4.7e-5 0.2517,0.456874 0.47075,0.459481 0.21923,6.57e-4 0.2626,-0.446877 0.48189,-0.448262 0.21695,-6.3e-4 0.26493,0.439937 0.4818,0.437068 0.23797,-6.55e-4 0.27767,-0.498287 0.51559,-0.493089 0.24832,0.0054 0.26764,0.545042 0.51559,0.537918 0.2348,-0.0055 0.22423,-0.53113 0.45942,-0.537918 0.25392,-0.0083 0.2731,0.553282 0.52661,0.549121 0.24651,-0.0011 0.24743,-0.546575 0.49321,-0.549121 0.24063,-6.63e-4 0.25299,0.526886 0.49318,0.526706 0.23102,-1.48e-4 0.24077,-0.500348 0.47079,-0.504319 0.23755,-0.0011 0.26638,0.502859 0.50416,0.504319 0.21925,6.51e-4 0.2526,-0.451802 0.47054,-0.45949 0.22523,-0.0083 0.29042,0.442531 0.51559,0.437067 0.23464,-0.0055 0.28032,-0.497174 0.51556,-0.481896 0.24655,0.01544 0.22428,0.571809 0.47084,0.571569 0.2415,-2.38e-4 0.21822,-0.553812 0.45943,-0.560379 0.23791,-0.0055 0.24342,0.524039 0.4818,0.526734 0.248,6.38e-4 0.26851,-0.515325 0.51559,-0.537924 0.39451,-0.03614 0.56767,0.691513 0.96364,0.694836 0.4188,6.55e-4 0.61653,-0.776873 1.03113,-0.717223 0.24203,0.03494 0.21469,0.567489 0.45948,0.57155 0.2466,0.0011 0.23472,-0.548482 0.48184,-0.560347 0.24752,-0.01289 0.28947,0.525816 0.53803,0.515503 0.21324,-0.0091 0.21131,-0.471712 0.42565,-0.481904 0.23424,-0.01267 0.27983,0.484636 0.51562,0.481904 0.24605,-6.59e-4 0.28028,-0.523738 0.52687,-0.515503 0.23434,0.0083 0.23434,0.518701 0.47084,0.526715 0.22426,0.0083 0.25668,-0.468142 0.48179,-0.470702 0.23114,-6.27e-4 0.2754,0.478472 0.5042,0.470702 0.24073,-0.0083 0.25364,-0.532399 0.4932,-0.526715 0.23114,0.0055 0.21794,0.513814 0.44816,0.526715 0.25207,0.01447 0.29854,-0.523807 0.54925,-0.515531 0.23115,0.0083 0.24082,0.513105 0.47048,0.504319 0.21418,-0.0091 0.40361,-0.504319 0.40361,-0.504319 h 3.04804 v 0.773264 c 0,0 -1.43186,0.996855 -1.94967,1.681063 -0.41096,0.542315 -0.86312,1.84917 -0.86312,1.84917 0.0455,0.219401 0.18632,0.39691 0.43706,0.526739 h 3.37351 c 0.14975,-0.161797 0.29786,-0.311814 0.44842,-0.414704 1.26735,-1.228141 2.44242,-1.016951 3.49609,-0.504277 0.88052,0.428336 1.43072,1.690713 1.43483,2.566364 7e-4,0.853729 -0.39126,1.602579 -1.03111,2.084496 -0.87191,0.65487 -1.8989,0.803983 -2.8914,0.470702 -0.56582,-0.189877 -1.50198,-1.053434 -1.50198,-1.053434 h -3.24982 c 0,0 -0.39094,0.04715 -0.49321,0.190527 -0.10931,0.15203 -0.006,0.560339 -0.006,0.560339 0,0 1.19279,2.122746 2.11805,2.868956 0.88639,0.714824 3.11556,1.400896 3.11556,1.400896 l 0.95256,0.04481 2.94734,0.302632 v 2.364678 H 123.29784 V 61.202886 Z"
     id="profile_left"
     sodipodi:nodetypes="cccssssssssssssssssssssssssssssssssssssssssssssssssssssssssssssssssssssssssssssssssssssssssssssssssssssssssssssssssssssssssssssssssscccsccccssssccscsccccccc"
     inkscape:label="profile_left" />
  <rect
     style="fill:#ddd5d5;fill-opacity:0.768047;fill-rule:evenodd;stroke:#b81e1e;stroke-width:0.0184572"
     id="concrete_left"
     width="140.11058"
     height="49.982468"
     x="-16.87364"
     y="63.566406" />
  <ellipse
     style="fill:#b4cdd0;fill-opacity:0;fill-rule:evenodd;stroke:#b81e1e;stroke-width:0.00016359"
     id="screw_left"
     cx="-66.315361"
     cy="-58.113285"
     rx="0.049918205"
     ry="0.032774579"
     transform="scale(-1)"
     inkscape:label="screw_left" />
  <rect
     style="fill:#e1ecec;fill-opacity:0.77;fill-rule:evenodd;stroke:#b81e1e;stroke-width:0.0126854"
     id="finish_left"
     width="140.11874"
     height="2.0309176"
     x="-16.897642"
     y="61.423679"
     inkscape:label="finish_left" />
  <rect
     style="fill:#e1ecec;fill-opacity:0.77;fill-rule:evenodd;stroke:#b81e1e;stroke-width:0.0144776"
     id="cover_left"
     width="140.11621"
     height="0.12596738"
     x="-16.884382"
     y="61.247318"
     inkscape:label="cover_left" />
  <rect
     style="fill:#404242;fill-opacity:0.341246;fill-rule:evenodd;stroke:#b81e1e;stroke-width:0.0219339"
     id="shadow"
     width="186.69521"
     height="0.01131021"
     x="36.561111"
     y="113.38002"
     inkscape:label="shadow" />
  <ellipse
     style="opacity:0;fill:none;fill-opacity:0;fill-rule:evenodd;stroke-width:0.000191947;stroke-opacity:0"
     id="screw_right"
     cx="201.89313"
     cy="21.699623"
     rx="0.0049418169"
     ry="0.0015055466"
     inkscape:label="screw_right" />
  <path
     style="fill:#5e5e5e;fill-rule:evenodd;stroke:#000000;stroke-width:0.0441661"
     d="m 196.6196,65.363394 h 3.29292 c 0.0846,-0.0709 0.72166,0.39848 0.52726,0.78512 -0.22127,0.44001 -0.41877,0.93966 -0.67956,1.37107 -0.25974,0.4296 -0.59704,0.81424 -0.96096,1.16012 -0.40281,0.38249 -1.33586,0.99606 -1.33586,0.99606 v 0.71484 h 1.24207 c 0,0 0.13873,-0.47882 0.33969,-0.50389 0.24462,-0.0302 0.30469,0.50467 0.55083,0.49218 0.24289,-0.0129 0.24894,-0.54162 0.49218,-0.53907 0.24937,0.002 0.24332,0.55156 0.49216,0.5625 0.25932,0.0129 0.30298,-0.54335 0.5625,-0.53903 0.23467,0.004 0.25759,0.49835 0.49214,0.50389 0.23467,0.004 0.28135,-0.49689 0.51559,-0.48047 0.21048,0.0129 0.39848,0.49218 0.39848,0.49218 h 1.12499 V 8.783206 h -0.86049 l -1.43049,4.227836 v 1.593692 c 0,0 0.52004,0.16294 0.53318,0.38075 0.013,0.24852 -0.54258,0.255 -0.55082,0.50389 -0.013,0.25975 0.54603,0.30297 0.53907,0.56254 -0.013,0.25672 -0.56799,0.27055 -0.5625,0.52731 0,0.25759 0.58077,0.24635 0.58592,0.50389 0,0.23468 -0.50865,0.24548 -0.5156,0.48046 -0.013,0.22647 0.47147,0.2658 0.46871,0.49218 0,0.23727 -0.50748,0.26623 -0.5038,0.50389 0,0.26795 0.58716,0.28264 0.58591,0.55077 0,0.2766 -0.6214,0.28611 -0.60938,0.5625 0.013,0.26147 0.61336,0.21869 0.62107,0.48046 0.013,0.24332 -0.4963,0.24289 -0.55075,0.48046 -0.0891,0.38897 0.47639,0.70257 0.46875,1.10152 -0.013,0.37557 -0.55473,0.65122 -0.48051,1.01953 0.0432,0.20615 0.45945,0.21177 0.46871,0.42182 0.013,0.23467 -0.48315,0.28049 -0.48037,0.51559 0,0.2403 0.50517,0.27531 0.50384,0.51561 0,0.23208 -0.47995,0.26061 -0.49218,0.49217 -0.013,0.23598 0.45099,0.31463 0.44528,0.55078 -0.013,0.24073 -0.48724,0.29864 -0.48037,0.53907 0.013,0.25413 0.53763,0.28481 0.53902,0.53902 0,0.25672 -0.55653,0.29432 -0.53902,0.55079 0.0173,0.24158 0.56876,0.20312 0.57413,0.44532 0.013,0.27141 -0.62526,0.25585 -0.62102,0.52731 0,0.26969 0.62606,0.23424 0.6328,0.50389 0.013,0.26579 -0.58653,0.2619 -0.59771,0.52735 -0.013,0.25413 0.53448,0.29649 0.5274,0.55074 -0.013,0.24591 -0.54331,0.25802 -0.53907,0.50393 0,0.24375 0.54386,0.23684 0.55074,0.48046 0.013,0.2403 -0.51289,0.26364 -0.51565,0.50389 0,0.2403 0.51322,0.27531 0.50398,0.515601 -0.013,0.25456 -0.57464,0.24937 -0.57429,0.50389 3.3e-4,0.24375 0.53622,0.23727 0.55081,0.48046 0.0172,0.26234 -0.54303,0.32371 -0.52735,0.58592 0.013,0.2485 0.55562,0.24332 0.5625,0.49217 0.013,0.24592 -0.52294,0.26969 -0.52727,0.5156 0,0.23209 0.48745,0.27185 0.48037,0.50393 -0.013,0.22388 -0.48245,0.23339 -0.49217,0.456999 -0.013,0.27919 0.58695,0.34272 0.56249,0.62109 -0.0216,0.24116 -0.55631,0.204 -0.57416,0.44529 -0.0173,0.27141 0.58354,0.31809 0.56491,0.58946 -0.0173,0.23554 -0.54982,0.20313 -0.55518,0.43919 0,0.24851 0.56456,0.2403 0.56339,0.48889 0,0.26839 -0.66275,0.48046 -0.61314,0.52204 0.0492,0.0432 0.60869,0.24721 0.61314,0.51374 0,0.2524 -0.55848,0.25327 -0.56339,0.50545 0,0.25801 0.5563,0.28092 0.55518,0.53859 -0.002,0.24418 -0.53665,0.26147 -0.53038,0.50548 0.013,0.23295 0.51893,0.22301 0.53038,0.45574 0.013,0.25932 -0.54352,0.30384 -0.5386,0.56345 0,0.2498 0.53847,0.27185 0.5386,0.52204 9e-5,0.26968 -0.59041,0.29389 -0.58012,0.56344 0.013,0.25888 0.60048,0.23814 0.59668,0.49719 0,0.24591 -0.57322,0.21004 -0.58009,0.45574 -0.013,0.24635 0.54361,0.24246 0.55514,0.48889 0.013,0.26147 -0.54541,0.30988 -0.53853,0.57174 0.013,0.25586 0.56633,0.27444 0.55513,0.53034 -0.013,0.24721 -0.56145,0.21696 -0.57999,0.46404 -0.0172,0.24765 0.5082,0.29864 0.50544,0.54689 0,0.22647 -0.47774,0.26234 -0.47226,0.48889 0.013,0.25413 0.56022,0.26796 0.55516,0.52204 0,0.24851 -0.55996,0.24029 -0.56348,0.48885 0,0.22862 0.49073,0.23597 0.50538,0.46404 0.0173,0.25239 -0.49663,0.32716 -0.48884,0.58004 0.013,0.25196 0.52199,0.29475 0.52199,0.54689 0,0.24807 -0.51213,0.29043 -0.51373,0.53859 0,0.2148 0.43931,0.25715 0.43918,0.47234 -8e-5,0.22257 -0.45786,0.26622 -0.45566,0.48889 0,0.25802 0.55242,0.29777 0.5386,0.55515 -0.013,0.23294 -0.52982,0.21436 -0.5386,0.44748 -0.013,0.23036 0.49603,0.25023 0.49706,0.48059 0.002,0.25197 -0.53768,0.27833 -0.53858,0.5303 -7.8e-4,0.23813 0.49446,0.26752 0.50556,0.50548 0.013,0.25067 -0.49342,0.32933 -0.48062,0.58004 0.013,0.22431 0.48062,0.24765 0.48062,0.4723 0,0.21696 -0.44061,0.2403 -0.46404,0.45574 -0.0172,0.15083 0.24851,0.38119 0.24851,0.38119 v 1.62407 c -0.0696,0.29692 -0.22948,0.52973 -0.59654,0.61319 h -3.53824 v 0.74578 l 1.26782,1.00264 1.05233,1.17663 c -0.013,0 0.46737,0.81372 0.62153,1.28437 0.13096,0.39978 -0.52134,0.90051 -0.55518,0.87004 h -3.26479 c -0.7314,-0.78321 -1.57645,-1.20784 -2.5108,-1.35067 -0.0172,-0.0346 -1.54485,0.24073 -2.07976,0.82033 -0.47286,0.51249 -1.00492,1.28131 -1.03579,2.07986 -0.0303,0.79086 0.34359,1.63635 0.90315,2.19586 0.5764,0.57619 1.45167,0.72539 2.23734,0.68774 0.51127,-0.0259 0.96582,-0.12966 1.34234,-0.35613 0.40539,-0.24375 1.1475,-0.83502 1.1475,-0.83502 z"
     id="profile_right"
     sodipodi:nodetypes="ccssscccsssssssccccccsssssssssssssssssssssssssssssssssssssssssssssssssssssssssssssssssssssssssssscccccccscccsssssc"
     inkscape:label="profile_right" />
  <rect
     style="fill:#e1ecec;fill-opacity:0.77;fill-rule:evenodd;stroke:#b81e1e;stroke-width:0.00839695"
     id="finish_right"
     width="61.239105"
     height="2.0361254"
     x="-61.243305"
     y="203.91296"
     inkscape:label="finish_right"
     transform="rotate(-90)" />
  <rect
     style="fill:#e1ecec;fill-opacity:0.77;fill-rule:evenodd;stroke:#b81e1e;stroke-width:0.00963666"
     id="cover_right"
     width="61.21777"
     height="0.12774111"
     x="-61.228786"
     y="203.73724"
     inkscape:label="cover_right"
     transform="rotate(-90)" />
  <path
     style="fill:#e1ecec;fill-opacity:0.77;fill-rule:evenodd;stroke:#b81e1e;stroke-width:0.00990152"
     d="m 205.96053,0.01554691 20.9385,-6e-6 V 113.42588 H 203.71612 V 61.270106 h 2.23331 z"
     id="concrete_right"
     inkscape:label="concrete_right"
     sodipodi:nodetypes="ccccccc" />
  <path
     style="fill:#5e5e5e;fill-rule:evenodd;stroke:#000000;stroke-width:0.0298261"
     d="m 130.23879,61.748311 -2.49703,-0.144042 c -0.31018,-0.06311 -0.55232,-0.272681 -0.52856,-0.521234 0.0456,-0.477171 0.4062,-0.850689 0.70517,-1.179289 1.2095,-1.358081 2.64927,-2.261819 4.51122,-2.332487 l 1.25491,-0.0064 39.66715,4.052716 -0.3155,3.06337 -33.70378,-3.43018 c -0.16617,0.02552 -0.30821,0.09976 -0.41069,0.254109 -0.0545,0.121258 -0.0845,0.2461 -0.0274,0.383825 0.41857,0.737939 0.42711,1.571925 0.37325,2.365058 0.0375,0.964658 -0.38112,1.562448 -0.59913,2.300942 -0.0585,0.198178 0.13664,0.502479 0.3817,0.496589 l 16.77077,-0.40302 18.15097,1.898085 0.0326,0.796514 -1.59288,0.02902 c 0,0 -0.17318,-0.494921 -0.38383,-0.502486 -0.23784,-0.0086 -0.23556,0.520501 -0.47301,0.534803 -0.24611,0.01494 -0.30644,-0.499307 -0.55282,-0.491178 -0.24724,0.0082 -0.27385,0.53343 -0.52121,0.528551 -0.23755,-0.0048 -0.24277,-0.531909 -0.48027,-0.527053 -0.23265,0.005 -0.21659,0.519181 -0.44887,0.534917 -0.24291,0.01642 -0.29808,-0.511068 -0.54077,-0.491132 -0.22423,0.01855 -0.19548,0.501657 -0.41865,0.529018 -0.2564,0.03141 -0.35604,-0.496335 -0.61322,-0.473353 -0.20703,0.01863 -0.21073,0.450117 -0.4184,0.462653 -0.24639,0.01494 -0.31284,-0.503544 -0.55889,-0.485172 -0.23912,0.01788 -0.22773,0.532385 -0.467,0.546894 -0.24144,0.01467 -0.29276,-0.494928 -0.53473,-0.491095 -0.22593,0.0036 -0.2587,0.475469 -0.48479,0.474414 -0.23756,-0.0011 -0.26707,-0.51146 -0.50449,-0.503023 -0.24928,0.0087 -0.24185,0.557461 -0.49126,0.564881 -0.25454,0.0075 -0.28002,-0.5527 -0.53445,-0.54539 -0.23644,0.0068 -0.23061,0.525242 -0.46703,0.534797 -0.24026,0.0096 -0.27641,-0.514637 -0.51659,-0.503084 -0.24376,0.0118 -0.22925,0.547989 -0.4731,0.558935 -0.25281,0.01147 -0.28766,-0.543017 -0.54054,-0.533356 -0.2493,0.0096 -0.24187,0.558926 -0.49124,0.564886 -0.24607,0.0058 -0.26436,-0.532767 -0.51039,-0.533218 -0.25042,-4.62e-4 -0.2713,0.550387 -0.5213,0.540613 -0.23258,-0.0092 -0.21122,-0.538397 -0.44401,-0.538949 -0.23698,-5.64e-4 -0.2181,0.534671 -0.45495,0.546951 -0.25719,0.01342 -0.29537,-0.548971 -0.5526,-0.539441 -0.25631,0.0096 -0.25298,0.565743 -0.50938,0.576871 -0.24318,0.01065 -0.28574,-0.516334 -0.52864,-0.50314 -0.22537,0.01247 -0.21128,0.509173 -0.43672,0.516865 -0.25572,0.0087 -0.27882,-0.562346 -0.53445,-0.551425 -0.24288,0.01021 -0.21819,0.551881 -0.46108,0.565022 -0.24143,0.01297 -0.27467,-0.512858 -0.51652,-0.509116 -0.2519,0.0044 -0.26953,0.54498 -0.52134,0.546652 -0.2402,0.0012 -0.26412,-0.519844 -0.50444,-0.515093 -0.23496,0.0044 -0.23816,0.518086 -0.47296,0.52273 -0.24022,0.005 -0.26121,-0.519495 -0.50444,-0.515091 -0.24315,0.0044 -0.25082,0.540764 -0.49718,0.546762 -0.24578,0.0058 -0.2769,-0.533931 -0.52251,-0.521211 -0.23997,0.0124 -0.21496,0.547288 -0.45501,0.559021 -0.27559,0.01364 -0.30748,-0.608589 -0.58254,-0.587847 -0.24993,0.01901 -0.19299,0.593444 -0.44318,0.607338 -0.25135,0.01404 -0.25837,-0.561879 -0.51028,-0.55735 -0.25248,0.0044 -0.23897,0.565952 -0.49128,0.576952 -0.24435,0.01064 -0.27814,-0.521311 -0.52254,-0.515181 -0.23906,0.0059 -0.24578,0.524106 -0.48506,0.528715 -0.25598,0.0049 -0.28469,-0.553721 -0.54048,-0.545419 -0.23091,0.0074 -0.2244,0.50604 -0.45486,0.522822 -0.22918,0.01677 -0.29371,-0.464561 -0.52285,-0.448819 -0.21606,0.01478 -0.21461,0.468769 -0.43055,0.486729 -0.24673,0.02048 -0.32997,-0.481095 -0.57708,-0.467157 -0.23004,0.01302 -0.2544,0.492143 -0.48485,0.492521 -0.23612,5.27e-4 -0.26242,-0.51035 -0.49848,-0.503 -0.23937,0.0073 -0.23357,0.532663 -0.47303,0.540831 -0.23732,0.0079 -0.2671,-0.505484 -0.5045,-0.503021 -0.23904,0.0027 -0.25827,0.510889 -0.49704,0.516588 -0.25892,0.0064 -0.30642,-0.55218 -0.56469,-0.533463 -0.24729,0.01785 -0.21361,0.572193 -0.46115,0.583118 -0.24173,0.01065 -0.25651,-0.52606 -0.49836,-0.527125 -0.23903,-0.001 -0.25825,0.507988 -0.49704,0.516591 -0.22361,0.008 -0.27522,-0.453356 -0.49873,-0.448701 -0.21747,0.0045 -0.25117,0.425615 -0.4666,0.456401 -0.19831,0.02838 -0.31598,-0.380379 -0.53468,-0.503164 -0.21339,-0.119817 -0.22928,0.525616 -0.46699,0.54086 -0.23882,0.01526 -0.29551,-0.483651 -0.53477,-0.479028 -0.24172,0.0044 -0.27938,0.504063 -0.52113,0.504419 -0.23895,5.14e-4 -0.27771,-0.503292 -0.5166,-0.497052 -0.22759,0.0059 -0.23913,0.497518 -0.4668,0.498632 -0.22898,0.0013 -0.24539,-0.49889 -0.47436,-0.496862 -0.25051,0.0021 -0.25887,0.54527 -0.50928,0.55274 -0.24452,0.0073 -0.28437,-0.523341 -0.5286,-0.509169 -0.20977,0.01225 -0.19075,0.472854 -0.4004,0.486874 -0.24281,0.01642 -0.29139,-0.503094 -0.53468,-0.497135 -0.24881,0.0058 -0.27252,0.527035 -0.52127,0.534581 -0.24339,0.0073 -0.29754,-0.502897 -0.54075,-0.491124 -0.24038,0.01182 -0.24657,0.502571 -0.48507,0.534745 -0.75178,0.101412 -2.42779,-0.05462 -2.42579,-0.01562 -1.02989,-0.08781 -2.01658,-0.527733 -2.90416,-1.164964 -0.7514,-0.621249 -1.40223,-1.263573 -1.70599,-1.978627 -0.0797,-0.125041 -0.13101,-0.25373 0.0275,-0.409415 0.19676,-0.313623 0.29876,-0.209697 0.43632,-0.262516 0.81636,-0.141743 1.6446,-0.241142 2.49259,-0.270286 0.75014,0.525563 1.49458,1.062699 2.52944,1.009697 0.76666,-0.01609 1.57235,-0.205365 2.58257,-1.302251 0.50847,-0.688517 0.67795,-1.427021 0.62426,-2.198439 -0.0529,-0.925961 -0.47034,-1.676142 -1.18415,-2.283415 -0.74389,-0.559102 -1.58756,-0.846136 -2.60786,-0.651711 -0.5943,0.01365 -1.3458,0.479166 -2.1339,1.049856 z"
     id="compensator_left"
     sodipodi:nodetypes="ccscccccccccssccccsssssssssssssssssssssssssssssssssssasasssssssssssssssssssssssssssssssssssssscccccccccccc"
     inkscape:label="compensator_left">
    <title
       id="title3">metal</title>
  </path>
  <path
     style="fill:#5e5e5e;fill-rule:evenodd;stroke:#000000;stroke-width:0.0298261"
     d="m 196.63481,66.071659 2.49703,0.144043 c 0.31017,0.06311 0.55231,0.27268 0.52854,0.521229 -0.0457,0.477171 -0.40621,0.850692 -0.70518,1.17929 -1.20951,1.358081 -2.64927,2.261821 -4.5112,2.332486 l -1.25491,0.0064 -39.66718,-4.052719 0.31553,-3.063368 33.70379,3.430179 c 0.16619,-0.02551 0.3082,-0.09977 0.41066,-0.254109 0.0545,-0.121259 0.0846,-0.246098 0.028,-0.383819 -0.41859,-0.73794 -0.42712,-1.571928 -0.37326,-2.365059 -0.0374,-0.964656 0.38111,-1.562448 0.59914,-2.300945 0.0583,-0.198147 -0.13664,-0.502475 -0.3817,-0.496587 l -16.77079,0.403019 -18.15093,-1.898085 -0.0327,-0.796511 1.59286,-0.02902 c 0,0 0.17316,0.494921 0.38383,0.502482 0.23783,0.0086 0.23556,-0.520498 0.47299,-0.534799 0.24611,-0.01494 0.30648,0.499306 0.55282,0.491178 0.24725,-0.0082 0.27385,-0.533432 0.52124,-0.528551 0.23757,0.0048 0.24277,0.531908 0.48029,0.527054 0.23263,-0.005 0.21657,-0.519184 0.44885,-0.534922 0.24291,-0.01642 0.29808,0.51107 0.54074,0.491133 0.22424,-0.01853 0.19548,-0.501653 0.41869,-0.529016 0.25639,-0.03141 0.35602,0.496335 0.61323,0.47335 0.20701,-0.01861 0.21072,-0.450116 0.41838,-0.462651 0.24612,-0.01494 0.31286,0.503544 0.55886,0.485175 0.23912,-0.01788 0.22773,-0.53239 0.46705,-0.546898 0.24144,-0.01467 0.29271,0.494927 0.53469,0.491096 0.22592,-0.0036 0.25871,-0.475466 0.48481,-0.474411 0.23758,0.0011 0.26708,0.51146 0.50449,0.503019 0.2493,-0.0087 0.24185,-0.557461 0.49123,-0.564881 0.25454,-0.0075 0.28002,0.552704 0.53448,0.545391 0.23674,-0.0068 0.23062,-0.525241 0.46705,-0.534797 0.24025,-0.0096 0.27639,0.514639 0.51654,0.503085 0.24376,-0.0118 0.22926,-0.547992 0.47311,-0.558933 0.2528,-0.01147 0.28766,0.543016 0.54058,0.533356 0.2493,-0.0096 0.24185,-0.558929 0.49122,-0.564891 0.24607,-0.0058 0.26436,0.532772 0.51041,0.53322 0.25042,4.62e-4 0.2713,-0.550384 0.52129,-0.54061 0.23257,0.0092 0.21121,0.538397 0.44401,0.538948 0.23699,5.61e-4 0.21811,-0.534672 0.45495,-0.546953 0.2572,-0.01342 0.29537,0.548974 0.55261,0.539443 0.2563,-0.0096 0.25298,-0.565744 0.50938,-0.57687 0.24317,-0.01065 0.28573,0.516333 0.52862,0.503137 0.22508,-0.01218 0.21128,-0.509173 0.43673,-0.516862 0.25571,-0.0087 0.27881,0.562341 0.53446,0.551421 0.24288,-0.01036 0.21818,-0.551877 0.46105,-0.565018 0.24143,-0.01297 0.27495,0.512856 0.51654,0.509116 0.25191,-0.0044 0.26952,-0.544982 0.52133,-0.546653 0.24021,-0.0012 0.26412,0.51984 0.50444,0.515091 0.23496,-0.0044 0.23788,-0.518089 0.47294,-0.522731 0.24023,-0.005 0.2612,0.519497 0.50444,0.51509 0.24343,-0.0044 0.25082,-0.540764 0.49719,-0.546762 0.24607,-0.0058 0.2769,0.533933 0.52254,0.521216 0.23996,-0.0124 0.21494,-0.54729 0.455,-0.559025 0.27559,-0.01365 0.30744,0.608593 0.58254,0.587851 0.24992,-0.01901 0.19298,-0.593444 0.44317,-0.607341 0.25137,-0.01405 0.25839,0.561882 0.51027,0.55735 0.25248,-0.0044 0.23897,-0.565952 0.49131,-0.576949 0.24433,-0.01064 0.27812,0.52131 0.52254,0.515181 0.23906,-0.0059 0.24578,-0.524106 0.48501,-0.528715 0.256,-0.0049 0.28469,0.553721 0.54053,0.545418 0.23089,-0.0074 0.2244,-0.506039 0.45484,-0.522821 0.2292,-0.01677 0.29371,0.464561 0.52284,0.448817 0.21605,-0.01479 0.21461,-0.468772 0.43055,-0.486727 0.24671,-0.02048 0.32996,0.481095 0.57706,0.467152 0.23005,-0.01302 0.2544,-0.492143 0.4849,-0.492521 0.23612,-5.26e-4 0.26241,0.510353 0.49845,0.503003 0.23936,-0.0073 0.23357,-0.532663 0.47302,-0.540831 0.23733,-0.0079 0.26711,0.505483 0.50452,0.503022 0.23905,-0.0027 0.258,-0.510893 0.49706,-0.516592 0.25892,-0.0064 0.3064,0.552182 0.56468,0.533465 0.24729,-0.01785 0.21361,-0.572191 0.46113,-0.583119 0.24171,-0.01051 0.25651,0.526064 0.49837,0.527126 0.23903,0.0011 0.25827,-0.507988 0.49706,-0.516588 0.2236,-0.008 0.27522,0.453356 0.49869,0.448696 0.21746,-0.0045 0.25119,-0.425613 0.46664,-0.4564 0.1983,-0.02838 0.31597,0.380378 0.53467,0.503167 0.21339,0.119816 0.22916,-0.52562 0.46697,-0.540859 0.23883,-0.01526 0.29549,0.483651 0.5348,0.479025 0.24168,-0.0044 0.27925,-0.504061 0.5211,-0.504421 0.23904,-5.14e-4 0.27762,0.503294 0.5166,0.497053 0.22768,-0.0059 0.23924,-0.497513 0.46683,-0.498633 0.22882,-0.0013 0.24523,0.498889 0.47433,0.496862 0.25044,-0.0021 0.25902,-0.545267 0.50927,-0.552737 0.24462,-0.0073 0.28453,0.523339 0.52864,0.509171 0.20961,-0.01225 0.19068,-0.472856 0.40036,-0.486874 0.24291,-0.01642 0.2914,0.503091 0.53471,0.497135 0.24869,-0.0058 0.27264,-0.527035 0.52127,-0.534581 0.24345,-0.0073 0.29752,0.502894 0.54073,0.491124 0.24026,-0.01182 0.24657,-0.502576 0.48508,-0.534749 0.75175,-0.101413 2.42778,0.05462 2.42579,0.01562 1.0299,0.08781 2.01658,0.527732 2.90415,1.164963 0.7514,0.621249 1.40225,1.263569 1.706,1.978627 0.0798,0.125042 0.1311,0.25373 -0.0281,0.409409 -0.19667,0.313627 -0.29877,0.209698 -0.43632,0.262517 -0.81636,0.141743 -1.6446,0.24114 -2.49259,0.270284 -0.75014,-0.525561 -1.49459,-1.062698 -2.52944,-1.009692 -0.76667,0.01608 -1.57235,0.205363 -2.58256,1.302251 -0.50848,0.688514 -0.67796,1.427021 -0.62427,2.198438 0.0529,0.925961 0.47035,1.676143 1.18416,2.283412 0.7439,0.559102 1.58756,0.846136 2.60786,0.651711 0.5943,-0.01365 1.34578,-0.479166 2.13391,-1.049854 z"
     id="compensator_right"
     sodipodi:nodetypes="ccscccccccccssccccsssssssssssssssssssssssssssssssssssasasssssssssssssssssssssssssssssssssssssscccccccccccc"
     inkscape:label="compensator_right">
    <title
       id="title4">metal</title>
  </path>
</svg>
