<?xml version="1.0" encoding="UTF-8" standalone="no"?>
<!-- Created with Inkscape (http://www.inkscape.org/) -->

<svg
   width="210mm"
   height="297mm"
   viewBox="0 0 210 297"
   version="1.1"
   id="svg1"
   inkscape:version="1.4 (86a8ad7, 2024-10-11)"
   sodipodi:docname="DSHA-30-030.svg"
   xmlns:inkscape="http://www.inkscape.org/namespaces/inkscape"
   xmlns:sodipodi="http://sodipodi.sourceforge.net/DTD/sodipodi-0.dtd"
   xmlns="http://www.w3.org/2000/svg"
   xmlns:svg="http://www.w3.org/2000/svg">
  <sodipodi:namedview
     id="namedview1"
     pagecolor="#ffffff"
     bordercolor="#000000"
     borderopacity="0.25"
     inkscape:showpageshadow="2"
     inkscape:pageopacity="0.0"
     inkscape:pagecheckerboard="0"
     inkscape:deskcolor="#d1d1d1"
     inkscape:document-units="mm"
     inkscape:zoom="0.7401656"
     inkscape:cx="241.83777"
     inkscape:cy="285.74687"
     inkscape:window-width="2560"
     inkscape:window-height="1377"
     inkscape:window-x="-8"
     inkscape:window-y="-8"
     inkscape:window-maximized="1"
     inkscape:current-layer="svg1" />
  <defs
     id="defs1" />
  <rect
     style="fill:#b8b8b8;fill-opacity:1;fill-rule:evenodd;stroke:#b81e1e;stroke-width:0.045085"
     id="concrete_right"
     width="78.169807"
     height="54.073204"
     x="117.56734"
     y="29.982592" />
  <rect
     style="fill:#b8b8b8;fill-opacity:1;fill-rule:evenodd;stroke:#b81e1e;stroke-width:0.0450992"
     id="concrete_left"
     width="78.208832"
     height="54.080254"
     x="14.103199"
     y="30.159836" />
  <rect
     style="fill:#a39a9a;fill-rule:evenodd;stroke:#b81e1e;stroke-width:0.0329538"
     id="finish_right"
     width="65.807053"
     height="24.735327"
     x="130.09583"
     y="5.1735835" />
  <rect
     style="fill:#a39a9a;fill-rule:evenodd;stroke:#b81e1e;stroke-width:0.0327435"
     id="finish_left"
     width="65.807274"
     height="24.419449"
     x="14.212313"
     y="5.5186243" />
  <rect
     style="fill:#a39a9a;fill-rule:evenodd;stroke:#b81e1e;stroke-width:0.0329314"
     id="cover_right"
     width="65.769066"
     height="4.9670687"
     x="130.0251"
     y="0.10854357" />
  <rect
     style="fill:#a39a9a;fill-rule:evenodd;stroke:#b81e1e;stroke-width:0.0341611"
     id="cover_left"
     width="65.767876"
     height="5.3449874"
     x="14.253533"
     y="0.062800966" />
  <rect
     style="fill:#404242;fill-opacity:0.341246;fill-rule:evenodd;stroke:#b81e1e;stroke-width:0.0198777"
     id="shadow"
     width="137.48599"
     height="0.01261392"
     x="45.144894"
     y="84.074135"
     inkscape:label="shadow" />
  <ellipse
     style="opacity:0;fill:none;fill-opacity:0;fill-rule:evenodd;stroke-width:0.00368993;stroke-opacity:0"
     id="bolt_left"
     cx="-33.365044"
     cy="-27.528229"
     rx="0.094999999"
     ry="0.028942173"
     inkscape:label="bolt_left"
     transform="scale(-1)" />
  <ellipse
     style="opacity:0;fill:none;fill-opacity:0;fill-rule:evenodd;stroke-width:0.000191947;stroke-opacity:0"
     id="bolt_right"
     cx="176.80371"
     cy="27.622505"
     rx="0.0049418169"
     ry="0.0015055466"
     inkscape:label="bolt_right" />
  <path
     id="profile_left"
     style="display:inline;fill:#5e5e5e;fill-rule:evenodd;stroke:#000000;stroke-width:0.0429187"
     d="m 81.817743,0.02160632 c -0.23763,0.002 -0.24202,0.52778 -0.47965,0.52739 -0.23203,-3.9e-4 -0.4666,-0.51654 -0.4666,-0.51654 h -0.99402 V 26.380088 c -0.0824,0.61577 -0.35762,1.05266 -1.09167,1.06344 H 22.587744 l -0.0326,2.53491 H 92.265579 V 13.581737 l -3.49854,-0.29515 -1.87516,-0.48617 -1.6668,-0.89419 -1.371636,-1.38031 -0.8855,-1.5973507 c -0.0464,-0.40583 0.14455,-0.66715 0.47748,-0.84206 h 3.194696 l 0.43407,0.26043 c 0,0 1.28027,1.01801 2.04877,1.0678 0.7473,0.0483 1.57304,-0.2502 2.10955,-0.77264 0.53973,-0.52559 0.84054,-1.34752 0.83339,-2.10086 -0.007,-0.73408 -0.32581,-1.51822 -0.85077,-2.03141 -0.52682,-0.515 -1.32165,-0.84444 -2.05743,-0.80736 -0.76198,0.0385 -2.03577,1.04608 -2.03577,1.04608 l -0.41887,0.19968 h -3.140436 c -0.40539,-0.15903 -0.59069,-0.41376 -0.61636,-0.7379 l 0.7292,-1.31087 0.90287,-1.17197 1.241406,-0.92020998 v -0.77482 h -1.067796 c 0,0 -0.23044,0.48665 -0.45358,0.49266 -0.24036,0.006 -0.27632,-0.51383 -0.51653,-0.50351 -0.23779,0.0102 -0.22891,0.52897 -0.46663,0.54042 -0.24277,0.0116 -0.28437,-0.5077 -0.52738,-0.50352 -0.22864,0.004 -0.25099,0.49336 -0.47964,0.49049 -0.24006,-0.003 -0.25042,-0.52873 -0.49048,-0.52739 z m 0.34725,11.87380068 c 0.0553,0.003 0.11575,0.021 0.17796,0.0456 l 1.61472,1.47581 1.927226,1.04178 1.90987,0.69448 2.04879,0.0522 c 0.19833,0.0422 0.40984,0.0562 0.45142,0.43406 v 11.875921 c 0.023,0.31734 -0.0926,0.48702 -0.41671,0.4341 h -7.656856 c -0.37849,0.009 -0.37103,-0.23894 -0.4167,-0.45143 V 12.270997 c 0.0655,-0.28917 0.1944,-0.38694 0.36028,-0.37547 z"
     sodipodi:nodetypes="ssccccccccccccccccssssscccccccccssssssscccccccccccssc"
     inkscape:label="profile_left" />
  <path
     style="fill:#5e5e5e;fill-rule:evenodd;stroke:#000000;stroke-width:0.0313521"
     d="m 83.686023,3.7454766 c 0.143274,-0.378324 0.370952,-0.644141 0.582302,-0.931683 0.615712,-0.874553 1.356224,-1.468252 2.162854,-1.913279 1.0675,-0.555306 2.17393,-0.8849683 3.36071,-0.748668 l 2.44567,0.449203 17.701931,3.726734 -0.63221,2.978052 -13.858761,-2.894868 c -0.14665,0.04148 -0.28625,0.123357 -0.41593,0.266177 -0.0912,0.176962 -0.0838,0.338784 -0.0665,0.499119 l 0.2163,0.848496 v 1.098056 l -0.18286,0.998227 -0.366,1.064785 c -0.006,0.138644 -0.0245,0.277282 0.0832,0.415925 0.1221,0.144807 0.24391,0.180733 0.36601,0.183004 l 6.937711,-0.316106 9.81593,2.1129154 0.0665,0.482479 -3.64356,0.183004 c 0,0 -0.2034,-0.47544 -0.41626,-0.484727 -0.26292,-0.0114 -0.30158,0.56318 -0.56442,0.551728 -0.2172,-0.0095 -0.2077,-0.487065 -0.42488,-0.494645 -0.25249,-0.0088 -0.28011,0.533065 -0.53269,0.539039 -0.2528,0.0058 -0.30618,-0.536362 -0.55809,-0.513674 -0.23746,0.02147 -0.19329,0.554269 -0.43124,0.570747 -0.25955,0.0178 -0.29206,-0.565942 -0.55171,-0.551727 -0.24636,0.01354 -0.21691,0.559225 -0.46292,0.577093 -0.25066,0.01809 -0.30158,-0.535956 -0.55174,-0.513673 -0.24207,0.02147 -0.19544,0.562742 -0.43759,0.583432 -0.26078,0.0224 -0.30946,-0.553577 -0.57073,-0.539039 -0.235,0.01325 -0.22151,0.527044 -0.45661,0.539039 -0.23133,0.01197 -0.26937,-0.487712 -0.50099,-0.481966 -0.24667,0.0064 -0.26079,0.531612 -0.50733,0.539039 -0.24974,0.0074 -0.29698,-0.538249 -0.54539,-0.513672 -0.23225,0.02301 -0.17426,0.541069 -0.40586,0.570746 -0.2709,0.03473 -0.356871,-0.560512 -0.627841,-0.526353 -0.23745,0.03006 -0.18039,0.561199 -0.41852,0.583433 -0.25894,0.02424 -0.30527,-0.561337 -0.56442,-0.539045 -0.25157,0.02147 -0.19819,0.594259 -0.45026,0.608799 -0.26875,0.01564 -0.28286,-0.604148 -0.55172,-0.589775 -0.24575,0.01325 -0.1988,0.566776 -0.4439,0.589775 -0.25341,0.02394 -0.3107,-0.532317 -0.56442,-0.513674 -0.23961,0.01748 -0.21691,0.54176 -0.4566,0.558067 -0.2476,0.01687 -0.2976,-0.523203 -0.54537,-0.507331 -0.24421,0.01564 -0.22519,0.550343 -0.46931,0.564404 -0.25678,0.01473 -0.3025,-0.560073 -0.55806,-0.5327 -0.23623,0.02516 -0.16321,0.565917 -0.3995,0.589779 -0.26171,0.02639 -0.30158,-0.563812 -0.56443,-0.551724 -0.24114,0.01111 -0.22824,0.53559 -0.46927,0.551724 -0.25248,0.01687 -0.31257,-0.531132 -0.56441,-0.507331 -0.25372,0.02394 -0.20831,0.600049 -0.46296,0.608798 -0.24697,0.0085 -0.4883,-0.558066 -0.4883,-0.558066 -0.14357,-0.164106 -0.29452,0.349932 -0.53904,0.589773 l -2.50496,-0.0064 c -0.073,0.06568 -2.26787,-0.503726 -3.06936,-1.230286 -0.66181,-0.599967 -1.648778,-1.141823 -1.750293,-2.0293314 -0.02151,-0.185059 0.259849,-0.494648 0.259849,-0.494648 1.062074,-0.249764 2.155874,-0.436054 3.335724,-0.450259 0.7105,0.568577 1.54711,0.969007 2.96092,0.599847 0.75702,-0.419131 1.51818,-0.835218 1.73092,-1.650199 0.33781,-0.576971 0.36707,-1.153942 0.21536,-1.730914 -0.10001,-0.83435 -0.58837,-1.363437 -1.15692,-1.829575 -0.63215,-0.481099 -1.39492,-0.748022 -2.4484,-0.538115 -0.78964,0.157601 -1.15996,0.566786 -1.63227,0.914782 l -2.941633,-0.125565 c -0.229188,0.0048 -0.380313,-0.128428 -0.502258,-0.313887 -0.05956,-0.137746 -0.06098,-0.275503 -0.01282,-0.413271 z"
     id="compensator_left"
     sodipodi:nodetypes="ccccccccccccccccccccsssssssssssssssssssssssssssssssssccsscccccccccccc"
     inkscape:label="compensator_left">
    <title
       id="title9">metal</title>
  </path>
  <path
     style="fill:#5e5e5e;fill-rule:evenodd;stroke:#000000;stroke-width:0.0313521"
     d="m 126.33064,9.4654766 c -0.14327,0.378325 -0.37095,0.6441434 -0.5823,0.9316834 -0.61571,0.874551 -1.35626,1.468255 -2.16287,1.91328 -1.06752,0.555304 -2.17395,0.884966 -3.36071,0.748669 l -2.44565,-0.449205 -17.70196,-3.7267314 0.63222,-2.978055 13.85877,2.894867 c 0.14665,-0.04147 0.28624,-0.123356 0.41592,-0.266177 0.0912,-0.176961 0.0838,-0.338784 0.0665,-0.499119 l -0.2163,-0.848495 v -1.098056 l 0.18286,-0.998228 0.36601,-1.064784 c 0.006,-0.138644 0.0245,-0.277284 -0.0832,-0.415925 -0.1221,-0.144807 -0.24389,-0.180734 -0.36604,-0.183004 l -6.93768,0.316105 -9.815961,-2.112919 -0.0665,-0.482476 3.643551,-0.183005 c 0,0 0.2034,0.475439 0.41626,0.484726 0.26293,0.0114 0.30158,-0.56318 0.56441,-0.551728 0.21722,0.0095 0.2077,0.487065 0.42488,0.494649 0.25249,0.0088 0.28011,-0.533065 0.53269,-0.539042 0.25281,-0.0058 0.30618,0.53636 0.55807,0.513672 0.23746,-0.02147 0.19328,-0.554265 0.43123,-0.570745 0.25955,-0.01779 0.29208,0.565941 0.55174,0.551728 0.24636,-0.01354 0.21691,-0.559227 0.46294,-0.577095 0.25064,-0.0181 0.30158,0.535956 0.55174,0.513674 0.24205,-0.02147 0.19542,-0.562743 0.43754,-0.583433 0.26079,-0.0224 0.30947,0.553579 0.57078,0.539039 0.235,-0.01325 0.22151,-0.527043 0.45659,-0.539039 0.23133,-0.01197 0.26937,0.487714 0.50098,0.481966 0.24665,-0.0064 0.26077,-0.531612 0.50734,-0.539039 0.24974,-0.0074 0.29698,0.538253 0.5454,0.513673 0.23224,-0.02301 0.17425,-0.54107 0.40586,-0.570747 0.27091,-0.03472 0.35686,0.560512 0.62783,0.526353 0.23746,-0.03006 0.18009,-0.561198 0.41853,-0.583432 0.25894,-0.02424 0.30526,0.561337 0.56441,0.539048 0.25157,-0.02147 0.1982,-0.594262 0.45026,-0.608801 0.26875,-0.01564 0.28287,0.60415 0.55171,0.589773 0.24574,-0.01325 0.19911,-0.566776 0.44394,-0.589773 0.2531,-0.02394 0.31069,0.532319 0.56441,0.513672 0.23962,-0.01748 0.2169,-0.541756 0.45661,-0.558065 0.24758,-0.01687 0.29759,0.523201 0.54536,0.507333 0.24421,-0.01564 0.22519,-0.550347 0.46927,-0.564408 0.25679,-0.01472 0.30251,0.560073 0.5581,0.532702 0.23624,-0.02516 0.16322,-0.565917 0.39951,-0.5897809 0.26169,-0.026387 0.30158,0.5638129 0.56441,0.5517249 0.24114,-0.01111 0.22826,-0.535588 0.46928,-0.5517249 0.25249,-0.016869 0.31256,0.5311329 0.56442,0.5073319 0.25372,-0.02394 0.208,-0.6000486 0.46292,-0.6087981 0.24697,-0.00855 0.48832,0.5580651 0.48832,0.5580651 0.14359,0.164106 0.29453,-0.349928 0.53905,-0.5897733 l 2.50494,0.00641 c 0.0731,-0.065682 2.2679,0.5037293 3.06937,1.2302853 0.66182,0.599969 1.64878,1.141823 1.75031,2.029334 0.0215,0.18506 -0.26016,0.494646 -0.26016,0.494646 -1.06208,0.249763 -2.1559,0.436053 -3.33572,0.450258 -0.7105,-0.568577 -1.54711,-0.969005 -2.96092,-0.599845 -0.75702,0.419129 -1.51822,0.835216 -1.73092,1.650198 -0.33781,0.57697 -0.36708,1.153942 -0.21537,1.730913 0.10002,0.83434 0.58837,1.36343 1.15693,1.829568 0.63215,0.481096 1.39488,0.748019 2.4484,0.538111 0.78963,-0.157602 1.15996,-0.566782 1.63224,-0.914782 l 2.94166,0.125578 c 0.22919,-0.0048 0.38031,0.128429 0.50226,0.313886 0.0596,0.137747 0.061,0.275505 0.0128,0.413271 z"
     id="compensator_right"
     sodipodi:nodetypes="ccccccccccccccccccccsssssssssssssssssssssssssssssssssccsscccccccccccc"
     inkscape:label="compensator_right">
    <title
       id="title8">metal</title>
  </path>
  <path
     id="profile_right"
     style="display:inline;fill:#5e5e5e;fill-rule:evenodd;stroke:#000000;stroke-width:0.0420422"
     d="m 124.1497,0.1210211 v 0.75172 l 1.12762,0.87773 0.99068,1.12975 0.67352,1.3774199 c 0.0678,0.39611 -0.2081,0.63117 -0.56926,0.75389 h -2.9873 l -0.56922,-0.16078 -0.9581,-0.77344 c -0.6517,-0.37077 -1.41998,-0.32241 -2.22256,-0.1499 -0.66422,0.29861 -1.1975,0.82709 -1.61858,1.55123 -0.33888,0.93422 -0.28106,1.69844 0.02,2.35944 0.59564,0.95376 1.4418,1.62285 2.88518,1.60772 0.45692,0.0628 1.2405,-0.32653 2.42682,-1.26662 h 3.02208 c 0.51464,0.0462 0.69688,0.3431 0.60398,0.84513 l -0.85604,1.5382 -1.39046,1.40132 -1.66418,0.90163 -1.85756,0.50187 -3.5913,0.27374 v 16.4031 l 69.84673,0.0348 v -2.49414 h -9.8614 -46.47833 c -0.63198,-0.006 -0.9633,-0.35686 -0.98854,-1.0624 V 0.1318911 h -1.11662 c 0,0 -0.1946,0.52654 -0.42152,0.53663 -0.22816,0.01 -0.2388,-0.49514 -0.4671,-0.50187 -0.24182,-0.007 -0.28404,0.50986 -0.52578,0.50187 -0.23662,-0.008 -0.24128,-0.51778 -0.47798,-0.52577 -0.23084,-0.008 -0.27062,0.48014 -0.50186,0.48014 -0.23122,0 -0.27104,-0.48813 -0.50186,-0.48014 -0.2366,0.008 -0.2417,0.5388 -0.47798,0.52577 -0.22534,-0.0124 -0.39974,-0.5475 -0.39974,-0.5475 z m 3.6478,11.8732299 c 0.20202,-0.0118 0.31826,0.1269 0.3498,0.42583 v 15.20816 c -0.0456,0.27762 -0.1892,0.42194 -0.44322,0.42149 h -7.7518 c -0.31784,-0.0372 -0.2861,-0.24208 -0.33024,-0.41062 v -11.89061 c -0.004,-0.21505 0.1322,-0.37369 0.43232,-0.46711 h 2.05096 l 2.01832,-0.72999 1.81194,-0.99071 1.63162,-1.50561 c 0.086,-0.0371 0.163,-0.0569 0.2303,-0.0608 z"
     inkscape:label="profile_right" />
</svg>
