<?xml version="1.0" encoding="UTF-8" standalone="no"?>
<!-- Created with Inkscape (http://www.inkscape.org/) -->

<svg
   width="210mm"
   height="297mm"
   viewBox="0 0 210 297"
   version="1.1"
   id="svg1"
   inkscape:version="1.4 (86a8ad7, 2024-10-11)"
   sodipodi:docname="DSHA-75-170.svg"
   xmlns:inkscape="http://www.inkscape.org/namespaces/inkscape"
   xmlns:sodipodi="http://sodipodi.sourceforge.net/DTD/sodipodi-0.dtd"
   xmlns="http://www.w3.org/2000/svg"
   xmlns:svg="http://www.w3.org/2000/svg">
  <sodipodi:namedview
     id="namedview1"
     pagecolor="#ffffff"
     bordercolor="#000000"
     borderopacity="0.25"
     inkscape:showpageshadow="2"
     inkscape:pageopacity="0.0"
     inkscape:pagecheckerboard="0"
     inkscape:deskcolor="#d1d1d1"
     inkscape:document-units="mm"
     inkscape:zoom="0.74016561"
     inkscape:cx="214.14126"
     inkscape:cy="-30.398602"
     inkscape:window-width="2560"
     inkscape:window-height="1377"
     inkscape:window-x="-8"
     inkscape:window-y="-8"
     inkscape:window-maximized="1"
     inkscape:current-layer="svg1" />
  <defs
     id="defs1" />
  <rect
     style="fill:#b8b8b8;fill-opacity:1;fill-rule:evenodd;stroke:#b81e1e;stroke-width:0.0331264"
     id="concrete_right"
     width="78.181763"
     height="29.187719"
     x="196.05388"
     y="75.094658" />
  <rect
     style="fill:#b8b8b8;fill-opacity:1;fill-rule:evenodd;stroke:#b81e1e;stroke-width:0.033353"
     id="concrete_left"
     width="78.220573"
     height="29.5737"
     x="-34.758263"
     y="74.987801" />
  <rect
     style="fill:#a39a9a;fill-rule:evenodd;stroke:#b81e1e;stroke-width:0.0553103"
     id="finish_right"
     width="65.784698"
     height="69.705307"
     x="208.59953"
     y="5.3054028" />
  <rect
     style="fill:#a39a9a;fill-rule:evenodd;stroke:#b81e1e;stroke-width:0.0551358"
     id="finish_left"
     width="65.784874"
     height="69.263016"
     x="-34.784431"
     y="5.7504616" />
  <rect
     style="fill:#a39a9a;fill-rule:evenodd;stroke:#b81e1e;stroke-width:0.0329314"
     id="cover_right"
     width="65.769066"
     height="4.9670687"
     x="208.51762"
     y="0.22918507" />
  <rect
     style="fill:#a39a9a;fill-rule:evenodd;stroke:#b81e1e;stroke-width:0.0341611"
     id="cover_left"
     width="65.767876"
     height="5.3449874"
     x="-34.754387"
     y="0.28344244" />
  <rect
     style="fill:#404242;fill-opacity:0.341246;fill-rule:evenodd;stroke:#b81e1e;stroke-width:0.0230489"
     id="shadow"
     width="246.93484"
     height="0.0094426908"
     x="7.9256234"
     y="104.13567"
     inkscape:label="shadow" />
  <ellipse
     style="opacity:0;fill:none;fill-opacity:0;fill-rule:evenodd;stroke-width:0.00368993;stroke-opacity:0"
     id="bolt_left"
     cx="16.44113"
     cy="-72.548943"
     rx="0.094999999"
     ry="0.028942173"
     inkscape:label="bolt_left"
     transform="scale(-1)" />
  <ellipse
     style="opacity:0;fill:none;fill-opacity:0;fill-rule:evenodd;stroke-width:0.000191947;stroke-opacity:0"
     id="bolt_right"
     cx="255.29623"
     cy="72.643509"
     rx="0.0049418169"
     ry="0.0015055466"
     inkscape:label="bolt_right" />
  <path
     id="profile_left"
     style="display:inline;fill:#5e5e5e;fill-rule:evenodd;stroke:#000000;stroke-width:0.0421211"
     d="M 31.066471,0.02106055 V 70.45147 c -0.17263,1.41678 -0.99041,1.86676 -2.01125,2.01124 h -45.38572 -10.01266 l -0.0131,2.516229 H 43.482139 V 13.414091 l -2.49881,-0.35697 -1.57591,-0.282981 -2.46399,-1.02303 -1.760926,-1.612909 -0.515869,-1.2907505 c -0.108131,-0.33406 0.0175,-0.56986 0.208959,-0.7771 h 2.990746 c 0,0 0.53676,0.61527 0.89897,0.77491 0.96073,0.42289 2.14366,0.73522 3.12786,0.37003 0.63729,-0.23646 1.14657,-0.86352 1.38002,-1.50191 0.30469,-0.83336 -0.0211,-2.50569 -0.11102,-2.65986 -0.5904,-1.01041 -1.36936,-1.61071 -2.49446,-1.6129399 -0.64814,0.0243 -1.55503,0.1774899 -2.6773,1.2429099 l -0.34391,0.148 h -2.474875 c -0.65439,-0.20583 -0.54333,-0.55359 -0.518061,-0.8859199 l 0.50499,-1.0361001 0.912031,-0.9598999 0.966445,-0.79882 V 0.02540055 h -1.110095 c 0,0 -0.18249,0.50961999 -0.4005,0.51803999 -0.233861,0.0108 -0.244851,-0.52211999 -0.478881,-0.51370999 -0.24609,0.007 -0.22856,0.55330999 -0.47451,0.56593999 -0.26654,0.0117 -0.29931,-0.57434999 -0.565929,-0.56593999 -0.236421,0.008 -0.22926,0.53216999 -0.465811,0.53548999 -0.24027,0.003 -0.24736,-0.52267999 -0.48758,-0.53109999 -0.25337,-0.008 -0.29726,0.56041999 -0.54852,0.52671999 -0.20765,-0.0279 -0.32214,-0.53977999 -0.32214,-0.53977999 z m 2.50752,11.59729045 c 0.0448,1.1e-4 0.0935,0.003 0.14584,0.013 l 1.37564,1.11444 1.097046,0.870681 1.358239,0.679119 1.358241,0.365661 2.089599,0.29603 c 0.448401,0.23797 0.548181,0.47596 0.487571,0.71395 v 15.21927 H 33.040711 V 12.13634 c 0.0844,-0.29334 0.21997,-0.518889 0.53328,-0.51804 z m -0.59423,20.36271 h 8.519466 V 51.90408 h -8.421516 z m 0.074,20.932999 h 8.445466 v 20.07103 h -8.495525 z"
     inkscape:label="profile_left" />
  <path
     id="profile_right"
     style="display:inline;fill:#5e5e5e;fill-rule:evenodd;stroke:#000000;stroke-width:0.0421162"
     d="M 202.42859,0.02105811 V 1.202878 l 1.01634,0.79873 0.93152,1.2623101 0.55283,1.03383 -0.71821,0.60066 h -2.39842 l -0.40483,-0.1610499 -0.67466,-0.7073501 c -1.17887,-0.59843 -1.45293,-0.68367 -2.84896,-0.36561 -0.84147,0.1916301 -1.24338,0.8371501 -1.60398,1.5517702 -0.2485,0.9164099 -0.48427,1.8345902 0.13055,2.8141199 0.54344,1.0538303 1.38416,1.4492599 2.42236,1.405969 0.72672,-0.0889 1.45405,-0.2220786 2.18079,-0.7769992 l 0.52449,-0.5571598 h 3.07743 c 0.25818,0.097695 0.41253,0.2684499 0.36999,0.5811203 l -1.12954,1.9217605 -1.32325,1.17092 -1.72807,0.80092 -2.28522,0.507079 -2.54858,0.365651 v 61.529393 h 69.85854 v -2.478911 h -9.8831 -45.52627 c -1.18716,-0.193739 -1.90049,-0.888659 -2.08282,-2.14814 V 0.03848811 h -1.08386 c 0,0 -0.12722,0.59779994 -0.3656,0.61591002 -0.24554,0.0168003 -0.22174,-0.56806004 -0.46795,-0.57021004 -0.23249,-0.0020005 -0.21885,0.51693003 -0.45052,0.53103998 -0.26617,0.0168998 -0.32168,-0.56153003 -0.5876,-0.54191001 -0.22659,0.0168998 -0.20192,0.51638999 -0.42878,0.53105005 -0.24174,0.0168003 -0.28223,-0.50620005 -0.52451,-0.50279003 -0.23545,0.002995 -0.2632,0.51554997 -0.49841,0.50279003 -0.24766,-0.0125992 -0.46138,-0.58331 -0.46138,-0.58331 z m 3.4779,11.58940089 c 0.23388,-0.008 0.39123,0.182829 0.53757,0.400491 v 18.98922 l -8.50762,-0.03261 V 15.734819 c 0.0503,-0.31293 0.16504,-0.590391 0.59417,-0.69644 l 1.81512,-0.25248 1.53004,-0.42222 1.38201,-0.685569 1.1992,-0.855331 1.18617,-1.13175 c 0.0973,-0.0529 0.1854,-0.0779 0.26334,-0.0805 z m -7.93521,20.41262 8.49453,0.06311 v 19.93381 h -8.49453 z m 0.0174,20.937101 h 8.4967 v 20.057831 h -8.54895 z"
     inkscape:label="profile_right" />
  <path
     style="fill:#5e5e5e;fill-rule:evenodd;stroke:#000000;stroke-width:0.0303695"
     d="m 37.884888,0.478262 c -0.0645,-0.0645 -1.40516,0.81754 -2.00259,1.36373 -0.41973,0.38372 -1.11139,1.33628 -1.06887,1.44971 0,0 -0.0297,0.32396 0.049,0.45457 0.0713,0.11887 0.34399,0.23358 0.34399,0.23358 l 2.98545,0.25796 c 0,0 0.26062,-0.0556 0.38086,-0.11055 0.17772,-0.0814 0.3061,-0.25766 0.49142,-0.31941 0.92284,-0.30776 2.02948,-0.6064 2.91175,-0.19644 0.83425,0.38749 1.40593,1.33262 1.63402,2.22372 0.18425,0.72045 0.0776,1.567684 -0.2948,2.211444 -0.36702,0.63463 -1.03624,1.15027 -1.7446,1.33915 -0.86236,0.23002 -1.81307,-0.0565 -2.65374,-0.35629 -0.23566,-0.0841 -0.63885,-0.39314 -0.63885,-0.39314 l -3.12061,0.31944 c -0.0333,0 -0.39463,0.23002 -0.35626,0.40545 0.0327,0.14948 0.12274,0.44226 0.12274,0.44226 0,0 0.83724,1.2117 1.40058,1.67087 0.64197,0.52328 1.42846,0.84667 2.18687,1.17945 0.67166,0.29481 2.10086,0.43725 2.10086,0.38084 h 32.66794 l 14.32526,-2.5677 v -1.92888 h -40.02713 c -0.2211,-0.0737 -0.35219,-0.22943 -0.39317,-0.46688 V 3.697412 c 0.0927,-0.20743 0.25557,-0.30042 0.47914,-0.2948 h 30.96023 l 3.05303,1.48044 h 10.80972 c 0,0 0.31483,-0.25053 0.31275,-0.42702 -0.002,-0.1899 -0.34749,-0.45175 -0.34749,-0.45175 l -12.71831,-4.15257 -3.05796,0.0348 c 0,0 -0.19466,0.4974 -0.41267,0.50821 -0.24428,0.0119 -0.27221,-0.52324 -0.51688,-0.52122 -0.24666,0.002 -0.26568,0.53804 -0.51255,0.53427 -0.25944,-0.003 -0.26182,-0.58102 -0.52126,-0.57772 -0.26687,0.003 -0.25438,0.60604 -0.52122,0.60812 -0.25142,0.002 -0.24815,-0.56319 -0.49953,-0.56467 -0.22854,-0.002 -0.23181,0.50214 -0.46046,0.50821 -0.26508,0.006 -0.29964,-0.56896 -0.56467,-0.56034 -0.25112,0.009 -0.24815,0.56343 -0.4995,0.56468 -0.23983,0.002 -0.2422,-0.53068 -0.48218,-0.53428 -0.24963,-0.003 -0.26865,0.54114 -0.51828,0.5409 -0.24904,-2.7e-4 -0.26717,-0.55258 -0.51603,-0.5406 -0.21842,0.0119 -0.18811,0.49091 -0.40541,0.51603 -0.26063,0.03 -0.35249,-0.50596 -0.6143,-0.49145 -0.2428,0.0149 -0.27282,0.5214 -0.516,0.51602 -0.26092,-0.006 -0.26746,-0.58289 -0.5283,-0.57745 -0.23537,0.006 -0.21961,0.52628 -0.45457,0.54057 -0.24576,0.0149 -0.2945,-0.51112 -0.54057,-0.50372 -0.2315,0.006 -0.24755,0.49403 -0.47914,0.50372 -0.24637,0.009 -0.30634,-0.49567 -0.55288,-0.49142 -0.23745,0.003 -0.27846,0.49285 -0.51599,0.49142 -0.23448,-0.002 -0.26925,-0.49992 -0.50373,-0.49142 -0.24071,0.009 -0.23833,0.53332 -0.47914,0.54058 -0.24309,0.006 -0.27281,-0.52052 -0.516,-0.51603 -0.23477,0.006 -0.24458,0.51035 -0.47914,0.51603 -0.25766,0.006 -0.2954,-0.54997 -0.55288,-0.54058 -0.23477,0.009 -0.23209,0.52105 -0.46687,0.5283 -0.26063,0.009 -0.55284,-0.55287 -0.55284,-0.55287 h -7.42061 c 0,0 -0.18425,0.51005 -0.40545,0.5283 -0.25706,0.0208 -0.30776,-0.54402 -0.56515,-0.5283 -0.22912,0.0149 -0.21307,0.51317 -0.44229,0.5283 -0.26598,0.0178 -0.32318,-0.5494 -0.58973,-0.54058 -0.25468,0.009 -0.2734,0.55927 -0.52826,0.55285 -0.23805,-0.006 -0.22883,-0.5346 -0.46688,-0.54057 -0.25468,-0.006 -0.2734,0.55602 -0.52829,0.55287 -0.2434,-0.003 -0.24785,-0.54636 -0.49142,-0.5406 -0.24429,0.006 -0.22289,0.5549 -0.46687,0.56515 -0.26331,0.0119 -0.28946,-0.56515 -0.55285,-0.56515 -0.2636,0 -0.28945,0.57481 -0.55288,0.56515 -0.24101,-0.009 -0.22556,-0.54729 -0.46684,-0.55285 -0.22883,-0.006 -0.23804,0.49392 -0.46687,0.50373 -0.24339,0.009 -0.29718,-0.49873 -0.54057,-0.49145 -0.23448,0.006 -0.25676,0.5009 -0.49145,0.50372 -0.24606,0.003 -0.28202,-0.52031 -0.52827,-0.516 -0.24903,0.006 -0.26687,0.53766 -0.51599,0.54058 -0.26657,0.003 -0.299,-0.57662 -0.56515,-0.56515 -0.23507,0.009 -0.21932,0.53044 -0.4546,0.54057 -0.23715,0.009 -0.26627,-0.50518 -0.50369,-0.50372 -0.23448,0.002 -0.25677,0.50226 -0.49145,0.50372 -0.24309,0.002 -0.27281,-0.51885 -0.51599,-0.516 -0.24904,0.003 -0.26687,0.54518 -0.516,0.54058 -0.24072,-0.006 -0.23864,-0.52919 -0.47917,-0.54058 -0.25172,-0.0119 -0.30093,0.52524 -0.55285,0.516 -0.22289,-0.009 -0.2315,-0.48307 -0.45457,-0.49145 -0.24042,-0.009 -0.30746,0.5867 -0.5283,0.49145 -0.27251,-0.11768 -0.55748,-0.64765 -0.54057,-0.54057 h -2.98545 z"
     id="compensator_left"
     sodipodi:nodetypes="cscsccsssssssccscsscccccccccccscccssssassssssssssssssssssssssccssssssssssssssssaasssssssssccc"
     inkscape:label="compensator_left">
    <title
       id="title10">metal</title>
  </path>
  <path
     style="fill:#5e5e5e;fill-rule:evenodd;stroke:#000000;stroke-width:0.0303695"
     d="m 201.6812,0.517672 c 0.0645,-0.0645 1.40516,0.81754 2.00259,1.36373 0.41971,0.38372 1.11139,1.3363 1.06887,1.44971 0,0 0.0297,0.32396 -0.049,0.4546 -0.0713,0.11887 -0.34401,0.23328 -0.34401,0.23328 l -2.98545,0.25796 c 0,0 -0.26063,-0.0556 -0.38084,-0.11056 -0.17772,-0.0814 -0.3061,-0.25765 -0.49145,-0.31941 -0.92281,-0.30776 -2.02948,-0.60636 -2.91172,-0.19643 -0.83425,0.38749 -1.40593,1.33262 -1.63402,2.22371 -0.18425,0.72046 -0.0776,1.567694 0.2948,2.211484 0.36702,0.6346 1.03624,1.15024 1.74458,1.33915 0.86239,0.23002 1.8131,-0.0565 2.65373,-0.35632 0.23567,-0.0841 0.63888,-0.39314 0.63888,-0.39314 l 3.12058,0.31944 c 0.0333,0 0.39463,0.23002 0.35629,0.40545 -0.0327,0.14948 -0.12273,0.44229 -0.12273,0.44229 0,0 -0.83728,1.2117 -1.40059,1.67084 -0.64197,0.52328 -1.42846,0.84667 -2.18686,1.17945 -0.67169,0.29481 -2.1009,0.43725 -2.1009,0.38087 h -32.66794 l -14.32525,-2.56773 v -1.92889 h 40.02715 c 0.22111,-0.0737 0.35219,-0.22942 0.39314,-0.46687 V 3.736552 c -0.0924,-0.20743 -0.25557,-0.30042 -0.47914,-0.2948 h -30.96023 l -3.05302,1.48044 h -10.80972 c 0,0 -0.31481,-0.25053 -0.31273,-0.42702 0.002,-0.1899 0.3475,-0.45175 0.3475,-0.45175 l 12.7183,-4.15257 3.05796,0.0348 c 0,0 0.19466,0.49739 0.41264,0.50821 0.24428,0.0119 0.27222,-0.52325 0.51692,-0.52122 0.24666,0.002 0.26568,0.53804 0.51254,0.53427 0.25944,-0.003 0.26182,-0.58099 0.52126,-0.57772 0.26687,0.003 0.25439,0.60604 0.52122,0.60812 0.25142,0.002 0.24815,-0.56319 0.49954,-0.56467 0.22853,-0.002 0.2318,0.50214 0.46042,0.5082 0.26508,0.006 0.29965,-0.56895 0.56467,-0.56033 0.25112,0.009 0.24815,0.56343 0.49953,0.56467 0.23983,0.002 0.24221,-0.53067 0.48215,-0.53427 0.24963,-0.003 0.26865,0.54114 0.51831,0.5409 0.24904,-2.7e-4 0.26717,-0.55255 0.516,-0.5406 0.21843,0.0119 0.18811,0.49091 0.40544,0.51602 0.26033,0.03 0.35246,-0.50595 0.61431,-0.49144 0.24279,0.0149 0.27281,0.5214 0.51599,0.51602 0.26093,-0.006 0.26746,-0.58289 0.52827,-0.57745 0.23537,0.006 0.21962,0.52628 0.4546,0.54057 0.24577,0.0149 0.2945,-0.51112 0.54057,-0.50372 0.2315,0.006 0.24755,0.49403 0.47914,0.50372 0.24637,0.009 0.30634,-0.49567 0.55285,-0.49142 0.23745,0.003 0.27846,0.49285 0.51603,0.49142 0.23447,-0.002 0.26924,-0.49992 0.50369,-0.49142 0.24071,0.009 0.23834,0.53332 0.47917,0.54057 0.2431,0.006 0.27281,-0.52051 0.516,-0.51599 0.23477,0.006 0.24458,0.51032 0.47914,0.51599 0.25766,0.006 0.2954,-0.54996 0.55285,-0.54057 0.23477,0.009 0.2321,0.52105 0.46687,0.5283 0.26063,0.009 0.55285,-0.55287 0.55285,-0.55287 h 7.42063 c 0,0 0.18426,0.51005 0.40545,0.52829 0.25706,0.0208 0.30776,-0.54402 0.56515,-0.52829 0.22912,0.0149 0.21308,0.51317 0.44226,0.52829 0.26598,0.0178 0.32322,-0.54939 0.58973,-0.54057 0.25468,0.009 0.2734,0.55927 0.5283,0.55285 0.23804,-0.006 0.22883,-0.53457 0.46684,-0.54057 0.25498,-0.006 0.2734,0.55602 0.5283,0.55287 0.24339,-0.003 0.24785,-0.54634 0.49144,-0.5406 0.24429,0.006 0.22259,0.5549 0.46685,0.56515 0.2633,0.0119 0.28945,-0.56515 0.55287,-0.56515 0.2636,0 0.28946,0.57481 0.55285,0.56515 0.24101,-0.009 0.22585,-0.54729 0.46687,-0.55285 0.22883,-0.006 0.23804,0.49392 0.46687,0.50372 0.24339,0.009 0.29718,-0.49873 0.54057,-0.49144 0.23448,0.006 0.25677,0.50089 0.49142,0.50372 0.24607,0.003 0.28232,-0.52031 0.5283,-0.516 0.24904,0.006 0.26687,0.53769 0.51599,0.54057 0.26628,0.003 0.299,-0.57662 0.56515,-0.56514 0.23507,0.009 0.21932,0.53043 0.45457,0.54057 0.23715,0.009 0.26628,-0.50518 0.50372,-0.50372 0.23448,0.002 0.25677,0.50226 0.49145,0.50372 0.2431,0.002 0.27281,-0.51882 0.516,-0.516 0.24903,0.003 0.26687,0.54518 0.51599,0.54057 0.24072,-0.006 0.23864,-0.52919 0.47915,-0.54057 0.25171,-0.0119 0.30095,0.52524 0.55287,0.516 0.22289,-0.009 0.23151,-0.48307 0.45457,-0.49142 0.24042,-0.009 0.30743,0.58666 0.5283,0.49142 0.27251,-0.11769 0.55748,-0.64765 0.54057,-0.54057 h 2.98545 z"
     id="compensator_right"
     sodipodi:nodetypes="cscsccsssssssccscsscccccccccccscccssssassssssssssssssssssssssccssssssssssssssssaasssssssssccc"
     inkscape:label="compensator_right">
    <title
       id="title11">metal</title>
  </path>
  <path
     style="fill:#5e5e5e;fill-rule:evenodd;stroke:#000000;stroke-width:0.0303695"
     d="m 65.400128,3.604371 h -2.51935 c -0.28084,0.0419 -0.43504,0.25527 -0.48649,0.60812 v 3.822435 c 0.0562,0.24755 0.11085,0.49608 0.48649,0.50387 H 176.87417 c 0.20476,-0.0894 0.29688,-0.22437 0.27014,-0.40646 V 4.028891 c -0.0482,-0.23626 -0.22824,-0.39127 -0.57745,-0.44229 h -2.55543 l -3.01003,1.44973 h -39.56002 c 0,0 -0.24636,0.53208 -0.48648,0.53136 -0.24607,-7.1e-4 -0.24934,-0.53914 -0.4952,-0.54729 -0.24963,-0.009 -0.28886,0.52539 -0.53861,0.52123 -0.24161,-0.003 -0.26211,-0.51814 -0.50387,-0.52123 -0.2312,-0.003 -0.26389,0.47757 -0.49516,0.48649 -0.23834,0.009 -0.30919,-0.47169 -0.54732,-0.46042 -0.24339,0.0119 -0.26895,0.52532 -0.51255,0.52122 -0.24398,-0.003 -0.25141,-0.54512 -0.49519,-0.53861 -0.23656,0.006 -0.21546,0.53787 -0.45174,0.54732 -0.26182,0.0119 -0.2853,-0.57035 -0.54729,-0.5647 -0.24399,0.006 -0.2425,0.54307 -0.48652,0.54731 -0.25587,0.006 -0.274,-0.55804 -0.5299,-0.55599 -0.25617,0.002 -0.26509,0.56467 -0.52126,0.56467 -0.25617,0 -0.26508,-0.56922 -0.52122,-0.56467 -0.24429,0.006 -0.23359,0.55112 -0.47781,0.55599 -0.22942,0.006 -0.23953,-0.50752 -0.46913,-0.50387 -0.2422,0.003 -0.23596,0.53547 -0.47781,0.54732 -0.27013,0.0119 -0.32051,-0.56568 -0.59073,-0.55599 -0.24785,0.009 -0.25588,0.55029 -0.50387,0.54729 -0.25023,-0.003 -0.24518,-0.55347 -0.4952,-0.56468 -0.25587,-0.0119 -0.29997,0.533 -0.55599,0.52993 -0.24993,-0.003 -0.28024,-0.54104 -0.52994,-0.52993 -0.23001,0.009 -0.21278,0.52809 -0.44303,0.52993 -0.25261,0.002 -0.2425,-0.57367 -0.4952,-0.57335 -0.24428,3e-4 -0.23388,0.54004 -0.4778,0.55597 -0.26004,0.0178 -0.32239,-0.54137 -0.58203,-0.52123 -0.24637,0.0178 -0.22229,0.56474 -0.46913,0.57336 -0.2743,0.009 -0.29035,-0.60946 -0.56468,-0.59942 -0.23863,0.009 -0.21307,0.54577 -0.45174,0.556 -0.23329,0.009 -0.2532,-0.49888 -0.48649,-0.50387 -0.24368,-0.006 -0.28618,0.50693 -0.52993,0.50387 -0.26211,-0.003 -0.29391,-0.5582 -0.55599,-0.556 -0.24577,0.002 -0.26687,0.52907 -0.51255,0.52993 -0.211,7.2e-4 -0.2321,-0.45566 -0.44307,-0.45174 -0.21932,0.003 -0.22407,0.47712 -0.44307,0.48648 -0.26419,0.0119 -0.31801,-0.55136 -0.58206,-0.53861 -0.24784,0.0119 -0.24725,0.54682 -0.49516,0.556 -0.25379,0.009 -0.29391,-0.54604 -0.54732,-0.52993 -0.24071,0.0149 -0.211,0.55225 -0.45174,0.56467 -0.26776,0.0149 -0.29659,-0.5801 -0.56468,-0.57338 -0.24814,0.006 -0.24695,0.55775 -0.49516,0.556 -0.25647,-0.002 -0.24725,-0.58385 -0.50387,-0.58206 -0.23834,0.002 -0.22229,0.53424 -0.46045,0.54731 -0.25974,0.0149 -0.30497,-0.55367 -0.56467,-0.53861 -0.24429,0.0149 -0.22438,0.56105 -0.4691,0.56468 -0.26271,0.003 -0.52126,-0.59074 -0.52126,-0.59074 H 68.510038 Z"
     id="compensator_middle"
     sodipodi:nodetypes="ccccccccccccsssssssssssssssssssssssssssssssssssssssssssssccc"
     inkscape:label="compensator_middle">
    <title
       id="title12">metal</title>
  </path>
</svg>
