<?xml version="1.0" encoding="UTF-8" standalone="no"?>
<!-- Created with Inkscape (http://www.inkscape.org/) -->

<svg
   width="210mm"
   height="297mm"
   viewBox="0 0 210 297"
   version="1.1"
   id="svg1"
   inkscape:version="1.4 (86a8ad7, 2024-10-11)"
   sodipodi:docname="DSHA-15-093-corner.svg"
   xmlns:inkscape="http://www.inkscape.org/namespaces/inkscape"
   xmlns:sodipodi="http://sodipodi.sourceforge.net/DTD/sodipodi-0.dtd"
   xmlns="http://www.w3.org/2000/svg"
   xmlns:svg="http://www.w3.org/2000/svg">
  <sodipodi:namedview
     id="namedview1"
     pagecolor="#ffffff"
     bordercolor="#000000"
     borderopacity="0.25"
     inkscape:showpageshadow="2"
     inkscape:pageopacity="0.0"
     inkscape:pagecheckerboard="0"
     inkscape:deskcolor="#d1d1d1"
     inkscape:document-units="mm"
     inkscape:zoom="1.0467522"
     inkscape:cx="269.8824"
     inkscape:cy="235.49031"
     inkscape:window-width="2560"
     inkscape:window-height="1377"
     inkscape:window-x="-8"
     inkscape:window-y="-8"
     inkscape:window-maximized="1"
     inkscape:current-layer="svg1" />
  <defs
     id="defs1" />
  <rect
     style="fill:#b8b8b8;fill-opacity:1;fill-rule:evenodd;stroke:#b81e1e;stroke-width:0.0579259"
     id="concrete_left"
     width="78.195999"
     height="89.231377"
     x="5.1570206"
     y="67.615494" />
  <rect
     style="fill:#a39a9a;fill-rule:evenodd;stroke:#b81e1e;stroke-width:0.0205287"
     id="finish_left"
     width="65.819481"
     height="9.5968637"
     x="5.1012573"
     y="58.030811" />
  <rect
     style="fill:#a39a9a;fill-rule:evenodd;stroke:#b81e1e;stroke-width:0.0341611"
     id="cover_left"
     width="65.767876"
     height="5.3449874"
     x="5.1485844"
     y="52.581093" />
  <rect
     style="fill:#404242;fill-opacity:0.341246;fill-rule:evenodd;stroke:#b81e1e;stroke-width:0.0204551"
     id="shadow"
     width="152.57272"
     height="0.012036543"
     x="48.019085"
     y="156.83281"
     inkscape:label="shadow" />
  <ellipse
     style="opacity:0;fill:none;fill-opacity:0;fill-rule:evenodd;stroke-width:0.00253958;stroke-opacity:0"
     id="bolt_left"
     cx="-23.41188"
     cy="-64.746941"
     rx="0.045000002"
     ry="0.028942173"
     inkscape:label="bolt_left"
     transform="scale(-1)" />
  <ellipse
     style="opacity:0;fill:none;fill-opacity:0;fill-rule:evenodd;stroke-width:0.000191947;stroke-opacity:0"
     id="screw_right"
     cx="179.89816"
     cy="17.141939"
     rx="0.0049418169"
     ry="0.0015055466"
     inkscape:label="screw_right" />
  <path
     style="fill:#5e5e5e;fill-rule:evenodd;stroke:#000000;stroke-width:0.0441661"
     d="m 174.62463,60.805714 h 3.29292 c 0.0846,-0.0709 0.72166,0.39848 0.52726,0.78512 -0.22127,0.44001 -0.41877,0.93966 -0.67956,1.37107 -0.25974,0.4296 -0.59704,0.81424 -0.96096,1.16012 -0.40281,0.38249 -1.33586,0.99606 -1.33586,0.99606 v 0.71484 h 1.24207 c 0,0 0.13873,-0.47882 0.33969,-0.50389 0.24462,-0.0302 0.30469,0.50467 0.55083,0.49218 0.24289,-0.0129 0.24894,-0.54162 0.49218,-0.53907 0.24937,0.002 0.24332,0.55156 0.49216,0.5625 0.25932,0.0129 0.30298,-0.54335 0.5625,-0.53903 0.23467,0.004 0.25759,0.49835 0.49214,0.50389 0.23467,0.004 0.28135,-0.49689 0.51559,-0.48047 0.21048,0.0129 0.39848,0.49218 0.39848,0.49218 h 1.12499 V 4.2255222 h -0.86049 l -1.43049,4.227839 v 1.5936928 c 0,0 0.52004,0.16294 0.53318,0.38075 0.013,0.24852 -0.54258,0.255 -0.55082,0.50389 -0.013,0.25975 0.54603,0.30297 0.53907,0.56254 -0.013,0.25672 -0.56799,0.27055 -0.5625,0.52731 0,0.25759 0.58077,0.24635 0.58592,0.50389 0,0.23468 -0.50865,0.24548 -0.5156,0.48046 -0.013,0.22647 0.47147,0.2658 0.46871,0.49218 0,0.23727 -0.50748,0.26623 -0.5038,0.50389 0,0.26795 0.58716,0.28264 0.58591,0.55077 0,0.2766 -0.6214,0.28611 -0.60938,0.5625 0.013,0.26147 0.61336,0.21869 0.62107,0.48046 0.013,0.24332 -0.4963,0.24289 -0.55075,0.48046 -0.0891,0.38897 0.47639,0.70257 0.46875,1.10152 -0.013,0.37557 -0.55473,0.65122 -0.48051,1.01953 0.0432,0.20615 0.45945,0.21177 0.46871,0.42182 0.013,0.23467 -0.48315,0.28049 -0.48037,0.51559 0,0.2403 0.50517,0.27531 0.50384,0.51561 0,0.23208 -0.47995,0.26061 -0.49218,0.49217 -0.013,0.23598 0.45099,0.31463 0.44528,0.55078 -0.013,0.24073 -0.48724,0.29864 -0.48037,0.53907 0.013,0.25413 0.53763,0.28481 0.53902,0.53902 0,0.25672 -0.55653,0.29432 -0.53902,0.55079 0.0173,0.24158 0.56876,0.20312 0.57413,0.44532 0.013,0.27141 -0.62526,0.25585 -0.62102,0.52731 0,0.26969 0.62606,0.23424 0.6328,0.50389 0.013,0.26579 -0.58653,0.2619 -0.59771,0.52735 -0.013,0.25413 0.53448,0.29649 0.5274,0.55074 -0.013,0.24591 -0.54331,0.25802 -0.53907,0.50393 0,0.24375 0.54386,0.23684 0.55074,0.48046 0.013,0.2403 -0.51289,0.26364 -0.51565,0.50389 0,0.2403 0.51322,0.27531 0.50398,0.515601 -0.013,0.25456 -0.57464,0.24937 -0.57429,0.50389 3.3e-4,0.24375 0.53622,0.23727 0.55081,0.48046 0.0172,0.26234 -0.54303,0.32371 -0.52735,0.58592 0.013,0.2485 0.55562,0.24332 0.5625,0.49217 0.013,0.24592 -0.52294,0.26969 -0.52727,0.5156 0,0.23209 0.48745,0.27185 0.48037,0.50393 -0.013,0.22388 -0.48245,0.23339 -0.49217,0.456999 -0.013,0.27919 0.58695,0.34272 0.56249,0.62109 -0.0216,0.24116 -0.55631,0.204 -0.57416,0.44529 -0.0173,0.27141 0.58354,0.31809 0.56491,0.58946 -0.0173,0.23554 -0.54982,0.20313 -0.55518,0.43919 0,0.24851 0.56456,0.2403 0.56339,0.48889 0,0.26839 -0.66275,0.48046 -0.61314,0.52204 0.0492,0.0432 0.60869,0.24721 0.61314,0.51374 0,0.2524 -0.55848,0.25327 -0.56339,0.50545 0,0.25801 0.5563,0.28092 0.55518,0.53859 -0.002,0.24418 -0.53665,0.26147 -0.53038,0.50548 0.013,0.23295 0.51893,0.22301 0.53038,0.45574 0.013,0.25932 -0.54352,0.30384 -0.5386,0.56345 0,0.2498 0.53847,0.27185 0.5386,0.52204 9e-5,0.26968 -0.59041,0.29389 -0.58012,0.56344 0.013,0.25888 0.60048,0.23814 0.59668,0.49719 0,0.24591 -0.57322,0.21004 -0.58009,0.45574 -0.013,0.24635 0.54361,0.24246 0.55514,0.48889 0.013,0.26147 -0.54541,0.30988 -0.53853,0.57174 0.013,0.25586 0.56633,0.27444 0.55513,0.53034 -0.013,0.24721 -0.56145,0.21696 -0.57999,0.46404 -0.0172,0.24765 0.5082,0.29864 0.50544,0.54689 0,0.22647 -0.47774,0.26234 -0.47226,0.48889 0.013,0.25413 0.56022,0.26796 0.55516,0.52204 0,0.24851 -0.55996,0.24029 -0.56348,0.48885 0,0.22862 0.49073,0.23597 0.50538,0.46404 0.0173,0.25239 -0.49663,0.32716 -0.48884,0.58004 0.013,0.25196 0.52199,0.29475 0.52199,0.54689 0,0.24807 -0.51213,0.29043 -0.51373,0.53859 0,0.2148 0.43931,0.25715 0.43918,0.47234 -8e-5,0.22257 -0.45786,0.26622 -0.45566,0.48889 0,0.25802 0.55242,0.29777 0.5386,0.55515 -0.013,0.23294 -0.52982,0.21436 -0.5386,0.44748 -0.013,0.23036 0.49603,0.25023 0.49706,0.48059 0.002,0.25197 -0.53768,0.27833 -0.53858,0.5303 -7.8e-4,0.23813 0.49446,0.26752 0.50556,0.50548 0.013,0.25067 -0.49342,0.32933 -0.48062,0.58004 0.013,0.22431 0.48062,0.24765 0.48062,0.4723 0,0.21696 -0.44061,0.2403 -0.46404,0.45574 -0.0172,0.15083 0.24851,0.38119 0.24851,0.38119 v 1.62407 c -0.0696,0.29692 -0.22948,0.52973 -0.59654,0.61319 h -3.53824 v 0.74578 l 1.26782,1.00264 1.05233,1.17663 c -0.013,0 0.46737,0.81372 0.62153,1.28437 0.13096,0.39978 -0.52134,0.90051 -0.55518,0.87004 h -3.26479 c -0.7314,-0.78321 -1.57645,-1.20784 -2.5108,-1.35067 -0.0172,-0.0346 -1.54485,0.24073 -2.07976,0.82033 -0.47286,0.51249 -1.00492,1.28131 -1.03579,2.07986 -0.0303,0.79086 0.34359,1.63635 0.90315,2.19586 0.5764,0.57619 1.45167,0.72539 2.23734,0.68774 0.51127,-0.0259 0.96582,-0.12966 1.34234,-0.35613 0.40539,-0.24375 1.1475,-0.83502 1.1475,-0.83502 z"
     id="profile_right"
     sodipodi:nodetypes="ccssscccsssssssccccccsssssssssssssssssssssssssssssssssssssssssssssssssssssssssssssssssssssssssssscccccccscccsssssc"
     inkscape:label="profile_right" />
  <rect
     style="fill:#e1ecec;fill-opacity:0.77;fill-rule:evenodd;stroke:#b81e1e;stroke-width:0.0081378"
     id="finish_right"
     width="57.514656"
     height="2.036227"
     x="-57.518726"
     y="181.91786"
     inkscape:label="finish_right"
     transform="rotate(-90)" />
  <rect
     style="fill:#e1ecec;fill-opacity:0.77;fill-rule:evenodd;stroke:#b81e1e;stroke-width:0.00933925"
     id="cover_right"
     width="57.494617"
     height="0.12774748"
     x="-57.505093"
     y="181.74213"
     inkscape:label="cover_right"
     transform="rotate(-90)" />
  <path
     style="fill:#e1ecec;fill-opacity:0.77;fill-rule:evenodd;stroke:#b81e1e;stroke-width:0.0116676"
     d="m 183.96628,0.0159984 20.93689,-8.06e-6 V 157.50331 H 181.72204 V 57.558404 h 2.23314 z"
     id="concrete_right"
     inkscape:label="concrete_right"
     sodipodi:nodetypes="ccccccc" />
  <path
     style="fill:#5e5e5e;fill-rule:evenodd;stroke:#000000;stroke-width:0.0426565"
     d="m 14.248984,64.612549 h 9.72732 45.916686 c 0.54206,-0.04174 0.95075,-0.305129 1.07985,-1.034522 V 52.632704 h 1.09214 c 0,0 0.19868,0.523932 0.42705,0.536897 0.22415,0.01252 0.2517,-0.477195 0.47589,-0.475879 0.244612,0.0011 0.268402,0.536136 0.51247,0.524683 0.24544,-0.01168 0.21789,-0.563457 0.4637,-0.573496 0.24127,-0.01002 0.2588,0.534172 0.500277,0.524692 0.2254,-0.0088 0.20245,-0.506855 0.42705,-0.524692 0.25546,-0.02045 0.31807,0.535816 0.57354,0.512491 0.20494,-0.01878 0.37817,-0.488085 0.37817,-0.488085 h 1.049386 v 0.768736 l -1.122596,0.939566 -0.97838,1.097621 c 0.0292,0 -0.559757,0.835968 -0.672997,1.333063 -0.0714,0.313477 0.522007,0.811075 0.522007,0.811075 l 3.175206,-0.0167 1.30717,-1.005191 c 0.72335,-0.3442 1.44664,-0.371913 2.16997,-0.09487 0.83208,0.327669 1.35936,0.845859 1.63936,1.518561 0.33686,0.904505 0.36482,1.649421 0.0334,2.208839 -0.3139,0.753941 -0.75954,1.370674 -1.62212,1.553081 -0.84743,0.396543 -1.63438,0.248783 -2.38999,-0.181158 l -1.13032,-0.854199 h -3.201076 c -0.308887,0.09726 -0.576827,0.240015 -0.500437,0.767921 l 0.905957,1.622121 1.320156,1.371877 1.64796,0.888719 1.8292,0.45728 3.50302,0.284681 v 1.449561 H 14.020284 v -2.752407 c -0.003,-0.118963 0.0855,-0.187002 0.2287,-0.224568 z"
     id="profile_left"
     sodipodi:nodetypes="ccccccssssssscccccsccccccccccccccccccccc"
     inkscape:label="profile_left" />
  <path
     style="fill:#5e5e5e;fill-rule:evenodd;stroke:#000000;stroke-width:0.0301566"
     d="m 74.56383,56.34019 c 0.0071,-0.352796 0.266,-0.655192 0.494085,-0.963773 0.536936,-0.727702 1.175028,-1.401452 2.055648,-1.945851 0.86434,-0.45675 1.78253,-0.711556 2.73882,-0.82348 l 0.88449,0.0062 62.357497,4.451579 -0.23726,3.269436 -56.151577,-4.076357 c -0.0654,0 -0.42356,0.109335 -0.40564,0.247056 0.018,0.138133 -0.003,0.417843 -0.003,0.417843 0,0 0.32433,1.174784 0.38734,1.7781 0.034,0.325594 0.007,0.654983 -0.006,0.982071 -0.0295,0.72655 -0.41482,1.506408 -0.45138,2.086151 -0.0112,0.175141 0.38428,0.359886 0.38428,0.359886 l 29.426387,-0.0177 29.59313,2.117803 c -0.003,-0.02921 0.23341,0.04075 0.30194,0.448575 0.0505,0.299686 -0.10357,0.905781 -0.10357,0.905781 0,0 -1.08312,0.200372 -1.55277,-0.01711 -0.21837,-0.10125 -0.23224,-0.546967 -0.47307,-0.54589 -0.25083,7.82e-4 -0.23726,0.565411 -0.48797,0.573381 -0.25733,0.0083 -0.27946,-0.564719 -0.53679,-0.555079 -0.25113,0.0094 -0.23077,0.574272 -0.4819,0.57948 -0.25761,0.0056 -0.26086,-0.56994 -0.51848,-0.57338 -0.24434,-0.0032 -0.26175,0.529884 -0.50626,0.530686 -0.25469,7.82e-4 -0.27623,-0.55682 -0.53072,-0.548989 -0.25673,0.008 -0.24345,0.588895 -0.50018,0.585584 -0.24877,-0.0032 -0.22103,-0.57499 -0.46968,-0.579486 -0.25349,-0.0047 -0.2467,0.56541 -0.50019,0.573389 -0.2774,0.0089 -0.30888,-0.612498 -0.58559,-0.591683 -0.2408,0.018 -0.18592,0.568978 -0.42698,0.585587 -0.24257,0.01682 -0.26323,-0.521703 -0.5063,-0.524594 -0.23726,-0.0032 -0.26913,0.505875 -0.50627,0.500192 -0.24021,-0.0056 -0.24789,-0.538324 -0.48801,-0.530686 -0.24552,0.0077 -0.21807,0.559803 -0.46356,0.57338 -0.28271,0.01564 -0.32098,-0.611492 -0.6039,-0.597782 -0.23519,0.01151 -0.216,0.538659 -0.4514,0.542886 -0.23165,0.0038 -0.23195,-0.512013 -0.46357,-0.518484 -0.2588,-0.0071 -0.29009,0.549722 -0.549,0.548979 -0.25172,-7.17e-4 -0.27916,-0.543547 -0.53067,-0.536786 -0.24198,0.0062 -0.23992,0.540591 -0.48191,0.542895 -0.24906,0.0024 -0.25732,-0.556431 -0.50627,-0.548992 -0.24404,0.0071 -0.21955,0.558273 -0.4636,0.567284 -0.27178,0.01003 -0.28948,-0.603295 -0.56117,-0.591683 -0.25734,0.01092 -0.22428,0.599896 -0.48191,0.603886 -0.26677,0.0038 -0.25172,-0.613263 -0.51845,-0.609985 -0.24582,0.0032 -0.21779,0.56904 -0.4636,0.573381 -0.26647,0.0047 -0.25792,-0.608961 -0.52459,-0.603877 -0.26619,0.0047 -0.23401,0.618212 -0.5002,0.622179 -0.25674,0.0038 -0.24346,-0.585702 -0.50019,-0.585584 -0.25378,1.15e-4 -0.24021,0.576162 -0.49408,0.579487 -0.24316,0.0032 -0.24464,-0.539963 -0.48797,-0.542886 -0.24582,-0.0032 -0.26028,0.539873 -0.5063,0.53679 -0.26501,-0.0032 -0.26589,-0.596246 -0.53068,-0.591692 -0.25968,0.0047 -0.2405,0.5934 -0.50019,0.597788 -0.26204,0.0047 -0.26263,-0.593557 -0.52459,-0.585586 -0.24878,0.0077 -0.21513,0.568574 -0.4636,0.585586 -0.27268,0.01859 -0.31909,-0.586335 -0.59167,-0.567284 -0.24257,0.01682 -0.20805,0.567986 -0.45138,0.573381 -0.25231,0.0056 -0.24198,-0.568281 -0.49408,-0.573381 -0.25616,-0.0056 -0.26855,0.566003 -0.52461,0.561188 -0.24198,-0.0047 -0.23371,-0.545367 -0.47578,-0.548992 -0.24316,-0.0038 -0.25113,0.529276 -0.49408,0.536787 -0.28181,0.0086 -0.32922,-0.610219 -0.61,-0.585584 -0.22309,0.01947 -0.17352,0.521771 -0.3965,0.542883 -0.25201,0.0239 -0.30285,-0.540738 -0.55507,-0.518485 -0.25319,0.02242 -0.20362,0.597757 -0.45749,0.609986 -0.2833,0.01357 -0.29068,-0.648791 -0.57338,-0.628287 -0.24227,0.0177 -0.16643,0.582783 -0.40867,0.603885 -0.25941,0.02242 -0.28271,-0.567789 -0.5429,-0.561185 -0.25644,0.0062 -0.24995,0.584572 -0.50629,0.579487 -0.25585,-0.0047 -0.22605,-0.58905 -0.4819,-0.597788 -0.26029,-0.0089 -0.27032,0.574138 -0.53068,0.573389 -0.25909,-7.41e-4 -0.26559,-0.581095 -0.52459,-0.573389 -0.23549,0.0071 -0.21011,0.534864 -0.44528,0.54899 -0.26853,0.01593 -0.31106,-0.576881 -0.57948,-0.561187 -0.25673,0.01505 -0.23077,0.595696 -0.48797,0.597782 -0.25539,0.0024 -0.2389,-0.575537 -0.4941,-0.585585 -0.24567,-0.0097 -0.27272,0.531843 -0.51848,0.524589 -0.22177,-0.0062 -0.21731,-0.499807 -0.43918,-0.500191 -0.25787,-4.42e-4 -0.25457,0.577708 -0.51239,0.57949 -0.27206,0.0016 -0.27702,-0.610157 -0.54899,-0.603888 -0.26132,0.0062 -0.23882,0.600819 -0.50019,0.603888 -0.26662,0.0032 -0.25803,-0.61083 -0.52459,-0.603888 -0.24761,0.0062 -0.20985,0.58069 -0.45749,0.585585 -0.26107,0.0056 -0.24517,-0.599481 -0.50628,-0.597782 -0.25564,0.0016 -0.23263,0.579449 -0.48799,0.591683 -0.27573,0.01328 -0.30989,-0.599412 -0.58558,-0.585584 -0.24389,0.01239 -0.2197,0.555047 -0.4636,0.567282 -0.25847,0.01298 -0.29031,-0.557006 -0.54899,-0.548979 -0.25484,0.008 -0.25139,0.579909 -0.50628,0.57338 -0.24156,-0.0062 -0.21008,-0.554315 -0.45138,-0.567284 -0.24263,-0.01298 -0.26939,0.519148 -0.51239,0.518484 -0.25304,-6.87e-4 -0.2778,-0.552142 -0.5307,-0.542883 -0.25522,0.0094 -0.23867,0.584929 -0.49408,0.585584 -0.25384,6.58e-4 -0.24026,-0.576081 -0.49408,-0.579486 -0.24617,-0.0032 -0.24791,0.549746 -0.49409,0.54899 -0.24484,-7.58e-4 -0.24325,-0.555651 -0.48799,-0.54899 -0.25458,0.0071 -0.2212,0.590373 -0.47578,0.597788 -0.26196,0.0077 -0.26252,-0.583819 -0.52459,-0.585583 -0.24319,-0.0016 -0.25092,0.53313 -0.49408,0.536785 -0.25303,0.0038 -0.52452,-0.567269 -0.5307,-0.542885 -0.006,0.02449 -0.26408,0.585235 -0.52457,0.57948 -0.24544,-0.0056 -0.22425,-0.56281 -0.4697,-0.567284 -0.25053,-0.0047 -0.24962,0.557704 -0.50018,0.561185 -0.24308,0.0032 -0.25715,-0.5257 -0.50019,-0.530686 -0.25012,-0.0056 -0.28674,0.533371 -0.536787,0.524589 -0.2447,-0.0086 -0.24328,-0.541087 -0.48799,-0.548991 -0.24862,-0.008 -0.28202,0.531026 -0.53068,0.524592 -0.25036,-0.0062 -0.25591,-0.559623 -0.5063,-0.555088 -0.24519,0.0047 -0.2307,0.552504 -0.47577,0.561186 -0.25291,0.0089 -0.27772,-0.549577 -0.53069,-0.542883 -0.24629,0.0062 -0.24163,0.556304 -0.48799,0.555088 -0.25228,-0.0016 -0.2418,-0.575742 -0.49408,-0.573391 -0.24835,0.0024 -0.22758,0.564691 -0.4758,0.573391 -0.25296,0.0089 -0.27152,-0.543995 -0.52457,-0.548992 -0.25736,-0.0056 -0.29791,0.54721 -0.5551,0.536787 -0.24617,-0.01003 -0.24192,-0.567152 -0.48798,-0.555088 -0.24009,0.0118 -0.18157,0.562942 -0.42089,0.585585 -0.27061,0.02567 -0.32041,-0.57856 -0.59169,-0.561187 -0.24086,0.01534 -0.21616,0.558523 -0.45748,0.561187 -0.25381,0.0032 -0.24027,-0.577192 -0.49409,-0.57948 -0.25783,-0.0024 -0.25456,0.576553 -0.51239,0.57948 -0.2604,0.0032 -0.52451,-0.597764 -0.53068,-0.57338 -0.006,0.02449 -0.24166,0.550534 -0.48799,0.555088 -0.26317,0.0047 -0.27984,-0.582682 -0.54289,-0.573391 -0.24977,0.0089 -0.2259,0.574264 -0.47579,0.579487 -0.25626,0.0056 -0.25608,-0.576036 -0.51238,-0.573389 -0.2437,0.0024 -0.23228,0.545733 -0.47579,0.555088 -0.25287,0.0097 -0.28392,-0.545804 -0.53679,-0.536787 -0.24201,0.0086 -0.23366,0.544984 -0.47578,0.548992 -0.26326,0.0047 -0.27388,-0.594011 -0.53679,-0.57949 -0.24239,0.01328 -0.19055,0.574841 -0.43309,0.585586 -0.26331,0.01151 -0.26101,-0.591252 -0.52458,-0.591683 -0.25346,-4.13e-4 -0.25299,0.558642 -0.50629,0.567284 -0.25004,0.0086 -0.28698,-0.538558 -0.53679,-0.524592 -0.24381,0.01357 -0.21958,0.557549 -0.46359,0.567294 -0.28164,0.01121 -0.30406,-0.623743 -0.58558,-0.609986 -0.25597,0.01239 -0.21961,0.596609 -0.47579,0.603879 -0.25774,0.0071 -0.25464,-0.58617 -0.51239,-0.57948 -0.24157,0.0062 -0.20996,0.556728 -0.45138,0.567284 -0.27731,0.0121 -0.29626,-0.619525 -0.57339,-0.603885 -0.2493,0.01416 -0.45139,0.597789 -0.45139,0.597789 0,0 -1.59718,-0.04591 -2.39421,-0.0983 -1.31549,-0.08644 -2.47253,-0.698915 -3.41178,-1.54414 -0.586156,-0.527488 -1.388861,-1.915079 -1.388861,-1.915079 l -0.01711,-0.30193 0.232921,-0.163896 2.91574,-0.241538 c 1.0682,0.89097 2.43018,1.517593 4.01995,0.854024 0.77387,-0.323013 1.31511,-0.893514 1.55276,-1.863315 0.18352,-0.748953 0.34542,-1.615995 0.0949,-2.36366 -0.24927,-0.743945 -0.72608,-1.48275 -1.49238,-1.820188 -1.11764,-0.492141 -2.28023,-0.555141 -3.4851,0.155281 -0.25287,0.149084 -0.32311,0.345394 -0.49172,0.500338 l -0.28468,0.05177 -2.88986,-0.241538 z"
     id="compensator_left"
     sodipodi:nodetypes="ccccccccscssscccscsssssssssssssssssssasssssssssssssssssssssssssaaaaasssssssaaasssssssssssssssssssssssssssssssssssssasssssssssssssssssssssssssscssccccssasscccc"
     inkscape:label="compensator_left">
    <title
       id="title5">metal</title>
  </path>
  <path
     style="fill:#5e5e5e;fill-rule:evenodd;stroke:#000000;stroke-width:0.0301566"
     d="m 177.80485,61.943815 c -0.006,0.352794 -0.26589,0.655191 -0.49409,0.963768 -0.53693,0.727704 -1.17502,1.401456 -2.05565,1.945853 -0.86434,0.456748 -1.78254,0.711557 -2.73883,0.823481 l -0.88447,-0.0062 -62.3575,-4.451579 0.23723,-3.269436 56.15156,4.076359 c 0.0655,0 0.42359,-0.109306 0.40564,-0.247056 -0.0177,-0.138104 0.003,-0.417842 0.003,-0.417842 0,0 -0.3243,-1.174784 -0.38734,-1.7781 -0.0339,-0.325594 -0.006,-0.654981 0.006,-0.982074 0.0295,-0.726546 0.41483,-1.506405 0.45138,-2.086151 0.0118,-0.175139 -0.38427,-0.359883 -0.38427,-0.359883 l -29.42639,0.0177 -29.59317,-2.117804 c 0.003,0.02921 -0.23333,-0.04075 -0.30192,-0.448572 -0.0503,-0.299687 0.10357,-0.905782 0.10357,-0.905782 0,0 1.08311,-0.200371 1.55276,0.01711 0.21846,0.10125 0.2323,0.546968 0.47307,0.545889 0.25098,-7.82e-4 0.23714,-0.565409 0.48798,-0.57338 0.25727,-0.0083 0.27957,0.564723 0.53679,0.555079 0.25104,-0.0094 0.23071,-0.57427 0.48188,-0.579478 0.25762,-0.0056 0.26084,0.569937 0.5185,0.573381 0.24446,0.0032 0.26181,-0.529883 0.50628,-0.530688 0.25452,-7.81e-4 0.2763,0.55682 0.53068,0.54899 0.25659,-0.008 0.24352,-0.588897 0.50019,-0.585587 0.24862,0.0032 0.22109,0.57499 0.46969,0.579487 0.25358,0.0047 0.24667,-0.565407 0.50019,-0.573386 0.27736,-0.0089 0.30887,0.612496 0.58558,0.59168 0.24089,-0.018 0.186,-0.568975 0.427,-0.585584 0.24245,-0.01682 0.26328,0.521701 0.50628,0.52459 0.2372,0.0032 0.26914,-0.505875 0.50626,-0.50019 0.24023,0.0056 0.2479,0.538322 0.48802,0.530688 0.24552,-0.0077 0.21806,-0.559804 0.4636,-0.573381 0.2827,-0.01564 0.32097,0.611491 0.60386,0.597779 0.23519,-0.01151 0.21599,-0.538659 0.45139,-0.542881 0.23195,-0.0038 0.23195,0.512009 0.46358,0.518483 0.25881,0.0071 0.29008,-0.549723 0.549,-0.548982 0.25172,7.17e-4 0.27916,0.543547 0.53068,0.536785 0.24198,-0.0062 0.23992,-0.540589 0.4819,-0.542891 0.24906,-0.0024 0.25732,0.556432 0.50626,0.548989 0.24405,-0.0071 0.21956,-0.558272 0.4636,-0.567282 0.27178,-0.01003 0.28949,0.603292 0.56119,0.591683 0.25733,-0.01092 0.22426,-0.599899 0.4819,-0.603888 0.26676,-0.0038 0.25171,0.613264 0.51848,0.609984 0.24581,-0.0032 0.21778,-0.56904 0.46357,-0.57338 0.26676,-0.0047 0.25791,0.60896 0.52459,0.603879 0.26619,-0.0047 0.23401,-0.618215 0.5002,-0.622182 0.25673,-0.0038 0.24345,0.585702 0.50019,0.585587 0.25378,-1.18e-4 0.24021,-0.576161 0.49408,-0.579486 0.24316,-0.0032 0.24463,0.539961 0.488,0.542882 0.24581,0.0032 0.26027,-0.53987 0.50626,-0.536786 0.26501,0.0032 0.2659,0.596243 0.53072,0.591693 0.25968,-0.0047 0.2405,-0.593402 0.50015,-0.597789 0.26205,-0.0047 0.26264,0.593553 0.52461,0.585582 0.24876,-0.0077 0.21511,-0.568571 0.46358,-0.585582 0.27268,-0.01859 0.31913,0.586333 0.59167,0.567281 0.24259,-0.01682 0.20835,-0.567987 0.45139,-0.573382 0.25231,-0.0056 0.24198,0.568286 0.49411,0.573382 0.25586,0.0056 0.26855,-0.566004 0.52457,-0.561185 0.24228,0.0047 0.23372,0.545368 0.47579,0.548989 0.24316,0.0038 0.25112,-0.529273 0.49411,-0.536786 0.28183,-0.0086 0.32918,0.61022 0.60996,0.585586 0.22339,-0.01947 0.17353,-0.521771 0.39651,-0.542886 0.25201,-0.0239 0.30288,0.540738 0.55506,0.518487 0.2532,-0.02242 0.20363,-0.59776 0.4575,-0.609985 0.2833,-0.01357 0.29068,0.648787 0.57337,0.628288 0.24228,-0.0177 0.16643,-0.582784 0.40872,-0.60389 0.25939,-0.02242 0.2827,0.567792 0.54286,0.561186 0.25643,-0.0062 0.24994,-0.584569 0.50629,-0.579487 0.25586,0.0047 0.22605,0.589054 0.48189,0.597788 0.26029,0.0089 0.27033,-0.574136 0.53069,-0.573386 0.25909,7.4e-4 0.26558,0.581094 0.52459,0.573386 0.23548,-0.0071 0.21011,-0.534865 0.44527,-0.548988 0.26854,-0.01623 0.31107,0.576878 0.57952,0.561184 0.25673,-0.01505 0.23076,-0.595696 0.48797,-0.597779 0.25526,-0.0024 0.23903,0.575536 0.49408,0.585583 0.24552,0.0097 0.27268,-0.531843 0.5185,-0.524589 0.22191,0.0062 0.21719,0.499807 0.43918,0.50019 0.25793,4.46e-4 0.25468,-0.577706 0.51239,-0.579486 0.27207,-0.0016 0.27709,0.610156 0.54899,0.603885 0.26117,-0.0062 0.23873,-0.600815 0.50017,-0.603885 0.26677,-0.0032 0.25821,0.610826 0.52459,0.603885 0.24759,-0.0062 0.20982,-0.580688 0.45749,-0.585583 0.26116,-0.0056 0.24523,0.599483 0.5063,0.597779 0.25555,-0.0016 0.23253,-0.579448 0.48797,-0.591683 0.27563,-0.01328 0.30989,0.599412 0.58559,0.585587 0.24405,-0.01239 0.21956,-0.555049 0.4636,-0.567284 0.2585,-0.01298 0.29039,0.557009 0.54898,0.548982 0.25496,-0.008 0.25142,-0.579909 0.50629,-0.573381 0.24169,0.0062 0.21012,0.554315 0.45139,0.567282 0.24257,0.01298 0.26942,-0.519148 0.51237,-0.518485 0.25319,6.88e-4 0.2777,0.552147 0.53071,0.542886 0.25526,-0.0094 0.23874,-0.584932 0.49408,-0.585587 0.25378,-6.55e-4 0.24021,0.576085 0.49408,0.579487 0.24611,0.0032 0.24788,-0.549746 0.49408,-0.548988 0.24493,7.56e-4 0.24316,0.555649 0.488,0.548988 0.25469,-0.0071 0.22133,-0.590369 0.47579,-0.597788 0.26206,-0.0077 0.26265,0.583821 0.52457,0.585586 0.24316,0.0016 0.25083,-0.533133 0.49411,-0.536786 0.2529,-0.0038 0.52452,0.567267 0.53068,0.542883 0.006,-0.02449 0.26411,-0.585233 0.52459,-0.579478 0.24552,0.0056 0.22428,0.562809 0.46968,0.567282 0.25054,0.0047 0.24965,-0.557703 0.50019,-0.561186 0.24316,-0.0032 0.25703,0.5257 0.50019,0.53069 0.25025,0.0056 0.28684,-0.533375 0.53679,-0.524589 0.24463,0.0086 0.24316,0.541085 0.48797,0.548987 0.24876,0.008 0.28212,-0.531023 0.53071,-0.524589 0.25024,0.0062 0.25585,0.559623 0.50627,0.555088 0.24522,-0.0047 0.23076,-0.552503 0.47578,-0.561187 0.2529,-0.0089 0.27768,0.549575 0.5307,0.542885 0.24611,-0.0062 0.24168,-0.556307 0.48799,-0.555088 0.2523,0.0016 0.24168,0.575739 0.49408,0.57339 0.24847,-0.0024 0.22752,-0.564694 0.47578,-0.57339 0.2529,-0.0089 0.27149,0.543992 0.52459,0.548989 0.25732,0.0056 0.29791,-0.547209 0.55508,-0.536786 0.24611,0.01003 0.24198,0.56715 0.48801,0.555087 0.2402,-0.0118 0.18149,-0.56294 0.42087,-0.585583 0.2706,-0.02567 0.32041,0.578557 0.5917,0.561184 0.2408,-0.01534 0.2163,-0.558522 0.45748,-0.561184 0.2538,-0.0032 0.24021,0.577191 0.49409,0.579478 0.25792,0.0024 0.25467,-0.576551 0.51238,-0.579478 0.26057,-0.0032 0.5245,0.597764 0.53066,0.573381 0.006,-0.02449 0.24169,-0.550537 0.48802,-0.555088 0.26322,-0.0047 0.27975,0.58268 0.54288,0.57339 0.24965,-0.0089 0.22575,-0.574264 0.47579,-0.579486 0.25614,-0.0056 0.25614,0.576034 0.51239,0.573386 0.24375,-0.0024 0.23223,-0.545733 0.47578,-0.555087 0.2529,-0.0097 0.28388,0.545804 0.53678,0.536786 0.24198,-0.0086 0.23372,-0.544984 0.47578,-0.548989 0.26323,-0.0047 0.27385,0.594009 0.53679,0.579486 0.24228,-0.01328 0.19063,-0.574841 0.43311,-0.585582 0.26324,-0.01151 0.26088,0.591252 0.52457,0.59168 0.25349,4.16e-4 0.2529,-0.558638 0.5063,-0.567282 0.24995,-0.0086 0.28712,0.538557 0.53679,0.524589 0.24375,-0.01357 0.21954,-0.557546 0.46358,-0.56729 0.28154,-0.01121 0.30408,0.62374 0.58557,0.609983 0.25586,-0.01239 0.21955,-0.596608 0.47581,-0.603877 0.25764,-0.0071 0.25469,0.58617 0.51239,0.579478 0.24169,-0.0062 0.21011,-0.556726 0.45139,-0.567281 0.27738,-0.0121 0.29624,0.619525 0.57336,0.603885 0.24937,-0.01416 0.45138,-0.597789 0.45138,-0.597789 0,0 1.5972,0.04591 2.39423,0.0983 1.31549,0.08644 2.47252,0.698916 3.41176,1.54414 0.58619,0.527488 1.38888,1.915082 1.38888,1.915082 l 0.0177,0.301927 -0.23283,0.163898 -2.91574,0.241537 c -1.06819,-0.890971 -2.4302,-1.517594 -4.01994,-0.854025 -0.77387,0.323017 -1.3151,0.893517 -1.55277,1.863317 -0.18356,0.748955 -0.34542,1.615993 -0.095,2.363662 0.24935,0.743941 0.72608,1.482746 1.49239,1.820184 1.11763,0.492141 2.28023,0.555141 3.48511,-0.15528 0.2529,-0.149083 0.32311,-0.345391 0.49169,-0.500338 l 0.28476,-0.05175 2.88988,0.241537 z"
     id="compensator_right"
     sodipodi:nodetypes="ccccccccscssscccscsssssssssssssssssssasssssssssssssssssssssssssaaaaasssssssaaasssssssssssssssssssssssssssssssssssssasssssssssssssssssssssssssscssccccssasscccc"
     inkscape:label="compensator_right">
    <title
       id="title6">metal</title>
  </path>
</svg>
