<?xml version="1.0" encoding="UTF-8" standalone="no"?>
<!-- Created with Inkscape (http://www.inkscape.org/) -->

<svg
   width="210mm"
   height="297mm"
   viewBox="0 0 210 297"
   version="1.1"
   id="svg1"
   inkscape:version="1.4 (86a8ad7, 2024-10-11)"
   sodipodi:docname="DSHA-30-130.svg"
   xmlns:inkscape="http://www.inkscape.org/namespaces/inkscape"
   xmlns:sodipodi="http://sodipodi.sourceforge.net/DTD/sodipodi-0.dtd"
   xmlns="http://www.w3.org/2000/svg"
   xmlns:svg="http://www.w3.org/2000/svg">
  <sodipodi:namedview
     id="namedview1"
     pagecolor="#ffffff"
     bordercolor="#000000"
     borderopacity="0.25"
     inkscape:showpageshadow="2"
     inkscape:pageopacity="0.0"
     inkscape:pagecheckerboard="0"
     inkscape:deskcolor="#d1d1d1"
     inkscape:document-units="mm"
     inkscape:zoom="0.74016561"
     inkscape:cx="188.47133"
     inkscape:cy="331.68253"
     inkscape:window-width="2560"
     inkscape:window-height="1377"
     inkscape:window-x="-8"
     inkscape:window-y="-8"
     inkscape:window-maximized="1"
     inkscape:current-layer="svg1" />
  <defs
     id="defs1" />
  <rect
     style="fill:#b8b8b8;fill-opacity:1;fill-rule:evenodd;stroke:#b81e1e;stroke-width:0.0528415"
     id="concrete_right"
     width="78.162048"
     height="74.286728"
     x="171.76385"
     y="29.985788" />
  <rect
     style="fill:#b8b8b8;fill-opacity:1;fill-rule:evenodd;stroke:#b81e1e;stroke-width:0.0528572"
     id="concrete_left"
     width="78.201073"
     height="74.29377"
     x="-40.048508"
     y="30.157976" />
  <rect
     style="fill:#a39a9a;fill-rule:evenodd;stroke:#b81e1e;stroke-width:0.0329538"
     id="finish_right"
     width="65.807053"
     height="24.735327"
     x="184.28847"
     y="5.2942247" />
  <rect
     style="fill:#a39a9a;fill-rule:evenodd;stroke:#b81e1e;stroke-width:0.032828"
     id="finish_left"
     width="65.807182"
     height="24.545748"
     x="-40.095581"
     y="5.639308" />
  <rect
     style="fill:#a39a9a;fill-rule:evenodd;stroke:#b81e1e;stroke-width:0.0329314"
     id="cover_right"
     width="65.769066"
     height="4.9670687"
     x="184.21774"
     y="0.22918507" />
  <rect
     style="fill:#a39a9a;fill-rule:evenodd;stroke:#b81e1e;stroke-width:0.0341611"
     id="cover_left"
     width="65.767876"
     height="5.3449874"
     x="-40.054398"
     y="0.18344247" />
  <rect
     style="fill:#404242;fill-opacity:0.341246;fill-rule:evenodd;stroke:#b81e1e;stroke-width:0.0220968"
     id="shadow"
     width="206.1666"
     height="0.010394817"
     x="2.6252089"
     y="104.03519"
     inkscape:label="shadow" />
  <ellipse
     style="opacity:0;fill:none;fill-opacity:0;fill-rule:evenodd;stroke-width:0.00368993;stroke-opacity:0"
     id="bolt_left"
     cx="21.741133"
     cy="-27.548943"
     rx="0.094999999"
     ry="0.028942173"
     inkscape:label="bolt_left"
     transform="scale(-1)" />
  <ellipse
     style="opacity:0;fill:none;fill-opacity:0;fill-rule:evenodd;stroke-width:0.000191947;stroke-opacity:0"
     id="bolt_right"
     cx="230.99635"
     cy="27.743528"
     rx="0.0049418169"
     ry="0.0015055466"
     inkscape:label="bolt_right" />
  <path
     id="profile_left"
     style="display:inline;fill:#5e5e5e;fill-rule:evenodd;stroke:#000000;stroke-width:0.0429187"
     d="m 27.563394,0.02160636 c -0.23763,0.002 -0.24202,0.52778 -0.47965,0.52739 -0.23203,-3.9e-4 -0.4666,-0.51654 -0.4666,-0.51654 h -0.99402 V 26.380086 c -0.0824,0.61577 -0.35762,1.05266 -1.09167,1.06344 h -56.19806 l -0.0326,2.53491 h 69.710433 v -16.3967 l -3.498533,-0.29515 -1.87516,-0.48617 -1.6668,-0.89419 -1.37164,-1.38031 -0.8855,-1.5973497 c -0.0464,-0.40583 0.14455,-0.66715 0.47748,-0.84206 h 3.1947 l 0.43407,0.26043 c 0,0 1.28027,1.01801 2.04877,1.0678 0.747299,0.0483 1.573033,-0.2502 2.109543,-0.77264 0.53973,-0.52559 0.84054,-1.34752 0.83339,-2.10086 -0.007,-0.73408 -0.32581,-1.51822 -0.85077,-2.03141 -0.52682,-0.515 -1.321644,-0.84444 -2.057423,-0.80736 -0.76198,0.0385 -2.03577,1.04608 -2.03577,1.04608 l -0.41887,0.19968 h -3.14044 c -0.40539,-0.15903 -0.59069,-0.41376 -0.61636,-0.7379 l 0.7292,-1.31087 0.90287,-1.17197 1.24141,-0.92020994 v -0.77482 h -1.0678 c 0,0 -0.23044,0.48665 -0.45358,0.49266 -0.24036,0.006 -0.27632,-0.51383 -0.51653,-0.50351 -0.23779,0.0102 -0.22891,0.52897 -0.46663,0.54042 -0.24277,0.0116 -0.28437,-0.5077 -0.52738,-0.50352 -0.22864,0.004 -0.25099,0.49336 -0.47964,0.49049 -0.24006,-0.003 -0.25042,-0.52873 -0.49048,-0.52739 z m 0.34725,11.87379964 c 0.0553,0.003 0.11575,0.021 0.17796,0.0456 l 1.61472,1.47581 1.92723,1.04178 1.90987,0.69448 2.048789,0.0522 c 0.19833,0.0422 0.40984,0.0562 0.451417,0.43406 v 11.87592 c 0.023,0.31734 -0.0926,0.48702 -0.416707,0.4341 h -7.656859 c -0.37849,0.009 -0.37103,-0.23894 -0.4167,-0.45143 v -15.22693 c 0.0655,-0.28917 0.1944,-0.38694 0.36028,-0.37547 z"
     sodipodi:nodetypes="ssccccccccccccccccssssscccccccccssssssscccccccccccssc"
     inkscape:label="profile_left" />
  <path
     id="profile_right"
     style="display:inline;fill:#5e5e5e;fill-rule:evenodd;stroke:#000000;stroke-width:0.0420422"
     d="m 178.19372,0.12102114 v 0.75172 l 1.12762,0.87772996 0.99068,1.12975 0.67352,1.37742 c 0.0678,0.39611 -0.2081,0.63117 -0.56926,0.75389 h -2.9873 l -0.56922,-0.16078 -0.9581,-0.77344 c -0.6517,-0.37077 -1.41998,-0.32241 -2.22256,-0.1499 -0.66422,0.29861 -1.1975,0.82709 -1.61858,1.55123 -0.33888,0.93422 -0.28106,1.69844 0.02,2.35944 0.59564,0.95376 1.4418,1.62285 2.88518,1.60772 0.45692,0.0628 1.2405,-0.32653 2.42682,-1.26662 h 3.02208 c 0.51464,0.0462 0.69688,0.3431 0.60398,0.84513 l -0.85604,1.5381999 -1.39046,1.40132 -1.66418,0.90163 -1.85756,0.50187 -3.5913,0.27374 v 16.4031 l 69.84673,0.0348 v -2.49414 h -9.8614 -46.47833 c -0.63198,-0.006 -0.9633,-0.35686 -0.98854,-1.0624 V 0.13189114 h -1.11662 c 0,0 -0.1946,0.52654 -0.42152,0.53663 -0.22816,0.01 -0.2388,-0.49514 -0.4671,-0.50187 -0.24182,-0.007 -0.28404,0.50986 -0.52578,0.50187 -0.23662,-0.008 -0.24128,-0.51778 -0.47798,-0.52577 -0.23084,-0.008 -0.27062,0.48014 -0.50186,0.48014 -0.23122,0 -0.27104,-0.48813 -0.50186,-0.48014 -0.2366,0.008 -0.2417,0.5388 -0.47798,0.52577 -0.22534,-0.0124 -0.39974,-0.5475 -0.39974,-0.5475 z m 3.6478,11.87322986 c 0.20202,-0.0118 0.31826,0.1269 0.3498,0.42583 v 15.20816 c -0.0456,0.27762 -0.1892,0.42194 -0.44322,0.42149 h -7.7518 c -0.31784,-0.0372 -0.2861,-0.24208 -0.33024,-0.41062 v -11.89061 c -0.004,-0.21505 0.1322,-0.37369 0.43232,-0.46711 h 2.05096 l 2.01832,-0.72999 1.81194,-0.99071 1.63162,-1.50561 c 0.086,-0.0371 0.163,-0.0569 0.2303,-0.0608 z"
     inkscape:label="profile_right" />
  <path
     style="fill:#5e5e5e;fill-rule:evenodd;stroke:#000000;stroke-width:0.0295876"
     d="M 32.565546,4.3716646 29.597122,4.0724316 C 29.301565,3.936671 29.190896,3.7052592 29.35774,3.3303256 c 0,0 0.659549,-0.8689776 1.029374,-1.2687618 0.295133,-0.319043 0.592106,-0.6448416 0.945592,-0.8977135 0.307705,-0.22012848 1.005432,-0.52665569 1.005432,-0.52665569 V 0.07463474 l 3.028269,0.03592843 c 0,0 0.237617,0.47057419 0.454838,0.46681275 0.237211,-0.003779 0.241554,-0.52946948 0.478779,-0.52665858 0.237559,0.0031975 0.229365,0.53015937 0.466814,0.53862212 0.231188,0.00843 0.259475,-0.49638006 0.490742,-0.49074274 0.231537,0.005523 0.235243,0.51855239 0.466814,0.51468437 0.240598,-0.003779 0.227134,-0.52913132 0.466804,-0.5505973 0.262547,-0.02344843 0.347999,0.52734459 0.610447,0.50271792 0.217179,-0.0202703 0.200842,-0.49790033 0.418922,-0.50271792 0.242837,-0.005523 0.248127,0.5274754 0.49076,0.53863085 0.248263,0.0112882 0.303067,-0.52502591 0.550593,-0.50271792 0.209815,0.01881688 0.173247,0.48317433 0.383023,0.50271792 0.272845,0.0254832 0.336737,-0.56387182 0.610435,-0.5505973 0.248243,0.01216024 0.254231,0.55540616 0.502717,0.5505973 0.234949,-0.004651 0.454841,-0.53863085 0.454841,-0.53863085 0,0 0.254202,0.554288 0.502717,0.5505973 0.263088,-0.003779 0.251596,-0.60185247 0.514693,-0.59847376 0.252352,0.0031975 0.226442,0.58237864 0.478775,0.58650731 0.248824,0.003779 0.241954,-0.56817781 0.49074,-0.56256956 0.249813,0.005523 0.216976,0.5819649 0.466818,0.58650731 0.257448,0.004651 0.245259,-0.58234086 0.502717,-0.58650731 0.254115,-0.0037789 0.260539,0.56616821 0.514683,0.56256956 0.236975,-0.003198 0.227886,-0.53536841 0.46487,-0.53797099 0.235676,-0.0023255 0.238254,0.52370523 0.473959,0.52474781 0.237614,7.6741e-4 0.244852,-0.52766627 0.482437,-0.52474781 0.239901,0.0031975 0.234281,0.53085991 0.473968,0.5416772 0.253156,0.0112882 0.296759,-0.52984931 0.550137,-0.52474782 0.239378,0.0046509 0.260055,0.52347656 0.499355,0.51628409 0.234,-0.006976 0.457041,-0.53321347 0.457041,-0.53321347 h 7.304904 c 0,0 0.169952,0.51508939 0.389011,0.53198582 0.244649,0.0188169 0.275345,-0.52206675 0.520662,-0.5206705 0.248408,0.0015503 0.272448,0.53860468 0.520652,0.53263695 0.23742,-0.005523 0.235395,-0.53212438 0.472806,-0.53263695 0.230172,-4.9804e-4 0.230754,0.50453856 0.460839,0.51468049 0.256528,0.0112882 0.306118,-0.54173727 0.562559,-0.52665567 0.250152,0.0147667 0.234223,0.57635666 0.484753,0.57453505 0.242342,-0.00155 0.218593,-0.55413491 0.460819,-0.56255987 0.238283,-0.0084298 0.252178,0.51933917 0.490751,0.5206705 0.229882,0.00155 0.248989,-0.49133283 0.478794,-0.49673275 0.246964,-0.0061043 0.291758,0.51587714 0.538606,0.5086992 0.238283,-0.006976 0.252187,-0.52005135 0.490751,-0.52067438 0.231335,-5.959e-4 0.247265,0.50398336 0.478794,0.50271792 0.240026,-0.00155 0.250733,-0.5275219 0.490721,-0.52665567 0.2655,7.6741e-4 0.273901,0.60544531 0.538645,0.58650731 0.22902,-0.0165011 0.160399,-0.54538534 0.389012,-0.56855084 0.251305,-0.02548322 0.292194,0.53406518 0.544604,0.52665566 0.235676,-0.006976 0.478794,-0.52067438 0.478794,-0.52067438 0,0 0.305537,0.55771419 0.562549,0.53264956 0.236258,-0.0231577 0.176038,-0.56549577 0.412954,-0.58052602 0.243786,-0.01534807 0.252478,0.5307853 0.496719,0.53863084 0.236839,0.007558 0.277661,-0.49565529 0.514693,-0.49075438 0.24118,0.005523 0.261741,0.5282428 0.502708,0.52067438 0.246102,-0.007848 0.232498,-0.56917872 0.478793,-0.56255987 0.25334,0.0069764 0.207887,0.59157101 0.46082,0.60445505 0.262313,0.0133133 0.276207,-0.5703056 0.538636,-0.57453213 0.242623,-0.0037789 0.272447,0.53100719 0.514664,0.51468049 0.220047,-0.0147667 0.401007,-0.52665567 0.401007,-0.52665567 h 3.02227 c 0,0 12.276838,4.15669011 12.357677,4.15633061 0.149682,-6.744e-4 0.337793,0.4194091 0.283445,0.4528028 -0.09467,0.1808397 -0.232779,0.309872 -0.440114,0.3554753 L 74.721862,4.9881472 71.83723,3.5458273 H 41.891702 c -0.170127,0.055705 -0.404553,0.058456 -0.457031,0.2584919 l -0.06773,0.2581439 v 4.1275113 c 0.08895,0.2716356 0.228467,0.4673486 0.474918,0.502717 H 80.66382 L 80.63775,10.592192 66.591025,13.052567 H 34.815804 c -1.529401,0.04305 -2.583043,-0.503844 -3.554924,-1.152116 -0.803122,-0.599209 -1.474102,-1.295329 -1.939053,-2.1425361 -0.06847,-0.4400844 0.09841,-0.6280256 0.344093,-0.7315581 l 2.983415,-0.2678722 c 0,0 0.490424,0.365594 0.77801,0.4488476 0.951222,0.2753708 2.069779,0.5357327 2.968426,0.1196916 0.693845,-0.321227 1.180974,-1.0786463 1.412395,-1.8073839 C 38.033043,6.8115157 37.983939,5.9800876 37.700432,5.2933217 37.446081,4.6770834 36.958057,4.1033845 36.359853,3.8091077 35.642015,3.4559782 34.846332,3.6312794 34.097623,3.7253231 33.845847,3.7569688 33.602189,3.84429 33.367489,3.9407609 33.086819,4.0561388 32.565531,4.3716637 32.565531,4.3716637 Z"
     id="compensator_left"
     sodipodi:nodetypes="cccsscccssssssssssssscsssssssssssssccssssssssssssssssscsssssssssccscccccscccccccccccsssssaac"
     inkscape:label="compensator_left">
    <title
       id="title7">metal</title>
  </path>
  <path
     style="fill:#5e5e5e;fill-rule:evenodd;stroke:#000000;stroke-width:0.0295876"
     d="m 177.02289,4.4019238 2.96843,-0.299234 c 0.29554,-0.1357596 0.40624,-0.3671714 0.23943,-0.7421061 0,0 -0.65954,-0.8689766 -1.02935,-1.2687617 -0.29515,-0.3190431 -0.59212,-0.6448416 -0.94561,-0.8977126 -0.30767,-0.22012844 -1.00541,-0.52665565 -1.00541,-0.52665565 V 0.10489291 l -3.02827,0.0359284 c 0,0 -0.23771,0.47057418 -0.45485,0.46681371 -0.23713,-0.003779 -0.24147,-0.52947045 -0.47876,-0.52665566 -0.23771,0.0031975 -0.22931,0.53015549 -0.46681,0.53861921 -0.23134,0.00843 -0.25943,-0.49638006 -0.49075,-0.49074275 -0.23163,0.005523 -0.23539,0.51855143 -0.46681,0.51468341 -0.2406,-0.003779 -0.22729,-0.52913132 -0.46681,-0.5505973 -0.2626,-0.02344843 -0.34801,0.52734556 -0.61044,0.50271792 -0.21715,-0.0202703 -0.20093,-0.49789646 -0.41895,-0.50271792 -0.24292,-0.005523 -0.24813,0.5274754 -0.49076,0.53863084 -0.24812,0.0112882 -0.30304,-0.5250259 -0.55056,-0.50271695 -0.20991,0.0188169 -0.17314,0.48317433 -0.38305,0.50271695 -0.27273,0.0254832 -0.33672,-0.56387182 -0.61045,-0.55059341 -0.24811,0.01216024 -0.2542,0.55540325 -0.5027,0.55059341 -0.23481,-0.004651 -0.45482,-0.53863084 -0.45482,-0.53863084 0,0 -0.25421,0.55428897 -0.50274,0.5505973 -0.26318,-0.003779 -0.2516,-0.60185247 -0.51469,-0.59847376 -0.25218,0.0031975 -0.22642,0.58237864 -0.47877,0.5865073 -0.24871,0.003779 -0.24204,-0.56817683 -0.49075,-0.56256859 -0.24986,0.005523 -0.21686,0.5819649 -0.46681,0.58650731 -0.25739,0.004651 -0.24523,-0.58234085 -0.5027,-0.58650731 -0.25422,-0.0037789 -0.26058,0.56616822 -0.5147,0.56256859 -0.23713,-0.003198 -0.22786,-0.53536744 -0.46487,-0.53797002 -0.23567,-0.0023255 -0.23828,0.52370524 -0.47396,0.52474782 -0.2377,7.674e-4 -0.24494,-0.52766628 -0.48244,-0.52474782 -0.24002,0.0031975 -0.23423,0.53085992 -0.47396,0.54167623 -0.25305,0.0112882 -0.29677,-0.5298493 -0.55013,-0.52474782 -0.23944,0.004651 -0.26,0.52347657 -0.49935,0.51628507 -0.23395,-0.006976 -0.45705,-0.53321348 -0.45705,-0.53321348 h -7.3049 c 0,0 -0.16995,0.51508842 -0.38901,0.53198583 -0.24466,0.0188169 -0.27534,-0.52206675 -0.52069,-0.52067148 -0.24842,0.00155 -0.27245,0.53860468 -0.52066,0.53263793 -0.23741,-0.005523 -0.23539,-0.53212535 -0.4728,-0.53263793 -0.23018,-4.9803e-4 -0.23075,0.50453857 -0.46082,0.51468147 -0.25652,0.0112882 -0.30615,-0.54173824 -0.56258,-0.52665664 -0.25015,0.0147667 -0.23423,0.57635957 -0.48476,0.57453601 -0.24233,-0.00155 -0.21859,-0.55413587 -0.46081,-0.56256084 -0.23828,-0.0084298 -0.25218,0.51933918 -0.49075,0.52067148 -0.22989,0.00155 -0.249,-0.4913338 -0.47876,-0.49673276 -0.24698,-0.006104 -0.29179,0.51587618 -0.53865,0.50869921 -0.23828,-0.006976 -0.25218,-0.52005232 -0.49075,-0.52067147 -0.23134,-5.9978e-4 -0.24725,0.50397948 -0.47876,0.50271501 -0.24002,-0.00155 -0.25074,-0.5275219 -0.49076,-0.52665664 -0.2655,7.6741e-4 -0.27389,0.60544531 -0.53863,0.58650731 -0.22902,-0.0165011 -0.1604,-0.54538535 -0.38898,-0.56854988 -0.25132,-0.02548321 -0.2922,0.53406421 -0.54464,0.52665567 -0.23567,-0.006976 -0.47876,-0.52067147 -0.47876,-0.52067147 0,0 -0.30555,0.5577103 -0.56256,0.53264567 -0.23626,-0.0231577 -0.17603,-0.56549576 -0.41295,-0.58052505 -0.24379,-0.01534806 -0.25247,0.53078434 -0.49674,0.53863084 -0.23684,0.007558 -0.27766,-0.49565626 -0.51468,-0.49075146 -0.24118,0.005523 -0.26173,0.52823989 -0.50273,0.52067147 -0.2461,-0.007848 -0.23249,-0.56917969 -0.47877,-0.56256084 -0.25334,0.0069764 -0.20787,0.59157101 -0.46081,0.60445505 -0.26231,0.013323 -0.27621,-0.57030463 -0.53864,-0.57453214 -0.24263,-0.003779 -0.27274,0.5310072 -0.5147,0.51468147 -0.22003,-0.0147667 -0.40096,-0.52665664 -0.40096,-0.52665664 h -3.02228 c 0,0 -12.27683,4.15669007 -12.3577,4.15633157 -0.14969,-6.744e-4 -0.33779,0.4194082 -0.28345,0.4528028 0.0947,0.1808397 0.23279,0.309871 0.44011,0.3554744 l 10.56729,-0.039145 2.88463,-1.4423169 h 29.94562 c 0.17024,0.055675 0.40456,0.058456 0.45705,0.2584909 l 0.0677,0.2581439 v 4.1275113 c -0.0889,0.2716366 -0.22844,0.4673486 -0.47494,0.502718 H 128.9248 l 0.0261,1.8995001 14.04675,2.460375 h 31.77594 c 1.5294,0.04305 2.58303,-0.503844 3.55491,-1.152116 0.80313,-0.59921 1.47412,-1.295329 1.93906,-2.1425366 0.0686,-0.4400835 -0.0984,-0.6280255 -0.3441,-0.7315581 L 176.94,8.7887447 c 0,0 -0.4904,0.365594 -0.778,0.4488476 -0.95124,0.2753718 -2.06978,0.5357327 -2.96841,0.1196916 -0.69386,-0.3212261 -1.18099,-1.0786453 -1.41241,-1.8073838 -0.22497,-0.7081233 -0.17575,-1.5395524 0.10771,-2.2263173 0.25449,-0.6162393 0.74234,-1.1899372 1.34057,-1.4842121 0.71783,-0.3531324 1.51351,-0.1778283 2.26223,-0.083785 0.25189,0.031646 0.49541,0.1189679 0.73014,0.2154388 0.28054,0.115377 0.80193,0.4309027 0.80193,0.4309027 z"
     id="compensator_right"
     sodipodi:nodetypes="cccsscccssssssssssssscsssssssssssssccssssssssssssssssscsssssssssccscccccscccccccccccsssssaac"
     inkscape:label="compensator_right">
    <title
       id="title8">metal</title>
  </path>
  <path
     style="fill:#5e5e5e;fill-rule:evenodd;stroke:#000000;stroke-width:0.0295876"
     d="m 71.757974,3.7958041 h -2.471388 c -0.173431,0.031181 -0.317096,0.1219493 -0.389331,0.3554772 l -0.03391,4.0117836 c 0.04166,0.2560598 0.119287,0.4743735 0.406268,0.4739587 h 71.196497 c 0.2791,-0.042672 0.45438,-0.1943313 0.5078,-0.4739587 V 4.1174206 C 140.87634,3.9251735 140.742,3.7581907 140.43223,3.7111659 h -2.40367 l -3.03,1.4896111 H 74.787908 Z"
     id="compensator_middle"
     sodipodi:nodetypes="ccccccccccccc"
     inkscape:label="compensator_middle">
    <title
       id="title9">metal</title>
  </path>
</svg>
