<?xml version="1.0" encoding="UTF-8" standalone="no"?>
<!-- Created with Inkscape (http://www.inkscape.org/) -->

<svg
   width="210mm"
   height="297mm"
   viewBox="0 0 210 297"
   version="1.1"
   id="svg1"
   inkscape:version="1.4 (86a8ad7, 2024-10-11)"
   sodipodi:docname="DSHA-75-080.svg"
   xmlns:inkscape="http://www.inkscape.org/namespaces/inkscape"
   xmlns:sodipodi="http://sodipodi.sourceforge.net/DTD/sodipodi-0.dtd"
   xmlns="http://www.w3.org/2000/svg"
   xmlns:svg="http://www.w3.org/2000/svg">
  <sodipodi:namedview
     id="namedview1"
     pagecolor="#ffffff"
     bordercolor="#000000"
     borderopacity="0.25"
     inkscape:showpageshadow="2"
     inkscape:pageopacity="0.0"
     inkscape:pagecheckerboard="0"
     inkscape:deskcolor="#d1d1d1"
     inkscape:document-units="mm"
     inkscape:zoom="0.74016561"
     inkscape:cx="388.42658"
     inkscape:cy="-43.909092"
     inkscape:window-width="2560"
     inkscape:window-height="1377"
     inkscape:window-x="-8"
     inkscape:window-y="-8"
     inkscape:window-maximized="1"
     inkscape:current-layer="svg1" />
  <defs
     id="defs1" />
  <rect
     style="fill:#b8b8b8;fill-opacity:1;fill-rule:evenodd;stroke:#b81e1e;stroke-width:0.0331264"
     id="concrete_right"
     width="78.181763"
     height="29.187719"
     x="148.15393"
     y="75.094658" />
  <rect
     style="fill:#b8b8b8;fill-opacity:1;fill-rule:evenodd;stroke:#b81e1e;stroke-width:0.033353"
     id="concrete_left"
     width="78.220573"
     height="29.5737"
     x="-16.458202"
     y="74.987801" />
  <rect
     style="fill:#a39a9a;fill-rule:evenodd;stroke:#b81e1e;stroke-width:0.0553103"
     id="finish_right"
     width="65.784698"
     height="69.705307"
     x="160.69958"
     y="5.3054028" />
  <rect
     style="fill:#a39a9a;fill-rule:evenodd;stroke:#b81e1e;stroke-width:0.0551358"
     id="finish_left"
     width="65.784874"
     height="69.263016"
     x="-16.484375"
     y="5.7504616" />
  <rect
     style="fill:#a39a9a;fill-rule:evenodd;stroke:#b81e1e;stroke-width:0.0329314"
     id="cover_right"
     width="65.769066"
     height="4.9670687"
     x="160.61768"
     y="0.22918507" />
  <rect
     style="fill:#a39a9a;fill-rule:evenodd;stroke:#b81e1e;stroke-width:0.0341611"
     id="cover_left"
     width="65.767876"
     height="5.3449874"
     x="-16.45433"
     y="0.28344244" />
  <rect
     style="fill:#404242;fill-opacity:0.341246;fill-rule:evenodd;stroke:#b81e1e;stroke-width:0.0197636"
     id="shadow"
     width="134.69411"
     height="0.012728008"
     x="26.224028"
     y="104.13403"
     inkscape:label="shadow" />
  <ellipse
     style="opacity:0;fill:none;fill-opacity:0;fill-rule:evenodd;stroke-width:0.00368993;stroke-opacity:0"
     id="bolt_left"
     cx="-1.8589146"
     cy="-72.548943"
     rx="0.094999999"
     ry="0.028942173"
     inkscape:label="bolt_left"
     transform="scale(-1)" />
  <ellipse
     style="opacity:0;fill:none;fill-opacity:0;fill-rule:evenodd;stroke-width:0.000191947;stroke-opacity:0"
     id="bolt_right"
     cx="207.39629"
     cy="72.643509"
     rx="0.0049418169"
     ry="0.0015055466"
     inkscape:label="bolt_right" />
  <path
     id="profile_left"
     style="display:inline;fill:#5e5e5e;fill-rule:evenodd;stroke:#000000;stroke-width:0.0421211"
     d="M 49.366512,0.02106055 V 70.45147 c -0.17263,1.41678 -0.99041,1.86676 -2.01125,2.01124 H 1.9695399 -8.0431201 l -0.0131,2.516229 H 61.782177 V 13.414091 l -2.49881,-0.35697 -1.57591,-0.282981 -2.46399,-1.02303 -1.76092,-1.612909 -0.51587,-1.2907505 c -0.10813,-0.33406 0.0175,-0.56986 0.20896,-0.7771 h 2.99074 c 0,0 0.53676,0.61527 0.89897,0.77491 0.96073,0.42289 2.14366,0.73522 3.12786,0.37003 0.63729,-0.23646 1.14657,-0.86352 1.38002,-1.50191 0.30469,-0.83336 -0.0211,-2.50569 -0.11102,-2.65986 -0.5904,-1.01041 -1.36936,-1.61071 -2.49446,-1.6129399 -0.64814,0.0243 -1.55503,0.1774899 -2.6773,1.2429099 l -0.34391,0.148 h -2.47487 c -0.65439,-0.20583 -0.54333,-0.55359 -0.51806,-0.8859199 l 0.50499,-1.0361001 0.91203,-0.9598999 0.96644,-0.79882 V 0.02540055 h -1.11009 c 0,0 -0.18249,0.50961999 -0.4005,0.51803999 -0.23386,0.0108 -0.24485,-0.52211999 -0.47888,-0.51370999 -0.24609,0.007 -0.22856,0.55330999 -0.47451,0.56593999 -0.26654,0.0117 -0.29931,-0.57434999 -0.56593,-0.56593999 -0.23642,0.008 -0.22926,0.53216999 -0.465811,0.53548999 -0.240267,0.003 -0.247357,-0.52267999 -0.487577,-0.53109999 -0.25337,-0.008 -0.29726,0.56041999 -0.54852,0.52671999 -0.20765,-0.0279 -0.32214,-0.53977999 -0.32214,-0.53977999 z M 51.874026,11.618351 c 0.0448,1.1e-4 0.0935,0.003 0.145841,0.013 l 1.37564,1.11444 1.09705,0.870681 1.35824,0.679119 1.35824,0.365661 2.0896,0.29603 c 0.4484,0.23797 0.54818,0.47596 0.48757,0.71395 v 15.21927 H 51.340749 V 12.13634 c 0.0844,-0.29334 0.21997,-0.518889 0.533277,-0.51804 z m -0.594227,20.36271 h 8.519468 V 51.90408 h -8.421518 z m 0.074,20.932999 h 8.445468 v 20.07103 h -8.495528 z"
     inkscape:label="profile_left" />
  <path
     id="profile_right"
     style="display:inline;fill:#5e5e5e;fill-rule:evenodd;stroke:#000000;stroke-width:0.0421162"
     d="M 154.52865,0.02105811 V 1.202878 l 1.01634,0.79873 0.93152,1.2623101 0.55283,1.03383 -0.71821,0.60066 h -2.39842 l -0.40483,-0.1610499 -0.67466,-0.7073501 c -1.17887,-0.59843 -1.45293,-0.68367 -2.84896,-0.36561 -0.84147,0.1916301 -1.24338,0.8371501 -1.60398,1.5517702 -0.2485,0.9164099 -0.48427,1.8345902 0.13055,2.8141199 0.54344,1.0538303 1.38416,1.4492599 2.42236,1.405969 0.72672,-0.0889 1.45405,-0.2220786 2.18079,-0.7769992 l 0.52449,-0.5571598 h 3.07743 c 0.25818,0.097695 0.41253,0.2684499 0.36999,0.5811203 l -1.12954,1.9217605 -1.32325,1.17092 -1.72807,0.80092 -2.28522,0.507079 -2.54858,0.365651 v 61.529393 h 69.85854 v -2.478911 h -9.8831 -45.52627 c -1.18716,-0.193739 -1.90049,-0.888659 -2.08282,-2.14814 V 0.03848811 h -1.08386 c 0,0 -0.12722,0.59779994 -0.3656,0.61591002 -0.24554,0.0168003 -0.22174,-0.56806004 -0.46795,-0.57021004 -0.23249,-0.0020005 -0.21885,0.51693003 -0.45052,0.53103998 -0.26617,0.0168998 -0.32168,-0.56153003 -0.5876,-0.54191001 -0.22659,0.0168998 -0.20192,0.51638999 -0.42878,0.53105005 -0.24174,0.0168003 -0.28223,-0.50620005 -0.52451,-0.50279003 -0.23545,0.002995 -0.2632,0.51554997 -0.49841,0.50279003 -0.24766,-0.0125992 -0.46138,-0.58331 -0.46138,-0.58331 z m 3.4779,11.58940089 c 0.23388,-0.008 0.39123,0.182829 0.53757,0.400491 V 31.00017 L 150.0365,30.96756 V 15.734819 c 0.0503,-0.31293 0.16504,-0.590391 0.59417,-0.69644 l 1.81512,-0.25248 1.53004,-0.42222 1.38201,-0.685569 1.1992,-0.855331 1.18617,-1.13175 c 0.0973,-0.0529 0.1854,-0.0779 0.26334,-0.0805 z m -7.93521,20.41262 8.49453,0.06311 v 19.93381 h -8.49453 z m 0.0174,20.937101 h 8.4967 v 20.057831 h -8.54895 z"
     inkscape:label="profile_right" />
  <path
     style="fill:#5e5e5e;fill-rule:evenodd;stroke:#000000;stroke-width:0.0301566"
     d="m 53.315237,3.5481885 c 0.007,-0.3527956 0.26601,-0.6551919 0.49409,-0.9637727 0.53694,-0.7277017 1.17503,-1.4014515 2.05564,-1.94585095 0.86434,-0.4567501 1.78254,-0.71155598 2.73883,-0.82348002 l 0.88448,0.006196 62.357513,4.45157887 -0.23726,3.2694358 -56.151583,-4.076357 c -0.0654,0 -0.42356,0.1093348 -0.40564,0.2470561 0.018,0.1381328 -0.003,0.4178433 -0.003,0.4178433 0,0 0.32433,1.1747841 0.38733,1.7780999 0.034,0.325594 0.007,0.6549825 -0.006,0.9820709 -0.0295,0.7265495 -0.41482,1.5064077 -0.45139,2.0861511 -0.0112,0.1751408 0.38429,0.3598859 0.38429,0.3598859 l 29.42639,-0.017704 29.593133,2.1178023 c -0.003,-0.02921 0.23341,0.04075 0.30194,0.448575 0.0505,0.299686 -0.10357,0.905781 -0.10357,0.905781 0,0 -1.08312,0.200372 -1.55277,-0.01711 -0.21838,-0.10125 -0.23224,-0.546967 -0.47307,-0.54589 -0.25084,7.82e-4 -0.23726,0.565411 -0.48798,0.573381 -0.25732,0.0083 -0.27945,-0.564719 -0.53679,-0.555079 -0.25112,0.0094 -0.23076,0.574272 -0.48189,0.57948 -0.25762,0.0056 -0.26086,-0.56994 -0.51848,-0.57338 -0.24434,-0.0032 -0.26175,0.529884 -0.50627,0.530686 -0.25468,7.82e-4 -0.27622,-0.55682 -0.53071,-0.548989 -0.25673,0.008 -0.24345,0.588895 -0.50019,0.585584 -0.24876,-0.0032 -0.22103,-0.57499 -0.46967,-0.579486 -0.25349,-0.0047 -0.2467,0.56541 -0.50019,0.573389 -0.2774,0.0089 -0.30889,-0.612498 -0.58559,-0.591683 -0.2408,0.018 -0.18592,0.568978 -0.42699,0.585587 -0.24257,0.01682 -0.26322,-0.521703 -0.50629,-0.524594 -0.23726,-0.0032 -0.26913,0.505875 -0.50627,0.500192 -0.24021,-0.0056 -0.24789,-0.538324 -0.48801,-0.530686 -0.24552,0.0077 -0.21807,0.559803 -0.46356,0.57338 -0.28271,0.01564 -0.32098,-0.611492 -0.6039,-0.597782 -0.23519,0.01151 -0.216,0.538659 -0.4514,0.542886 -0.23165,0.0038 -0.23195,-0.512013 -0.46357,-0.518484 -0.2588,-0.0071 -0.29009,0.549722 -0.54901,0.548979 -0.25171,-7.17e-4 -0.27915,-0.543547 -0.53066,-0.536786 -0.24198,0.0062 -0.23992,0.540591 -0.48191,0.542895 -0.24906,0.0024 -0.25732,-0.556431 -0.50627,-0.548992 -0.24404,0.0071 -0.21955,0.558273 -0.4636,0.567284 -0.27178,0.01003 -0.28948,-0.603295 -0.56117,-0.591683 -0.25734,0.01092 -0.22428,0.599896 -0.48191,0.603886 -0.26677,0.0038 -0.25172,-0.613263 -0.51845,-0.609985 -0.24582,0.0032 -0.21779,0.56904 -0.4636,0.573381 -0.26647,0.0047 -0.25792,-0.608961 -0.52459,-0.603877 -0.26619,0.0047 -0.23402,0.618212 -0.50021,0.622179 -0.25673,0.0038 -0.24345,-0.585702 -0.50018,-0.585584 -0.25379,1.15e-4 -0.24021,0.576162 -0.49408,0.579487 -0.24316,0.0032 -0.24464,-0.539963 -0.48798,-0.542886 -0.24581,-0.0032 -0.26027,0.539873 -0.50629,0.53679 -0.26501,-0.0032 -0.26589,-0.596246 -0.53068,-0.591692 -0.25969,0.0047 -0.24051,0.5934 -0.50019,0.597788 -0.26204,0.0047 -0.26263,-0.593557 -0.52459,-0.585586 -0.24878,0.0077 -0.21513,0.568574 -0.4636,0.585586 -0.27268,0.01859 -0.31909,-0.586335 -0.59167,-0.567284 -0.24257,0.01682 -0.20805,0.567986 -0.45138,0.573381 -0.25231,0.0056 -0.24198,-0.568281 -0.49408,-0.573381 -0.25616,-0.0056 -0.26855,0.566003 -0.52461,0.561188 -0.24198,-0.0047 -0.23372,-0.545367 -0.47578,-0.548992 -0.24316,-0.0038 -0.25113,0.529276 -0.49408,0.536787 -0.28182,0.0086 -0.32922,-0.610219 -0.61,-0.585584 -0.22309,0.01947 -0.17352,0.521771 -0.396503,0.542883 -0.25201,0.0239 -0.30285,-0.540738 -0.55507,-0.518485 -0.25319,0.02242 -0.20362,0.597757 -0.45749,0.609986 -0.28331,0.01357 -0.29068,-0.648791 -0.57338,-0.628287 -0.24227,0.0177 -0.16643,0.582783 -0.40867,0.603885 -0.25941,0.02243 -0.28272,-0.567789 -0.5429,-0.561185 -0.25644,0.0062 -0.24995,0.584572 -0.5063,0.579487 -0.25584,-0.0047 -0.22604,-0.58905 -0.48189,-0.597788 -0.26029,-0.0089 -0.27032,0.574138 -0.53068,0.573389 -0.2591,-7.41e-4 -0.26559,-0.581095 -0.52459,-0.573389 -0.23549,0.0071 -0.21011,0.534864 -0.44528,0.54899 -0.26853,0.01593 -0.31107,-0.576881 -0.57948,-0.561187 -0.25674,0.01505 -0.23077,0.595696 -0.48798,0.597782 -0.25539,0.0024 -0.23889,-0.575537 -0.49409,-0.585585 -0.24567,-0.0097 -0.27273,0.531843 -0.51848,0.524589 -0.22177,-0.0062 -0.21731,-0.499807 -0.43919,-0.500191 -0.25786,-4.42e-4 -0.25456,0.577708 -0.51238,0.57949 -0.27206,0.0016 -0.27702,-0.610157 -0.54899,-0.603888 -0.26132,0.0062 -0.23883,0.600819 -0.50019,0.603888 -0.26662,0.0032 -0.25803,-0.61083 -0.52459,-0.603888 -0.24762,0.0062 -0.20985,0.58069 -0.45749,0.585585 -0.26107,0.0056 -0.24517,-0.599481 -0.50628,-0.597782 -0.25564,0.0016 -0.23263,0.579449 -0.48799,0.591683 -0.27573,0.01328 -0.30989,-0.599412 -0.58558,-0.585584 -0.2439,0.01239 -0.2197,0.555047 -0.4636,0.567282 -0.25847,0.01298 -0.29031,-0.557006 -0.54899,-0.548979 -0.25484,0.008 -0.25139,0.579909 -0.50628,0.57338 -0.24157,-0.0062 -0.21008,-0.554315 -0.45138,-0.567284 -0.24263,-0.01298 -0.26939,0.519148 -0.51239,0.518484 -0.25305,-6.87e-4 -0.2778,-0.552142 -0.5307,-0.542883 -0.25523,0.0094 -0.23867,0.584929 -0.49408,0.585584 -0.25384,6.58e-4 -0.24027,-0.576081 -0.49408,-0.579486 -0.24617,-0.0032 -0.24791,0.549746 -0.49409,0.54899 -0.24484,-7.58e-4 -0.24325,-0.555651 -0.48799,-0.54899 -0.25458,0.0071 -0.22121,0.590373 -0.47579,0.597788 -0.26195,0.0077 -0.26251,-0.583819 -0.52458,-0.585583 -0.24319,-0.0016 -0.25092,0.53313 -0.49408,0.536785 -0.25303,0.0038 -0.52452,-0.567269 -0.5307,-0.542885 -0.006,0.02449 -0.26408,0.585235 -0.52458,0.57948 -0.24543,-0.0056 -0.22424,-0.56281 -0.46969,-0.567284 -0.25053,-0.0047 -0.24962,0.557704 -0.50019,0.561185 -0.24307,0.0032 -0.25714,-0.5257 -0.50018,-0.530686 -0.25013,-0.0056 -0.28674,0.533371 -0.53679,0.524589 -0.2447,-0.0086 -0.24328,-0.541087 -0.48799,-0.548991 -0.24862,-0.008 -0.28202,0.531026 -0.53068,0.524592 -0.25036,-0.0062 -0.25591,-0.559623 -0.5063,-0.555088 -0.24519,0.0047 -0.23071,0.552504 -0.47577,0.561186 -0.25291,0.0089 -0.27772,-0.549577 -0.5307,-0.542883 -0.24628,0.0062 -0.24162,0.556304 -0.48798,0.555088 -0.25228,-0.0016 -0.2418,-0.575742 -0.49408,-0.573391 -0.24835,0.0024 -0.22758,0.564691 -0.4758,0.573391 -0.25296,0.0089 -0.27152,-0.543995 -0.52458,-0.548992 -0.25735,-0.0056 -0.29791,0.54721 -0.5551,0.536787 -0.24616,-0.01003 -0.24191,-0.567152 -0.48797,-0.555088 -0.24009,0.0118 -0.18158,0.562942 -0.42089,0.585585 -0.27061,0.02567 -0.32042,-0.57856 -0.59169,-0.561187 -0.24086,0.01534 -0.21616,0.558523 -0.45748,0.561187 -0.25382,0.0032 -0.24027,-0.577192 -0.4941,-0.57948 -0.25782,-0.0024 -0.25455,0.576553 -0.51238,0.57948 -0.2604,0.0032 -0.52451,-0.597764 -0.53068,-0.57338 -0.006,0.02449 -0.24166,0.550534 -0.48799,0.555088 -0.26317,0.0047 -0.27984,-0.582682 -0.5429,-0.573391 -0.24977,0.0089 -0.22589,0.574264 -0.47578,0.579487 -0.25626,0.0056 -0.25608,-0.576036 -0.51239,-0.573389 -0.24369,0.0024 -0.23227,0.545733 -0.47578,0.555088 -0.25287,0.0097 -0.28392,-0.545804 -0.53679,-0.536787 -0.24201,0.0086 -0.23366,0.544984 -0.47578,0.548992 -0.26326,0.0047 -0.27388,-0.594011 -0.53679,-0.57949 -0.2424,0.01328 -0.19055,0.574841 -0.43309,0.585586 -0.26332,0.01151 -0.26102,-0.591252 -0.52458,-0.591683 -0.25347,-4.13e-4 -0.25299,0.558642 -0.50629,0.567284 -0.25004,0.0086 -0.28699,-0.538558 -0.53679,-0.524592 -0.24381,0.01357 -0.21958,0.557549 -0.46359,0.567294 -0.28164,0.01121 -0.30407,-0.623743 -0.58558,-0.609986 -0.25597,0.01239 -0.21961,0.596609 -0.47579,0.603879 -0.25774,0.0071 -0.25464,-0.58617 -0.51239,-0.57948 -0.24157,0.0062 -0.20996,0.556728 -0.45139,0.567284 -0.2773,0.0121 -0.29625,-0.619525 -0.57338,-0.603885 -0.2493,0.01416 -0.45139,0.597789 -0.45139,0.597789 0,0 -1.59719,-0.04591 -2.39421,-0.0983 -1.31549,-0.08644 -2.47253,-0.698915 -3.41178,-1.54414 -0.58616,-0.527488 -1.38886,-1.9150785 -1.38886,-1.9150785 l -0.0171,-0.3019301 0.23292,-0.1638961 2.91575,-0.2415384 c 1.06819,0.8909708 2.43018,1.5175931 4.01995,0.8540247 0.77387,-0.3230136 1.3151,-0.8935142 1.55276,-1.863315 0.18352,-0.7489535 0.34541,-1.6159948 0.0949,-2.3636604 -0.24927,-0.7439448 -0.72607,-1.4827497 -1.49238,-1.8201874 -1.11764,-0.4921412 -2.28022,-0.5551412 -3.48509,0.1552803 -0.25287,0.149084 -0.32312,0.3453941 -0.49172,0.500338 l -0.28468,0.051768 -2.88986,-0.2415385 z"
     id="compensator_left"
     sodipodi:nodetypes="ccccccccscssscccscsssssssssssssssssssasssssssssssssssssssssssssaaaaasssssssaaasssssssssssssssssssssssssssssssssssssasssssssssssssssssssssssssscssccccssasscccc"
     inkscape:label="compensator_left">
    <title
       id="title5">metal</title>
  </path>
  <path
     style="fill:#5e5e5e;fill-rule:evenodd;stroke:#000000;stroke-width:0.0301566"
     d="m 156.55627,9.1518141 c -0.006,0.3527942 -0.26589,0.6551904 -0.49409,0.9637679 -0.53693,0.727704 -1.17503,1.401456 -2.05565,1.945853 -0.86434,0.456748 -1.78254,0.711557 -2.73883,0.823481 l -0.88448,-0.0062 -62.357493,-4.4515788 0.23723,-3.2694359 56.151563,4.0763585 c 0.0655,0 0.42359,-0.1093053 0.40564,-0.2470561 -0.0177,-0.1381033 0.003,-0.4178418 0.003,-0.4178418 0,0 -0.3243,-1.1747842 -0.38734,-1.7781 -0.0339,-0.3255939 -0.006,-0.6549809 0.006,-0.9820738 0.0295,-0.7265466 0.41482,-1.5064047 0.45138,-2.086151 C 144.905,3.5476977 144.50893,3.362954 144.50893,3.362954 L 115.08253,3.380658 85.489367,1.2628543 c 0.003,0.029211 -0.23333,-0.040748 -0.30192,-0.44857249 -0.0503,-0.29968614 0.10357,-0.90578139 0.10357,-0.90578139 0,0 1.08311,-0.20037154 1.55275,0.01711354 0.21847,0.1012502 0.23231,0.54696796 0.47308,0.54588951 0.25097,-7.8191e-4 0.23714,-0.56540928 0.48798,-0.57338035 0.25727,-0.008262 0.27957,0.56472326 0.53679,0.55507919 0.25104,-0.009442 0.23071,-0.57426996 0.48188,-0.57947779 0.25762,-0.005606 0.26084,0.56993699 0.5185,0.57338036 0.24446,0.003246 0.26181,-0.52988246 0.50628,-0.53068798 0.25452,-7.8043e-4 0.27629,0.55682006 0.53068,0.54899061 0.25659,-0.007967 0.24351,-0.58889761 0.50019,-0.58558703 0.24862,0.003246 0.22109,0.57498992 0.46969,0.57948665 0.25358,0.004721 0.24667,-0.56540633 0.50019,-0.57338626 0.27736,-0.008852 0.30887,0.6124966 0.58558,0.59168004 0.24088,-0.0179987 0.186,-0.56897509 0.42699,-0.58558408 0.24246,-0.0168185 0.26329,0.52170189 0.50628,0.52459053 0.2372,0.003246 0.26914,-0.50587481 0.50627,-0.50019046 0.24022,0.0056062 0.2479,0.53832268 0.48802,0.53068798 0.24552,-0.007672 0.21806,-0.55980313 0.4636,-0.57338036 0.28269,-0.0156382 0.32096,0.61149044 0.60385,0.59777895 0.2352,-0.0115074 0.216,-0.53865904 0.4514,-0.54288136 0.23195,-0.0038358 0.23195,0.51200913 0.46357,0.51848277 0.25882,0.007081 0.29009,-0.54972236 0.54901,-0.54898176 0.25171,7.17e-4 0.27916,0.54354673 0.53068,0.53678541 0.24198,-0.006196 0.23991,-0.54058875 0.48189,-0.5428917 0.24907,-0.00236 0.25733,0.55643205 0.50627,0.54898913 0.24404,-0.007081 0.21955,-0.55827175 0.4636,-0.56728144 0.27178,-0.0100321 0.28948,0.60329217 0.56119,0.59168299 0.25732,-0.0109173 0.22426,-0.59989897 0.48189,-0.60388819 0.266773,-0.003836 0.251723,0.61326376 0.518493,0.60998415 0.24581,-0.003246 0.21778,-0.56904 0.46357,-0.57338035 0.26676,-0.004721 0.25791,0.60896029 0.52459,0.60387934 0.26619,-0.004721 0.23401,-0.61821488 0.5002,-0.62218198 0.25673,-0.003836 0.24345,0.58570211 0.50019,0.58558703 0.25378,-1.1802e-4 0.2402,-0.5761613 0.49408,-0.57948664 0.24316,-0.003246 0.24463,0.53996174 0.488,0.54288284 0.24581,0.003246 0.26027,-0.53987027 0.50626,-0.53678688 0.26501,0.003246 0.2659,0.59624316 0.53071,0.59169332 0.25969,-0.004721 0.24051,-0.59340172 0.50016,-0.59778928 0.26205,-0.004721 0.26264,0.59355368 0.52461,0.5855826 0.24876,-0.007672 0.21511,-0.56857086 0.46358,-0.5855826 0.27268,-0.0185888 0.31912,0.58633354 0.59167,0.56728144 0.24259,-0.0168185 0.20834,-0.56798664 0.45139,-0.57338183 0.2523,-0.005606 0.24198,0.56828613 0.49411,0.57338183 0.25586,0.005606 0.26855,-0.56600383 0.52457,-0.56118548 0.24227,0.004721 0.23372,0.54536873 0.47579,0.54898913 0.24316,0.003836 0.25112,-0.52927315 0.49411,-0.5367854 0.28182,-0.0085568 0.32918,0.6102202 0.60996,0.58558555 0.22339,-0.019474 0.17353,-0.52177122 0.3965,-0.54288579 0.25202,-0.02389995 0.30288,0.54073775 0.55507,0.51848719 0.25319,-0.0224246 0.20362,-0.59775977 0.45749,-0.60998563 0.28331,-0.0135728 0.29068,0.64878764 0.57338,0.62828827 0.24228,-0.0177037 0.16643,-0.58278395 0.40872,-0.60388967 0.25939,-0.0224246 0.2827,0.5677919 0.54285,0.56118548 0.25644,-0.006196 0.24995,-0.58456907 0.5063,-0.57948664 0.25586,0.004721 0.22605,0.589054 0.48189,0.59778781 0.26029,0.008852 0.27032,-0.57413572 0.53068,-0.57338626 0.2591,7.406e-4 0.26559,0.58109473 0.52459,0.57338626 0.23549,-0.007081 0.21012,-0.53486456 0.44528,-0.54898766 0.26854,-0.01622836 0.31107,0.5768783 0.57952,0.561184 0.25673,-0.0150481 0.23076,-0.59569582 0.48797,-0.59777895 0.25525,-0.00236 0.23903,0.57553578 0.49408,0.58558261 0.24552,0.009737 0.27268,-0.53184314 0.51849,-0.52458906 0.22192,0.0061963 0.2172,0.49980688 0.43919,0.50019046 0.25792,4.4554e-4 0.25468,-0.57770595 0.51238,-0.57948665 0.27208,-0.001623 0.2771,0.61015677 0.549,0.60388525 0.26117,-0.006196 0.23873,-0.60081514 0.50017,-0.60388525 0.26676,-0.003246 0.25821,0.61082656 0.52459,0.60388525 0.24758,-0.006196 0.20982,-0.58068755 0.45749,-0.58558261 0.26116,-0.005606 0.24522,0.59948293 0.50629,0.59777895 0.25556,-0.001623 0.23254,-0.57944828 0.48798,-0.59168299 0.27563,-0.0132777 0.30988,0.59941212 0.58559,0.58558703 0.24404,-0.0123926 0.21955,-0.55504968 0.4636,-0.56728439 0.2585,-0.0129827 0.29038,0.55700889 0.54898,0.54898176 0.25496,-0.007967 0.25142,-0.57990859 0.50629,-0.57338036 0.24169,0.006196 0.21011,0.55431499 0.45139,0.56728144 0.24256,0.0129827 0.26942,-0.51914813 0.51237,-0.51848424 0.25319,6.8749e-4 0.2777,0.55214628 0.53071,0.54288579 0.25526,-0.009442 0.23873,-0.58493199 0.49408,-0.58558703 0.25378,-6.5503e-4 0.24021,0.57608459 0.49408,0.57948665 0.24611,0.003246 0.24788,-0.54974597 0.49408,-0.54898766 0.24493,7.5535e-4 0.24316,0.55564866 0.488,0.54898766 0.25468,-0.007081 0.22133,-0.5903685 0.47579,-0.59778781 0.26206,-0.007672 0.26265,0.58382109 0.52457,0.58558556 0.24316,0.001623 0.25083,-0.53313256 0.49411,-0.53678541 0.2529,-0.0038358 0.52452,0.56726669 0.53068,0.54288284 0.006,-0.0244901 0.26411,-0.58523296 0.52459,-0.57947779 0.24552,0.005606 0.22428,0.56280832 0.46968,0.56728144 0.25054,0.004721 0.24965,-0.55770228 0.50019,-0.56118548 0.24316,-0.003246 0.25703,0.52569997 0.50018,0.53068945 0.25026,0.005606 0.28685,-0.5333745 0.53679,-0.52458906 0.24464,0.008557 0.24316,0.54108592 0.48798,0.54898766 0.24876,0.007967 0.28212,-0.53102287 0.53071,-0.52458906 0.25024,0.0061963 0.25585,0.55962313 0.50626,0.55508804 0.24523,-0.004721 0.23077,-0.55250331 0.47579,-0.56118695 0.2529,-0.0088518 0.27768,0.54957483 0.5307,0.54288432 0.24611,-0.006196 0.24168,-0.55630665 0.48798,-0.55508805 0.25231,0.001623 0.24169,0.57573937 0.49408,0.57339068 0.24847,-0.00236 0.22752,-0.56469375 0.47579,-0.57339068 0.2529,-0.008852 0.27149,0.54399227 0.52459,0.54898913 0.25732,0.005606 0.29791,-0.54720844 0.55508,-0.5367854 0.24611,0.01003207 0.24198,0.56715014 0.488,0.55508657 0.24021,-0.0118025 0.1815,-0.56293962 0.42088,-0.58558261 0.2706,-0.0256703 0.32041,0.5785572 0.5917,0.56118401 0.2408,-0.0153432 0.21629,-0.55852256 0.45748,-0.56118401 0.25379,-0.003246 0.24021,0.57719107 0.49409,0.57947779 0.25791,0.00236 0.25467,-0.57655078 0.51237,-0.57947779 0.26057,-0.003246 0.52451,0.5977642 0.53067,0.57338036 0.006,-0.0244901 0.24169,-0.55053673 0.48802,-0.55508805 0.26322,-0.004721 0.27975,0.58268068 0.54288,0.57339068 0.24965,-0.008852 0.22575,-0.57426406 0.47579,-0.57948664 0.25614,-0.005606 0.25614,0.57603443 0.51239,0.57338626 0.24375,-0.00236 0.23222,-0.54573314 0.47578,-0.55508657 0.2529,-0.009737 0.28388,0.54580394 0.53678,0.5367854 0.24198,-0.008557 0.23371,-0.54498368 0.47578,-0.54898913 0.26323,-0.004721 0.27385,0.59400955 0.53679,0.57948664 0.24228,-0.0132777 0.19063,-0.5748409 0.43311,-0.5855826 0.26324,-0.0115074 0.26088,0.5912522 0.52457,0.59168004 0.25349,4.1604e-4 0.2529,-0.55863763 0.5063,-0.56728144 0.24994,-0.0085568 0.28712,0.53855725 0.53679,0.52458906 0.24375,-0.0135728 0.21954,-0.55754591 0.46358,-0.5672903 0.28153,-0.0112123 0.30408,0.6237399 0.58557,0.60998268 0.25586,-0.0123926 0.21955,-0.59660756 0.47581,-0.60387639 0.25763,-0.007081 0.25468,0.58616978 0.51239,0.57947779 0.24168,-0.006196 0.21011,-0.55672563 0.45138,-0.56728144 0.27739,-0.0120975 0.29625,0.61952495 0.57337,0.60388524 0.24937,-0.0141629 0.45138,-0.59778928 0.45138,-0.59778928 0,0 1.5972,0.0459115 2.39423,0.09829959 1.31549,0.08643814 2.47252,0.69891556 3.41176,1.54414008 0.58618,0.5274881 1.38888,1.915082 1.38888,1.915082 l 0.0177,0.3019272 -0.23284,0.1638975 -2.91573,0.241537 c -1.0682,-0.8909708 -2.4302,-1.5175934 -4.01994,-0.8540247 -0.77387,0.3230166 -1.3151,0.8935172 -1.55278,1.8633165 -0.18355,0.7489549 -0.34541,1.6159933 -0.095,2.3636618 0.24936,0.7439419 0.72609,1.4827468 1.49239,1.8201845 1.11764,0.4921412 2.28024,0.5551412 3.48512,-0.1552803 0.25289,-0.1490826 0.3231,-0.3453911 0.49169,-0.500338 l 0.28476,-0.051754 2.88987,0.241537 z"
     id="compensator_right"
     sodipodi:nodetypes="ccccccccscssscccscsssssssssssssssssssasssssssssssssssssssssssssaaaaasssssssaaasssssssssssssssssssssssssssssssssssssasssssssssssssssssssssssssscssccccssasscccc"
     inkscape:label="compensator_right">
    <title
       id="title6">metal</title>
  </path>
</svg>
