<?xml version="1.0" encoding="UTF-8" standalone="no"?>
<!-- Created with Inkscape (http://www.inkscape.org/) -->

<svg
   width="210mm"
   height="297mm"
   viewBox="0 0 210 297"
   version="1.1"
   id="svg1"
   inkscape:version="1.4 (86a8ad7, 2024-10-11)"
   sodipodi:docname="DSHA-0-105-corner.svg"
   xmlns:inkscape="http://www.inkscape.org/namespaces/inkscape"
   xmlns:sodipodi="http://sodipodi.sourceforge.net/DTD/sodipodi-0.dtd"
   xmlns="http://www.w3.org/2000/svg"
   xmlns:svg="http://www.w3.org/2000/svg">
  <sodipodi:namedview
     id="namedview1"
     pagecolor="#ffffff"
     bordercolor="#000000"
     borderopacity="0.25"
     inkscape:showpageshadow="2"
     inkscape:pageopacity="0.0"
     inkscape:pagecheckerboard="0"
     inkscape:deskcolor="#d1d1d1"
     inkscape:document-units="mm"
     inkscape:zoom="0.74016561"
     inkscape:cx="277.64057"
     inkscape:cy="234.407"
     inkscape:window-width="2560"
     inkscape:window-height="1377"
     inkscape:window-x="-8"
     inkscape:window-y="-8"
     inkscape:window-maximized="1"
     inkscape:current-layer="svg1" />
  <defs
     id="defs1" />
  <path
     style="fill:#5e5e5e;fill-rule:evenodd;stroke:#000000;stroke-width:0.0422391"
     d="m 24.480516,61.238435 v -1.267873 l 18.749392,-2.63096 c 0,0 0.2027,0.46797 0.41205,0.475456 0.23895,0.0091 0.26826,-0.508976 0.50723,-0.507162 0.25032,6.46e-4 0.27295,0.546611 0.52306,0.53885 0.24324,-0.0083 0.23212,-0.543599 0.47547,-0.554708 0.25754,-0.01267 0.2975,0.556483 0.55462,0.538866 0.2141,-0.0146 0.18315,-0.482916 0.39629,-0.507177 0.25017,-0.027 0.33597,0.501505 0.58641,0.475475 0.21649,-0.0223 0.19417,-0.505499 0.41203,-0.507164 0.25501,-6.55e-4 0.23646,0.581979 0.49136,0.586402 0.24513,0.0011 0.24648,-0.536235 0.49131,-0.546753 0.22795,-0.0091 0.27139,0.475746 0.49921,0.467515 0.23734,-0.0091 0.24611,-0.521949 0.48352,-0.523034 0.24664,-6.52e-4 0.26035,0.539037 0.50708,0.53889 0.23921,-9.2e-5 0.25372,-0.497859 0.49137,-0.52302 0.40582,-0.04287 0.59821,0.698328 1.0064,0.697384 0.38699,-6.56e-4 0.56676,-0.71129 0.9509,-0.665695 0.24145,0.02694 0.23985,0.539323 0.48332,0.546813 0.25411,0.0083 0.28488,-0.541953 0.53887,-0.538853 0.22997,6.52e-4 0.24597,0.497343 0.4754,0.499217 0.23367,6.27e-4 0.25829,-0.508166 0.49138,-0.499217 0.22098,0.0091 0.20725,0.497792 0.42796,0.507146 0.25019,0.01273 0.28076,-0.531887 0.53098,-0.530937 0.24489,6.46e-4 0.27076,0.53009 0.51513,0.523008 0.22839,-0.0056 0.22385,-0.503338 0.45171,-0.515055 0.24838,-0.01322 0.29829,0.515825 0.54672,0.507151 0.23152,-0.0083 0.24379,-0.507151 0.47549,-0.507151 0.23177,0 0.24369,0.507151 0.47536,0.507151 0.23182,0 0.24421,-0.497602 0.47574,-0.507151 0.2595,-0.01273 0.31917,0.538848 0.5783,0.522984 0.23364,-0.01453 0.22605,-0.518139 0.45967,-0.530937 0.24816,-0.01359 0.29839,0.519123 0.5468,0.507162 0.22241,-0.0093 0.22097,-0.503444 0.44385,-0.499209 0.23258,0.0011 0.21108,0.5322 0.44355,0.538816 0.23741,0.0055 0.24608,-0.524841 0.48355,-0.522978 0.23746,6.52e-4 0.23757,0.524375 0.47545,0.530914 0.25759,0.0055 0.28906,-0.555607 0.54668,-0.546752 0.24524,0.0091 0.2383,0.554417 0.48358,0.554691 0.25259,2.25e-4 0.24668,-0.565064 0.49917,-0.570579 0.24479,-0.0055 0.26254,0.530262 0.50725,0.530943 0.21651,6.04e-4 0.2349,-0.463906 0.45175,-0.467546 0.22798,-0.0011 0.26314,0.476452 0.49107,0.475475 0.24104,-6.34e-4 0.27433,-0.51017 0.51519,-0.507146 0.2164,6.52e-4 0.23521,0.457207 0.45159,0.467515 0.23967,0.01288 0.30738,-0.483706 0.54705,-0.467515 0.22932,0.01506 0.22928,0.510442 0.45945,0.515059 0.22422,0.0011 0.24379,-0.473672 0.46762,-0.483388 0.21323,-0.0091 0.27033,0.425713 0.48322,0.420004 0.22424,-0.0055 0.25935,-0.472989 0.48362,-0.467513 0.23517,0.0055 0.24796,0.515055 0.4832,0.515055 0.23559,0 0.2483,-0.507787 0.48355,-0.515055 0.24672,-0.0083 0.29271,0.52062 0.53885,0.507151 0.23573,-0.0132 0.22382,-0.529515 0.45953,-0.538879 0.25014,-0.0091 0.28083,0.536912 0.53106,0.530937 0.23528,-0.0055 0.23974,-0.519935 0.47545,-0.52302 0.26309,-6.55e-4 0.28322,0.57503 0.54663,0.570563 0.23749,-0.0011 0.23791,-0.530914 0.47549,-0.530914 0.23748,0 0.23787,0.528074 0.4758,0.530914 0.23884,6.53e-4 0.25258,-0.504363 0.491,-0.522999 0.40357,-0.03065 0.55435,0.743215 0.95897,0.744862 0.42205,6.55e-4 0.58557,-0.80309 1.00649,-0.768615 0.24569,0.02097 0.26037,0.542543 0.50699,0.538816 0.24716,-6.57e-4 0.24431,-0.554839 0.49139,-0.554704 0.24344,7.7e-5 0.23979,0.5478 0.483589,0.546785 0.24121,-6.41e-4 0.23341,-0.548493 0.4754,-0.546785 0.2453,6.31e-4 0.2302,0.554235 0.47541,0.56264 0.24256,0.0091 0.26444,-0.513164 0.50703,-0.522999 0.25621,-0.0091 0.32414,0.537374 0.57859,0.507144 0.21827,-0.02426 0.16034,-0.526052 0.38041,-0.53885 0.2407,-0.01448 0.24162,0.533174 0.48324,0.53885 0.25977,0.0055 0.28728,-0.544225 0.54702,-0.554708 0.39105,-0.01503 0.49789,0.750499 0.88917,0.76722 0.41694,0.01782 0.59877,-0.774389 1.01429,-0.734083 0.2262,0.02195 0.23747,0.499739 0.46497,0.498742 0.24295,-6.59e-4 0.24986,-0.532652 0.49321,-0.53793 0.25619,-0.0055 0.28727,0.55236 0.54345,0.543537 0.23063,-0.0083 0.22382,-0.514418 0.45395,-0.521121 0.24568,-0.0083 0.26996,0.533304 0.51551,0.526739 0.22618,-0.0055 0.22208,-0.503955 0.44811,-0.509967 0.23021,-0.0055 0.25256,0.485135 0.48188,0.493129 0.24978,0.0091 0.31055,-0.510442 0.56037,-0.498718 0.22228,0.01282 0.232,0.48354 0.45386,0.487516 0.2325,0.0011 0.26072,-0.495029 0.4932,-0.493117 0.23925,6.33e-4 0.25993,0.521852 0.49873,0.515531 0.22742,-0.0055 0.22053,-0.508866 0.44805,-0.515531 0.23476,-0.0055 0.25832,0.500527 0.49352,0.504319 0.24811,0.0011 0.28924,-0.516782 0.53767,-0.515503 0.24061,6.28e-4 0.27526,0.507101 0.5156,0.504301 0.21462,-6.53e-4 0.23426,-0.450442 0.44841,-0.459483 0.25624,-0.01262 0.32749,0.53346 0.58277,0.50429 0.22008,-0.02378 0.17074,-0.521853 0.39222,-0.537924 0.24532,-0.01782 0.26995,0.528241 0.51531,0.526734 0.23287,-6.48e-4 0.24931,-0.500354 0.48212,-0.504319 0.23472,-0.0011 0.26901,0.498386 0.50419,0.493116 0.23477,-0.0054 0.24717,-0.51156 0.48191,-0.515531 0.2379,-0.0011 0.26667,0.502984 0.50418,0.504319 0.23063,6.51e-4 0.26341,-0.481818 0.4932,-0.481904 0.21871,-4.7e-5 0.2517,0.456874 0.47075,0.459481 0.21923,6.57e-4 0.2626,-0.446877 0.48189,-0.448262 0.21695,-6.3e-4 0.26493,0.439937 0.4818,0.437068 0.23797,-6.55e-4 0.27767,-0.498287 0.51559,-0.493089 0.24832,0.0054 0.26764,0.545042 0.51559,0.537918 0.2348,-0.0055 0.22423,-0.53113 0.45942,-0.537918 0.25392,-0.0083 0.2731,0.553282 0.52661,0.549121 0.24651,-0.0011 0.24743,-0.546575 0.49321,-0.549121 0.24063,-6.63e-4 0.25299,0.526886 0.49318,0.526706 0.23102,-1.48e-4 0.24077,-0.500348 0.47079,-0.504319 0.23755,-0.0011 0.26638,0.502859 0.50416,0.504319 0.21925,6.51e-4 0.2526,-0.451802 0.47054,-0.45949 0.22523,-0.0083 0.29042,0.442531 0.51559,0.437067 0.23464,-0.0055 0.28032,-0.497174 0.515563,-0.481896 0.24655,0.01544 0.22428,0.571809 0.47084,0.571569 0.2415,-2.38e-4 0.21822,-0.553812 0.45943,-0.560379 0.23791,-0.0055 0.24342,0.524039 0.4818,0.526734 0.248,6.38e-4 0.26851,-0.515325 0.51559,-0.537924 0.39451,-0.03614 0.56767,0.691513 0.96364,0.694836 0.4188,6.55e-4 0.61653,-0.776873 1.03113,-0.717223 0.24203,0.03494 0.21469,0.567489 0.45948,0.57155 0.2466,0.0011 0.23472,-0.548482 0.48184,-0.560347 0.24752,-0.01289 0.28947,0.525816 0.53803,0.515503 0.21324,-0.0091 0.21131,-0.471712 0.42565,-0.481904 0.23424,-0.01267 0.27983,0.484636 0.51562,0.481904 0.24605,-6.59e-4 0.28028,-0.523738 0.52687,-0.515503 0.23434,0.0083 0.23434,0.518701 0.47084,0.526715 0.22426,0.0083 0.25668,-0.468142 0.48179,-0.470702 0.23114,-6.27e-4 0.2754,0.478472 0.5042,0.470702 0.24073,-0.0083 0.25364,-0.532399 0.4932,-0.526715 0.23114,0.0055 0.21794,0.513814 0.44816,0.526715 0.25207,0.01447 0.29854,-0.523807 0.54925,-0.515531 0.23115,0.0083 0.24082,0.513105 0.47048,0.504319 0.21418,-0.0091 0.40361,-0.504319 0.40361,-0.504319 h 3.04804 v 0.773264 c 0,0 -1.43186,0.996855 -1.94967,1.681063 -0.41096,0.542315 -0.86312,1.84917 -0.86312,1.84917 0.0455,0.219401 0.18632,0.39691 0.43706,0.526739 h 3.37351 c 0.14975,-0.161797 0.29786,-0.311814 0.44842,-0.414704 1.26735,-1.228141 2.44242,-1.016951 3.49609,-0.504277 0.88052,0.428336 1.43072,1.690713 1.43483,2.566364 7e-4,0.853729 -0.39126,1.602579 -1.03111,2.084496 -0.87191,0.65487 -1.8989,0.803983 -2.8914,0.470702 -0.56582,-0.189877 -1.50198,-1.053434 -1.50198,-1.053434 h -3.24982 c 0,0 -0.39094,0.04715 -0.49321,0.190527 -0.10931,0.15203 -0.006,0.560339 -0.006,0.560339 0,0 1.19279,2.122746 2.11805,2.868956 0.88639,0.714824 3.11556,1.400896 3.11556,1.400896 l 0.95256,0.04481 2.94734,0.302632 v 2.364678 H 107.99787 V 61.202888 Z"
     id="profile_left"
     sodipodi:nodetypes="cccssssssssssssssssssssssssssssssssssssssssssssssssssssssssssssssssssssssssssssssssssssssssssssssssssssssssssssssssssssssssssssssssscccsccccssssccscsccccccc"
     inkscape:label="profile_left" />
  <rect
     style="fill:#ddd5d5;fill-opacity:0.768047;fill-rule:evenodd;stroke:#b81e1e;stroke-width:0.0184572"
     id="concrete_left"
     width="140.11058"
     height="49.982468"
     x="-32.17363"
     y="63.566406" />
  <ellipse
     style="fill:#b4cdd0;fill-opacity:0;fill-rule:evenodd;stroke:#b81e1e;stroke-width:0.00016359"
     id="screw_left"
     cx="-51.015434"
     cy="-58.113285"
     rx="0.049918205"
     ry="0.032774579"
     transform="scale(-1)"
     inkscape:label="screw_left" />
  <rect
     style="fill:#e1ecec;fill-opacity:0.77;fill-rule:evenodd;stroke:#b81e1e;stroke-width:0.0126854"
     id="finish_left"
     width="140.11874"
     height="2.0309176"
     x="-32.197632"
     y="61.423679"
     inkscape:label="finish_left" />
  <rect
     style="fill:#e1ecec;fill-opacity:0.77;fill-rule:evenodd;stroke:#b81e1e;stroke-width:0.0144776"
     id="cover_left"
     width="140.11621"
     height="0.12596738"
     x="-32.184372"
     y="61.247318"
     inkscape:label="cover_left" />
  <rect
     style="fill:#404242;fill-opacity:0.341246;fill-rule:evenodd;stroke:#b81e1e;stroke-width:0.0227258"
     id="shadow"
     width="215.50974"
     height="0.010518281"
     x="21.261551"
     y="113.38042"
     inkscape:label="shadow" />
  <ellipse
     style="opacity:0;fill:none;fill-opacity:0;fill-rule:evenodd;stroke-width:0.000191947;stroke-opacity:0"
     id="screw_right"
     cx="217.19312"
     cy="21.699625"
     rx="0.0049418169"
     ry="0.0015055466"
     inkscape:label="screw_right" />
  <path
     style="fill:#5e5e5e;fill-rule:evenodd;stroke:#000000;stroke-width:0.0441661"
     d="m 211.91959,65.363396 h 3.29292 c 0.0846,-0.0709 0.72166,0.39848 0.52726,0.78512 -0.22127,0.44001 -0.41877,0.93966 -0.67956,1.37107 -0.25974,0.4296 -0.59704,0.81424 -0.96096,1.16012 -0.40281,0.38249 -1.33586,0.99606 -1.33586,0.99606 v 0.71484 h 1.24207 c 0,0 0.13873,-0.47882 0.33969,-0.50389 0.24462,-0.0302 0.30469,0.50467 0.55083,0.49218 0.24289,-0.0129 0.24894,-0.54162 0.49218,-0.53907 0.24937,0.002 0.24332,0.55156 0.49216,0.5625 0.25932,0.0129 0.30298,-0.54335 0.5625,-0.53903 0.23467,0.004 0.25759,0.49835 0.49214,0.50389 0.23467,0.004 0.28135,-0.49689 0.51559,-0.48047 0.21048,0.0129 0.39848,0.49218 0.39848,0.49218 h 1.12499 V 8.7832075 h -0.86049 l -1.43049,4.2278365 v 1.593692 c 0,0 0.52004,0.16294 0.53318,0.38075 0.013,0.24852 -0.54258,0.255 -0.55082,0.50389 -0.013,0.25975 0.54603,0.30297 0.53907,0.56254 -0.013,0.25672 -0.56799,0.27055 -0.5625,0.52731 0,0.25759 0.58077,0.24635 0.58592,0.50389 0,0.23468 -0.50865,0.24548 -0.5156,0.48046 -0.013,0.22647 0.47147,0.2658 0.46871,0.49218 0,0.23727 -0.50748,0.26623 -0.5038,0.50389 0,0.26795 0.58716,0.28264 0.58591,0.55077 0,0.2766 -0.6214,0.28611 -0.60938,0.5625 0.013,0.26147 0.61336,0.21869 0.62107,0.48046 0.013,0.24332 -0.4963,0.24289 -0.55075,0.48046 -0.0891,0.38897 0.47639,0.70257 0.46875,1.10152 -0.013,0.37557 -0.55473,0.65122 -0.48051,1.01953 0.0432,0.20615 0.45945,0.21177 0.46871,0.42182 0.013,0.23467 -0.48315,0.28049 -0.48037,0.51559 0,0.2403 0.50517,0.27531 0.50384,0.51561 0,0.23208 -0.47995,0.26061 -0.49218,0.49217 -0.013,0.23598 0.45099,0.31463 0.44528,0.55078 -0.013,0.24073 -0.48724,0.29864 -0.48037,0.53907 0.013,0.25413 0.53763,0.28481 0.53902,0.53902 0,0.25672 -0.55653,0.29432 -0.53902,0.55079 0.0173,0.24158 0.56876,0.20312 0.57413,0.44532 0.013,0.27141 -0.62526,0.25585 -0.62102,0.52731 0,0.26969 0.62606,0.23424 0.6328,0.50389 0.013,0.26579 -0.58653,0.2619 -0.59771,0.52735 -0.013,0.25413 0.53448,0.29649 0.5274,0.55074 -0.013,0.24591 -0.54331,0.25802 -0.53907,0.50393 0,0.24375 0.54386,0.23684 0.55074,0.48046 0.013,0.2403 -0.51289,0.26364 -0.51565,0.50389 0,0.2403 0.51322,0.27531 0.50398,0.515601 -0.013,0.25456 -0.57464,0.24937 -0.57429,0.50389 3.3e-4,0.24375 0.53622,0.23727 0.55081,0.48046 0.0172,0.26234 -0.54303,0.32371 -0.52735,0.58592 0.013,0.2485 0.55562,0.24332 0.5625,0.49217 0.013,0.24592 -0.52294,0.26969 -0.52727,0.5156 0,0.23209 0.48745,0.27185 0.48037,0.50393 -0.013,0.22388 -0.48245,0.23339 -0.49217,0.456999 -0.013,0.27919 0.58695,0.34272 0.56249,0.62109 -0.0216,0.24116 -0.55631,0.204 -0.57416,0.44529 -0.0173,0.27141 0.58354,0.31809 0.56491,0.58946 -0.0173,0.23554 -0.54982,0.20313 -0.55518,0.43919 0,0.24851 0.56456,0.2403 0.56339,0.48889 0,0.26839 -0.66275,0.48046 -0.61314,0.52204 0.0492,0.0432 0.60869,0.24721 0.61314,0.51374 0,0.2524 -0.55848,0.25327 -0.56339,0.50545 0,0.25801 0.5563,0.28092 0.55518,0.53859 -0.002,0.24418 -0.53665,0.26147 -0.53038,0.50548 0.013,0.23295 0.51893,0.22301 0.53038,0.45574 0.013,0.25932 -0.54352,0.30384 -0.5386,0.56345 0,0.2498 0.53847,0.27185 0.5386,0.52204 9e-5,0.26968 -0.59041,0.29389 -0.58012,0.56344 0.013,0.25888 0.60048,0.23814 0.59668,0.49719 0,0.24591 -0.57322,0.21004 -0.58009,0.45574 -0.013,0.24635 0.54361,0.24246 0.55514,0.48889 0.013,0.26147 -0.54541,0.30988 -0.53853,0.57174 0.013,0.25586 0.56633,0.27444 0.55513,0.53034 -0.013,0.24721 -0.56145,0.21696 -0.57999,0.46404 -0.0172,0.24765 0.5082,0.29864 0.50544,0.54689 0,0.22647 -0.47774,0.26234 -0.47226,0.48889 0.013,0.25413 0.56022,0.26796 0.55516,0.52204 0,0.24851 -0.55996,0.24029 -0.56348,0.48885 0,0.22862 0.49073,0.23597 0.50538,0.46404 0.0173,0.25239 -0.49663,0.32716 -0.48884,0.58004 0.013,0.25196 0.52199,0.29475 0.52199,0.54689 0,0.24807 -0.51213,0.29043 -0.51373,0.53859 0,0.2148 0.43931,0.25715 0.43918,0.47234 -8e-5,0.22257 -0.45786,0.26622 -0.45566,0.48889 0,0.25802 0.55242,0.29777 0.5386,0.55515 -0.013,0.23294 -0.52982,0.21436 -0.5386,0.44748 -0.013,0.23036 0.49603,0.25023 0.49706,0.48059 0.002,0.25197 -0.53768,0.27833 -0.53858,0.5303 -7.8e-4,0.23813 0.49446,0.26752 0.50556,0.50548 0.013,0.25067 -0.49342,0.32933 -0.48062,0.58004 0.013,0.22431 0.48062,0.24765 0.48062,0.4723 0,0.21696 -0.44061,0.2403 -0.46404,0.45574 -0.0172,0.15083 0.24851,0.38119 0.24851,0.38119 v 1.62407 c -0.0696,0.29692 -0.22948,0.52973 -0.59654,0.61319 h -3.53824 v 0.74578 l 1.26782,1.00264 1.05233,1.17663 c -0.013,0 0.46737,0.81372 0.62153,1.28437 0.13096,0.39978 -0.52134,0.90051 -0.55518,0.87004 h -3.26479 c -0.7314,-0.78321 -1.57645,-1.20784 -2.5108,-1.35067 -0.0172,-0.0346 -1.54485,0.24073 -2.07976,0.82033 -0.47286,0.51249 -1.00492,1.28131 -1.03579,2.07986 -0.0303,0.79086 0.34359,1.63635 0.90315,2.19586 0.5764,0.57619 1.45167,0.72539 2.23734,0.68774 0.51127,-0.0259 0.96582,-0.12966 1.34234,-0.35613 0.40539,-0.24375 1.1475,-0.83502 1.1475,-0.83502 z"
     id="profile_right"
     sodipodi:nodetypes="ccssscccsssssssccccccsssssssssssssssssssssssssssssssssssssssssssssssssssssssssssssssssssssssssssscccccccscccsssssc"
     inkscape:label="profile_right" />
  <rect
     style="fill:#e1ecec;fill-opacity:0.77;fill-rule:evenodd;stroke:#b81e1e;stroke-width:0.00839695"
     id="finish_right"
     width="61.239105"
     height="2.0361254"
     x="-61.243305"
     y="219.21295"
     inkscape:label="finish_right"
     transform="rotate(-90)" />
  <rect
     style="fill:#e1ecec;fill-opacity:0.77;fill-rule:evenodd;stroke:#b81e1e;stroke-width:0.00963666"
     id="cover_right"
     width="61.21777"
     height="0.12774111"
     x="-61.228786"
     y="219.03723"
     inkscape:label="cover_right"
     transform="rotate(-90)" />
  <path
     style="fill:#e1ecec;fill-opacity:0.77;fill-rule:evenodd;stroke:#b81e1e;stroke-width:0.00990152"
     d="m 221.26052,0.01554842 20.9385,-6e-6 V 113.42588 H 219.01611 V 61.270108 h 2.23331 z"
     id="concrete_right"
     inkscape:label="concrete_right"
     sodipodi:nodetypes="ccccccc" />
  <path
     style="fill:#5e5e5e;fill-rule:evenodd;stroke:#000000;stroke-width:0.0301566"
     d="m 111.81311,60.941848 c 0.007,-0.352796 0.266,-0.655192 0.49409,-0.963773 0.53693,-0.727702 1.17502,-1.401452 2.05564,-1.945851 0.86434,-0.45675 1.78254,-0.711556 2.73883,-0.82348 l 0.88448,0.0062 62.35751,4.451579 -0.23726,3.269436 -56.15158,-4.076357 c -0.0654,0 -0.42357,0.109335 -0.40564,0.247056 0.018,0.138133 -0.003,0.417843 -0.003,0.417843 0,0 0.32432,1.174784 0.38733,1.7781 0.034,0.325594 0.007,0.654983 -0.006,0.982071 -0.0295,0.72655 -0.41483,1.506408 -0.45139,2.086151 -0.0112,0.175141 0.38428,0.359886 0.38428,0.359886 l 29.4264,-0.0177 29.59313,2.117803 c -0.003,-0.02921 0.23341,0.04075 0.30194,0.448575 0.0504,0.299686 -0.10357,0.905781 -0.10357,0.905781 0,0 -1.08313,0.200372 -1.55277,-0.01711 -0.21838,-0.10125 -0.23225,-0.546967 -0.47308,-0.54589 -0.25083,7.82e-4 -0.23725,0.565411 -0.48797,0.573381 -0.25732,0.0083 -0.27945,-0.564719 -0.53679,-0.555079 -0.25112,0.0094 -0.23076,0.574272 -0.48189,0.57948 -0.25762,0.0056 -0.26086,-0.56994 -0.51848,-0.57338 -0.24434,-0.0032 -0.26175,0.529884 -0.50627,0.530686 -0.25468,7.82e-4 -0.27622,-0.55682 -0.53071,-0.548989 -0.25673,0.008 -0.24345,0.588895 -0.50019,0.585584 -0.24876,-0.0032 -0.22103,-0.57499 -0.46968,-0.579486 -0.25348,-0.0047 -0.2467,0.56541 -0.50018,0.573389 -0.2774,0.0089 -0.30889,-0.612498 -0.5856,-0.591683 -0.2408,0.018 -0.18591,0.568978 -0.42698,0.585587 -0.24257,0.01682 -0.26322,-0.521703 -0.50629,-0.524594 -0.23726,-0.0032 -0.26913,0.505875 -0.50627,0.500192 -0.24021,-0.0056 -0.2479,-0.538324 -0.48802,-0.530686 -0.24552,0.0077 -0.21806,0.559803 -0.46355,0.57338 -0.28271,0.01564 -0.32098,-0.611492 -0.6039,-0.597782 -0.2352,0.01151 -0.216,0.538659 -0.4514,0.542886 -0.23165,0.0038 -0.23195,-0.512013 -0.46357,-0.518484 -0.2588,-0.0071 -0.29009,0.549722 -0.54901,0.548979 -0.25171,-7.17e-4 -0.27916,-0.543547 -0.53067,-0.536786 -0.24198,0.0062 -0.23991,0.540591 -0.4819,0.542895 -0.24907,0.0024 -0.25733,-0.556431 -0.50627,-0.548992 -0.24404,0.0071 -0.21955,0.558273 -0.4636,0.567284 -0.27178,0.01003 -0.28948,-0.603295 -0.56118,-0.591683 -0.25733,0.01092 -0.22427,0.599896 -0.4819,0.603886 -0.26677,0.0038 -0.25172,-0.613263 -0.51846,-0.609985 -0.24581,0.0032 -0.21778,0.56904 -0.4636,0.573381 -0.26647,0.0047 -0.25791,-0.608961 -0.52459,-0.603877 -0.26618,0.0047 -0.23401,0.618212 -0.5002,0.622179 -0.25673,0.0038 -0.24345,-0.585702 -0.50019,-0.585584 -0.25378,1.15e-4 -0.2402,0.576162 -0.49408,0.579487 -0.24315,0.0032 -0.24463,-0.539963 -0.48797,-0.542886 -0.24581,-0.0032 -0.26027,0.539873 -0.50629,0.53679 -0.26501,-0.0032 -0.2659,-0.596246 -0.53068,-0.591692 -0.25969,0.0047 -0.24051,0.5934 -0.50019,0.597788 -0.26205,0.0047 -0.26264,-0.593557 -0.52459,-0.585586 -0.24878,0.0077 -0.21513,0.568574 -0.4636,0.585586 -0.27268,0.01859 -0.31909,-0.586335 -0.59167,-0.567284 -0.24257,0.01682 -0.20805,0.567986 -0.45139,0.573381 -0.2523,0.0056 -0.24198,-0.568281 -0.49408,-0.573381 -0.25615,-0.0056 -0.26855,0.566003 -0.5246,0.561188 -0.24198,-0.0047 -0.23372,-0.545367 -0.47579,-0.548992 -0.24316,-0.0038 -0.25112,0.529276 -0.49408,0.536787 -0.28181,0.0086 -0.32921,-0.610219 -0.60999,-0.585584 -0.2231,0.01947 -0.17353,0.521771 -0.3965,0.542883 -0.25201,0.0239 -0.30285,-0.540738 -0.55507,-0.518485 -0.25319,0.02242 -0.20362,0.597757 -0.45749,0.609986 -0.28331,0.01357 -0.29068,-0.648791 -0.57338,-0.628287 -0.24228,0.0177 -0.16643,0.582783 -0.40868,0.603885 -0.2594,0.02242 -0.28271,-0.567789 -0.54289,-0.561185 -0.25644,0.0062 -0.24995,0.584572 -0.5063,0.579487 -0.25585,-0.0047 -0.22605,-0.58905 -0.48189,-0.597788 -0.26029,-0.0089 -0.27032,0.574138 -0.53068,0.573389 -0.2591,-7.41e-4 -0.26559,-0.581095 -0.52459,-0.573389 -0.23549,0.0071 -0.21012,0.534864 -0.44528,0.54899 -0.26854,0.01593 -0.31107,-0.576881 -0.57949,-0.561187 -0.25673,0.01505 -0.23076,0.595696 -0.48797,0.597782 -0.25539,0.0024 -0.23889,-0.575537 -0.49409,-0.585585 -0.24567,-0.0097 -0.27273,0.531843 -0.51848,0.524589 -0.22177,-0.0062 -0.21732,-0.499807 -0.43919,-0.500191 -0.25787,-4.42e-4 -0.25456,0.577708 -0.51239,0.57949 -0.27206,0.0016 -0.27701,-0.610157 -0.54899,-0.603888 -0.26132,0.0062 -0.23882,0.600819 -0.50018,0.603888 -0.26662,0.0032 -0.25803,-0.61083 -0.52459,-0.603888 -0.24762,0.0062 -0.20985,0.58069 -0.45749,0.585585 -0.26107,0.0056 -0.24517,-0.599481 -0.50629,-0.597782 -0.25564,0.0016 -0.23262,0.579449 -0.48798,0.591683 -0.27574,0.01328 -0.30989,-0.599412 -0.58558,-0.585584 -0.2439,0.01239 -0.2197,0.555047 -0.4636,0.567282 -0.25847,0.01298 -0.29031,-0.557006 -0.54899,-0.548979 -0.25484,0.008 -0.25139,0.579909 -0.50628,0.57338 -0.24157,-0.0062 -0.21008,-0.554315 -0.45139,-0.567284 -0.24262,-0.01298 -0.26939,0.519148 -0.51238,0.518484 -0.25305,-6.87e-4 -0.2778,-0.552142 -0.5307,-0.542883 -0.25523,0.0094 -0.23868,0.584929 -0.49408,0.585584 -0.25384,6.58e-4 -0.24027,-0.576081 -0.49408,-0.579486 -0.24617,-0.0032 -0.24791,0.549746 -0.49409,0.54899 -0.24485,-7.58e-4 -0.24325,-0.555651 -0.48799,-0.54899 -0.25458,0.0071 -0.22121,0.590373 -0.47579,0.597788 -0.26195,0.0077 -0.26251,-0.583819 -0.52459,-0.585583 -0.24319,-0.0016 -0.25092,0.53313 -0.49408,0.536785 -0.25303,0.0038 -0.52451,-0.567269 -0.53069,-0.542885 -0.006,0.02449 -0.26408,0.585235 -0.52458,0.57948 -0.24543,-0.0056 -0.22424,-0.56281 -0.46969,-0.567284 -0.25054,-0.0047 -0.24962,0.557704 -0.50019,0.561185 -0.24307,0.0032 -0.25714,-0.5257 -0.50019,-0.530686 -0.25012,-0.0056 -0.28674,0.533371 -0.53679,0.524589 -0.24469,-0.0086 -0.24327,-0.541087 -0.48798,-0.548991 -0.24862,-0.008 -0.28202,0.531026 -0.53068,0.524592 -0.25036,-0.0062 -0.25591,-0.559623 -0.5063,-0.555088 -0.24519,0.0047 -0.23071,0.552504 -0.47577,0.561186 -0.25291,0.0089 -0.27773,-0.549577 -0.5307,-0.542883 -0.24628,0.0062 -0.24162,0.556304 -0.48798,0.555088 -0.25228,-0.0016 -0.24181,-0.575742 -0.49408,-0.573391 -0.24836,0.0024 -0.22758,0.564691 -0.4758,0.573391 -0.25296,0.0089 -0.27152,-0.543995 -0.52458,-0.548992 -0.25735,-0.0056 -0.29791,0.54721 -0.5551,0.536787 -0.24616,-0.01003 -0.24191,-0.567152 -0.48797,-0.555088 -0.2401,0.0118 -0.18158,0.562942 -0.42089,0.585585 -0.27061,0.02567 -0.32042,-0.57856 -0.59169,-0.561187 -0.24086,0.01534 -0.21616,0.558523 -0.45748,0.561187 -0.25382,0.0032 -0.24027,-0.577192 -0.4941,-0.57948 -0.25783,-0.0024 -0.25455,0.576553 -0.51239,0.57948 -0.26039,0.0032 -0.5245,-0.597764 -0.53068,-0.57338 -0.006,0.02449 -0.24165,0.550534 -0.48798,0.555088 -0.26317,0.0047 -0.27984,-0.582682 -0.5429,-0.573391 -0.24977,0.0089 -0.22589,0.574264 -0.47578,0.579487 -0.25626,0.0056 -0.25609,-0.576036 -0.51239,-0.573389 -0.24369,0.0024 -0.23227,0.545733 -0.47579,0.555088 -0.25287,0.0097 -0.28391,-0.545804 -0.53678,-0.536787 -0.24201,0.0086 -0.23366,0.544984 -0.47579,0.548992 -0.26325,0.0047 -0.27388,-0.594011 -0.53678,-0.57949 -0.2424,0.01328 -0.19055,0.574841 -0.43309,0.585586 -0.26332,0.01151 -0.26102,-0.591252 -0.52459,-0.591683 -0.25346,-4.13e-4 -0.25298,0.558642 -0.50628,0.567284 -0.25004,0.0086 -0.28699,-0.538558 -0.53679,-0.524592 -0.24381,0.01357 -0.21958,0.557549 -0.46359,0.567294 -0.28164,0.01121 -0.30407,-0.623743 -0.58558,-0.609986 -0.25597,0.01239 -0.21962,0.596609 -0.4758,0.603879 -0.25773,0.0071 -0.25464,-0.58617 -0.51238,-0.57948 -0.24157,0.0062 -0.20997,0.556728 -0.45139,0.567284 -0.2773,0.0121 -0.29625,-0.619525 -0.57339,-0.603885 -0.24929,0.01416 -0.45138,0.597789 -0.45138,0.597789 0,0 -1.59719,-0.04591 -2.39421,-0.0983 -1.3155,-0.08644 -2.47253,-0.698915 -3.41178,-1.54414 -0.58616,-0.527488 -1.38886,-1.915079 -1.38886,-1.915079 l -0.0171,-0.30193 0.23292,-0.163896 2.91575,-0.241538 c 1.06819,0.89097 2.43018,1.517593 4.01994,0.854024 0.77387,-0.323013 1.31511,-0.893514 1.55277,-1.863315 0.18352,-0.748953 0.34541,-1.615995 0.0949,-2.36366 -0.24927,-0.743945 -0.72607,-1.48275 -1.49238,-1.820188 -1.11764,-0.492141 -2.28022,-0.555141 -3.4851,0.155281 -0.25287,0.149084 -0.32311,0.345394 -0.49171,0.500338 l -0.28468,0.05177 -2.88987,-0.241538 z"
     id="compensator_left"
     sodipodi:nodetypes="ccccccccscssscccscsssssssssssssssssssasssssssssssssssssssssssssaaaaasssssssaaasssssssssssssssssssssssssssssssssssssasssssssssssssssssssssssssscssccccssasscccc"
     inkscape:label="compensator_left">
    <title
       id="title5">metal</title>
  </path>
  <path
     style="fill:#5e5e5e;fill-rule:evenodd;stroke:#000000;stroke-width:0.0301566"
     d="m 215.05414,66.545473 c -0.006,0.352794 -0.2659,0.655191 -0.4941,0.963768 -0.53692,0.727704 -1.17502,1.401456 -2.05564,1.945853 -0.86434,0.456748 -1.78254,0.711557 -2.73883,0.823481 l -0.88448,-0.0062 -62.35749,-4.451579 0.23722,-3.269436 56.15157,4.076359 c 0.0655,0 0.42359,-0.109306 0.40564,-0.247056 -0.0177,-0.138104 0.003,-0.417842 0.003,-0.417842 0,0 -0.32431,-1.174784 -0.38735,-1.7781 -0.0339,-0.325594 -0.006,-0.654981 0.006,-0.982074 0.0295,-0.726546 0.41482,-1.506405 0.45138,-2.086151 0.0118,-0.175139 -0.38427,-0.359883 -0.38427,-0.359883 l -29.4264,0.0177 -29.59316,-2.117804 c 0.003,0.02921 -0.23334,-0.04075 -0.30192,-0.448572 -0.0503,-0.299687 0.10356,-0.905782 0.10356,-0.905782 0,0 1.08311,-0.200371 1.55276,0.01711 0.21847,0.10125 0.2323,0.546968 0.47307,0.545889 0.25098,-7.82e-4 0.23714,-0.565409 0.48799,-0.57338 0.25726,-0.0083 0.27957,0.564723 0.53679,0.555079 0.25104,-0.0094 0.23071,-0.57427 0.48188,-0.579478 0.25762,-0.0056 0.26083,0.569937 0.5185,0.573381 0.24445,0.0032 0.2618,-0.529883 0.50628,-0.530688 0.25452,-7.81e-4 0.27629,0.55682 0.53068,0.54899 0.25658,-0.008 0.24351,-0.588897 0.50019,-0.585587 0.24861,0.0032 0.22108,0.57499 0.46969,0.579487 0.25357,0.0047 0.24667,-0.565407 0.50019,-0.573386 0.27735,-0.0089 0.30887,0.612496 0.58557,0.59168 0.24089,-0.018 0.18601,-0.568975 0.427,-0.585584 0.24245,-0.01682 0.26328,0.521701 0.50628,0.52459 0.2372,0.0032 0.26914,-0.505875 0.50627,-0.50019 0.24022,0.0056 0.24789,0.538322 0.48801,0.530688 0.24552,-0.0077 0.21807,-0.559804 0.4636,-0.573381 0.2827,-0.01564 0.32097,0.611491 0.60386,0.597779 0.23519,-0.01151 0.216,-0.538659 0.4514,-0.542881 0.23195,-0.0038 0.23195,0.512009 0.46357,0.518483 0.25881,0.0071 0.29009,-0.549723 0.54901,-0.548982 0.25171,7.17e-4 0.27915,0.543547 0.53068,0.536785 0.24198,-0.0062 0.23991,-0.540589 0.48189,-0.542891 0.24906,-0.0024 0.25732,0.556432 0.50627,0.548989 0.24404,-0.0071 0.21955,-0.558272 0.4636,-0.567282 0.27178,-0.01003 0.28948,0.603292 0.56119,0.591683 0.25732,-0.01092 0.22426,-0.599899 0.48189,-0.603888 0.26677,-0.0038 0.25172,0.613264 0.51848,0.609984 0.24582,-0.0032 0.21779,-0.56904 0.46357,-0.57338 0.26677,-0.0047 0.25792,0.60896 0.52459,0.603879 0.26619,-0.0047 0.23402,-0.618215 0.50021,-0.622182 0.25673,-0.0038 0.24345,0.585702 0.50018,0.585587 0.25379,-1.18e-4 0.24021,-0.576161 0.49408,-0.579486 0.24316,-0.0032 0.24464,0.539961 0.488,0.542882 0.24582,0.0032 0.26028,-0.53987 0.50627,-0.536786 0.26501,0.0032 0.26589,0.596243 0.53071,0.591693 0.25969,-0.0047 0.24051,-0.593402 0.50016,-0.597789 0.26204,-0.0047 0.26263,0.593553 0.5246,0.585582 0.24877,-0.0077 0.21512,-0.568571 0.46359,-0.585582 0.27268,-0.01859 0.31912,0.586333 0.59167,0.567281 0.24258,-0.01682 0.20834,-0.567987 0.45138,-0.573382 0.25231,-0.0056 0.24198,0.568286 0.49411,0.573382 0.25587,0.0056 0.26855,-0.566004 0.52458,-0.561185 0.24227,0.0047 0.23372,0.545368 0.47578,0.548989 0.24316,0.0038 0.25113,-0.529273 0.49411,-0.536786 0.28183,-0.0086 0.32919,0.61022 0.60997,0.585586 0.22339,-0.01947 0.17352,-0.521771 0.3965,-0.542886 0.25201,-0.0239 0.30288,0.540738 0.55507,0.518487 0.25319,-0.02242 0.20362,-0.59776 0.45749,-0.609985 0.28331,-0.01357 0.29068,0.648787 0.57338,0.628288 0.24227,-0.0177 0.16643,-0.582784 0.40872,-0.60389 0.25939,-0.02242 0.2827,0.567792 0.54285,0.561186 0.25644,-0.0062 0.24995,-0.584569 0.5063,-0.579487 0.25586,0.0047 0.22604,0.589054 0.48189,0.597788 0.26029,0.0089 0.27032,-0.574136 0.53068,-0.573386 0.2591,7.4e-4 0.26559,0.581094 0.52459,0.573386 0.23549,-0.0071 0.21011,-0.534865 0.44528,-0.548988 0.26853,-0.01623 0.31107,0.576878 0.57951,0.561184 0.25674,-0.01505 0.23077,-0.595696 0.48798,-0.597779 0.25525,-0.0024 0.23902,0.575536 0.49408,0.585583 0.24552,0.0097 0.27268,-0.531843 0.51849,-0.524589 0.22192,0.0062 0.2172,0.499807 0.43918,0.50019 0.25793,4.46e-4 0.25469,-0.577706 0.51239,-0.579486 0.27208,-0.0016 0.27709,0.610156 0.54899,0.603885 0.26118,-0.0062 0.23874,-0.600815 0.50018,-0.603885 0.26676,-0.0032 0.2582,0.610826 0.52459,0.603885 0.24758,-0.0062 0.20981,-0.580688 0.45749,-0.585583 0.26116,-0.0056 0.24522,0.599483 0.50629,0.597779 0.25556,-0.0016 0.23254,-0.579448 0.48797,-0.591683 0.27564,-0.01328 0.30989,0.599412 0.5856,0.585587 0.24404,-0.01239 0.21955,-0.555049 0.4636,-0.567284 0.2585,-0.01298 0.29038,0.557009 0.54897,0.548982 0.25497,-0.008 0.25143,-0.579909 0.5063,-0.573381 0.24168,0.0062 0.21011,0.554315 0.45138,0.567282 0.24257,0.01298 0.26942,-0.519148 0.51238,-0.518485 0.25319,6.88e-4 0.27769,0.552147 0.53071,0.542886 0.25526,-0.0094 0.23873,-0.584932 0.49408,-0.585587 0.25378,-6.55e-4 0.24021,0.576085 0.49408,0.579487 0.24611,0.0032 0.24788,-0.549746 0.49408,-0.548988 0.24493,7.56e-4 0.24316,0.555649 0.488,0.548988 0.25468,-0.0071 0.22132,-0.590369 0.47579,-0.597788 0.26205,-0.0077 0.26264,0.583821 0.52457,0.585586 0.24316,0.0016 0.25083,-0.533133 0.49411,-0.536786 0.2529,-0.0038 0.52451,0.567267 0.53068,0.542883 0.006,-0.02449 0.26411,-0.585233 0.52459,-0.579478 0.24552,0.0056 0.22428,0.562809 0.46968,0.567282 0.25053,0.0047 0.24965,-0.557703 0.50019,-0.561186 0.24316,-0.0032 0.25702,0.5257 0.50018,0.53069 0.25026,0.0056 0.28685,-0.533375 0.53679,-0.524589 0.24464,0.0086 0.24316,0.541085 0.48797,0.548987 0.24877,0.008 0.28213,-0.531023 0.53072,-0.524589 0.25024,0.0062 0.25584,0.559623 0.50626,0.555088 0.24523,-0.0047 0.23077,-0.552503 0.47579,-0.561187 0.25289,-0.0089 0.27768,0.549575 0.53069,0.542885 0.24612,-0.0062 0.24169,-0.556307 0.48799,-0.555088 0.25231,0.0016 0.24169,0.575739 0.49408,0.57339 0.24847,-0.0024 0.22752,-0.564694 0.47579,-0.57339 0.25289,-0.0089 0.27148,0.543992 0.52459,0.548989 0.25732,0.0056 0.2979,-0.547209 0.55508,-0.536786 0.24611,0.01003 0.24198,0.56715 0.488,0.555087 0.24021,-0.0118 0.18149,-0.56294 0.42088,-0.585583 0.2706,-0.02567 0.3204,0.578557 0.5917,0.561184 0.2408,-0.01534 0.21629,-0.558522 0.45747,-0.561184 0.2538,-0.0032 0.24021,0.577191 0.4941,0.579478 0.25791,0.0024 0.25467,-0.576551 0.51237,-0.579478 0.26057,-0.0032 0.5245,0.597764 0.53067,0.573381 0.006,-0.02449 0.24168,-0.550537 0.48802,-0.555088 0.26322,-0.0047 0.27974,0.58268 0.54288,0.57339 0.24965,-0.0089 0.22575,-0.574264 0.47579,-0.579486 0.25614,-0.0056 0.25614,0.576034 0.51238,0.573386 0.24375,-0.0024 0.23223,-0.545733 0.47579,-0.555087 0.2529,-0.0097 0.28388,0.545804 0.53677,0.536786 0.24198,-0.0086 0.23372,-0.544984 0.47579,-0.548989 0.26322,-0.0047 0.27385,0.594009 0.53679,0.579486 0.24227,-0.01328 0.19062,-0.574841 0.43311,-0.585582 0.26323,-0.01151 0.26087,0.591252 0.52457,0.59168 0.25349,4.16e-4 0.2529,-0.558638 0.5063,-0.567282 0.24994,-0.0086 0.28712,0.538557 0.53678,0.524589 0.24375,-0.01357 0.21955,-0.557546 0.46359,-0.56729 0.28153,-0.01121 0.30408,0.62374 0.58556,0.609983 0.25587,-0.01239 0.21956,-0.596608 0.47582,-0.603877 0.25763,-0.0071 0.25468,0.58617 0.51239,0.579478 0.24168,-0.0062 0.21011,-0.556726 0.45138,-0.567281 0.27739,-0.0121 0.29624,0.619525 0.57336,0.603885 0.24938,-0.01416 0.45139,-0.597789 0.45139,-0.597789 0,0 1.59719,0.04591 2.39423,0.0983 1.31548,0.08644 2.47252,0.698916 3.41176,1.54414 0.58618,0.527488 1.38888,1.915082 1.38888,1.915082 l 0.0177,0.301927 -0.23283,0.163898 -2.91573,0.241537 c -1.0682,-0.890971 -2.4302,-1.517594 -4.01994,-0.854025 -0.77388,0.323017 -1.31511,0.893517 -1.55278,1.863317 -0.18355,0.748955 -0.34541,1.615993 -0.095,2.363662 0.24936,0.743941 0.72609,1.482746 1.49239,1.820184 1.11763,0.492141 2.28023,0.555141 3.48512,-0.15528 0.25289,-0.149083 0.3231,-0.345391 0.49169,-0.500338 l 0.28476,-0.05175 2.88987,0.241537 z"
     id="compensator_right"
     sodipodi:nodetypes="ccccccccscssscccscsssssssssssssssssssasssssssssssssssssssssssssaaaaasssssssaaasssssssssssssssssssssssssssssssssssssasssssssssssssssssssssssssscssccccssasscccc"
     inkscape:label="compensator_right">
    <title
       id="title6">metal</title>
  </path>
</svg>
