<?xml version="1.0" encoding="UTF-8" standalone="no"?>
<!-- Created with Inkscape (http://www.inkscape.org/) -->

<svg
   width="210mm"
   height="297mm"
   viewBox="0 0 210 297"
   version="1.1"
   id="svg1"
   inkscape:version="1.4 (86a8ad7, 2024-10-11)"
   sodipodi:docname="DSHA-0-055-corner.svg"
   xmlns:inkscape="http://www.inkscape.org/namespaces/inkscape"
   xmlns:sodipodi="http://sodipodi.sourceforge.net/DTD/sodipodi-0.dtd"
   xmlns="http://www.w3.org/2000/svg"
   xmlns:svg="http://www.w3.org/2000/svg">
  <sodipodi:namedview
     id="namedview1"
     pagecolor="#ffffff"
     bordercolor="#000000"
     borderopacity="0.25"
     inkscape:showpageshadow="2"
     inkscape:pageopacity="0.0"
     inkscape:pagecheckerboard="0"
     inkscape:deskcolor="#d1d1d1"
     inkscape:document-units="mm"
     inkscape:zoom="0.74016561"
     inkscape:cx="422.20281"
     inkscape:cy="397.88393"
     inkscape:window-width="2560"
     inkscape:window-height="1377"
     inkscape:window-x="-8"
     inkscape:window-y="-8"
     inkscape:window-maximized="1"
     inkscape:current-layer="svg1" />
  <defs
     id="defs1" />
  <path
     style="fill:#5e5e5e;fill-rule:evenodd;stroke:#000000;stroke-width:0.0422391"
     d="m 54.780844,61.238445 v -1.267873 l 18.749389,-2.63096 c 0,0 0.202693,0.46797 0.412042,0.475456 0.238952,0.0091 0.268268,-0.508976 0.507234,-0.507162 0.250324,6.46e-4 0.272947,0.546611 0.52306,0.53885 0.243236,-0.0083 0.232119,-0.543599 0.475471,-0.554708 0.257544,-0.01267 0.297497,0.556483 0.554624,0.538866 0.214093,-0.0146 0.183149,-0.482916 0.396288,-0.507177 0.250171,-0.027 0.335965,0.501505 0.586413,0.475475 0.216487,-0.0223 0.194169,-0.505499 0.412028,-0.507164 0.255007,-6.55e-4 0.236461,0.581979 0.491353,0.586402 0.245133,0.0011 0.246489,-0.536235 0.491309,-0.546753 0.227958,-0.0091 0.271393,0.475746 0.499211,0.467515 0.237343,-0.0091 0.24611,-0.521949 0.483526,-0.523034 0.246638,-6.52e-4 0.260343,0.539037 0.50708,0.53889 0.239209,-9.2e-5 0.253717,-0.497859 0.491366,-0.52302 0.405824,-0.04287 0.598211,0.698328 1.006396,0.697384 0.386996,-6.56e-4 0.566758,-0.71129 0.950904,-0.665695 0.241444,0.02694 0.239846,0.539323 0.483322,0.546813 0.254108,0.0083 0.284873,-0.541953 0.538866,-0.538853 0.229974,6.52e-4 0.245973,0.497343 0.475398,0.499217 0.233671,6.27e-4 0.258295,-0.508166 0.491382,-0.499217 0.220982,0.0091 0.207251,0.497792 0.427962,0.507146 0.250185,0.01273 0.280758,-0.531887 0.530982,-0.530937 0.244889,6.46e-4 0.270754,0.53009 0.515132,0.523008 0.228387,-0.0056 0.223849,-0.503338 0.451706,-0.515055 0.248377,-0.01322 0.298285,0.515825 0.546717,0.507151 0.231524,-0.0083 0.243796,-0.507151 0.475488,-0.507151 0.231774,0 0.243698,0.507151 0.475359,0.507151 0.231823,0 0.244216,-0.497602 0.475745,-0.507151 0.2595,-0.01273 0.319174,0.538848 0.578296,0.522984 0.233644,-0.01453 0.226055,-0.518139 0.459675,-0.530937 0.248157,-0.01359 0.298389,0.519123 0.546798,0.507162 0.222413,-0.0093 0.220966,-0.503444 0.443855,-0.499209 0.232575,0.0011 0.211077,0.5322 0.443547,0.538816 0.237409,0.0055 0.246079,-0.524841 0.483546,-0.522978 0.237459,6.52e-4 0.237569,0.524375 0.475452,0.530914 0.25759,0.0055 0.289056,-0.555607 0.546684,-0.546752 0.245233,0.0091 0.238294,0.554417 0.483579,0.554691 0.252589,2.25e-4 0.246675,-0.565064 0.499173,-0.570579 0.244786,-0.0055 0.262536,0.530262 0.507246,0.530943 0.216514,6.04e-4 0.234903,-0.463906 0.451745,-0.467546 0.227984,-0.0011 0.263144,0.476452 0.491073,0.475475 0.241044,-6.34e-4 0.274335,-0.51017 0.515188,-0.507146 0.216403,6.52e-4 0.235209,0.457207 0.451589,0.467515 0.239677,0.01288 0.307382,-0.483706 0.547053,-0.467515 0.229325,0.01506 0.229277,0.510442 0.459449,0.515059 0.224218,0.0011 0.243792,-0.473672 0.467621,-0.483388 0.213234,-0.0091 0.270334,0.425713 0.483219,0.420004 0.224238,-0.0055 0.259351,-0.472989 0.483618,-0.467513 0.235179,0.0055 0.247961,0.515055 0.483207,0.515055 0.235583,0 0.248297,-0.507787 0.483549,-0.515055 0.246716,-0.0083 0.292706,0.52062 0.538847,0.507151 0.23573,-0.0132 0.223816,-0.529515 0.459532,-0.538879 0.250142,-0.0091 0.280832,0.536912 0.531062,0.530937 0.23528,-0.0055 0.23974,-0.519935 0.47545,-0.52302 0.26309,-6.55e-4 0.28322,0.57503 0.54663,0.570563 0.23749,-0.0011 0.23791,-0.530914 0.47549,-0.530914 0.23748,0 0.23787,0.528074 0.4758,0.530914 0.23884,6.53e-4 0.25258,-0.504363 0.491,-0.522999 0.40357,-0.03065 0.55435,0.743215 0.95897,0.744862 0.42205,6.55e-4 0.58557,-0.80309 1.00649,-0.768615 0.24569,0.02097 0.26037,0.542543 0.50699,0.538816 0.24716,-6.57e-4 0.24431,-0.554839 0.49139,-0.554704 0.24344,7.7e-5 0.23979,0.5478 0.48359,0.546785 0.24121,-6.41e-4 0.23341,-0.548493 0.4754,-0.546785 0.2453,6.31e-4 0.2302,0.554235 0.47541,0.56264 0.24256,0.0091 0.26444,-0.513164 0.50703,-0.522999 0.25621,-0.0091 0.32414,0.537374 0.57859,0.507144 0.21827,-0.02426 0.16034,-0.526052 0.38041,-0.53885 0.2407,-0.01448 0.24162,0.533174 0.48324,0.53885 0.25977,0.0055 0.28728,-0.544225 0.54702,-0.554708 0.39105,-0.01503 0.49789,0.750499 0.88917,0.76722 0.41694,0.01782 0.59877,-0.774389 1.01429,-0.734083 0.2262,0.02195 0.23747,0.499739 0.46497,0.498742 0.24295,-6.59e-4 0.24986,-0.532652 0.49321,-0.53793 0.25619,-0.0055 0.28727,0.55236 0.54345,0.543537 0.23063,-0.0083 0.22382,-0.514418 0.45395,-0.521121 0.24568,-0.0083 0.26996,0.533304 0.51551,0.526739 0.22618,-0.0055 0.22208,-0.503955 0.44811,-0.509967 0.23021,-0.0055 0.25256,0.485135 0.48188,0.493129 0.24978,0.0091 0.31055,-0.510442 0.56037,-0.498718 0.22228,0.01282 0.232,0.48354 0.45386,0.487516 0.2325,0.0011 0.26072,-0.495029 0.4932,-0.493117 0.23925,6.33e-4 0.25993,0.521852 0.49873,0.515531 0.22742,-0.0055 0.22053,-0.508866 0.44805,-0.515531 0.23476,-0.0055 0.25832,0.500527 0.49352,0.504319 0.24811,0.0011 0.28924,-0.516782 0.53767,-0.515503 0.24061,6.28e-4 0.27526,0.507101 0.5156,0.504301 0.21462,-6.53e-4 0.23426,-0.450442 0.44841,-0.459483 0.25624,-0.01262 0.32749,0.53346 0.58277,0.50429 0.22008,-0.02378 0.17074,-0.521853 0.39222,-0.537924 0.24532,-0.01782 0.26995,0.528241 0.51531,0.526734 0.23287,-6.48e-4 0.24931,-0.500354 0.48212,-0.504319 0.23472,-0.0011 0.26901,0.498386 0.50419,0.493116 0.23477,-0.0054 0.24717,-0.51156 0.48191,-0.515531 0.2379,-0.0011 0.26667,0.502984 0.50418,0.504319 0.23063,6.51e-4 0.26341,-0.481818 0.4932,-0.481904 0.21871,-4.7e-5 0.2517,0.456874 0.47075,0.459481 0.21923,6.57e-4 0.2626,-0.446877 0.48189,-0.448262 0.21695,-6.3e-4 0.26493,0.439937 0.48179,0.437068 0.23798,-6.55e-4 0.27767,-0.498287 0.51559,-0.493089 0.24832,0.0054 0.26764,0.545042 0.51559,0.537918 0.23481,-0.0055 0.22424,-0.53113 0.45942,-0.537918 0.25393,-0.0083 0.2731,0.553282 0.52661,0.549121 0.24651,-0.0011 0.24744,-0.546575 0.49322,-0.549121 0.24063,-6.63e-4 0.25299,0.526886 0.49318,0.526706 0.23102,-1.48e-4 0.24077,-0.500348 0.47079,-0.504319 0.23755,-0.0011 0.26638,0.502859 0.50416,0.504319 0.21925,6.51e-4 0.2526,-0.451802 0.47054,-0.45949 0.22523,-0.0083 0.29042,0.442531 0.51559,0.437067 0.23464,-0.0055 0.28032,-0.497174 0.51557,-0.481896 0.24655,0.01544 0.22428,0.571809 0.47084,0.571569 0.2415,-2.38e-4 0.21822,-0.553812 0.45943,-0.560379 0.23791,-0.0055 0.24342,0.524039 0.4818,0.526734 0.248,6.38e-4 0.26851,-0.515325 0.51559,-0.537924 0.39451,-0.03614 0.56767,0.691513 0.96364,0.694836 0.4188,6.55e-4 0.61653,-0.776873 1.03113,-0.717223 0.24203,0.03494 0.21469,0.567489 0.45948,0.57155 0.2466,0.0011 0.23472,-0.548482 0.48184,-0.560347 0.24752,-0.01289 0.28947,0.525816 0.53803,0.515503 0.21324,-0.0091 0.21131,-0.471712 0.42565,-0.481904 0.23423,-0.01267 0.27982,0.484636 0.51561,0.481904 0.24605,-6.59e-4 0.28028,-0.523738 0.52687,-0.515503 0.23434,0.0083 0.23434,0.518701 0.47084,0.526715 0.22426,0.0083 0.25668,-0.468142 0.48179,-0.470702 0.23114,-6.27e-4 0.2754,0.478472 0.5042,0.470702 0.24073,-0.0083 0.25364,-0.532399 0.4932,-0.526715 0.23114,0.0055 0.21794,0.513814 0.44816,0.526715 0.25207,0.01447 0.29854,-0.523807 0.54925,-0.515531 0.23115,0.0083 0.24082,0.513105 0.47048,0.504319 0.21418,-0.0091 0.40361,-0.504319 0.40361,-0.504319 h 3.04804 v 0.773264 c 0,0 -1.43186,0.996855 -1.94967,1.681063 -0.41096,0.542315 -0.86312,1.84917 -0.86312,1.84917 0.0455,0.219401 0.18632,0.39691 0.43706,0.526739 h 3.37352 c 0.14975,-0.161797 0.29785,-0.311814 0.44842,-0.414704 1.26735,-1.228141 2.44242,-1.016951 3.49608,-0.504277 0.88052,0.428336 1.43072,1.690713 1.43483,2.566364 7e-4,0.853729 -0.39126,1.602579 -1.03111,2.084496 -0.87191,0.65487 -1.89889,0.803983 -2.89139,0.470702 -0.56582,-0.189877 -1.50198,-1.053434 -1.50198,-1.053434 h -3.24983 c 0,0 -0.39094,0.04715 -0.49321,0.190527 -0.10931,0.15203 -0.006,0.560339 -0.006,0.560339 0,0 1.19279,2.122746 2.11805,2.868956 0.88639,0.714824 3.11557,1.400896 3.11557,1.400896 l 0.95256,0.04481 2.94733,0.302632 v 2.364678 H 138.2982 V 61.202898 Z"
     id="profile_left"
     sodipodi:nodetypes="cccssssssssssssssssssssssssssssssssssssssssssssssssssssssssssssssssssssssssssssssssssssssssssssssssssssssssssssssssssssssssssssssssscccsccccssssccscsccccccc"
     inkscape:label="profile_left" />
  <rect
     style="fill:#ddd5d5;fill-opacity:0.768047;fill-rule:evenodd;stroke:#b81e1e;stroke-width:0.0184572"
     id="concrete_left"
     width="140.11058"
     height="49.982468"
     x="-1.87325"
     y="63.566406" />
  <ellipse
     style="fill:#b4cdd0;fill-opacity:0;fill-rule:evenodd;stroke:#b81e1e;stroke-width:0.00016359"
     id="screw_left"
     cx="-81.315659"
     cy="-58.113285"
     rx="0.049918205"
     ry="0.032774579"
     transform="scale(-1)"
     inkscape:label="screw_left" />
  <rect
     style="fill:#e1ecec;fill-opacity:0.77;fill-rule:evenodd;stroke:#b81e1e;stroke-width:0.0126854"
     id="finish_left"
     width="140.11874"
     height="2.0309176"
     x="-1.8972673"
     y="61.423679"
     inkscape:label="finish_left" />
  <rect
     style="fill:#e1ecec;fill-opacity:0.77;fill-rule:evenodd;stroke:#b81e1e;stroke-width:0.0144776"
     id="cover_left"
     width="140.11621"
     height="0.12596738"
     x="-1.8839846"
     y="61.247318"
     inkscape:label="cover_left" />
  <rect
     style="fill:#404242;fill-opacity:0.341246;fill-rule:evenodd;stroke:#b81e1e;stroke-width:0.0208707"
     id="shadow"
     width="154.51027"
     height="0.012373402"
     x="51.560909"
     y="113.37949"
     inkscape:label="shadow" />
  <path
     style="fill:#5e5e5e;fill-rule:evenodd;stroke:#000000;stroke-width:0.0313521"
     d="m 142.01067,60.80912 c 0.14327,-0.378324 0.37095,-0.644141 0.5823,-0.931683 0.61571,-0.874553 1.35622,-1.468252 2.16285,-1.913279 1.06751,-0.555306 2.17394,-0.884968 3.36071,-0.748668 l 2.44567,0.449203 17.70193,3.726734 -0.63221,2.978053 -13.85876,-2.894869 c -0.14665,0.04148 -0.28625,0.123357 -0.41593,0.266177 -0.0912,0.176962 -0.0838,0.338784 -0.0665,0.499119 l 0.2163,0.848497 v 1.098056 l -0.18286,0.998227 -0.366,1.064785 c -0.006,0.138644 -0.0245,0.277282 0.0832,0.415925 0.1221,0.144807 0.24391,0.180733 0.36601,0.183004 l 6.93771,-0.316106 9.81593,2.112914 0.0665,0.482479 -3.64356,0.183004 c 0,0 -0.2034,-0.47544 -0.41626,-0.484727 -0.26292,-0.0114 -0.30158,0.56318 -0.56442,0.551728 -0.2172,-0.0095 -0.2077,-0.487065 -0.42488,-0.494645 -0.25249,-0.0088 -0.28011,0.533065 -0.53269,0.539039 -0.2528,0.0058 -0.30618,-0.536362 -0.55809,-0.513674 -0.23746,0.02147 -0.19329,0.554269 -0.43124,0.570747 -0.25955,0.0178 -0.29206,-0.565942 -0.55171,-0.551727 -0.24636,0.01354 -0.21691,0.559225 -0.46292,0.577093 -0.25066,0.01809 -0.30158,-0.535956 -0.55174,-0.513673 -0.24207,0.02147 -0.19544,0.562742 -0.43759,0.583432 -0.26078,0.0224 -0.30946,-0.553577 -0.57073,-0.539039 -0.235,0.01325 -0.22151,0.527044 -0.45661,0.539039 -0.23133,0.01197 -0.26937,-0.487712 -0.50099,-0.481966 -0.24667,0.0064 -0.26079,0.531612 -0.50733,0.539039 -0.24974,0.0074 -0.29698,-0.538249 -0.54539,-0.513672 -0.23225,0.02301 -0.17426,0.541069 -0.40586,0.570746 -0.2709,0.03473 -0.35687,-0.560512 -0.62784,-0.526353 -0.23745,0.03006 -0.18039,0.561199 -0.41852,0.583433 -0.25894,0.02424 -0.30527,-0.561337 -0.56442,-0.539045 -0.25157,0.02147 -0.19819,0.594259 -0.45026,0.608799 -0.26875,0.01564 -0.28286,-0.604148 -0.55172,-0.589775 -0.24575,0.01325 -0.1988,0.566776 -0.4439,0.589775 -0.25341,0.02394 -0.3107,-0.532317 -0.56442,-0.513674 -0.23961,0.01748 -0.21691,0.54176 -0.4566,0.558067 -0.2476,0.01687 -0.2976,-0.523203 -0.54537,-0.507331 -0.24421,0.01564 -0.22519,0.550343 -0.46931,0.564404 -0.25678,0.01473 -0.3025,-0.560073 -0.55806,-0.5327 -0.23623,0.02516 -0.16321,0.565917 -0.3995,0.589779 -0.26171,0.02639 -0.30158,-0.563812 -0.56443,-0.551724 -0.24114,0.01111 -0.22824,0.53559 -0.46927,0.551724 -0.25248,0.01687 -0.31257,-0.531132 -0.56441,-0.507331 -0.25372,0.02394 -0.20831,0.600049 -0.46296,0.608798 -0.24697,0.0085 -0.4883,-0.558066 -0.4883,-0.558066 -0.14357,-0.164106 -0.29452,0.349932 -0.53904,0.589773 l -2.50495,-0.0064 c -0.073,0.06568 -2.26788,-0.503726 -3.06936,-1.230286 -0.66182,-0.599967 -1.64879,-1.141823 -1.7503,-2.02933 -0.0215,-0.185059 0.25985,-0.494648 0.25985,-0.494648 1.06208,-0.249764 2.15587,-0.436054 3.33572,-0.450259 0.7105,0.568577 1.54711,0.969007 2.96092,0.599847 0.75702,-0.419131 1.51818,-0.835218 1.73092,-1.650199 0.33781,-0.576971 0.36707,-1.153942 0.21536,-1.730914 -0.10001,-0.834351 -0.58837,-1.363438 -1.15692,-1.829576 -0.63215,-0.481099 -1.39491,-0.748022 -2.4484,-0.538115 -0.78964,0.157601 -1.15996,0.566786 -1.63227,0.914782 l -2.94163,-0.125565 c -0.22919,0.0048 -0.38031,-0.128428 -0.50226,-0.313887 -0.0596,-0.137746 -0.061,-0.275503 -0.0128,-0.413271 z"
     id="compensator_left"
     sodipodi:nodetypes="ccccccccccccccccccccsssssssssssssssssssssssssssssssssccsscccccccccccc"
     inkscape:label="compensator_left">
    <title
       id="title2">metal</title>
  </path>
  <path
     style="fill:#5e5e5e;fill-rule:evenodd;stroke:#000000;stroke-width:0.0313521"
     d="m 184.65528,66.52912 c -0.14327,0.378325 -0.37095,0.644143 -0.5823,0.931682 -0.61571,0.874551 -1.35626,1.468255 -2.16287,1.91328 -1.06752,0.555304 -2.17395,0.884966 -3.36071,0.748669 l -2.44565,-0.449205 -17.70196,-3.72673 0.63222,-2.978054 13.85877,2.894866 c 0.14665,-0.04147 0.28624,-0.123356 0.41592,-0.266177 0.0912,-0.17696 0.0838,-0.338784 0.0665,-0.499119 l -0.2163,-0.848495 v -1.098056 l 0.18286,-0.998228 0.36601,-1.064784 c 0.006,-0.138644 0.0245,-0.277284 -0.0832,-0.415925 -0.1221,-0.144807 -0.24389,-0.180734 -0.36604,-0.183004 l -6.93768,0.316105 -9.81596,-2.112919 -0.0665,-0.482476 3.64355,-0.183004 c 0,0 0.2034,0.475438 0.41626,0.484725 0.26293,0.0114 0.30158,-0.56318 0.56441,-0.551728 0.21722,0.0095 0.2077,0.487065 0.42488,0.494649 0.25249,0.0088 0.28011,-0.533065 0.53269,-0.539042 0.25281,-0.0058 0.30618,0.536361 0.55807,0.513673 0.23746,-0.02147 0.19328,-0.554266 0.43123,-0.570746 0.25955,-0.01779 0.29208,0.565941 0.55174,0.551728 0.24636,-0.01354 0.21691,-0.559227 0.46294,-0.577094 0.25064,-0.0181 0.30158,0.535955 0.55174,0.513673 0.24205,-0.02147 0.19542,-0.562742 0.43754,-0.583433 0.26079,-0.0224 0.30947,0.553579 0.57078,0.539039 0.235,-0.01325 0.22151,-0.527042 0.45659,-0.539039 0.23133,-0.01197 0.26937,0.487715 0.50098,0.481966 0.24665,-0.0064 0.26077,-0.531612 0.50734,-0.539039 0.24974,-0.0074 0.29698,0.538254 0.5454,0.513674 0.23224,-0.02301 0.17425,-0.541071 0.40586,-0.570747 0.27091,-0.03472 0.35686,0.560511 0.62783,0.526352 0.23746,-0.03006 0.18009,-0.561198 0.41853,-0.583431 0.25894,-0.02423 0.30526,0.561336 0.56441,0.539047 0.25157,-0.02147 0.1982,-0.594261 0.45026,-0.608801 0.26875,-0.01564 0.28287,0.604151 0.55171,0.589773 0.24574,-0.01325 0.19911,-0.566776 0.44394,-0.589773 0.2531,-0.02394 0.31069,0.53232 0.56441,0.513672 0.23962,-0.01748 0.2169,-0.541756 0.45661,-0.558065 0.24758,-0.01687 0.29759,0.523201 0.54536,0.507334 0.24421,-0.01564 0.22519,-0.550348 0.46927,-0.564409 0.25679,-0.01472 0.30251,0.560073 0.5581,0.532702 0.23624,-0.02516 0.16322,-0.565917 0.39951,-0.589781 0.26169,-0.02639 0.30158,0.563813 0.56441,0.551725 0.24114,-0.01111 0.22826,-0.535588 0.46928,-0.551725 0.25249,-0.01687 0.31256,0.531133 0.56442,0.507332 0.25372,-0.02394 0.208,-0.600048 0.46292,-0.608798 0.24697,-0.0085 0.48832,0.558065 0.48832,0.558065 0.14359,0.164106 0.29453,-0.349928 0.53905,-0.589773 l 2.50494,0.0064 c 0.0731,-0.06568 2.2679,0.503729 3.06937,1.230285 0.66182,0.599969 1.64878,1.141823 1.75031,2.029334 0.0215,0.18506 -0.26016,0.494646 -0.26016,0.494646 -1.06208,0.249763 -2.1559,0.436053 -3.33572,0.450258 -0.7105,-0.568577 -1.54711,-0.969005 -2.96092,-0.599845 -0.75702,0.419129 -1.51822,0.835216 -1.73092,1.650198 -0.33781,0.576971 -0.36708,1.153943 -0.21537,1.730914 0.10002,0.83434 0.58837,1.36343 1.15693,1.829568 0.63215,0.481096 1.39488,0.748019 2.4484,0.538111 0.78963,-0.157602 1.15996,-0.566782 1.63224,-0.914782 l 2.94166,0.125578 c 0.22919,-0.0048 0.38031,0.128429 0.50226,0.313886 0.0596,0.137747 0.061,0.275505 0.0128,0.413271 z"
     id="compensator_right"
     sodipodi:nodetypes="ccccccccccccccccccccsssssssssssssssssssssssssssssssssccsscccccccccccc"
     inkscape:label="compensator_right">
    <title
       id="title1">metal</title>
  </path>
  <ellipse
     style="opacity:0;fill:none;fill-opacity:0;fill-rule:evenodd;stroke-width:0.000191947;stroke-opacity:0"
     id="screw_right"
     cx="186.89276"
     cy="21.699635"
     rx="0.0049418169"
     ry="0.0015055466"
     inkscape:label="screw_right" />
  <path
     style="fill:#5e5e5e;fill-rule:evenodd;stroke:#000000;stroke-width:0.0441661"
     d="m 181.61923,65.363406 h 3.29292 c 0.0846,-0.0709 0.72166,0.39848 0.52726,0.78512 -0.22127,0.44001 -0.41877,0.93966 -0.67956,1.37107 -0.25974,0.4296 -0.59704,0.81424 -0.96096,1.16012 -0.40281,0.38249 -1.33586,0.99606 -1.33586,0.99606 v 0.71484 h 1.24207 c 0,0 0.13873,-0.47882 0.33969,-0.50389 0.24462,-0.0302 0.30469,0.50467 0.55083,0.49218 0.24289,-0.0129 0.24894,-0.54162 0.49218,-0.53907 0.24937,0.002 0.24332,0.55156 0.49216,0.5625 0.25932,0.0129 0.30298,-0.54335 0.5625,-0.53903 0.23467,0.004 0.25759,0.49835 0.49214,0.50389 0.23467,0.004 0.28135,-0.49689 0.51559,-0.48047 0.21048,0.0129 0.39848,0.49218 0.39848,0.49218 h 1.12499 V 8.783215 h -0.86049 l -1.43049,4.227839 v 1.593692 c 0,0 0.52004,0.16294 0.53318,0.38075 0.013,0.24852 -0.54258,0.255 -0.55082,0.50389 -0.013,0.25975 0.54603,0.30297 0.53907,0.56254 -0.013,0.25672 -0.56799,0.27055 -0.5625,0.52731 0,0.25759 0.58077,0.24635 0.58592,0.50389 0,0.23468 -0.50865,0.24548 -0.5156,0.48046 -0.013,0.22647 0.47147,0.2658 0.46871,0.49218 0,0.23727 -0.50748,0.26623 -0.5038,0.50389 0,0.26795 0.58716,0.28264 0.58591,0.55077 0,0.2766 -0.6214,0.28611 -0.60938,0.5625 0.013,0.26147 0.61336,0.21869 0.62107,0.48046 0.013,0.24332 -0.4963,0.24289 -0.55075,0.48046 -0.0891,0.38897 0.47639,0.70257 0.46875,1.10152 -0.013,0.37557 -0.55473,0.65122 -0.48051,1.01953 0.0432,0.20615 0.45945,0.21177 0.46871,0.42182 0.013,0.23467 -0.48315,0.28049 -0.48037,0.51559 0,0.2403 0.50517,0.27531 0.50384,0.51561 0,0.23208 -0.47995,0.26061 -0.49218,0.49217 -0.013,0.23598 0.45099,0.31463 0.44528,0.55078 -0.013,0.24073 -0.48724,0.29864 -0.48037,0.53907 0.013,0.25413 0.53763,0.28481 0.53902,0.53902 0,0.25672 -0.55653,0.29432 -0.53902,0.55079 0.0173,0.24158 0.56876,0.20312 0.57413,0.44532 0.013,0.27141 -0.62526,0.25585 -0.62102,0.52731 0,0.26969 0.62606,0.23424 0.6328,0.50389 0.013,0.26579 -0.58653,0.2619 -0.59771,0.52735 -0.013,0.25413 0.53448,0.29649 0.5274,0.55074 -0.013,0.24591 -0.54331,0.25802 -0.53907,0.50393 0,0.24375 0.54386,0.23684 0.55074,0.48046 0.013,0.2403 -0.51289,0.26364 -0.51565,0.50389 0,0.2403 0.51322,0.27531 0.50398,0.515601 -0.013,0.25456 -0.57464,0.24937 -0.57429,0.50389 3.3e-4,0.24375 0.53622,0.23727 0.55081,0.48046 0.0172,0.26234 -0.54303,0.32371 -0.52735,0.58592 0.013,0.2485 0.55562,0.24332 0.5625,0.49217 0.013,0.24592 -0.52294,0.26969 -0.52727,0.5156 0,0.23209 0.48745,0.27185 0.48037,0.50393 -0.013,0.22388 -0.48245,0.23339 -0.49217,0.456999 -0.013,0.27919 0.58695,0.34272 0.56249,0.62109 -0.0216,0.24116 -0.55631,0.204 -0.57416,0.44529 -0.0173,0.27141 0.58354,0.31809 0.56491,0.58946 -0.0173,0.23554 -0.54982,0.20313 -0.55518,0.43919 0,0.24851 0.56456,0.2403 0.56339,0.48889 0,0.26839 -0.66275,0.48046 -0.61314,0.52204 0.0492,0.0432 0.60869,0.24721 0.61314,0.51374 0,0.2524 -0.55848,0.25327 -0.56339,0.50545 0,0.25801 0.5563,0.28092 0.55518,0.53859 -0.002,0.24418 -0.53665,0.26147 -0.53038,0.50548 0.013,0.23295 0.51893,0.22301 0.53038,0.45574 0.013,0.25932 -0.54352,0.30384 -0.5386,0.56345 0,0.2498 0.53847,0.27185 0.5386,0.52204 9e-5,0.26968 -0.59041,0.29389 -0.58012,0.56344 0.013,0.25888 0.60048,0.23814 0.59668,0.49719 0,0.24591 -0.57322,0.21004 -0.58009,0.45574 -0.013,0.24635 0.54361,0.24246 0.55514,0.48889 0.013,0.26147 -0.54541,0.30988 -0.53853,0.57174 0.013,0.25586 0.56633,0.27444 0.55513,0.53034 -0.013,0.24721 -0.56145,0.21696 -0.57999,0.46404 -0.0172,0.24765 0.5082,0.29864 0.50544,0.54689 0,0.22647 -0.47774,0.26234 -0.47226,0.48889 0.013,0.25413 0.56022,0.26796 0.55516,0.52204 0,0.24851 -0.55996,0.24029 -0.56348,0.48885 0,0.22862 0.49073,0.23597 0.50538,0.46404 0.0173,0.25239 -0.49663,0.32716 -0.48884,0.58004 0.013,0.25196 0.52199,0.29475 0.52199,0.54689 0,0.24807 -0.51213,0.29043 -0.51373,0.53859 0,0.2148 0.43931,0.25715 0.43918,0.47234 -8e-5,0.22257 -0.45786,0.26622 -0.45566,0.48889 0,0.25802 0.55242,0.29777 0.5386,0.55515 -0.013,0.23294 -0.52982,0.21436 -0.5386,0.44748 -0.013,0.23036 0.49603,0.25023 0.49706,0.48059 0.002,0.25197 -0.53768,0.27833 -0.53858,0.5303 -7.8e-4,0.23813 0.49446,0.26752 0.50556,0.50548 0.013,0.25067 -0.49342,0.32933 -0.48062,0.58004 0.013,0.22431 0.48062,0.24765 0.48062,0.4723 0,0.21696 -0.44061,0.2403 -0.46404,0.45574 -0.0172,0.15083 0.24851,0.38119 0.24851,0.38119 v 1.62407 c -0.0696,0.29692 -0.22948,0.52973 -0.59654,0.61319 h -3.53824 v 0.74578 l 1.26782,1.00264 1.05233,1.17663 c -0.013,0 0.46737,0.81372 0.62153,1.28437 0.13096,0.39978 -0.52134,0.90051 -0.55518,0.87004 h -3.26479 c -0.7314,-0.78321 -1.57645,-1.20784 -2.5108,-1.35067 -0.0172,-0.0346 -1.54485,0.24073 -2.07976,0.82033 -0.47286,0.51249 -1.00492,1.28131 -1.03579,2.07986 -0.0303,0.79086 0.34359,1.63635 0.90315,2.19586 0.5764,0.57619 1.45167,0.72539 2.23734,0.68774 0.51127,-0.0259 0.96582,-0.12966 1.34234,-0.35613 0.40539,-0.24375 1.1475,-0.83502 1.1475,-0.83502 z"
     id="profile_right"
     sodipodi:nodetypes="ccssscccsssssssccccccsssssssssssssssssssssssssssssssssssssssssssssssssssssssssssssssssssssssssssscccccccscccsssssc"
     inkscape:label="profile_right" />
  <rect
     style="fill:#e1ecec;fill-opacity:0.77;fill-rule:evenodd;stroke:#b81e1e;stroke-width:0.00839695"
     id="finish_right"
     width="61.239105"
     height="2.0361254"
     x="-61.243305"
     y="188.9126"
     inkscape:label="finish_right"
     transform="rotate(-90)" />
  <rect
     style="fill:#e1ecec;fill-opacity:0.77;fill-rule:evenodd;stroke:#b81e1e;stroke-width:0.00963666"
     id="cover_right"
     width="61.21777"
     height="0.12774111"
     x="-61.228786"
     y="188.73686"
     inkscape:label="cover_right"
     transform="rotate(-90)" />
  <path
     style="fill:#e1ecec;fill-opacity:0.77;fill-rule:evenodd;stroke:#b81e1e;stroke-width:0.00990152"
     d="m 190.96016,0.01555597 20.9385,-6e-6 V 113.42588 H 188.71575 V 61.270118 h 2.23331 z"
     id="concrete_right"
     inkscape:label="concrete_right"
     sodipodi:nodetypes="ccccccc" />
</svg>
