<?xml version="1.0" encoding="UTF-8" standalone="no"?>
<!-- Created with Inkscape (http://www.inkscape.org/) -->

<svg
   width="210mm"
   height="297mm"
   viewBox="0 0 210 297"
   version="1.1"
   id="svg1"
   inkscape:version="1.4 (86a8ad7, 2024-10-11)"
   sodipodi:docname="DSHA-75-123-corner.svg"
   xmlns:inkscape="http://www.inkscape.org/namespaces/inkscape"
   xmlns:sodipodi="http://sodipodi.sourceforge.net/DTD/sodipodi-0.dtd"
   xmlns="http://www.w3.org/2000/svg"
   xmlns:svg="http://www.w3.org/2000/svg">
  <sodipodi:namedview
     id="namedview1"
     pagecolor="#ffffff"
     bordercolor="#000000"
     borderopacity="0.25"
     inkscape:showpageshadow="2"
     inkscape:pageopacity="0.0"
     inkscape:pagecheckerboard="0"
     inkscape:deskcolor="#d1d1d1"
     inkscape:document-units="mm"
     inkscape:zoom="0.37008281"
     inkscape:cx="-58.095106"
     inkscape:cy="587.7063"
     inkscape:window-width="2560"
     inkscape:window-height="1377"
     inkscape:window-x="-8"
     inkscape:window-y="-8"
     inkscape:window-maximized="1"
     inkscape:current-layer="svg1" />
  <defs
     id="defs1" />
  <rect
     style="fill:#b8b8b8;fill-opacity:1;fill-rule:evenodd;stroke:#b81e1e;stroke-width:0.033353"
     id="concrete_left"
     width="78.220573"
     height="29.5737"
     x="-19.105307"
     y="127.68626" />
  <rect
     style="fill:#a39a9a;fill-rule:evenodd;stroke:#b81e1e;stroke-width:0.0551358"
     id="finish_left"
     width="65.784874"
     height="69.263016"
     x="-19.131479"
     y="58.448921" />
  <rect
     style="fill:#a39a9a;fill-rule:evenodd;stroke:#b81e1e;stroke-width:0.0341611"
     id="cover_left"
     width="65.767876"
     height="5.3449874"
     x="-19.101435"
     y="52.981899" />
  <rect
     style="fill:#404242;fill-opacity:0.341246;fill-rule:evenodd;stroke:#b81e1e;stroke-width:0.0220179"
     id="shadow"
     width="203.15422"
     height="0.010473737"
     x="23.578104"
     y="156.83363"
     inkscape:label="shadow" />
  <ellipse
     style="opacity:0;fill:none;fill-opacity:0;fill-rule:evenodd;stroke-width:0.00368993;stroke-opacity:0"
     id="bolt_left"
     cx="0.78814417"
     cy="-125.2474"
     rx="0.094999999"
     ry="0.028942173"
     inkscape:label="bolt_left"
     transform="scale(-1)" />
  <ellipse
     style="opacity:0;fill:none;fill-opacity:0;fill-rule:evenodd;stroke-width:0.000191947;stroke-opacity:0"
     id="screw_right"
     cx="204.14819"
     cy="17.141964"
     rx="0.0049418169"
     ry="0.0015055466"
     inkscape:label="screw_right" />
  <path
     id="profile_left"
     style="display:inline;fill:#5e5e5e;fill-rule:evenodd;stroke:#000000;stroke-width:0.0421211"
     d="m 46.719398,52.719518 v 70.430412 c -0.17263,1.41678 -0.99041,1.86676 -2.011248,2.01124 H -0.67757154 -10.690232 l -0.0131,2.51623 h 69.8384 V 66.112549 l -2.49881,-0.35697 -1.57591,-0.282981 -2.46399,-1.02303 -1.76092,-1.612909 -0.51587,-1.290751 c -0.10813,-0.33406 0.0175,-0.56986 0.20896,-0.7771 h 2.99074 c 0,0 0.53676,0.61527 0.89897,0.77491 0.96073,0.42289 2.14366,0.73522 3.12786,0.37003 0.63729,-0.23646 1.14657,-0.86352 1.38002,-1.50191 0.30469,-0.83336 -0.0211,-2.50569 -0.11102,-2.65986 -0.5904,-1.01041 -1.36936,-1.61071 -2.49446,-1.61294 -0.64814,0.0243 -1.55503,0.17749 -2.6773,1.24291 l -0.34391,0.148 h -2.47487 c -0.65439,-0.20583 -0.54333,-0.55359 -0.51806,-0.88592 l 0.50499,-1.0361 0.91203,-0.9599 0.96644,-0.79882 v -1.12535 h -1.11009 c 0,0 -0.18249,0.50962 -0.4005,0.51804 -0.23386,0.0108 -0.24485,-0.52212 -0.47888,-0.51371 -0.24609,0.007 -0.22856,0.55331 -0.47451,0.56594 -0.26654,0.0117 -0.29931,-0.57435 -0.56593,-0.56594 -0.23642,0.008 -0.22926,0.53217 -0.46581,0.53549 -0.24027,0.003 -0.24736,-0.52268 -0.48758,-0.5311 -0.25337,-0.008 -0.29726,0.56042 -0.54852,0.52672 -0.20765,-0.0279 -0.32214,-0.53978 -0.32214,-0.53978 z m 2.50752,11.597291 c 0.0448,1.1e-4 0.0935,0.003 0.14584,0.013 l 1.37564,1.11444 1.09705,0.870681 1.35824,0.679119 1.35824,0.365661 2.0896,0.29603 c 0.4484,0.23797 0.54818,0.47596 0.48757,0.71395 v 15.21927 h -8.44546 V 64.834798 c 0.0844,-0.29334 0.21997,-0.518889 0.53328,-0.51804 z m -0.59423,20.36271 h 8.51947 v 19.923021 h -8.42152 z m 0.074,20.933001 h 8.44547 v 20.07103 h -8.49553 z"
     inkscape:label="profile_left" />
  <path
     style="fill:#5e5e5e;fill-rule:evenodd;stroke:#000000;stroke-width:0.0441661"
     d="m 198.87467,60.80573 h 3.29292 c 0.0846,-0.0709 0.72166,0.39848 0.52726,0.78512 -0.22127,0.44001 -0.41877,0.93966 -0.67956,1.37107 -0.25974,0.4296 -0.59704,0.81424 -0.96096,1.16012 -0.40281,0.38249 -1.33586,0.99606 -1.33586,0.99606 v 0.71484 h 1.24207 c 0,0 0.13873,-0.47882 0.33969,-0.50389 0.24462,-0.0302 0.30469,0.50467 0.55083,0.49218 0.24289,-0.0129 0.24894,-0.54162 0.49218,-0.53907 0.24937,0.002 0.24332,0.55156 0.49216,0.5625 0.25932,0.0129 0.30298,-0.54335 0.5625,-0.53903 0.23467,0.004 0.25759,0.49835 0.49214,0.50389 0.23467,0.004 0.28135,-0.49689 0.51559,-0.48047 0.21048,0.0129 0.39848,0.49218 0.39848,0.49218 h 1.12499 V 4.2255409 h -0.86049 l -1.43049,4.227839 V 10.04707 c 0,0 0.52004,0.16294 0.53318,0.38075 0.013,0.24852 -0.54258,0.255 -0.55082,0.50389 -0.013,0.25975 0.54603,0.30297 0.53907,0.56254 -0.013,0.25672 -0.56799,0.27055 -0.5625,0.52731 0,0.25759 0.58077,0.24635 0.58592,0.50389 0,0.23468 -0.50865,0.24548 -0.5156,0.48046 -0.013,0.22647 0.47147,0.2658 0.46871,0.49218 0,0.23727 -0.50748,0.26623 -0.5038,0.50389 0,0.26795 0.58716,0.28264 0.58591,0.55077 0,0.2766 -0.6214,0.28611 -0.60938,0.5625 0.013,0.26147 0.61336,0.21869 0.62107,0.48046 0.013,0.24332 -0.4963,0.24289 -0.55075,0.48046 -0.0891,0.38897 0.47639,0.70257 0.46875,1.10152 -0.013,0.37557 -0.55473,0.65122 -0.48051,1.01953 0.0432,0.20615 0.45945,0.21177 0.46871,0.42182 0.013,0.23467 -0.48315,0.28049 -0.48037,0.51559 0,0.2403 0.50517,0.27531 0.50384,0.51561 0,0.23208 -0.47995,0.26061 -0.49218,0.49217 -0.013,0.23598 0.45099,0.31463 0.44528,0.55078 -0.013,0.24073 -0.48724,0.29864 -0.48037,0.53907 0.013,0.25413 0.53763,0.28481 0.53902,0.53902 0,0.25672 -0.55653,0.29432 -0.53902,0.55079 0.0173,0.24158 0.56876,0.20312 0.57413,0.44532 0.013,0.27141 -0.62526,0.25585 -0.62102,0.52731 0,0.26969 0.62606,0.23424 0.6328,0.50389 0.013,0.26579 -0.58653,0.2619 -0.59771,0.52735 -0.013,0.25413 0.53448,0.29649 0.5274,0.55074 -0.013,0.24591 -0.54331,0.25802 -0.53907,0.50393 0,0.24375 0.54386,0.23684 0.55074,0.48046 0.013,0.2403 -0.51289,0.26364 -0.51565,0.50389 0,0.2403 0.51322,0.27531 0.50398,0.515601 -0.013,0.25456 -0.57464,0.24937 -0.57429,0.50389 3.3e-4,0.24375 0.53622,0.23727 0.55081,0.48046 0.0172,0.26234 -0.54303,0.32371 -0.52735,0.58592 0.013,0.2485 0.55562,0.24332 0.5625,0.49217 0.013,0.24592 -0.52294,0.26969 -0.52727,0.5156 0,0.23209 0.48745,0.27185 0.48037,0.50393 -0.013,0.22388 -0.48245,0.23339 -0.49217,0.457 -0.013,0.27919 0.58695,0.34272 0.56249,0.62109 -0.0216,0.24116 -0.55631,0.204 -0.57416,0.44529 -0.0173,0.27141 0.58354,0.31809 0.56491,0.58946 -0.0173,0.23554 -0.54982,0.20313 -0.55518,0.43919 0,0.24851 0.56456,0.2403 0.56339,0.48889 0,0.26839 -0.66275,0.48046 -0.61314,0.52204 0.0492,0.0432 0.60869,0.24721 0.61314,0.51374 0,0.2524 -0.55848,0.25327 -0.56339,0.50545 0,0.25801 0.5563,0.28092 0.55518,0.53859 -0.002,0.24418 -0.53665,0.26147 -0.53038,0.50548 0.013,0.23295 0.51893,0.22301 0.53038,0.45574 0.013,0.25932 -0.54352,0.30384 -0.5386,0.56345 0,0.2498 0.53847,0.27185 0.5386,0.52204 9e-5,0.26968 -0.59041,0.29389 -0.58012,0.56344 0.013,0.25888 0.60048,0.23814 0.59668,0.49719 0,0.24591 -0.57322,0.21004 -0.58009,0.45574 -0.013,0.24635 0.54361,0.24246 0.55514,0.48889 0.013,0.26147 -0.54541,0.30988 -0.53853,0.57174 0.013,0.25586 0.56633,0.27444 0.55513,0.53034 -0.013,0.24721 -0.56145,0.21696 -0.57999,0.46404 -0.0172,0.24765 0.5082,0.29864 0.50544,0.54689 0,0.22647 -0.47774,0.26234 -0.47226,0.48889 0.013,0.25413 0.56022,0.26796 0.55516,0.52204 0,0.24851 -0.55996,0.24029 -0.56348,0.48885 0,0.22862 0.49073,0.23597 0.50538,0.46404 0.0173,0.25239 -0.49663,0.32716 -0.48884,0.58004 0.013,0.25196 0.52199,0.29475 0.52199,0.54689 0,0.24807 -0.51213,0.29043 -0.51373,0.53859 0,0.2148 0.43931,0.25715 0.43918,0.47234 -8e-5,0.22257 -0.45786,0.26622 -0.45566,0.48889 0,0.25802 0.55242,0.29777 0.5386,0.55515 -0.013,0.232939 -0.52982,0.214359 -0.5386,0.447479 -0.013,0.23036 0.49603,0.25023 0.49706,0.48059 0.002,0.25197 -0.53768,0.27833 -0.53858,0.5303 -7.8e-4,0.23813 0.49446,0.26752 0.50556,0.50548 0.013,0.25067 -0.49342,0.32933 -0.48062,0.58004 0.013,0.22431 0.48062,0.24765 0.48062,0.4723 0,0.21696 -0.44061,0.2403 -0.46404,0.45574 -0.0172,0.15083 0.24851,0.38119 0.24851,0.38119 v 1.62407 c -0.0696,0.29692 -0.22948,0.52973 -0.59654,0.61319 h -3.53824 v 0.74578 l 1.26782,1.00264 1.05233,1.17663 c -0.013,0 0.46737,0.81372 0.62153,1.28437 0.13096,0.39978 -0.52134,0.90051 -0.55518,0.87004 h -3.26479 c -0.7314,-0.78321 -1.57645,-1.20784 -2.5108,-1.35067 -0.0172,-0.0346 -1.54485,0.24073 -2.07976,0.82033 -0.47286,0.51249 -1.00492,1.28131 -1.03579,2.07986 -0.0303,0.79086 0.34359,1.63635 0.90315,2.19586 0.5764,0.57619 1.45167,0.72539 2.23734,0.68774 0.51127,-0.0259 0.96582,-0.12966 1.34234,-0.35613 0.40539,-0.24375 1.1475,-0.83502 1.1475,-0.83502 z"
     id="profile_right"
     sodipodi:nodetypes="ccssscccsssssssccccccsssssssssssssssssssssssssssssssssssssssssssssssssssssssssssssssssssssssssssscccccccscccsssssc"
     inkscape:label="profile_right" />
  <rect
     style="fill:#e1ecec;fill-opacity:0.77;fill-rule:evenodd;stroke:#b81e1e;stroke-width:0.0081378"
     id="finish_right"
     width="57.514656"
     height="2.036227"
     x="-57.518726"
     y="206.16789"
     inkscape:label="finish_right"
     transform="rotate(-90)" />
  <rect
     style="fill:#e1ecec;fill-opacity:0.77;fill-rule:evenodd;stroke:#b81e1e;stroke-width:0.00933925"
     id="cover_right"
     width="57.494617"
     height="0.12774748"
     x="-57.505093"
     y="205.99216"
     inkscape:label="cover_right"
     transform="rotate(-90)" />
  <path
     style="fill:#e1ecec;fill-opacity:0.77;fill-rule:evenodd;stroke:#b81e1e;stroke-width:0.0116676"
     d="m 208.21632,0.01601686 h 20.93689 V 157.50332 H 205.97208 V 57.558422 h 2.23314 z"
     id="concrete_right"
     inkscape:label="concrete_right"
     sodipodi:nodetypes="ccccccc" />
  <path
     style="fill:#5e5e5e;fill-rule:evenodd;stroke:#000000;stroke-width:0.0295876"
     d="m 54.110492,56.970122 -2.968423,-0.299233 c -0.295557,-0.13576 -0.406227,-0.367172 -0.239382,-0.742106 0,0 0.659549,-0.868977 1.029373,-1.268761 0.295134,-0.319043 0.592107,-0.644842 0.945592,-0.897714 0.307706,-0.220128 1.005433,-0.526656 1.005433,-0.526656 v -0.562559 l 3.028268,0.03593 c 0,0 0.237617,0.470574 0.454839,0.466813 0.237211,-0.0038 0.241554,-0.52947 0.478779,-0.526659 0.237559,0.0032 0.229364,0.53016 0.466814,0.538622 0.231188,0.0084 0.259475,-0.49638 0.490742,-0.490742 0.231536,0.0055 0.235243,0.518552 0.466813,0.514684 0.240599,-0.0038 0.227135,-0.529131 0.466804,-0.550597 0.262548,-0.02345 0.347999,0.527344 0.610447,0.502718 0.217179,-0.02027 0.200843,-0.497901 0.418923,-0.502718 0.242837,-0.0055 0.248127,0.527475 0.49076,0.538631 0.248263,0.01129 0.303066,-0.525026 0.550593,-0.502718 0.209815,0.01882 0.173247,0.483174 0.383023,0.502718 0.272845,0.02548 0.336737,-0.563872 0.610434,-0.550598 0.248244,0.01216 0.254232,0.555406 0.502717,0.550598 0.23495,-0.0047 0.454842,-0.538631 0.454842,-0.538631 0,0 0.254202,0.554288 0.502717,0.550597 0.263087,-0.0038 0.251596,-0.601853 0.514693,-0.598474 0.252351,0.0032 0.226442,0.582379 0.478774,0.586508 0.248825,0.0038 0.241955,-0.568178 0.490741,-0.56257 0.249813,0.0055 0.216976,0.581965 0.466818,0.586507 0.257448,0.0047 0.245259,-0.582341 0.502717,-0.586507 0.254115,-0.0038 0.260539,0.566168 0.514683,0.56257 0.236974,-0.0032 0.227886,-0.535369 0.46487,-0.537971 0.235676,-0.0023 0.238253,0.523705 0.473959,0.524747 0.237614,7.68e-4 0.244852,-0.527666 0.482437,-0.524747 0.2399,0.0032 0.23428,0.530859 0.473968,0.541677 0.253156,0.01129 0.296758,-0.52985 0.550137,-0.524748 0.239378,0.0047 0.260055,0.523476 0.499355,0.516284 0.234,-0.007 0.457041,-0.533213 0.457041,-0.533213 h 7.304903 c 0,0 0.169953,0.515089 0.389012,0.531985 0.244648,0.01882 0.275345,-0.522066 0.520662,-0.52067 0.248408,0.0016 0.272447,0.538605 0.520652,0.532637 0.23742,-0.0055 0.235395,-0.532125 0.472805,-0.532637 0.230173,-4.98e-4 0.230754,0.504538 0.46084,0.51468 0.256527,0.01129 0.306118,-0.541737 0.562559,-0.526655 0.250152,0.01477 0.234222,0.576356 0.484752,0.574535 0.242343,-0.0016 0.218594,-0.554135 0.46082,-0.56256 0.238283,-0.0084 0.252177,0.519339 0.490751,0.52067 0.229881,0.0016 0.248989,-0.491332 0.478793,-0.496732 0.246965,-0.0061 0.291759,0.515877 0.538607,0.508699 0.238283,-0.007 0.252187,-0.520052 0.49075,-0.520675 0.231336,-5.95e-4 0.247265,0.503984 0.478794,0.502718 0.240027,-0.0016 0.250734,-0.527522 0.490722,-0.526655 0.2655,7.67e-4 0.273901,0.605445 0.538645,0.586507 0.22902,-0.0165 0.160399,-0.545385 0.389011,-0.568551 0.251306,-0.02548 0.292195,0.534065 0.544605,0.526656 0.235676,-0.007 0.478794,-0.520675 0.478794,-0.520675 0,0 0.305537,0.557715 0.562549,0.53265 0.236257,-0.02316 0.176037,-0.565496 0.412954,-0.580526 0.243786,-0.01535 0.252477,0.530785 0.496719,0.538631 0.236839,0.0076 0.27766,-0.495656 0.514693,-0.490755 0.24118,0.0055 0.261741,0.528243 0.502707,0.520675 0.246102,-0.0078 0.232498,-0.569179 0.478794,-0.56256 0.25334,0.007 0.207887,0.591571 0.46082,0.604455 0.262312,0.01331 0.276207,-0.570306 0.538636,-0.574532 0.242623,-0.0038 0.272447,0.531007 0.514664,0.51468 0.220047,-0.01477 0.401007,-0.526655 0.401007,-0.526655 h 3.02227 c 0,0 12.276837,4.15669 12.357677,4.15633 0.14968,-6.74e-4 0.33779,0.419409 0.28344,0.452803 -0.0947,0.18084 -0.23277,0.309872 -0.44011,0.355475 l -10.567281,-0.03914 -2.884632,-1.44232 H 63.436649 c -0.170127,0.0557 -0.404553,0.05846 -0.457031,0.258492 l -0.06773,0.258144 v 4.127511 c 0.08895,0.271636 0.228467,0.467349 0.474918,0.502717 h 38.821964 l -0.0261,1.899501 -14.046723,2.460375 H 56.360751 c -1.529402,0.04305 -2.583043,-0.503844 -3.554925,-1.152116 -0.803121,-0.599209 -1.474101,-1.295329 -1.939052,-2.142536 -0.06848,-0.440085 0.09841,-0.628026 0.344093,-0.731558 l 2.983415,-0.267873 c 0,0 0.490424,0.365594 0.77801,0.448848 0.951221,0.275371 2.069779,0.535733 2.968426,0.119692 0.693845,-0.321227 1.180974,-1.078647 1.412394,-1.807384 0.224877,-0.708124 0.175773,-1.539553 -0.107734,-2.226318 -0.25435,-0.616239 -0.742374,-1.189938 -1.340579,-1.484214 -0.717837,-0.35313 -1.51352,-0.177829 -2.26223,-0.08379 -0.251775,0.03165 -0.495433,0.118966 -0.730134,0.215437 -0.28067,0.115378 -0.801957,0.430903 -0.801957,0.430903 z"
     id="compensator_left"
     sodipodi:nodetypes="cccsscccssssssssssssscsssssssssssssccssssssssssssssssscsssssssssccscccccscccccccccccsssssaac"
     inkscape:label="compensator_left">
    <title
       id="title7">metal</title>
  </path>
  <path
     style="fill:#5e5e5e;fill-rule:evenodd;stroke:#000000;stroke-width:0.0295876"
     d="m 198.56784,57.000382 2.96842,-0.299234 c 0.29555,-0.13576 0.40624,-0.367172 0.23944,-0.742106 0,0 -0.65954,-0.868977 -1.02936,-1.268762 -0.29515,-0.319043 -0.59211,-0.644842 -0.9456,-0.897713 -0.30768,-0.220128 -1.00541,-0.526655 -1.00541,-0.526655 v -0.562561 l -3.02827,0.03593 c 0,0 -0.23771,0.470574 -0.45485,0.466814 -0.23713,-0.0038 -0.24147,-0.529471 -0.47877,-0.526656 -0.2377,0.0032 -0.22931,0.530156 -0.46681,0.538619 -0.23133,0.0084 -0.25942,-0.49638 -0.49075,-0.490742 -0.23162,0.0055 -0.23538,0.518551 -0.4668,0.514683 -0.2406,-0.0038 -0.22729,-0.529131 -0.46681,-0.550597 -0.26261,-0.02345 -0.34802,0.527345 -0.61045,0.502718 -0.21715,-0.02027 -0.20093,-0.497897 -0.41895,-0.502718 -0.24291,-0.0055 -0.24813,0.527475 -0.49075,0.538631 -0.24813,0.01129 -0.30305,-0.525026 -0.55056,-0.502717 -0.20991,0.01882 -0.17314,0.483174 -0.38305,0.502717 -0.27273,0.02548 -0.33672,-0.563872 -0.61045,-0.550594 -0.24812,0.01216 -0.2542,0.555403 -0.50271,0.550594 -0.2348,-0.0047 -0.45482,-0.538631 -0.45482,-0.538631 0,0 -0.2542,0.554289 -0.50273,0.550597 -0.26318,-0.0038 -0.2516,-0.601852 -0.5147,-0.598474 -0.25217,0.0032 -0.22641,0.582379 -0.47876,0.586508 -0.24871,0.0038 -0.24204,-0.568177 -0.49075,-0.562569 -0.24986,0.0055 -0.21686,0.581965 -0.46681,0.586507 -0.25739,0.0047 -0.24523,-0.58234 -0.50271,-0.586507 -0.25421,-0.0038 -0.26058,0.566168 -0.51469,0.562569 -0.23713,-0.0032 -0.22787,-0.535368 -0.46487,-0.53797 -0.23568,-0.0023 -0.23828,0.523705 -0.47396,0.524747 -0.2377,7.68e-4 -0.24494,-0.527666 -0.48245,-0.524747 -0.24001,0.0032 -0.23422,0.53086 -0.47395,0.541676 -0.25305,0.01129 -0.29677,-0.529849 -0.55013,-0.524748 -0.23945,0.0047 -0.26,0.523477 -0.49936,0.516285 -0.23394,-0.007 -0.45705,-0.533213 -0.45705,-0.533213 h -7.30489 c 0,0 -0.16995,0.515088 -0.38901,0.531985 -0.24466,0.01882 -0.27535,-0.522066 -0.52069,-0.520671 -0.24842,0.0016 -0.27245,0.538605 -0.52067,0.532638 -0.23741,-0.0055 -0.23538,-0.532125 -0.47279,-0.532638 -0.23018,-4.98e-4 -0.23076,0.504539 -0.46082,0.514681 -0.25652,0.01129 -0.30615,-0.541738 -0.56258,-0.526656 -0.25015,0.01477 -0.23423,0.576359 -0.48476,0.574536 -0.24233,-0.0016 -0.2186,-0.554136 -0.46081,-0.562561 -0.23828,-0.0084 -0.25218,0.519339 -0.49075,0.520671 -0.22989,0.0016 -0.249,-0.491333 -0.47877,-0.496732 -0.24697,-0.0061 -0.29179,0.515876 -0.53864,0.508699 -0.23829,-0.007 -0.25218,-0.520052 -0.49075,-0.520672 -0.23134,-5.99e-4 -0.24726,0.50398 -0.47877,0.502715 -0.24001,-0.0015 -0.25073,-0.527521 -0.49075,-0.526656 -0.2655,7.67e-4 -0.27389,0.605445 -0.53863,0.586507 -0.22902,-0.0165 -0.1604,-0.545385 -0.38899,-0.56855 -0.25131,-0.02548 -0.29219,0.534064 -0.54463,0.526656 -0.23568,-0.007 -0.47876,-0.520672 -0.47876,-0.520672 0,0 -0.30555,0.557711 -0.56256,0.532646 -0.23626,-0.02316 -0.17603,-0.565496 -0.41296,-0.580525 -0.24378,-0.01535 -0.25247,0.530784 -0.49674,0.538631 -0.23683,0.0076 -0.27766,-0.495656 -0.51467,-0.490752 -0.24118,0.0055 -0.26173,0.52824 -0.50274,0.520672 -0.2461,-0.0078 -0.23248,-0.56918 -0.47876,-0.562561 -0.25334,0.007 -0.20788,0.591571 -0.46081,0.604455 -0.26231,0.01332 -0.27622,-0.570305 -0.53865,-0.574532 -0.24262,-0.0038 -0.27273,0.531007 -0.51469,0.514681 C 161.24853,53.20329 161.0676,52.6914 161.0676,52.6914 h -3.02228 c 0,0 -12.27682,4.15669 -12.35769,4.156331 -0.14969,-6.74e-4 -0.33779,0.419409 -0.28345,0.452803 0.0947,0.18084 0.23278,0.309871 0.44011,0.355475 l 10.56729,-0.03914 2.88463,-1.442317 h 29.94561 c 0.17025,0.05568 0.40457,0.05846 0.45705,0.258491 l 0.0677,0.258143 v 4.127512 c -0.0889,0.271636 -0.22843,0.467348 -0.47493,0.502718 h -38.82193 l 0.0261,1.8995 14.04674,2.460375 h 31.77594 c 1.5294,0.04305 2.58303,-0.503844 3.55492,-1.152116 0.80313,-0.59921 1.47411,-1.295329 1.93906,-2.142537 0.0686,-0.440083 -0.0984,-0.628025 -0.3441,-0.731558 l -2.98343,-0.267872 c 0,0 -0.4904,0.365594 -0.77799,0.448848 -0.95124,0.275371 -2.06978,0.535732 -2.96842,0.119691 -0.69386,-0.321226 -1.18098,-1.078645 -1.41241,-1.807384 -0.22496,-0.708123 -0.17574,-1.539552 0.10771,-2.226317 0.2545,-0.616239 0.74235,-1.189937 1.34057,-1.484212 0.71784,-0.353132 1.51351,-0.177828 2.26224,-0.08378 0.25189,0.03165 0.49541,0.118968 0.73013,0.215439 0.28055,0.115377 0.80194,0.430902 0.80194,0.430902 z"
     id="compensator_right"
     sodipodi:nodetypes="cccsscccssssssssssssscsssssssssssssccssssssssssssssssscsssssssssccscccccscccccccccccsssssaac"
     inkscape:label="compensator_right">
    <title
       id="title8">metal</title>
  </path>
  <path
     style="fill:#5e5e5e;fill-rule:evenodd;stroke:#000000;stroke-width:0.0295876"
     d="m 93.30292,56.394262 h -2.471387 c -0.173431,0.03118 -0.317096,0.121949 -0.389331,0.355477 l -0.03391,4.011784 c 0.04166,0.25606 0.119286,0.474373 0.406268,0.473958 h 71.19649 c 0.27911,-0.04267 0.45439,-0.194331 0.50781,-0.473958 v -4.045645 c -0.0976,-0.192247 -0.23191,-0.359229 -0.54168,-0.406254 h -2.40367 l -3.03,1.489611 H 96.332855 Z"
     id="compensator_middle"
     sodipodi:nodetypes="ccccccccccccc"
     inkscape:label="compensator_middle">
    <title
       id="title9">metal</title>
  </path>
</svg>
