<?xml version="1.0" encoding="UTF-8" standalone="no"?>
<!-- Created with Inkscape (http://www.inkscape.org/) -->

<svg
   width="210mm"
   height="297mm"
   viewBox="0 0 210 297"
   version="1.1"
   id="svg1"
   inkscape:version="1.4 (86a8ad7, 2024-10-11)"
   sodipodi:docname="DSHA-75-093-corner.svg"
   xmlns:inkscape="http://www.inkscape.org/namespaces/inkscape"
   xmlns:sodipodi="http://sodipodi.sourceforge.net/DTD/sodipodi-0.dtd"
   xmlns="http://www.w3.org/2000/svg"
   xmlns:svg="http://www.w3.org/2000/svg">
  <sodipodi:namedview
     id="namedview1"
     pagecolor="#ffffff"
     bordercolor="#000000"
     borderopacity="0.25"
     inkscape:showpageshadow="2"
     inkscape:pageopacity="0.0"
     inkscape:pagecheckerboard="0"
     inkscape:deskcolor="#d1d1d1"
     inkscape:document-units="mm"
     inkscape:zoom="0.74016561"
     inkscape:cx="112.81259"
     inkscape:cy="57.419582"
     inkscape:window-width="2560"
     inkscape:window-height="1377"
     inkscape:window-x="-8"
     inkscape:window-y="-8"
     inkscape:window-maximized="1"
     inkscape:current-layer="svg1" />
  <defs
     id="defs1" />
  <rect
     style="fill:#b8b8b8;fill-opacity:1;fill-rule:evenodd;stroke:#b81e1e;stroke-width:0.033353"
     id="concrete_left"
     width="78.220573"
     height="29.5737"
     x="4.9446416"
     y="75.087799" />
  <rect
     style="fill:#a39a9a;fill-rule:evenodd;stroke:#b81e1e;stroke-width:0.0551358"
     id="finish_left"
     width="65.784874"
     height="69.263016"
     x="4.9184709"
     y="5.8504615" />
  <rect
     style="fill:#a39a9a;fill-rule:evenodd;stroke:#b81e1e;stroke-width:0.0341611"
     id="cover_left"
     width="65.767876"
     height="5.3449874"
     x="4.9485154"
     y="0.38344243" />
  <rect
     style="fill:#404242;fill-opacity:0.341246;fill-rule:evenodd;stroke:#b81e1e;stroke-width:0.0205828"
     id="shadow"
     width="156.14119"
     height="0.011908808"
     x="47.627312"
     y="104.23445"
     inkscape:label="shadow" />
  <ellipse
     style="opacity:0;fill:none;fill-opacity:0;fill-rule:evenodd;stroke-width:0.00368993;stroke-opacity:0"
     id="bolt_left"
     cx="-23.261808"
     cy="-72.648941"
     rx="0.094999999"
     ry="0.028942173"
     inkscape:label="bolt_left"
     transform="scale(-1)" />
  <ellipse
     style="opacity:0;fill:none;fill-opacity:0;fill-rule:evenodd;stroke-width:0.000191947;stroke-opacity:0"
     id="screw_right"
     cx="180.09824"
     cy="-35.456493"
     rx="0.0049418169"
     ry="0.0015055466"
     inkscape:label="screw_right" />
  <path
     id="profile_left"
     style="display:inline;fill:#5e5e5e;fill-rule:evenodd;stroke:#000000;stroke-width:0.0421211"
     d="M 70.769346,0.12106055 V 70.55147 c -0.17263,1.41678 -0.99041,1.86676 -2.011248,2.01124 H 23.372376 13.359716 l -0.0131,2.516229 h 69.8384 V 13.514091 l -2.49881,-0.35697 -1.57591,-0.282981 -2.46399,-1.02303 -1.76092,-1.612909 -0.51587,-1.2907505 c -0.10813,-0.33406 0.0175,-0.56986 0.20896,-0.7771 h 2.99074 c 0,0 0.53676,0.61527 0.89897,0.77491 0.96073,0.42289 2.14366,0.73522 3.12786,0.37003 0.63729,-0.23646 1.14657,-0.86352 1.38002,-1.50191 0.30469,-0.83336 -0.0211,-2.50569 -0.11102,-2.65986 -0.5904,-1.01041 -1.36936,-1.61071 -2.49446,-1.6129399 -0.64814,0.0243 -1.55503,0.1774899 -2.6773,1.2429099 l -0.34391,0.148 h -2.47487 c -0.65439,-0.20583 -0.54333,-0.55359 -0.51806,-0.8859199 l 0.50499,-1.0361001 0.91203,-0.9598999 0.96644,-0.79882 V 0.12540055 h -1.11009 c 0,0 -0.18249,0.50961999 -0.4005,0.51803999 -0.23386,0.0108 -0.24485,-0.52211999 -0.47888,-0.51370999 -0.24609,0.007 -0.22856,0.55330999 -0.47451,0.56593999 -0.26654,0.0117 -0.29931,-0.57434999 -0.56593,-0.56593999 -0.23642,0.008 -0.22926,0.53216999 -0.46581,0.53548999 -0.24027,0.003 -0.24736,-0.52267999 -0.48758,-0.53109999 -0.25337,-0.008 -0.29726,0.56041999 -0.54852,0.52671999 -0.20765,-0.0279 -0.32214,-0.53977999 -0.32214,-0.53977999 z m 2.50752,11.59729045 c 0.0448,1.1e-4 0.0935,0.003 0.14584,0.013 l 1.37564,1.11444 1.09705,0.870681 1.35824,0.679119 1.35824,0.365661 2.0896,0.29603 c 0.4484,0.23797 0.54818,0.47596 0.48757,0.71395 v 15.21927 h -8.44546 V 12.23634 c 0.0844,-0.29334 0.21997,-0.518889 0.53328,-0.51804 z m -0.59423,20.36271 h 8.51947 V 52.00408 h -8.42152 z m 0.074,20.932999 h 8.44547 v 20.07103 h -8.49553 z"
     inkscape:label="profile_left" />
  <path
     style="fill:#5e5e5e;fill-rule:evenodd;stroke:#000000;stroke-width:0.0441661"
     d="m 174.82472,8.2072717 h 3.29292 c 0.0846,-0.0709 0.72166,0.39848 0.52726,0.78512 -0.22127,0.44001 -0.41877,0.93966 -0.67956,1.3710703 -0.25974,0.4296 -0.59704,0.81424 -0.96096,1.16012 -0.40281,0.38249 -1.33586,0.99606 -1.33586,0.99606 v 0.71484 h 1.24207 c 0,0 0.13873,-0.47882 0.33969,-0.50389 0.24462,-0.0302 0.30469,0.50467 0.55083,0.49218 0.24289,-0.0129 0.24894,-0.54162 0.49218,-0.53907 0.24937,0.002 0.24332,0.55156 0.49216,0.5625 0.25932,0.0129 0.30298,-0.54335 0.5625,-0.53903 0.23467,0.004 0.25759,0.49835 0.49214,0.50389 0.23467,0.004 0.28135,-0.49689 0.51559,-0.48047 0.21048,0.0129 0.39848,0.49218 0.39848,0.49218 h 1.12499 v -61.595689 h -0.86049 l -1.43049,4.227839 v 1.59369 c 0,0 0.52004,0.16294 0.53318,0.38075 0.013,0.24852 -0.54258,0.255 -0.55082,0.50389 -0.013,0.25975 0.54603,0.30297 0.53907,0.56254 -0.013,0.25672 -0.56799,0.27055 -0.5625,0.52731 0,0.25759 0.58077,0.24635 0.58592,0.50389 0,0.23468 -0.50865,0.24548 -0.5156,0.48046 -0.013,0.22647 0.47147,0.2658 0.46871,0.49218 0,0.23727 -0.50748,0.26623 -0.5038,0.50389 0,0.26795 0.58716,0.28264 0.58591,0.55077 0,0.2766 -0.6214,0.28611 -0.60938,0.5625 0.013,0.26147 0.61336,0.21869 0.62107,0.48046 0.013,0.24332 -0.4963,0.24289 -0.55075,0.48046 -0.0891,0.38897 0.47639,0.70257 0.46875,1.10152 -0.013,0.37557 -0.55473,0.65122 -0.48051,1.01953 0.0432,0.20615 0.45945,0.21177 0.46871,0.42182 0.013,0.23467 -0.48315,0.28049 -0.48037,0.51559 0,0.2403 0.50517,0.27531 0.50384,0.51561 0,0.23208 -0.47995,0.26061 -0.49218,0.49217 -0.013,0.23598 0.45099,0.31463 0.44528,0.55078 -0.013,0.24073 -0.48724,0.29864 -0.48037,0.53907 0.013,0.25413 0.53763,0.28481 0.53902,0.53902 0,0.25672 -0.55653,0.29432 -0.53902,0.55079 0.0173,0.24158 0.56876,0.20312 0.57413,0.44532 0.013,0.27141 -0.62526,0.25585 -0.62102,0.52731 0,0.26969 0.62606,0.23424 0.6328,0.50389 0.013,0.26579 -0.58653,0.2619 -0.59771,0.52735 -0.013,0.25413 0.53448,0.29649 0.5274,0.55074 -0.013,0.24591 -0.54331,0.25802 -0.53907,0.50393 0,0.24375 0.54386,0.23684 0.55074,0.48046 0.013,0.2403 -0.51289,0.26364 -0.51565,0.50389 0,0.2403 0.51322,0.27531 0.50398,0.515601 -0.013,0.25456 -0.57464,0.24937 -0.57429,0.50389 3.3e-4,0.24375 0.53622,0.23727 0.55081,0.48046 0.0172,0.26234 -0.54303,0.32371 -0.52735,0.58592 0.013,0.2485 0.55562,0.24332 0.5625,0.49217 0.013,0.24592 -0.52294,0.26969 -0.52727,0.5156 0,0.23209 0.48745,0.27185 0.48037,0.50393 -0.013,0.22388 -0.48245,0.23339 -0.49217,0.457 -0.013,0.27919 0.58695,0.34272 0.56249,0.62109 -0.0216,0.24116 -0.55631,0.204 -0.57416,0.44529 -0.0173,0.27141 0.58354,0.31809 0.56491,0.58946 -0.0173,0.23554 -0.54982,0.20313 -0.55518,0.43919 0,0.24851 0.56456,0.2403 0.56339,0.48889 0,0.26839 -0.66275,0.48046 -0.61314,0.52204 0.0492,0.0432 0.60869,0.24721 0.61314,0.51374 0,0.2524 -0.55848,0.25327 -0.56339,0.50545 0,0.25801 0.5563,0.28092 0.55518,0.53859 -0.002,0.24418 -0.53665,0.26147 -0.53038,0.50548 0.013,0.23295 0.51893,0.22301 0.53038,0.45574 0.013,0.25932 -0.54352,0.30384 -0.5386,0.56345 0,0.2498 0.53847,0.27185 0.5386,0.52204 9e-5,0.26968 -0.59041,0.29389 -0.58012,0.56344 0.013,0.25888 0.60048,0.23814 0.59668,0.49719 0,0.24591 -0.57322,0.21004 -0.58009,0.45574 -0.013,0.24635 0.54361,0.24246 0.55514,0.48889 0.013,0.26147 -0.54541,0.30988 -0.53853,0.57174 0.013,0.25586 0.56633,0.27444 0.55513,0.53034 -0.013,0.24721 -0.56145,0.21696 -0.57999,0.46404 -0.0172,0.24765 0.5082,0.29864 0.50544,0.54689 0,0.22647 -0.47774,0.26234 -0.47226,0.48889 0.013,0.25413 0.56022,0.26796 0.55516,0.52204 0,0.24851 -0.55996,0.24029 -0.56348,0.48885 0,0.2286199 0.49073,0.2359699 0.50538,0.4640399 0.0173,0.25239 -0.49663,0.32716 -0.48884,0.58004 0.013,0.25196 0.52199,0.29475 0.52199,0.54689 0,0.24807 -0.51213,0.29043 -0.51373,0.53859 0,0.2148 0.43931,0.25715 0.43918,0.47234 -8e-5,0.22257 -0.45786,0.26622 -0.45566,0.48889 0,0.25802 0.55242,0.29777 0.5386,0.55515 -0.013,0.232939 -0.52982,0.214359 -0.5386,0.447479 -0.013,0.23036 0.49603,0.25023 0.49706,0.48059 0.002,0.25197 -0.53768,0.27833 -0.53858,0.5303 -7.8e-4,0.23813 0.49446,0.26752 0.50556,0.50548 0.013,0.25067 -0.49342,0.32933 -0.48062,0.58004 0.013,0.22431 0.48062,0.24765 0.48062,0.4723 0,0.21696 -0.44061,0.2403 -0.46404,0.45574 -0.0172,0.15083 0.24851,0.38119 0.24851,0.38119 v 1.62407018 c -0.0696,0.29692 -0.22948,0.5297298 -0.59654,0.6131898 h -3.53824 v 0.74578 l 1.26782,1.00263982 1.05233,1.17663 c -0.013,0 0.46737,0.81372 0.62153,1.28437 0.13096,0.39978 -0.52134,0.90051 -0.55518,0.87004 h -3.26479 c -0.7314,-0.78321 -1.57645,-1.20784 -2.5108,-1.35067 -0.0172,-0.0346 -1.54485,0.24073 -2.07976,0.82033 -0.47286,0.51249 -1.00492,1.28131 -1.03579,2.07986 -0.0303,0.79086 0.34359,1.63635 0.90315,2.19586 0.5764,0.57619 1.45167,0.72539 2.23734,0.68774 0.51127,-0.0259 0.96582,-0.12966 1.34234,-0.35613 0.40539,-0.24375 1.1475,-0.83502 1.1475,-0.83502 z"
     id="profile_right"
     sodipodi:nodetypes="ccssscccsssssssccccccsssssssssssssssssssssssssssssssssssssssssssssssssssssssssssssssssssssssssssscccccccscccsssssc"
     inkscape:label="profile_right" />
  <rect
     style="fill:#e1ecec;fill-opacity:0.77;fill-rule:evenodd;stroke:#b81e1e;stroke-width:0.0081378"
     id="finish_right"
     width="57.514656"
     height="2.036227"
     x="-4.9202671"
     y="182.11794"
     inkscape:label="finish_right"
     transform="rotate(-90)" />
  <rect
     style="fill:#e1ecec;fill-opacity:0.77;fill-rule:evenodd;stroke:#b81e1e;stroke-width:0.00933925"
     id="cover_right"
     width="57.494617"
     height="0.12774748"
     x="-4.9066343"
     y="181.9422"
     inkscape:label="cover_right"
     transform="rotate(-90)" />
  <path
     style="fill:#e1ecec;fill-opacity:0.77;fill-rule:evenodd;stroke:#b81e1e;stroke-width:0.0116676"
     d="m 184.16637,-52.582441 h 20.93689 V 104.90486 H 181.92213 V 4.9599641 h 2.23314 z"
     id="concrete_right"
     inkscape:label="concrete_right"
     sodipodi:nodetypes="ccccccc" />
  <path
     style="fill:#5e5e5e;fill-rule:evenodd;stroke:#000000;stroke-width:0.0301566"
     d="m 74.73624,3.8469635 c 0.0071,-0.3527956 0.266,-0.6551919 0.494085,-0.9637727 0.536936,-0.7277017 1.175026,-1.4014515 2.055645,-1.94585095 0.86434,-0.4567501 1.782536,-0.71155598 2.738827,-0.82348002 l 0.884483,0.006196 62.3575,4.45157887 -0.23726,3.2694358 -56.151572,-4.076357 c -0.06543,0 -0.423566,0.1093348 -0.40564,0.2470561 0.018,0.1381328 -0.0032,0.4178433 -0.0032,0.4178433 0,0 0.324328,1.1747841 0.387337,1.7780999 0.03396,0.325594 0.0071,0.6549825 -0.0062,0.9820709 -0.02951,0.7265495 -0.414822,1.5064077 -0.451384,2.0861511 -0.01121,0.1751408 0.384283,0.3598859 0.384283,0.3598859 l 29.426386,-0.017704 29.59314,2.1178023 c -0.003,-0.02921 0.2334,0.04075 0.30193,0.448575 0.0505,0.299686 -0.10356,0.905781 -0.10356,0.905781 0,0 -1.08313,0.200372 -1.55278,-0.01711 -0.21837,-0.10125 -0.23224,-0.546967 -0.47307,-0.54589 -0.25083,7.82e-4 -0.23726,0.565411 -0.48797,0.573381 -0.25732,0.0083 -0.27945,-0.564719 -0.53679,-0.555079 -0.25113,0.0094 -0.23077,0.574272 -0.48189,0.57948 -0.25762,0.0056 -0.26087,-0.56994 -0.51849,-0.57338 -0.24434,-0.0032 -0.26174,0.529884 -0.50626,0.530686 -0.25468,7.82e-4 -0.27622,-0.55682 -0.53071,-0.548989 -0.25674,0.008 -0.24346,0.588895 -0.50019,0.585584 -0.24877,-0.0032 -0.22103,-0.57499 -0.46968,-0.579486 -0.25349,-0.0047 -0.2467,0.56541 -0.50019,0.573389 -0.2774,0.0089 -0.30888,-0.612498 -0.58559,-0.591683 -0.2408,0.018 -0.18592,0.568978 -0.42698,0.585587 -0.24257,0.01682 -0.26323,-0.521703 -0.5063,-0.524594 -0.23726,-0.0032 -0.26912,0.505875 -0.50626,0.500192 -0.24021,-0.0056 -0.2479,-0.538324 -0.48802,-0.530686 -0.24552,0.0077 -0.21806,0.559803 -0.46355,0.57338 -0.28272,0.01564 -0.32099,-0.611492 -0.60391,-0.597782 -0.23519,0.01151 -0.216,0.538659 -0.4514,0.542886 -0.23165,0.0038 -0.23194,-0.512013 -0.46357,-0.518484 -0.25879,-0.0071 -0.29009,0.549722 -0.549,0.548979 -0.25172,-7.17e-4 -0.27916,-0.543547 -0.53067,-0.536786 -0.24198,0.0062 -0.23991,0.540591 -0.48191,0.542895 -0.24906,0.0024 -0.25732,-0.556431 -0.50626,-0.548992 -0.24405,0.0071 -0.21956,0.558273 -0.4636,0.567284 -0.27178,0.01003 -0.28949,-0.603295 -0.56118,-0.591683 -0.25734,0.01092 -0.22428,0.599896 -0.48191,0.603886 -0.26676,0.0038 -0.25171,-0.613263 -0.51845,-0.609985 -0.24581,0.0032 -0.21778,0.56904 -0.4636,0.573381 -0.26647,0.0047 -0.25791,-0.608961 -0.52459,-0.603877 -0.26619,0.0047 -0.23401,0.618212 -0.5002,0.622179 -0.25673,0.0038 -0.24346,-0.585702 -0.50019,-0.585584 -0.25378,1.15e-4 -0.24021,0.576162 -0.49408,0.579487 -0.24316,0.0032 -0.24463,-0.539963 -0.48797,-0.542886 -0.24582,-0.0032 -0.26027,0.539873 -0.5063,0.53679 -0.265,-0.0032 -0.26589,-0.596246 -0.53068,-0.591692 -0.25968,0.0047 -0.2405,0.5934 -0.50018,0.597788 -0.26205,0.0047 -0.26264,-0.593557 -0.52459,-0.585586 -0.24878,0.0077 -0.21513,0.568574 -0.4636,0.585586 -0.27268,0.01859 -0.3191,-0.586335 -0.59168,-0.567284 -0.24256,0.01682 -0.20804,0.567986 -0.45138,0.573381 -0.25231,0.0056 -0.24198,-0.568281 -0.49408,-0.573381 -0.25616,-0.0056 -0.26855,0.566003 -0.5246,0.561188 -0.24198,-0.0047 -0.23372,-0.545367 -0.47579,-0.548992 -0.24316,-0.0038 -0.25113,0.529276 -0.49408,0.536787 -0.28181,0.0086 -0.32921,-0.610219 -0.60999,-0.585584 -0.2231,0.01947 -0.17353,0.521771 -0.39651,0.542883 -0.25201,0.0239 -0.30285,-0.540738 -0.55507,-0.518485 -0.25319,0.02243 -0.20362,0.597757 -0.45749,0.609986 -0.2833,0.01357 -0.29068,-0.648791 -0.57337,-0.628287 -0.24228,0.0177 -0.16643,0.582783 -0.40868,0.603885 -0.2594,0.02243 -0.28271,-0.567789 -0.5429,-0.561185 -0.25643,0.0062 -0.24994,0.584572 -0.50629,0.579487 -0.25585,-0.0047 -0.22605,-0.58905 -0.4819,-0.597788 -0.26028,-0.0089 -0.27032,0.574138 -0.53068,0.573389 -0.25909,-7.41e-4 -0.26558,-0.581095 -0.52459,-0.573389 -0.23549,0.0071 -0.21011,0.534864 -0.44527,0.54899 -0.26854,0.01593 -0.31107,-0.576881 -0.57949,-0.561187 -0.25673,0.01505 -0.23077,0.595696 -0.48797,0.597782 -0.25539,0.0024 -0.2389,-0.575537 -0.4941,-0.585585 -0.24566,-0.0097 -0.27272,0.531843 -0.51848,0.524589 -0.22176,-0.0062 -0.21731,-0.499807 -0.43918,-0.500191 -0.25787,-4.42e-4 -0.25456,0.577708 -0.51239,0.57949 -0.27206,0.0016 -0.27702,-0.610157 -0.54899,-0.603888 -0.26132,0.0062 -0.23882,0.600819 -0.50019,0.603888 -0.26661,0.0032 -0.25803,-0.61083 -0.52459,-0.603888 -0.24761,0.0062 -0.20984,0.58069 -0.45749,0.585585 -0.26107,0.0056 -0.24516,-0.599481 -0.50628,-0.597782 -0.25564,0.0016 -0.23262,0.579449 -0.48798,0.591683 -0.27574,0.01328 -0.30989,-0.599412 -0.58558,-0.585584 -0.2439,0.01239 -0.21971,0.555047 -0.4636,0.567282 -0.25848,0.01298 -0.29031,-0.557006 -0.54899,-0.548979 -0.25485,0.008 -0.2514,0.579909 -0.50628,0.57338 -0.24157,-0.0062 -0.21009,-0.554315 -0.45139,-0.567284 -0.24263,-0.01298 -0.26939,0.519148 -0.51239,0.518484 -0.25304,-6.87e-4 -0.2778,-0.552142 -0.53069,-0.542883 -0.25523,0.0094 -0.23868,0.584929 -0.49408,0.585584 -0.25384,6.58e-4 -0.24027,-0.576081 -0.49408,-0.579486 -0.24617,-0.0032 -0.24791,0.549746 -0.4941,0.54899 -0.24484,-7.58e-4 -0.24325,-0.555651 -0.48798,-0.54899 -0.25458,0.0071 -0.22121,0.590373 -0.47579,0.597788 -0.26196,0.0077 -0.26252,-0.583819 -0.52459,-0.585583 -0.24319,-0.0016 -0.25092,0.53313 -0.49408,0.536785 -0.25303,0.0038 -0.52451,-0.567269 -0.5307,-0.542885 -0.006,0.02449 -0.26408,0.585235 -0.52457,0.57948 -0.24543,-0.0056 -0.22425,-0.56281 -0.46969,-0.567284 -0.25054,-0.0047 -0.24962,0.557704 -0.50019,0.561185 -0.24307,0.0032 -0.25715,-0.5257 -0.50019,-0.530686 -0.25012,-0.0056 -0.28674,0.533371 -0.53679,0.524589 -0.24469,-0.0086 -0.243274,-0.541087 -0.487983,-0.548991 -0.248618,-0.008 -0.282019,0.531026 -0.530682,0.524592 -0.250359,-0.0062 -0.255906,-0.559623 -0.506295,-0.555088 -0.245196,0.0047 -0.230708,0.552504 -0.475771,0.561186 -0.252912,0.0089 -0.277727,-0.549577 -0.530697,-0.542883 -0.246288,0.0062 -0.241626,0.556304 -0.487987,0.555088 -0.252277,-0.0016 -0.241802,-0.575742 -0.49408,-0.573391 -0.248353,0.0024 -0.22758,0.564691 -0.4758,0.573391 -0.252956,0.0089 -0.271516,-0.543995 -0.524575,-0.548992 -0.257352,-0.0056 -0.297908,0.54721 -0.555098,0.536787 -0.246164,-0.01003 -0.241913,-0.567152 -0.487978,-0.555088 -0.240091,0.0118 -0.181573,0.562942 -0.42089,0.585585 -0.270605,0.02567 -0.320414,-0.57856 -0.591689,-0.561187 -0.240858,0.01534 -0.216158,0.558523 -0.45748,0.561187 -0.253815,0.0032 -0.24027,-0.577192 -0.494095,-0.57948 -0.257827,-0.0024 -0.254552,0.576553 -0.512388,0.57948 -0.260394,0.0032 -0.524503,-0.597764 -0.530679,-0.57338 -0.0062,0.02449 -0.241656,0.550534 -0.487987,0.555088 -0.263168,0.0047 -0.27984,-0.582682 -0.542894,-0.573391 -0.249771,0.0089 -0.225898,0.574264 -0.475783,0.579487 -0.256264,0.0056 -0.256087,-0.576036 -0.512387,-0.573389 -0.243693,0.0024 -0.232272,0.545733 -0.475789,0.555088 -0.25287,0.0097 -0.283914,-0.545804 -0.536787,-0.536787 -0.242009,0.0086 -0.233659,0.544984 -0.475783,0.548992 -0.263256,0.0047 -0.27388,-0.594011 -0.536788,-0.57949 -0.242394,0.01328 -0.190546,0.574841 -0.433089,0.585586 -0.263316,0.01151 -0.261014,-0.591252 -0.524584,-0.591683 -0.25346,-4.13e-4 -0.252988,0.558642 -0.506288,0.567284 -0.250036,0.0086 -0.286983,-0.538558 -0.536786,-0.524592 -0.243809,0.01357 -0.219582,0.557549 -0.46359,0.567294 -0.281642,0.01121 -0.304066,-0.623743 -0.585583,-0.609986 -0.255968,0.01239 -0.219612,0.596609 -0.475793,0.603879 -0.257737,0.0071 -0.254639,-0.58617 -0.512387,-0.57948 -0.241566,0.0062 -0.209962,0.556728 -0.451384,0.567284 -0.277304,0.0121 -0.296252,-0.619525 -0.573388,-0.603885 -0.249298,0.01416 -0.451384,0.597789 -0.451384,0.597789 0,0 -1.597188,-0.04591 -2.394214,-0.0983 -1.315492,-0.08644 -2.472528,-0.698915 -3.411775,-1.54414 -0.586203,-0.52749 -1.388908,-1.9150808 -1.388908,-1.9150808 L 74.776619,9.2473141 75.00954,9.083418 77.925285,8.8418796 c 1.068194,0.8909708 2.430177,1.5175934 4.019947,0.8540247 0.77387,-0.3230136 1.315106,-0.8935142 1.55276,-1.863315 C 83.681513,7.0836358 83.84341,6.2165945 83.592899,5.4689289 83.34363,4.7249841 82.866827,3.9861792 82.100518,3.6487415 80.982878,3.1566003 79.820297,3.0936003 78.615421,3.8040218 78.362552,3.9531058 78.29231,4.1494159 78.123707,4.3043598 L 77.839026,4.3561283 74.94916,4.1145898 Z"
     id="compensator_left"
     sodipodi:nodetypes="ccccccccscssscccscsssssssssssssssssssasssssssssssssssssssssssssaaaaasssssssaaasssssssssssssssssssssssssssssssssssssasssssssssssssssssssssssssscssccccssasscccc"
     inkscape:label="compensator_left">
    <title
       id="title5">metal</title>
  </path>
  <path
     style="fill:#5e5e5e;fill-rule:evenodd;stroke:#000000;stroke-width:0.0301566"
     d="m 177.97727,9.4505891 c -0.006,0.3527942 -0.2659,0.6551909 -0.4941,0.9637679 -0.53692,0.727704 -1.17502,1.401456 -2.05565,1.945853 -0.86433,0.456748 -1.78253,0.711557 -2.73883,0.823481 l -0.88447,-0.0062 -62.3575,-4.4515788 0.23723,-3.2694359 56.15157,4.0763585 c 0.0655,0 0.42359,-0.1093053 0.40563,-0.2470561 -0.0177,-0.1381033 0.003,-0.4178418 0.003,-0.4178418 0,0 -0.3243,-1.1747842 -0.38734,-1.7781 -0.0339,-0.3255939 -0.006,-0.6549809 0.006,-0.9820738 0.0295,-0.7265466 0.41483,-1.5064047 0.45139,-2.086151 C 166.326,3.8464727 165.92992,3.661729 165.92992,3.661729 L 136.50338,3.6794367 106.91022,1.561633 c 0.003,0.029211 -0.23334,-0.040748 -0.30193,-0.4485725 -0.0503,-0.29968613 0.10357,-0.90578138 0.10357,-0.90578138 0,0 1.08311,-0.20037154 1.55276,0.0171135 0.21846,0.1012502 0.2323,0.54696796 0.47307,0.54588951 0.25098,-7.8191e-4 0.23714,-0.56540928 0.48799,-0.57338035 0.25726,-0.008262 0.27957,0.56472326 0.53679,0.55507919 0.25104,-0.009442 0.23071,-0.57426996 0.48188,-0.57947779 0.25761,-0.005606 0.26083,0.56993699 0.51849,0.57338036 0.24446,0.003246 0.26181,-0.52988246 0.50628,-0.53068798 0.25452,-7.8043e-4 0.2763,0.55682006 0.53068,0.54899061 0.25659,-0.007967 0.24352,-0.58889761 0.50019,-0.58558703 0.24862,0.003246 0.22109,0.57498992 0.4697,0.57948665 0.25357,0.004721 0.24667,-0.56540633 0.50018,-0.57338626 0.27736,-0.008852 0.30887,0.6124966 0.58558,0.59168004 0.24089,-0.0179987 0.18601,-0.56897509 0.427,-0.58558408 0.24245,-0.0168185 0.26328,0.52170189 0.50628,0.52459053 0.2372,0.003246 0.26914,-0.50587481 0.50627,-0.50019046 0.24022,0.005606 0.24789,0.53832268 0.48801,0.53068798 0.24552,-0.007672 0.21807,-0.55980313 0.4636,-0.57338036 0.2827,-0.0156382 0.32097,0.61149044 0.60386,0.59777895 0.23519,-0.0115074 0.216,-0.53865904 0.4514,-0.54288136 0.23195,-0.003836 0.23195,0.51200913 0.46357,0.51848277 0.25881,0.007081 0.29009,-0.54972236 0.549,-0.54898176 0.25172,7.17e-4 0.27916,0.54354673 0.53069,0.53678541 0.24198,-0.006196 0.23991,-0.54058875 0.48189,-0.5428917 0.24906,-0.00236 0.25732,0.55643205 0.50626,0.54898913 0.24405,-0.007081 0.21956,-0.55827175 0.4636,-0.56728144 0.27179,-0.0100321 0.28949,0.60329217 0.5612,0.59168299 0.25732,-0.0109173 0.22426,-0.59989897 0.48189,-0.60388819 0.26676,-0.003836 0.25172,0.61326376 0.51848,0.60998415 0.24582,-0.003246 0.21779,-0.56904 0.46357,-0.57338035 0.26677,-0.004721 0.25791,0.60896029 0.52459,0.60387934 0.26619,-0.004721 0.23401,-0.61821488 0.5002,-0.62218198 0.25674,-0.003836 0.24346,0.58570211 0.50019,0.58558703 0.25378,-1.1802e-4 0.24021,-0.5761613 0.49408,-0.57948664 0.24316,-0.003246 0.24464,0.53996174 0.488,0.54288284 0.24582,0.003246 0.26028,-0.53987027 0.50627,-0.53678688 0.26501,0.003246 0.26589,0.59624316 0.53071,0.59169332 0.25968,-0.004721 0.2405,-0.59340172 0.50016,-0.59778928 0.26204,-0.004721 0.26263,0.59355368 0.5246,0.5855826 0.24877,-0.007672 0.21512,-0.56857086 0.46359,-0.5855826 0.27268,-0.0185889 0.31912,0.58633354 0.59167,0.56728144 0.24258,-0.0168185 0.20834,-0.56798664 0.45138,-0.57338183 0.25231,-0.005606 0.24198,0.56828613 0.49411,0.57338183 0.25586,0.005606 0.26855,-0.56600383 0.52458,-0.56118548 0.24227,0.004721 0.23371,0.54536873 0.47578,0.54898913 0.24316,0.003836 0.25113,-0.52927315 0.49411,-0.5367854 0.28183,-0.008557 0.32919,0.6102202 0.60997,0.58558555 0.22339,-0.019474 0.17352,-0.52177122 0.3965,-0.54288579 0.25201,-0.0239 0.30288,0.54073775 0.55507,0.51848719 0.25319,-0.0224246 0.20362,-0.59775977 0.45749,-0.60998563 0.2833,-0.0135728 0.29068,0.64878764 0.57338,0.62828827 0.24227,-0.0177037 0.16643,-0.58278395 0.40872,-0.60388967 0.25938,-0.0224246 0.28269,0.5677919 0.54285,0.56118548 0.25644,-0.006196 0.24995,-0.58456907 0.50629,-0.57948664 0.25587,0.004721 0.22605,0.589054 0.4819,0.59778781 0.26029,0.008852 0.27032,-0.57413572 0.53068,-0.57338626 0.25909,7.406e-4 0.26558,0.58109473 0.52459,0.57338626 0.23549,-0.007081 0.21011,-0.53486456 0.44528,-0.54898766 0.26853,-0.0162284 0.31106,0.5768783 0.57951,0.561184 0.25673,-0.0150481 0.23077,-0.59569582 0.48797,-0.59777895 0.25526,-0.00236 0.23903,0.57553578 0.49408,0.58558261 0.24552,0.009737 0.27268,-0.53184314 0.5185,-0.52458906 0.22191,0.006196 0.21719,0.49980688 0.43918,0.50019046 0.25793,4.4554e-4 0.25468,-0.57770595 0.51239,-0.57948665 0.27208,-0.001623 0.27709,0.61015677 0.54899,0.60388525 0.26117,-0.006196 0.23873,-0.60081514 0.50017,-0.60388525 0.26677,-0.003246 0.25821,0.61082656 0.52459,0.60388525 0.24759,-0.006196 0.20982,-0.58068755 0.45749,-0.58558261 0.26116,-0.005606 0.24523,0.59948293 0.5063,0.59777895 0.25555,-0.001623 0.23254,-0.57944828 0.48797,-0.59168299 0.27563,-0.0132778 0.30989,0.59941212 0.58559,0.58558703 0.24405,-0.0123926 0.21956,-0.55504968 0.4636,-0.56728439 0.25851,-0.0129827 0.29039,0.55700889 0.54898,0.54898176 0.25496,-0.007967 0.25142,-0.57990859 0.5063,-0.57338036 0.24168,0.006196 0.21011,0.55431499 0.45138,0.56728144 0.24257,0.0129827 0.26942,-0.51914813 0.51237,-0.51848424 0.2532,6.8749e-4 0.2777,0.55214628 0.53072,0.54288579 0.25525,-0.009442 0.23873,-0.58493199 0.49408,-0.58558703 0.25378,-6.5503e-4 0.2402,0.57608459 0.49407,0.57948665 0.24612,0.003246 0.24789,-0.54974597 0.49408,-0.54898766 0.24493,7.5535e-4 0.24316,0.55564866 0.48801,0.54898766 0.25468,-0.007081 0.22132,-0.5903685 0.47578,-0.59778781 0.26206,-0.007672 0.26265,0.58382109 0.52458,0.58558556 0.24316,0.001623 0.25083,-0.53313256 0.49411,-0.53678541 0.25289,-0.003836 0.52451,0.56726669 0.53068,0.54288284 0.006,-0.0244901 0.26411,-0.58523296 0.52459,-0.57947779 0.24552,0.005606 0.22427,0.56280832 0.46967,0.56728144 0.25054,0.004721 0.24966,-0.55770228 0.50019,-0.56118548 0.24316,-0.003246 0.25703,0.52569997 0.50019,0.53068945 0.25026,0.005606 0.28684,-0.5333745 0.53679,-0.52458906 0.24463,0.008557 0.24316,0.54108592 0.48797,0.54898766 0.24877,0.007967 0.28212,-0.53102287 0.53071,-0.52458906 0.25024,0.006196 0.25585,0.55962313 0.50627,0.55508804 0.24522,-0.004721 0.23077,-0.55250331 0.47579,-0.56118695 0.25289,-0.008852 0.27768,0.54957483 0.53069,0.54288432 0.24611,-0.006196 0.24169,-0.55630665 0.48799,-0.55508805 0.25231,0.001623 0.24168,0.57573937 0.49408,0.57339068 0.24847,-0.00236 0.22752,-0.56469375 0.47578,-0.57339068 0.2529,-0.008852 0.27149,0.54399227 0.52459,0.54898913 0.25733,0.005606 0.29791,-0.54720844 0.55509,-0.5367854 0.24611,0.0100321 0.24198,0.56715014 0.488,0.55508657 0.24021,-0.0118024 0.18149,-0.56293962 0.42087,-0.58558261 0.2706,-0.0256703 0.32041,0.5785572 0.5917,0.56118401 0.2408,-0.0153432 0.2163,-0.55852256 0.45748,-0.56118401 0.2538,-0.003246 0.24021,0.57719107 0.4941,0.57947779 0.25791,0.00236 0.25466,-0.57655078 0.51237,-0.57947779 0.26057,-0.003246 0.5245,0.5977642 0.53067,0.57338036 0.006,-0.0244901 0.24168,-0.55053673 0.48801,-0.55508805 0.26323,-0.004721 0.27975,0.58268068 0.54289,0.57339068 0.24965,-0.008852 0.22575,-0.57426406 0.47578,-0.57948664 0.25614,-0.005606 0.25614,0.57603443 0.51239,0.57338626 0.24375,-0.00236 0.23223,-0.54573314 0.47579,-0.55508657 0.25289,-0.009737 0.28387,0.54580394 0.53677,0.5367854 0.24198,-0.008557 0.23372,-0.54498368 0.47579,-0.54898913 0.26322,-0.004721 0.27384,0.59400955 0.53679,0.57948664 0.24227,-0.0132777 0.19062,-0.5748409 0.4331,-0.5855826 0.26324,-0.0115074 0.26088,0.5912522 0.52458,0.59168004 0.25348,4.1604e-4 0.25289,-0.55863763 0.50629,-0.56728144 0.24995,-0.008557 0.28713,0.53855725 0.53679,0.52458906 0.24375,-0.0135728 0.21954,-0.55754591 0.46359,-0.5672903 0.28153,-0.0112123 0.30407,0.6237399 0.58556,0.60998268 0.25586,-0.0123926 0.21956,-0.59660756 0.47582,-0.60387639 0.25763,-0.007081 0.25468,0.58616978 0.51238,0.57947779 0.24169,-0.006196 0.21012,-0.55672563 0.45139,-0.56728144 0.27739,-0.0120975 0.29624,0.61952495 0.57336,0.60388524 0.24937,-0.0141629 0.45139,-0.59778928 0.45139,-0.59778928 0,0 1.59719,0.0459115 2.39422,0.0982996 1.31549,0.0864381 2.47253,0.69891556 3.41177,1.54414011 0.58618,0.5274881 1.38888,1.915082 1.38888,1.915082 l 0.0177,0.3019272 -0.23283,0.1638975 -2.91574,0.241537 c -1.06819,-0.8909708 -2.43019,-1.5175934 -4.01994,-0.8540247 -0.77387,0.3230166 -1.3151,0.8935172 -1.55277,1.8633165 -0.18356,0.7489549 -0.34541,1.6159933 -0.095,2.3636618 0.24936,0.7439419 0.72609,1.4827468 1.49239,1.8201845 1.11763,0.492141 2.28023,0.555141 3.48511,-0.1552803 0.2529,-0.1490826 0.32311,-0.3453911 0.49169,-0.500338 l 0.28477,-0.051754 2.88987,0.241537 z"
     id="compensator_right"
     sodipodi:nodetypes="ccccccccscssscccscsssssssssssssssssssasssssssssssssssssssssssssaaaaasssssssaaasssssssssssssssssssssssssssssssssssssasssssssssssssssssssssssssscssccccssasscccc"
     inkscape:label="compensator_right">
    <title
       id="title6">metal</title>
  </path>
</svg>
