<?xml version="1.0" encoding="UTF-8" standalone="no"?>
<!-- Created with Inkscape (http://www.inkscape.org/) -->

<svg
   width="210mm"
   height="297mm"
   viewBox="0 0 210 297"
   version="1.1"
   id="svg1"
   inkscape:version="1.4 (86a8ad7, 2024-10-11)"
   sodipodi:docname="DSHA-0-075.svg"
   xmlns:inkscape="http://www.inkscape.org/namespaces/inkscape"
   xmlns:sodipodi="http://sodipodi.sourceforge.net/DTD/sodipodi-0.dtd"
   xmlns="http://www.w3.org/2000/svg"
   xmlns:svg="http://www.w3.org/2000/svg">
  <sodipodi:namedview
     id="namedview1"
     pagecolor="#ffffff"
     bordercolor="#000000"
     borderopacity="0.25"
     inkscape:showpageshadow="2"
     inkscape:pageopacity="0.0"
     inkscape:pagecheckerboard="0"
     inkscape:deskcolor="#d1d1d1"
     inkscape:document-units="mm"
     inkscape:zoom="0.52337612"
     inkscape:cx="243.61065"
     inkscape:cy="402.19641"
     inkscape:window-width="2560"
     inkscape:window-height="1377"
     inkscape:window-x="-8"
     inkscape:window-y="-8"
     inkscape:window-maximized="1"
     inkscape:current-layer="svg1" />
  <defs
     id="defs1" />
  <path
     style="fill:#5e5e5e;fill-rule:evenodd;stroke:#000000;stroke-width:0.0422391"
     d="M -23.273995,3.9833871 V 2.7155141 L -4.5246062,0.08455412 c 0,0 0.202693,0.46797 0.412042,0.475456 0.238952,0.0091 0.268268,-0.508976 0.507234,-0.507162 0.250324,6.46e-4 0.272947,0.546611 0.52306,0.53885 0.243236,-0.0083 0.232119,-0.543599 0.475471,-0.554708 0.257544,-0.01267 0.297497,0.556483 0.554624,0.538866 0.214093,-0.0146 0.183149,-0.482916 0.396288,-0.507177 0.250171,-0.027 0.335965,0.501505 0.586413,0.475475 0.21648697,-0.0223 0.19416897,-0.505499 0.41202797,-0.507164 0.255007,-6.55e-4 0.236461,0.581979 0.491353,0.586402 0.245133,0.0011 0.246489,-0.536235 0.491309,-0.546753 0.227958,-0.0091 0.271393,0.475746 0.499211,0.467515 0.23734303,-0.0091 0.24611003,-0.521949 0.48352603,-0.523034 0.246638,-6.52e-4 0.260343,0.539037 0.50708,0.53889 0.239209,-9.2e-5 0.253717,-0.497859 0.491366,-0.52302 0.405824,-0.04287 0.598211,0.698328 1.006396,0.697384 0.386996,-6.56e-4 0.566758,-0.71129 0.950904,-0.665695 0.241444,0.02694 0.239846,0.539323 0.483322,0.546813 0.254108,0.0083 0.284873,-0.541953 0.538866,-0.538853 0.229974,6.52e-4 0.245973,0.497343 0.475398,0.499217 0.233671,6.27e-4 0.258295,-0.508166 0.491382,-0.499217 0.220982,0.0091 0.207251,0.497792 0.427962,0.507146 0.250185,0.01273 0.280758,-0.531887 0.530982,-0.530937 0.244889,6.46e-4 0.270754,0.53009 0.515132,0.523008 0.228387,-0.0056 0.223849,-0.503338 0.451706,-0.515055 0.248377,-0.01322 0.298285,0.515825 0.546717,0.507151 0.231524,-0.0083 0.243796,-0.507151 0.475488,-0.507151 0.231774,0 0.243698,0.507151 0.475359,0.507151 0.231823,0 0.244216,-0.497602 0.4757452,-0.507151 0.2595,-0.01273 0.319174,0.538848 0.578296,0.522984 0.233644,-0.01453 0.226055,-0.518139 0.459675,-0.530937 0.248157,-0.01359 0.298389,0.519123 0.546798,0.507162 0.222413,-0.0093 0.220966,-0.503444 0.443855,-0.499209 0.232575,0.0011 0.211077,0.5322 0.443547,0.538816 0.237409,0.0055 0.246079,-0.524841 0.483546,-0.522978 0.237459,6.52e-4 0.237569,0.524375 0.475452,0.530914 0.25759,0.0055 0.289056,-0.555607 0.546684,-0.546752 0.245233,0.0091 0.238294,0.554417 0.483579,0.554691 0.252589,2.25e-4 0.246675,-0.565064 0.499173,-0.570579 0.244786,-0.0055 0.262536,0.530262 0.507246,0.530943 0.216514,6.04e-4 0.234903,-0.463906 0.451745,-0.467546 0.227984,-0.0011 0.263144,0.476452 0.491073,0.475475 0.241044,-6.34e-4 0.274335,-0.51017 0.515188,-0.507146 0.216403,6.52e-4 0.235209,0.457207 0.451589,0.467515 0.239677,0.01288 0.307382,-0.483706 0.547053,-0.467515 0.229325,0.01506 0.229277,0.510442 0.459449,0.515059 0.224218,0.0011 0.243792,-0.473672 0.467621,-0.483388 0.213234,-0.0091 0.270334,0.425713 0.483219,0.420004 0.224238,-0.0055 0.259351,-0.472989 0.483618,-0.467513 0.235179,0.0055 0.247961,0.515055 0.483207,0.515055 0.235583,0 0.248297,-0.507787 0.483549,-0.515055 0.246716,-0.0083 0.292706,0.52062 0.538847,0.507151 0.23573,-0.0132 0.223816,-0.529515 0.459532,-0.538879 0.250142,-0.0091 0.280827,0.536912 0.531065,0.530937 0.235273,-0.0055 0.23974,-0.519935 0.475451,-0.52302 0.263088,-6.55e-4 0.283214,0.57503 0.546627,0.570563 0.237493,-0.0011 0.237907,-0.530914 0.475488,-0.530914 0.237479,0 0.237874,0.528074 0.475799,0.530914 0.23884,6.53e-4 0.252584,-0.504363 0.490999,-0.522999 0.403568,-0.03065 0.554348,0.743215 0.958968,0.744862 0.422059,6.55e-4 0.585577,-0.80309 1.006491,-0.768615 0.245698,0.02097 0.260378,0.542543 0.506993,0.538816 0.247156,-6.57e-4 0.24431,-0.554839 0.491386,-0.554704 0.243441,7.7e-5 0.239799,0.5478 0.483596,0.546785 0.241213,-6.41e-4 0.233411,-0.548493 0.475395,-0.546785 0.245301,6.31e-4 0.230207,0.554235 0.475414,0.56264 0.242555,0.0091 0.264436,-0.513164 0.507031,-0.522999 0.256211,-0.0091 0.324143,0.537374 0.578584,0.507144 0.218275,-0.02426 0.160343,-0.526052 0.380417,-0.53885 0.240702,-0.01448 0.241614,0.533174 0.483234,0.53885 0.259772,0.0055 0.287288,-0.544225 0.547026,-0.554708 0.39105,-0.01503 0.49789,0.750499 0.889171,0.76722 0.416936,0.01782 0.598767,-0.774389 1.014285,-0.734083 0.226202,0.02195 0.237472,0.499739 0.464972,0.498742 0.242945,-6.59e-4 0.249863,-0.532652 0.493212,-0.53793 0.256191,-0.0055 0.287263,0.55236 0.543447,0.543537 0.230631,-0.0083 0.223819,-0.514418 0.453948,-0.521121 0.245683,-0.0083 0.26996,0.533304 0.515515,0.526739 0.226178,-0.0055 0.222074,-0.503955 0.448105,-0.509967 0.230213,-0.0055 0.252562,0.485135 0.481886,0.493129 0.24978,0.0091 0.310544,-0.510442 0.560371,-0.498718 0.222278,0.01282 0.232,0.48354 0.453857,0.487516 0.232498,0.0011 0.260723,-0.495029 0.493203,-0.493117 0.239244,6.33e-4 0.25993,0.521852 0.49873,0.515531 0.227414,-0.0055 0.220527,-0.508866 0.448041,-0.515531 0.234761,-0.0055 0.258326,0.500527 0.493527,0.504319 0.248112,0.0011 0.289235,-0.516782 0.537665,-0.515503 0.240615,6.28e-4 0.275264,0.507101 0.515607,0.504301 0.214614,-6.53e-4 0.234259,-0.450442 0.448402,-0.459483 0.256239,-0.01262 0.327498,0.53346 0.582778,0.50429 0.220072,-0.02378 0.170736,-0.521853 0.392212,-0.537924 0.245321,-0.01782 0.269957,0.528241 0.515311,0.526734 0.232871,-6.48e-4 0.24931,-0.500354 0.482123,-0.504319 0.234721,-0.0011 0.269007,0.498386 0.504189,0.493116 0.234766,-0.0054 0.247169,-0.51156 0.481912,-0.515531 0.237902,-0.0011 0.266668,0.502984 0.504174,0.504319 0.230639,6.51e-4 0.263416,-0.481818 0.493201,-0.481904 0.218712,-4.7e-5 0.251699,0.456874 0.470753,0.459481 0.219229,6.57e-4 0.262605,-0.446877 0.481895,-0.448262 0.216947,-6.3e-4 0.264922,0.439937 0.481784,0.437068 0.237981,-6.55e-4 0.277675,-0.498287 0.515596,-0.493089 0.248313,0.0054 0.267634,0.545042 0.515582,0.537918 0.234811,-0.0055 0.224244,-0.53113 0.459419,-0.537918 0.253932,-0.0083 0.273107,0.553282 0.526615,0.549121 0.246508,-0.0011 0.247444,-0.546575 0.493217,-0.549121 0.240637,-6.63e-4 0.252995,0.526886 0.493183,0.526706 0.231021,-1.48e-4 0.240766,-0.500348 0.470791,-0.504319 0.237547,-0.0011 0.266375,0.502859 0.504156,0.504319 0.219254,6.51e-4 0.252604,-0.451802 0.47054,-0.45949 0.225229,-0.0083 0.290418,0.442531 0.515593,0.437067 0.234638,-0.0055 0.280316,-0.497174 0.51557,-0.481896 0.246545,0.01544 0.224276,0.571809 0.47084,0.571569 0.241502,-2.38e-4 0.218216,-0.553812 0.459429,-0.560379 0.237906,-0.0055 0.243421,0.524039 0.481803,0.526734 0.247996,6.38e-4 0.268505,-0.515325 0.51559,-0.537924 0.394511,-0.03614 0.567672,0.691513 0.963637,0.694836 0.418796,6.55e-4 0.616529,-0.776873 1.031128,-0.717223 0.242032,0.03494 0.214688,0.567489 0.459483,0.57155 0.246599,0.0011 0.234716,-0.548482 0.481839,-0.560347 0.247525,-0.01289 0.289475,0.525816 0.538032,0.515503 0.213238,-0.0091 0.211308,-0.471712 0.425644,-0.481904 0.234236,-0.01267 0.279825,0.484636 0.515613,0.481904 0.246047,-6.59e-4 0.280282,-0.523738 0.52687,-0.515503 0.234346,0.0083 0.234346,0.518701 0.470846,0.526715 0.224255,0.0083 0.256676,-0.468142 0.481788,-0.470702 0.231134,-6.27e-4 0.275399,0.478472 0.504194,0.470702 0.240737,-0.0083 0.253639,-0.532399 0.493206,-0.526715 0.231133,0.0055 0.217933,0.513814 0.448157,0.526715 0.252066,0.01447 0.298545,-0.523807 0.549251,-0.515531 0.231151,0.0083 0.240815,0.513105 0.47048,0.504319 0.214182,-0.0091 0.403614,-0.504319 0.403614,-0.504319 h 3.048031 v 0.773264 c 0,0 -1.431857,0.99685498 -1.949669,1.68106298 -0.410957,0.542315 -0.863113,1.84917 -0.863113,1.84917 0.04549,0.219401 0.186314,0.39691 0.437052,0.526739 h 3.373521 c 0.149754,-0.161797 0.297852,-0.311814 0.448424,-0.414704 1.267348,-1.228141 2.442421,-1.016951 3.496077,-0.504277 0.880519,0.428336 1.430723,1.690713 1.43483,2.566364 7.01e-4,0.853729 -0.391261,1.602579 -1.031113,2.084496 -0.871912,0.65487 -1.898888,0.803983 -2.891381,0.470702 -0.565826,-0.189877 -1.501984,-1.053434 -1.501984,-1.053434 h -3.249834 c 0,0 -0.390933,0.04715 -0.493206,0.190527 -0.109306,0.15203 -0.0056,0.560339 -0.0056,0.560339 0,0 1.192795,2.1227459 2.118055,2.8689559 0.886387,0.714824 3.115565,1.400896 3.115565,1.400896 l 0.952565,0.04481 2.947326,0.302632 v 2.364678 H 60.243364 V 3.9478401 Z"
     id="profile_left"
     sodipodi:nodetypes="cccssssssssssssssssssssssssssssssssssssssssssssssssssssssssssssssssssssssssssssssssssssssssssssssssssssssssssssssssssssssssssssssssscccsccccssssccscsccccccc"
     inkscape:label="profile_left" />
  <path
     style="fill:#5e5e5e;fill-rule:evenodd;stroke:#000000;stroke-width:0.0422391"
     d="M 223.928,3.9833861 V 2.7155141 L 205.17868,0.08455412 c 0,0 -0.20314,0.467969 -0.41222,0.475455 -0.23893,0.0091 -0.26856,-0.508975 -0.50721,-0.507162 -0.25058,6.46e-4 -0.27305,0.546612 -0.52315,0.53885 -0.24299,-0.0083 -0.23253,-0.543599 -0.47542,-0.554707 -0.25634,-0.01267 -0.29697,0.556482 -0.55451,0.538865 -0.2133,-0.0146 -0.18625,-0.482915 -0.39758,-0.507176 -0.24954,-0.02701 -0.33622,0.501504 -0.58623,0.475475 -0.21664,-0.0223 -0.19486,-0.505499 -0.41232,-0.507164 -0.25488,-6.56e-4 -0.23512,0.581978 -0.49141,0.586401 -0.246,0.0011 -0.24649,-0.536235 -0.49143,-0.546752 -0.22821,-0.0091 -0.27119,0.475746 -0.49899,0.467515 -0.23568,-0.0091 -0.24678,-0.52195 -0.48382,-0.523034 -0.2465,-6.53e-4 -0.25803,0.539036 -0.50684,0.538889 -0.23965,-9.2e-5 -0.25381,-0.497858 -0.49137,-0.523019 -0.40638,-0.04287 -0.59832,0.698327 -1.00656,0.697384 -0.38734,-6.57e-4 -0.56664,-0.711291 -0.95092,-0.665695 -0.24048,0.02694 -0.23984,0.539322 -0.48342,0.546813 -0.25392,0.0083 -0.28422,-0.541954 -0.53901,-0.538853 -0.231,6.52e-4 -0.24611,0.497343 -0.47519,0.499216 -0.23342,6.27e-4 -0.25677,-0.508166 -0.49143,-0.499216 -0.22023,0.0091 -0.20916,0.497792 -0.42793,0.507145 -0.2504,0.01273 -0.27878,-0.531887 -0.53076,-0.530937 -0.24439,6.46e-4 -0.26988,0.53009 -0.51555,0.523008 -0.22898,-0.0056 -0.22365,-0.503338 -0.45135,-0.515055 -0.24795,-0.01321 -0.29767,0.515825 -0.54667,0.507151 -0.23194,-0.0083 -0.24286,-0.507151 -0.47544,-0.507151 -0.23234,0 -0.24276,0.507151 -0.47565,0.507151 -0.23248,0 -0.24395,-0.497601 -0.47555,-0.507151 -0.25752,-0.01273 -0.31826,0.538848 -0.57823,0.522984 -0.23336,-0.01453 -0.22698,-0.518138 -0.45982,-0.530937 -0.24798,-0.01359 -0.29769,0.519123 -0.54661,0.507162 -0.22328,-0.0093 -0.22029,-0.503444 -0.44403,-0.499209 -0.23286,0.0011 -0.21094,0.532201 -0.44376,0.538817 -0.23527,0.0055 -0.24626,-0.524841 -0.48324,-0.522978 -0.23569,6.52e-4 -0.23664,0.524374 -0.47507,0.530913 -0.2564,0.0055 -0.28892,-0.555607 -0.54736,-0.546752 -0.24591,0.0091 -0.23614,0.554417 -0.48321,0.554692 -0.25339,2.24e-4 -0.2472,-0.565064 -0.49963,-0.570579 -0.24289,-0.0055 -0.26175,0.530261 -0.50691,0.530942 -0.21647,6.05e-4 -0.2342,-0.463906 -0.45166,-0.467546 -0.22829,-0.0011 -0.26251,0.476452 -0.49142,0.475475 -0.24055,-6.33e-4 -0.27435,-0.51017 -0.51483,-0.507145 -0.21582,6.52e-4 -0.23394,0.457207 -0.45162,0.467515 -0.23954,0.01288 -0.30684,-0.483706 -0.54707,-0.467515 -0.23066,0.01506 -0.23066,0.510442 -0.45942,0.515058 -0.22457,0.0011 -0.24317,-0.473671 -0.46747,-0.483388 -0.21212,-0.0091 -0.26944,0.425713 -0.48372,0.420004 -0.22471,-0.0055 -0.25748,-0.472989 -0.4832,-0.467513 -0.23467,0.0055 -0.24817,0.515055 -0.48335,0.515055 -0.23426,0 -0.24742,-0.507786 -0.48347,-0.515055 -0.24664,-0.0083 -0.29171,0.52062 -0.53905,0.507151 -0.23419,-0.0132 -0.22419,-0.529515 -0.45933,-0.538879 -0.25059,-0.0091 -0.27902,0.536913 -0.531,0.530937 -0.23429,-0.0055 -0.23989,-0.519934 -0.47551,-0.523019 -0.26239,-6.56e-4 -0.28101,0.575029 -0.54698,0.570562 -0.23571,-0.0011 -0.2366,-0.530913 -0.47518,-0.530913 -0.23707,0 -0.23707,0.528073 -0.47571,0.530913 -0.23945,6.53e-4 -0.25356,-0.504363 -0.4913,-0.522998 -0.40434,-0.03065 -0.55413,0.743214 -0.9587,0.744861 -0.42211,6.55e-4 -0.58562,-0.803089 -1.00623,-0.768615 -0.24666,0.02097 -0.25928,0.542543 -0.50761,0.538817 -0.24705,-6.58e-4 -0.24397,-0.554839 -0.49142,-0.554704 -0.2431,7.7e-5 -0.24002,0.547799 -0.48324,0.546784 -0.24108,-6.4e-4 -0.23349,-0.548492 -0.4754,-0.546784 -0.24613,6.3e-4 -0.23152,0.554234 -0.47551,0.562639 -0.24158,0.0091 -0.26379,-0.513164 -0.50728,-0.522998 -0.25546,-0.0091 -0.32195,0.537373 -0.57864,0.507143 -0.21795,-0.02426 -0.16385,-0.526051 -0.38106,-0.53885 -0.24051,-0.01448 -0.24136,0.533174 -0.48321,0.53885 -0.25784,0.0055 -0.28749,-0.544225 -0.54725,-0.554707 -0.39239,-0.01503 -0.49835,0.750499 -0.88923,0.76722 -0.41694,0.01782 -0.59883,-0.77439 -1.01397,-0.734084 -0.22609,0.02195 -0.23701,0.499739 -0.46546,0.498743 -0.24273,-6.59e-4 -0.25009,-0.532652 -0.49296,-0.537931 -0.25532,-0.0055 -0.28738,0.55236 -0.54354,0.543537 -0.23145,-0.0083 -0.22421,-0.514418 -0.45411,-0.521121 -0.24587,-0.0083 -0.26901,0.533304 -0.51484,0.526739 -0.22634,-0.0055 -0.22079,-0.503955 -0.44866,-0.509967 -0.23101,-0.0055 -0.25295,0.485135 -0.48176,0.493129 -0.25046,0.0091 -0.31022,-0.510441 -0.5602,-0.498717 -0.2208,0.01282 -0.23277,0.483539 -0.45416,0.487515 -0.2324,0.0011 -0.25854,-0.495029 -0.49313,-0.493117 -0.23896,6.33e-4 -0.25766,0.521853 -0.49882,0.515532 -0.22876,-0.0055 -0.22155,-0.508866 -0.44803,-0.515532 -0.23414,-0.0055 -0.25667,0.500527 -0.49319,0.504319 -0.24792,0.0011 -0.28964,-0.516782 -0.538,-0.515502 -0.24019,6.27e-4 -0.27539,0.5071 -0.51554,0.5043 -0.2128,-6.53e-4 -0.23374,-0.450442 -0.44822,-0.459483 -0.2557,-0.01262 -0.32501,0.533461 -0.58265,0.504291 -0.22034,-0.02378 -0.17155,-0.521853 -0.39369,-0.537925 -0.24565,-0.01782 -0.26915,0.528241 -0.51486,0.526735 -0.23287,-6.48e-4 -0.24954,-0.500354 -0.48212,-0.50432 -0.23422,-0.0011 -0.26885,0.498387 -0.50484,0.493117 -0.234,-0.0054 -0.2469,-0.511561 -0.48139,-0.515532 -0.23696,-0.0011 -0.26682,0.502985 -0.50438,0.504319 -0.23102,6.51e-4 -0.26303,-0.481818 -0.49326,-0.481904 -0.21858,-4.6e-5 -0.25204,0.456875 -0.47069,0.459482 -0.2192,6.56e-4 -0.26216,-0.446877 -0.48195,-0.448263 -0.21678,-6.29e-4 -0.26466,0.439938 -0.48194,0.437068 -0.2358,-6.54e-4 -0.27685,-0.498286 -0.51537,-0.493088 -0.24791,0.0054 -0.26778,0.54504 -0.51553,0.537918 -0.23445,-0.0055 -0.22381,-0.531131 -0.45936,-0.537918 -0.25435,-0.0083 -0.27348,0.553281 -0.52704,0.549121 -0.24626,-0.0011 -0.24718,-0.546576 -0.49284,-0.549121 -0.24056,-6.64e-4 -0.25334,0.526886 -0.49325,0.526705 -0.23109,-1.47e-4 -0.24072,-0.500348 -0.4707,-0.504319 -0.23679,-0.0011 -0.26682,0.502859 -0.50459,0.504319 -0.21895,6.51e-4 -0.25264,-0.451801 -0.4705,-0.45949 -0.22549,-0.0083 -0.28999,0.442531 -0.5155,0.437068 -0.23402,-0.0055 -0.27882,-0.497175 -0.51538,-0.481897 -0.2466,0.01544 -0.22457,0.57181 -0.47079,0.57157 -0.24057,-2.39e-4 -0.21785,-0.553813 -0.45946,-0.56038 -0.23652,-0.0055 -0.2428,0.524039 -0.48211,0.526735 -0.24792,6.37e-4 -0.26818,-0.515326 -0.51525,-0.537925 -0.39546,-0.03614 -0.56777,0.691514 -0.96374,0.694837 -0.41876,6.55e-4 -0.61716,-0.776873 -1.03111,-0.717223 -0.2419,0.03494 -0.21444,0.567489 -0.45954,0.57155 -0.24632,0.0011 -0.23471,-0.548483 -0.48207,-0.560347 -0.24747,-0.01289 -0.28887,0.525816 -0.53801,0.515502 -0.21236,-0.0091 -0.21108,-0.471712 -0.42576,-0.481904 -0.23337,-0.01267 -0.27857,0.484637 -0.51528,0.481904 -0.24678,-6.59e-4 -0.27944,-0.523738 -0.52681,-0.515502 -0.2342,0.0083 -0.2342,0.5187 -0.47076,0.526715 -0.22512,0.0083 -0.25635,-0.468143 -0.48149,-0.470703 -0.23141,-6.26e-4 -0.27478,0.478472 -0.50478,0.470703 -0.24042,-0.0083 -0.25313,-0.532399 -0.493,-0.526715 -0.23135,0.0055 -0.21829,0.513814 -0.44846,0.526715 -0.25052,0.01447 -0.29712,-0.523807 -0.549,-0.515532 -0.23084,0.0083 -0.24062,0.513105 -0.47063,0.504319 -0.21536,-0.0091 -0.40431,-0.504319 -0.40431,-0.504319 h -3.04807 v 0.773265 c 0,0 1.43187,0.99685398 1.9496,1.68106098 0.41111,0.542317 0.86315,1.849171 0.86315,1.849171 -0.0462,0.219401 -0.18675,0.39691 -0.43701,0.52674 h -3.37349 c -0.15095,-0.161798 -0.29805,-0.311815 -0.44848,-0.414705 -1.26715,-1.22814 -2.44233,-1.016951 -3.49604,-0.504277 -0.88087,0.428337 -1.43068,1.690714 -1.43475,2.566364 -6.7e-4,0.853729 0.39045,1.60258 1.03118,2.084497 0.87178,0.654869 1.89835,0.803983 2.89136,0.470701 0.56567,-0.189876 1.50191,-1.053434 1.50191,-1.053434 h 3.24992 c 0,0 0.39176,0.04715 0.49297,0.190528 0.10788,0.15203 0.004,0.560338 0.004,0.560338 0,0 -1.19313,2.1227459 -2.11802,2.8689569 -0.88647,0.714823 -3.11558,1.400896 -3.11558,1.400896 l -0.95263,0.0448 -2.94757,0.302632 v 2.364671 h 12.28295 V 3.9478401 Z"
     id="profile_right"
     sodipodi:nodetypes="cccssssssssssssssssssssssssssssssssssssssssssssssssssssssssssssssssssssssssssssssssssssssssssssssssssssssssssssssssssssssssssssssssscccsccccssssccscsccccccc"
     inkscape:label="profile_right" />
  <rect
     style="fill:#ddd5d5;fill-opacity:0.768047;fill-rule:evenodd;stroke:#b81e1e;stroke-width:0.0184572"
     id="concrete_left"
     width="140.11058"
     height="49.982468"
     x="-79.928062"
     y="6.3113465" />
  <ellipse
     style="fill:#b4cdd0;fill-opacity:0;fill-rule:evenodd;stroke:#b81e1e;stroke-width:0.00016359"
     id="screw_left"
     cx="-3.260813"
     cy="-0.8582285"
     rx="0.049918205"
     ry="0.032774579"
     transform="scale(-1)"
     inkscape:label="screw_left" />
  <ellipse
     style="fill:#b4cdd0;fill-opacity:0;fill-rule:evenodd;stroke:#b81e1e;stroke-width:0.000455593"
     id="screw_right"
     cx="-197.29886"
     cy="0.87050563"
     rx="0.1390205"
     ry="0.091276094"
     transform="scale(-1,1)"
     inkscape:label="screw_right" />
  <rect
     style="fill:#e1ecec;fill-opacity:0.77;fill-rule:evenodd;stroke:#b81e1e;stroke-width:0.0126854"
     id="finish_left"
     width="140.11874"
     height="2.0309176"
     x="-79.95208"
     y="4.1686201"
     inkscape:label="finish_left" />
  <rect
     style="fill:#e1ecec;fill-opacity:0.77;fill-rule:evenodd;stroke:#b81e1e;stroke-width:0.0144776"
     id="cover_left"
     width="140.11621"
     height="0.12596738"
     x="-79.938797"
     y="3.99226"
     inkscape:label="cover_left" />
  <rect
     style="fill:#ddd5d5;fill-opacity:0.768047;fill-rule:evenodd;stroke:#b81e1e;stroke-width:0.0184876"
     id="concrete_right"
     width="140.57491"
     height="49.982399"
     x="140.54353"
     y="6.2086391"
     inkscape:label="concrete_right" />
  <rect
     style="fill:#e1ecec;fill-opacity:0.77;fill-rule:evenodd;stroke:#b81e1e;stroke-width:0.0127064"
     id="finish_right"
     width="140.58311"
     height="2.0309153"
     x="140.51929"
     y="4.1657939"
     inkscape:label="finish_right" />
  <rect
     style="fill:#e1ecec;fill-opacity:0.77;fill-rule:evenodd;stroke:#b81e1e;stroke-width:0.0145015"
     id="cover_right"
     width="140.58055"
     height="0.12596722"
     x="140.53268"
     y="3.9894514"
     inkscape:label="cover_right" />
  <rect
     style="fill:#404242;fill-opacity:0.341246;fill-rule:evenodd;stroke:#b81e1e;stroke-width:0.0247487"
     id="shadow"
     width="316.43805"
     height="0.0084954519"
     x="-26.491997"
     y="56.126373"
     inkscape:label="shadow" />
  <path
     style="fill:#5e5e5e;fill-rule:evenodd;stroke:#000000;stroke-width:0.0298261"
     d="M 67.104401,4.4407788 64.607163,4.3003449 C 64.296895,4.2376874 64.05445,4.0284624 64.077859,3.7798753 c 0.04496,-0.4772365 0.404968,-0.8512749 0.703465,-1.180306 1.207537,-1.3598276 2.64599,-2.26564508 4.507844,-2.33900344 l 1.254896,-0.008171 39.672956,3.99539457 -0.31107,3.0638225 -33.708701,-3.3814763 c -0.16613,0.025764 -0.308063,0.1002102 -0.410322,0.2547024 -0.05432,0.1213367 -0.08414,0.2462219 -0.02685,0.3838637 0.419636,0.7373338 0.429379,1.5713059 0.376661,2.3645162 0.03894,0.9646031 -0.378854,1.5629973 -0.595802,2.3018057 -0.05818,0.1982615 0.137372,0.5022802 0.382415,0.4960368 l 16.770182,-0.4272523 18.153677,1.8718556 0.0338,0.796466 -1.59283,0.03132 c 0,0 -0.17389,-0.494671 -0.38456,-0.501931 -0.23784,-0.0083 -0.23481,0.520841 -0.47223,0.535485 -0.24609,0.0153 -0.30716,-0.498863 -0.55353,-0.490378 -0.24723,0.0085 -0.27308,0.533825 -0.52045,0.529303 -0.23756,-0.0045 -0.24353,-0.531557 -0.48103,-0.526358 -0.23264,0.0054 -0.21584,0.519493 -0.44809,0.535565 -0.24289,0.01677 -0.29882,-0.510637 -0.54148,-0.49035 -0.2242,0.01887 -0.19476,0.501939 -0.41789,0.529623 -0.25636,0.03178 -0.35676,-0.49582 -0.61391,-0.472467 -0.207,0.01892 -0.21007,0.45042 -0.41772,0.463257 -0.24638,0.01529 -0.31357,-0.503092 -0.5596,-0.484364 -0.23909,0.01823 -0.22695,0.532713 -0.46621,0.547568 -0.24141,0.01502 -0.29347,-0.494504 -0.53543,-0.490322 -0.22592,0.0039 -0.25802,0.475842 -0.4841,0.475114 -0.23757,-7.71e-4 -0.26781,-0.511074 -0.50522,-0.502294 -0.24927,0.0091 -0.24105,0.557811 -0.49044,0.565591 -0.25453,0.0079 -0.28083,-0.552295 -0.53524,-0.544617 -0.23643,0.0071 -0.22985,0.525575 -0.46626,0.535471 -0.24024,0.01 -0.27716,-0.514237 -0.517317,-0.502336 -0.24374,0.01216 -0.22845,0.548319 -0.47229,0.559617 -0.25279,0.01184 -0.28844,-0.5426 -0.54131,-0.532574 -0.24929,0.01 -0.24106,0.559275 -0.49043,0.565595 -0.24605,0.0062 -0.26512,-0.532385 -0.51116,-0.53248 -0.25041,-1e-4 -0.2705,0.550778 -0.52051,0.541366 -0.2326,-0.0088 -0.212,-0.538091 -0.44478,-0.538307 -0.23699,-2.22e-4 -0.21734,0.534986 -0.45417,0.547607 -0.25717,0.0138 -0.29616,-0.548543 -0.55338,-0.538641 -0.25629,0.0099 -0.25216,0.566108 -0.50854,0.577606 -0.24316,0.011 -0.28649,-0.515921 -0.52937,-0.502375 -0.22535,0.01279 -0.21054,0.509477 -0.43597,0.517495 -0.25571,0.0091 -0.27963,-0.561942 -0.53525,-0.550652 -0.24286,0.01056 -0.21739,0.552195 -0.46026,0.565687 -0.24141,0.01332 -0.27541,-0.51246 -0.51725,-0.508369 -0.2519,0.0047 -0.26875,0.545369 -0.52055,0.547406 -0.2402,0.0016 -0.26487,-0.519463 -0.50518,-0.514365 -0.23496,0.0048 -0.23742,0.51843 -0.47221,0.523413 -0.24022,0.0054 -0.26196,-0.519117 -0.50519,-0.514361 -0.24314,0.0048 -0.25004,0.541126 -0.49639,0.54748 -0.24576,0.0062 -0.27767,-0.53353 -0.52326,-0.520456 -0.23996,0.01275 -0.21417,0.547598 -0.4542,0.559678 -0.27557,0.01404 -0.30836,-0.608144 -0.58339,-0.587005 -0.2499,0.01937 -0.19213,0.593723 -0.4423,0.607978 -0.25133,0.01441 -0.25919,-0.561505 -0.51108,-0.556612 -0.25248,0.0047 -0.23816,0.566297 -0.49045,0.577662 -0.24434,0.01099 -0.27889,-0.52091 -0.52328,-0.514426 -0.23906,0.0062 -0.24503,0.52446 -0.4843,0.529415 -0.25597,0.0053 -0.28549,-0.553309 -0.54127,-0.544637 -0.23089,0.0077 -0.22367,0.506363 -0.4541,0.523478 -0.22916,0.0171 -0.29438,-0.464136 -0.5235,-0.448062 -0.21604,0.0151 -0.21393,0.469078 -0.42985,0.48735 -0.2467,0.02083 -0.33066,-0.480618 -0.57775,-0.466322 -0.23002,0.01336 -0.25369,0.49251 -0.48414,0.493221 -0.23612,8.68e-4 -0.26316,-0.509971 -0.4992,-0.50228 -0.23936,0.0077 -0.2328,0.533001 -0.47226,0.541515 -0.2373,0.0083 -0.26783,-0.505098 -0.50522,-0.502293 -0.23904,0.003 -0.25753,0.511263 -0.49629,0.517307 -0.25891,0.0067 -0.30722,-0.551737 -0.56547,-0.532647 -0.24725,0.01821 -0.21278,0.572501 -0.4603,0.583784 -0.241712,0.011 -0.257271,-0.525689 -0.499117,-0.526405 -0.239033,-7.04e-4 -0.257523,0.508361 -0.496296,0.517309 -0.223602,0.0083 -0.275879,-0.452958 -0.499384,-0.447979 -0.217457,0.0048 -0.250555,0.425977 -0.465933,0.457074 -0.198274,0.02867 -0.316533,-0.379922 -0.535411,-0.502391 -0.213566,-0.119509 -0.228518,0.525947 -0.466208,0.541534 -0.238793,0.01561 -0.296203,-0.483223 -0.535457,-0.478254 -0.241717,0.0048 -0.278653,0.504466 -0.520402,0.505171 -0.23895,8.59e-4 -0.278437,-0.50289 -0.517318,-0.496305 -0.227584,0.0063 -0.238408,0.497863 -0.466078,0.499306 -0.228976,0.0016 -0.246113,-0.498535 -0.475077,-0.496176 -0.250512,0.0024 -0.258087,0.545643 -0.508486,0.553475 -0.244511,0.0077 -0.285118,-0.522929 -0.529331,-0.508405 -0.209753,0.01255 -0.190072,0.47313 -0.3997,0.487452 -0.242784,0.01677 -0.292111,-0.502672 -0.5354,-0.496361 -0.248799,0.0062 -0.27175,0.527428 -0.520495,0.535333 -0.24338,0.0077 -0.298261,-0.502467 -0.541452,-0.490342 -0.240363,0.01217 -0.245848,0.502927 -0.484301,0.535445 -0.751628,0.102498 -2.427862,-0.05111 -2.425814,-0.01211 -1.030008,-0.08632 -2.017334,-0.524818 -2.905832,-1.160766 -0.7523,-0.620162 -1.404062,-1.261546 -1.708847,-1.9761595 -0.07988,-0.1249258 -0.131381,-0.2535403 0.02694,-0.4094549 0.196313,-0.3139065 0.298456,-0.2101286 0.435944,-0.2631457 0.816153,-0.1429228 1.644252,-0.243518 2.492193,-0.2738874 0.750896,0.5244786 1.49612,1.0605376 2.530897,1.0060411 0.766634,-0.017201 1.572052,-0.2076371 2.580689,-1.3059816 0.507469,-0.6892511 0.675883,-1.4279988 0.621081,-2.1993391 -0.05428,-0.9258833 -0.472764,-1.6754597 -1.18745,-2.281701 -0.744692,-0.5580264 -1.588785,-0.8438413 -2.6088,-0.647942 -0.594282,0.014512 -1.345106,0.4811105 -2.132377,1.0529377 z"
     id="compensator_left"
     sodipodi:nodetypes="ccscccccccccssccccsssssssssssssssssssssssssssssssssssasasssssssssssssssssssssssssssssssssssssscccccccccccc"
     inkscape:label="compensator_left">
    <title
       id="title3">metal</title>
  </path>
  <path
     style="fill:#5e5e5e;fill-rule:evenodd;stroke:#000000;stroke-width:0.0298261"
     d="m 133.50659,8.668184 2.49724,0.1404339 c 0.31026,0.062657 0.55271,0.2718825 0.52929,0.5204651 -0.045,0.4772366 -0.40498,0.851278 -0.70347,1.180308 -1.20755,1.359827 -2.646,2.265646 -4.50783,2.339002 l -1.2549,0.0082 -39.672987,-3.9953984 0.3111,-3.0638209 33.708717,3.3814749 c 0.16614,-0.02575 0.30805,-0.1002103 0.41029,-0.2547025 0.0543,-0.1213367 0.0843,-0.24622 0.0274,-0.383859 -0.41965,-0.7373339 -0.42939,-1.5713089 -0.37668,-2.3645162 -0.0388,-0.9646012 0.37886,-1.5629973 0.59582,-2.3018086 0.058,-0.1982315 -0.13737,-0.5022773 -0.38241,-0.4960353 l -16.7702,0.4272522 -18.153647,-1.8718562 -0.0338,-0.7964624 1.59281,-0.031318 c 0,0 0.17388,0.4946695 0.38456,0.5019265 0.23784,0.00827 0.23481,-0.5208379 0.47222,-0.5354821 0.24608,-0.015295 0.3072,0.4988634 0.55353,0.4903791 0.24724,-0.00852 0.27307,-0.5338275 0.52048,-0.5293039 0.23757,0.0045 0.24353,0.531557 0.48104,0.5263591 0.23263,-0.00537 0.21582,-0.5194956 0.44808,-0.5355695 0.24288,-0.016769 0.29881,0.5106385 0.54145,0.4903506 0.22421,-0.018857 0.19476,-0.5019344 0.41793,-0.52961982 0.25634,-0.03178 0.35673,0.49582002 0.61391,0.47246352 0.20698,-0.01891 0.21007,-0.4504203 0.4177,-0.46325512 0.2461,-0.015295 0.31359,0.50309132 0.55957,0.48436682 0.23909,-0.018231 0.22696,-0.53271812 0.46626,-0.54757262 0.24141,-0.015019 0.29342,0.49450402 0.5354,0.49032332 0.22591,-0.00394 0.25802,-0.47583932 0.48412,-0.47511102 0.23758,7.694e-4 0.26782,0.51107372 0.50522,0.50228932 0.24928,-0.00909 0.24104,-0.55780933 0.49041,-0.56558961 0.25453,-0.007917 0.28082,0.55229821 0.53527,0.54461761 0.23673,-0.0071 0.22986,-0.52557322 0.466267,-0.53547141 0.24024,-0.009991 0.27714,0.51423901 0.51727,0.50233811 0.24374,-0.012155 0.22847,-0.54832236 0.4723,-0.55961591 0.25279,-0.0118373 0.28845,0.54260021 0.54135,0.53257441 0.24929,-0.00996 0.24105,-0.55927831 0.49041,-0.56559981 0.24606,-0.006203 0.26512,0.53238921 0.51117,0.53248151 0.25042,9.99e-5 0.27051,-0.55077558 0.52052,-0.54136293 0.23258,0.008837 0.21198,0.53809123 0.44478,0.53830653 0.23699,2.18e-4 0.21734,-0.53498674 0.45417,-0.54760985 0.25717,-0.0137959 0.29616,0.54854615 0.55338,0.53864385 0.25629,-0.00994 0.25216,-0.56610881 0.50854,-0.57760586 0.24316,-0.0109969 0.28648,0.51591946 0.52935,0.50237246 0.22507,-0.012503 0.21055,-0.50947718 0.43599,-0.51749212 0.2557,-0.009073 0.27962,0.56193762 0.53525,0.55064852 0.24286,-0.010708 0.21739,-0.552192 0.46023,-0.56568403 0.24141,-0.0133224 0.2757,0.51245823 0.51728,0.50836913 0.2519,-0.00473 0.26873,-0.54537067 0.52054,-0.54740541 0.24021,-0.00158 0.26487,0.51945791 0.50518,0.51436141 0.23496,-0.00479 0.23714,-0.51843229 0.47218,-0.52341449 0.24023,-0.005351 0.26196,0.51911969 0.50519,0.51436139 0.24343,-0.00476 0.25004,-0.54112578 0.4964,-0.54747973 0.24606,-0.006203 0.27768,0.53353143 0.52329,0.52045973 0.23994,-0.012747 0.21416,-0.54759934 0.4542,-0.5596818 0.27556,-0.0140438 0.30832,0.608148 0.58338,0.5870087 0.2499,-0.019372 0.19213,-0.59372242 0.4423,-0.60798074 0.25134,-0.0144084 0.2592,0.56150784 0.51107,0.55661234 0.25248,-0.00473 0.23815,-0.56629705 0.49048,-0.57765869 0.24431,-0.0109933 0.27887,0.52090759 0.52328,0.51442579 0.23905,-0.00622 0.24503,-0.52446065 0.48425,-0.52941548 0.25599,-0.005302 0.28549,0.55330878 0.54131,0.54463628 0.23088,-0.0077 0.22368,-0.50636253 0.45409,-0.5234775 0.22917,-0.0171014 0.29438,0.464136 0.52349,0.4480611 0.21602,-0.015097 0.21392,-0.46908139 0.42984,-0.48734888 0.24669,-0.0208322 0.33065,0.48061796 0.57774,0.46631816 0.23002,-0.013358 0.25369,-0.49250998 0.48418,-0.49322115 0.23613,-8.6784e-4 0.26315,0.50997327 0.49918,0.50228235 0.23934,-0.00767 0.2328,-0.53300026 0.47224,-0.54151444 0.23732,-0.00826 0.26784,0.50509654 0.50525,0.50229234 0.23904,-0.00303 0.25725,-0.51126475 0.49631,-0.51730913 0.2589,-0.006743 0.3072,0.55173843 0.56545,0.53264863 0.24727,-0.018206 0.21278,-0.57249893 0.46029,-0.58378549 0.24169,-0.0108564 0.25726,0.52569309 0.49913,0.52640609 0.23903,7.072e-4 0.25753,-0.50836079 0.49631,-0.51730624 0.22358,-0.008302 0.27587,0.45295818 0.49934,0.4479751 0.21745,-0.004841 0.25057,-0.42597587 0.46597,-0.457074 0.19826,-0.0286669 0.31652,0.37992136 0.5354,0.50239393 0.21356,0.11950813 0.2284,-0.52595038 0.46619,-0.54153308 0.23881,-0.0156071 0.29619,0.48322347 0.53549,0.47825145 0.24167,-0.004766 0.27852,-0.50446355 0.52037,-0.5051731 0.23904,-8.5887e-4 0.27835,0.50289281 0.51732,0.49630582 0.22767,-0.006259 0.23852,-0.49785828 0.46611,-0.49930637 0.22881,-0.001615 0.24595,0.49853408 0.47504,0.49617563 0.25044,-0.002419 0.25824,-0.54564079 0.50848,-0.55347206 0.24461,-0.007657 0.28529,0.52292705 0.52937,0.50840636 0.20959,-0.0125504 0.19,-0.47313124 0.39966,-0.487452 0.24288,-0.0167691 0.29212,0.50266988 0.53543,0.49636161 0.24868,-0.006195 0.27188,-0.52742753 0.52049,-0.5353334 0.24344,-0.007661 0.29825,0.50246395 0.54144,0.49034188 0.24025,-0.0121659 0.24585,-0.50293138 0.48431,-0.53544918 0.7516,-0.10249843 2.42785,0.0511114 2.42581,0.0121119 1.03002,0.0863213 2.01734,0.52481778 2.90583,1.16076607 0.7523,0.6201621 1.40407,1.2615413 1.70886,1.9761594 0.0799,0.124926 0.13147,0.2535405 -0.0275,0.4094487 -0.19622,0.3139112 -0.29847,0.2101301 -0.43594,0.2631472 -0.81615,0.1429228 -1.64425,0.2435166 -2.49219,0.273886 -0.7509,-0.5244771 -1.49613,-1.0605376 -2.5309,-1.0060368 -0.76665,0.017186 -1.57206,0.2076357 -2.58068,1.3059817 -0.50748,0.6892481 -0.6759,1.4279987 -0.6211,2.1993376 0.0543,0.9258833 0.47278,1.6754612 1.18747,2.2816981 0.74471,0.5580265 1.58877,0.8438417 2.6088,0.647942 0.59428,-0.014512 1.34508,-0.4811091 2.13238,-1.0529362 z"
     id="compensator_right"
     sodipodi:nodetypes="ccscccccccccssccccsssssssssssssssssssssssssssssssssssasasssssssssssssssssssssssssssssssssssssscccccccccccc"
     inkscape:label="compensator_right">
    <title
       id="title4">metal</title>
  </path>
</svg>
