<?xml version="1.0" encoding="UTF-8" standalone="no"?>
<!-- Created with Inkscape (http://www.inkscape.org/) -->

<svg
   width="210mm"
   height="297mm"
   viewBox="0 0 210 297"
   version="1.1"
   id="svg1"
   inkscape:version="1.4 (86a8ad7, 2024-10-11)"
   sodipodi:docname="DSHA-15-050.svg"
   xmlns:inkscape="http://www.inkscape.org/namespaces/inkscape"
   xmlns:sodipodi="http://sodipodi.sourceforge.net/DTD/sodipodi-0.dtd"
   xmlns="http://www.w3.org/2000/svg"
   xmlns:svg="http://www.w3.org/2000/svg">
  <sodipodi:namedview
     id="namedview1"
     pagecolor="#ffffff"
     bordercolor="#000000"
     borderopacity="0.25"
     inkscape:showpageshadow="2"
     inkscape:pageopacity="0.0"
     inkscape:pagecheckerboard="0"
     inkscape:deskcolor="#d1d1d1"
     inkscape:document-units="mm"
     inkscape:zoom="1.0467522"
     inkscape:cx="395.0314"
     inkscape:cy="104.60928"
     inkscape:window-width="2560"
     inkscape:window-height="1377"
     inkscape:window-x="-8"
     inkscape:window-y="-8"
     inkscape:window-maximized="1"
     inkscape:current-layer="svg1" />
  <defs
     id="defs1" />
  <path
     style="fill:#5e5e5e;fill-rule:evenodd;stroke:#000000;stroke-width:0.0424045"
     d="M 8.6217253,12.019037 H 18.29158 63.937065 c 0.538858,-0.04148 0.945134,-0.303325 1.073478,-1.028409 V 0.10995925 h 1.08568 c 0,0 0.197514,0.520835 0.424531,0.533725 0.22283,0.01232 0.250215,-0.474377 0.473083,-0.473067 0.243166,0.0011 0.266813,0.532967 0.509439,0.521582 0.24399,-0.01162 0.216603,-0.560128 0.460964,-0.570109 0.239847,-0.01008 0.257272,0.531017 0.49732,0.521594 0.224072,-0.0088 0.201254,-0.503862 0.424532,-0.521594 0.253953,-0.02033 0.316194,0.532651 0.570145,0.509465 0.203736,-0.01867 0.375946,-0.485203 0.375946,-0.485203 h 1.043186 v 0.764194 l -1.115968,0.93401795 -0.9726,1.091136 c 0.029,0 -0.556451,0.831031 -0.669028,1.325189 -0.07096,0.311626 0.518934,0.806283 0.518934,0.806283 l 3.156446,-0.0166 1.299456,-0.999253 c 0.719072,-0.342166 1.438093,-0.369716 2.157161,-0.09432 0.827164,0.325734 1.351326,0.840863 1.629675,1.50959 0.334868,0.899162 0.362665,1.639678 0.0332,2.195793 -0.312043,0.749487 -0.755048,1.362576 -1.612539,1.543906 -0.842431,0.394201 -1.624739,0.247313 -2.375879,-0.180088 l -1.123643,-0.849154 h -3.182172 c -0.307066,0.09668 -0.573423,0.238598 -0.497487,0.763385 l 0.900606,1.6125398 1.312367,1.363773 1.638221,0.883469 1.818396,0.454579 3.482344,0.282999 V 14.97879 H 8.3943773 v -2.736145 c -0.0033,-0.118263 0.08499,-0.185897 0.227351,-0.223242 z"
     id="profile_left"
     sodipodi:nodetypes="ccccccssssssscccccsccccccccccccccccccccc"
     inkscape:label="profile_left" />
  <path
     style="fill:#5e5e5e;fill-rule:evenodd;stroke:#000000;stroke-width:0.0424045"
     d="m 201.55919,11.930282 h -9.67007 -45.64527 c -0.53886,-0.04148 -0.94514,-0.303326 -1.07348,-1.028411 V 0.02120225 h -1.08568 c 0,0 -0.19751,0.520836 -0.42452,0.533726 -0.22283,0.01232 -0.25021,-0.474376 -0.47309,-0.473068 -0.24316,0.0011 -0.26681,0.532969 -0.50944,0.521582 -0.24398,-0.01162 -0.2166,-0.560126 -0.46096,-0.570107 -0.23985,-0.01008 -0.25727,0.531017 -0.49732,0.521593 -0.22406,-0.0088 -0.20126,-0.503861 -0.42453,-0.521593 -0.25395,-0.02033 -0.31619,0.532652 -0.57015,0.509463 -0.20373,-0.01868 -0.37594,-0.485203 -0.37594,-0.485203 h -1.04318 v 0.764197 l 1.11596,0.93401495 0.9726,1.091138 c -0.0289,0 0.55645,0.83103 0.66903,1.325189 0.071,0.311626 -0.51893,0.806284 -0.51893,0.806284 l -3.15645,-0.01659 -1.29946,-0.999252 c -0.71907,-0.342167 -1.43809,-0.369715 -2.15717,-0.09432 -0.82716,0.325733 -1.35132,0.840862 -1.62966,1.509591 -0.33487,0.899162 -0.36267,1.63968 -0.0332,2.195793 0.31204,0.749485 0.75504,1.362575 1.61253,1.543905 0.84244,0.3942 1.62475,0.247315 2.37588,-0.180087 l 1.12365,-0.849154 h 3.18217 c 0.30706,0.0967 0.57342,0.238597 0.49748,0.763384 l -0.90059,1.6125398 -1.31238,1.363773 -1.63822,0.88347 -1.81839,0.454578 -3.48235,0.283 v 1.440999 h 68.8785 v -2.736149 c 0.004,-0.118263 -0.0849,-0.185897 -0.22735,-0.223242 z"
     id="profile_right"
     sodipodi:nodetypes="ccccccssssssscccccsccccccccccccccccccccc"
     onclick=""
     inkscape:label="profile_right" />
  <rect
     style="fill:#b8b8b8;fill-opacity:1;fill-rule:evenodd;stroke:#b81e1e;stroke-width:0.0451594"
     id="concrete_right"
     width="78.169731"
     height="54.251862"
     x="132.83646"
     y="15.048098" />
  <rect
     style="fill:#b8b8b8;fill-opacity:1;fill-rule:evenodd;stroke:#b81e1e;stroke-width:0.0450992"
     id="concrete_left"
     width="78.208832"
     height="54.080254"
     x="-1.0062168"
     y="15.038652" />
  <rect
     style="fill:#a39a9a;fill-rule:evenodd;stroke:#b81e1e;stroke-width:0.0205795"
     id="finish_right"
     width="65.819427"
     height="9.644803"
     x="145.17999"
     y="5.2463965" />
  <rect
     style="fill:#a39a9a;fill-rule:evenodd;stroke:#b81e1e;stroke-width:0.0204448"
     id="finish_left"
     width="65.819572"
     height="9.5185556"
     x="-0.90325236"
     y="5.2911887" />
  <rect
     style="fill:#a39a9a;fill-rule:evenodd;stroke:#b81e1e;stroke-width:0.0329314"
     id="cover_right"
     width="65.769066"
     height="4.9670687"
     x="145.11545"
     y="0.18754357" />
  <rect
     style="fill:#a39a9a;fill-rule:evenodd;stroke:#b81e1e;stroke-width:0.0329316"
     id="cover_left"
     width="65.769104"
     height="4.9670682"
     x="-0.85649753"
     y="0.22004861" />
  <rect
     style="fill:#404242;fill-opacity:0.341246;fill-rule:evenodd;stroke:#b81e1e;stroke-width:0.0198777"
     id="shadow"
     width="137.48599"
     height="0.01261392"
     x="29.150843"
     y="68.939667"
     inkscape:label="shadow" />
  <ellipse
     style="opacity:0;fill:none;fill-opacity:0;fill-rule:evenodd;stroke-width:0.00368993;stroke-opacity:0"
     id="bolt_left"
     cx="-18.255661"
     cy="-12.106802"
     rx="0.094999999"
     ry="0.028942173"
     inkscape:label="bolt_left"
     transform="scale(-1)" />
  <ellipse
     style="opacity:0;fill:none;fill-opacity:0;fill-rule:evenodd;stroke-width:0.000191947;stroke-opacity:0"
     id="bolt_right"
     cx="191.89406"
     cy="12.030367"
     rx="0.0049418169"
     ry="0.0015055466"
     inkscape:label="bolt_right" />
  <path
     style="fill:#5e5e5e;fill-rule:evenodd;stroke:#000000;stroke-width:0.0300175"
     d="m 71.706923,4.5743123 -2.513682,-0.13359 c -0.312452,-0.0621 -0.5571,-0.27191 -0.534311,-0.52217 0.04377,-0.48043 0.404925,-0.85798 0.704316,-1.19005 1.211063,-1.37229 2.65593,-2.28837192 4.529493,-2.36797192 l 1.262915,-0.01211 39.939686,3.89803492 -0.30357,3.08442 -33.935288,-3.29866 c -0.167116,0.0264 -0.309728,0.10181 -0.412163,0.25761 -0.05429,0.12228 -0.08392,0.24806 -0.02583,0.3864 0.424612,0.74076 0.437003,1.58005 0.386405,2.37851 0.04218,0.97067 -0.376437,1.57419 -0.592486,2.31841 -0.05794,0.19971 0.13981,0.50508 0.386405,0.49803 l 16.876364,-0.48197 18.275873,1.8275807 0.0365,0.80147 -1.60294,0.0365 c 0,0 -0.17654,-0.4973 -0.38858,-0.50396 -0.2394,-0.008 -0.2347,0.52491 -0.4736,0.54038 -0.24762,0.0162 -0.31068,-0.50111 -0.5586,-0.4918 -0.24879,0.009 -0.27317,0.53809 -0.52215,0.53431 -0.23909,-0.004 -0.24674,-0.53421 -0.48574,-0.52824 -0.23412,0.006 -0.21561,0.52349 -0.44931,0.54038 -0.24439,0.0176 -0.30231,-0.51298 -0.54647,-0.49181 -0.22558,0.0197 -0.19445,0.50576 -0.41892,0.53431 -0.2579,0.0328 -0.36059,-0.49789 -0.61931,-0.47359 -0.20827,0.0197 -0.21002,0.45396 -0.41896,0.46752 -0.24791,0.0162 -0.31715,-0.50534 -0.56469,-0.48573 -0.24057,0.0191 -0.22676,0.53683 -0.4675,0.55252 -0.24292,0.0159 -0.29689,-0.49677 -0.54039,-0.49181 -0.22736,0.005 -0.2582,0.4797 -0.48573,0.47966 -0.23909,-3e-5 -0.27111,-0.51352 -0.51002,-0.50394 -0.25084,0.01 -0.24086,0.56213 -0.49183,0.57073 -0.25614,0.009 -0.28433,-0.55496 -0.54036,-0.54645 -0.23792,0.008 -0.22969,0.52966 -0.46759,0.54035 -0.24175,0.0108 -0.28052,-0.51667 -0.52218,-0.50395 -0.24527,0.013 -0.22822,0.55254 -0.47359,0.56467 -0.25438,0.0127 -0.29197,-0.54519 -0.54643,-0.53431 -0.25086,0.0108 -0.24088,0.56361 -0.49182,0.57074 -0.24761,0.007 -0.26847,-0.53498 -0.51609,-0.53431 -0.25202,6.8e-4 -0.27052,0.55515 -0.52217,0.54645 -0.23412,-0.008 -0.21503,-0.54088 -0.4493,-0.54038 -0.23851,5.1e-4 -0.21707,0.53909 -0.45538,0.55253 -0.25878,0.0147 -0.29976,-0.55115 -0.5586,-0.54038 -0.2579,0.0108 -0.25202,0.57052 -0.51002,0.58288 -0.244683,0.0118 -0.289923,-0.51834 -0.534313,-0.50395 -0.22676,0.0136 -0.21031,0.51339 -0.43716,0.52216 -0.25732,0.01 -0.28317,-0.56468 -0.54039,-0.55252 -0.24439,0.0114 -0.21707,0.55641 -0.46146,0.57074 -0.24292,0.0142 -0.27876,-0.51489 -0.52214,-0.51002 -0.2535,0.005 -0.26878,0.54969 -0.52219,0.55252 -0.24174,0.002 -0.26818,-0.52197 -0.51002,-0.51609 -0.23645,0.005 -0.23732,0.52249 -0.47362,0.52823 -0.24173,0.006 -0.26524,-0.52163 -0.51001,-0.51609 -0.24468,0.005 -0.24997,0.54537 -0.49788,0.55253 -0.24732,0.007 -0.2811,-0.53609 -0.52822,-0.52217 -0.24146,0.0136 -0.21385,0.55177 -0.45538,0.56467 -0.2773,0.015 -0.31222,-0.61109 -0.58895,-0.58896 -0.25144,0.0203 -0.19152,0.59812 -0.44325,0.61325 -0.2529,0.0153 -0.26259,-0.5643 -0.51609,-0.5586 -0.25408,0.005 -0.23793,0.57066 -0.4918,0.58289 -0.24586,0.0118 -0.28229,-0.52339 -0.52823,-0.51611 -0.24057,0.007 -0.24497,0.52859 -0.48576,0.53431 -0.2576,0.006 -0.28903,-0.55597 -0.54643,-0.54645 -0.23235,0.008 -0.22353,0.51031 -0.45539,0.52825 -0.23057,0.0179 -0.2977,-0.4662 -0.52824,-0.44932 -0.21738,0.0159 -0.21385,0.47275 -0.43109,0.49181 -0.24822,0.0217 -0.33428,-0.48267 -0.5829,-0.46752 -0.23146,0.0142 -0.25379,0.49645 -0.48572,0.49788 -0.23763,0.002 -0.26643,-0.51242 -0.50396,-0.50395 -0.24087,0.008 -0.23264,0.53714 -0.4736,0.54645 -0.2388,0.009 -0.27111,-0.50751 -0.51002,-0.50395 -0.24057,0.004 -0.2576,0.51534 -0.49787,0.52217 -0.26055,0.008 -0.3109,-0.55433 -0.57074,-0.53431 -0.24879,0.0191 -0.21238,0.57683 -0.46145,0.58895 -0.24322,0.0118 -0.26055,-0.52826 -0.50395,-0.52823 -0.24056,3e-5 -0.25759,0.51242 -0.49787,0.52216 -0.22501,0.009 -0.27905,-0.45501 -0.50397,-0.4493 -0.21884,0.006 -0.25084,0.42948 -0.46751,0.46145 -0.19945,0.0295 -0.319737,-0.38138 -0.540398,-0.50396 -0.215305,-0.11961 -0.228352,0.53003 -0.467519,0.54646 -0.240275,0.0165 -0.2996,-0.48541 -0.540371,-0.47967 -0.243253,0.005 -0.278877,0.50857 -0.522173,0.51003 -0.24048,0.002 -0.281781,-0.50525 -0.522173,-0.49789 -0.229023,0.007 -0.238392,0.5018 -0.467518,0.50396 -0.230439,0.002 -0.249236,-0.50097 -0.479661,-0.49789 -0.252111,0.003 -0.25805,0.54994 -0.51003,0.5586 -0.246055,0.009 -0.288567,-0.5254 -0.5343,-0.51002 -0.211059,0.0133 -0.189824,0.47675 -0.400751,0.49181 -0.244289,0.0176 -0.295543,-0.50499 -0.540372,-0.49788 -0.250374,0.007 -0.271857,0.53165 -0.522173,0.54038 -0.244916,0.008 -0.30173,-0.50477 -0.546442,-0.49181 -0.241866,0.013 -0.245865,0.50692 -0.485746,0.54038 -0.756129,0.10549 -2.443585,-0.0439 -2.441403,-0.005 -1.03688,-0.0837 -2.031895,-0.52193 -2.92806,-1.1592 -0.759045,-0.62181 -1.416974,-1.26528 -1.725927,-1.9835303 -0.08078,-0.1254804 -0.13301,-0.2547604 0.02585,-0.4121604 0.196598,-0.31653 0.299718,-0.21241 0.437923,-0.26619 0.820942,-0.14637 1.654038,-0.25017 2.507321,-0.28337 0.757336,0.52552 1.508999,1.0627007 2.550241,1.0046504 0.771496,-0.0197 1.581487,-0.2138404 2.593186,-1.3223604 0.508586,-0.69524 0.675789,-1.43924 0.618245,-2.21536 -0.05753,-0.93162 -0.481015,-1.68471 -1.202162,-2.29262 -0.751196,-0.5593 -1.601586,-0.84433 -2.627533,-0.64401 -0.598047,0.0165 -1.352238,0.48836 -2.142784,1.0663 z"
     id="compensator_left"
     sodipodi:nodetypes="ccscccccccccssccccsssssssssssssssssssssssssssssssssssasasssssssssssssssssssssssssssssssssssssscccccccccccc"
     inkscape:label="compensator_left">
    <title
       id="title3">metal</title>
  </path>
  <path
     style="fill:#5e5e5e;fill-rule:evenodd;stroke:#000000;stroke-width:0.0300175"
     d="m 138.54792,8.6229923 2.51368,0.13359 c 0.31245,0.0621 0.5571,0.27191 0.5343,0.52216 -0.0438,0.48044 -0.40494,0.8579907 -0.70432,1.1900607 -1.21108,1.37229 -2.65594,2.28837 -4.52947,2.36797 l -1.26292,0.0121 -39.939733,-3.8980307 0.3036,-3.08443 33.935313,3.29866 c 0.16713,-0.0264 0.30971,-0.10181 0.41213,-0.25761 0.0543,-0.12228 0.0841,-0.24806 0.0264,-0.3864 -0.42463,-0.74076 -0.43702,-1.58005 -0.38642,-2.37851 -0.042,-0.97066 0.37643,-1.57419 0.5925,-2.31841 0.0578,-0.19968 -0.13981,-0.50507 -0.38641,-0.49803 l -16.87636,0.48198 -18.275843,-1.82759 -0.0365,-0.80146 1.60293,-0.0365 c 0,0 0.17653,0.4973 0.38858,0.50395 0.2394,0.008 0.2347,-0.5249 0.47359,-0.54038 0.24761,-0.0161 0.31072,0.50111 0.5586,0.49181 0.24879,-0.009 0.27317,-0.53809 0.52217,-0.53431 0.23911,0.004 0.24674,0.53421 0.48576,0.52824 0.2341,-0.006 0.2156,-0.52349 0.44929,-0.54039 0.24439,-0.0176 0.30231,0.51299 0.54644,0.49182 0.2256,-0.0197 0.19445,-0.50576 0.41897,-0.53431 0.257893,-0.0328 0.360563,0.49789 0.619313,0.47359 0.20826,-0.0197 0.21002,-0.45396 0.41895,-0.46752 0.24763,-0.0162 0.31716,0.50534 0.56466,0.48573 0.24057,-0.0191 0.22676,-0.53682996 0.46755,-0.55251996 0.24291,-0.0159 0.29684,0.49675996 0.54035,0.49179996 0.22735,-0.005 0.2582,-0.47968996 0.48575,-0.47964996 0.23911,3e-5 0.27113,0.51351996 0.51001,0.50393996 0.25086,-0.01 0.24086,-0.56212992 0.49181,-0.57073992 0.25614,-0.009 0.28433,0.55496992 0.54038,0.54644992 0.23824,-0.008 0.22971,-0.52964992 0.46761,-0.54034992 0.24174,-0.0108 0.28051,0.51667992 0.52213,0.50395992 0.24527,-0.013 0.22824,-0.55254992 0.47359,-0.56466992 0.25438,-0.0127 0.29198,0.54518992 0.54647,0.53430992 0.25086,-0.0108 0.24086,-0.56360992 0.49181,-0.57073992 0.24761,-0.007 0.26847,0.53497992 0.5161,0.53430992 0.25202,-6.8e-4 0.27053,-0.55514992 0.52217,-0.54644992 0.2341,0.008 0.21501,0.54087992 0.44931,0.54037992 0.23851,-5.2e-4 0.21707,-0.53908992 0.45537,-0.55252992 0.25878,-0.0147 0.29976,0.55113992 0.5586,0.54037992 0.25791,-0.0108 0.25202,-0.57051992 0.51002,-0.58287992 0.24468,-0.0118 0.28991,0.51833992 0.5343,0.50394992 0.22647,-0.0133 0.21031,-0.51339992 0.43718,-0.52215992 0.2573,-0.01 0.28315,0.56466992 0.54038,0.55251992 0.24439,-0.0115 0.21707,-0.55640992 0.46143,-0.57073992 0.24292,-0.0142 0.27906,0.51488992 0.52218,0.51001992 0.25349,-0.006 0.26876,-0.54969992 0.52218,-0.55251992 0.24174,-0.002 0.26818,0.52195992 0.51001,0.51608992 0.23646,-0.006 0.23705,-0.52248992 0.47358,-0.52822992 0.24175,-0.006 0.26525,0.52162992 0.51002,0.51608992 0.24498,-0.006 0.24997,-0.54536992 0.49789,-0.55252992 0.24762,-0.007 0.28111,0.53608992 0.52826,0.52216992 0.24144,-0.0136 0.21383,-0.55176992 0.45537,-0.56467292 0.27729,-0.01499 0.31218,0.61109292 0.58894,0.58896292 0.25144,-0.0203 0.19152,-0.59812392 0.44325,-0.61324892 0.25293,-0.01528 0.26261,0.56429892 0.51609,0.55859892 0.25408,-0.006 0.23792,-0.57066792 0.49182,-0.58288492 0.24585,-0.01182 0.28227,0.52338492 0.52823,0.51610492 0.24056,-0.007 0.24497,-0.52858592 0.48571,-0.53431392 0.25762,-0.0061 0.28904,0.55597392 0.54648,0.54645392 0.23233,-0.008 0.22353,-0.51030592 0.45537,-0.52824492 0.23059,-0.01792 0.2977,0.46619496 0.52823,0.44931496 0.21736,-0.0159 0.21385,-0.47275596 0.43109,-0.49180996 0.2482,-0.02173 0.33426,0.48266996 0.58289,0.46751996 0.23146,-0.0142 0.25379,-0.49645696 0.48576,-0.49788696 0.23763,-0.0016 0.26641,0.51242696 0.50393,0.50395696 0.24086,-0.008 0.23264,-0.53714096 0.47359,-0.54645196 0.23881,-0.009 0.27112,0.507502 0.51004,0.503942 0.24057,-0.004 0.25732,-0.515335 0.49789,-0.522159 0.26055,-0.0076 0.31088,0.55431896 0.57073,0.53430896 0.2488,-0.0191 0.21237,-0.57682796 0.46143,-0.58895396 0.24321,-0.01167 0.26055,0.528264 0.50396,0.528234 0.24058,-3e-5 0.25761,-0.512418 0.49789,-0.522161 0.22499,-0.009 0.27905,0.455011 0.50393,0.449301 0.21883,-0.006 0.25085,-0.429485 0.46755,-0.461451 0.19944,-0.02947 0.31972,0.381381 0.54038,0.503951 0.21531,0.11961996 0.22824,-0.530026 0.46751,-0.546445 0.24029,-0.01645 0.29958,0.485405 0.5404,0.479655 0.2432,-0.006 0.27874,-0.508559 0.52214,-0.510023 0.24057,-0.0016 0.28169,0.505253 0.52217,0.497883 0.22911,-0.007 0.23851,-0.501788 0.46755,-0.503951 0.23028,-0.0023 0.24908,0.500971 0.47963,0.497881 0.25204,-0.003 0.2582,-0.549936 0.51002,-0.558593 0.24615,-0.0085 0.28874,0.525393 0.53434,0.510023 0.2109,-0.0133 0.18975,-0.476752 0.40071,-0.491814 0.24439,-0.01763 0.29556,0.504984 0.5404,0.497884 0.25026,-0.007 0.27199,-0.531652 0.52217,-0.540379 0.24498,-0.0085 0.30172,0.504759 0.54643,0.491809 0.24175,-0.013 0.24586,-0.50692 0.48576,-0.540385 0.7561,-0.105485 2.44357,0.04391 2.4414,0.0047 1.03689,0.08368 2.03189,0.521925 2.92805,1.15920492 0.75905,0.6218 1.41699,1.26527 1.72594,1.98353 0.0808,0.12548 0.1331,0.25475 -0.0264,0.41216 -0.19651,0.31653 -0.29973,0.2124 -0.43793,0.26618 -0.82094,0.14637 -1.65403,0.25018 -2.50731,0.28337 -0.75735,-0.52551 -1.50901,-1.0627 -2.55025,-1.00464 -0.77151,0.0197 -1.58149,0.21384 -2.59317,1.32235 -0.5086,0.69524 -0.6758,1.43925 -0.61826,2.21536 0.0575,0.93165 0.481,1.68474 1.20215,2.29265 0.75121,0.55929 1.60157,0.84432 2.62753,0.64401 0.59805,-0.0164 1.35222,-0.48837 2.14279,-1.0663 z"
     id="compensator_right"
     sodipodi:nodetypes="ccscccccccccssccccsssssssssssssssssssssssssssssssssssasasssssssssssssssssssssssssssssssssssssscccccccccccc"
     inkscape:label="compensator_right">
    <title
       id="title1">metal</title>
  </path>
</svg>
