<?xml version="1.0" encoding="UTF-8" standalone="no"?>
<!-- Created with Inkscape (http://www.inkscape.org/) -->

<svg
   width="210mm"
   height="297mm"
   viewBox="0 0 210 297"
   version="1.1"
   id="svg1"
   inkscape:version="1.4 (86a8ad7, 2024-10-11)"
   sodipodi:docname="DSHA-75-030-corner.svg"
   xmlns:inkscape="http://www.inkscape.org/namespaces/inkscape"
   xmlns:sodipodi="http://sodipodi.sourceforge.net/DTD/sodipodi-0.dtd"
   xmlns="http://www.w3.org/2000/svg"
   xmlns:svg="http://www.w3.org/2000/svg">
  <sodipodi:namedview
     id="namedview1"
     pagecolor="#ffffff"
     bordercolor="#000000"
     borderopacity="0.25"
     inkscape:showpageshadow="2"
     inkscape:pageopacity="0.0"
     inkscape:pagecheckerboard="0"
     inkscape:deskcolor="#d1d1d1"
     inkscape:document-units="mm"
     inkscape:zoom="1.4803312"
     inkscape:cx="344.85525"
     inkscape:cy="119.23007"
     inkscape:window-width="2560"
     inkscape:window-height="1377"
     inkscape:window-x="-8"
     inkscape:window-y="-8"
     inkscape:window-maximized="1"
     inkscape:current-layer="svg1" />
  <defs
     id="defs1" />
  <rect
     style="fill:#b8b8b8;fill-opacity:1;fill-rule:evenodd;stroke:#b81e1e;stroke-width:0.033353"
     id="concrete_left"
     width="78.220573"
     height="29.5737"
     x="35.24435"
     y="75.087799" />
  <rect
     style="fill:#a39a9a;fill-rule:evenodd;stroke:#b81e1e;stroke-width:0.0551358"
     id="finish_left"
     width="65.784874"
     height="69.263016"
     x="35.218178"
     y="5.8504615" />
  <rect
     style="fill:#a39a9a;fill-rule:evenodd;stroke:#b81e1e;stroke-width:0.0341611"
     id="cover_left"
     width="65.767876"
     height="5.3449874"
     x="35.248222"
     y="0.38344243" />
  <rect
     style="fill:#404242;fill-opacity:0.341246;fill-rule:evenodd;stroke:#b81e1e;stroke-width:0.0179245"
     id="shadow"
     width="96.804649"
     height="0.014567127"
     x="77.925621"
     y="104.23311"
     inkscape:label="shadow" />
  <ellipse
     style="opacity:0;fill:none;fill-opacity:0;fill-rule:evenodd;stroke-width:0.00368993;stroke-opacity:0"
     id="bolt_left"
     cx="-53.561466"
     cy="-72.648941"
     rx="0.094999999"
     ry="0.028942173"
     inkscape:label="bolt_left"
     transform="scale(-1)" />
  <ellipse
     style="opacity:0;fill:none;fill-opacity:0;fill-rule:evenodd;stroke-width:0.000191947;stroke-opacity:0"
     id="screw_right"
     cx="149.79854"
     cy="-35.456493"
     rx="0.0049418169"
     ry="0.0015055466"
     inkscape:label="screw_right" />
  <path
     id="profile_left"
     style="display:inline;fill:#5e5e5e;fill-rule:evenodd;stroke:#000000;stroke-width:0.0421211"
     d="M 101.06906,0.12106055 V 70.55147 c -0.17263,1.41678 -0.99041,1.86676 -2.011248,2.01124 H 53.67209 43.65943 l -0.0131,2.516229 h 69.8384 V 13.514091 l -2.49881,-0.35697 -1.57591,-0.282981 -2.46399,-1.02303 -1.76092,-1.612909 -0.51587,-1.2907505 c -0.10813,-0.33406 0.0175,-0.56986 0.20896,-0.7771 h 2.99074 c 0,0 0.53676,0.61527 0.89897,0.77491 0.96073,0.42289 2.14366,0.73522 3.12786,0.37003 0.63729,-0.23646 1.14657,-0.86352 1.38002,-1.50191 0.30469,-0.83336 -0.0211,-2.50569 -0.11102,-2.65986 -0.5904,-1.01041 -1.36936,-1.61071 -2.49446,-1.6129399 -0.64814,0.0243 -1.55503,0.1774899 -2.6773,1.2429099 l -0.34391,0.148 h -2.47487 c -0.65439,-0.20583 -0.54333,-0.55359 -0.51806,-0.8859199 l 0.50499,-1.0361001 0.91203,-0.9598999 0.96644,-0.79882 V 0.12540055 h -1.11009 c 0,0 -0.18249,0.50961999 -0.4005,0.51803999 -0.23386,0.0108 -0.24485,-0.52211999 -0.47888,-0.51370999 -0.24609,0.007 -0.22856,0.55330999 -0.47451,0.56593999 -0.26654,0.0117 -0.29931,-0.57434999 -0.56593,-0.56593999 -0.23642,0.008 -0.22926,0.53216999 -0.46581,0.53548999 -0.24027,0.003 -0.24736,-0.52267999 -0.48758,-0.53109999 -0.25337,-0.008 -0.29726,0.56041999 -0.54852,0.52671999 -0.20765,-0.0279 -0.32214,-0.53977999 -0.32214,-0.53977999 z m 2.50752,11.59729045 c 0.0448,1.1e-4 0.0935,0.003 0.14584,0.013 l 1.37564,1.11444 1.09705,0.870681 1.35824,0.679119 1.35824,0.365661 2.0896,0.29603 c 0.4484,0.23797 0.54818,0.47596 0.48757,0.71395 v 15.21927 H 103.0433 V 12.23634 c 0.0844,-0.29334 0.21997,-0.518889 0.53328,-0.51804 z m -0.59423,20.36271 h 8.51947 V 52.00408 h -8.42152 z m 0.074,20.932999 h 8.44547 v 20.07103 h -8.49553 z"
     inkscape:label="profile_left" />
  <path
     style="fill:#5e5e5e;fill-rule:evenodd;stroke:#000000;stroke-width:0.0313521"
     d="m 104.95531,3.6539998 c 0.14328,-0.378324 0.37096,-0.644141 0.58231,-0.931683 0.61571,-0.874553 1.35622,-1.468252 2.16285,-1.913279 1.0675,-0.55530598 2.17393,-0.88496798 3.36071,-0.74866798 l 2.44567,0.449203 17.70194,3.72673398 -0.63221,2.978052 -13.85877,-2.894868 c -0.14665,0.04148 -0.28625,0.123357 -0.41593,0.266177 -0.0912,0.176962 -0.0838,0.338784 -0.0665,0.499119 l 0.2163,0.848496 v 1.098056 l -0.18286,0.998227 -0.366,1.064785 c -0.006,0.138644 -0.0245,0.277282 0.0832,0.415925 0.1221,0.144807 0.24391,0.180733 0.36601,0.183004 l 6.93772,-0.316106 9.81593,2.1129152 0.0665,0.482479 -3.64356,0.183004 c 0,0 -0.2034,-0.47544 -0.41626,-0.484727 -0.26292,-0.0114 -0.30158,0.56318 -0.56442,0.551728 -0.2172,-0.0095 -0.2077,-0.487065 -0.42488,-0.494645 -0.25249,-0.0088 -0.28011,0.533065 -0.53269,0.539039 -0.2528,0.0058 -0.30618,-0.536362 -0.55809,-0.513674 -0.23746,0.02147 -0.19329,0.554269 -0.43124,0.570747 -0.25955,0.0178 -0.29206,-0.565942 -0.55171,-0.551727 -0.24636,0.01354 -0.21691,0.559225 -0.46292,0.577093 -0.25066,0.01809 -0.30158,-0.535956 -0.55174,-0.513673 -0.24207,0.02147 -0.19544,0.562742 -0.43759,0.583432 -0.26078,0.0224 -0.30946,-0.553577 -0.57073,-0.539039 -0.235,0.01325 -0.22151,0.527044 -0.45661,0.539039 -0.23133,0.01197 -0.26937,-0.487712 -0.50099,-0.481966 -0.24667,0.0064 -0.26079,0.531612 -0.50733,0.539039 -0.24974,0.0074 -0.29698,-0.538249 -0.54539,-0.513672 -0.23225,0.02301 -0.17426,0.541069 -0.40586,0.570746 -0.27091,0.03473 -0.35688,-0.560512 -0.62785,-0.526353 -0.23745,0.03006 -0.18039,0.561199 -0.41852,0.583433 -0.25894,0.02424 -0.30527,-0.561337 -0.56442,-0.539045 -0.25157,0.02147 -0.19819,0.594259 -0.45026,0.608799 -0.26875,0.01564 -0.28286,-0.604148 -0.55172,-0.589775 -0.24575,0.01325 -0.1988,0.566776 -0.4439,0.589775 -0.25341,0.02394 -0.3107,-0.532317 -0.56442,-0.513674 -0.23961,0.01748 -0.21691,0.54176 -0.4566,0.558067 -0.2476,0.01687 -0.2976,-0.523203 -0.54537,-0.507331 -0.24421,0.01564 -0.22519,0.550343 -0.46931,0.564404 -0.25678,0.01473 -0.3025,-0.560073 -0.55806,-0.5327 -0.23623,0.02516 -0.16321,0.565917 -0.3995,0.589779 -0.26171,0.02639 -0.30158,-0.563812 -0.56443,-0.551724 -0.24114,0.01111 -0.22824,0.53559 -0.46927,0.551724 -0.25248,0.01687 -0.31257,-0.531132 -0.56441,-0.507331 -0.25372,0.02394 -0.20831,0.600049 -0.46296,0.608798 -0.24697,0.0085 -0.4883,-0.558066 -0.4883,-0.558066 -0.14357,-0.164106 -0.29452,0.349932 -0.53904,0.589773 l -2.50496,-0.0064 c -0.0729,0.06568 -2.26787,-0.503726 -3.06936,-1.230286 -0.66181,-0.599967 -1.64878,-1.141823 -1.75029,-2.0293312 -0.0215,-0.185059 0.25985,-0.494648 0.25985,-0.494648 1.06207,-0.249764 2.15587,-0.436054 3.33572,-0.450259 0.7105,0.568577 1.54711,0.969007 2.96092,0.599847 0.75702,-0.419131 1.51818,-0.835218 1.73092,-1.650199 0.33781,-0.576971 0.36707,-1.153942 0.21536,-1.730914 -0.10001,-0.83435 -0.58837,-1.363437 -1.15692,-1.829575 -0.63215,-0.481099 -1.39492,-0.748022 -2.4484,-0.538115 -0.78964,0.157601 -1.15996,0.566786 -1.63227,0.914782 l -2.94163,-0.125565 c -0.22919,0.0048 -0.38032,-0.128428 -0.50226,-0.313887 -0.0596,-0.137746 -0.061,-0.275503 -0.0128,-0.413271 z"
     id="compensator_left"
     sodipodi:nodetypes="ccccccccccccccccccccsssssssssssssssssssssssssssssssssccsscccccccccccc"
     inkscape:label="compensator_left">
    <title
       id="title2">metal</title>
  </path>
  <path
     style="fill:#5e5e5e;fill-rule:evenodd;stroke:#000000;stroke-width:0.0313521"
     d="m 147.59994,9.3739998 c -0.14327,0.378325 -0.37095,0.6441432 -0.5823,0.9316832 -0.61571,0.874551 -1.35626,1.468255 -2.16287,1.91328 -1.06752,0.555304 -2.17395,0.884966 -3.36071,0.748669 l -2.44565,-0.449205 -17.70197,-3.7267312 0.63223,-2.978055 13.85877,2.894867 c 0.14665,-0.04147 0.28624,-0.123356 0.41592,-0.266177 0.0912,-0.176961 0.0838,-0.338784 0.0665,-0.499119 l -0.2163,-0.848495 v -1.098056 l 0.18286,-0.998228 0.36601,-1.064784 c 0.006,-0.138644 0.0245,-0.277284 -0.0832,-0.415925 -0.1221,-0.144807 -0.24389,-0.180734 -0.36604,-0.183004 l -6.93768,0.316105 -9.81597,-2.112919 -0.0665,-0.482477 3.64356,-0.183004 c 0,0 0.2034,0.475439 0.41626,0.484726 0.26293,0.0114 0.30158,-0.56317998 0.56441,-0.551728 0.21722,0.0096 0.2077,0.487065 0.42488,0.494649 0.25249,0.0088 0.28011,-0.53306498 0.53269,-0.53904198 0.25281,-0.0058 0.30618,0.53635998 0.55807,0.51367198 0.23746,-0.02147 0.19328,-0.55426498 0.43123,-0.57074498 0.25955,-0.01779 0.29208,0.56594098 0.55174,0.55172798 0.24636,-0.01353 0.21691,-0.55922698 0.46294,-0.57709498 0.25064,-0.0181 0.30158,0.53595598 0.55174,0.51367398 0.24205,-0.02147 0.19542,-0.56274298 0.43754,-0.58343298 0.26079,-0.0224 0.30947,0.55357798 0.57078,0.53903898 0.235,-0.01325 0.22151,-0.52704298 0.45659,-0.53903898 0.23133,-0.01197 0.26937,0.48771398 0.50098,0.48196498 0.24665,-0.0064 0.26077,-0.53161098 0.50734,-0.53903898 0.24974,-0.0074 0.29698,0.53825398 0.5454,0.51367398 0.23224,-0.02301 0.17425,-0.54106998 0.40586,-0.57074698 0.27091,-0.03472 0.35686,0.56051198 0.62783,0.52635298 0.23746,-0.03006 0.18009,-0.56119798 0.41853,-0.58343198 0.25894,-0.02423 0.30526,0.56133698 0.56441,0.53904798 0.25157,-0.02147 0.1982,-0.59426198 0.45026,-0.60880198 0.26875,-0.01564 0.28287,0.60415098 0.55171,0.58977398 0.24574,-0.01325 0.19911,-0.56677598 0.44394,-0.58977398 0.2531,-0.02394 0.31069,0.53231998 0.56441,0.51367298 0.23962,-0.01748 0.2169,-0.54175598 0.45661,-0.55806498 0.24758,-0.01687 0.29759,0.52320098 0.54536,0.50733298 0.24421,-0.01564 0.22519,-0.55034698 0.46927,-0.56440798 0.25679,-0.01472 0.30251,0.56007298 0.5581,0.532702 0.23624,-0.02516 0.16322,-0.565918 0.39951,-0.589781 0.26169,-0.02639 0.30158,0.563813 0.56441,0.551725 0.24114,-0.01111 0.22826,-0.535588 0.46928,-0.551725 0.25249,-0.01687 0.31256,0.531133 0.56442,0.507332 0.25372,-0.02394 0.208,-0.600049 0.46292,-0.608798 0.24697,-0.0085 0.48832,0.558065 0.48832,0.558065 0.14359,0.16410598 0.29453,-0.349928 0.53905,-0.589773 l 2.50494,0.0064 c 0.0731,-0.06568 2.2679,0.503728 3.06937,1.23028498 0.66182,0.599969 1.64878,1.141823 1.75031,2.029334 0.0215,0.18506 -0.26016,0.494646 -0.26016,0.494646 -1.06208,0.249763 -2.1559,0.436053 -3.33572,0.450258 -0.7105,-0.568577 -1.54711,-0.969005 -2.96092,-0.599845 -0.75702,0.419129 -1.51822,0.835216 -1.73092,1.650198 -0.33781,0.57697 -0.36708,1.153942 -0.21537,1.730913 0.10002,0.83434 0.58837,1.36343 1.15693,1.829568 0.63215,0.481096 1.39488,0.748019 2.4484,0.538111 0.78963,-0.157602 1.15996,-0.566782 1.63224,-0.914782 l 2.94166,0.125578 c 0.22919,-0.0048 0.38031,0.128429 0.50226,0.313886 0.0596,0.137747 0.061,0.275505 0.0128,0.413271 z"
     id="compensator_right"
     sodipodi:nodetypes="ccccccccccccccccccccsssssssssssssssssssssssssssssssssccsscccccccccccc"
     inkscape:label="compensator_right">
    <title
       id="title1">metal</title>
  </path>
  <path
     style="fill:#5e5e5e;fill-rule:evenodd;stroke:#000000;stroke-width:0.0441661"
     d="m 144.52502,8.2072717 h 3.29292 c 0.0846,-0.0709 0.72166,0.39848 0.52726,0.78512 -0.22127,0.44001 -0.41877,0.93966 -0.67956,1.3710703 -0.25974,0.4296 -0.59704,0.81424 -0.96096,1.16012 -0.40281,0.38249 -1.33586,0.99606 -1.33586,0.99606 v 0.71484 h 1.24207 c 0,0 0.13873,-0.47882 0.33969,-0.50389 0.24462,-0.0302 0.30469,0.50467 0.55083,0.49218 0.24289,-0.0129 0.24894,-0.54162 0.49218,-0.53907 0.24937,0.002 0.24332,0.55156 0.49216,0.5625 0.25932,0.0129 0.30298,-0.54335 0.5625,-0.53903 0.23467,0.004 0.25759,0.49835 0.49214,0.50389 0.23467,0.004 0.28135,-0.49689 0.51559,-0.48047 0.21048,0.0129 0.39848,0.49218 0.39848,0.49218 h 1.12499 v -61.595689 h -0.86049 l -1.43049,4.227839 v 1.59369 c 0,0 0.52004,0.16294 0.53318,0.38075 0.013,0.24852 -0.54258,0.255 -0.55082,0.50389 -0.013,0.25975 0.54603,0.30297 0.53907,0.56254 -0.013,0.25672 -0.56799,0.27055 -0.5625,0.52731 0,0.25759 0.58077,0.24635 0.58592,0.50389 0,0.23468 -0.50865,0.24548 -0.5156,0.48046 -0.013,0.22647 0.47147,0.2658 0.46871,0.49218 0,0.23727 -0.50748,0.26623 -0.5038,0.50389 0,0.26795 0.58716,0.28264 0.58591,0.55077 0,0.2766 -0.6214,0.28611 -0.60938,0.5625 0.013,0.26147 0.61336,0.21869 0.62107,0.48046 0.013,0.24332 -0.4963,0.24289 -0.55075,0.48046 -0.0891,0.38897 0.47639,0.70257 0.46875,1.10152 -0.013,0.37557 -0.55473,0.65122 -0.48051,1.01953 0.0432,0.20615 0.45945,0.21177 0.46871,0.42182 0.013,0.23467 -0.48315,0.28049 -0.48037,0.51559 0,0.2403 0.50517,0.27531 0.50384,0.51561 0,0.23208 -0.47995,0.26061 -0.49218,0.49217 -0.013,0.23598 0.45099,0.31463 0.44528,0.55078 -0.013,0.24073 -0.48724,0.29864 -0.48037,0.53907 0.013,0.25413 0.53763,0.28481 0.53902,0.53902 0,0.25672 -0.55653,0.29432 -0.53902,0.55079 0.0173,0.24158 0.56876,0.20312 0.57413,0.44532 0.013,0.27141 -0.62526,0.25585 -0.62102,0.52731 0,0.26969 0.62606,0.23424 0.6328,0.50389 0.013,0.26579 -0.58653,0.2619 -0.59771,0.52735 -0.013,0.25413 0.53448,0.29649 0.5274,0.55074 -0.013,0.24591 -0.54331,0.25802 -0.53907,0.50393 0,0.24375 0.54386,0.23684 0.55074,0.48046 0.013,0.2403 -0.51289,0.26364 -0.51565,0.50389 0,0.2403 0.51322,0.27531 0.50398,0.515601 -0.013,0.25456 -0.57464,0.24937 -0.57429,0.50389 3.3e-4,0.24375 0.53622,0.23727 0.55081,0.48046 0.0172,0.26234 -0.54303,0.32371 -0.52735,0.58592 0.013,0.2485 0.55562,0.24332 0.5625,0.49217 0.013,0.24592 -0.52294,0.26969 -0.52727,0.5156 0,0.23209 0.48745,0.27185 0.48037,0.50393 -0.013,0.22388 -0.48245,0.23339 -0.49217,0.457 -0.013,0.27919 0.58695,0.34272 0.56249,0.62109 -0.0216,0.24116 -0.55631,0.204 -0.57416,0.44529 -0.0173,0.27141 0.58354,0.31809 0.56491,0.58946 -0.0173,0.23554 -0.54982,0.20313 -0.55518,0.43919 0,0.24851 0.56456,0.2403 0.56339,0.48889 0,0.26839 -0.66275,0.48046 -0.61314,0.52204 0.0492,0.0432 0.60869,0.24721 0.61314,0.51374 0,0.2524 -0.55848,0.25327 -0.56339,0.50545 0,0.25801 0.5563,0.28092 0.55518,0.53859 -0.002,0.24418 -0.53665,0.26147 -0.53038,0.50548 0.013,0.23295 0.51893,0.22301 0.53038,0.45574 0.013,0.25932 -0.54352,0.30384 -0.5386,0.56345 0,0.2498 0.53847,0.27185 0.5386,0.52204 9e-5,0.26968 -0.59041,0.29389 -0.58012,0.56344 0.013,0.25888 0.60048,0.23814 0.59668,0.49719 0,0.24591 -0.57322,0.21004 -0.58009,0.45574 -0.013,0.24635 0.54361,0.24246 0.55514,0.48889 0.013,0.26147 -0.54541,0.30988 -0.53853,0.57174 0.013,0.25586 0.56633,0.27444 0.55513,0.53034 -0.013,0.24721 -0.56145,0.21696 -0.57999,0.46404 -0.0172,0.24765 0.5082,0.29864 0.50544,0.54689 0,0.22647 -0.47774,0.26234 -0.47226,0.48889 0.013,0.25413 0.56022,0.26796 0.55516,0.52204 0,0.24851 -0.55996,0.24029 -0.56348,0.48885 0,0.2286199 0.49073,0.2359699 0.50538,0.4640399 0.0173,0.25239 -0.49663,0.32716 -0.48884,0.58004 0.013,0.25196 0.52199,0.29475 0.52199,0.54689 0,0.24807 -0.51213,0.29043 -0.51373,0.53859 0,0.2148 0.43931,0.25715 0.43918,0.47234 -8e-5,0.22257 -0.45786,0.26622 -0.45566,0.48889 0,0.25802 0.55242,0.29777 0.5386,0.55515 -0.013,0.232939 -0.52982,0.214359 -0.5386,0.447479 -0.013,0.23036 0.49603,0.25023 0.49706,0.48059 0.002,0.25197 -0.53768,0.27833 -0.53858,0.5303 -7.8e-4,0.23813 0.49446,0.26752 0.50556,0.50548 0.013,0.25067 -0.49342,0.32933 -0.48062,0.58004 0.013,0.22431 0.48062,0.24765 0.48062,0.4723 0,0.21696 -0.44061,0.2403 -0.46404,0.45574 -0.0172,0.15083 0.24851,0.38119 0.24851,0.38119 v 1.62407018 c -0.0696,0.29692 -0.22948,0.5297298 -0.59654,0.6131898 h -3.53824 v 0.74578 l 1.26782,1.00263982 1.05233,1.17663 c -0.013,0 0.46737,0.81372 0.62153,1.28437 0.13096,0.39978 -0.52134,0.90051 -0.55518,0.87004 h -3.26479 c -0.7314,-0.78321 -1.57645,-1.20784 -2.5108,-1.35067 -0.0172,-0.0346 -1.54485,0.24073 -2.07976,0.82033 -0.47286,0.51249 -1.00492,1.28131 -1.03579,2.07986 -0.0303,0.79086 0.34359,1.63635 0.90315,2.19586 0.5764,0.57619 1.45167,0.72539 2.23734,0.68774 0.51127,-0.0259 0.96582,-0.12966 1.34234,-0.35613 0.40539,-0.24375 1.1475,-0.83502 1.1475,-0.83502 z"
     id="profile_right"
     sodipodi:nodetypes="ccssscccsssssssccccccsssssssssssssssssssssssssssssssssssssssssssssssssssssssssssssssssssssssssssscccccccscccsssssc"
     inkscape:label="profile_right" />
  <rect
     style="fill:#e1ecec;fill-opacity:0.77;fill-rule:evenodd;stroke:#b81e1e;stroke-width:0.0081378"
     id="finish_right"
     width="57.514656"
     height="2.036227"
     x="-4.9202671"
     y="151.81824"
     inkscape:label="finish_right"
     transform="rotate(-90)" />
  <rect
     style="fill:#e1ecec;fill-opacity:0.77;fill-rule:evenodd;stroke:#b81e1e;stroke-width:0.00933925"
     id="cover_right"
     width="57.494617"
     height="0.12774748"
     x="-4.9066343"
     y="151.6425"
     inkscape:label="cover_right"
     transform="rotate(-90)" />
  <path
     style="fill:#e1ecec;fill-opacity:0.77;fill-rule:evenodd;stroke:#b81e1e;stroke-width:0.0116676"
     d="m 153.86667,-52.582441 h 20.93689 V 104.90486 H 151.62243 V 4.9599641 h 2.23314 z"
     id="concrete_right"
     inkscape:label="concrete_right"
     sodipodi:nodetypes="ccccccc" />
</svg>
