<?xml version="1.0" encoding="UTF-8" standalone="no"?>
<!-- Created with Inkscape (http://www.inkscape.org/) -->

<svg
   width="210mm"
   height="297mm"
   viewBox="0 0 210 297"
   version="1.1"
   id="svg1"
   inkscape:version="1.4 (86a8ad7, 2024-10-11)"
   sodipodi:docname="DSHA-75-123-corner.svg"
   xmlns:inkscape="http://www.inkscape.org/namespaces/inkscape"
   xmlns:sodipodi="http://sodipodi.sourceforge.net/DTD/sodipodi-0.dtd"
   xmlns="http://www.w3.org/2000/svg"
   xmlns:svg="http://www.w3.org/2000/svg">
  <sodipodi:namedview
     id="namedview1"
     pagecolor="#ffffff"
     bordercolor="#000000"
     borderopacity="0.25"
     inkscape:showpageshadow="2"
     inkscape:pageopacity="0.0"
     inkscape:pagecheckerboard="0"
     inkscape:deskcolor="#d1d1d1"
     inkscape:document-units="mm"
     inkscape:zoom="0.37008281"
     inkscape:cx="-58.095107"
     inkscape:cy="587.70631"
     inkscape:window-width="2560"
     inkscape:window-height="1377"
     inkscape:window-x="-8"
     inkscape:window-y="-8"
     inkscape:window-maximized="1"
     inkscape:current-layer="svg1" />
  <defs
     id="defs1" />
  <rect
     style="fill:#b8b8b8;fill-opacity:1;fill-rule:evenodd;stroke:#b81e1e;stroke-width:0.033353"
     id="concrete_left"
     width="78.220573"
     height="29.5737"
     x="-19.105307"
     y="75.087799" />
  <rect
     style="fill:#a39a9a;fill-rule:evenodd;stroke:#b81e1e;stroke-width:0.0551358"
     id="finish_left"
     width="65.784874"
     height="69.263016"
     x="-19.131479"
     y="5.8504615" />
  <rect
     style="fill:#a39a9a;fill-rule:evenodd;stroke:#b81e1e;stroke-width:0.0341611"
     id="cover_left"
     width="65.767876"
     height="5.3449874"
     x="-19.101435"
     y="0.38344243" />
  <rect
     style="fill:#404242;fill-opacity:0.341246;fill-rule:evenodd;stroke:#b81e1e;stroke-width:0.0220179"
     id="shadow"
     width="203.15422"
     height="0.010473737"
     x="23.578104"
     y="104.23517"
     inkscape:label="shadow" />
  <ellipse
     style="opacity:0;fill:none;fill-opacity:0;fill-rule:evenodd;stroke-width:0.00368993;stroke-opacity:0"
     id="bolt_left"
     cx="0.78814417"
     cy="-72.648941"
     rx="0.094999999"
     ry="0.028942173"
     inkscape:label="bolt_left"
     transform="scale(-1)" />
  <ellipse
     style="opacity:0;fill:none;fill-opacity:0;fill-rule:evenodd;stroke-width:0.000191947;stroke-opacity:0"
     id="screw_right"
     cx="204.14819"
     cy="-35.456493"
     rx="0.0049418169"
     ry="0.0015055466"
     inkscape:label="screw_right" />
  <path
     id="profile_left"
     style="display:inline;fill:#5e5e5e;fill-rule:evenodd;stroke:#000000;stroke-width:0.0421211"
     d="M 46.719398,0.12106055 V 70.55147 c -0.17263,1.41678 -0.99041,1.86676 -2.011248,2.01124 H -0.67757154 -10.690232 l -0.0131,2.516229 h 69.8384 V 13.514091 l -2.49881,-0.35697 -1.57591,-0.282981 -2.46399,-1.02303 -1.76092,-1.612909 -0.51587,-1.2907505 c -0.10813,-0.33406 0.0175,-0.56986 0.20896,-0.7771 h 2.99074 c 0,0 0.53676,0.61527 0.89897,0.77491 0.96073,0.42289 2.14366,0.73522 3.12786,0.37003 0.63729,-0.23646 1.14657,-0.86352 1.38002,-1.50191 0.30469,-0.83336 -0.0211,-2.50569 -0.11102,-2.65986 -0.5904,-1.01041 -1.36936,-1.61071 -2.49446,-1.6129399 -0.64814,0.0243 -1.55503,0.1774899 -2.6773,1.2429099 l -0.34391,0.148 h -2.47487 c -0.65439,-0.20583 -0.54333,-0.55359 -0.51806,-0.8859199 l 0.50499,-1.0361001 0.91203,-0.9598999 0.96644,-0.79882 V 0.12540055 h -1.11009 c 0,0 -0.18249,0.50961999 -0.4005,0.51803999 -0.23386,0.0108 -0.24485,-0.52211999 -0.47888,-0.51370999 -0.24609,0.007 -0.22856,0.55330999 -0.47451,0.56593999 -0.26654,0.0117 -0.29931,-0.57434999 -0.56593,-0.56593999 -0.23642,0.008 -0.22926,0.53216999 -0.46581,0.53548999 -0.24027,0.003 -0.24736,-0.52267999 -0.48758,-0.53109999 -0.25337,-0.008 -0.29726,0.56041999 -0.54852,0.52671999 -0.20765,-0.0279 -0.32214,-0.53977999 -0.32214,-0.53977999 z m 2.50752,11.59729045 c 0.0448,1.1e-4 0.0935,0.003 0.14584,0.013 l 1.37564,1.11444 1.09705,0.870681 1.35824,0.679119 1.35824,0.365661 2.0896,0.29603 c 0.4484,0.23797 0.54818,0.47596 0.48757,0.71395 v 15.21927 h -8.44546 V 12.23634 c 0.0844,-0.29334 0.21997,-0.518889 0.53328,-0.51804 z m -0.59423,20.36271 h 8.51947 V 52.00408 h -8.42152 z m 0.074,20.932999 h 8.44547 v 20.07103 h -8.49553 z"
     inkscape:label="profile_left" />
  <path
     style="fill:#5e5e5e;fill-rule:evenodd;stroke:#000000;stroke-width:0.0441661"
     d="m 198.87467,8.2072717 h 3.29292 c 0.0846,-0.0709 0.72166,0.39848 0.52726,0.78512 -0.22127,0.44001 -0.41877,0.93966 -0.67956,1.3710703 -0.25974,0.4296 -0.59704,0.81424 -0.96096,1.16012 -0.40281,0.38249 -1.33586,0.99606 -1.33586,0.99606 v 0.71484 h 1.24207 c 0,0 0.13873,-0.47882 0.33969,-0.50389 0.24462,-0.0302 0.30469,0.50467 0.55083,0.49218 0.24289,-0.0129 0.24894,-0.54162 0.49218,-0.53907 0.24937,0.002 0.24332,0.55156 0.49216,0.5625 0.25932,0.0129 0.30298,-0.54335 0.5625,-0.53903 0.23467,0.004 0.25759,0.49835 0.49214,0.50389 0.23467,0.004 0.28135,-0.49689 0.51559,-0.48047 0.21048,0.0129 0.39848,0.49218 0.39848,0.49218 h 1.12499 v -61.595689 h -0.86049 l -1.43049,4.227839 v 1.59369 c 0,0 0.52004,0.16294 0.53318,0.38075 0.013,0.24852 -0.54258,0.255 -0.55082,0.50389 -0.013,0.25975 0.54603,0.30297 0.53907,0.56254 -0.013,0.25672 -0.56799,0.27055 -0.5625,0.52731 0,0.25759 0.58077,0.24635 0.58592,0.50389 0,0.23468 -0.50865,0.24548 -0.5156,0.48046 -0.013,0.22647 0.47147,0.2658 0.46871,0.49218 0,0.23727 -0.50748,0.26623 -0.5038,0.50389 0,0.26795 0.58716,0.28264 0.58591,0.55077 0,0.2766 -0.6214,0.28611 -0.60938,0.5625 0.013,0.26147 0.61336,0.21869 0.62107,0.48046 0.013,0.24332 -0.4963,0.24289 -0.55075,0.48046 -0.0891,0.38897 0.47639,0.70257 0.46875,1.10152 -0.013,0.37557 -0.55473,0.65122 -0.48051,1.01953 0.0432,0.20615 0.45945,0.21177 0.46871,0.42182 0.013,0.23467 -0.48315,0.28049 -0.48037,0.51559 0,0.2403 0.50517,0.27531 0.50384,0.51561 0,0.23208 -0.47995,0.26061 -0.49218,0.49217 -0.013,0.23598 0.45099,0.31463 0.44528,0.55078 -0.013,0.24073 -0.48724,0.29864 -0.48037,0.53907 0.013,0.25413 0.53763,0.28481 0.53902,0.53902 0,0.25672 -0.55653,0.29432 -0.53902,0.55079 0.0173,0.24158 0.56876,0.20312 0.57413,0.44532 0.013,0.27141 -0.62526,0.25585 -0.62102,0.52731 0,0.26969 0.62606,0.23424 0.6328,0.50389 0.013,0.26579 -0.58653,0.2619 -0.59771,0.52735 -0.013,0.25413 0.53448,0.29649 0.5274,0.55074 -0.013,0.24591 -0.54331,0.25802 -0.53907,0.50393 0,0.24375 0.54386,0.23684 0.55074,0.48046 0.013,0.2403 -0.51289,0.26364 -0.51565,0.50389 0,0.2403 0.51322,0.27531 0.50398,0.515601 -0.013,0.25456 -0.57464,0.24937 -0.57429,0.50389 3.3e-4,0.24375 0.53622,0.23727 0.55081,0.48046 0.0172,0.26234 -0.54303,0.32371 -0.52735,0.58592 0.013,0.2485 0.55562,0.24332 0.5625,0.49217 0.013,0.24592 -0.52294,0.26969 -0.52727,0.5156 0,0.23209 0.48745,0.27185 0.48037,0.50393 -0.013,0.22388 -0.48245,0.23339 -0.49217,0.457 -0.013,0.27919 0.58695,0.34272 0.56249,0.62109 -0.0216,0.24116 -0.55631,0.204 -0.57416,0.44529 -0.0173,0.27141 0.58354,0.31809 0.56491,0.58946 -0.0173,0.23554 -0.54982,0.20313 -0.55518,0.43919 0,0.24851 0.56456,0.2403 0.56339,0.48889 0,0.26839 -0.66275,0.48046 -0.61314,0.52204 0.0492,0.0432 0.60869,0.24721 0.61314,0.51374 0,0.2524 -0.55848,0.25327 -0.56339,0.50545 0,0.25801 0.5563,0.28092 0.55518,0.53859 -0.002,0.24418 -0.53665,0.26147 -0.53038,0.50548 0.013,0.23295 0.51893,0.22301 0.53038,0.45574 0.013,0.25932 -0.54352,0.30384 -0.5386,0.56345 0,0.2498 0.53847,0.27185 0.5386,0.52204 9e-5,0.26968 -0.59041,0.29389 -0.58012,0.56344 0.013,0.25888 0.60048,0.23814 0.59668,0.49719 0,0.24591 -0.57322,0.21004 -0.58009,0.45574 -0.013,0.24635 0.54361,0.24246 0.55514,0.48889 0.013,0.26147 -0.54541,0.30988 -0.53853,0.57174 0.013,0.25586 0.56633,0.27444 0.55513,0.53034 -0.013,0.24721 -0.56145,0.21696 -0.57999,0.46404 -0.0172,0.24765 0.5082,0.29864 0.50544,0.54689 0,0.22647 -0.47774,0.26234 -0.47226,0.48889 0.013,0.25413 0.56022,0.26796 0.55516,0.52204 0,0.24851 -0.55996,0.24029 -0.56348,0.48885 0,0.2286199 0.49073,0.2359699 0.50538,0.4640399 0.0173,0.25239 -0.49663,0.32716 -0.48884,0.58004 0.013,0.25196 0.52199,0.29475 0.52199,0.54689 0,0.24807 -0.51213,0.29043 -0.51373,0.53859 0,0.2148 0.43931,0.25715 0.43918,0.47234 -8e-5,0.22257 -0.45786,0.26622 -0.45566,0.48889 0,0.25802 0.55242,0.29777 0.5386,0.55515 -0.013,0.232939 -0.52982,0.214359 -0.5386,0.447479 -0.013,0.23036 0.49603,0.25023 0.49706,0.48059 0.002,0.25197 -0.53768,0.27833 -0.53858,0.5303 -7.8e-4,0.23813 0.49446,0.26752 0.50556,0.50548 0.013,0.25067 -0.49342,0.32933 -0.48062,0.58004 0.013,0.22431 0.48062,0.24765 0.48062,0.4723 0,0.21696 -0.44061,0.2403 -0.46404,0.45574 -0.0172,0.15083 0.24851,0.38119 0.24851,0.38119 v 1.62407018 c -0.0696,0.29692 -0.22948,0.5297298 -0.59654,0.6131898 h -3.53824 v 0.74578 l 1.26782,1.00263982 1.05233,1.17663 c -0.013,0 0.46737,0.81372 0.62153,1.28437 0.13096,0.39978 -0.52134,0.90051 -0.55518,0.87004 h -3.26479 c -0.7314,-0.78321 -1.57645,-1.20784 -2.5108,-1.35067 -0.0172,-0.0346 -1.54485,0.24073 -2.07976,0.82033 -0.47286,0.51249 -1.00492,1.28131 -1.03579,2.07986 -0.0303,0.79086 0.34359,1.63635 0.90315,2.19586 0.5764,0.57619 1.45167,0.72539 2.23734,0.68774 0.51127,-0.0259 0.96582,-0.12966 1.34234,-0.35613 0.40539,-0.24375 1.1475,-0.83502 1.1475,-0.83502 z"
     id="profile_right"
     sodipodi:nodetypes="ccssscccsssssssccccccsssssssssssssssssssssssssssssssssssssssssssssssssssssssssssssssssssssssssssscccccccscccsssssc"
     inkscape:label="profile_right" />
  <rect
     style="fill:#e1ecec;fill-opacity:0.77;fill-rule:evenodd;stroke:#b81e1e;stroke-width:0.0081378"
     id="finish_right"
     width="57.514656"
     height="2.036227"
     x="-4.9202671"
     y="206.16789"
     inkscape:label="finish_right"
     transform="rotate(-90)" />
  <rect
     style="fill:#e1ecec;fill-opacity:0.77;fill-rule:evenodd;stroke:#b81e1e;stroke-width:0.00933925"
     id="cover_right"
     width="57.494617"
     height="0.12774748"
     x="-4.9066343"
     y="205.99216"
     inkscape:label="cover_right"
     transform="rotate(-90)" />
  <path
     style="fill:#e1ecec;fill-opacity:0.77;fill-rule:evenodd;stroke:#b81e1e;stroke-width:0.0116676"
     d="m 208.21632,-52.582441 h 20.93689 V 104.90486 H 205.97208 V 4.9599641 h 2.23314 z"
     id="concrete_right"
     inkscape:label="concrete_right"
     sodipodi:nodetypes="ccccccc" />
  <path
     style="fill:#5e5e5e;fill-rule:evenodd;stroke:#000000;stroke-width:0.0295876"
     d="M 54.110492,4.3716646 51.142069,4.0724316 C 50.846512,3.936671 50.735842,3.7052592 50.902687,3.3303256 c 0,0 0.659549,-0.8689776 1.029373,-1.2687618 0.295134,-0.319043 0.592107,-0.6448416 0.945592,-0.8977135 0.307706,-0.22012848 1.005433,-0.52665569 1.005433,-0.52665569 V 0.07463474 l 3.028268,0.03592843 c 0,0 0.237617,0.47057419 0.454839,0.46681275 0.237211,-0.003779 0.241554,-0.52946948 0.478779,-0.52665858 0.237559,0.0031975 0.229364,0.53015937 0.466814,0.53862212 0.231188,0.00843 0.259475,-0.49638006 0.490742,-0.49074274 0.231536,0.005523 0.235243,0.51855239 0.466813,0.51468437 0.240599,-0.003779 0.227135,-0.52913132 0.466804,-0.5505973 0.262548,-0.02344843 0.347999,0.52734459 0.610447,0.50271792 0.217179,-0.0202703 0.200843,-0.49790033 0.418923,-0.50271792 0.242837,-0.005523 0.248127,0.5274754 0.49076,0.53863085 0.248263,0.0112882 0.303066,-0.52502591 0.550593,-0.50271792 0.209815,0.01881688 0.173247,0.48317433 0.383023,0.50271792 0.272845,0.0254832 0.336737,-0.56387182 0.610434,-0.5505973 0.248244,0.01216024 0.254232,0.55540616 0.502717,0.5505973 0.23495,-0.004651 0.454842,-0.53863085 0.454842,-0.53863085 0,0 0.254202,0.554288 0.502717,0.5505973 0.263087,-0.003779 0.251596,-0.60185247 0.514693,-0.59847376 0.252351,0.0031975 0.226442,0.58237864 0.478774,0.58650731 0.248825,0.003779 0.241955,-0.56817781 0.490741,-0.56256956 0.249813,0.005523 0.216976,0.5819649 0.466818,0.58650731 0.257448,0.004651 0.245259,-0.58234086 0.502717,-0.58650731 0.254115,-0.0037789 0.260539,0.56616821 0.514683,0.56256956 0.236974,-0.003198 0.227886,-0.53536841 0.46487,-0.53797099 0.235676,-0.0023255 0.238253,0.52370523 0.473959,0.52474781 0.237614,7.6741e-4 0.244852,-0.52766627 0.482437,-0.52474781 0.2399,0.0031975 0.23428,0.53085991 0.473968,0.5416772 0.253156,0.0112882 0.296758,-0.52984931 0.550137,-0.52474782 0.239378,0.0046509 0.260055,0.52347656 0.499355,0.51628409 0.234,-0.006976 0.457041,-0.53321347 0.457041,-0.53321347 h 7.304903 c 0,0 0.169953,0.51508939 0.389012,0.53198582 0.244648,0.0188169 0.275345,-0.52206675 0.520662,-0.5206705 0.248408,0.0015503 0.272447,0.53860468 0.520652,0.53263695 0.23742,-0.005523 0.235395,-0.53212438 0.472805,-0.53263695 0.230173,-4.9804e-4 0.230754,0.50453856 0.46084,0.51468049 0.256527,0.0112882 0.306118,-0.54173727 0.562559,-0.52665567 0.250152,0.0147667 0.234222,0.57635666 0.484752,0.57453505 0.242343,-0.00155 0.218594,-0.55413491 0.46082,-0.56255987 0.238283,-0.0084298 0.252177,0.51933917 0.490751,0.5206705 0.229881,0.00155 0.248989,-0.49133283 0.478793,-0.49673275 0.246965,-0.0061043 0.291759,0.51587714 0.538607,0.5086992 0.238283,-0.006976 0.252187,-0.52005135 0.49075,-0.52067438 0.231336,-5.959e-4 0.247265,0.50398336 0.478794,0.50271792 0.240027,-0.00155 0.250734,-0.5275219 0.490722,-0.52665567 0.2655,7.6741e-4 0.273901,0.60544531 0.538645,0.58650731 0.22902,-0.0165011 0.160399,-0.54538534 0.389011,-0.56855084 0.251306,-0.02548322 0.292195,0.53406518 0.544605,0.52665566 0.235676,-0.006976 0.478794,-0.52067438 0.478794,-0.52067438 0,0 0.305537,0.55771419 0.562549,0.53264956 0.236257,-0.0231577 0.176037,-0.56549577 0.412954,-0.58052602 0.243786,-0.01534807 0.252477,0.5307853 0.496719,0.53863084 0.236839,0.007558 0.27766,-0.49565529 0.514693,-0.49075438 0.24118,0.005523 0.261741,0.5282428 0.502707,0.52067438 0.246102,-0.007848 0.232498,-0.56917872 0.478794,-0.56255987 0.25334,0.0069764 0.207887,0.59157101 0.46082,0.60445505 0.262312,0.0133133 0.276207,-0.5703056 0.538636,-0.57453213 0.242623,-0.0037789 0.272447,0.53100719 0.514664,0.51468049 0.220047,-0.0147667 0.401007,-0.52665567 0.401007,-0.52665567 h 3.02227 c 0,0 12.276837,4.15669011 12.357677,4.15633061 0.14968,-6.744e-4 0.33779,0.4194091 0.28344,0.4528028 -0.0947,0.1808397 -0.23277,0.309872 -0.44011,0.3554753 L 96.266809,4.9881472 93.382177,3.5458273 H 63.436649 c -0.170127,0.055705 -0.404553,0.058456 -0.457031,0.2584919 l -0.06773,0.2581439 v 4.1275113 c 0.08895,0.2716356 0.228467,0.4673486 0.474918,0.502717 h 38.821964 l -0.0261,1.8995006 -14.046723,2.460375 H 56.360751 c -1.529402,0.04305 -2.583043,-0.503844 -3.554925,-1.152116 -0.803121,-0.599209 -1.474101,-1.295329 -1.939052,-2.1425361 -0.06848,-0.4400844 0.09841,-0.6280256 0.344093,-0.7315581 l 2.983415,-0.2678722 c 0,0 0.490424,0.365594 0.77801,0.4488476 0.951221,0.2753708 2.069779,0.5357327 2.968426,0.1196916 0.693845,-0.321227 1.180974,-1.0786463 1.412394,-1.8073839 0.224877,-0.7081242 0.175773,-1.5395523 -0.107734,-2.2263182 -0.25435,-0.6162383 -0.742374,-1.1899372 -1.340579,-1.484214 -0.717837,-0.3531295 -1.51352,-0.1778283 -2.26223,-0.083785 -0.251775,0.031646 -0.495433,0.1189669 -0.730134,0.2154378 -0.28067,0.1153779 -0.801957,0.4309028 -0.801957,0.4309028 z"
     id="compensator_left"
     sodipodi:nodetypes="cccsscccssssssssssssscsssssssssssssccssssssssssssssssscsssssssssccscccccscccccccccccsssssaac"
     inkscape:label="compensator_left">
    <title
       id="title7">metal</title>
  </path>
  <path
     style="fill:#5e5e5e;fill-rule:evenodd;stroke:#000000;stroke-width:0.0295876"
     d="m 198.56784,4.4019238 2.96842,-0.299234 c 0.29555,-0.1357596 0.40624,-0.3671714 0.23944,-0.7421061 0,0 -0.65954,-0.8689766 -1.02936,-1.2687617 -0.29515,-0.3190431 -0.59211,-0.6448416 -0.9456,-0.8977126 -0.30768,-0.22012844 -1.00541,-0.52665565 -1.00541,-0.52665565 V 0.10489291 l -3.02827,0.0359284 c 0,0 -0.23771,0.47057418 -0.45485,0.46681371 -0.23713,-0.003779 -0.24147,-0.52947045 -0.47877,-0.52665566 -0.2377,0.0031975 -0.22931,0.53015549 -0.46681,0.53861921 -0.23133,0.00843 -0.25942,-0.49638006 -0.49075,-0.49074275 -0.23162,0.005523 -0.23538,0.51855143 -0.4668,0.51468341 -0.2406,-0.003779 -0.22729,-0.52913132 -0.46681,-0.5505973 -0.26261,-0.02344843 -0.34802,0.52734556 -0.61045,0.50271792 -0.21715,-0.0202703 -0.20093,-0.49789646 -0.41895,-0.50271792 -0.24291,-0.005523 -0.24813,0.5274754 -0.49075,0.53863084 -0.24813,0.0112882 -0.30305,-0.5250259 -0.55056,-0.50271695 -0.20991,0.0188169 -0.17314,0.48317433 -0.38305,0.50271695 -0.27273,0.0254832 -0.33672,-0.56387182 -0.61045,-0.55059341 -0.24812,0.01216024 -0.2542,0.55540325 -0.50271,0.55059341 -0.2348,-0.004651 -0.45482,-0.53863084 -0.45482,-0.53863084 0,0 -0.2542,0.55428897 -0.50273,0.5505973 -0.26318,-0.003779 -0.2516,-0.60185247 -0.5147,-0.59847376 -0.25217,0.0031975 -0.22641,0.58237864 -0.47876,0.5865073 -0.24871,0.003779 -0.24204,-0.56817683 -0.49075,-0.56256859 -0.24986,0.005523 -0.21686,0.5819649 -0.46681,0.58650731 -0.25739,0.004651 -0.24523,-0.58234085 -0.50271,-0.58650731 -0.25421,-0.0037789 -0.26058,0.56616822 -0.51469,0.56256859 -0.23713,-0.003198 -0.22787,-0.53536744 -0.46487,-0.53797002 -0.23568,-0.0023255 -0.23828,0.52370524 -0.47396,0.52474782 -0.2377,7.674e-4 -0.24494,-0.52766628 -0.48245,-0.52474782 -0.24001,0.0031975 -0.23422,0.53085992 -0.47395,0.54167623 -0.25305,0.0112882 -0.29677,-0.5298493 -0.55013,-0.52474782 -0.23945,0.004651 -0.26,0.52347657 -0.49936,0.51628507 -0.23394,-0.006976 -0.45705,-0.53321348 -0.45705,-0.53321348 h -7.30489 c 0,0 -0.16995,0.51508842 -0.38901,0.53198583 -0.24466,0.0188169 -0.27535,-0.52206675 -0.52069,-0.52067148 -0.24842,0.00155 -0.27245,0.53860468 -0.52067,0.53263793 -0.23741,-0.005523 -0.23538,-0.53212535 -0.47279,-0.53263793 -0.23018,-4.9803e-4 -0.23076,0.50453857 -0.46082,0.51468147 -0.25652,0.0112882 -0.30615,-0.54173824 -0.56258,-0.52665664 -0.25015,0.0147667 -0.23423,0.57635957 -0.48476,0.57453601 -0.24233,-0.00155 -0.2186,-0.55413587 -0.46081,-0.56256084 -0.23828,-0.0084298 -0.25218,0.51933918 -0.49075,0.52067148 -0.22989,0.00155 -0.249,-0.4913338 -0.47877,-0.49673276 -0.24697,-0.006104 -0.29179,0.51587618 -0.53864,0.50869921 -0.23829,-0.006976 -0.25218,-0.52005232 -0.49075,-0.52067147 -0.23134,-5.9978e-4 -0.24726,0.50397948 -0.47877,0.50271501 -0.24001,-0.00155 -0.25073,-0.5275219 -0.49075,-0.52665664 -0.2655,7.6741e-4 -0.27389,0.60544531 -0.53863,0.58650731 -0.22902,-0.0165011 -0.1604,-0.54538535 -0.38899,-0.56854988 -0.25131,-0.02548321 -0.29219,0.53406421 -0.54463,0.52665567 -0.23568,-0.006976 -0.47876,-0.52067147 -0.47876,-0.52067147 0,0 -0.30555,0.5577103 -0.56256,0.53264567 -0.23626,-0.0231577 -0.17603,-0.56549576 -0.41296,-0.58052505 -0.24378,-0.01534806 -0.25247,0.53078434 -0.49674,0.53863084 -0.23683,0.007558 -0.27766,-0.49565626 -0.51467,-0.49075146 -0.24118,0.005523 -0.26173,0.52823989 -0.50274,0.52067147 -0.2461,-0.007848 -0.23248,-0.56917969 -0.47876,-0.56256084 -0.25334,0.0069764 -0.20788,0.59157101 -0.46081,0.60445505 -0.26231,0.013323 -0.27622,-0.57030463 -0.53865,-0.57453214 -0.24262,-0.003779 -0.27273,0.5310072 -0.51469,0.51468147 -0.22004,-0.0147667 -0.40097,-0.52665664 -0.40097,-0.52665664 h -3.02228 c 0,0 -12.27682,4.15669007 -12.35769,4.15633157 -0.14969,-6.744e-4 -0.33779,0.4194082 -0.28345,0.4528028 0.0947,0.1808397 0.23278,0.309871 0.44011,0.3554744 l 10.56729,-0.039145 2.88463,-1.4423169 h 29.94561 c 0.17025,0.055675 0.40457,0.058456 0.45705,0.2584909 l 0.0677,0.2581439 v 4.1275113 c -0.0889,0.2716366 -0.22843,0.4673486 -0.47493,0.502718 h -38.82193 l 0.0261,1.8995001 14.04674,2.460375 h 31.77594 c 1.5294,0.04305 2.58303,-0.503844 3.55492,-1.152116 0.80313,-0.59921 1.47411,-1.295329 1.93906,-2.1425366 0.0686,-0.4400835 -0.0984,-0.6280255 -0.3441,-0.7315581 l -2.98343,-0.2678722 c 0,0 -0.4904,0.365594 -0.77799,0.4488476 -0.95124,0.2753718 -2.06978,0.5357327 -2.96842,0.1196916 -0.69386,-0.3212261 -1.18098,-1.0786453 -1.41241,-1.8073838 -0.22496,-0.7081233 -0.17574,-1.5395524 0.10771,-2.2263173 0.2545,-0.6162393 0.74235,-1.1899372 1.34057,-1.4842121 0.71784,-0.3531324 1.51351,-0.1778283 2.26224,-0.083785 0.25189,0.031646 0.49541,0.1189679 0.73013,0.2154388 0.28055,0.115377 0.80194,0.4309027 0.80194,0.4309027 z"
     id="compensator_right"
     sodipodi:nodetypes="cccsscccssssssssssssscsssssssssssssccssssssssssssssssscsssssssssccscccccscccccccccccsssssaac"
     inkscape:label="compensator_right">
    <title
       id="title8">metal</title>
  </path>
  <path
     style="fill:#5e5e5e;fill-rule:evenodd;stroke:#000000;stroke-width:0.0295876"
     d="m 93.30292,3.7958041 h -2.471387 c -0.173431,0.031181 -0.317096,0.1219493 -0.389331,0.3554772 l -0.03391,4.0117836 c 0.04166,0.2560598 0.119286,0.4743735 0.406268,0.4739587 h 71.19649 c 0.27911,-0.042672 0.45439,-0.1943313 0.50781,-0.4739587 V 4.1174206 c -0.0976,-0.1922471 -0.23191,-0.3592299 -0.54168,-0.4062547 h -2.40367 l -3.03,1.4896111 H 96.332855 Z"
     id="compensator_middle"
     sodipodi:nodetypes="ccccccccccccc"
     inkscape:label="compensator_middle">
    <title
       id="title9">metal</title>
  </path>
</svg>
