<?xml version="1.0" encoding="UTF-8" standalone="no"?>
<!-- Created with Inkscape (http://www.inkscape.org/) -->

<svg
   width="210mm"
   height="297mm"
   viewBox="0 0 210 297"
   version="1.1"
   id="svg1"
   inkscape:version="1.4 (86a8ad7, 2024-10-11)"
   sodipodi:docname="DSHA-0-135-corner.svg"
   xmlns:inkscape="http://www.inkscape.org/namespaces/inkscape"
   xmlns:sodipodi="http://sodipodi.sourceforge.net/DTD/sodipodi-0.dtd"
   xmlns="http://www.w3.org/2000/svg"
   xmlns:svg="http://www.w3.org/2000/svg">
  <sodipodi:namedview
     id="namedview1"
     pagecolor="#ffffff"
     bordercolor="#000000"
     borderopacity="0.25"
     inkscape:showpageshadow="2"
     inkscape:pageopacity="0.0"
     inkscape:pagecheckerboard="0"
     inkscape:deskcolor="#d1d1d1"
     inkscape:document-units="mm"
     inkscape:zoom="0.52337612"
     inkscape:cx="522.56874"
     inkscape:cy="398.37507"
     inkscape:window-width="2560"
     inkscape:window-height="1377"
     inkscape:window-x="-8"
     inkscape:window-y="-8"
     inkscape:window-maximized="1"
     inkscape:current-layer="svg1" />
  <defs
     id="defs1" />
  <path
     style="fill:#5e5e5e;fill-rule:evenodd;stroke:#000000;stroke-width:0.0422391"
     d="M 0.53050866,61.238439 V 59.970566 L 19.279901,57.339606 c 0,0 0.2027,0.46797 0.41205,0.475456 0.23895,0.0091 0.26826,-0.508976 0.50723,-0.507162 0.25032,6.46e-4 0.27295,0.546611 0.52306,0.53885 0.24324,-0.0083 0.23212,-0.543599 0.47547,-0.554708 0.25754,-0.01267 0.2975,0.556483 0.55462,0.538866 0.2141,-0.0146 0.18315,-0.482916 0.39629,-0.507177 0.25017,-0.027 0.33597,0.501505 0.58641,0.475475 0.21649,-0.0223 0.19417,-0.505499 0.41203,-0.507164 0.25501,-6.55e-4 0.23646,0.581979 0.49136,0.586402 0.24513,0.0011 0.24648,-0.536235 0.49131,-0.546753 0.22795,-0.0091 0.27139,0.475746 0.49921,0.467515 0.23734,-0.0091 0.24611,-0.521949 0.48352,-0.523034 0.24664,-6.52e-4 0.26035,0.539037 0.50708,0.53889 0.23921,-9.2e-5 0.25372,-0.497859 0.49137,-0.52302 0.40582,-0.04287 0.59821,0.698328 1.0064,0.697384 0.38699,-6.56e-4 0.56676,-0.71129 0.9509,-0.665695 0.24145,0.02694 0.23985,0.539323 0.48332,0.546813 0.25411,0.0083 0.28488,-0.541953 0.53887,-0.538853 0.22997,6.52e-4 0.24597,0.497343 0.4754,0.499217 0.23367,6.27e-4 0.25829,-0.508166 0.49138,-0.499217 0.22098,0.0091 0.20725,0.497792 0.42796,0.507146 0.25019,0.01273 0.28076,-0.531887 0.53098,-0.530937 0.24489,6.46e-4 0.27076,0.53009 0.51513,0.523008 0.22839,-0.0056 0.22385,-0.503338 0.45171,-0.515055 0.24838,-0.01322 0.29829,0.515825 0.54672,0.507151 0.23152,-0.0083 0.24379,-0.507151 0.47549,-0.507151 0.23177,0 0.24369,0.507151 0.47536,0.507151 0.23182,0 0.24421,-0.497602 0.47574,-0.507151 0.2595,-0.01273 0.31917,0.538848 0.5783,0.522984 0.23364,-0.01453 0.22605,-0.518139 0.45967,-0.530937 0.24816,-0.01359 0.29839,0.519123 0.5468,0.507162 0.22241,-0.0093 0.22097,-0.503444 0.44385,-0.499209 0.23258,0.0011 0.21108,0.5322 0.44355,0.538816 0.23741,0.0055 0.24608,-0.524841 0.48355,-0.522978 0.23746,6.52e-4 0.23757,0.524375 0.47545,0.530914 0.25759,0.0055 0.28906,-0.555607 0.54668,-0.546752 0.24524,0.0091 0.2383,0.554417 0.48358,0.554691 0.25259,2.25e-4 0.24668,-0.565064 0.49917,-0.570579 0.24479,-0.0055 0.26254,0.530262 0.50725,0.530943 0.21651,6.04e-4 0.2349,-0.463906 0.45175,-0.467546 0.22798,-0.0011 0.26314,0.476452 0.49107,0.475475 0.24104,-6.34e-4 0.27433,-0.51017 0.51519,-0.507146 0.2164,6.52e-4 0.23521,0.457207 0.45159,0.467515 0.23967,0.01288 0.30738,-0.483706 0.54705,-0.467515 0.22932,0.01506 0.22928,0.510442 0.45945,0.515059 0.22422,0.0011 0.24379,-0.473672 0.46762,-0.483388 0.21323,-0.0091 0.27033,0.425713 0.48322,0.420004 0.22424,-0.0055 0.25935,-0.472989 0.48362,-0.467513 0.23517,0.0055 0.24796,0.515055 0.4832,0.515055 0.23559,0 0.2483,-0.507787 0.48355,-0.515055 0.24672,-0.0083 0.29271,0.52062 0.53885,0.507151 0.23573,-0.0132 0.22382,-0.529515 0.45953,-0.538879 0.25014,-0.0091 0.28083,0.536912 0.53106,0.530937 0.23528,-0.0055 0.23974,-0.519935 0.47545,-0.52302 0.26309,-6.55e-4 0.28322,0.57503 0.54663,0.570563 0.23749,-0.0011 0.23791,-0.530914 0.47549,-0.530914 0.23748,0 0.23787,0.528074 0.4758,0.530914 0.23884,6.53e-4 0.25258,-0.504363 0.491,-0.522999 0.40357,-0.03065 0.55435,0.743215 0.95897,0.744862 0.42205,6.55e-4 0.58557,-0.80309 1.00649,-0.768615 0.24569,0.02097 0.26037,0.542543 0.50699,0.538816 0.24716,-6.57e-4 0.24431,-0.554839 0.49139,-0.554704 0.24344,7.7e-5 0.23979,0.5478 0.48359,0.546785 0.24121,-6.41e-4 0.23341,-0.548493 0.4754,-0.546785 0.2453,6.31e-4 0.2302,0.554235 0.47541,0.56264 0.24256,0.0091 0.26444,-0.513164 0.50703,-0.522999 0.25621,-0.0091 0.32414,0.537374 0.57859,0.507144 0.21827,-0.02426 0.16034,-0.526052 0.38041,-0.53885 0.2407,-0.01448 0.24162,0.533174 0.48324,0.53885 0.25977,0.0055 0.28728,-0.544225 0.54702,-0.554708 0.39105,-0.01503 0.49789,0.750499 0.88917,0.76722 0.41694,0.01782 0.59877,-0.774389 1.01429,-0.734083 0.2262,0.02195 0.23747,0.499739 0.46497,0.498742 0.24295,-6.59e-4 0.24986,-0.532652 0.49321,-0.53793 0.25619,-0.0055 0.28727,0.55236 0.54345,0.543537 0.23063,-0.0083 0.22382,-0.514418 0.45395,-0.521121 0.24568,-0.0083 0.26996,0.533304 0.51551,0.526739 0.22618,-0.0055 0.22208,-0.503955 0.44811,-0.509967 0.23021,-0.0055 0.25256,0.485135 0.48188,0.493129 0.24978,0.0091 0.31055,-0.510442 0.56037,-0.498718 0.222279,0.01282 0.231999,0.48354 0.453862,0.487516 0.2325,0.0011 0.26072,-0.495029 0.4932,-0.493117 0.23925,6.33e-4 0.25993,0.521852 0.49873,0.515531 0.22742,-0.0055 0.22053,-0.508866 0.44805,-0.515531 0.23476,-0.0055 0.25832,0.500527 0.49352,0.504319 0.24811,0.0011 0.28924,-0.516782 0.53767,-0.515503 0.24061,6.28e-4 0.27526,0.507101 0.5156,0.504301 0.21462,-6.53e-4 0.23426,-0.450442 0.44841,-0.459483 0.25624,-0.01262 0.32749,0.53346 0.58277,0.50429 0.22008,-0.02378 0.17074,-0.521853 0.39222,-0.537924 0.24532,-0.01782 0.26995,0.528241 0.51531,0.526734 0.23287,-6.48e-4 0.24931,-0.500354 0.48212,-0.504319 0.23472,-0.0011 0.26901,0.498386 0.50419,0.493116 0.23477,-0.0054 0.24717,-0.51156 0.48191,-0.515531 0.2379,-0.0011 0.26667,0.502984 0.50418,0.504319 0.23063,6.51e-4 0.26341,-0.481818 0.4932,-0.481904 0.21871,-4.7e-5 0.2517,0.456874 0.47075,0.459481 0.21923,6.57e-4 0.2626,-0.446877 0.48189,-0.448262 0.21695,-6.3e-4 0.26493,0.439937 0.48179,0.437068 0.23798,-6.55e-4 0.27767,-0.498287 0.51559,-0.493089 0.24832,0.0054 0.26764,0.545042 0.51559,0.537918 0.23481,-0.0055 0.22424,-0.53113 0.45942,-0.537918 0.25393,-0.0083 0.2731,0.553282 0.52661,0.549121 0.24651,-0.0011 0.24744,-0.546575 0.49322,-0.549121 0.24063,-6.63e-4 0.25299,0.526886 0.49318,0.526706 0.23102,-1.48e-4 0.24077,-0.500348 0.47079,-0.504319 0.23755,-0.0011 0.26638,0.502859 0.50416,0.504319 0.21925,6.51e-4 0.2526,-0.451802 0.47054,-0.45949 0.22523,-0.0083 0.29042,0.442531 0.51559,0.437067 0.23464,-0.0055 0.28032,-0.497174 0.51557,-0.481896 0.24655,0.01544 0.22428,0.571809 0.47084,0.571569 0.2415,-2.38e-4 0.21822,-0.553812 0.45943,-0.560379 0.23791,-0.0055 0.24342,0.524039 0.4818,0.526734 0.248,6.38e-4 0.26851,-0.515325 0.51559,-0.537924 0.39451,-0.03614 0.56767,0.691513 0.96364,0.694836 0.4188,6.55e-4 0.61653,-0.776873 1.03113,-0.717223 0.24203,0.03494 0.21469,0.567489 0.45948,0.57155 0.2466,0.0011 0.23472,-0.548482 0.48184,-0.560347 0.24752,-0.01289 0.28947,0.525816 0.53803,0.515503 0.21324,-0.0091 0.21131,-0.471712 0.42565,-0.481904 0.23423,-0.01267 0.27982,0.484636 0.51561,0.481904 0.24605,-6.59e-4 0.28028,-0.523738 0.52687,-0.515503 0.23434,0.0083 0.23434,0.518701 0.47084,0.526715 0.22426,0.0083 0.25668,-0.468142 0.48179,-0.470702 0.23114,-6.27e-4 0.2754,0.478472 0.5042,0.470702 0.24073,-0.0083 0.25364,-0.532399 0.4932,-0.526715 0.23114,0.0055 0.21794,0.513814 0.44816,0.526715 0.25207,0.01447 0.29854,-0.523807 0.54925,-0.515531 0.23115,0.0083 0.24082,0.513105 0.47048,0.504319 0.21418,-0.0091 0.40361,-0.504319 0.40361,-0.504319 h 3.04804 v 0.773264 c 0,0 -1.43186,0.996855 -1.94967,1.681063 -0.41096,0.542315 -0.86312,1.84917 -0.86312,1.84917 0.0455,0.219401 0.18632,0.39691 0.43706,0.526739 h 3.373517 c 0.14975,-0.161797 0.29786,-0.311814 0.44842,-0.414704 1.26735,-1.228141 2.44242,-1.016951 3.49609,-0.504277 0.88052,0.428336 1.43072,1.690713 1.43483,2.566364 7e-4,0.853729 -0.39126,1.602579 -1.03111,2.084496 -0.87191,0.65487 -1.8989,0.803983 -2.8914,0.470702 -0.56582,-0.189877 -1.50198,-1.053434 -1.50198,-1.053434 h -3.249827 c 0,0 -0.39094,0.04715 -0.49321,0.190527 -0.10931,0.15203 -0.006,0.560339 -0.006,0.560339 0,0 1.19279,2.122746 2.11805,2.868956 0.88639,0.714824 3.115567,1.400896 3.115567,1.400896 l 0.95256,0.04481 2.94734,0.302632 V 73.02621 H 84.047873 V 61.202892 Z"
     id="profile_left"
     sodipodi:nodetypes="cccssssssssssssssssssssssssssssssssssssssssssssssssssssssssssssssssssssssssssssssssssssssssssssssssssssssssssssssssssssssssssssssssscccsccccssssccscsccccccc"
     inkscape:label="profile_left" />
  <rect
     style="fill:#ddd5d5;fill-opacity:0.768047;fill-rule:evenodd;stroke:#b81e1e;stroke-width:0.0184572"
     id="concrete_left"
     width="140.11058"
     height="49.982468"
     x="-56.123608"
     y="63.566406" />
  <ellipse
     style="fill:#b4cdd0;fill-opacity:0;fill-rule:evenodd;stroke:#b81e1e;stroke-width:0.00016359"
     id="screw_left"
     cx="-27.065462"
     cy="-58.113285"
     rx="0.049918205"
     ry="0.032774579"
     transform="scale(-1)"
     inkscape:label="screw_left" />
  <rect
     style="fill:#e1ecec;fill-opacity:0.77;fill-rule:evenodd;stroke:#b81e1e;stroke-width:0.0126854"
     id="finish_left"
     width="140.11874"
     height="2.0309176"
     x="-56.14761"
     y="61.423679"
     inkscape:label="finish_left" />
  <rect
     style="fill:#e1ecec;fill-opacity:0.77;fill-rule:evenodd;stroke:#b81e1e;stroke-width:0.0144776"
     id="cover_left"
     width="140.11621"
     height="0.12596738"
     x="-56.13435"
     y="61.247318"
     inkscape:label="cover_left" />
  <rect
     style="fill:#404242;fill-opacity:0.341246;fill-rule:evenodd;stroke:#b81e1e;stroke-width:0.0238057"
     id="shadow"
     width="263.53418"
     height="0.0094383899"
     x="-2.6879034"
     y="113.38096"
     inkscape:label="shadow" />
  <ellipse
     style="opacity:0;fill:none;fill-opacity:0;fill-rule:evenodd;stroke-width:0.000191947;stroke-opacity:0"
     id="screw_right"
     cx="241.1431"
     cy="21.699629"
     rx="0.0049418169"
     ry="0.0015055466"
     inkscape:label="screw_right" />
  <path
     style="fill:#5e5e5e;fill-rule:evenodd;stroke:#000000;stroke-width:0.0441661"
     d="m 235.86957,65.3634 h 3.29292 c 0.0846,-0.0709 0.72166,0.39848 0.52726,0.78512 -0.22127,0.44001 -0.41877,0.93966 -0.67956,1.37107 -0.25974,0.4296 -0.59704,0.81424 -0.96096,1.16012 -0.40281,0.38249 -1.33586,0.99606 -1.33586,0.99606 v 0.71484 h 1.24207 c 0,0 0.13873,-0.47882 0.33969,-0.50389 0.24462,-0.0302 0.30469,0.50467 0.55083,0.49218 0.24289,-0.0129 0.24894,-0.54162 0.49218,-0.53907 0.24937,0.002 0.24332,0.55156 0.49216,0.5625 0.25932,0.0129 0.30298,-0.54335 0.5625,-0.53903 0.23467,0.004 0.25759,0.49835 0.49214,0.50389 0.23467,0.004 0.28135,-0.49689 0.51559,-0.48047 0.21048,0.0129 0.39848,0.49218 0.39848,0.49218 H 242.924 V 8.7832105 h -0.86049 l -1.43049,4.2278375 v 1.593692 c 0,0 0.52004,0.16294 0.53318,0.38075 0.013,0.24852 -0.54258,0.255 -0.55082,0.50389 -0.013,0.25975 0.54603,0.30297 0.53907,0.56254 -0.013,0.25672 -0.56799,0.27055 -0.5625,0.52731 0,0.25759 0.58077,0.24635 0.58592,0.50389 0,0.23468 -0.50865,0.24548 -0.5156,0.48046 -0.013,0.22647 0.47147,0.2658 0.46871,0.49218 0,0.23727 -0.50748,0.26623 -0.5038,0.50389 0,0.26795 0.58716,0.28264 0.58591,0.55077 0,0.2766 -0.6214,0.28611 -0.60938,0.5625 0.013,0.26147 0.61336,0.21869 0.62107,0.48046 0.013,0.24332 -0.4963,0.24289 -0.55075,0.48046 -0.0891,0.38897 0.47639,0.70257 0.46875,1.10152 -0.013,0.37557 -0.55473,0.65122 -0.48051,1.01953 0.0432,0.20615 0.45945,0.21177 0.46871,0.42182 0.013,0.23467 -0.48315,0.28049 -0.48037,0.51559 0,0.2403 0.50517,0.27531 0.50384,0.51561 0,0.23208 -0.47995,0.26061 -0.49218,0.49217 -0.013,0.23598 0.45099,0.31463 0.44528,0.55078 -0.013,0.24073 -0.48724,0.29864 -0.48037,0.53907 0.013,0.25413 0.53763,0.28481 0.53902,0.53902 0,0.25672 -0.55653,0.29432 -0.53902,0.55079 0.0173,0.24158 0.56876,0.20312 0.57413,0.44532 0.013,0.27141 -0.62526,0.25585 -0.62102,0.52731 0,0.26969 0.62606,0.23424 0.6328,0.50389 0.013,0.26579 -0.58653,0.2619 -0.59771,0.52735 -0.013,0.25413 0.53448,0.29649 0.5274,0.55074 -0.013,0.24591 -0.54331,0.25802 -0.53907,0.50393 0,0.24375 0.54386,0.23684 0.55074,0.48046 0.013,0.2403 -0.51289,0.26364 -0.51565,0.50389 0,0.2403 0.51322,0.27531 0.50398,0.515601 -0.013,0.25456 -0.57464,0.24937 -0.57429,0.50389 3.3e-4,0.24375 0.53622,0.23727 0.55081,0.48046 0.0172,0.26234 -0.54303,0.32371 -0.52735,0.58592 0.013,0.2485 0.55562,0.24332 0.5625,0.49217 0.013,0.24592 -0.52294,0.26969 -0.52727,0.5156 0,0.23209 0.48745,0.27185 0.48037,0.50393 -0.013,0.22388 -0.48245,0.23339 -0.49217,0.456999 -0.013,0.27919 0.58695,0.34272 0.56249,0.62109 -0.0216,0.24116 -0.55631,0.204 -0.57416,0.44529 -0.0173,0.27141 0.58354,0.31809 0.56491,0.58946 -0.0173,0.23554 -0.54982,0.20313 -0.55518,0.43919 0,0.24851 0.56456,0.2403 0.56339,0.48889 0,0.26839 -0.66275,0.48046 -0.61314,0.52204 0.0492,0.0432 0.60869,0.24721 0.61314,0.51374 0,0.2524 -0.55848,0.25327 -0.56339,0.50545 0,0.25801 0.5563,0.28092 0.55518,0.53859 -0.002,0.24418 -0.53665,0.26147 -0.53038,0.50548 0.013,0.23295 0.51893,0.22301 0.53038,0.45574 0.013,0.25932 -0.54352,0.30384 -0.5386,0.56345 0,0.2498 0.53847,0.27185 0.5386,0.52204 9e-5,0.26968 -0.59041,0.29389 -0.58012,0.56344 0.013,0.25888 0.60048,0.23814 0.59668,0.49719 0,0.24591 -0.57322,0.21004 -0.58009,0.45574 -0.013,0.24635 0.54361,0.24246 0.55514,0.48889 0.013,0.26147 -0.54541,0.30988 -0.53853,0.57174 0.013,0.25586 0.56633,0.27444 0.55513,0.53034 -0.013,0.24721 -0.56145,0.21696 -0.57999,0.46404 -0.0172,0.24765 0.5082,0.29864 0.50544,0.54689 0,0.22647 -0.47774,0.26234 -0.47226,0.48889 0.013,0.25413 0.56022,0.26796 0.55516,0.52204 0,0.24851 -0.55996,0.24029 -0.56348,0.48885 0,0.22862 0.49073,0.23597 0.50538,0.46404 0.0173,0.25239 -0.49663,0.32716 -0.48884,0.58004 0.013,0.25196 0.52199,0.29475 0.52199,0.54689 0,0.24807 -0.51213,0.29043 -0.51373,0.53859 0,0.2148 0.43931,0.25715 0.43918,0.47234 -8e-5,0.22257 -0.45786,0.26622 -0.45566,0.48889 0,0.25802 0.55242,0.29777 0.5386,0.55515 -0.013,0.23294 -0.52982,0.21436 -0.5386,0.44748 -0.013,0.23036 0.49603,0.25023 0.49706,0.48059 0.002,0.25197 -0.53768,0.27833 -0.53858,0.5303 -7.8e-4,0.23813 0.49446,0.26752 0.50556,0.50548 0.013,0.25067 -0.49342,0.32933 -0.48062,0.58004 0.013,0.22431 0.48062,0.24765 0.48062,0.4723 0,0.21696 -0.44061,0.2403 -0.46404,0.45574 -0.0172,0.15083 0.24851,0.38119 0.24851,0.38119 v 1.62407 c -0.0696,0.29692 -0.22948,0.52973 -0.59654,0.61319 h -3.53824 v 0.74578 l 1.26782,1.00264 1.05233,1.17663 c -0.013,0 0.46737,0.81372 0.62153,1.28437 0.13096,0.39978 -0.52134,0.90051 -0.55518,0.87004 h -3.26479 c -0.7314,-0.78321 -1.57645,-1.20784 -2.5108,-1.35067 -0.0172,-0.0346 -1.54485,0.24073 -2.07976,0.82033 -0.47286,0.51249 -1.00492,1.28131 -1.03579,2.07986 -0.0303,0.79086 0.34359,1.63635 0.90315,2.19586 0.5764,0.57619 1.45167,0.72539 2.23734,0.68774 0.51127,-0.0259 0.96582,-0.12966 1.34234,-0.35613 0.40539,-0.24375 1.1475,-0.83502 1.1475,-0.83502 z"
     id="profile_right"
     sodipodi:nodetypes="ccssscccsssssssccccccsssssssssssssssssssssssssssssssssssssssssssssssssssssssssssssssssssssssssssscccccccscccsssssc"
     inkscape:label="profile_right" />
  <rect
     style="fill:#e1ecec;fill-opacity:0.77;fill-rule:evenodd;stroke:#b81e1e;stroke-width:0.00839695"
     id="finish_right"
     width="61.239105"
     height="2.0361254"
     x="-61.243305"
     y="243.16293"
     inkscape:label="finish_right"
     transform="rotate(-90)" />
  <rect
     style="fill:#e1ecec;fill-opacity:0.77;fill-rule:evenodd;stroke:#b81e1e;stroke-width:0.00963666"
     id="cover_right"
     width="61.21777"
     height="0.12774111"
     x="-61.228786"
     y="242.98721"
     inkscape:label="cover_right"
     transform="rotate(-90)" />
  <path
     style="fill:#e1ecec;fill-opacity:0.77;fill-rule:evenodd;stroke:#b81e1e;stroke-width:0.00990152"
     d="m 245.2105,0.01555144 20.9385,-6e-6 V 113.42588 H 242.96609 V 61.270112 h 2.23331 z"
     id="concrete_right"
     inkscape:label="concrete_right"
     sodipodi:nodetypes="ccccccc" />
  <path
     style="fill:#5e5e5e;fill-rule:evenodd;stroke:#000000;stroke-width:0.0295876"
     d="m 91.17702,61.573367 -2.968428,-0.299233 c -0.295557,-0.13576 -0.406227,-0.367172 -0.239382,-0.742106 0,0 0.659549,-0.868977 1.029373,-1.268761 0.295134,-0.319043 0.592107,-0.644842 0.945592,-0.897714 0.307706,-0.220128 1.005435,-0.526656 1.005435,-0.526656 v -0.562559 l 3.02827,0.03593 c 0,0 0.23761,0.470574 0.45483,0.466813 0.23722,-0.0038 0.24156,-0.52947 0.47878,-0.526659 0.23756,0.0032 0.22937,0.53016 0.46682,0.538622 0.23119,0.0084 0.25947,-0.49638 0.49074,-0.490742 0.23154,0.0055 0.23524,0.518552 0.46681,0.514684 0.2406,-0.0038 0.22714,-0.529131 0.46681,-0.550597 0.26255,-0.02345 0.348,0.527344 0.61044,0.502718 0.21718,-0.02027 0.20085,-0.497901 0.41893,-0.502718 0.24283,-0.0055 0.24812,0.527475 0.49076,0.53863 0.24826,0.01129 0.30306,-0.525025 0.55059,-0.502717 0.20981,0.01882 0.17325,0.483174 0.38302,0.502717 0.27285,0.02548 0.33674,-0.563871 0.61044,-0.550597 0.24824,0.01216 0.25423,0.555406 0.50271,0.550597 0.23495,-0.0046 0.45485,-0.53863 0.45485,-0.53863 0,0 0.2542,0.554288 0.50271,0.550597 0.26309,-0.0038 0.2516,-0.601853 0.5147,-0.598474 0.25235,0.0032 0.22644,0.582379 0.47877,0.586507 0.24882,0.0038 0.24196,-0.568177 0.49074,-0.562569 0.24981,0.0055 0.21698,0.581965 0.46682,0.586507 0.25745,0.0047 0.24526,-0.582341 0.50272,-0.586507 0.25411,-0.0038 0.26053,0.566168 0.51468,0.562569 0.23697,-0.0032 0.22788,-0.535368 0.46487,-0.537971 0.23568,-0.0023 0.23825,0.523706 0.47396,0.524748 0.23761,7.68e-4 0.24485,-0.527666 0.48243,-0.524748 0.23991,0.0032 0.23429,0.53086 0.47397,0.541678 0.25316,0.01129 0.29676,-0.52985 0.55014,-0.524748 0.23938,0.0047 0.26005,0.523476 0.49935,0.516284 0.234,-0.007 0.45705,-0.533214 0.45705,-0.533214 h 7.3049 c 0,0 0.16995,0.51509 0.38901,0.531986 0.24465,0.01882 0.27535,-0.522066 0.52066,-0.52067 0.24841,0.0016 0.27245,0.538604 0.52065,0.532637 0.23743,-0.0055 0.2354,-0.532125 0.47281,-0.532637 0.23017,-4.98e-4 0.23075,0.504538 0.46084,0.51468 0.25653,0.01129 0.30612,-0.541737 0.56256,-0.526655 0.25015,0.01477 0.23422,0.576356 0.48475,0.574535 0.24234,-0.0016 0.21859,-0.554135 0.46082,-0.56256 0.23828,-0.0084 0.25218,0.519339 0.49075,0.52067 0.22988,0.0016 0.24899,-0.491333 0.4788,-0.496732 0.24696,-0.0061 0.29175,0.515877 0.5386,0.508699 0.23828,-0.007 0.25219,-0.520052 0.49075,-0.520675 0.23134,-5.96e-4 0.24727,0.503984 0.4788,0.502718 0.24002,-0.0016 0.25073,-0.527522 0.49072,-0.526655 0.2655,7.67e-4 0.2739,0.605445 0.53864,0.586507 0.22902,-0.0165 0.1604,-0.545385 0.38901,-0.568551 0.25131,-0.02548 0.2922,0.534065 0.54461,0.526656 0.23567,-0.007 0.47879,-0.520675 0.47879,-0.520675 0,0 0.30554,0.557715 0.56255,0.53265 0.23626,-0.02316 0.17604,-0.565496 0.41296,-0.580526 0.24378,-0.01535 0.25247,0.530785 0.49672,0.538631 0.23683,0.0076 0.27766,-0.495656 0.51469,-0.490755 0.24118,0.0055 0.26174,0.528243 0.50271,0.520675 0.2461,-0.0078 0.23249,-0.569179 0.47879,-0.56256 0.25334,0.007 0.20789,0.591571 0.46082,0.604455 0.26231,0.01331 0.27621,-0.570306 0.53863,-0.574532 0.24263,-0.0038 0.27245,0.531007 0.51467,0.51468 0.22005,-0.01477 0.40101,-0.526655 0.40101,-0.526655 h 3.02227 c 0,0 12.27683,4.15669 12.35767,4.15633 0.14968,-6.74e-4 0.3378,0.419409 0.28345,0.452803 -0.0947,0.18084 -0.23278,0.309872 -0.44012,0.355475 l -10.56728,-0.03914 -2.88463,-1.44232 h -29.94553 c -0.17013,0.05571 -0.40455,0.05846 -0.45703,0.258492 l -0.0677,0.258144 v 4.127511 c 0.0889,0.271636 0.22847,0.467349 0.47492,0.502717 h 38.82196 l -0.0261,1.899501 -14.04673,2.460375 H 93.42726 c -1.5294,0.04305 -2.58304,-0.503844 -3.554921,-1.152116 -0.803121,-0.599209 -1.474101,-1.295329 -1.939052,-2.142536 -0.06848,-0.440085 0.09841,-0.628026 0.344093,-0.731558 l 2.98341,-0.267873 c 0,0 0.49043,0.365594 0.77801,0.448848 0.95123,0.275371 2.06978,0.535733 2.96843,0.119692 0.69385,-0.321227 1.18097,-1.078647 1.4124,-1.807384 0.22487,-0.708125 0.17577,-1.539553 -0.10774,-2.226318 -0.25435,-0.616239 -0.74237,-1.189938 -1.34058,-1.484215 -0.71784,-0.353129 -1.51352,-0.177828 -2.26223,-0.08378 -0.25177,0.03165 -0.49543,0.118967 -0.73013,0.215438 -0.28067,0.115378 -0.80196,0.430902 -0.80196,0.430902 z"
     id="compensator_left"
     sodipodi:nodetypes="cccsscccssssssssssssscsssssssssssssccssssssssssssssssscsssssssssccscccccscccccccccccsssssaac"
     inkscape:label="compensator_left">
    <title
       id="title7">metal</title>
  </path>
  <path
     style="fill:#5e5e5e;fill-rule:evenodd;stroke:#000000;stroke-width:0.0295876"
     d="m 235.63436,61.603627 2.96843,-0.299234 c 0.29554,-0.13576 0.40624,-0.367172 0.23943,-0.742106 0,0 -0.65954,-0.868977 -1.02935,-1.268762 -0.29515,-0.319043 -0.59212,-0.644842 -0.94561,-0.897713 -0.30767,-0.220128 -1.00541,-0.526655 -1.00541,-0.526655 v -0.562561 l -3.02827,0.03593 c 0,0 -0.23771,0.470574 -0.45485,0.466814 -0.23713,-0.0038 -0.24147,-0.529471 -0.47877,-0.526656 -0.2377,0.0032 -0.22931,0.530156 -0.4668,0.538619 -0.23134,0.0084 -0.25943,-0.49638 -0.49075,-0.490742 -0.23163,0.0055 -0.23539,0.518551 -0.46681,0.514683 -0.2406,-0.0038 -0.22729,-0.529131 -0.46681,-0.550597 -0.2626,-0.02345 -0.34801,0.527345 -0.61044,0.502718 -0.21715,-0.02027 -0.20093,-0.497897 -0.41896,-0.502718 -0.24291,-0.0055 -0.24812,0.527475 -0.49075,0.538631 -0.24812,0.01129 -0.30304,-0.525026 -0.55056,-0.502717 -0.20991,0.01882 -0.17314,0.483174 -0.38305,0.502717 -0.27273,0.02548 -0.33672,-0.563872 -0.61045,-0.550594 -0.24811,0.01216 -0.2542,0.555403 -0.5027,0.550594 -0.23481,-0.0047 -0.45482,-0.538631 -0.45482,-0.538631 0,0 -0.25421,0.554289 -0.50274,0.550597 -0.26318,-0.0038 -0.2516,-0.601852 -0.51469,-0.598474 -0.25218,0.0032 -0.22642,0.582379 -0.47877,0.586508 -0.24871,0.0038 -0.24204,-0.568177 -0.49075,-0.562569 -0.24986,0.0055 -0.21686,0.581965 -0.46681,0.586507 -0.25739,0.0047 -0.24523,-0.582341 -0.5027,-0.586507 -0.25422,-0.0038 -0.26058,0.566168 -0.5147,0.562569 -0.23713,-0.0032 -0.22786,-0.535368 -0.46487,-0.53797 -0.23567,-0.0023 -0.23828,0.523705 -0.47396,0.524747 -0.2377,7.68e-4 -0.24494,-0.527666 -0.48244,-0.524747 -0.24002,0.0032 -0.23423,0.530859 -0.47396,0.541676 -0.25305,0.01129 -0.29677,-0.529849 -0.55013,-0.524748 -0.23944,0.0047 -0.26,0.523477 -0.49935,0.516285 -0.23395,-0.007 -0.45705,-0.533213 -0.45705,-0.533213 h -7.3049 c 0,0 -0.16995,0.515088 -0.38901,0.531985 -0.24466,0.01882 -0.27534,-0.522066 -0.52069,-0.520671 -0.24842,0.0016 -0.27245,0.538605 -0.52066,0.532638 -0.23741,-0.0055 -0.23539,-0.532125 -0.4728,-0.532638 -0.23018,-4.98e-4 -0.23075,0.504538 -0.46082,0.514681 -0.25652,0.01129 -0.30615,-0.541738 -0.56258,-0.526656 -0.25015,0.01477 -0.23423,0.576359 -0.48476,0.574536 -0.24233,-0.0016 -0.21859,-0.554136 -0.46081,-0.562561 -0.23828,-0.0084 -0.25218,0.519339 -0.49075,0.520671 -0.22989,0.0016 -0.249,-0.491333 -0.47876,-0.496732 -0.24698,-0.0061 -0.29179,0.515876 -0.53865,0.508699 -0.23828,-0.007 -0.25218,-0.520052 -0.49075,-0.520672 -0.23134,-5.99e-4 -0.24726,0.50398 -0.47876,0.502715 -0.24002,-0.0016 -0.25074,-0.527522 -0.49076,-0.526656 -0.2655,7.67e-4 -0.27389,0.605445 -0.53863,0.586507 -0.22902,-0.0165 -0.1604,-0.545385 -0.38898,-0.56855 -0.25132,-0.02548 -0.2922,0.534064 -0.54464,0.526656 -0.23567,-0.007 -0.47876,-0.520672 -0.47876,-0.520672 0,0 -0.30555,0.557711 -0.56256,0.532646 -0.23626,-0.02316 -0.17603,-0.565496 -0.41295,-0.580525 -0.24379,-0.01535 -0.25247,0.530784 -0.49674,0.538631 -0.23684,0.0076 -0.27766,-0.495656 -0.51468,-0.490752 -0.24118,0.0055 -0.26173,0.52824 -0.50273,0.520672 -0.24611,-0.0078 -0.23249,-0.56918 -0.47877,-0.562561 -0.25334,0.007 -0.20787,0.591571 -0.46081,0.604455 -0.26231,0.01332 -0.27621,-0.570305 -0.53864,-0.574532 -0.24263,-0.0038 -0.27274,0.531007 -0.5147,0.514681 -0.22003,-0.01477 -0.40096,-0.526656 -0.40096,-0.526656 h -3.02228 c 0,0 -12.27683,4.15669 -12.3577,4.156331 -0.14969,-6.74e-4 -0.33779,0.419408 -0.28345,0.452803 0.0947,0.18084 0.23279,0.309871 0.44011,0.355474 l 10.56729,-0.03915 2.88463,-1.442317 h 29.94562 c 0.17024,0.05568 0.40456,0.05846 0.45705,0.258491 l 0.0677,0.258144 v 4.127511 c -0.0889,0.271637 -0.22844,0.467349 -0.47494,0.502718 h -38.82192 l 0.0261,1.899501 14.04675,2.460375 h 31.77594 c 1.5294,0.04305 2.58303,-0.503844 3.55491,-1.152117 0.80313,-0.599209 1.47412,-1.295328 1.93906,-2.142536 0.0686,-0.440084 -0.0984,-0.628026 -0.3441,-0.731558 l -2.98342,-0.267873 c 0,0 -0.4904,0.365594 -0.778,0.448848 -0.95124,0.275372 -2.06978,0.535733 -2.96841,0.119692 -0.69386,-0.321226 -1.18099,-1.078646 -1.41241,-1.807384 -0.22497,-0.708123 -0.17575,-1.539553 0.10771,-2.226317 0.25449,-0.61624 0.74234,-1.189938 1.34057,-1.484213 0.71783,-0.353132 1.51351,-0.177828 2.26223,-0.08378 0.25189,0.03165 0.49541,0.118968 0.73014,0.215439 0.28054,0.115377 0.80193,0.430902 0.80193,0.430902 z"
     id="compensator_right"
     sodipodi:nodetypes="cccsscccssssssssssssscsssssssssssssccssssssssssssssssscsssssssssccscccccscccccccccccsssssaac"
     inkscape:label="compensator_right">
    <title
       id="title8">metal</title>
  </path>
  <path
     style="fill:#5e5e5e;fill-rule:evenodd;stroke:#000000;stroke-width:0.0295876"
     d="m 130.36944,60.997507 h -2.47138 c -0.17344,0.03118 -0.3171,0.121949 -0.38934,0.355477 l -0.0339,4.011784 c 0.0417,0.25606 0.11929,0.474373 0.40627,0.473958 h 71.1965 c 0.2791,-0.04267 0.45438,-0.194331 0.5078,-0.473958 v -4.045645 c -0.0976,-0.192247 -0.23191,-0.35923 -0.54168,-0.406254 h -2.40367 l -3.03,1.489611 h -60.21065 z"
     id="compensator_middle"
     sodipodi:nodetypes="ccccccccccccc"
     inkscape:label="compensator_middle">
    <title
       id="title9">metal</title>
  </path>
</svg>
