<?xml version="1.0" encoding="UTF-8" standalone="no"?>
<!-- Created with Inkscape (http://www.inkscape.org/) -->

<svg
   width="210mm"
   height="297mm"
   viewBox="0 0 210 297"
   version="1.1"
   id="svg1"
   inkscape:version="1.4 (86a8ad7, 2024-10-11)"
   sodipodi:docname="profiles.svg"
   xmlns:inkscape="http://www.inkscape.org/namespaces/inkscape"
   xmlns:sodipodi="http://sodipodi.sourceforge.net/DTD/sodipodi-0.dtd"
   xmlns="http://www.w3.org/2000/svg"
   xmlns:svg="http://www.w3.org/2000/svg">
  <sodipodi:namedview
     id="namedview1"
     pagecolor="#ffffff"
     bordercolor="#000000"
     borderopacity="0.25"
     inkscape:showpageshadow="2"
     inkscape:pageopacity="0.0"
     inkscape:pagecheckerboard="0"
     inkscape:deskcolor="#d1d1d1"
     inkscape:document-units="mm"
     inkscape:zoom="0.37008281"
     inkscape:cx="-1105.1581"
     inkscape:cy="279.66714"
     inkscape:window-width="2560"
     inkscape:window-height="1377"
     inkscape:window-x="-8"
     inkscape:window-y="-8"
     inkscape:window-maximized="1"
     inkscape:current-layer="svg1" />
  <defs
     id="defs1" />
  <path
     style="fill:#5e5e5e;fill-rule:evenodd;stroke:#000000;stroke-width:0.0422391"
     d="m -9.0301954,16.997209 v -1.267873 l 18.7493857,-2.63096 c 0,0 0.2026926,0.46797 0.4120417,0.475456 0.238952,0.0091 0.268268,-0.508976 0.507234,-0.507162 0.250324,6.46e-4 0.272947,0.546611 0.52306,0.53885 0.243236,-0.0083 0.232119,-0.543599 0.475471,-0.554708 0.257544,-0.01267 0.297497,0.556483 0.554624,0.538866 0.214093,-0.0146 0.183149,-0.482916 0.396288,-0.507177 0.250171,-0.027 0.335965,0.501505 0.586413,0.475475 0.216487,-0.0223 0.194169,-0.505499 0.412028,-0.507164 0.255007,-6.55e-4 0.236461,0.581979 0.491353,0.586402 0.245133,0.0011 0.246489,-0.536235 0.491309,-0.546753 0.227958,-0.0091 0.271393,0.475746 0.499211,0.467515 0.237343,-0.0091 0.24611,-0.521949 0.483526,-0.523034 0.246638,-6.52e-4 0.260343,0.539037 0.50708,0.53889 0.239209,-9.2e-5 0.253717,-0.497859 0.491366,-0.52302 0.405824,-0.04287 0.598211,0.698328 1.006396,0.697384 0.386996,-6.56e-4 0.566758,-0.71129 0.950904,-0.665695 0.241444,0.02694 0.239846,0.539323 0.483322,0.546813 0.254108,0.0083 0.284873,-0.541953 0.538866,-0.538853 0.229974,6.52e-4 0.245973,0.497343 0.475398,0.499217 0.233671,6.27e-4 0.258295,-0.508166 0.491382,-0.499217 0.220982,0.0091 0.207251,0.497792 0.427962,0.507146 0.250185,0.01273 0.280758,-0.531887 0.530982,-0.530937 0.244889,6.46e-4 0.270754,0.53009 0.515132,0.523008 0.228387,-0.0056 0.223849,-0.503338 0.451706,-0.515055 0.248377,-0.01322 0.298285,0.515825 0.546717,0.507151 0.231524,-0.0083 0.243796,-0.507151 0.475488,-0.507151 0.231774,0 0.243698,0.507151 0.475359,0.507151 0.231824,0 0.244217,-0.497602 0.475746,-0.507151 0.259501,-0.01273 0.319175,0.538848 0.578297,0.522984 0.233645,-0.01453 0.226056,-0.518139 0.459677,-0.530937 0.248157,-0.01359 0.298389,0.519123 0.546799,0.507162 0.222413,-0.0093 0.220966,-0.503444 0.443855,-0.499209 0.232574,0.0011 0.211076,0.5322 0.443546,0.538816 0.237409,0.0055 0.246079,-0.524841 0.483546,-0.522978 0.237459,6.52e-4 0.237569,0.524375 0.475452,0.530914 0.25759,0.0055 0.289056,-0.555607 0.546684,-0.546752 0.245233,0.0091 0.238294,0.554417 0.483579,0.554691 0.252589,2.25e-4 0.246675,-0.565064 0.499173,-0.570579 0.244786,-0.0055 0.262536,0.530262 0.507246,0.530943 0.216514,6.04e-4 0.234903,-0.463906 0.451745,-0.467546 0.227983,-0.0011 0.263143,0.476452 0.491072,0.475475 0.241044,-6.34e-4 0.274335,-0.51017 0.515188,-0.507146 0.216403,6.52e-4 0.235209,0.457207 0.451589,0.467515 0.239677,0.01288 0.307382,-0.483706 0.547053,-0.467515 0.229325,0.01506 0.229277,0.510442 0.45945,0.515059 0.224218,0.0011 0.243792,-0.473672 0.467622,-0.483388 0.213235,-0.0091 0.270335,0.425713 0.483221,0.420004 0.224238,-0.0055 0.259351,-0.472989 0.483618,-0.467513 0.235179,0.0055 0.247961,0.515055 0.483208,0.515055 0.235584,0 0.248298,-0.507787 0.48355,-0.515055 0.246717,-0.0083 0.292707,0.52062 0.538849,0.507151 0.235731,-0.0132 0.223817,-0.529515 0.459533,-0.538879 0.250142,-0.0091 0.280827,0.536912 0.531065,0.530937 0.235273,-0.0055 0.23974,-0.519935 0.475451,-0.52302 0.263088,-6.55e-4 0.283214,0.57503 0.546627,0.570563 0.237493,-0.0011 0.237907,-0.530914 0.475488,-0.530914 0.237479,0 0.237874,0.528074 0.475799,0.530914 0.23884,6.53e-4 0.252584,-0.504363 0.491,-0.522999 0.403568,-0.03065 0.554348,0.743215 0.958968,0.744862 0.422059,6.55e-4 0.585577,-0.80309 1.006491,-0.768615 0.245698,0.02097 0.260378,0.542543 0.506993,0.538816 0.247156,-6.57e-4 0.24431,-0.554839 0.491386,-0.554704 0.243441,7.7e-5 0.239799,0.5478 0.483596,0.546785 0.241213,-6.41e-4 0.233411,-0.548493 0.475395,-0.546785 0.245301,6.31e-4 0.230207,0.554235 0.475414,0.56264 0.242555,0.0091 0.264436,-0.513164 0.507031,-0.522999 0.256211,-0.0091 0.324143,0.537374 0.578584,0.507144 0.218275,-0.02426 0.160343,-0.526052 0.380417,-0.53885 0.240702,-0.01448 0.241614,0.533174 0.483234,0.53885 0.259772,0.0055 0.287288,-0.544225 0.547026,-0.554708 0.391051,-0.01503 0.497891,0.750499 0.889172,0.76722 0.416936,0.01782 0.598766,-0.774389 1.014284,-0.734083 0.226202,0.02195 0.237472,0.499739 0.464972,0.498742 0.242945,-6.59e-4 0.249863,-0.532652 0.493212,-0.53793 0.256191,-0.0055 0.287263,0.55236 0.543447,0.543537 0.230631,-0.0083 0.223819,-0.514418 0.453948,-0.521121 0.245683,-0.0083 0.26996,0.533304 0.515516,0.526739 0.226177,-0.0055 0.222073,-0.503955 0.448104,-0.509967 0.230213,-0.0055 0.252562,0.485135 0.481886,0.493129 0.24978,0.0091 0.310544,-0.510442 0.560371,-0.498718 0.222278,0.01282 0.232,0.48354 0.453857,0.487516 0.232498,0.0011 0.260723,-0.495029 0.493202,-0.493117 0.239244,6.33e-4 0.259929,0.521852 0.498728,0.515531 0.227414,-0.0055 0.220527,-0.508866 0.44804,-0.515531 0.234761,-0.0055 0.258326,0.500527 0.493527,0.504319 0.248112,0.0011 0.289235,-0.516782 0.537663,-0.515503 0.240615,6.28e-4 0.275264,0.507101 0.515606,0.504301 0.214614,-6.53e-4 0.234259,-0.450442 0.448401,-0.459483 0.256238,-0.01262 0.327497,0.53346 0.582777,0.50429 0.220072,-0.02378 0.170736,-0.521853 0.392212,-0.537924 0.245321,-0.01782 0.269957,0.528241 0.515311,0.526734 0.232871,-6.48e-4 0.24931,-0.500354 0.482123,-0.504319 0.234721,-0.0011 0.269007,0.498386 0.504189,0.493116 0.234766,-0.0054 0.247169,-0.51156 0.481912,-0.515531 0.237902,-0.0011 0.266668,0.502984 0.504174,0.504319 0.230639,6.51e-4 0.263416,-0.481818 0.493201,-0.481904 0.218712,-4.7e-5 0.251699,0.456874 0.470753,0.459481 0.219229,6.57e-4 0.262605,-0.446877 0.481895,-0.448262 0.216947,-6.3e-4 0.264922,0.439937 0.481784,0.437068 0.237981,-6.55e-4 0.277675,-0.498287 0.515596,-0.493089 0.248313,0.0054 0.267634,0.545042 0.515582,0.537918 0.234811,-0.0055 0.224243,-0.53113 0.459419,-0.537918 0.253932,-0.0083 0.273107,0.553282 0.526615,0.549121 0.246508,-0.0011 0.247444,-0.546575 0.493217,-0.549121 0.240637,-6.63e-4 0.252995,0.526886 0.493183,0.526706 0.231021,-1.48e-4 0.240766,-0.500348 0.470791,-0.504319 0.237547,-0.0011 0.266375,0.502859 0.504156,0.504319 0.219254,6.51e-4 0.252604,-0.451802 0.47054,-0.45949 0.225229,-0.0083 0.290418,0.442531 0.515593,0.437067 0.234638,-0.0055 0.280316,-0.497174 0.51557,-0.481896 0.246545,0.01544 0.224276,0.571809 0.47084,0.571569 0.241502,-2.38e-4 0.218216,-0.553812 0.459429,-0.560379 0.237906,-0.0055 0.243421,0.524039 0.481803,0.526734 0.247996,6.38e-4 0.268505,-0.515325 0.515591,-0.537924 0.394511,-0.03614 0.567672,0.691513 0.963637,0.694836 0.418796,6.55e-4 0.616529,-0.776873 1.031128,-0.717223 0.242032,0.03494 0.214688,0.567489 0.459483,0.57155 0.246599,0.0011 0.234716,-0.548482 0.481839,-0.560347 0.247525,-0.01289 0.289475,0.525816 0.538032,0.515503 0.213238,-0.0091 0.211308,-0.471712 0.425644,-0.481904 0.234236,-0.01267 0.279825,0.484636 0.515613,0.481904 0.246047,-6.59e-4 0.280282,-0.523738 0.52687,-0.515503 0.234346,0.0083 0.234346,0.518701 0.470846,0.526715 0.224255,0.0083 0.256676,-0.468142 0.481788,-0.470702 0.231134,-6.27e-4 0.275399,0.478472 0.504194,0.470702 0.240737,-0.0083 0.253639,-0.532399 0.493206,-0.526715 0.231133,0.0055 0.217933,0.513814 0.448157,0.526715 0.252066,0.01447 0.298545,-0.523807 0.549251,-0.515531 0.231151,0.0083 0.240815,0.513105 0.47048,0.504319 0.214182,-0.0091 0.403614,-0.504319 0.403614,-0.504319 h 3.048031 v 0.773264 c 0,0 -1.431857,0.996855 -1.949669,1.681063 -0.410957,0.542315 -0.863113,1.84917 -0.863113,1.84917 0.04549,0.219401 0.186314,0.39691 0.437052,0.526739 h 3.373521 c 0.149754,-0.161797 0.297852,-0.311814 0.448424,-0.414704 1.267348,-1.228141 2.442421,-1.016951 3.496077,-0.504277 0.880519,0.428336 1.430723,1.690713 1.43483,2.566364 7.01e-4,0.853729 -0.391261,1.602579 -1.031113,2.084496 -0.871912,0.65487 -1.898888,0.803983 -2.891381,0.470702 -0.565826,-0.189877 -1.501984,-1.053434 -1.501984,-1.053434 h -3.249834 c 0,0 -0.390933,0.04715 -0.493206,0.190527 -0.109306,0.15203 -0.0056,0.560339 -0.0056,0.560339 0,0 1.192795,2.122746 2.118055,2.868956 0.886387,0.714824 3.115565,1.400896 3.115565,1.400896 l 0.952565,0.04481 2.947326,0.302632 V 28.78498 H 74.487165 V 16.961662 Z"
     id="path15764"
     sodipodi:nodetypes="cccssssssssssssssssssssssssssssssssssssssssssssssssssssssssssssssssssssssssssssssssssssssssssssssssssssssssssssssssssssssssssssssssscccsccccssssccscsccccccc" />
  <path
     style="fill:#5e5e5e;fill-rule:evenodd;stroke:#000000;stroke-width:0.0422391"
     d="m 185.44988,17.204943 v -1.267872 l -18.74932,-2.63096 c 0,0 -0.20314,0.467969 -0.41222,0.475455 -0.23893,0.0091 -0.26856,-0.508975 -0.50721,-0.507162 -0.25058,6.46e-4 -0.27305,0.546612 -0.52315,0.53885 -0.24299,-0.0083 -0.23253,-0.543599 -0.47542,-0.554707 -0.25634,-0.01267 -0.29697,0.556482 -0.55451,0.538865 -0.2133,-0.0146 -0.18625,-0.482915 -0.39758,-0.507176 -0.24954,-0.02701 -0.33622,0.501504 -0.58623,0.475475 -0.21664,-0.0223 -0.19486,-0.505499 -0.41232,-0.507164 -0.25488,-6.56e-4 -0.23512,0.581978 -0.49141,0.586401 -0.246,0.0011 -0.24649,-0.536235 -0.49143,-0.546752 -0.22821,-0.0091 -0.27119,0.475746 -0.49899,0.467515 -0.23568,-0.0091 -0.24678,-0.52195 -0.48382,-0.523034 -0.2465,-6.53e-4 -0.25803,0.539036 -0.50684,0.538889 -0.23965,-9.2e-5 -0.25381,-0.497858 -0.49137,-0.523019 -0.40638,-0.04287 -0.59832,0.698327 -1.00656,0.697384 -0.38734,-6.57e-4 -0.56664,-0.711291 -0.95092,-0.665695 -0.24048,0.02694 -0.23984,0.539322 -0.48342,0.546813 -0.25392,0.0083 -0.28422,-0.541954 -0.53901,-0.538853 -0.231,6.52e-4 -0.24611,0.497343 -0.47519,0.499216 -0.23342,6.27e-4 -0.25677,-0.508166 -0.49143,-0.499216 -0.22023,0.0091 -0.20916,0.497792 -0.42793,0.507145 -0.2504,0.01273 -0.27878,-0.531887 -0.53076,-0.530937 -0.24439,6.46e-4 -0.26988,0.53009 -0.51555,0.523008 -0.22898,-0.0056 -0.22365,-0.503338 -0.45135,-0.515055 -0.24795,-0.01321 -0.29767,0.515825 -0.54667,0.507151 -0.23194,-0.0083 -0.24286,-0.507151 -0.47544,-0.507151 -0.23234,0 -0.24276,0.507151 -0.47565,0.507151 -0.23248,0 -0.24395,-0.497601 -0.47555,-0.507151 -0.25752,-0.01273 -0.31826,0.538848 -0.57823,0.522984 -0.23336,-0.01453 -0.22698,-0.518138 -0.45982,-0.530937 -0.24798,-0.01359 -0.29769,0.519123 -0.54661,0.507162 -0.22328,-0.0093 -0.22029,-0.503444 -0.44403,-0.499209 -0.23286,0.0011 -0.21094,0.532201 -0.44376,0.538817 -0.23527,0.0055 -0.24626,-0.524841 -0.48324,-0.522978 -0.23569,6.52e-4 -0.23664,0.524374 -0.47507,0.530913 -0.2564,0.0055 -0.28892,-0.555607 -0.54736,-0.546752 -0.24591,0.0091 -0.23614,0.554417 -0.48321,0.554692 -0.25339,2.24e-4 -0.2472,-0.565064 -0.49963,-0.570579 -0.24289,-0.0055 -0.26175,0.530261 -0.50691,0.530942 -0.21647,6.05e-4 -0.2342,-0.463906 -0.45166,-0.467546 -0.22829,-0.0011 -0.26251,0.476452 -0.49142,0.475475 -0.24055,-6.33e-4 -0.27435,-0.51017 -0.51483,-0.507145 -0.21582,6.52e-4 -0.23394,0.457207 -0.45162,0.467515 -0.23954,0.01288 -0.30684,-0.483706 -0.54707,-0.467515 -0.23066,0.01506 -0.23066,0.510442 -0.45942,0.515058 -0.22457,0.0011 -0.24317,-0.473671 -0.46747,-0.483388 -0.21212,-0.0091 -0.26944,0.425713 -0.48372,0.420004 -0.22471,-0.0055 -0.25748,-0.472989 -0.4832,-0.467513 -0.23467,0.0055 -0.24817,0.515055 -0.48335,0.515055 -0.23426,0 -0.24742,-0.507786 -0.48347,-0.515055 -0.24664,-0.0083 -0.29171,0.52062 -0.53905,0.507151 -0.23419,-0.0132 -0.22419,-0.529515 -0.45933,-0.538879 -0.25059,-0.0091 -0.27902,0.536913 -0.531,0.530937 -0.23429,-0.0055 -0.23989,-0.519934 -0.47551,-0.523019 -0.26239,-6.56e-4 -0.28101,0.575029 -0.54698,0.570562 -0.23571,-0.0011 -0.2366,-0.530913 -0.47518,-0.530913 -0.23707,0 -0.23707,0.528073 -0.47571,0.530913 -0.23945,6.53e-4 -0.25356,-0.504363 -0.4913,-0.522998 -0.40434,-0.03065 -0.55413,0.743214 -0.9587,0.744861 -0.42211,6.55e-4 -0.58562,-0.803089 -1.00623,-0.768615 -0.24666,0.02097 -0.25928,0.542543 -0.50761,0.538817 -0.24705,-6.58e-4 -0.24397,-0.554839 -0.49142,-0.554704 -0.2431,7.7e-5 -0.24002,0.547799 -0.48324,0.546784 -0.24108,-6.4e-4 -0.23349,-0.548492 -0.4754,-0.546784 -0.24613,6.3e-4 -0.23152,0.554234 -0.47551,0.562639 -0.24158,0.0091 -0.26379,-0.513164 -0.50728,-0.522998 -0.25546,-0.0091 -0.32195,0.537373 -0.57864,0.507143 -0.21795,-0.02426 -0.16385,-0.526051 -0.38106,-0.53885 -0.24051,-0.01448 -0.24136,0.533174 -0.48321,0.53885 -0.25784,0.0055 -0.28749,-0.544225 -0.54725,-0.554707 -0.39239,-0.01503 -0.49835,0.750499 -0.88923,0.76722 -0.41694,0.01782 -0.59883,-0.77439 -1.01397,-0.734084 -0.22609,0.02195 -0.23701,0.499739 -0.46546,0.498743 -0.24273,-6.59e-4 -0.25009,-0.532652 -0.49296,-0.537931 -0.25532,-0.0055 -0.28738,0.55236 -0.54354,0.543537 -0.23145,-0.0083 -0.22421,-0.514418 -0.45411,-0.521121 -0.24587,-0.0083 -0.26901,0.533304 -0.51484,0.526739 -0.22634,-0.0055 -0.22079,-0.503955 -0.44866,-0.509967 -0.23101,-0.0055 -0.25295,0.485135 -0.48176,0.493129 -0.25046,0.0091 -0.31022,-0.510441 -0.5602,-0.498717 -0.2208,0.01282 -0.23277,0.483539 -0.45416,0.487515 -0.2324,0.0011 -0.25854,-0.495029 -0.49313,-0.493117 -0.23896,6.33e-4 -0.25766,0.521853 -0.49882,0.515532 -0.22876,-0.0055 -0.22155,-0.508866 -0.44803,-0.515532 -0.23414,-0.0055 -0.25667,0.500527 -0.49319,0.504319 -0.24792,0.0011 -0.28964,-0.516782 -0.538,-0.515502 -0.24019,6.27e-4 -0.27539,0.5071 -0.51554,0.5043 -0.2128,-6.53e-4 -0.23374,-0.450442 -0.44822,-0.459483 -0.2557,-0.01262 -0.32501,0.533461 -0.58265,0.504291 -0.22034,-0.02378 -0.17155,-0.521853 -0.39369,-0.537925 -0.24565,-0.01782 -0.26915,0.528241 -0.51486,0.526735 -0.23287,-6.48e-4 -0.24954,-0.500354 -0.48212,-0.50432 -0.23422,-0.0011 -0.26885,0.498387 -0.50484,0.493117 -0.234,-0.0054 -0.2469,-0.511561 -0.48139,-0.515532 -0.23696,-0.0011 -0.26682,0.502985 -0.50438,0.504319 -0.23102,6.51e-4 -0.26303,-0.481818 -0.49326,-0.481904 -0.21858,-4.6e-5 -0.25204,0.456875 -0.47069,0.459482 -0.2192,6.56e-4 -0.26216,-0.446877 -0.48195,-0.448263 -0.21678,-6.29e-4 -0.26466,0.439938 -0.48194,0.437068 -0.2358,-6.54e-4 -0.27685,-0.498286 -0.51537,-0.493088 -0.24791,0.0054 -0.26778,0.54504 -0.51553,0.537918 -0.23445,-0.0055 -0.22381,-0.531131 -0.45936,-0.537918 -0.25435,-0.0083 -0.27348,0.553281 -0.52704,0.549121 -0.24626,-0.0011 -0.24718,-0.546576 -0.49284,-0.549121 -0.24056,-6.64e-4 -0.25334,0.526886 -0.49325,0.526705 -0.23109,-1.47e-4 -0.24072,-0.500348 -0.4707,-0.504319 -0.23679,-0.0011 -0.26682,0.502859 -0.50459,0.504319 -0.21895,6.51e-4 -0.25264,-0.451801 -0.4705,-0.45949 -0.22549,-0.0083 -0.28999,0.442531 -0.5155,0.437068 -0.23402,-0.0055 -0.27882,-0.497175 -0.51538,-0.481897 -0.2466,0.01544 -0.22457,0.57181 -0.47079,0.57157 -0.24057,-2.39e-4 -0.21785,-0.553813 -0.45946,-0.56038 -0.23652,-0.0055 -0.2428,0.524039 -0.48211,0.526735 -0.24792,6.37e-4 -0.26818,-0.515326 -0.51525,-0.537925 -0.39546,-0.03614 -0.56777,0.691514 -0.96374,0.694837 -0.41876,6.55e-4 -0.61716,-0.776873 -1.03111,-0.717223 -0.2419,0.03494 -0.21444,0.567489 -0.45954,0.57155 -0.24632,0.0011 -0.23471,-0.548483 -0.48207,-0.560347 -0.24747,-0.01289 -0.28887,0.525816 -0.53801,0.515502 -0.21236,-0.0091 -0.21108,-0.471712 -0.42576,-0.481904 -0.23337,-0.01267 -0.27857,0.484637 -0.51528,0.481904 -0.24678,-6.59e-4 -0.27944,-0.523738 -0.52681,-0.515502 -0.2342,0.0083 -0.2342,0.5187 -0.47076,0.526715 -0.22512,0.0083 -0.25635,-0.468143 -0.48149,-0.470703 -0.23141,-6.26e-4 -0.27478,0.478472 -0.50478,0.470703 -0.24042,-0.0083 -0.25313,-0.532399 -0.493,-0.526715 -0.23135,0.0055 -0.21829,0.513814 -0.44846,0.526715 -0.25052,0.01447 -0.29712,-0.523807 -0.548993,-0.515532 -0.230841,0.0083 -0.24062,0.513105 -0.470631,0.504319 -0.215362,-0.0091 -0.404316,-0.504319 -0.404316,-0.504319 h -3.048066 v 0.773265 c 0,0 1.431868,0.996854 1.949598,1.681061 0.411108,0.542317 0.863148,1.849171 0.863148,1.849171 -0.04616,0.219401 -0.186748,0.39691 -0.43701,0.52674 h -3.373487 c -0.150949,-0.161798 -0.298044,-0.311815 -0.448477,-0.414705 -1.267151,-1.22814 -2.442329,-1.016951 -3.49604,-0.504277 -0.880871,0.428337 -1.430671,1.690714 -1.434741,2.566364 -6.73e-4,0.853729 0.390438,1.60258 1.031167,2.084497 0.871785,0.654869 1.898355,0.803983 2.891362,0.470701 0.56567,-0.189876 1.501906,-1.053434 1.501906,-1.053434 h 3.249922 c 0,0 0.391765,0.04715 0.492971,0.190528 0.107881,0.15203 0.0039,0.560338 0.0039,0.560338 0,0 -1.193125,2.122746 -2.118017,2.868957 -0.886473,0.714823 -3.115577,1.400896 -3.115577,1.400896 l -0.952632,0.0448 -2.947558,0.302632 v 2.364671 H 101.92521 V 17.169397 Z"
     id="path15764-0"
     sodipodi:nodetypes="cccssssssssssssssssssssssssssssssssssssssssssssssssssssssssssssssssssssssssssssssssssssssssssssssssssssssssssssssssssssssssssssssssscccsccccssssccscsccccccc" />
  <path
     style="fill:#5e5e5e;fill-rule:evenodd;stroke:#000000;stroke-width:0.0441661"
     d="m 88.333869,-14.656838 h 3.29292 c 0.0846,-0.0709 0.72166,0.39848 0.52726,0.78512 -0.22127,0.44001 -0.41877,0.93966 -0.67956,1.37107 -0.25974,0.4296 -0.59704,0.81424 -0.96096,1.16012 -0.40281,0.38249 -1.33586,0.99606 -1.33586,0.99606 v 0.7148399 h 1.24207 c 0,0 0.13873,-0.4788199 0.33969,-0.5038899 0.24462,-0.0302 0.30469,0.5046699 0.55083,0.4921799 0.24289,-0.0129 0.24894,-0.5416199 0.49218,-0.5390699 0.24937,0.002 0.24332,0.5515599 0.49216,0.5624999 0.25932,0.0129 0.30298,-0.5433499 0.5625,-0.5390299 0.23467,0.004 0.25759,0.4983499 0.49214,0.5038899 0.23467,0.004 0.28135,-0.4968899 0.51559,-0.4804699 0.21048,0.0129 0.39848,0.4921799 0.39848,0.4921799 h 1.124982 V -71.237027 h -0.860482 l -1.43049,4.227839 v 1.59369 c 0,0 0.52004,0.16294 0.53318,0.38075 0.013,0.24852 -0.54258,0.255 -0.55082,0.50389 -0.013,0.25975 0.54603,0.30297 0.53907,0.56254 -0.013,0.25672 -0.56799,0.27055 -0.5625,0.52731 0,0.25759 0.58077,0.24635 0.58592,0.50389 0,0.23468 -0.50865,0.24548 -0.5156,0.48046 -0.013,0.22647 0.47147,0.2658 0.46871,0.49218 0,0.23727 -0.50748,0.26623 -0.5038,0.50389 0,0.26795 0.58716,0.28264 0.58591,0.55077 0,0.2766 -0.6214,0.28611 -0.60938,0.5625 0.013,0.26147 0.61336,0.21869 0.62107,0.48046 0.013,0.24332 -0.4963,0.24289 -0.55075,0.48046 -0.0891,0.38897 0.47639,0.70257 0.46875,1.10152 -0.013,0.37557 -0.55473,0.65122 -0.48051,1.01953 0.0432,0.20615 0.45945,0.21177 0.46871,0.42182 0.013,0.23467 -0.48315,0.28049 -0.48037,0.51559 0,0.2403 0.50517,0.27531 0.50384,0.51561 0,0.23208 -0.47995,0.26061 -0.49218,0.49217 -0.013,0.23598 0.45099,0.31463 0.44528,0.55078 -0.013,0.24073 -0.48724,0.29864 -0.48037,0.53907 0.013,0.25413 0.53763,0.28481 0.53902,0.53902 0,0.25672 -0.55653,0.29432 -0.53902,0.55079 0.0173,0.24158 0.56876,0.20312 0.57413,0.44532 0.013,0.27141 -0.62526,0.25585 -0.62102,0.52731 0,0.26969 0.62606,0.23424 0.6328,0.50389 0.013,0.26579 -0.58653,0.2619 -0.59771,0.52735 -0.013,0.25413 0.53448,0.29649 0.5274,0.55074 -0.013,0.24591 -0.54331,0.25802 -0.53907,0.50393 0,0.24375 0.54386,0.23684 0.55074,0.48046 0.013,0.2403 -0.51289,0.26364 -0.51565,0.50389 0,0.2403 0.51322,0.27531 0.50398,0.515601 -0.013,0.25456 -0.57464,0.24937 -0.57429,0.50389 3.3e-4,0.24375 0.53622,0.23727 0.55081,0.48046 0.0172,0.26234 -0.54303,0.32371 -0.52735,0.58592 0.013,0.2485 0.55562,0.24332 0.5625,0.49217 0.013,0.24592 -0.52294,0.26969 -0.52727,0.5156 0,0.23209 0.48745,0.27185 0.48037,0.50393 -0.013,0.22388 -0.48245,0.23339 -0.49217,0.457 -0.013,0.27919 0.58695,0.34272 0.56249,0.62109 -0.0216,0.24116 -0.55631,0.204 -0.57416,0.44529 -0.0173,0.27141 0.58354,0.31809 0.56491,0.58946 -0.0173,0.23554 -0.54982,0.20313 -0.55518,0.43919 0,0.24851 0.56456,0.2403 0.56339,0.48889 0,0.26839 -0.66275,0.48046 -0.61314,0.52204 0.0492,0.0432 0.60869,0.24721 0.61314,0.51374 0,0.2524 -0.55848,0.25327 -0.56339,0.50545 0,0.25801 0.5563,0.28092 0.55518,0.53859 -0.002,0.24418 -0.53665,0.26147 -0.53038,0.50548 0.013,0.23295 0.51893,0.22301 0.53038,0.45574 0.013,0.25932 -0.54352,0.30384 -0.5386,0.56345 0,0.2498 0.53847,0.27185 0.5386,0.52204 9e-5,0.26968 -0.59041,0.29389 -0.58012,0.56344 0.013,0.25888 0.60048,0.23814 0.59668,0.49719 0,0.24591 -0.57322,0.21004 -0.58009,0.45574 -0.013,0.24635 0.54361,0.24246 0.55514,0.48889 0.013,0.26147 -0.54541,0.30988 -0.53853,0.57174 0.013,0.25586 0.56633,0.27444 0.55513,0.53034 -0.013,0.24721 -0.56145,0.21696 -0.57999,0.46404 -0.0172,0.24765 0.5082,0.29864 0.50544,0.54689 0,0.22647 -0.47774,0.26234 -0.47226,0.48889 0.013,0.25413 0.56022,0.26796 0.55516,0.52204 0,0.24851 -0.55996,0.24029 -0.56348,0.48885 0,0.22862 0.49073,0.23597 0.50538,0.46404 0.0173,0.25239 -0.49663,0.32716 -0.48884,0.58004 0.013,0.25196 0.52199,0.29475 0.52199,0.54689 0,0.24807 -0.51213,0.29043 -0.51373,0.53859 0,0.2148 0.43931,0.25715 0.43918,0.47234 -8e-5,0.22257 -0.45786,0.26622 -0.45566,0.48889 0,0.25802 0.55242,0.29777 0.5386,0.55515 -0.013,0.232939 -0.52982,0.214359 -0.5386,0.447479 -0.013,0.23036 0.49603,0.25023 0.49706,0.48059 0.002,0.25197 -0.53768,0.27833 -0.53858,0.5303 -7.8e-4,0.23813 0.49446,0.26752 0.50556,0.50548 0.013,0.25067 -0.49342,0.32933 -0.48062,0.58004 0.013,0.22431 0.48062,0.24765 0.48062,0.4723 0,0.21696 -0.44061,0.2403 -0.46404,0.45574 -0.0172,0.15083 0.24851,0.38119 0.24851,0.38119 v 1.62407 c -0.0696,0.29692 -0.22948,0.52973 -0.59654,0.61319 h -3.53824 v 0.74578 l 1.26782,1.00264 1.05233,1.17663 c -0.013,0 0.46737,0.81372 0.62153,1.28437 0.13096,0.39978 -0.52134,0.90051 -0.55518,0.87004 h -3.26479 c -0.7314,-0.78321 -1.57645,-1.20784 -2.5108,-1.35067 -0.0172,-0.0346 -1.54485,0.24073 -2.07976,0.82033 -0.47286,0.51249 -1.00492,1.28131 -1.03579,2.07986 -0.0303,0.79086 0.34359,1.63635 0.90315,2.19586 0.5764,0.57619 1.45167,0.72539 2.23734,0.68774 0.51127,-0.0259 0.96582,-0.12966 1.34234,-0.35613 0.40539,-0.24375 1.1475,-0.83502 1.1475,-0.83502 z"
     id="path15765"
     sodipodi:nodetypes="ccssscccsssssssccccccsssssssssssssssssssssssssssssssssssssssssssssssssssssssssssssssssssssssssssscccccccscccsssssc" />
  <path
     style="fill:#5e5e5e;fill-rule:evenodd;stroke:#000000;stroke-width:0.0426565"
     d="m 11.242265,53.704061 h 9.727313 45.916714 c 0.542061,-0.04174 0.95075,-0.305129 1.079857,-1.034522 V 41.724216 h 1.092131 c 0,0 0.198688,0.523932 0.427054,0.536897 0.224154,0.01252 0.251702,-0.477195 0.475893,-0.475879 0.244611,0.0011 0.268399,0.536136 0.512467,0.524683 0.245438,-0.01168 0.217889,-0.563457 0.463702,-0.573496 0.241272,-0.01002 0.258802,0.534172 0.500277,0.524692 0.225402,-0.0088 0.202449,-0.506855 0.427054,-0.524692 0.255462,-0.02045 0.318072,0.535816 0.573534,0.512491 0.204946,-0.01878 0.378178,-0.488085 0.378178,-0.488085 h 1.049384 v 0.768736 l -1.122598,0.939566 -0.978381,1.097621 c 0.02918,0 -0.559756,0.835968 -0.673002,1.333063 -0.07137,0.313477 0.522017,0.811075 0.522017,0.811075 l 3.175203,-0.0167 1.307175,-1.005191 c 0.723347,-0.3442 1.446641,-0.371913 2.169981,-0.09487 0.83208,0.327669 1.359355,0.845859 1.639358,1.518561 0.336858,0.904505 0.364821,1.649421 0.03339,2.208839 -0.313898,0.753941 -0.759536,1.370674 -1.622121,1.553081 -0.847437,0.396543 -1.634394,0.248783 -2.389997,-0.181158 l -1.130321,-0.854199 h -3.201079 c -0.30889,0.09726 -0.57683,0.240015 -0.500442,0.767921 l 0.905956,1.622121 1.320166,1.371877 1.647954,0.888719 1.829202,0.45728 3.503036,0.284681 v 1.449561 H 11.01356 v -2.752407 c -0.0033,-0.118963 0.08549,-0.187002 0.228702,-0.224568 z"
     id="path15766"
     sodipodi:nodetypes="ccccccssssssscccccsccccccccccccccccccccc" />
  <path
     style="fill:#5e5e5e;fill-rule:evenodd;stroke:#000000;stroke-width:0.0426565"
     d="m 164.63794,53.514337 h -9.7273 -45.91673 c -0.54206,-0.04174 -0.95075,-0.305129 -1.07985,-1.034522 V 41.534492 h -1.09214 c 0,0 -0.19868,0.523932 -0.42704,0.536897 -0.22416,0.01252 -0.2517,-0.477195 -0.4759,-0.475879 -0.24461,0.0011 -0.2684,0.536136 -0.51247,0.524683 -0.24543,-0.01168 -0.21789,-0.563457 -0.4637,-0.573496 -0.24127,-0.01002 -0.2588,0.534172 -0.50027,0.524692 -0.2254,-0.0088 -0.20246,-0.506855 -0.42706,-0.524692 -0.25546,-0.02045 -0.31807,0.535816 -0.57353,0.512491 -0.20495,-0.01879 -0.37818,-0.488085 -0.37818,-0.488085 h -1.04938 v 0.768736 l 1.12259,0.939566 0.97838,1.097621 c -0.0291,0 0.55976,0.835968 0.67301,1.333063 0.0714,0.313477 -0.52202,0.811075 -0.52202,0.811075 l -3.1752,-0.0167 -1.307183,-1.005192 c -0.723344,-0.344199 -1.446639,-0.371912 -2.169984,-0.09487 -0.832079,0.327669 -1.359348,0.845859 -1.639352,1.518561 -0.336855,0.904505 -0.364818,1.649421 -0.03342,2.208839 0.3139,0.753941 0.75953,1.370674 1.622116,1.553081 0.847445,0.396543 1.634403,0.248783 2.389997,-0.181158 l 1.130326,-0.854199 h 3.20108 c 0.30889,0.09726 0.57683,0.240015 0.50044,0.767921 l -0.90595,1.622121 -1.32017,1.371877 -1.64796,0.888719 -1.829198,0.457279 -3.503035,0.284682 v 1.449561 H 164.86665 V 53.73928 c 0.003,-0.118963 -0.0854,-0.187002 -0.2287,-0.224568 z"
     id="bolt_right"
     sodipodi:nodetypes="ccccccssssssscccccscccccccccccccccccccc"
     onclick="" />
  <path
     id="path10413"
     style="display:inline;fill:#5e5e5e;fill-rule:evenodd;stroke:#000000;stroke-width:0.0429187"
     d="m 69.893152,74.538929 c -0.23763,0.002 -0.24202,0.52778 -0.47965,0.52739 -0.23203,-3.9e-4 -0.4666,-0.51654 -0.4666,-0.51654 h -0.99402 v 26.347631 c -0.0824,0.61577 -0.35762,1.05266 -1.09167,1.06344 H 10.663153 l -0.0326,2.53491 H 80.340992 V 88.099059 l -3.49854,-0.29515 -1.87516,-0.48617 -1.6668,-0.89419 -1.37164,-1.38031 -0.8855,-1.59735 c -0.0464,-0.40583 0.14455,-0.66715 0.47748,-0.84206 h 3.1947 l 0.43407,0.26043 c 0,0 1.28027,1.01801 2.04877,1.0678 0.7473,0.0483 1.57304,-0.2502 2.10955,-0.77264 0.53973,-0.52559 0.84054,-1.34752 0.83339,-2.10086 -0.007,-0.73408 -0.32581,-1.51822 -0.85077,-2.03141 -0.52682,-0.515 -1.32165,-0.84444 -2.05743,-0.80736 -0.76198,0.0385 -2.03577,1.04608 -2.03577,1.04608 l -0.41887,0.19968 h -3.14044 c -0.40539,-0.15903 -0.59069,-0.41376 -0.61636,-0.7379 l 0.7292,-1.31087 0.90287,-1.17197 1.24141,-0.92021 v -0.77482 h -1.0678 c 0,0 -0.23044,0.48665 -0.45358,0.49266 -0.24036,0.006 -0.27632,-0.51383 -0.51653,-0.50351 -0.23779,0.0102 -0.22891,0.52897 -0.46663,0.54042 -0.24277,0.0116 -0.28437,-0.5077 -0.52738,-0.50352 -0.22864,0.004 -0.25099,0.49336 -0.47964,0.49049 -0.24006,-0.003 -0.25042,-0.52873 -0.49048,-0.52739 z m 0.34725,11.8738 c 0.0553,0.003 0.11575,0.021 0.17796,0.0456 l 1.61472,1.47581 1.92723,1.04178 1.90987,0.69448 2.04879,0.0522 c 0.19833,0.0422 0.40984,0.0562 0.45142,0.43406 v 11.875921 c 0.023,0.31734 -0.0926,0.48702 -0.41671,0.4341 h -7.65686 c -0.37849,0.009 -0.37103,-0.23894 -0.4167,-0.45143 V 86.788319 c 0.0655,-0.28917 0.1944,-0.38694 0.36028,-0.37547 z"
     sodipodi:nodetypes="ssccccccccccccccccssssscccccccccssssssscccccccccccssc" />
  <path
     id="path10413-7"
     style="display:inline;fill:#5e5e5e;fill-rule:evenodd;stroke:#000000;stroke-width:0.0429187"
     d="m 111.67076,75.423509 c 0.23762,0.002 0.24203,0.52779 0.47964,0.5274 0.23203,-4e-4 0.46661,-0.51654 0.46661,-0.51654 h 0.99402 v 26.347611 c 0.0824,0.61576 0.35761,1.05265 1.09166,1.06343 h 56.19807 l 0.0326,2.53491 H 101.22295 V 88.983619 l 3.49852,-0.29514 1.87518,-0.48618 1.6668,-0.89419 1.37163,-1.3803 0.88549,-1.59736 c 0.0464,-0.40583 -0.14453,-0.66715 -0.47749,-0.84206 h -3.19468 l -0.43408,0.26043 c 0,0 -1.28026,1.01801 -2.04876,1.06781 -0.7473,0.0483 -1.57304,-0.25021 -2.10954,-0.77265 -0.53975,-0.52558 -0.84054,-1.34752 -0.83341,-2.10085 0.007,-0.73409 0.32581,-1.51823 0.85076,-2.03141 0.52682,-0.51501 1.32166,-0.84445 2.05745,-0.80736 0.76199,0.0384 2.03576,1.04609 2.03576,1.04609 l 0.41888,0.19966 h 3.14044 c 0.40539,-0.15903 0.59068,-0.41376 0.61636,-0.7379 l -0.72921,-1.31087 -0.90286,-1.17196 -1.24141,-0.92022 v -0.77479 h 1.06779 c 0,0 0.23044,0.48663 0.45358,0.49266 0.24036,0.006 0.27633,-0.51384 0.51655,-0.50352 0.23777,0.0102 0.22889,0.52896 0.46662,0.54042 0.24276,0.0116 0.28435,-0.50769 0.52737,-0.50352 0.22864,0.004 0.25099,0.49335 0.47964,0.4905 0.24006,-0.003 0.25043,-0.52874 0.4905,-0.5274 z m -0.34725,11.87378 c -0.0553,0.003 -0.11575,0.021 -0.17797,0.0455 l -1.61472,1.47581 -1.92722,1.04177 -1.90988,0.69448 -2.04878,0.0522 c -0.19834,0.0421 -0.40985,0.0561 -0.45142,0.43404 v 11.875931 c -0.023,0.31733 0.0926,0.48701 0.41671,0.43409 h 7.65684 c 0.37849,0.009 0.37106,-0.23892 0.41671,-0.45143 V 87.672749 c -0.0655,-0.28916 -0.1944,-0.38694 -0.36027,-0.37547 z"
     sodipodi:nodetypes="ssccccccccccccccccssssscccccccccssssssscccccccccccss" />
  <path
     id="path63"
     style="display:inline;fill:#5e5e5e;fill-rule:evenodd;stroke:#000000;stroke-width:0.0431256"
     d="m 42.76048,124.28739 c 0,0 -0.20663,0.59519 -0.455782,0.59097 -0.236112,-0.006 -0.172242,-0.56317 -0.407805,-0.58004 -0.25831,-0.018 -0.271198,0.56071 -0.529929,0.56915 -0.244321,0.0103 -0.298628,-0.50345 -0.543012,-0.49501 -0.261609,0.009 -0.281747,0.58604 -0.543011,0.56916 -0.246273,-0.0147 -0.198384,-0.58473 -0.444879,-0.59318 -0.258929,-0.0115 -0.258743,0.60542 -0.516842,0.5801 -0.229571,-0.0215 -0.35765,-0.59317 -0.35765,-0.59317 h -1.10129 v 45.58253 c -0.01279,1.42621 -0.917102,1.85418 -2.084817,1.98669 H -9.6566015 -19.699062 l -0.03054,2.52316 h 70.055177 v -36.5236 l -3.593917,-0.31405 -1.796954,-0.42742 -1.69228,-0.89849 -1.360802,-1.36079 -0.854865,-1.67482 c -0.121256,-0.46901 0.167485,-0.6357 0.479769,-0.7851 l 3.218822,0.009 0.357649,0.17446 c 0.636574,0.7082 1.329124,1.02424 2.058649,1.08164 1.030022,0.0132 1.635516,-0.3274 2.110989,-0.77633 0.979648,-1.01024 1.068687,-2.14775 0.584448,-3.36714 -0.317002,-0.87106 -1.212455,-1.39967 -2.669269,-1.59632 -0.893627,-0.005 -1.685262,0.62386 -2.464271,1.33029 l -3.175208,0.005 c -0.356506,-0.0833 -0.585152,-0.31144 -0.59317,-0.78945 l 0.741463,-1.29099 0.950816,-1.19073 1.219051,-0.94428 v -0.80034 z m -2.636554,11.96806 c 0.05104,-0.003 0.105932,0.008 0.167915,0.0349 l 1.703185,1.5418 1.814404,1.03589 1.973601,0.60406 2.084822,0.11127 c 0.365338,0.0945 0.518066,0.25574 0.455778,0.48193 v 13.88935 c 0.03874,0.42689 -0.204896,0.44735 -0.455778,0.4558 l -7.562925,0.0262 c -0.282681,-0.0326 -0.497924,-0.14184 -0.519025,-0.46889 l -0.0109,-17.38076 v -0.002 c 0.08772,-0.18897 0.195764,-0.32034 0.348927,-0.32934 z m 0.06106,18.93789 c 0.02899,5.4e-4 0.05988,0.003 0.09159,0.009 h 7.519307 c 0.32605,-5.4e-4 0.605975,0.0645 0.610616,0.52342 v 16.25982 c -0.127509,0.23962 -0.269007,0.44518 -0.488492,0.45361 h -7.711213 c -0.357185,-0.001 -0.376931,-0.24399 -0.41871,-0.47103 V 155.5508 c 0.05918,-0.2478 0.194017,-0.36158 0.396901,-0.35764 z" />
  <path
     id="path63-1"
     style="display:inline;fill:#5e5e5e;fill-rule:evenodd;stroke:#000000;stroke-width:0.0431256"
     d="m 136.78214,124.28802 c 0,0 0.20679,0.59519 0.45581,0.59097 0.2359,-0.005 0.17218,-0.56317 0.40766,-0.58004 0.25826,-0.0169 0.27135,0.56071 0.52991,0.56915 0.24434,0.008 0.29878,-0.50345 0.543,-0.49501 0.26164,0.008 0.28189,0.58604 0.54303,0.56916 0.24645,-0.0126 0.19834,-0.58473 0.44488,-0.59316 0.25911,-0.0126 0.25869,0.6054 0.51683,0.58008 0.22957,-0.0211 0.35744,-0.59317 0.35744,-0.59317 h 1.10131 v 45.58255 c 0.0127,1.4262 0.9171,1.85416 2.08479,1.98667 h 45.43222 10.04247 l 0.0296,2.52317 h -70.05424 v -36.52361 l 3.59393,-0.31397 1.79694,-0.4274 1.69228,-0.89849 1.3608,-1.36081 0.85486,-1.6748 c 0.12111,-0.46903 -0.16754,-0.63572 -0.47978,-0.78511 l -3.21881,0.008 -0.35744,0.17429 c -0.63659,0.7082 -1.32914,1.02424 -2.05866,1.08164 -1.02999,0.0126 -1.63549,-0.32748 -2.11096,-0.77632 -0.97969,-1.01024 -1.06869,-2.14776 -0.58448,-3.36714 0.31693,-0.87107 1.21247,-1.39967 2.66927,-1.59633 0.89364,-0.005 1.68528,0.62386 2.4643,1.3303 l 3.17517,0.005 c 0.3566,-0.0832 0.58515,-0.31145 0.59317,-0.78945 l -0.74146,-1.291 -0.95078,-1.19073 -1.21909,-0.94428 v -0.80033 z m 2.63657,11.96808 c -0.0511,-0.003 -0.10592,0.008 -0.16796,0.0337 l -1.70317,1.54179 -1.81442,1.0359 -1.97359,0.60406 -2.08483,0.11138 c -0.36546,0.0945 -0.51806,0.25573 -0.45577,0.48193 v 13.88933 c -0.038,0.42691 0.2051,0.44737 0.45577,0.45582 l 7.56293,0.0254 c 0.28274,-0.0337 0.49792,-0.14179 0.51902,-0.46889 l 0.0127,-17.38076 v -0.002 c -0.0878,-0.18906 -0.19581,-0.3203 -0.349,-0.32917 z m -0.0612,18.93787 c -0.0295,5.5e-4 -0.0599,0.003 -0.0916,0.008 h -7.5193 c -0.32621,-5.5e-4 -0.606,0.0646 -0.61064,0.52341 v 16.25983 c 0.12745,0.2397 0.26882,0.44518 0.48851,0.45361 h 7.71123 c 0.35701,-0.001 0.37685,-0.24392 0.41863,-0.47104 v -16.41686 c -0.0591,-0.24772 -0.19413,-0.36166 -0.39711,-0.35744 z" />
  <path
     id="path5670"
     style="display:inline;fill:#5e5e5e;fill-rule:evenodd;stroke:#000000;stroke-width:0.0427232"
     d="m 45.960646,204.54686 v 71.43721 c -0.17508,1.43704 -1.00456,1.89345 -2.03999,2.03999 H -2.1138232 -12.269624 l -0.01324,2.5522 h 70.8367 v -62.44492 l -2.53453,-0.36207 -1.59844,-0.28702 -2.49921,-1.03766 -1.78609,-1.63596 -0.52325,-1.30921 c -0.10967,-0.33883 0.0177,-0.578 0.21195,-0.7882 h 3.03349 c 0,0 0.54444,0.62406 0.91182,0.78598 0.97447,0.42894 2.17431,0.74573 3.17258,0.37532 0.6464,-0.23984 1.16296,-0.87586 1.39974,-1.52338 0.30905,-0.84527 -0.0214,-2.54151 -0.1126,-2.69788 -0.59884,-1.02485 -1.38894,-1.63374 -2.53012,-1.636 -0.65741,0.0247 -1.57726,0.18003 -2.71557,1.26068 l -0.34883,0.15012 h -2.51025 c -0.66374,-0.20878 -0.55109,-0.56151 -0.52546,-0.89859 l 0.51221,-1.05091 0.92506,-0.97362 0.98026,-0.81024 v -1.14144 h -1.12597 c 0,0 -0.1851,0.51691 -0.40623,0.52545 -0.2372,0.0109 -0.24835,-0.52959 -0.48572,-0.52105 -0.2496,0.007 -0.23183,0.56121 -0.48129,0.57403 -0.27035,0.0119 -0.30359,-0.58257 -0.57403,-0.57403 -0.23979,0.008 -0.23253,0.53977 -0.47246,0.54314 -0.24371,0.003 -0.2509,-0.53015 -0.49455,-0.53869 -0.257,-0.008 -0.30151,0.56843 -0.55636,0.53425 -0.21062,-0.0283 -0.32675,-0.5475 -0.32675,-0.5475 z m 2.54337,11.76307 c 0.0454,1.2e-4 0.0948,0.003 0.14792,0.0132 l 1.39531,1.13037 1.11273,0.88313 1.37765,0.68883 1.37766,0.37088 2.11947,0.30026 c 0.45481,0.24138 0.55602,0.48277 0.49454,0.72416 v 15.43683 h -8.56619 v -19.02225 c 0.0856,-0.29753 0.22312,-0.52631 0.54091,-0.52545 z m -0.60273,20.6538 h 8.64126 v 20.20782 h -8.54191 z m 0.0751,21.23224 h 8.5662 v 20.35794 h -8.61697 z" />
  <path
     id="path5670-6"
     style="display:inline;fill:#5e5e5e;fill-rule:evenodd;stroke:#000000;stroke-width:0.0427232"
     d="m 128.38984,204.5475 v 71.43721 c 0.17508,1.43704 1.00456,1.89345 2.03999,2.03999 h 46.03449 10.15577 l 0.0128,2.5522 h -70.83627 v -62.44491 l 2.53454,-0.36187 1.59843,-0.2871 2.49921,-1.03766 1.7861,-1.63596 0.52324,-1.30921 c 0.10967,-0.33879 -0.0175,-0.578 -0.21195,-0.7882 h -3.03349 c 0,0 -0.54444,0.62406 -0.91182,0.78598 -0.97447,0.42894 -2.17431,0.74573 -3.17258,0.37554 -0.6464,-0.23968 -1.16296,-0.87587 -1.39974,-1.52338 -0.30906,-0.84528 0.0214,-2.54152 0.11258,-2.69789 0.59883,-1.02484 1.38894,-1.63373 2.53012,-1.636 0.65741,0.0256 1.57726,0.17987 2.71557,1.26068 l 0.34884,0.14996 h 2.51024 c 0.66374,-0.20892 0.55109,-0.56151 0.52546,-0.8986 l -0.51221,-1.05091 -0.92506,-0.97361 -0.98026,-0.81025 v -1.14144 h 1.12597 c 0,0 0.18508,0.51691 0.40622,0.52546 0.2372,0.0128 0.24835,-0.5296 0.48571,-0.52106 0.24959,0.009 0.23182,0.56122 0.4813,0.57403 0.27035,0.0128 0.30359,-0.58257 0.57402,-0.57403 0.23981,0.009 0.23254,0.53977 0.47246,0.54314 0.24374,0.003 0.25092,-0.53015 0.49455,-0.53869 0.25702,-0.009 0.3015,0.56843 0.55636,0.53425 0.21063,-0.0299 0.32675,-0.5475 0.32675,-0.5475 z m -2.54337,11.76307 c -0.0454,1.3e-4 -0.0948,0.003 -0.14791,0.0128 l -1.39532,1.13037 -1.11272,0.88314 -1.37766,0.68882 -1.37765,0.37084 -2.11948,0.30034 c -0.4548,0.24139 -0.55602,0.48278 -0.49454,0.72416 v 15.43683 h 8.5662 v -19.02224 c -0.0857,-0.29736 -0.22315,-0.52631 -0.54091,-0.52546 z m 0.60272,20.6538 h -8.64126 v 20.20782 h 8.54191 z m -0.0751,21.23224 h -8.5662 v 20.35795 h 8.61698 z" />
</svg>
