<?xml version="1.0" encoding="UTF-8" standalone="no"?>
<!-- Created with Inkscape (http://www.inkscape.org/) -->

<svg
   width="210mm"
   height="297mm"
   viewBox="0 0 210 297"
   version="1.1"
   id="svg1"
   inkscape:version="1.4 (86a8ad7, 2024-10-11)"
   sodipodi:docname="DSHL-15-corner.svg"
   xmlns:inkscape="http://www.inkscape.org/namespaces/inkscape"
   xmlns:sodipodi="http://sodipodi.sourceforge.net/DTD/sodipodi-0.dtd"
   xmlns="http://www.w3.org/2000/svg"
   xmlns:svg="http://www.w3.org/2000/svg">
  <sodipodi:namedview
     id="namedview1"
     pagecolor="#ffffff"
     bordercolor="#000000"
     borderopacity="0.25"
     inkscape:showpageshadow="2"
     inkscape:pageopacity="0.0"
     inkscape:pagecheckerboard="0"
     inkscape:deskcolor="#d1d1d1"
     inkscape:document-units="mm"
     inkscape:zoom="1.0467522"
     inkscape:cx="-43.467784"
     inkscape:cy="246.95433"
     inkscape:window-width="2560"
     inkscape:window-height="1377"
     inkscape:window-x="-8"
     inkscape:window-y="-8"
     inkscape:window-maximized="1"
     inkscape:current-layer="svg1" />
  <defs
     id="defs1" />
  <path
     style="fill:#4a8db7;fill-opacity:0.768047;fill-rule:evenodd;stroke:#b81e1e;stroke-width:0.041629"
     d="m 87.07508,18.143407 v 16.19515 l -0.20817,0.36092 H 30.773167 v 2.2114 H 93.0293 l 2.40754,-1.92661 0.62314,-2.21458 v -8.51721 h 0.95856 v -1.60166 h -2.56621 v 0.55372 c 0.0599,0.0876 0.17761,0.18331 0.13688,0.25623 -0.10551,0.11691 -0.33526,0.23423 -0.31571,0.35115 0.0163,0.17475 0.38007,0.36662 0.29167,0.52394 -0.0367,0.24523 -0.20653,0.26194 -0.30959,0.39311 0.0204,0.18086 0.25827,0.18005 0.33933,0.45844 -0.008,0.17883 -0.33526,0.30837 -0.3157,0.50016 0.003,0.28963 0.21019,0.32955 0.3157,0.49421 -0.0554,0.22567 -0.36662,0.30144 -0.33933,0.43465 0.0407,0.20816 0.20572,0.29045 0.3157,0.42867 -0.0285,0.17068 -0.30633,0.30348 -0.33363,0.47632 0.13117,0.30389 0.23831,0.29371 0.35726,0.44064 0.008,0.22976 -0.20205,0.32956 -0.30348,0.49417 -0.0245,0.25501 0.26804,0.34463 0.26804,0.53589 -0.0974,0.15072 -0.37436,0.1442 -0.29167,0.45249 0.0994,0.13688 0.33444,0.2986 0.29778,0.41083 -0.008,0.20082 -0.2876,0.27578 -0.30959,0.4287 0.0326,0.23994 0.25623,0.3597 0.29859,0.5169 -0.0974,0.14136 -0.23871,0.343 -0.29248,0.42386 0.0326,0.17109 0.18046,0.31407 0.29778,0.46443 0.0244,0.13728 -0.0591,0.20857 -0.14299,0.27986 v 0.89314 c -0.13687,1.84021 -1.22636,2.33564 -2.44713,2.51858 -1.55579,-0.0623 -2.40966,-1.00165 -2.62577,-2.59598 v -0.79191 l -0.11324,-0.26804 c 0.0285,-0.18372 0.29044,-0.27823 0.27374,-0.47034 -0.0953,-0.14665 -0.277,-0.19635 -0.28596,-0.44064 -0.0245,-0.24646 0.34218,-0.25542 0.26804,-0.48228 -0.0807,-0.14665 -0.26193,-0.29371 -0.23831,-0.4406 -0.0204,-0.16987 0.23912,-0.32467 0.25012,-0.4525 -0.0957,-0.16661 -0.30878,-0.33322 -0.28597,-0.50015 0.003,-0.22894 0.20206,-0.30593 0.30349,-0.45845 -0.10103,-0.16701 -0.36337,-0.38495 -0.29778,-0.50015 0.0326,-0.14217 0.37192,-0.25216 0.29167,-0.45849 -0.0929,-0.15317 -0.29412,-0.32589 -0.27375,-0.45844 0.003,-0.1328 0.25868,-0.25338 0.25623,-0.39881 -0.0872,-0.15683 -0.28189,-0.32385 -0.25623,-0.47038 0.0872,-0.16457 0.31123,-0.35684 0.26193,-0.49421 -0.0912,-0.17679 -0.31529,-0.34014 -0.27374,-0.52989 0.0892,-0.14502 0.37762,-0.20694 0.26804,-0.43465 -0.0892,-0.14869 -0.28434,-0.31082 -0.26804,-0.44655 0.0994,-0.13484 0.31407,-0.27008 0.29778,-0.40492 -0.10143,-0.16865 -0.37885,-0.33729 -0.30348,-0.5061 0.0538,-0.13891 0.18005,-0.29004 0.1609,-0.41677 v -4.82283 z"
     id="path3-8"
     sodipodi:nodetypes="ccccccccccccccccccccccccccccccccccccccccccccccccccccccccccc" />
  <path
     style="fill:#4a8db7;fill-opacity:0.768047;fill-rule:evenodd;stroke:#b81e1e;stroke-width:0.0391564"
     d="m 112.45621,22.406628 h 2.4418 v 0.61605 l -0.11191,0.16782 c 0.13066,0.0984 0.27204,0.18968 0.28008,0.36976 -0.0659,-0.0344 -0.32875,0.44642 -0.22415,0.45926 0.10616,0.011 0.34984,0.39719 0.23527,0.44803 -0.12836,0.11069 -0.20308,0.31152 -0.26898,0.52643 0.26017,0.0892 0.29121,0.24101 0.32492,0.39206 -0.17319,0.0716 -0.30078,0.18123 -0.34714,0.35826 0.20499,0.20883 0.26246,0.31955 0.34714,0.44803 -0.19273,0.11719 -0.25518,0.29044 -0.30231,0.47045 0.21342,0.18545 0.21534,0.30079 0.24637,0.42563 -0.21802,0.0916 -0.28277,0.2387 -0.26898,0.41442 0.2046,0.16055 0.30768,0.3211 0.28009,0.48164 -0.1659,0.0916 -0.32991,0.18392 -0.26859,0.35826 0.28737,0.3414 0.3548,0.3119 0.33603,0.47045 0.002,0.24944 -0.20538,0.28776 -0.33603,0.40324 0.002,0.21304 0.21035,0.33757 0.34714,0.49283 -0.0463,0.28431 -0.26898,0.15671 -0.36976,0.39206 0.0697,0.28852 0.21612,0.30768 0.32493,0.45921 -0.20768,0.13066 -0.30193,0.28776 -0.23526,0.48164 v 1.04172 c 0.3276,1.79601 1.73497,2.36386 2.58739,2.32976 1.36717,-0.32569 2.03017,-1.12483 2.17297,-2.27378 v -0.78407 c 0.14293,-0.12569 0.1594,-0.24292 0.1456,-0.35826 -0.0398,-0.2506 0.11192,-0.0935 -0.34714,-0.44804 0.305,-0.12798 0.33106,-0.28928 0.38086,-0.44804 -0.10615,-0.2456 -0.25633,-0.35902 -0.41442,-0.44802 0.0555,-0.22531 0.4524,-0.20883 0.42561,-0.48164 -0.0598,-0.17242 -0.30079,-0.17128 -0.36975,-0.35826 0.0736,-0.26478 0.39768,-0.0878 0.36975,-0.45923 -0.082,-0.25059 -0.33489,-0.29887 -0.33603,-0.44804 0.0916,-0.34216 0.2092,-0.2912 0.31381,-0.43684 -0.0548,-0.27856 -0.36363,-0.2253 -0.34715,-0.47045 0.0525,-0.22071 0.33029,-0.26438 0.36975,-0.41444 -0.0697,-0.24483 -0.38664,-0.20651 -0.32492,-0.42561 0.0997,-0.16016 0.36631,-0.29235 0.2912,-0.48164 -0.0306,-0.16131 -0.28852,-0.15135 -0.31381,-0.34714 0.0414,-0.16514 0.42221,-0.30615 0.38086,-0.45923 -0.0919,-0.22722 -0.37626,-0.29963 -0.39204,-0.44807 0.0575,-0.2322 0.27856,-0.29121 0.39788,-0.43681 -0.12875,-0.17932 -0.42084,-0.34026 -0.38677,-0.53766 0.11952,-0.0858 0.35481,-0.14598 0.35826,-0.25749 0.0268,-0.27664 -0.17166,-0.32837 -0.25749,-0.49282 v -7.50459 c -0.21151,-0.13027 -0.42677,-0.25902 -0.38086,-0.48164 0.31725,-0.45022 0.79988,-0.27818 0.95208,-0.76165 -0.22109,-0.42348 -0.97964,-0.45394 -0.90725,-0.85129 0.0685,-0.71781 0.90437,-0.34292 0.80644,-0.81767 -0.1797,-0.4212 -0.87906,-0.47459 -0.85127,-0.87365 0.21188,-0.37474 0.82123,-0.3437 0.86246,-0.76166 -0.11424,-0.36094 -0.89124,-0.39926 -0.85124,-0.8289 0.21993,-0.4346601 0.95573,-0.3222401 0.81763,-0.8624601 -0.069,-0.42237 -1.0647,-0.3801 -0.81763,-0.91848 0.28354,-0.2165 0.84921,-0.31075 0.85124,-0.64963 -0.082,-0.56563 -1.03347,-0.55252 -0.84005,-0.94089 0.13104,-0.45474 0.84032,-0.3257 0.82886,-0.78407 -0.0747,-0.34831 -1.01297,-0.43904 -0.86246,-0.86248 0.25979,-0.41006 0.83204,-0.36055 0.88488,-0.73923 -0.11731,-0.30615 -0.94324,-0.61233 -0.81768,-0.91848 0.097,-0.45869 0.9055,-0.33221 0.89607,-0.80646 -0.37244,-0.1433 -0.97917,-0.49029 -0.91848,-0.85127 0.15939,-0.48727996 0.83166,-0.20116 0.87369,-0.75046995 -0.18775,-0.50945 -1.04662,-0.45902 -0.89607,-0.86246 0.27665,-0.59372 0.85561,-0.36248 0.89607,-0.86247 -0.18621,-0.25748005 -1.08432,-0.45777005 -0.88488,-0.77288005 0.21457,-0.67659 0.87499,-0.29389 0.87365,-0.84005 -0.26514,-0.29121 -0.98841,-0.38807 -0.79526,-0.8737 0.17435,-0.4916 0.91799,-0.23641 0.84009,-0.75046 -0.20575,-0.44176 -1.06906,-0.46757 -0.91848,-0.85124 0.30232,-0.25749 0.89438,-0.45735 0.90729,-0.77288 -0.15249,-0.28393 -1.30046,-0.59249 -0.87369,-0.92254 0.20155,-0.55085 0.83427,-0.44999 0.82886,-0.7576 -0.20078,-0.40229 -1.13424,-0.49478 -0.88487,-0.87365 0.223,-0.44854 0.91874,-0.34332 0.86246,-0.82887 -0.17128,-0.29236 -0.8935,-0.41788 -0.78403,-0.76165 0.12721,-0.4648899 0.77706,-0.5670899 0.77284,-0.8736899 -0.26055,-0.28623 -1.00596,-0.47919 -0.76165,-0.86248 0.16399,-0.49378 0.82005,-0.38366 0.84008,-0.72805 -0.22261,-0.34177 -0.95553,-0.51102 -0.8289,-0.89606 0.26516,-0.26898 0.83872,-0.49651 0.79526,-0.80648 -0.27242,-0.27244 -0.94178,-0.43571 -0.81763,-0.81769 0.13603,-0.3881 0.92538,-0.23602 0.78403,-0.85123 -0.2912,-0.27627 -0.90112,-0.48662 -0.87365,-0.82887 0.223,-0.38764 1.0324,-0.16361 0.90725,-0.80648 -0.2912,-0.24637 -0.87059,-0.47682 -0.87365,-0.73924 0.20039,-0.54417 0.88971,-0.50329 0.87365,-0.90729 -0.30768,-0.27205 -0.83897,-0.49586 -0.91844,-0.81769 0.27358,-0.45581 1.01875,-0.39043 0.95208,-0.87364 -0.29159,-0.25404 -0.96277,-0.48666 -0.87369,-0.76166 0.0153,-0.39588 0.65831,-0.48222 0.71687,-0.80648 -0.24638,-0.27627 -0.69281,-0.49375 -0.73928,-0.82887 0.27473,-0.26745 0.64383,-0.53417 0.63847,-0.82886 -0.20921,-0.32493 -0.59717,-0.64966 -0.62724,-0.97447 0.22031,-0.25404 0.72744,-0.39304 0.66084,-0.76169 -0.14676,-0.31113 -0.70288,-0.48149 -0.70567,-0.70564 0.0993,-0.53834 0.55995,-0.56888 0.61605,-0.87365 -0.20155,-0.27243 -0.6761,-0.54513 -0.60483,-0.81768 0.087,-0.5029 0.48536,-0.31381 0.72805,-0.47044 0.20423,-0.11192 0.20461,-0.31152 0.17932,-0.47045 -0.17932,-0.22033 -0.47248,-0.37819 -0.53765,-0.66085 l 0.0559,-3.57309 1.4225,-7.28059 c 0.0625,-0.13526 0.12759,-0.26821 0.33603,-0.25748 0.24409,0.0647 0.41945,0.16361 0.42567,0.34714 v 92.60912 h -2.24022 v -4.60357 c 0.12683,-0.10235 0.25098,-0.20576 0.24638,-0.38087 -0.27167,-0.17856 -0.26285,-0.31994 -0.32493,-0.47041 0.10542,-0.10579 0.31037,-0.1479 0.26898,-0.34714 -0.2686,-0.19312 -0.29351,-0.34332 -0.31381,-0.49287 0.21113,-0.18507 0.29963,-0.31458 0.34714,-0.42562 -0.15824,-0.1456 -0.36783,-0.2912 -0.31381,-0.43684 0.10616,-0.14561 0.31727,-0.2778 0.31381,-0.43681 -0.10419,-0.15941 -0.32415,-0.33796 -0.26898,-0.47046 0.095,-0.14139 0.29313,-0.27127 0.26898,-0.42565 -0.11608,-0.15327 -0.37855,-0.35022 -0.34714,-0.45922 0.10113,-0.12038 0.28546,-0.14407 0.31381,-0.35827 0.0153,-0.15671 -0.42619,-0.33373 -0.32492,-0.50405 0.11228,-0.14944 0.48049,-0.29848 0.33603,-0.44803 -0.10003,-0.14216 -0.33986,-0.29696 -0.29121,-0.42566 0.11915,-0.1456 0.41823,-0.29121 0.34716,-0.43681 -0.10849,-0.14178 -0.44543,-0.25328 -0.32493,-0.42565 0.10076,-0.13066 0.42282,-0.24791 0.2912,-0.39202 -0.11608,-0.15326 -0.42205,-0.35022 -0.34714,-0.45923 0.11192,-0.13448 0.42232,-0.24905 0.33604,-0.40323 l -0.21304,-0.41444 0.0231,-0.61605 c -0.21304,-1.35778 -0.75756,-2.3044 -2.02736,-2.35222 -2.36413,-0.0544 -2.33026,1.38718 -2.67703,2.4754 v 0.70568 l -0.0896,0.35826 c 0.21035,-0.0268 0.26476,0.13832 0.34714,0.26898 -0.0191,0.21726 -0.24139,0.29963 -0.38086,0.43685 0.10039,0.14023 0.12912,0.27205 0.33603,0.42562 0.0892,0.15326 -0.18584,0.30615 -0.28009,0.45925 -0.007,0.15557 0.22261,0.33528 0.34714,0.50402 -0.14292,0.10922 -0.34638,0.16592 -0.38086,0.36976 -0.0191,0.20613 0.19886,0.3073 0.30231,0.45922 -0.0984,0.13411 -0.27434,0.14599 -0.28009,0.42566 -0.011,0.223 0.205,0.29388 0.31381,0.43685 -0.1774,0.13372 -0.32147,0.27358 -0.33603,0.43681 0.0625,0.13448 0.0384,0.26897 0.29121,0.40323 -0.0344,0.32225 -0.18469,0.29734 -0.30233,0.36976 -10e-4,0.20691 0.1253,0.36017 0.30233,0.49283 0.11265,0.22415 -0.18622,0.28392 -0.2801,0.42562 -0.0582,0.19656 0.2027,0.32262 0.31382,0.48167 -0.007,0.21074 -0.19351,0.24523 -0.2801,0.41444 -0.0667,0.14254 0.15135,0.32032 0.23526,0.48164 0.0663,0.20306 -0.16936,0.25517 -0.25749,0.38086 v 0.61605 h -2.3522 v -1.47852 h 0.92966 v -8.00864 l 0.20155,-1.34414 0.86247,-1.78096 v -0.32492 l -0.84461,-1.46296 -0.24178,-1.31487 v -8.03107 l -0.95208,-0.023 z"
     id="path3"
     sodipodi:nodetypes="cccccscccccccccccccccccccccccccccccccccccccccccccccccccccccccccccccccccccccccccccccccccccccccccccccccccccccccccccccccccccccccccccccccccccccccccccccccccccccccccccccccc"
     inkscape:label="profile_right_corner" />
</svg>
