<?xml version="1.0" encoding="UTF-8" standalone="no"?>
<!-- Created with Inkscape (http://www.inkscape.org/) -->

<svg
   width="210mm"
   height="297mm"
   viewBox="0 0 210 297"
   version="1.1"
   id="svg1"
   inkscape:version="1.4 (86a8ad7, 2024-10-11)"
   sodipodi:docname="DSHL-15.svg"
   xmlns:inkscape="http://www.inkscape.org/namespaces/inkscape"
   xmlns:sodipodi="http://sodipodi.sourceforge.net/DTD/sodipodi-0.dtd"
   xmlns="http://www.w3.org/2000/svg"
   xmlns:svg="http://www.w3.org/2000/svg">
  <sodipodi:namedview
     id="namedview1"
     pagecolor="#ffffff"
     bordercolor="#000000"
     borderopacity="0.25"
     inkscape:showpageshadow="2"
     inkscape:pageopacity="0.0"
     inkscape:pagecheckerboard="0"
     inkscape:deskcolor="#d1d1d1"
     inkscape:document-units="mm"
     inkscape:zoom="1.4803312"
     inkscape:cx="221.9098"
     inkscape:cy="217.85665"
     inkscape:window-width="2560"
     inkscape:window-height="1377"
     inkscape:window-x="-8"
     inkscape:window-y="-8"
     inkscape:window-maximized="1"
     inkscape:current-layer="svg1" />
  <defs
     id="defs1" />
  <path
     style="fill:#4a8db7;fill-opacity:0.768047;fill-rule:evenodd;stroke:#b81e1e;stroke-width:0.041629"
     d="m 87.07508,18.143407 v 16.19515 l -0.20817,0.36092 H 30.773167 v 2.2114 H 93.0293 l 2.40754,-1.92661 0.62314,-2.21458 v -8.51721 h 0.95856 v -1.60166 h -2.56621 v 0.55372 c 0.0599,0.0876 0.17761,0.18331 0.13688,0.25623 -0.10551,0.11691 -0.33526,0.23423 -0.31571,0.35115 0.0163,0.17475 0.38007,0.36662 0.29167,0.52394 -0.0367,0.24523 -0.20653,0.26194 -0.30959,0.39311 0.0204,0.18086 0.25827,0.18005 0.33933,0.45844 -0.008,0.17883 -0.33526,0.30837 -0.3157,0.50016 0.003,0.28963 0.21019,0.32955 0.3157,0.49421 -0.0554,0.22567 -0.36662,0.30144 -0.33933,0.43465 0.0407,0.20816 0.20572,0.29045 0.3157,0.42867 -0.0285,0.17068 -0.30633,0.30348 -0.33363,0.47632 0.13117,0.30389 0.23831,0.29371 0.35726,0.44064 0.008,0.22976 -0.20205,0.32956 -0.30348,0.49417 -0.0245,0.25501 0.26804,0.34463 0.26804,0.53589 -0.0974,0.15072 -0.37436,0.1442 -0.29167,0.45249 0.0994,0.13688 0.33444,0.2986 0.29778,0.41083 -0.008,0.20082 -0.2876,0.27578 -0.30959,0.4287 0.0326,0.23994 0.25623,0.3597 0.29859,0.5169 -0.0974,0.14136 -0.23871,0.343 -0.29248,0.42386 0.0326,0.17109 0.18046,0.31407 0.29778,0.46443 0.0244,0.13728 -0.0591,0.20857 -0.14299,0.27986 v 0.89314 c -0.13687,1.84021 -1.22636,2.33564 -2.44713,2.51858 -1.55579,-0.0623 -2.40966,-1.00165 -2.62577,-2.59598 v -0.79191 l -0.11324,-0.26804 c 0.0285,-0.18372 0.29044,-0.27823 0.27374,-0.47034 -0.0953,-0.14665 -0.277,-0.19635 -0.28596,-0.44064 -0.0245,-0.24646 0.34218,-0.25542 0.26804,-0.48228 -0.0807,-0.14665 -0.26193,-0.29371 -0.23831,-0.4406 -0.0204,-0.16987 0.23912,-0.32467 0.25012,-0.4525 -0.0957,-0.16661 -0.30878,-0.33322 -0.28597,-0.50015 0.003,-0.22894 0.20206,-0.30593 0.30349,-0.45845 -0.10103,-0.16701 -0.36337,-0.38495 -0.29778,-0.50015 0.0326,-0.14217 0.37192,-0.25216 0.29167,-0.45849 -0.0929,-0.15317 -0.29412,-0.32589 -0.27375,-0.45844 0.003,-0.1328 0.25868,-0.25338 0.25623,-0.39881 -0.0872,-0.15683 -0.28189,-0.32385 -0.25623,-0.47038 0.0872,-0.16457 0.31123,-0.35684 0.26193,-0.49421 -0.0912,-0.17679 -0.31529,-0.34014 -0.27374,-0.52989 0.0892,-0.14502 0.37762,-0.20694 0.26804,-0.43465 -0.0892,-0.14869 -0.28434,-0.31082 -0.26804,-0.44655 0.0994,-0.13484 0.31407,-0.27008 0.29778,-0.40492 -0.10143,-0.16865 -0.37885,-0.33729 -0.30348,-0.5061 0.0538,-0.13891 0.18005,-0.29004 0.1609,-0.41677 v -4.82283 z"
     id="path3-8"
     sodipodi:nodetypes="ccccccccccccccccccccccccccccccccccccccccccccccccccccccccccc" />
  <path
     style="fill:#4a8db7;fill-opacity:0.768047;fill-rule:evenodd;stroke:#b81e1e;stroke-width:0.041629"
     d="m 111.81976,18.126527 v 16.19515 l 0.20829,0.36092 h 56.09374 v 2.2114 h -62.25613 l -2.40755,-1.92661 -0.62311,-2.21458 v -8.51721 h -0.95858 v -1.60166 h 2.56621 v 0.55372 c -0.0598,0.0876 -0.17761,0.18331 -0.13695,0.25623 0.10538,0.11691 0.33526,0.23423 0.31558,0.35115 -0.0167,0.17475 -0.38003,0.36662 -0.29175,0.52394 0.0379,0.24524 0.20637,0.26194 0.30959,0.39311 -0.0208,0.18087 -0.25826,0.18005 -0.33937,0.45844 0.007,0.17883 0.33542,0.30837 0.31558,0.50016 -0.003,0.28963 -0.21032,0.32955 -0.31558,0.49421 0.0554,0.22568 0.36667,0.30144 0.33937,0.43465 -0.0399,0.20816 -0.20584,0.29045 -0.31554,0.42867 0.0289,0.17068 0.3065,0.30348 0.33343,0.47632 -0.13117,0.30389 -0.23819,0.29371 -0.35726,0.44065 -0.007,0.22975 0.20213,0.32955 0.30365,0.49416 0.0253,0.25501 -0.26797,0.34463 -0.26797,0.53589 0.0974,0.15072 0.37425,0.1442 0.29176,0.45249 -0.0992,0.13688 -0.33449,0.2986 -0.2977,0.41083 0.006,0.20083 0.28751,0.27578 0.30959,0.4287 -0.0318,0.23994 -0.25627,0.3597 -0.29843,0.5169 0.0975,0.14136 0.23855,0.343 0.29248,0.42386 -0.0334,0.17109 -0.18029,0.31408 -0.2977,0.46443 -0.0257,0.13728 0.0589,0.20857 0.14291,0.27986 v 0.89314 c 0.13703,1.84021 1.22638,2.33564 2.44713,2.51859 1.55581,-0.0623 2.40968,-1.00166 2.62576,-2.59599 v -0.79191 l 0.11313,-0.26804 c -0.0285,-0.18372 -0.29037,-0.27823 -0.27391,-0.47034 0.0955,-0.14665 0.27709,-0.19635 0.2858,-0.44064 0.0248,-0.24646 -0.34218,-0.25542 -0.26796,-0.48228 0.0804,-0.14665 0.26193,-0.2937 0.23819,-0.4406 0.0216,-0.16987 -0.23892,-0.32466 -0.25008,-0.45249 0.0957,-0.16661 0.30886,-0.33323 0.2858,-0.50016 -0.004,-0.22894 -0.20217,-0.30593 -0.30365,-0.45845 0.10091,-0.16701 0.36357,-0.38495 0.2977,-0.50015 -0.033,-0.14217 -0.37184,-0.25216 -0.29175,-0.45849 0.093,-0.15316 0.29395,-0.32589 0.27387,-0.45844 -0.003,-0.1328 -0.25884,-0.25338 -0.25603,-0.39881 0.087,-0.15683 0.28194,-0.32385 0.25603,-0.47038 -0.0873,-0.16457 -0.31135,-0.35684 -0.26197,-0.49421 0.0913,-0.17679 0.31533,-0.34014 0.27387,-0.52989 -0.0893,-0.14502 -0.37771,-0.20694 -0.26793,-0.43465 0.0893,-0.14869 0.2845,-0.31082 0.26793,-0.44655 -0.0993,-0.13484 -0.314,-0.27008 -0.2977,-0.40492 0.10123,-0.16865 0.379,-0.33729 0.30364,-0.5061 -0.0536,-0.13891 -0.18021,-0.29004 -0.16078,-0.41677 v -4.82283 z"
     id="path3-9"
     sodipodi:nodetypes="ccccccccccccccccccccccccccccccccccccccccccccccccccccccccccc" />
</svg>
