<?xml version="1.0" encoding="UTF-8" standalone="no"?>
<!-- Created with Inkscape (http://www.inkscape.org/) -->

<svg
   width="210mm"
   height="297mm"
   viewBox="0 0 210 297"
   version="1.1"
   id="svg1"
   inkscape:version="1.4 (86a8ad7, 2024-10-11)"
   sodipodi:docname="DSHL-15-030-corner.svg"
   xmlns:inkscape="http://www.inkscape.org/namespaces/inkscape"
   xmlns:sodipodi="http://sodipodi.sourceforge.net/DTD/sodipodi-0.dtd"
   xmlns="http://www.w3.org/2000/svg"
   xmlns:svg="http://www.w3.org/2000/svg">
  <sodipodi:namedview
     id="namedview1"
     pagecolor="#ffffff"
     bordercolor="#000000"
     borderopacity="0.25"
     inkscape:showpageshadow="2"
     inkscape:pageopacity="0.0"
     inkscape:pagecheckerboard="0"
     inkscape:deskcolor="#d1d1d1"
     inkscape:document-units="mm"
     inkscape:zoom="1.4803312"
     inkscape:cx="377.61819"
     inkscape:cy="273.92518"
     inkscape:window-width="2560"
     inkscape:window-height="1377"
     inkscape:window-x="-8"
     inkscape:window-y="-8"
     inkscape:window-maximized="1"
     inkscape:current-layer="svg1" />
  <defs
     id="defs1">
    <inkscape:path-effect
       effect="fillet_chamfer"
       id="path-effect1"
       is_visible="true"
       lpeversion="1"
       nodesatellites_param="F,0,0,1,0,0,0,1 @ F,0,0,1,0,0,0,1 @ F,0,0,1,0,0,0,1 @ F,0,0,1,0,0,0,1 @ F,0,0,1,0,0,0,1 @ F,0,0,1,0,0,0,1 @ F,0,0,1,0,0,0,1 @ F,0,0,1,0,0,0,1 @ F,0,0,1,0,0,0,1 @ F,0,0,1,0,0,0,1 @ F,0,0,1,0,0,0,1 @ F,0,0,1,0,0,0,1 @ F,0,0,1,0,0,0,1 @ F,0,0,1,0,0,0,1 @ F,0,0,1,0,0,0,1 @ F,0,0,1,0,0,0,1 @ F,0,0,1,0,0,0,1 @ F,0,0,1,0,0,0,1 @ F,0,0,1,0,0,0,1 @ F,0,0,1,0,0,0,1 @ F,0,0,1,0,0,0,1 @ F,0,0,1,0,0,0,1 @ F,0,0,1,0,0,0,1 @ F,0,0,1,0,0,0,1 @ F,0,0,1,0,0,0,1 @ F,0,0,1,0,0,0,1 @ F,0,0,1,0,0,0,1 @ F,0,0,1,0,0,0,1 @ F,0,0,1,0,0,0,1 @ F,0,0,1,0,0,0,1 @ F,0,0,1,0,0,0,1 @ F,0,0,1,0,0,0,1 @ F,0,0,1,0,0,0,1 @ F,0,0,1,0,0,0,1 @ F,0,0,1,0,0,0,1 @ F,0,0,1,0,0,0,1 @ F,0,0,1,0,0,0,1 @ F,0,0,1,0,0,0,1 @ F,0,0,1,0,0,0,1 @ F,0,0,1,0,0,0,1 @ F,0,0,1,0,0,0,1 @ F,0,0,1,0,0,0,1 @ F,0,0,1,0,0,0,1 @ F,0,0,1,0,0,0,1 @ F,0,0,1,0,0,0,1 @ F,0,0,1,0,0,0,1 @ F,0,0,1,0,0,0,1 @ F,0,0,1,0,0,0,1 @ F,0,0,1,0,0,0,1 @ F,0,0,1,0,0,0,1 @ F,0,0,1,0,0,0,1 @ F,0,0,1,0,0,0,1 @ F,0,0,1,0,0,0,1 @ F,0,0,1,0,0,0,1 @ F,0,0,1,0,0,0,1 @ F,0,0,1,0,0,0,1 @ F,0,0,1,0,0,0,1 @ F,0,0,1,0,0,0,1 @ F,0,0,1,0,0,0,1 @ F,0,0,1,0,0,0,1 @ F,0,0,1,0,0,0,1 @ F,0,0,1,0,0,0,1 @ F,0,0,1,0,0,0,1 @ F,0,0,1,0,0,0,1 @ F,0,0,1,0,0,0,1 @ F,0,0,1,0,0,0,1 @ F,0,0,1,0,0,0,1 @ F,0,0,1,0,0,0,1 @ F,0,0,1,0,0,0,1 @ F,0,0,1,0,0,0,1 @ F,0,0,1,0,0,0,1 @ F,0,0,1,0,0,0,1 @ F,0,0,1,0,0,0,1 @ F,0,0,1,0,0,0,1 @ F,0,0,1,0,0,0,1 @ F,0,0,1,0,0,0,1 @ F,0,0,1,0,0,0,1 @ F,0,0,1,0,0,0,1 @ F,0,0,1,0,0,0,1 @ F,0,0,1,0,0,0,1 @ F,0,0,1,0,0,0,1 @ F,0,0,1,0,0,0,1 @ F,0,0,1,0,0,0,1 @ F,0,0,1,0,0,0,1 @ F,0,0,1,0,0,0,1 @ F,0,0,1,0,0,0,1 @ F,0,0,1,0,0,0,1 @ F,0,0,1,0,0,0,1 @ F,0,0,1,0,0,0,1 @ F,0,0,1,0,0,0,1 @ F,0,0,1,0,0,0,1 @ F,0,0,1,0,0,0,1 @ F,0,0,1,0,0,0,1 @ F,0,0,1,0,0,0,1 @ F,0,0,1,0,0,0,1 @ F,0,0,1,0,0,0,1 @ F,0,0,1,0,0,0,1 @ F,0,0,1,0,0,0,1 @ F,0,0,1,0,0,0,1 @ F,0,0,1,0,0,0,1 @ F,0,0,1,0,0,0,1 @ F,0,0,1,0,0,0,1 @ F,0,0,1,0,0,0,1 @ F,0,0,1,0,0,0,1 @ F,0,0,1,0,0,0,1 @ F,0,0,1,0,0,0,1 @ F,0,0,1,0,0,0,1 @ F,0,0,1,0,0,0,1 @ F,0,0,1,0,0,0,1 @ F,0,0,1,0,0,0,1 @ F,0,0,1,0,0,0,1 @ F,0,0,1,0,0,0,1 @ F,0,0,1,0,0,0,1 @ F,0,0,1,0,0,0,1 @ F,0,0,1,0,0,0,1 @ F,0,0,1,0,0,0,1"
       radius="0"
       unit="px"
       method="auto"
       mode="F"
       chamfer_steps="1"
       flexible="false"
       use_knot_distance="true"
       apply_no_radius="true"
       apply_with_radius="true"
       only_selected="true"
       hide_knots="false" />
  </defs>
  <path
     style="fill:#000000;fill-opacity:1;fill-rule:evenodd;stroke:#b81e1e;stroke-width:0.0102192"
     d="m 97.398704,30.071549 -0.360701,-0.0011 -0.630452,-0.542602 c -0.0391,-0.06957 -0.0205,-0.128047 0.01138,-0.183968 0.03789,-0.03446 0.08052,-0.06418 0.159163,-0.05788 l 0.06408,0.03617 0.10232,0.09612 h 0.06098 v -0.639754 l -0.368972,-0.311092 c -0.0552,-0.07122 -0.069,-0.144455 -0.01138,-0.221176 0.04724,-0.04457 0.09986,-0.06085 0.158128,-0.04754 l 0.186037,0.138491 h 0.03514 V 27.7078 l -0.40101,-0.360701 c -0.03664,-0.07033 -0.0069,-0.136897 0.02066,-0.180869 0.04202,-0.05171 0.09794,-0.0617 0.159162,-0.05581 l 0.181902,0.13126 0.02791,0.0011 0.01035,-0.0093 v -0.988055 l -0.302823,-0.187068 v -0.485759 h 2.542418 l 0.629962,0.801057 c 0.02149,0.01751 0.03926,0.03689 0.08185,0.04385 0.03529,-0.01705 0.05852,-0.03411 0.07454,-0.05116 l 0.625572,-0.792204 1.38124,-0.0015 0.63435,0.79805 c 0.0177,0.0213 0.0461,0.03183 0.0775,0.03946 0.0426,-0.0076 0.0589,-0.0239 0.0775,-0.03946 l 0.62704,-0.79805 h 1.36663 l 0.62557,0.786357 c 0.0226,0.02403 0.0477,0.04655 0.0921,0.057 0.0252,-0.0047 0.0491,-0.02163 0.0716,-0.05116 l 0.62851,-0.792203 h 2.53739 v 0.489646 l -0.29817,0.187089 v 0.992446 h 0.038 l 0.17685,-0.128624 c 0.0514,-0.01437 0.1037,-0.0077 0.15786,0.04385 0.0678,0.06139 0.0437,0.122777 0.0322,0.184166 l -0.4078,0.368329 -0.002,0.632886 0.0409,0.0016 0.18124,-0.14324 c 0.0527,-0.01266 0.10675,0.0032 0.16224,0.05116 0.0573,0.06537 0.0409,0.138508 -0.006,0.21486 l -0.37564,0.312788 v 0.632886 l 0.0585,0.0029 0.10086,-0.09354 c 0.0731,-0.05333 0.13489,-0.03393 0.19439,0 0.0874,0.04819 0.0702,0.120524 0.0526,0.192934 l -0.62996,0.559806 h -0.36102 l -0.63727,-0.555421 c -0.0147,-0.07393 -0.0246,-0.146284 0.0365,-0.195858 0.0464,-0.04473 0.0972,-0.04651 0.14908,-0.03654 l 0.14324,0.124241 h 0.0702 v -0.629965 l -0.36248,-0.312788 c -0.0809,-0.08354 -0.0623,-0.156712 -0.0117,-0.226552 0.0489,-0.04776 0.10199,-0.05215 0.1564,-0.04239 l 0.18124,0.138856 h 0.0424 v -0.628502 l -0.40049,-0.361021 -0.0219,-0.07308 c -0.001,-0.05509 0.0226,-0.09865 0.0628,-0.134469 0.0423,-0.03926 0.0912,-0.03915 0.14178,-0.02923 l 0.15055,0.121314 0.0453,0.01315 0.019,-0.03069 v -0.505725 h -1.38709 l -0.58465,0.586113 c -0.0441,0.03696 -0.0943,0.0584 -0.15493,0.05408 -0.0499,-0.0099 -0.10015,-0.0184 -0.1447,-0.04969 l -0.5905,-0.5905 h -1.30524 l -0.60219,0.587576 c -0.0327,0.03082 -0.0788,0.04936 -0.14178,0.05262 -0.0635,-0.003 -0.10888,-0.0266 -0.15347,-0.05116 l -0.58465,-0.589037 h -1.31547 l -0.587569,0.589037 c -0.03516,0.02444 -0.08256,0.04322 -0.153472,0.05116 -0.05647,-3.61e-4 -0.105054,-0.02043 -0.150548,-0.04823 L 99.016062,26.711379 H 97.6353 l 0.0029,0.52034 0.01024,0.01024 0.02339,-0.0029 0.181242,-0.124241 c 0.05903,-0.02015 0.112928,0.0025 0.163703,0.05116 0.04676,0.05685 0.04678,0.117437 0.02484,0.179781 l -0.406332,0.365408 0.0016,0.61096 0.02777,0.01609 0.147624,-0.112546 c 0.06577,-0.04431 0.131547,-0.02877 0.197321,0.02045 0.04525,0.05603 0.04411,0.112058 0.0263,0.168087 l -0.02777,0.0497 -0.371256,0.320096 v 0.628502 h 0.05701 l 0.111082,-0.09501 c 0.07195,-0.06158 0.139605,-0.03282 0.20609,0.02045 0.05728,0.07771 0.04326,0.129021 0.02777,0.179782 z"
     id="compensator"
     sodipodi:nodetypes="ccccccccccccccccccccccccccccccccccccccccccccccccccccccccccccccccccccccccccccccccccccccccccccccccccccccccccccccccccccc"
     inkscape:path-effect="#path-effect1"
     inkscape:original-d="m 97.398704,30.071549 -0.360701,-0.0011 -0.630452,-0.542602 c -0.0391,-0.06957 -0.0205,-0.128047 0.01138,-0.183968 0.03789,-0.03446 0.08052,-0.06418 0.159163,-0.05788 l 0.06408,0.03617 0.10232,0.09612 h 0.06098 v -0.639754 l -0.368972,-0.311092 c -0.0552,-0.07122 -0.069,-0.144455 -0.01138,-0.221176 0.04724,-0.04457 0.09986,-0.06085 0.158128,-0.04754 l 0.186037,0.138491 h 0.03514 V 27.7078 l -0.40101,-0.360701 c -0.03664,-0.07033 -0.0069,-0.136897 0.02066,-0.180869 0.04202,-0.05171 0.09794,-0.0617 0.159162,-0.05581 l 0.181902,0.13126 0.02791,0.0011 0.01035,-0.0093 v -0.988055 l -0.302823,-0.187068 v -0.485759 h 2.542418 l 0.629962,0.801057 c 0.02149,0.01751 0.03926,0.03689 0.08185,0.04385 0.03529,-0.01705 0.05852,-0.03411 0.07454,-0.05116 l 0.625572,-0.792204 1.38124,-0.0015 0.63435,0.79805 c 0.0177,0.0213 0.0461,0.03183 0.0775,0.03946 0.0426,-0.0076 0.0589,-0.0239 0.0775,-0.03946 l 0.62704,-0.79805 h 1.36663 l 0.62557,0.786357 c 0.0226,0.02403 0.0477,0.04655 0.0921,0.057 0.0252,-0.0047 0.0491,-0.02163 0.0716,-0.05116 l 0.62851,-0.792203 h 2.53739 v 0.489646 l -0.29817,0.187089 v 0.992446 h 0.038 l 0.17685,-0.128624 c 0.0514,-0.01437 0.1037,-0.0077 0.15786,0.04385 0.0678,0.06139 0.0437,0.122777 0.0322,0.184166 l -0.4078,0.368329 -0.002,0.632886 0.0409,0.0016 0.18124,-0.14324 c 0.0527,-0.01266 0.10675,0.0032 0.16224,0.05116 0.0573,0.06537 0.0409,0.138508 -0.006,0.21486 l -0.37564,0.312788 v 0.632886 l 0.0585,0.0029 0.10086,-0.09354 c 0.0731,-0.05333 0.13489,-0.03393 0.19439,0 0.0874,0.04819 0.0702,0.120524 0.0526,0.192934 l -0.62996,0.559806 h -0.36102 l -0.63727,-0.555421 c -0.0147,-0.07393 -0.0246,-0.146284 0.0365,-0.195858 0.0464,-0.04473 0.0972,-0.04651 0.14908,-0.03654 l 0.14324,0.124241 h 0.0702 v -0.629965 l -0.36248,-0.312788 c -0.0809,-0.08354 -0.0623,-0.156712 -0.0117,-0.226552 0.0489,-0.04776 0.10199,-0.05215 0.1564,-0.04239 l 0.18124,0.138856 h 0.0424 v -0.628502 l -0.40049,-0.361021 -0.0219,-0.07308 c -0.001,-0.05509 0.0226,-0.09865 0.0628,-0.134469 0.0423,-0.03926 0.0912,-0.03915 0.14178,-0.02923 l 0.15055,0.121314 0.0453,0.01315 0.019,-0.03069 v -0.505725 h -1.38709 l -0.58465,0.586113 c -0.0441,0.03696 -0.0943,0.0584 -0.15493,0.05408 -0.0499,-0.0099 -0.10015,-0.0184 -0.1447,-0.04969 l -0.5905,-0.5905 h -1.30524 l -0.60219,0.587576 c -0.0327,0.03082 -0.0788,0.04936 -0.14178,0.05262 -0.0635,-0.003 -0.10888,-0.0266 -0.15347,-0.05116 l -0.58465,-0.589037 h -1.31547 l -0.587569,0.589037 c -0.03516,0.02444 -0.08256,0.04322 -0.153472,0.05116 -0.05647,-3.61e-4 -0.105054,-0.02043 -0.150548,-0.04823 L 99.016062,26.711379 H 97.6353 l 0.0029,0.52034 0.01024,0.01024 0.02339,-0.0029 0.181242,-0.124241 c 0.05903,-0.02015 0.112928,0.0025 0.163703,0.05116 0.04676,0.05685 0.04678,0.117437 0.02484,0.179781 l -0.406332,0.365408 0.0016,0.61096 0.02777,0.01609 0.147624,-0.112546 c 0.06577,-0.04431 0.131547,-0.02877 0.197321,0.02045 0.04525,0.05603 0.04411,0.112058 0.0263,0.168087 l -0.02777,0.0497 -0.371256,0.320096 v 0.628502 h 0.05701 l 0.111082,-0.09501 c 0.07195,-0.06158 0.139605,-0.03282 0.20609,0.02045 0.05728,0.07771 0.04326,0.129021 0.02777,0.179782 z"
     inkscape:label="compensator"
     transform="matrix(3.0033968,0,0,3.0033968,-181.93777,-9.840679)" />
  <path
     style="fill:#b4cdd0;fill-opacity:0;fill-rule:evenodd;stroke:#b81e1e;stroke-width:0.000130592"
     id="screw_right"
     transform="scale(-1,1)"
     inkscape:label="screw_right"
     sodipodi:type="arc"
     sodipodi:cx="-144.42673"
     sodipodi:cy="30.672432"
     sodipodi:rx="0.039848957"
     sodipodi:ry="0.026163459"
     sodipodi:start="0"
     sodipodi:end="1.3916238"
     sodipodi:arc-type="slice"
     d="m -144.38688,30.672432 a 0.03984896,0.02616346 0 0 1 -0.0328,0.02575 l -0.007,-0.02575 z" />
  <rect
     style="fill:#e1ecec;fill-opacity:0.77;fill-rule:evenodd;stroke:#b81e1e;stroke-width:0.00966604"
     id="finish_right"
     width="81.225288"
     height="2.0341825"
     x="-81.230118"
     y="146.12323"
     inkscape:label="finish_right"
     transform="rotate(-90)" />
  <rect
     style="fill:#e1ecec;fill-opacity:0.77;fill-rule:evenodd;stroke:#b81e1e;stroke-width:0.011093"
     id="cover_right"
     width="81.196983"
     height="0.12761921"
     x="-81.210876"
     y="145.94766"
     inkscape:label="cover_right"
     transform="rotate(-90)" />
  <path
     style="fill:#4a8db7;fill-opacity:0.768047;fill-rule:evenodd;stroke:#b81e1e;stroke-width:0.0339124"
     d="m 137.73847,70.292087 h 2.11478 v 0.533545 l -0.0969,0.145345 c 0.11316,0.08522 0.23561,0.164276 0.24258,0.320239 -0.0571,-0.02979 -0.28473,0.386633 -0.19413,0.397753 0.0919,0.0095 0.30298,0.343996 0.20375,0.388027 -0.11116,0.09587 -0.17588,0.2698 -0.23295,0.455928 0.22531,0.07725 0.2522,0.208732 0.2814,0.339553 -0.14999,0.06201 -0.26049,0.156959 -0.30065,0.310279 0.17754,0.180863 0.2273,0.276755 0.30065,0.388028 -0.16692,0.101495 -0.22101,0.251542 -0.26182,0.407444 0.18483,0.160613 0.1865,0.260507 0.21337,0.368627 -0.18883,0.07933 -0.2449,0.206733 -0.23295,0.358918 0.17719,0.139049 0.26647,0.278097 0.24257,0.417137 -0.14368,0.07933 -0.28572,0.159288 -0.23261,0.31028 0.24888,0.295677 0.30728,0.270128 0.29102,0.407444 0.002,0.216033 -0.17786,0.249221 -0.29102,0.349236 0.002,0.184508 0.18218,0.29236 0.30064,0.426827 -0.0401,0.246233 -0.23296,0.135723 -0.32023,0.339553 0.0604,0.24988 0.18717,0.266474 0.28141,0.39771 -0.17987,0.113161 -0.2615,0.249222 -0.20376,0.417136 v 0.902206 c 0.28372,1.555483 1.50261,2.047283 2.24088,2.017749 1.18407,-0.282071 1.75827,-0.97419 1.88194,-1.969265 v -0.679064 c 0.12379,-0.108856 0.13806,-0.210386 0.12611,-0.310279 -0.0345,-0.217038 0.0969,-0.08098 -0.30065,-0.388036 0.26415,-0.11084 0.28672,-0.250538 0.32985,-0.388035 -0.0919,-0.212709 -0.222,-0.310939 -0.35891,-0.388019 0.048,-0.195136 0.3918,-0.180863 0.36861,-0.417136 -0.0518,-0.149329 -0.26051,-0.148342 -0.32024,-0.31028 0.0638,-0.229319 0.34443,-0.07604 0.32024,-0.397727 -0.071,-0.21703 -0.29004,-0.258844 -0.29103,-0.388036 0.0793,-0.296336 0.18118,-0.252201 0.27178,-0.378336 -0.0475,-0.241253 -0.31493,-0.195127 -0.30066,-0.407445 0.0455,-0.19115 0.28606,-0.228972 0.32023,-0.358935 -0.0604,-0.212041 -0.33486,-0.178853 -0.2814,-0.36861 0.0864,-0.13871 0.31726,-0.253197 0.2522,-0.417136 -0.0265,-0.139706 -0.24987,-0.13108 -0.27178,-0.300649 0.0359,-0.143024 0.36566,-0.265149 0.32986,-0.397727 -0.0796,-0.196789 -0.32587,-0.259502 -0.33954,-0.388062 0.0498,-0.201102 0.24126,-0.252209 0.34459,-0.37831 -0.11151,-0.155304 -0.36448,-0.29469 -0.33497,-0.465653 0.10351,-0.07431 0.30729,-0.126429 0.31028,-0.223006 0.0232,-0.23959 -0.14868,-0.284392 -0.22301,-0.426818 v -6.499532 c -0.18318,-0.112823 -0.36961,-0.22433 -0.32985,-0.417135 0.27476,-0.389924 0.69275,-0.240925 0.82457,-0.659645 -0.19148,-0.366766 -0.84843,-0.393147 -0.78574,-0.737281 0.0593,-0.621676 0.78324,-0.296994 0.69844,-0.708163 -0.15565,-0.36479 -0.76134,-0.41103 -0.73727,-0.756645 0.18351,-0.324553 0.71125,-0.29767 0.74696,-0.659654 -0.0989,-0.312601 -0.77189,-0.34579 -0.73725,-0.71789 0.19049,-0.376447 0.82774,-0.279083 0.70813,-0.746954 -0.0598,-0.365803 -0.9221,-0.329195 -0.70813,-0.795471 0.24558,-0.187505 0.73549,-0.269132 0.73725,-0.562628 -0.071,-0.489878 -0.89507,-0.478523 -0.72756,-0.814881 0.1135,-0.393838 0.72779,-0.28208 0.71787,-0.679062 -0.0647,-0.301662 -0.87731,-0.380242 -0.74696,-0.746972 0.225,-0.355142 0.72061,-0.312263 0.76638,-0.640228 -0.10162,-0.265149 -0.81692,-0.530323 -0.70818,-0.795472 0.084,-0.397259 0.78422,-0.287718 0.77607,-0.698454 -0.32257,-0.124108 -0.84804,-0.424627 -0.79548,-0.737263 0.13805,-0.42202 0.72028,-0.174219 0.75669,-0.649962 -0.16262,-0.441222 -0.90646,-0.397545 -0.77607,-0.746954 0.2396,-0.514206 0.74102,-0.313935 0.77607,-0.746963 -0.16128,-0.222997 -0.93911,-0.396464 -0.76638,-0.669372 0.18583,-0.585977 0.75781,-0.25453 0.75665,-0.727545 -0.22963,-0.25221 -0.85604,-0.336097 -0.68876,-0.756689 0.151,-0.425762 0.79505,-0.204749 0.72759,-0.649955 -0.1782,-0.382597 -0.9259,-0.40495 -0.79548,-0.737237 0.26183,-0.223005 0.7746,-0.396098 0.78579,-0.66937 -0.13208,-0.245905 -1.1263,-0.513141 -0.75669,-0.798989 0.17456,-0.477077 0.72254,-0.389725 0.71785,-0.656137 -0.1739,-0.348413 -0.98233,-0.428516 -0.76636,-0.756646 0.19313,-0.388469 0.7957,-0.297341 0.74696,-0.717863 -0.14836,-0.253206 -0.77385,-0.361915 -0.67904,-0.659645 0.11017,-0.40263 0.67299,-0.491143 0.66935,-0.756681 -0.22566,-0.247896 -0.87125,-0.415014 -0.65966,-0.746971 0.14203,-0.42765 0.71024,-0.332278 0.72758,-0.630545 -0.1928,-0.295998 -0.82757,-0.442582 -0.71789,-0.776055 0.22965,-0.232957 0.72639,-0.430014 0.68875,-0.698472 -0.23594,-0.235953 -0.81565,-0.377357 -0.70813,-0.70818 0.11781,-0.336123 0.80145,-0.20441 0.67904,-0.737227 -0.2522,-0.239271 -0.78044,-0.42145 -0.75665,-0.717863 0.19313,-0.335726 0.89413,-0.141699 0.78574,-0.698472 -0.2522,-0.213375 -0.75399,-0.412962 -0.75665,-0.640237 0.17356,-0.471291 0.77057,-0.435886 0.75665,-0.78578 -0.26648,-0.235615 -0.7266,-0.429452 -0.79543,-0.70818 0.23693,-0.394766 0.88231,-0.338141 0.82457,-0.756637 -0.25254,-0.220017 -0.80489,-0.585449 -0.72775,-0.823619 0.0133,-0.342862 0.67625,-0.697337 0.72696,-0.97817 -0.0205,-0.345365 0.0176,0.02563 -0.023,-0.26456 0.0933,-0.115889 -0.15609,-0.462631 -0.25721,-0.717854 -0.18118,-0.281413 -0.43039,-0.427625 -0.45642,-0.708934 0.1908,-0.220018 0.60108,-0.485071 0.5434,-0.804349 -0.12711,-0.269461 -0.60874,-0.417006 -0.61116,-0.611136 0.086,-0.466243 0.48495,-0.492693 0.53354,-0.756646 -0.17456,-0.235944 -0.58555,-0.472123 -0.52382,-0.708171 0.0753,-0.43555 0.42035,-0.271783 0.63054,-0.407437 0.17687,-0.09693 0.1772,-0.269799 0.15531,-0.407445 -0.15531,-0.190821 -0.40921,-0.32754 -0.46566,-0.572344 l 0.0484,-3.09456 1.23199,-6.305534 c 0.0541,-0.117145 0.11051,-0.232289 0.29102,-0.222997 0.21141,0.05603 0.36329,0.141699 0.36868,0.30065 v 80.206359 h -1.9402 v -3.987032 c 0.10984,-0.08865 0.21736,-0.178204 0.21337,-0.329862 -0.23528,-0.154646 -0.22764,-0.277092 -0.28142,-0.40741 0.0913,-0.09162 0.26882,-0.128093 0.23297,-0.300649 -0.23263,-0.167248 -0.2542,-0.297341 -0.27178,-0.426862 0.18286,-0.160276 0.2595,-0.272449 0.30065,-0.368609 -0.13705,-0.126102 -0.31857,-0.252202 -0.27178,-0.378337 0.0919,-0.126117 0.27477,-0.240595 0.27178,-0.37831 -0.0902,-0.13806 -0.28075,-0.292698 -0.23296,-0.407453 0.0823,-0.122454 0.25387,-0.23494 0.23296,-0.368652 -0.10053,-0.132744 -0.32785,-0.303309 -0.30065,-0.397719 0.0876,-0.10425 0.24723,-0.124776 0.27178,-0.310288 0.0133,-0.135723 -0.36911,-0.289035 -0.2814,-0.436545 0.0972,-0.129427 0.41614,-0.258507 0.29103,-0.388027 -0.0867,-0.123122 -0.29435,-0.25719 -0.25222,-0.368653 0.10319,-0.126101 0.36222,-0.25221 0.30067,-0.37831 -0.094,-0.122792 -0.38578,-0.21936 -0.28141,-0.368645 0.0873,-0.113161 0.36619,-0.214709 0.2522,-0.339519 -0.10053,-0.132734 -0.36553,-0.303315 -0.30065,-0.397727 0.0969,-0.11647 0.36576,-0.215695 0.29103,-0.349227 l -0.18451,-0.358935 0.02,-0.533545 c -0.1845,-1.175938 -0.6561,-1.995782 -1.75584,-2.037197 -2.04751,-0.04712 -2.01818,1.2014 -2.3185,2.143879 v 0.611172 l -0.0776,0.31028 c 0.18218,-0.02322 0.2293,0.119795 0.30065,0.232956 -0.0166,0.188164 -0.20906,0.259502 -0.32986,0.378344 0.0869,0.12145 0.11183,0.235616 0.29103,0.368619 0.0772,0.132735 -0.16095,0.265149 -0.24259,0.397745 -0.006,0.134735 0.19281,0.290377 0.30066,0.436518 -0.12378,0.09459 -0.29999,0.1437 -0.32986,0.32024 -0.0166,0.178524 0.17223,0.266145 0.26184,0.397719 -0.0852,0.116148 -0.23761,0.126438 -0.2426,0.368653 -0.01,0.193134 0.17756,0.254522 0.27179,0.378344 -0.15365,0.115811 -0.27842,0.236941 -0.29103,0.37831 0.0541,0.11647 0.0332,0.232948 0.25222,0.349227 -0.0298,0.279093 -0.15996,0.257518 -0.26185,0.320239 -8.7e-4,0.1792 0.10852,0.311934 0.26185,0.426827 0.0976,0.194132 -0.16128,0.245897 -0.24259,0.368619 -0.0504,0.170236 0.17555,0.279413 0.27178,0.417162 -0.006,0.182516 -0.16759,0.212388 -0.24258,0.358936 -0.0577,0.12345 0.13108,0.27742 0.20376,0.417136 0.0574,0.175865 -0.14669,0.220996 -0.22302,0.329853 v 0.533545 h -2.03716 v -1.280508 h 0.80514 v -6.936076 l 0.17457,-1.164125 0.74695,-1.542443 v -0.281405 l -0.7315,-1.267032 -0.2094,-1.13877 v -6.955502 l -0.82456,-0.01992 z"
     id="profile_right"
     sodipodi:nodetypes="cccccscccccccccccccccccccccccccccccccccccccccccccccccccccccccccccccccccccccccccccccccccccccccccccccccccccccccccccccccccccccccccccccccccccccccccccccccccccccccccccccccc"
     inkscape:label="profile_right_corner" />
  <path
     style="fill:#e1ecec;fill-opacity:0.77;fill-rule:evenodd;stroke:#b81e1e;stroke-width:0.0108229"
     d="m 148.17079,0.01414621 h 20.93762 V 135.77237 H 145.92648 V 81.245718 h 2.23321 z"
     id="concrete_right"
     inkscape:label="concrete_right"
     sodipodi:nodetypes="ccccccc" />
  <rect
     style="fill:#404242;fill-opacity:0.341246;fill-rule:evenodd;stroke:#b81e1e;stroke-width:0.0195261"
     id="shadow"
     width="129.06805"
     height="0.012965514"
     x="40.465973"
     y="135.82248"
     inkscape:label="shadow" />
  <path
     style="fill:#4a8db7;fill-opacity:0.768047;fill-rule:evenodd;stroke:#b81e1e;stroke-width:0.0331886"
     d="m 105.93557,66.860489 v 12.91154 l -0.16596,0.28775 H 61.048996 v 1.76303 h 49.633564 l 1.91941,-1.53599 0.49681,-1.76556 v -6.790331 h 0.7642 v -1.27692 h -2.04591 v 0.44145 c 0.0478,0.0698 0.1416,0.14615 0.10913,0.20428 -0.0841,0.0932 -0.26729,0.18674 -0.2517,0.27995 0.013,0.13932 0.30301,0.29229 0.23253,0.417711 -0.0293,0.195509 -0.16465,0.208839 -0.24682,0.313409 0.0163,0.144191 0.20591,0.14354 0.27053,0.36549 -0.006,0.14257 -0.26728,0.24585 -0.25169,0.39875 0.002,0.230911 0.16757,0.26273 0.25169,0.394011 -0.0442,0.179909 -0.29229,0.240319 -0.27053,0.346519 0.0324,0.16596 0.16401,0.231561 0.25169,0.34176 -0.0227,0.13607 -0.24422,0.24195 -0.26598,0.37974 0.10457,0.24228 0.18999,0.23416 0.28482,0.3513 0.006,0.18318 -0.16108,0.26274 -0.24195,0.39398 -0.0195,0.203311 0.2137,0.27476 0.2137,0.42724 -0.0776,0.12016 -0.29846,0.11496 -0.23254,0.36074 0.0792,0.10913 0.26663,0.23806 0.23741,0.32754 -0.006,0.1601 -0.22929,0.21986 -0.24682,0.34178 0.026,0.19129 0.20428,0.286771 0.23805,0.412091 -0.0776,0.1127 -0.19031,0.27346 -0.23318,0.33793 0.026,0.1364 0.14387,0.25039 0.2374,0.37026 0.0194,0.10945 -0.0471,0.16628 -0.114,0.22312 v 0.71205 c -0.10911,1.46711 -0.97771,1.86209 -1.95097,2.00794 -1.24035,-0.0497 -1.92109,-0.79857 -2.09338,-2.06964 v -0.63135 l -0.0903,-0.2137 c 0.0227,-0.14647 0.23155,-0.22181 0.21823,-0.37497 -0.076,-0.11692 -0.22083,-0.15654 -0.22798,-0.3513 -0.0195,-0.19649 0.27281,-0.20364 0.2137,-0.384501 -0.0643,-0.11692 -0.20883,-0.234159 -0.18999,-0.35127 -0.0163,-0.13543 0.19063,-0.25884 0.1994,-0.36075 -0.0763,-0.13283 -0.24617,-0.26566 -0.22799,-0.398749 0.002,-0.182521 0.1611,-0.243901 0.24196,-0.36549 -0.0806,-0.13315 -0.2897,-0.306901 -0.2374,-0.39875 0.026,-0.11334 0.29651,-0.201031 0.23253,-0.36553 -0.0741,-0.12211 -0.23449,-0.25981 -0.21825,-0.36549 0.002,-0.105871 0.20623,-0.202 0.20428,-0.317951 -0.0695,-0.125029 -0.22473,-0.25819 -0.20428,-0.375009 0.0695,-0.1312 0.24813,-0.28449 0.20883,-0.39401 -0.0727,-0.140941 -0.25137,-0.27117 -0.21824,-0.42245 0.0711,-0.11562 0.30105,-0.16498 0.21369,-0.346521 -0.0711,-0.11855 -0.22669,-0.2478 -0.21369,-0.35601 0.0793,-0.1075 0.25039,-0.215319 0.2374,-0.32282 -0.0809,-0.134459 -0.30204,-0.268909 -0.24195,-0.403489 0.0429,-0.110751 0.14355,-0.23124 0.12828,-0.33227 v -3.84499 z"
     id="profile_left"
     sodipodi:nodetypes="ccccccccccccccccccccccccccccccccccccccccccccccccccccccccccc" />
  <rect
     style="fill:#b8b8b8;fill-opacity:1;fill-rule:evenodd;stroke:#b81e1e;stroke-width:0.0427051"
     id="concrete_left"
     width="70.122719"
     height="54.082649"
     x="40.702015"
     y="81.791908" />
  <rect
     style="fill:#a39a9a;fill-rule:evenodd;stroke:#b81e1e;stroke-width:0.0249138"
     id="finish_left"
     width="65.18679"
     height="14.272009"
     x="40.616978"
     y="67.539833" />
  <rect
     style="fill:#a39a9a;fill-rule:evenodd;stroke:#b81e1e;stroke-width:0.0129142"
     id="cover_left"
     width="65.325188"
     height="0.76904744"
     x="40.529278"
     y="66.785759" />
  <ellipse
     style="opacity:0;fill:none;fill-opacity:0;fill-rule:evenodd;stroke-width:0.00368993;stroke-opacity:0"
     id="bolt_left"
     cx="-70.923615"
     cy="-80.135239"
     rx="0.094999999"
     ry="0.028942173"
     inkscape:label="bolt_left"
     transform="scale(-1)" />
</svg>
