<?xml version="1.0" encoding="UTF-8" standalone="no"?>
<!-- Created with Inkscape (http://www.inkscape.org/) -->

<svg
   width="210mm"
   height="297mm"
   viewBox="0 0 210 297"
   version="1.1"
   id="svg1"
   inkscape:version="1.4 (86a8ad7, 2024-10-11)"
   sodipodi:docname="DSHL-0-030.svg"
   xml:space="preserve"
   xmlns:inkscape="http://www.inkscape.org/namespaces/inkscape"
   xmlns:sodipodi="http://sodipodi.sourceforge.net/DTD/sodipodi-0.dtd"
   xmlns="http://www.w3.org/2000/svg"
   xmlns:svg="http://www.w3.org/2000/svg"><sodipodi:namedview
     id="namedview1"
     pagecolor="#ffffff"
     bordercolor="#000000"
     borderopacity="0.25"
     inkscape:showpageshadow="2"
     inkscape:pageopacity="0.0"
     inkscape:pagecheckerboard="0"
     inkscape:deskcolor="#d1d1d1"
     inkscape:document-units="mm"
     inkscape:zoom="1.05"
     inkscape:cx="271.42857"
     inkscape:cy="59.52381"
     inkscape:window-width="2560"
     inkscape:window-height="1377"
     inkscape:window-x="-8"
     inkscape:window-y="-8"
     inkscape:window-maximized="1"
     inkscape:current-layer="svg1" /><defs
     id="defs1"><inkscape:path-effect
       effect="fillet_chamfer"
       id="path-effect8"
       is_visible="true"
       lpeversion="1"
       nodesatellites_param="F,0,0,1,0,0,0,1 @ F,0,0,1,0,0,0,1 @ F,0,0,1,0,0,0,1 @ F,0,0,1,0,0,0,1 @ F,0,0,1,0,0,0,1 @ F,0,0,1,0,0,0,1 @ F,0,0,1,0,0,0,1 @ F,0,0,1,0,0,0,1 @ F,0,0,1,0,0,0,1 @ F,0,0,1,0,0,0,1 @ F,0,0,1,0,0,0,1 @ F,0,0,1,0,0,0,1 @ F,0,0,1,0,0,0,1 @ F,0,0,1,0,0,0,1 @ F,0,0,1,0,0,0,1 @ F,0,0,1,0,0,0,1 @ F,0,0,1,0,0,0,1 @ F,0,0,1,0,0,0,1 @ F,0,0,1,0,0,0,1 @ F,0,0,1,0,0,0,1 @ F,0,0,1,0,0,0,1 @ F,0,0,1,0,0,0,1 @ F,0,0,1,0,0,0,1 @ F,0,0,1,0,0,0,1 @ F,0,0,1,0,0,0,1 @ F,0,0,1,0,0,0,1 @ F,0,0,1,0,0,0,1 @ F,0,0,1,0,0,0,1 @ F,0,0,1,0,0.055330264,0,1 @ F,0,0,1,0,0,0,1 @ F,0,0,1,0,0,0,1 @ F,0,0,1,0,0,0,1 @ F,0,1,1,0,0.073794047,0,1 @ F,0,0,1,0,0,0,1 @ F,0,0,1,0,0,0,1 @ F,0,0,1,0,0,0,1 @ F,0,0,1,0,0,0,1 @ F,0,0,1,0,0,0,1 @ F,0,0,1,0,0,0,1 @ F,0,0,1,0,0,0,1 @ F,0,0,1,0,0,0,1 @ F,0,0,1,0,0,0,1 @ F,0,0,1,0,0,0,1 @ F,0,0,1,0,0,0,1 @ F,0,0,1,0,0,0,1 @ F,0,0,1,0,0,0,1 @ F,0,0,1,0,0,0,1 @ F,0,0,1,0,0,0,1 @ F,0,0,1,0,0,0,1 @ F,0,0,1,0,0,0,1 @ F,0,0,1,0,0,0,1 @ F,0,0,1,0,0,0,1 @ F,0,0,1,0,0,0,1 @ F,0,0,1,0,0,0,1 @ F,0,0,1,0,0,0,1 @ F,0,0,1,0,0,0,1 @ F,0,0,1,0,0,0,1 @ F,0,0,1,0,0,0,1 @ F,0,0,1,0,0,0,1 @ F,0,0,1,0,0,0,1 @ F,0,0,1,0,0,0,1 @ F,0,0,1,0,0,0,1 @ F,0,0,1,0,0,0,1 @ F,0,0,1,0,0,0,1 @ F,0,0,1,0,0,0,1 @ F,0,0,1,0,0,0,1 @ F,0,0,1,0,0,0,1 @ F,0,0,1,0,0,0,1 @ F,0,0,1,0,0,0,1 @ F,0,0,1,0,0,0,1 @ F,0,0,1,0,0,0,1 @ F,0,0,1,0,0,0,1 @ F,0,0,1,0,0,0,1 @ F,0,0,1,0,0,0,1 @ F,0,0,1,0,0,0,1 @ F,0,0,1,0,0,0,1 @ F,0,0,1,0,0,0,1 @ F,0,0,1,0,0,0,1 @ F,0,0,1,0,0,0,1 @ F,0,0,1,0,0,0,1 @ F,0,0,1,0,0,0,1 @ F,0,0,1,0,0,0,1 @ F,0,0,1,0,0,0,1 @ F,0,0,1,0,0,0,1 @ F,0,0,1,0,0,0,1 @ F,0,0,1,0,0,0,1 @ F,0,0,1,0,0,0,1 @ F,0,0,1,0,0,0,1 @ F,0,0,1,0,0,0,1 @ F,0,0,1,0,0,0,1 @ F,0,0,1,0,0,0,1 @ F,0,0,1,0,0,0,1 @ F,0,0,1,0,0,0,1 @ F,0,0,1,0,0,0,1 @ F,0,0,1,0,0,0,1 @ F,0,0,1,0,0,0,1 @ F,0,0,1,0,0,0,1 @ F,0,0,1,0,0,0,1 @ F,0,0,1,0,0,0,1 @ F,0,0,1,0,0,0,1 @ F,0,0,1,0,0,0,1 @ F,0,0,1,0,0,0,1 @ F,0,0,1,0,0,0,1 @ F,0,0,1,0,0,0,1 @ F,0,0,1,0,0,0,1 @ F,0,0,1,0,0,0,1 @ F,0,0,1,0,0,0,1 @ F,0,0,1,0,0,0,1 @ F,0,0,1,0,0,0,1 @ F,0,0,1,0,0,0,1 @ F,0,0,1,0,0,0,1 @ F,0,0,1,0,0,0,1 @ F,0,0,1,0,0,0,1 @ F,0,0,1,0,0,0,1 @ F,0,0,1,0,0,0,1 @ F,0,0,1,0,0,0,1 @ F,0,0,1,0,0,0,1"
       radius="0"
       unit="px"
       method="auto"
       mode="F"
       chamfer_steps="1"
       flexible="false"
       use_knot_distance="true"
       apply_no_radius="true"
       apply_with_radius="true"
       only_selected="true"
       hide_knots="false" /></defs><path
     style="fill:#070707;fill-opacity:0.768047;fill-rule:evenodd;stroke:#b81e1e;stroke-width:0.02997"
     d="M 92.018288,0.74082178 V 2.1745088 c 0,0 -0.009,0.02434 0.0273,0.06364 0.0364,0.03941 0.85777,0.527395 0.85777,0.527395 l 0.009,2.95224 -0.10909,0.03337 -0.51528,-0.412222 c -0.20027,-0.02669 -0.37066,0.0065 -0.491032,0.139421 -0.166138,0.185729 -0.138483,0.352114 -0.0788,0.515275 l 0.13033,0.206111 1.057802,0.894155 v 1.873183 l -0.0205,0.01818 h -0.0698 l -0.5304,-0.375851 c -0.18115,-0.03117 -0.34264,-0.0073 -0.466772,0.121239 -0.189952,0.172942 -0.189013,0.368771 -0.09396,0.5759 l 1.182122,1.0548062 v 1.876218 l -0.0302,0.02112 h -0.0607 l -0.39099,-0.330384 c -0.14962,-0.06798 -0.40898,-0.159071 -0.612292,0.06059 -0.193794,0.157986 -0.142823,0.347911 -0.0788,0.539535 l 0.09396,0.160654 1.776192,1.506423 1.100269,0.0062 1.78831,-1.521586 c 0.14957,-0.215202 0.222,-0.430408 0.0425,-0.64561 -0.23022,-0.25802 -0.44102,-0.196433 -0.64863,-0.08185 l -0.37585,0.309169 -0.0727,0.0032 -0.0264,-0.02727 -0.003,-1.879251 1.16696,-1.0366202 c 0.10997,-0.184908 0.12962,-0.369786 -0.0455,-0.554679 -0.19913,-0.160654 -0.39806,-0.228693 -0.5971,-0.08185 l -0.4183,0.312193 h -0.1 v -1.915619 l 1.06997,-0.900214 c 0.1003,-0.191066 0.23755,-0.36412 0.0516,-0.675929 -0.18858,-0.115285 -0.36143,-0.28503 -0.64866,-0.06059 l -0.36674,0.300076 -0.11525,-0.03033 v -1.542809 h 3.6009 l 1.770133,1.730726 c 0.12405,0.141034 0.28212,0.180245 0.45161,0.184878 0.15543,-0.02317 0.30591,-0.04986 0.42738,-0.184878 l 1.77013,-1.733753 h 3.44931 l 1.76408,1.727694 c 0.13168,0.116927 0.27949,0.179247 0.44557,0.181858 0.17978,-0.0024 0.33357,-0.0488 0.43343,-0.187929 l 1.72467,-1.71254 h 3.6434 v 1.542801 l -0.11203,0.0364 -0.51833,-0.418282 c -0.22318,-0.01789 -0.39055,0.03006 -0.488,0.160654 -0.11291,0.09995 -0.1833,0.234119 -0.0698,0.515278 l 0.13637,0.200041 1.04267,0.872939 v 1.876216 l -0.0264,0.03337 -0.0698,-0.01202 -0.51225,-0.375854 c -0.2094,-0.06431 -0.36167,0.03279 -0.50314,0.160654 -0.16394,0.150273 -0.13403,0.344629 -0.0484,0.551647 l 1.17001,1.0517712 0.003,1.867123 -0.0264,0.02728 -0.0727,-0.01202 -0.4092,-0.32735 c -0.21262,-0.100533 -0.41944,-0.128189 -0.60924,0.06666 -0.14429,0.165258 -0.14458,0.352131 -0.0607,0.551643 l 0.11819,0.148513 1.76711,1.509459 h 1.08205 l 1.78227,-1.515518 c 0.12141,-0.200686 0.28535,-0.392089 0.0545,-0.669861 -0.21614,-0.231949 -0.43243,-0.166872 -0.64863,-0.08487 l -0.37891,0.318261 -0.0757,0.0062 -0.0455,-0.03942 -0.0264,-0.08789 v -1.773162 l 1.2215,-1.0396442 c 0.0871,-0.180861 0.10265,-0.361707 -0.0607,-0.542558 -0.16569,-0.17259 -0.33139,-0.250513 -0.49709,-0.160654 l -0.46073,0.345538 -0.0607,0.02727 -0.0666,0.0032 -0.0818,-0.08789 v -1.809531 l 1.13666,-0.918403 c 0.18388,-0.224998 0.16013,-0.457709 0.0364,-0.694118 -0.20735,-0.167311 -0.42073,-0.181417 -0.63957,-0.05153 l -0.36372,0.321288 -0.13343,-0.04244 -0.0364,-0.07581 v -2.858278 l 0.93964,-0.557712 -0.003,-1.47005502 h -7.11993 l -1.84588,2.40664702 c -0.0466,0.04593 -0.10587,0.08613 -0.22435,0.100035 -0.093,-0.0062 -0.16364,-0.04569 -0.22435,-0.100035 L 106.9503,0.74450378 h -3.61906 l -1.88227,2.40967302 c -0.0622,0.04091 -0.10176,0.09141 -0.23931,0.100035 -0.1088,-0.0024 -0.17215,-0.05012 -0.22435,-0.109127 L 99.096957,0.73843278 Z"
     id="compensator"
     sodipodi:nodetypes="ccsccccccccccccccccccccccccccccccccccccccccccccccccccccccccccccccccccccccccccccccccccccccccccccccccccccccccccccccccc"
     inkscape:label="compensator" /><path
     style="fill:#b4cdd0;fill-opacity:0.77;fill-rule:evenodd;stroke:#b81e1e;stroke-width:0.0379312"
     d="m 98.771695,4.5586943 h -2.477458 v 0.35187 c 0.10509,0.10728 0.21847,0.20972 0.23456,0.36637 -0.22517,0.0712 -0.28191,0.18224 -0.33719,0.29323 0.0723,0.17594 0.1318,0.35187 0.32252,0.52773 -0.10727,0.14846 -0.26795,0.20118 -0.30785,0.39582 0.0614,0.17484 0.12259,0.35003 0.26387,0.42512 -0.13667,0.16926 -0.2851,0.33925 -0.2932,0.49842 0.0747,0.13547 0.18511,0.2394 0.35185,0.29322 l -0.33719,0.51308 0.35184,0.45447 c -0.20909,0.0754 -0.34906,0.19894 -0.42513,0.36635 0.11601,0.18522 0.23011,0.37355 0.39581,0.4691 -0.1825,0.0894 -0.3404,0.19969 -0.38115,0.41047 0.1068,0.1622097 0.19651,0.3503997 0.38115,0.3957897 -0.14806,0.14328 -0.29326,0.28655 -0.38115,0.43981 0.10601,0.16963 0.23314,0.29991 0.41047,0.33704 -0.16213,0.10651 -0.33799,0.19969 -0.35184,0.45442 0.0554,0.30029 0.17891,0.38468 0.29319,0.49841 -0.12379,0.0924 -0.23492,0.20267 -0.30785,0.36636 0.0305,0.13844 0.0185,0.26575 0.27367,0.46286 l -0.16068,0.4457 -0.005,1.3113 c -0.46287,0.8834 -1.18634,1.36682 -2.088721,1.5756 -1.008766,-0.0408 -1.720586,-0.66812 -2.301206,-1.55485 l -0.16069,-1.60156 -0.10367,-0.26948 c 0.17234,-0.12175 0.3175,-0.25239 0.36798,-0.41459 -0.14067,-0.11396 -0.26722,-0.23978 -0.33688,-0.41465 0.16882,-0.16591 0.37819,-0.1351 0.30582,-0.33702 0.006,-0.25277 -0.18634,-0.28692 -0.27988,-0.4302 0.0454,-0.17112 0.27363,-0.20675 0.28507,-0.39389 -0.0322,-0.25871 -0.2001,-0.30475 -0.30062,-0.45611 0.0978,-0.25203 0.37118,-0.3678297 0.33172,-0.4871997 -2.2e-4,-0.1867 -0.2018,-0.30586 -0.31097,-0.45609 0.10368,-0.1173 0.33113,-0.13364 0.31097,-0.35226 -0.11402,-0.2821 -0.22804,-0.3322 -0.34206,-0.48721 0.0619,-0.21973 0.28665,-0.22419 0.3006,-0.35261 0.0341,-0.0854 -0.36063,-0.45139 -0.32132,-0.44572 0.0416,0.007 0.40788,-0.32626 0.33171,-0.38354 0.0305,-0.24942 -0.22091,-0.2973 -0.33171,-0.44574 0.10712,-0.14512 0.3194,-0.23754 0.32132,-0.43534 -0.005,-0.40488 -0.30711,-0.21121 -0.3006,-0.47686 0.10021,-0.11396 0.32566,-0.19041 0.3006,-0.34222 -0.009,-0.15962 -0.24427,-0.1726 -0.25915,-0.45607 V 0.47044434 l -2.67438,-0.0223 c -0.15887,-0.22346 -0.31202,-0.46628 -0.57013,-0.35226 -0.28918,-0.004 -0.35692,0.64993 -0.64268,0.79814 -0.25719,-0.0111 -0.47541,-0.71244 -0.94328,-0.84999 -0.274563,0.0876 -0.290151,0.74996 -0.663425,0.84999 -0.485552,-0.10541 -0.523684,-0.76937 -0.901826,-0.87071 -0.355695,0.1971 -0.392154,0.62251 -0.704871,0.79818 -0.439942,-0.0185 -0.221816,-0.37529 -0.829276,-0.74635 -0.436243,0.13139 -0.30507,0.63579 -0.777432,0.80853 -0.364829,-0.0805 -0.451131,-0.85274 -0.912188,-0.85001 -0.210754,0.0519 -0.196207,0.48121 -0.632319,0.79818 -0.361344,-0.0743 -0.401785,-0.67334 -0.870732,-0.71524 -0.373136,0.0657 -0.457008,0.5476 -0.756707,0.76707 -0.465128,-0.24943 -0.459195,-0.70698 -0.798172,-0.79814 -0.357142,0.055 -0.192266,0.36263 -0.870732,0.76703 -0.320399,-0.59496 -0.49298,-0.85687 -0.808533,-0.76703 -0.347049,0.0149 -0.182879,0.64588 -0.694511,0.78779 -0.568326,-0.1637 -0.210193,-0.64245 -0.912196,-0.80853 -0.272294,0.10614 -0.412643,0.52554 -0.704872,0.76705 -0.455237,-0.25574 -0.379654,-0.73191 -0.850007,-0.76705 -0.512192,0.13212 -0.131539,0.64898 -0.756707,0.78777 -0.324031,0.004 -0.254584,-0.85353001524 -0.92255,-0.77742 -0.255227,0.13621 -0.323779,0.70184 -0.725605,0.76706 -0.494337,-0.22085 -0.427361,-0.79966 -0.767077,-0.77741 -0.357776,0.0854 -0.370959,0.65864 -0.735975,0.80853 -0.537646,-0.15183 -0.242677,-0.62359 -0.901826,-0.75672 -0.287963,0.0657 -0.424149,0.67539 -0.684147,0.73596 -0.48538,-0.11878 -0.269888,-0.68223 -0.964024,-0.76703 -0.197808,0.026 -0.274229,0.73425 -0.642674,0.78779 -0.406595,-0.19191 -0.597593,-0.88582 -0.870741,-0.80853 -0.02113,-0.31254 -0.822405,1.07268996 -0.860368,0.81888 -0.0256,-0.17037 -0.714667,-0.95734 -0.735969,-0.81888 -0.423282,0.0431 -0.384253,0.69212 -0.777436,0.81888 -0.446631,-0.15478 -0.318805,-0.72487 -0.839633,-0.79814 -0.386019,0.12174 -0.32708,0.63032 -0.735976,0.78779 -0.447487,-0.13882 -0.127723,-0.63862 -0.860363,-0.82929 -0.489558,0.0569 -0.231539,0.6287 -0.684141,0.81892 -0.382201,-0.026 -0.401642,-0.74802 -0.943297,-0.77742 -0.3289,0.0672 -0.372617,0.62962 -0.725606,0.72557 -0.464139,-0.0846 -0.420283,-0.57481 -0.777437,-0.71522 -0.526533,0.003 -0.426652,0.63679 -0.725614,0.79814 -0.52255,-0.10652 -0.489816,-0.69232 -0.860361,-0.84999 -0.494218,0.069 -0.422458,0.74428 -0.860366,0.82929 -0.443946,-0.1726 -0.480588,-0.70766 -0.849991,-0.8189 -0.312976,0.10207 -0.237182,0.69458 -0.642688,0.8189 -0.657396,-0.0754 -0.35852,-0.66846 -0.943291,-0.77744 -0.325262,0.0538 -0.324705,0.66459 -0.673778,0.76707 -0.441059,-0.10912 -0.168588,-0.6955 -0.932919,-0.77742 -0.504337,0.34593 -0.949307,0.89981 -1.513421,1.03656996 -0.767151,-0.28914996 -1.033661,-0.83123996 -1.668897,-1.05730996 -0.291336,0.0594 -0.315016,0.71394 -0.642684,0.78777 -0.577979,-0.10318 -0.39243,-0.73436 -0.984755,-0.77742 -0.338215,0.0758 -0.346457,0.76298 -0.684142,0.77742 -0.526158,-0.12472 -0.201771,-0.57336 -0.839631,-0.77742 -0.352728,0.13548 -0.355291,0.74275 -0.735974,0.80853 -0.24531,-0.1392 -0.49065,-0.36969 -0.735976,-0.41461 h -3.700602 l -7.701821,1.67924996 -0.03117,0.55977 H 90.27265 l 0.0414,11.1950897 c 0.29872,2.61354 1.7129,3.73984 4.001216,3.7006 1.951761,-0.36227 3.575999,-1.43186 3.596949,-3.7006 V 6.0458543 h 0.88109 z"
     id="profile_left"
     sodipodi:nodetypes="cccccccccccccccccccccccccccccccccccccccscccccccccccccccccccccccccccccccccccccsccccccccccccccccccccccccccccccccccc"
     inkscape:label="profile_left" /><path
     style="fill:#b4cdd0;fill-opacity:0.768047;fill-rule:evenodd;stroke:#b81e1e;stroke-width:0.037931"
     d="m 111.25472,4.6847664 h 2.47743 v 0.35187 c -0.10504,0.10727 -0.21861,0.20972 -0.23457,0.36635 0.22531,0.0713 0.28209,0.18225 0.33702,0.29323 -0.0724,0.17594 -0.13176,0.35187 -0.32255,0.52774 0.10727,0.14847 0.26799,0.20117 0.30771,0.39582 -0.0612,0.17482 -0.12249,0.35001 -0.26391,0.4251 0.13659,0.16926 0.28506,0.33925 0.29322,0.49841 -0.0746,0.13548 -0.1852,0.23941 -0.35187,0.29323 l 0.33703,0.51308 -0.35187,0.45446 c 0.20897,0.0754 0.3489,0.19895 0.4251,0.36635 -0.1158,0.18522 -0.23013,0.37355 -0.39581,0.46909 0.18261,0.0894 0.34036,0.19969 0.38115,0.4104796 -0.10689,0.1622 -0.19634,0.35039 -0.38115,0.39578 0.1481,0.14328 0.29322,0.28655 0.38115,0.43981 -0.10616,0.16962 -0.2331,0.29991 -0.41044,0.33702 0.1622,0.10653 0.33813,0.1997 0.35187,0.45443 -0.0553,0.30028 -0.17891,0.38469 -0.29322,0.49842 0.12396,0.0924 0.23494,0.20266 0.30769,0.36634 -0.0297,0.13845 -0.0186,0.26577 -0.27355,0.46286 l 0.16072,0.4457 0.004,1.31129 c 0.46285,0.88339 1.1863,1.36681 2.08866,1.5756 1.00878,-0.0408 1.72058,-0.66812 2.3012,-1.55485 l 0.16072,-1.60155 0.10356,-0.26947 c -0.17222,-0.12174 -0.31735,-0.2524 -0.36783,-0.4146 0.14067,-0.11395 0.26724,-0.23978 0.33702,-0.41464 -0.16888,-0.16591 -0.37819,-0.13511 -0.30584,-0.33702 -0.007,-0.25277 0.18632,-0.28692 0.27986,-0.43019 -0.0453,-0.17112 -0.27355,-0.20675 -0.28506,-0.39389 0.0334,-0.25871 0.20006,-0.30474 0.30065,-0.4561 -0.0976,-0.25203 -0.37117,-0.36784 -0.33183,-0.4872096 2.2e-4,-0.1867 0.20192,-0.30584 0.31104,-0.4561 -0.10355,-0.11729 -0.33108,-0.13362 -0.31104,-0.35224 0.11395,-0.28209 0.2279,-0.3322 0.34222,-0.4872 -0.062,-0.21974 -0.28654,-0.22419 -0.30065,-0.35262 -0.0334,-0.0854 0.36078,-0.45138 0.32144,-0.4457 -0.0416,0.007 -0.40785,-0.32627 -0.33183,-0.38354 -0.0297,-0.24943 0.22085,-0.29731 0.33183,-0.44574 -0.10727,-0.14513 -0.31958,-0.23755 -0.32144,-0.43535 0.004,-0.40488 0.30696,-0.2112 0.30065,-0.47685 -0.10021,-0.11395 -0.32552,-0.19041 -0.30065,-0.34222 0.007,-0.15961 0.24423,-0.1726 0.25908,-0.45606 V 0.59653639 l 2.67438,-0.0223 c 0.15887,-0.22345 0.31216,-0.46627 0.57013,-0.35225 0.28914,-0.004 0.35707,0.64993 0.64265,0.79814001 0.25722,-0.0111 0.4754,-0.71243001 0.9433,-0.84999001 0.27467,0.0876 0.29026,0.74996 0.6634,0.84999001 0.48557,-0.10542001 0.52369,-0.76937001 0.90184,-0.87070001 0.35559,0.19709 0.39215,0.62249 0.70486,0.79817 0.43992,-0.0186 0.22196,-0.37529 0.82924,-0.74636 0.43624,0.1314 0.30511,0.63579 0.77746,0.80853001 0.36487,-0.0805 0.45113,-0.85273001 0.91216,-0.84999001 0.21083,0.052 0.19636,0.48119 0.63234,0.79818 0.36152,-0.0742 0.40176,-0.67335 0.8707,-0.71526 0.37314,0.0657 0.45702,0.5476 0.75671,0.76707001 0.46512,-0.24943001 0.45918,-0.70697001 0.79817,-0.79813001 0.35707,0.0549 0.19227,0.36263 0.87074,0.76703 0.32032,-0.59496 0.49296,-0.85686 0.80853,-0.76703 0.34705,0.0148 0.18299,0.64588 0.6945,0.78778 0.56831,-0.16369 0.21009,-0.64243 0.91216,-0.80853 0.27244,0.10615 0.41267,0.52554 0.7049,0.76707 0.45521,-0.25574 0.37964,-0.73192 0.84999,-0.76707 0.51218,0.13214 0.13139,0.649 0.75671,0.78778 0.32404,0.004 0.25463,-0.85352 0.92252,-0.77743 0.25536,0.13622 0.32366,0.70186 0.7256,0.76707 0.49433,-0.22085 0.42737,-0.79965 0.76707,-0.77742 0.35782,0.0854 0.37081,0.65865 0.73597,0.80853 0.53764,-0.15181 0.24275,-0.62358 0.90184,-0.75672 0.28803,0.0657 0.42414,0.67539 0.68415,0.73597 0.48538,-0.11878 0.26984,-0.68222 0.96401,-0.76703 0.19784,0.026 0.2743,0.73425 0.64265,0.78778 0.40662,-0.1919 0.59759,-0.88581 0.87074,-0.80853 0.0223,-0.31253 0.82241,1.07269001 0.86038,0.81888001 0.026,-0.17037001 0.71466,-0.95733001 0.73596,-0.81888001 0.42325,0.043 0.38424,0.69213 0.77743,0.81888001 0.44663,-0.15478001 0.31884,-0.72486001 0.83963,-0.79813001 0.38602,0.12174 0.32701,0.63032 0.73597,0.78778 0.44748,-0.13882 0.12768,-0.63861 0.86034,-0.82928 0.48958,0.0568 0.23161,0.62869 0.68415,0.81892 0.3822,-0.026 0.40165,-0.74803 0.9433,-0.77742 0.32886,0.0672 0.37258,0.62962 0.72557,0.72557 0.46415,-0.0846 0.42028,-0.5748 0.77746,-0.71522 0.52651,0.003 0.42663,0.63679 0.72561,0.79814001 0.52254,-0.10653001 0.4898,-0.69232001 0.86035,-0.84999001 0.49421,0.069 0.42243,0.74428 0.86034,0.82928 0.44396,-0.1726 0.4806,-0.70765 0.84999,-0.81889 0.3129,0.10208 0.23718,0.69458 0.64269,0.81889 0.65738,-0.0753 0.35855,-0.66845 0.9433,-0.77743 0.32515,0.0538 0.32478,0.66459 0.67375,0.76707 0.44107,-0.10912 0.16852,-0.6955 0.93291,-0.77742 0.50435,0.34593 0.94932,0.89980001 1.51343,1.03657001 0.76714,-0.28914001 1.03364,-0.83124001 1.66887,-1.05732001 0.29137,0.0594 0.31513,0.71395 0.64269,0.78778 0.57795,-0.10319 0.3924,-0.73437 0.98472,-0.77743 0.33814,0.0757 0.34631,0.76299 0.68415,0.77743 0.52618,-0.12472 0.20192,-0.57335 0.83964,-0.77743 0.35261,0.13548 0.35521,0.74276 0.73596,0.80853001 0.24535,-0.13919001 0.49065,-0.36969001 0.73596,-0.41460001 h 3.70057 l 7.70179,1.67924001 0.0297,0.55977 h -57.72693 l -0.0416,11.1950196 c -0.29879,2.61351 -1.71293,3.7398 -4.00122,3.70057 -1.95174,-0.36227 -3.57596,-1.43184 -3.5969,-3.70057 V 6.1719164 h -0.88109 z"
     id="profile_right"
     sodipodi:nodetypes="cccccccccccccccccccccccccccccccccccccccscccccccccccccccccccccccccccccccccccccsccccccccccccccccccccccccccccccccccc"
     inkscape:label="profile_right" /><rect
     style="fill:#ddd5d5;fill-opacity:0.768047;fill-rule:evenodd;stroke:#b81e1e;stroke-width:0.0130454"
     id="concrete_left"
     width="69.986954"
     height="49.986954"
     x="20.198578"
     y="5.0585151" /><ellipse
     style="fill:#b4cdd0;fill-opacity:0;fill-rule:evenodd;stroke:#b81e1e;stroke-width:0.00016359"
     id="screw_left"
     cx="-50.324783"
     cy="-0.032856375"
     rx="0.049918205"
     ry="0.032774579"
     transform="scale(-1)"
     inkscape:label="screw_left" /><ellipse
     style="fill:#b4cdd0;fill-opacity:0;fill-rule:evenodd;stroke:#b81e1e;stroke-width:0.000455593"
     id="screw_right"
     cx="-159.75797"
     cy="0.21749595"
     rx="0.1390205"
     ry="0.091276094"
     transform="scale(-1,1)"
     inkscape:label="screw_right" /><rect
     style="fill:#e1ecec;fill-opacity:0.77;fill-rule:evenodd;stroke:#b81e1e;stroke-width:0.00896595"
     id="finish_left"
     width="69.991035"
     height="2.0311"
     x="20.18663"
     y="2.9155977"
     inkscape:label="finish_left" /><rect
     style="fill:#e1ecec;fill-opacity:0.77;fill-rule:evenodd;stroke:#b81e1e;stroke-width:0.0102326"
     id="cover_left"
     width="69.989769"
     height="0.12597869"
     x="20.193264"
     y="2.7392213"
     inkscape:label="cover_left" /><rect
     style="fill:#ddd5d5;fill-opacity:0.768047;fill-rule:evenodd;stroke:#b81e1e;stroke-width:0.0130454"
     id="concrete_right"
     width="69.986954"
     height="49.986954"
     x="119.82438"
     y="5.1175098"
     inkscape:label="concrete_right" /><rect
     style="fill:#e1ecec;fill-opacity:0.77;fill-rule:evenodd;stroke:#b81e1e;stroke-width:0.00896595"
     id="finish_right"
     width="69.991035"
     height="2.0311"
     x="119.81232"
     y="3.0744801"
     inkscape:label="finish_right" /><rect
     style="fill:#e1ecec;fill-opacity:0.77;fill-rule:evenodd;stroke:#b81e1e;stroke-width:0.0102326"
     id="cover_right"
     width="69.989769"
     height="0.12597869"
     x="119.81898"
     y="2.898119"
     inkscape:label="cover_right" /><rect
     style="fill:#404242;fill-opacity:0.341246;fill-rule:evenodd;stroke:#b81e1e;stroke-width:0.0118156"
     id="shadow"
     width="29.635838"
     height="0.020676071"
     x="90.183937"
     y="55.076691"
     inkscape:label="shadow" /></svg>
