<?xml version="1.0" encoding="UTF-8" standalone="no"?>
<!-- Created with Inkscape (http://www.inkscape.org/) -->

<svg
   width="210mm"
   height="297mm"
   viewBox="0 0 210 297"
   version="1.1"
   id="svg1"
   inkscape:version="1.4 (86a8ad7, 2024-10-11)"
   sodipodi:docname="DSHL-15-020-corner.svg"
   xmlns:inkscape="http://www.inkscape.org/namespaces/inkscape"
   xmlns:sodipodi="http://sodipodi.sourceforge.net/DTD/sodipodi-0.dtd"
   xmlns="http://www.w3.org/2000/svg"
   xmlns:svg="http://www.w3.org/2000/svg">
  <sodipodi:namedview
     id="namedview1"
     pagecolor="#ffffff"
     bordercolor="#000000"
     borderopacity="0.25"
     inkscape:showpageshadow="2"
     inkscape:pageopacity="0.0"
     inkscape:pagecheckerboard="0"
     inkscape:deskcolor="#d1d1d1"
     inkscape:document-units="mm"
     inkscape:zoom="1.0467522"
     inkscape:cx="286.60077"
     inkscape:cy="357.7733"
     inkscape:window-width="2560"
     inkscape:window-height="1377"
     inkscape:window-x="-8"
     inkscape:window-y="-8"
     inkscape:window-maximized="1"
     inkscape:current-layer="svg1" />
  <defs
     id="defs1">
    <inkscape:path-effect
       effect="fillet_chamfer"
       id="path-effect1"
       is_visible="true"
       lpeversion="1"
       nodesatellites_param="F,0,0,1,0,0,0,1 @ F,0,0,1,0,0,0,1 @ F,0,0,1,0,0,0,1 @ F,0,0,1,0,0,0,1 @ F,0,0,1,0,0,0,1 @ F,0,0,1,0,0,0,1 @ F,0,0,1,0,0,0,1 @ F,0,0,1,0,0,0,1 @ F,0,0,1,0,0,0,1 @ F,0,0,1,0,0,0,1 @ F,0,0,1,0,0,0,1 @ F,0,0,1,0,0,0,1 @ F,0,0,1,0,0,0,1 @ F,0,0,1,0,0,0,1 @ F,0,0,1,0,0,0,1 @ F,0,0,1,0,0,0,1 @ F,0,0,1,0,0,0,1 @ F,0,0,1,0,0,0,1 @ F,0,0,1,0,0,0,1 @ F,0,0,1,0,0,0,1 @ F,0,0,1,0,0,0,1 @ F,0,0,1,0,0,0,1 @ F,0,0,1,0,0,0,1 @ F,0,0,1,0,0,0,1 @ F,0,0,1,0,0,0,1 @ F,0,0,1,0,0,0,1 @ F,0,0,1,0,0,0,1 @ F,0,0,1,0,0,0,1 @ F,0,0,1,0,0,0,1 @ F,0,0,1,0,0,0,1 @ F,0,0,1,0,0,0,1 @ F,0,0,1,0,0,0,1 @ F,0,0,1,0,0,0,1 @ F,0,0,1,0,0,0,1 @ F,0,0,1,0,0,0,1 @ F,0,0,1,0,0,0,1 @ F,0,0,1,0,0,0,1 @ F,0,0,1,0,0,0,1 @ F,0,0,1,0,0,0,1 @ F,0,0,1,0,0,0,1 @ F,0,0,1,0,0,0,1 @ F,0,0,1,0,0,0,1 @ F,0,0,1,0,0,0,1 @ F,0,0,1,0,0,0,1 @ F,0,0,1,0,0,0,1 @ F,0,0,1,0,0,0,1 @ F,0,0,1,0,0,0,1 @ F,0,0,1,0,0,0,1 @ F,0,0,1,0,0,0,1 @ F,0,0,1,0,0,0,1 @ F,0,0,1,0,0,0,1 @ F,0,0,1,0,0,0,1 @ F,0,0,1,0,0,0,1 @ F,0,0,1,0,0,0,1 @ F,0,0,1,0,0,0,1 @ F,0,0,1,0,0,0,1 @ F,0,0,1,0,0,0,1 @ F,0,0,1,0,0,0,1 @ F,0,0,1,0,0,0,1 @ F,0,0,1,0,0,0,1 @ F,0,0,1,0,0,0,1 @ F,0,0,1,0,0,0,1 @ F,0,0,1,0,0,0,1 @ F,0,0,1,0,0,0,1 @ F,0,0,1,0,0,0,1 @ F,0,0,1,0,0,0,1 @ F,0,0,1,0,0,0,1 @ F,0,0,1,0,0,0,1 @ F,0,0,1,0,0,0,1 @ F,0,0,1,0,0,0,1 @ F,0,0,1,0,0,0,1 @ F,0,0,1,0,0,0,1 @ F,0,0,1,0,0,0,1 @ F,0,0,1,0,0,0,1 @ F,0,0,1,0,0,0,1 @ F,0,0,1,0,0,0,1 @ F,0,0,1,0,0,0,1 @ F,0,0,1,0,0,0,1 @ F,0,0,1,0,0,0,1 @ F,0,0,1,0,0,0,1 @ F,0,0,1,0,0,0,1 @ F,0,0,1,0,0,0,1 @ F,0,0,1,0,0,0,1 @ F,0,0,1,0,0,0,1 @ F,0,0,1,0,0,0,1 @ F,0,0,1,0,0,0,1 @ F,0,0,1,0,0,0,1 @ F,0,0,1,0,0,0,1 @ F,0,0,1,0,0,0,1 @ F,0,0,1,0,0,0,1 @ F,0,0,1,0,0,0,1 @ F,0,0,1,0,0,0,1 @ F,0,0,1,0,0,0,1 @ F,0,0,1,0,0,0,1 @ F,0,0,1,0,0,0,1 @ F,0,0,1,0,0,0,1 @ F,0,0,1,0,0,0,1 @ F,0,0,1,0,0,0,1 @ F,0,0,1,0,0,0,1 @ F,0,0,1,0,0,0,1 @ F,0,0,1,0,0,0,1 @ F,0,0,1,0,0,0,1 @ F,0,0,1,0,0,0,1 @ F,0,0,1,0,0,0,1 @ F,0,0,1,0,0,0,1 @ F,0,0,1,0,0,0,1 @ F,0,0,1,0,0,0,1 @ F,0,0,1,0,0,0,1 @ F,0,0,1,0,0,0,1 @ F,0,0,1,0,0,0,1 @ F,0,0,1,0,0,0,1 @ F,0,0,1,0,0,0,1 @ F,0,0,1,0,0,0,1 @ F,0,0,1,0,0,0,1 @ F,0,0,1,0,0,0,1 @ F,0,0,1,0,0,0,1"
       radius="0"
       unit="px"
       method="auto"
       mode="F"
       chamfer_steps="1"
       flexible="false"
       use_knot_distance="true"
       apply_no_radius="true"
       apply_with_radius="true"
       only_selected="true"
       hide_knots="false" />
  </defs>
  <path
     style="fill:#070707;fill-opacity:0.768047;fill-rule:evenodd;stroke:#b81e1e;stroke-width:0.02997"
     d="m 112.96059,66.968742 v 1.433687 c 0,0 -0.009,0.02434 0.0273,0.06364 0.0364,0.03941 0.85777,0.527395 0.85777,0.527395 l 0.009,2.95224 -0.10909,0.03337 -0.51528,-0.412222 c -0.20027,-0.02669 -0.37066,0.0065 -0.49103,0.139421 -0.16614,0.185729 -0.13848,0.352114 -0.0788,0.515275 l 0.13033,0.206111 1.0578,0.894155 v 1.873183 l -0.0205,0.01818 h -0.0698 l -0.5304,-0.375851 c -0.18115,-0.03117 -0.34264,-0.0073 -0.46677,0.121239 -0.18995,0.172942 -0.18901,0.368771 -0.094,0.5759 l 1.18212,1.054806 v 1.876218 l -0.0302,0.02112 h -0.0607 l -0.39099,-0.330384 c -0.14962,-0.06798 -0.40898,-0.159071 -0.61229,0.06059 -0.19379,0.157986 -0.14282,0.347911 -0.0788,0.539535 l 0.094,0.160654 1.77619,1.506423 1.10027,0.0062 1.78831,-1.521586 c 0.14957,-0.215202 0.222,-0.430408 0.0425,-0.64561 -0.23022,-0.25802 -0.44102,-0.196433 -0.64863,-0.08185 l -0.37585,0.309169 -0.0727,0.0032 -0.0264,-0.02727 -0.003,-1.879251 1.16696,-1.03662 c 0.10997,-0.184908 0.12962,-0.369786 -0.0455,-0.554679 -0.19913,-0.160654 -0.39806,-0.228693 -0.5971,-0.08185 l -0.4183,0.312193 h -0.1 v -1.915619 l 1.06997,-0.900214 c 0.1003,-0.191066 0.23755,-0.36412 0.0516,-0.675929 -0.18858,-0.115285 -0.36143,-0.28503 -0.64866,-0.06059 l -0.36674,0.300076 -0.11525,-0.03033 v -1.542809 h 3.6009 l 1.77013,1.730726 c 0.12405,0.141034 0.28212,0.180245 0.45161,0.184878 0.15543,-0.02317 0.30591,-0.04986 0.42738,-0.184878 l 1.77013,-1.733753 h 3.44931 l 1.76408,1.727694 c 0.13168,0.116927 0.27949,0.179247 0.44557,0.181858 0.17978,-0.0024 0.33357,-0.0488 0.43343,-0.187929 l 1.72467,-1.71254 h 3.6434 v 1.542801 l -0.11203,0.0364 -0.51833,-0.418282 c -0.22318,-0.01789 -0.39055,0.03006 -0.488,0.160654 -0.11291,0.09995 -0.1833,0.234119 -0.0698,0.515278 l 0.13637,0.200041 1.04267,0.872939 v 1.876216 l -0.0264,0.03337 -0.0698,-0.01202 -0.51225,-0.375854 c -0.2094,-0.06431 -0.36167,0.03279 -0.50314,0.160654 -0.16394,0.150273 -0.13403,0.344629 -0.0484,0.551647 l 1.17001,1.051771 0.003,1.867123 -0.0264,0.02728 -0.0727,-0.01202 -0.4092,-0.32735 c -0.21262,-0.100533 -0.41944,-0.128189 -0.60924,0.06666 -0.14429,0.165258 -0.14458,0.352131 -0.0607,0.551643 l 0.11819,0.148513 1.76711,1.509459 h 1.08205 l 1.78227,-1.515518 c 0.12141,-0.200686 0.28535,-0.392089 0.0545,-0.669861 -0.21614,-0.231949 -0.43243,-0.166872 -0.64863,-0.08487 l -0.37891,0.318261 -0.0757,0.0062 -0.0455,-0.03942 -0.0264,-0.08789 v -1.773162 l 1.2215,-1.039644 c 0.0871,-0.180861 0.10265,-0.361707 -0.0607,-0.542558 -0.16569,-0.17259 -0.33139,-0.250513 -0.49709,-0.160654 l -0.46073,0.345538 -0.0607,0.02727 -0.0666,0.0032 -0.0818,-0.08789 v -1.809531 l 1.13666,-0.918403 c 0.18388,-0.224998 0.16013,-0.457709 0.0364,-0.694118 -0.20735,-0.167311 -0.42073,-0.181417 -0.63957,-0.05153 l -0.36372,0.321288 -0.13343,-0.04244 -0.0364,-0.07581 v -2.858278 l 0.93964,-0.557712 -0.003,-1.470055 h -7.11993 l -1.84588,2.406647 c -0.0466,0.04593 -0.10587,0.08613 -0.22435,0.100035 -0.093,-0.0062 -0.16364,-0.04569 -0.22435,-0.100035 l -1.90653,-2.409673 h -3.61906 l -1.88227,2.409673 c -0.0622,0.04091 -0.10176,0.09141 -0.23931,0.100035 -0.1088,-0.0024 -0.17215,-0.05012 -0.22435,-0.109127 l -1.88835,-2.406652 z"
     id="compensator"
     sodipodi:nodetypes="ccsccccccccccccccccccccccccccccccccccccccccccccccccccccccccccccccccccccccccccccccccccccccccccccccccccccccccccccccccc"
     inkscape:label="compensator" />
  <path
     style="fill:#b4cdd0;fill-opacity:0;fill-rule:evenodd;stroke:#b81e1e;stroke-width:0.000130592"
     id="screw_right"
     transform="scale(-1,1)"
     inkscape:label="screw_right"
     sodipodi:type="arc"
     sodipodi:cx="-139.64182"
     sodipodi:cy="30.672436"
     sodipodi:rx="0.039848957"
     sodipodi:ry="0.026163459"
     sodipodi:start="0"
     sodipodi:end="1.3916238"
     sodipodi:arc-type="slice"
     d="m -139.60197,30.672436 a 0.03984896,0.02616346 0 0 1 -0.0327,0.02574 l -0.007,-0.02574 z" />
  <rect
     style="fill:#e1ecec;fill-opacity:0.77;fill-rule:evenodd;stroke:#b81e1e;stroke-width:0.00966604"
     id="finish_right"
     width="81.225288"
     height="2.0341825"
     x="-81.230118"
     y="141.33832"
     inkscape:label="finish_right"
     transform="rotate(-90)" />
  <rect
     style="fill:#e1ecec;fill-opacity:0.77;fill-rule:evenodd;stroke:#b81e1e;stroke-width:0.011093"
     id="cover_right"
     width="81.196983"
     height="0.12761921"
     x="-81.210876"
     y="141.16275"
     inkscape:label="cover_right"
     transform="rotate(-90)" />
  <path
     style="fill:#4a8db7;fill-opacity:0.768047;fill-rule:evenodd;stroke:#b81e1e;stroke-width:0.0339124"
     d="m 132.95356,70.292091 h 2.11478 v 0.533545 l -0.0969,0.145345 c 0.11316,0.08522 0.23561,0.164276 0.24258,0.320239 -0.0571,-0.02979 -0.28473,0.386633 -0.19413,0.397753 0.0919,0.0095 0.30298,0.343996 0.20375,0.388027 -0.11116,0.09587 -0.17588,0.2698 -0.23295,0.455928 0.22531,0.07725 0.2522,0.208732 0.2814,0.339553 -0.14999,0.06201 -0.26049,0.156959 -0.30065,0.310279 0.17754,0.180863 0.2273,0.276755 0.30065,0.388028 -0.16692,0.101495 -0.22101,0.251542 -0.26182,0.407444 0.18483,0.160613 0.1865,0.260507 0.21337,0.368627 -0.18883,0.07933 -0.2449,0.206733 -0.23295,0.358918 0.17719,0.139049 0.26647,0.278097 0.24257,0.417137 -0.14368,0.07933 -0.28572,0.159288 -0.23261,0.31028 0.24888,0.295677 0.30728,0.270128 0.29102,0.407444 0.002,0.216033 -0.17786,0.249221 -0.29102,0.349236 0.002,0.184508 0.18218,0.29236 0.30064,0.426827 -0.0401,0.246233 -0.23296,0.135723 -0.32023,0.339553 0.0604,0.24988 0.18717,0.266474 0.28141,0.39771 -0.17987,0.113161 -0.2615,0.249222 -0.20376,0.417136 v 0.902206 c 0.28372,1.555483 1.50261,2.047283 2.24088,2.017749 1.18407,-0.282071 1.75827,-0.97419 1.88194,-1.969265 v -0.679064 c 0.12379,-0.108856 0.13806,-0.210386 0.12611,-0.310279 -0.0345,-0.217038 0.0969,-0.08098 -0.30065,-0.388036 0.26415,-0.11084 0.28672,-0.250538 0.32985,-0.388035 -0.0919,-0.212709 -0.222,-0.310939 -0.35891,-0.388019 0.048,-0.195136 0.3918,-0.180863 0.36861,-0.417136 -0.0518,-0.149329 -0.26051,-0.148342 -0.32024,-0.31028 0.0638,-0.229319 0.34443,-0.07604 0.32024,-0.397727 -0.071,-0.21703 -0.29004,-0.258844 -0.29103,-0.388036 0.0793,-0.296336 0.18118,-0.252201 0.27178,-0.378336 -0.0475,-0.241253 -0.31493,-0.195127 -0.30066,-0.407445 0.0455,-0.19115 0.28606,-0.228972 0.32023,-0.358935 -0.0604,-0.212041 -0.33486,-0.178853 -0.2814,-0.36861 0.0864,-0.13871 0.31726,-0.253197 0.2522,-0.417136 -0.0265,-0.139706 -0.24987,-0.13108 -0.27178,-0.300649 0.0359,-0.143024 0.36566,-0.265149 0.32986,-0.397727 -0.0796,-0.196789 -0.32587,-0.259502 -0.33954,-0.388062 0.0498,-0.201102 0.24126,-0.252209 0.34459,-0.37831 -0.11151,-0.155304 -0.36448,-0.29469 -0.33497,-0.465653 0.10351,-0.07431 0.30729,-0.126429 0.31028,-0.223006 0.0232,-0.23959 -0.14868,-0.284392 -0.22301,-0.426818 v -6.499532 c -0.18318,-0.112823 -0.36961,-0.22433 -0.32985,-0.417135 0.27476,-0.389924 0.69275,-0.240925 0.82457,-0.659645 -0.19148,-0.366766 -0.84843,-0.393147 -0.78574,-0.737281 0.0593,-0.621676 0.78324,-0.296994 0.69844,-0.708163 -0.15565,-0.36479 -0.76134,-0.41103 -0.73727,-0.756645 0.18351,-0.324553 0.71125,-0.29767 0.74696,-0.659654 -0.0989,-0.312601 -0.77189,-0.34579 -0.73725,-0.71789 0.19049,-0.376447 0.82774,-0.279083 0.70813,-0.746954 -0.0598,-0.365803 -0.9221,-0.329195 -0.70813,-0.795471 0.24558,-0.187505 0.73549,-0.269132 0.73725,-0.562628 -0.071,-0.489878 -0.89507,-0.478523 -0.72756,-0.814881 0.1135,-0.393838 0.72779,-0.28208 0.71787,-0.679062 -0.0647,-0.301662 -0.87731,-0.380242 -0.74696,-0.746972 0.225,-0.355142 0.72061,-0.312263 0.76638,-0.640228 -0.10162,-0.265149 -0.81692,-0.530323 -0.70818,-0.795472 0.084,-0.397259 0.78422,-0.287718 0.77607,-0.698454 -0.32257,-0.124108 -0.84804,-0.424627 -0.79548,-0.737263 0.13805,-0.42202 0.72028,-0.174219 0.75669,-0.649962 -0.16262,-0.441222 -0.90646,-0.397545 -0.77607,-0.746954 0.2396,-0.514206 0.74102,-0.313935 0.77607,-0.746963 -0.16128,-0.222997 -0.93911,-0.396464 -0.76638,-0.669372 0.18583,-0.585977 0.75781,-0.25453 0.75665,-0.727545 -0.22963,-0.25221 -0.85604,-0.336097 -0.68876,-0.756689 0.151,-0.425762 0.79505,-0.204749 0.72759,-0.649955 -0.1782,-0.382597 -0.9259,-0.40495 -0.79548,-0.737237 0.26183,-0.223005 0.7746,-0.396098 0.78579,-0.66937 -0.13208,-0.245905 -1.1263,-0.513141 -0.75669,-0.798989 0.17456,-0.477077 0.72254,-0.389725 0.71785,-0.656137 -0.1739,-0.348413 -0.98233,-0.428516 -0.76636,-0.756646 0.19313,-0.388469 0.7957,-0.297341 0.74696,-0.717863 -0.14836,-0.253206 -0.77385,-0.361915 -0.67904,-0.659645 0.11017,-0.40263 0.67299,-0.491143 0.66935,-0.756681 -0.22566,-0.247896 -0.87125,-0.415014 -0.65966,-0.746971 0.14203,-0.42765 0.71024,-0.332278 0.72758,-0.630545 -0.1928,-0.295998 -0.82757,-0.442582 -0.71789,-0.776055 0.22965,-0.232957 0.72639,-0.430014 0.68875,-0.698472 -0.23594,-0.235953 -0.81565,-0.377357 -0.70813,-0.70818 0.11781,-0.336123 0.80145,-0.20441 0.67904,-0.737227 -0.2522,-0.239271 -0.78044,-0.42145 -0.75665,-0.717863 0.19313,-0.335726 0.89413,-0.141699 0.78574,-0.698472 -0.2522,-0.213375 -0.75399,-0.412962 -0.75665,-0.640237 0.17356,-0.471291 0.77057,-0.435886 0.75665,-0.78578 -0.26648,-0.235615 -0.7266,-0.429452 -0.79543,-0.70818 0.23693,-0.394766 0.88231,-0.338141 0.82457,-0.756637 -0.25254,-0.220017 -0.80489,-0.585449 -0.72775,-0.823619 0.0133,-0.342862 0.67625,-0.697337 0.72696,-0.97817 -0.0205,-0.345365 0.0176,0.02563 -0.023,-0.26456 0.0933,-0.115889 -0.15609,-0.462631 -0.25721,-0.717854 -0.18118,-0.281413 -0.43039,-0.427625 -0.45642,-0.708934 0.1908,-0.220018 0.60108,-0.485071 0.5434,-0.804349 -0.12711,-0.269461 -0.60874,-0.417006 -0.61116,-0.611136 0.086,-0.466243 0.48495,-0.492693 0.53354,-0.756646 -0.17456,-0.235944 -0.58555,-0.472123 -0.52382,-0.708171 0.0753,-0.43555 0.42035,-0.271783 0.63054,-0.407437 0.17687,-0.09693 0.1772,-0.269799 0.15531,-0.407445 -0.15531,-0.190821 -0.40921,-0.32754 -0.46566,-0.572344 l 0.0484,-3.09456 1.23199,-6.305534 c 0.0541,-0.117145 0.11051,-0.232289 0.29102,-0.222997 0.21141,0.05603 0.36329,0.141699 0.36868,0.30065 v 80.206359 h -1.9402 v -3.987032 c 0.10984,-0.08865 0.21736,-0.178204 0.21337,-0.329862 -0.23528,-0.154646 -0.22764,-0.277092 -0.28142,-0.40741 0.0913,-0.09162 0.26882,-0.128093 0.23297,-0.300649 -0.23263,-0.167248 -0.2542,-0.297341 -0.27178,-0.426862 0.18286,-0.160276 0.2595,-0.272449 0.30065,-0.368609 -0.13705,-0.126102 -0.31857,-0.252202 -0.27178,-0.378337 0.0919,-0.126117 0.27477,-0.240595 0.27178,-0.37831 -0.0902,-0.13806 -0.28075,-0.292698 -0.23296,-0.407453 0.0823,-0.122454 0.25387,-0.23494 0.23296,-0.368652 -0.10053,-0.132744 -0.32785,-0.303309 -0.30065,-0.397719 0.0876,-0.10425 0.24723,-0.124776 0.27178,-0.310288 0.0133,-0.135723 -0.36911,-0.289035 -0.2814,-0.436545 0.0972,-0.129427 0.41614,-0.258507 0.29103,-0.388027 -0.0867,-0.123122 -0.29435,-0.25719 -0.25222,-0.368653 0.10319,-0.126101 0.36222,-0.25221 0.30067,-0.37831 -0.094,-0.122792 -0.38578,-0.21936 -0.28141,-0.368645 0.0873,-0.113161 0.36619,-0.214709 0.2522,-0.339519 -0.10053,-0.132734 -0.36553,-0.303315 -0.30065,-0.397727 0.0969,-0.11647 0.36576,-0.215695 0.29103,-0.349227 l -0.18451,-0.358935 0.02,-0.533545 c -0.1845,-1.175938 -0.6561,-1.995782 -1.75584,-2.037197 -2.04751,-0.04712 -2.01818,1.2014 -2.3185,2.143879 v 0.611172 l -0.0776,0.31028 c 0.18218,-0.02322 0.2293,0.119795 0.30065,0.232956 -0.0166,0.188164 -0.20906,0.259502 -0.32986,0.378344 0.0869,0.12145 0.11183,0.235616 0.29103,0.368619 0.0772,0.132735 -0.16095,0.265149 -0.24259,0.397745 -0.006,0.134735 0.19281,0.290377 0.30066,0.436518 -0.12378,0.09459 -0.29999,0.1437 -0.32986,0.32024 -0.0166,0.178524 0.17223,0.266145 0.26184,0.397719 -0.0852,0.116148 -0.23761,0.126438 -0.2426,0.368653 -0.01,0.193134 0.17756,0.254522 0.27179,0.378344 -0.15365,0.115811 -0.27842,0.236941 -0.29103,0.37831 0.0541,0.11647 0.0332,0.232948 0.25222,0.349227 -0.0298,0.279093 -0.15996,0.257518 -0.26185,0.320239 -8.7e-4,0.1792 0.10852,0.311934 0.26185,0.426827 0.0976,0.194132 -0.16128,0.245897 -0.24259,0.368619 -0.0504,0.170236 0.17555,0.279413 0.27178,0.417162 -0.006,0.182516 -0.16759,0.212388 -0.24258,0.358936 -0.0577,0.12345 0.13108,0.27742 0.20376,0.417136 0.0574,0.175865 -0.14669,0.220996 -0.22302,0.329853 v 0.533545 h -2.03716 v -1.280508 h 0.80514 v -6.936076 l 0.17457,-1.164125 0.74695,-1.542443 V 81.01204 l -0.7315,-1.267032 -0.2094,-1.13877 v -6.955502 l -0.82456,-0.01992 z"
     id="profile_right"
     sodipodi:nodetypes="cccccscccccccccccccccccccccccccccccccccccccccccccccccccccccccccccccccccccccccccccccccccccccccccccccccccccccccccccccccccccccccccccccccccccccccccccccccccccccccccccccccc"
     inkscape:label="profile_right_corner" />
  <path
     style="fill:#e1ecec;fill-opacity:0.77;fill-rule:evenodd;stroke:#b81e1e;stroke-width:0.0108229"
     d="M 143.38588,0.01414982 H 164.3235 V 135.77237 H 141.14157 V 81.245722 h 2.23321 z"
     id="concrete_right"
     inkscape:label="concrete_right"
     sodipodi:nodetypes="ccccccc" />
  <rect
     style="fill:#404242;fill-opacity:0.341246;fill-rule:evenodd;stroke:#b81e1e;stroke-width:0.0190553"
     id="shadow"
     width="118.61267"
     height="0.013436287"
     x="45.680618"
     y="135.82225"
     inkscape:label="shadow" />
  <path
     style="fill:#4a8db7;fill-opacity:0.768047;fill-rule:evenodd;stroke:#b81e1e;stroke-width:0.0331886"
     d="m 111.15047,66.860493 v 12.91154 l -0.16596,0.28775 H 66.263895 v 1.76303 h 49.633565 l 1.91941,-1.53599 0.49681,-1.76556 v -6.790331 h 0.7642 v -1.27692 h -2.04591 v 0.44145 c 0.0478,0.0698 0.1416,0.14615 0.10913,0.20428 -0.0841,0.0932 -0.26729,0.18674 -0.2517,0.27995 0.013,0.13932 0.30301,0.29229 0.23253,0.417711 -0.0293,0.195509 -0.16465,0.208839 -0.24682,0.313409 0.0163,0.144191 0.20591,0.14354 0.27053,0.36549 -0.006,0.14257 -0.26728,0.24585 -0.25169,0.39875 0.002,0.230911 0.16757,0.26273 0.25169,0.394011 -0.0442,0.179909 -0.29229,0.240319 -0.27053,0.346519 0.0324,0.16596 0.16401,0.231561 0.25169,0.34176 -0.0227,0.13607 -0.24422,0.24195 -0.26598,0.37974 0.10457,0.24228 0.18999,0.23416 0.28482,0.3513 0.006,0.18318 -0.16108,0.26274 -0.24195,0.39398 -0.0195,0.203311 0.2137,0.27476 0.2137,0.42724 -0.0776,0.12016 -0.29846,0.11496 -0.23254,0.36074 0.0792,0.10913 0.26663,0.23806 0.23741,0.32754 -0.006,0.1601 -0.22929,0.21986 -0.24682,0.34178 0.026,0.19129 0.20428,0.286771 0.23805,0.412091 -0.0776,0.1127 -0.19031,0.27346 -0.23318,0.33793 0.026,0.1364 0.14387,0.25039 0.2374,0.37026 0.0194,0.10945 -0.0471,0.16628 -0.114,0.22312 v 0.71205 c -0.10911,1.46711 -0.97771,1.86209 -1.95097,2.00794 -1.24035,-0.0497 -1.92109,-0.79857 -2.09338,-2.06964 v -0.63135 l -0.0903,-0.2137 c 0.0227,-0.14647 0.23155,-0.22181 0.21823,-0.37497 -0.076,-0.11692 -0.22083,-0.15654 -0.22798,-0.3513 -0.0195,-0.19649 0.27281,-0.20364 0.2137,-0.384501 -0.0643,-0.11692 -0.20883,-0.234159 -0.18999,-0.35127 -0.0163,-0.13543 0.19063,-0.25884 0.1994,-0.36075 -0.0763,-0.13283 -0.24617,-0.26566 -0.22799,-0.398749 0.002,-0.182521 0.1611,-0.243901 0.24196,-0.36549 -0.0806,-0.13315 -0.2897,-0.306901 -0.2374,-0.39875 0.026,-0.11334 0.29651,-0.201031 0.23253,-0.36553 -0.0741,-0.12211 -0.23449,-0.25981 -0.21825,-0.36549 0.002,-0.105871 0.20623,-0.202 0.20428,-0.317951 -0.0695,-0.125029 -0.22473,-0.25819 -0.20428,-0.375009 0.0695,-0.1312 0.24813,-0.28449 0.20883,-0.39401 -0.0727,-0.140941 -0.25137,-0.27117 -0.21824,-0.42245 0.0711,-0.11562 0.30105,-0.16498 0.21369,-0.346521 -0.0711,-0.11855 -0.22669,-0.2478 -0.21369,-0.35601 0.0793,-0.1075 0.25039,-0.215319 0.2374,-0.32282 -0.0809,-0.134459 -0.30204,-0.268909 -0.24195,-0.403489 0.0429,-0.110751 0.14355,-0.23124 0.12828,-0.33227 v -3.84499 z"
     id="profile_left"
     sodipodi:nodetypes="ccccccccccccccccccccccccccccccccccccccccccccccccccccccccccc" />
  <rect
     style="fill:#b8b8b8;fill-opacity:1;fill-rule:evenodd;stroke:#b81e1e;stroke-width:0.0427051"
     id="concrete_left"
     width="70.122719"
     height="54.082649"
     x="45.916897"
     y="81.791908" />
  <rect
     style="fill:#a39a9a;fill-rule:evenodd;stroke:#b81e1e;stroke-width:0.0249138"
     id="finish_left"
     width="65.18679"
     height="14.272009"
     x="45.83186"
     y="67.539833" />
  <rect
     style="fill:#a39a9a;fill-rule:evenodd;stroke:#b81e1e;stroke-width:0.0129142"
     id="cover_left"
     width="65.325188"
     height="0.76904744"
     x="45.74416"
     y="66.785759" />
  <ellipse
     style="opacity:0;fill:none;fill-opacity:0;fill-rule:evenodd;stroke-width:0.00368993;stroke-opacity:0"
     id="bolt_left"
     cx="-76.138489"
     cy="-80.135239"
     rx="0.094999999"
     ry="0.028942173"
     inkscape:label="bolt_left"
     transform="scale(-1)" />
</svg>
