<?xml version="1.0" encoding="UTF-8" standalone="no"?>
<!-- Created with Inkscape (http://www.inkscape.org/) -->

<svg
   width="210mm"
   height="297mm"
   viewBox="0 0 210 297"
   version="1.1"
   id="svg1"
   inkscape:version="1.4 (86a8ad7, 2024-10-11)"
   sodipodi:docname="DSHL-30-035-corner.svg"
   xmlns:inkscape="http://www.inkscape.org/namespaces/inkscape"
   xmlns:sodipodi="http://sodipodi.sourceforge.net/DTD/sodipodi-0.dtd"
   xmlns="http://www.w3.org/2000/svg"
   xmlns:svg="http://www.w3.org/2000/svg">
  <sodipodi:namedview
     id="namedview1"
     pagecolor="#ffffff"
     bordercolor="#000000"
     borderopacity="0.25"
     inkscape:showpageshadow="2"
     inkscape:pageopacity="0.0"
     inkscape:pagecheckerboard="0"
     inkscape:deskcolor="#d1d1d1"
     inkscape:document-units="mm"
     inkscape:zoom="0.7401656"
     inkscape:cx="390.45316"
     inkscape:cy="288.44896"
     inkscape:window-width="2560"
     inkscape:window-height="1377"
     inkscape:window-x="-8"
     inkscape:window-y="-8"
     inkscape:window-maximized="1"
     inkscape:current-layer="svg1" />
  <defs
     id="defs1">
    <inkscape:path-effect
       effect="fillet_chamfer"
       id="path-effect1"
       is_visible="true"
       lpeversion="1"
       nodesatellites_param="F,0,0,1,0,0,0,1 @ F,0,0,1,0,0,0,1 @ F,0,0,1,0,0,0,1 @ F,0,0,1,0,0,0,1 @ F,0,0,1,0,0,0,1 @ F,0,0,1,0,0,0,1 @ F,0,0,1,0,0,0,1 @ F,0,0,1,0,0,0,1 @ F,0,0,1,0,0,0,1 @ F,0,0,1,0,0,0,1 @ F,0,0,1,0,0,0,1 @ F,0,0,1,0,0,0,1 @ F,0,0,1,0,0,0,1 @ F,0,0,1,0,0,0,1 @ F,0,0,1,0,0,0,1 @ F,0,0,1,0,0,0,1 @ F,0,0,1,0,0,0,1 @ F,0,0,1,0,0,0,1 @ F,0,0,1,0,0,0,1 @ F,0,0,1,0,0,0,1 @ F,0,0,1,0,0,0,1 @ F,0,0,1,0,0,0,1 @ F,0,0,1,0,0,0,1 @ F,0,0,1,0,0,0,1 @ F,0,0,1,0,0,0,1 @ F,0,0,1,0,0,0,1 @ F,0,0,1,0,0,0,1 @ F,0,0,1,0,0,0,1 @ F,0,0,1,0,0,0,1 @ F,0,0,1,0,0,0,1 @ F,0,0,1,0,0,0,1 @ F,0,0,1,0,0,0,1 @ F,0,0,1,0,0,0,1 @ F,0,0,1,0,0,0,1 @ F,0,0,1,0,0,0,1 @ F,0,0,1,0,0,0,1 @ F,0,0,1,0,0,0,1 @ F,0,0,1,0,0,0,1 @ F,0,0,1,0,0,0,1 @ F,0,0,1,0,0,0,1 @ F,0,0,1,0,0,0,1 @ F,0,0,1,0,0,0,1 @ F,0,0,1,0,0,0,1 @ F,0,0,1,0,0,0,1 @ F,0,0,1,0,0,0,1 @ F,0,0,1,0,0,0,1 @ F,0,0,1,0,0,0,1 @ F,0,0,1,0,0,0,1 @ F,0,0,1,0,0,0,1 @ F,0,0,1,0,0,0,1 @ F,0,0,1,0,0,0,1 @ F,0,0,1,0,0,0,1 @ F,0,0,1,0,0,0,1 @ F,0,0,1,0,0,0,1 @ F,0,0,1,0,0,0,1 @ F,0,0,1,0,0,0,1 @ F,0,0,1,0,0,0,1 @ F,0,0,1,0,0,0,1 @ F,0,0,1,0,0,0,1 @ F,0,0,1,0,0,0,1 @ F,0,0,1,0,0,0,1 @ F,0,0,1,0,0,0,1 @ F,0,0,1,0,0,0,1 @ F,0,0,1,0,0,0,1 @ F,0,0,1,0,0,0,1 @ F,0,0,1,0,0,0,1 @ F,0,0,1,0,0,0,1 @ F,0,0,1,0,0,0,1 @ F,0,0,1,0,0,0,1 @ F,0,0,1,0,0,0,1 @ F,0,0,1,0,0,0,1 @ F,0,0,1,0,0,0,1 @ F,0,0,1,0,0,0,1 @ F,0,0,1,0,0,0,1 @ F,0,0,1,0,0,0,1 @ F,0,0,1,0,0,0,1 @ F,0,0,1,0,0,0,1 @ F,0,0,1,0,0,0,1 @ F,0,0,1,0,0,0,1 @ F,0,0,1,0,0,0,1 @ F,0,0,1,0,0,0,1 @ F,0,0,1,0,0,0,1 @ F,0,0,1,0,0,0,1 @ F,0,0,1,0,0,0,1 @ F,0,0,1,0,0,0,1 @ F,0,0,1,0,0,0,1 @ F,0,0,1,0,0,0,1 @ F,0,0,1,0,0,0,1 @ F,0,0,1,0,0,0,1 @ F,0,0,1,0,0,0,1 @ F,0,0,1,0,0,0,1 @ F,0,0,1,0,0,0,1 @ F,0,0,1,0,0,0,1 @ F,0,0,1,0,0,0,1 @ F,0,0,1,0,0,0,1 @ F,0,0,1,0,0,0,1 @ F,0,0,1,0,0,0,1 @ F,0,0,1,0,0,0,1 @ F,0,0,1,0,0,0,1 @ F,0,0,1,0,0,0,1 @ F,0,0,1,0,0,0,1 @ F,0,0,1,0,0,0,1 @ F,0,0,1,0,0,0,1 @ F,0,0,1,0,0,0,1 @ F,0,0,1,0,0,0,1 @ F,0,0,1,0,0,0,1 @ F,0,0,1,0,0,0,1 @ F,0,0,1,0,0,0,1 @ F,0,0,1,0,0,0,1 @ F,0,0,1,0,0,0,1 @ F,0,0,1,0,0,0,1 @ F,0,0,1,0,0,0,1 @ F,0,0,1,0,0,0,1 @ F,0,0,1,0,0,0,1 @ F,0,0,1,0,0,0,1 @ F,0,0,1,0,0,0,1"
       radius="0"
       unit="px"
       method="auto"
       mode="F"
       chamfer_steps="1"
       flexible="false"
       use_knot_distance="true"
       apply_no_radius="true"
       apply_with_radius="true"
       only_selected="true"
       hide_knots="false" />
    <inkscape:path-effect
       effect="fillet_chamfer"
       id="path-effect8-6"
       is_visible="true"
       lpeversion="1"
       nodesatellites_param="F,0,0,1,0,0,0,1 @ F,0,0,1,0,0,0,1 @ F,0,0,1,0,0,0,1 @ F,0,0,1,0,0,0,1 @ F,0,0,1,0,0,0,1 @ F,0,0,1,0,0,0,1 @ F,0,0,1,0,0,0,1 @ F,0,0,1,0,0,0,1 @ F,0,0,1,0,0,0,1 @ F,0,0,1,0,0,0,1 @ F,0,0,1,0,0,0,1 @ F,0,0,1,0,0,0,1 @ F,0,0,1,0,0,0,1 @ F,0,0,1,0,0,0,1 @ F,0,0,1,0,0,0,1 @ F,0,0,1,0,0,0,1 @ F,0,0,1,0,0,0,1 @ F,0,0,1,0,0,0,1 @ F,0,0,1,0,0,0,1 @ F,0,0,1,0,0,0,1 @ F,0,0,1,0,0,0,1 @ F,0,0,1,0,0,0,1 @ F,0,0,1,0,0,0,1 @ F,0,0,1,0,0,0,1 @ F,0,0,1,0,0,0,1 @ F,0,0,1,0,0,0,1 @ F,0,0,1,0,0,0,1 @ F,0,0,1,0,0,0,1 @ F,0,0,1,0,0.055330264,0,1 @ F,0,0,1,0,0,0,1 @ F,0,0,1,0,0,0,1 @ F,0,0,1,0,0,0,1 @ F,0,1,1,0,0.073794047,0,1 @ F,0,0,1,0,0,0,1 @ F,0,0,1,0,0,0,1 @ F,0,0,1,0,0,0,1 @ F,0,0,1,0,0,0,1 @ F,0,0,1,0,0,0,1 @ F,0,0,1,0,0,0,1 @ F,0,0,1,0,0,0,1 @ F,0,0,1,0,0,0,1 @ F,0,0,1,0,0,0,1 @ F,0,0,1,0,0,0,1 @ F,0,0,1,0,0,0,1 @ F,0,0,1,0,0,0,1 @ F,0,0,1,0,0,0,1 @ F,0,0,1,0,0,0,1 @ F,0,0,1,0,0,0,1 @ F,0,0,1,0,0,0,1 @ F,0,0,1,0,0,0,1 @ F,0,0,1,0,0,0,1 @ F,0,0,1,0,0,0,1 @ F,0,0,1,0,0,0,1 @ F,0,0,1,0,0,0,1 @ F,0,0,1,0,0,0,1 @ F,0,0,1,0,0,0,1 @ F,0,0,1,0,0,0,1 @ F,0,0,1,0,0,0,1 @ F,0,0,1,0,0,0,1 @ F,0,0,1,0,0,0,1 @ F,0,0,1,0,0,0,1 @ F,0,0,1,0,0,0,1 @ F,0,0,1,0,0,0,1 @ F,0,0,1,0,0,0,1 @ F,0,0,1,0,0,0,1 @ F,0,0,1,0,0,0,1 @ F,0,0,1,0,0,0,1 @ F,0,0,1,0,0,0,1 @ F,0,0,1,0,0,0,1 @ F,0,0,1,0,0,0,1 @ F,0,0,1,0,0,0,1 @ F,0,0,1,0,0,0,1 @ F,0,0,1,0,0,0,1 @ F,0,0,1,0,0,0,1 @ F,0,0,1,0,0,0,1 @ F,0,0,1,0,0,0,1 @ F,0,0,1,0,0,0,1 @ F,0,0,1,0,0,0,1 @ F,0,0,1,0,0,0,1 @ F,0,0,1,0,0,0,1 @ F,0,0,1,0,0,0,1 @ F,0,0,1,0,0,0,1 @ F,0,0,1,0,0,0,1 @ F,0,0,1,0,0,0,1 @ F,0,0,1,0,0,0,1 @ F,0,0,1,0,0,0,1 @ F,0,0,1,0,0,0,1 @ F,0,0,1,0,0,0,1 @ F,0,0,1,0,0,0,1 @ F,0,0,1,0,0,0,1 @ F,0,0,1,0,0,0,1 @ F,0,0,1,0,0,0,1 @ F,0,0,1,0,0,0,1 @ F,0,0,1,0,0,0,1 @ F,0,0,1,0,0,0,1 @ F,0,0,1,0,0,0,1 @ F,0,0,1,0,0,0,1 @ F,0,0,1,0,0,0,1 @ F,0,0,1,0,0,0,1 @ F,0,0,1,0,0,0,1 @ F,0,0,1,0,0,0,1 @ F,0,0,1,0,0,0,1 @ F,0,0,1,0,0,0,1 @ F,0,0,1,0,0,0,1 @ F,0,0,1,0,0,0,1 @ F,0,0,1,0,0,0,1 @ F,0,0,1,0,0,0,1 @ F,0,0,1,0,0,0,1 @ F,0,0,1,0,0,0,1 @ F,0,0,1,0,0,0,1 @ F,0,0,1,0,0,0,1 @ F,0,0,1,0,0,0,1 @ F,0,0,1,0,0,0,1 @ F,0,0,1,0,0,0,1 @ F,0,0,1,0,0,0,1 @ F,0,0,1,0,0,0,1 @ F,0,0,1,0,0,0,1"
       radius="0"
       unit="px"
       method="auto"
       mode="F"
       chamfer_steps="1"
       flexible="false"
       use_knot_distance="true"
       apply_no_radius="true"
       apply_with_radius="true"
       only_selected="true"
       hide_knots="false" />
    <inkscape:path-effect
       effect="fillet_chamfer"
       id="path-effect1-2"
       is_visible="true"
       lpeversion="1"
       nodesatellites_param="F,0,0,1,0,0,0,1 @ F,0,0,1,0,0.052223123,0,1 @ F,0,0,1,0,0,0,1 @ F,0,0,1,0,0,0,1 @ F,0,0,1,0,0,0,1 @ F,0,0,1,0,0,0,1 @ F,0,0,1,0,0,0,1 @ F,0,0,1,0,0,0,1 @ F,0,0,1,0,0,0,1 @ F,0,0,1,0,0,0,1 @ F,0,0,1,0,0,0,1 @ F,0,0,1,0,0,0,1 @ F,0,0,1,0,0,0,1 @ F,0,0,1,0,0,0,1 @ F,0,0,1,0,0,0,1 @ F,0,0,1,0,0,0,1 @ F,0,0,1,0,0,0,1 @ F,0,0,1,0,0,0,1 @ F,0,0,1,0,0,0,1 @ F,0,0,1,0,0,0,1 @ F,0,0,1,0,0,0,1 @ F,0,0,1,0,0,0,1 @ F,0,0,1,0,0,0,1 @ F,0,0,1,0,0,0,1 @ F,0,0,1,0,0,0,1 @ F,0,0,1,0,0,0,1 @ F,0,0,1,0,0,0,1 @ F,0,0,1,0,0,0,1 @ F,0,0,1,0,0,0,1 @ F,0,0,1,0,0,0,1 @ F,0,0,1,0,0,0,1 @ F,0,0,1,0,0,0,1 @ F,0,0,1,0,0,0,1 @ F,0,0,1,0,0,0,1 @ F,0,0,1,0,0,0,1 @ F,0,0,1,0,0,0,1 @ F,0,0,1,0,0,0,1 @ F,0,0,1,0,0,0,1 @ F,0,0,1,0,0,0,1 @ F,0,0,1,0,0,0,1 @ F,0,0,1,0,0,0,1 @ F,0,0,1,0,0,0,1 @ F,0,0,1,0,0,0,1 @ F,0,0,1,0,0,0,1 @ F,0,0,1,0,0,0,1 @ F,0,0,1,0,0,0,1 @ F,0,0,1,0,0,0,1 @ F,0,0,1,0,0,0,1 @ F,0,0,1,0,0,0,1 @ F,0,0,1,0,0,0,1 @ F,0,0,1,0,0,0,1 @ F,0,0,1,0,0,0,1 @ F,0,0,1,0,0,0,1 @ F,0,0,1,0,0,0,1 @ F,0,0,1,0,0,0,1 @ F,0,0,1,0,0,0,1 @ F,0,0,1,0,0,0,1 @ F,0,0,1,0,0,0,1 @ F,0,0,1,0,0,0,1"
       radius="0"
       unit="px"
       method="auto"
       mode="F"
       chamfer_steps="1"
       flexible="false"
       use_knot_distance="true"
       apply_no_radius="true"
       apply_with_radius="true"
       only_selected="true"
       hide_knots="false" />
    <inkscape:path-effect
       effect="fillet_chamfer"
       id="path-effect8"
       is_visible="true"
       lpeversion="1"
       nodesatellites_param="F,0,0,1,0,0,0,1 @ F,0,0,1,0,0,0,1 @ F,0,0,1,0,0,0,1 @ F,0,0,1,0,0,0,1 @ F,0,0,1,0,0,0,1 @ F,0,0,1,0,0,0,1 @ F,0,0,1,0,0,0,1 @ F,0,0,1,0,0,0,1 @ F,0,0,1,0,0,0,1 @ F,0,0,1,0,0,0,1 @ F,0,0,1,0,0,0,1 @ F,0,0,1,0,0,0,1 @ F,0,0,1,0,0,0,1 @ F,0,0,1,0,0,0,1 @ F,0,0,1,0,0,0,1 @ F,0,0,1,0,0,0,1 @ F,0,0,1,0,0,0,1 @ F,0,0,1,0,0,0,1 @ F,0,0,1,0,0,0,1 @ F,0,0,1,0,0,0,1 @ F,0,0,1,0,0,0,1 @ F,0,0,1,0,0,0,1 @ F,0,0,1,0,0,0,1 @ F,0,0,1,0,0,0,1 @ F,0,0,1,0,0,0,1 @ F,0,0,1,0,0,0,1 @ F,0,0,1,0,0,0,1 @ F,0,0,1,0,0,0,1 @ F,0,0,1,0,0.055330264,0,1 @ F,0,0,1,0,0,0,1 @ F,0,0,1,0,0,0,1 @ F,0,0,1,0,0,0,1 @ F,0,1,1,0,0.073794047,0,1 @ F,0,0,1,0,0,0,1 @ F,0,0,1,0,0,0,1 @ F,0,0,1,0,0,0,1 @ F,0,0,1,0,0,0,1 @ F,0,0,1,0,0,0,1 @ F,0,0,1,0,0,0,1 @ F,0,0,1,0,0,0,1 @ F,0,0,1,0,0,0,1 @ F,0,0,1,0,0,0,1 @ F,0,0,1,0,0,0,1 @ F,0,0,1,0,0,0,1 @ F,0,0,1,0,0,0,1 @ F,0,0,1,0,0,0,1 @ F,0,0,1,0,0,0,1 @ F,0,0,1,0,0,0,1 @ F,0,0,1,0,0,0,1 @ F,0,0,1,0,0,0,1 @ F,0,0,1,0,0,0,1 @ F,0,0,1,0,0,0,1 @ F,0,0,1,0,0,0,1 @ F,0,0,1,0,0,0,1 @ F,0,0,1,0,0,0,1 @ F,0,0,1,0,0,0,1 @ F,0,0,1,0,0,0,1 @ F,0,0,1,0,0,0,1 @ F,0,0,1,0,0,0,1 @ F,0,0,1,0,0,0,1 @ F,0,0,1,0,0,0,1 @ F,0,0,1,0,0,0,1 @ F,0,0,1,0,0,0,1 @ F,0,0,1,0,0,0,1 @ F,0,0,1,0,0,0,1 @ F,0,0,1,0,0,0,1 @ F,0,0,1,0,0,0,1 @ F,0,0,1,0,0,0,1 @ F,0,0,1,0,0,0,1 @ F,0,0,1,0,0,0,1 @ F,0,0,1,0,0,0,1 @ F,0,0,1,0,0,0,1 @ F,0,0,1,0,0,0,1 @ F,0,0,1,0,0,0,1 @ F,0,0,1,0,0,0,1 @ F,0,0,1,0,0,0,1 @ F,0,0,1,0,0,0,1 @ F,0,0,1,0,0,0,1 @ F,0,0,1,0,0,0,1 @ F,0,0,1,0,0,0,1 @ F,0,0,1,0,0,0,1 @ F,0,0,1,0,0,0,1 @ F,0,0,1,0,0,0,1 @ F,0,0,1,0,0,0,1 @ F,0,0,1,0,0,0,1 @ F,0,0,1,0,0,0,1 @ F,0,0,1,0,0,0,1 @ F,0,0,1,0,0,0,1 @ F,0,0,1,0,0,0,1 @ F,0,0,1,0,0,0,1 @ F,0,0,1,0,0,0,1 @ F,0,0,1,0,0,0,1 @ F,0,0,1,0,0,0,1 @ F,0,0,1,0,0,0,1 @ F,0,0,1,0,0,0,1 @ F,0,0,1,0,0,0,1 @ F,0,0,1,0,0,0,1 @ F,0,0,1,0,0,0,1 @ F,0,0,1,0,0,0,1 @ F,0,0,1,0,0,0,1 @ F,0,0,1,0,0,0,1 @ F,0,0,1,0,0,0,1 @ F,0,0,1,0,0,0,1 @ F,0,0,1,0,0,0,1 @ F,0,0,1,0,0,0,1 @ F,0,0,1,0,0,0,1 @ F,0,0,1,0,0,0,1 @ F,0,0,1,0,0,0,1 @ F,0,0,1,0,0,0,1 @ F,0,0,1,0,0,0,1 @ F,0,0,1,0,0,0,1 @ F,0,0,1,0,0,0,1 @ F,0,0,1,0,0,0,1 @ F,0,0,1,0,0,0,1 @ F,0,0,1,0,0,0,1 @ F,0,0,1,0,0,0,1 @ F,0,0,1,0,0,0,1"
       radius="0"
       unit="px"
       method="auto"
       mode="F"
       chamfer_steps="1"
       flexible="false"
       use_knot_distance="true"
       apply_no_radius="true"
       apply_with_radius="true"
       only_selected="true"
       hide_knots="false" />
    <inkscape:path-effect
       effect="fillet_chamfer"
       id="path-effect1-4"
       is_visible="true"
       lpeversion="1"
       nodesatellites_param="F,0,0,1,0,0,0,1 @ F,0,0,1,0,0,0,1 @ F,0,0,1,0,0,0,1 @ F,0,0,1,0,0,0,1 @ F,0,0,1,0,0,0,1 @ F,0,0,1,0,0,0,1 @ F,0,0,1,0,0,0,1 @ F,0,0,1,0,0,0,1 @ F,0,0,1,0,0,0,1 @ F,0,0,1,0,0,0,1 @ F,0,0,1,0,0,0,1 @ F,0,0,1,0,0,0,1 @ F,0,0,1,0,0,0,1 @ F,0,0,1,0,0,0,1 @ F,0,0,1,0,0,0,1 @ F,0,0,1,0,0,0,1 @ F,0,0,1,0,0,0,1 @ F,0,0,1,0,0,0,1 @ F,0,0,1,0,0,0,1 @ F,0,0,1,0,0,0,1 @ F,0,0,1,0,0,0,1 @ F,0,0,1,0,0,0,1 @ F,0,0,1,0,0,0,1 @ F,0,0,1,0,0,0,1 @ F,0,0,1,0,0,0,1 @ F,0,0,1,0,0,0,1 @ F,0,0,1,0,0,0,1 @ F,0,0,1,0,0,0,1 @ F,0,0,1,0,0,0,1 @ F,0,0,1,0,0,0,1 @ F,0,0,1,0,0,0,1 @ F,0,0,1,0,0,0,1 @ F,0,0,1,0,0,0,1 @ F,0,0,1,0,0,0,1 @ F,0,0,1,0,0,0,1 @ F,0,0,1,0,0,0,1 @ F,0,0,1,0,0,0,1 @ F,0,0,1,0,0,0,1 @ F,0,0,1,0,0,0,1 @ F,0,0,1,0,0,0,1 @ F,0,0,1,0,0,0,1 @ F,0,0,1,0,0,0,1 @ F,0,0,1,0,0,0,1 @ F,0,0,1,0,0,0,1 @ F,0,0,1,0,0,0,1 @ F,0,0,1,0,0,0,1 @ F,0,0,1,0,0,0,1 @ F,0,0,1,0,0,0,1 @ F,0,0,1,0,0,0,1 @ F,0,0,1,0,0,0,1 @ F,0,0,1,0,0,0,1 @ F,0,0,1,0,0,0,1 @ F,0,0,1,0,0,0,1 @ F,0,0,1,0,0,0,1 @ F,0,0,1,0,0,0,1 @ F,0,0,1,0,0,0,1 @ F,0,0,1,0,0,0,1 @ F,0,0,1,0,0,0,1 @ F,0,0,1,0,0,0,1 @ F,0,0,1,0,0,0,1 @ F,0,0,1,0,0,0,1 @ F,0,0,1,0,0,0,1 @ F,0,0,1,0,0,0,1 @ F,0,0,1,0,0,0,1 @ F,0,0,1,0,0,0,1 @ F,0,0,1,0,0,0,1 @ F,0,0,1,0,0,0,1 @ F,0,0,1,0,0,0,1 @ F,0,0,1,0,0,0,1 @ F,0,0,1,0,0,0,1 @ F,0,0,1,0,0,0,1 @ F,0,0,1,0,0,0,1 @ F,0,0,1,0,0,0,1 @ F,0,0,1,0,0,0,1 @ F,0,0,1,0,0,0,1 @ F,0,0,1,0,0,0,1 @ F,0,0,1,0,0,0,1 @ F,0,0,1,0,0,0,1 @ F,0,0,1,0,0,0,1 @ F,0,0,1,0,0,0,1 @ F,0,0,1,0,0,0,1 @ F,0,0,1,0,0,0,1 @ F,0,0,1,0,0,0,1 @ F,0,0,1,0,0,0,1 @ F,0,0,1,0,0,0,1 @ F,0,0,1,0,0,0,1 @ F,0,0,1,0,0,0,1 @ F,0,0,1,0,0,0,1 @ F,0,0,1,0,0,0,1 @ F,0,0,1,0,0,0,1 @ F,0,0,1,0,0,0,1 @ F,0,0,1,0,0,0,1 @ F,0,0,1,0,0,0,1 @ F,0,0,1,0,0,0,1 @ F,0,0,1,0,0,0,1 @ F,0,0,1,0,0,0,1 @ F,0,0,1,0,0,0,1 @ F,0,0,1,0,0,0,1 @ F,0,0,1,0,0,0,1 @ F,0,0,1,0,0,0,1 @ F,0,0,1,0,0,0,1 @ F,0,0,1,0,0,0,1 @ F,0,0,1,0,0,0,1 @ F,0,0,1,0,0,0,1 @ F,0,0,1,0,0,0,1 @ F,0,0,1,0,0,0,1 @ F,0,0,1,0,0,0,1 @ F,0,0,1,0,0,0,1 @ F,0,0,1,0,0,0,1 @ F,0,0,1,0,0,0,1 @ F,0,0,1,0,0,0,1 @ F,0,0,1,0,0,0,1 @ F,0,0,1,0,0,0,1 @ F,0,0,1,0,0,0,1 @ F,0,0,1,0,0,0,1 @ F,0,0,1,0,0,0,1"
       radius="0"
       unit="px"
       method="auto"
       mode="F"
       chamfer_steps="1"
       flexible="false"
       use_knot_distance="true"
       apply_no_radius="true"
       apply_with_radius="true"
       only_selected="true"
       hide_knots="false" />
  </defs>
  <path
     style="fill:#000000;fill-opacity:1;fill-rule:evenodd;stroke:#b81e1e;stroke-width:0.0102192"
     d="m 97.398704,30.071549 -0.360701,-0.0011 -0.630452,-0.542602 c -0.0391,-0.06957 -0.0205,-0.128047 0.01138,-0.183968 0.03789,-0.03446 0.08052,-0.06418 0.159163,-0.05788 l 0.06408,0.03617 0.10232,0.09612 h 0.06098 v -0.639754 l -0.368972,-0.311092 c -0.0552,-0.07122 -0.069,-0.144455 -0.01138,-0.221176 0.04724,-0.04457 0.09986,-0.06085 0.158128,-0.04754 l 0.186037,0.138491 h 0.03514 V 27.7078 l -0.40101,-0.360701 c -0.03664,-0.07033 -0.0069,-0.136897 0.02066,-0.180869 0.04202,-0.05171 0.09794,-0.0617 0.159162,-0.05581 l 0.181902,0.13126 0.02791,0.0011 0.01035,-0.0093 v -0.988055 l -0.302823,-0.187068 v -0.485759 h 2.542418 l 0.629962,0.801057 c 0.02149,0.01751 0.03926,0.03689 0.08185,0.04385 0.03529,-0.01705 0.05852,-0.03411 0.07454,-0.05116 l 0.625572,-0.792204 1.38124,-0.0015 0.63435,0.79805 c 0.0177,0.0213 0.0461,0.03183 0.0775,0.03946 0.0426,-0.0076 0.0589,-0.0239 0.0775,-0.03946 l 0.62704,-0.79805 h 1.36663 l 0.62557,0.786357 c 0.0226,0.02403 0.0477,0.04655 0.0921,0.057 0.0252,-0.0047 0.0491,-0.02163 0.0716,-0.05116 l 0.62851,-0.792203 h 2.53739 v 0.489646 l -0.29817,0.187089 v 0.992446 h 0.038 l 0.17685,-0.128624 c 0.0514,-0.01437 0.1037,-0.0077 0.15786,0.04385 0.0678,0.06139 0.0437,0.122777 0.0322,0.184166 l -0.4078,0.368329 -0.002,0.632886 0.0409,0.0016 0.18124,-0.14324 c 0.0527,-0.01266 0.10675,0.0032 0.16224,0.05116 0.0573,0.06537 0.0409,0.138508 -0.006,0.21486 l -0.37564,0.312788 v 0.632886 l 0.0585,0.0029 0.10086,-0.09354 c 0.0731,-0.05333 0.13489,-0.03393 0.19439,0 0.0874,0.04819 0.0702,0.120524 0.0526,0.192934 l -0.62996,0.559806 h -0.36102 l -0.63727,-0.555421 c -0.0147,-0.07393 -0.0246,-0.146284 0.0365,-0.195858 0.0464,-0.04473 0.0972,-0.04651 0.14908,-0.03654 l 0.14324,0.124241 h 0.0702 v -0.629965 l -0.36248,-0.312788 c -0.0809,-0.08354 -0.0623,-0.156712 -0.0117,-0.226552 0.0489,-0.04776 0.10199,-0.05215 0.1564,-0.04239 l 0.18124,0.138856 h 0.0424 v -0.628502 l -0.40049,-0.361021 -0.0219,-0.07308 c -0.001,-0.05509 0.0226,-0.09865 0.0628,-0.134469 0.0423,-0.03926 0.0912,-0.03915 0.14178,-0.02923 l 0.15055,0.121314 0.0453,0.01315 0.019,-0.03069 v -0.505725 h -1.38709 l -0.58465,0.586113 c -0.0441,0.03696 -0.0943,0.0584 -0.15493,0.05408 -0.0499,-0.0099 -0.10015,-0.0184 -0.1447,-0.04969 l -0.5905,-0.5905 h -1.30524 l -0.60219,0.587576 c -0.0327,0.03082 -0.0788,0.04936 -0.14178,0.05262 -0.0635,-0.003 -0.10888,-0.0266 -0.15347,-0.05116 l -0.58465,-0.589037 h -1.31547 l -0.587569,0.589037 c -0.03516,0.02444 -0.08256,0.04322 -0.153472,0.05116 -0.05647,-3.61e-4 -0.105054,-0.02043 -0.150548,-0.04823 L 99.016062,26.711379 H 97.6353 l 0.0029,0.52034 0.01024,0.01024 0.02339,-0.0029 0.181242,-0.124241 c 0.05903,-0.02015 0.112928,0.0025 0.163703,0.05116 0.04676,0.05685 0.04678,0.117437 0.02484,0.179781 l -0.406332,0.365408 0.0016,0.61096 0.02777,0.01609 0.147624,-0.112546 c 0.06577,-0.04431 0.131547,-0.02877 0.197321,0.02045 0.04525,0.05603 0.04411,0.112058 0.0263,0.168087 l -0.02777,0.0497 -0.371256,0.320096 v 0.628502 h 0.05701 l 0.111082,-0.09501 c 0.07195,-0.06158 0.139605,-0.03282 0.20609,0.02045 0.05728,0.07771 0.04326,0.129021 0.02777,0.179782 z"
     id="compensator"
     sodipodi:nodetypes="ccccccccccccccccccccccccccccccccccccccccccccccccccccccccccccccccccccccccccccccccccccccccccccccccccccccccccccccccccccc"
     inkscape:path-effect="#path-effect1-4"
     inkscape:original-d="m 97.398704,30.071549 -0.360701,-0.0011 -0.630452,-0.542602 c -0.0391,-0.06957 -0.0205,-0.128047 0.01138,-0.183968 0.03789,-0.03446 0.08052,-0.06418 0.159163,-0.05788 l 0.06408,0.03617 0.10232,0.09612 h 0.06098 v -0.639754 l -0.368972,-0.311092 c -0.0552,-0.07122 -0.069,-0.144455 -0.01138,-0.221176 0.04724,-0.04457 0.09986,-0.06085 0.158128,-0.04754 l 0.186037,0.138491 h 0.03514 V 27.7078 l -0.40101,-0.360701 c -0.03664,-0.07033 -0.0069,-0.136897 0.02066,-0.180869 0.04202,-0.05171 0.09794,-0.0617 0.159162,-0.05581 l 0.181902,0.13126 0.02791,0.0011 0.01035,-0.0093 v -0.988055 l -0.302823,-0.187068 v -0.485759 h 2.542418 l 0.629962,0.801057 c 0.02149,0.01751 0.03926,0.03689 0.08185,0.04385 0.03529,-0.01705 0.05852,-0.03411 0.07454,-0.05116 l 0.625572,-0.792204 1.38124,-0.0015 0.63435,0.79805 c 0.0177,0.0213 0.0461,0.03183 0.0775,0.03946 0.0426,-0.0076 0.0589,-0.0239 0.0775,-0.03946 l 0.62704,-0.79805 h 1.36663 l 0.62557,0.786357 c 0.0226,0.02403 0.0477,0.04655 0.0921,0.057 0.0252,-0.0047 0.0491,-0.02163 0.0716,-0.05116 l 0.62851,-0.792203 h 2.53739 v 0.489646 l -0.29817,0.187089 v 0.992446 h 0.038 l 0.17685,-0.128624 c 0.0514,-0.01437 0.1037,-0.0077 0.15786,0.04385 0.0678,0.06139 0.0437,0.122777 0.0322,0.184166 l -0.4078,0.368329 -0.002,0.632886 0.0409,0.0016 0.18124,-0.14324 c 0.0527,-0.01266 0.10675,0.0032 0.16224,0.05116 0.0573,0.06537 0.0409,0.138508 -0.006,0.21486 l -0.37564,0.312788 v 0.632886 l 0.0585,0.0029 0.10086,-0.09354 c 0.0731,-0.05333 0.13489,-0.03393 0.19439,0 0.0874,0.04819 0.0702,0.120524 0.0526,0.192934 l -0.62996,0.559806 h -0.36102 l -0.63727,-0.555421 c -0.0147,-0.07393 -0.0246,-0.146284 0.0365,-0.195858 0.0464,-0.04473 0.0972,-0.04651 0.14908,-0.03654 l 0.14324,0.124241 h 0.0702 v -0.629965 l -0.36248,-0.312788 c -0.0809,-0.08354 -0.0623,-0.156712 -0.0117,-0.226552 0.0489,-0.04776 0.10199,-0.05215 0.1564,-0.04239 l 0.18124,0.138856 h 0.0424 v -0.628502 l -0.40049,-0.361021 -0.0219,-0.07308 c -0.001,-0.05509 0.0226,-0.09865 0.0628,-0.134469 0.0423,-0.03926 0.0912,-0.03915 0.14178,-0.02923 l 0.15055,0.121314 0.0453,0.01315 0.019,-0.03069 v -0.505725 h -1.38709 l -0.58465,0.586113 c -0.0441,0.03696 -0.0943,0.0584 -0.15493,0.05408 -0.0499,-0.0099 -0.10015,-0.0184 -0.1447,-0.04969 l -0.5905,-0.5905 h -1.30524 l -0.60219,0.587576 c -0.0327,0.03082 -0.0788,0.04936 -0.14178,0.05262 -0.0635,-0.003 -0.10888,-0.0266 -0.15347,-0.05116 l -0.58465,-0.589037 h -1.31547 l -0.587569,0.589037 c -0.03516,0.02444 -0.08256,0.04322 -0.153472,0.05116 -0.05647,-3.61e-4 -0.105054,-0.02043 -0.150548,-0.04823 L 99.016062,26.711379 H 97.6353 l 0.0029,0.52034 0.01024,0.01024 0.02339,-0.0029 0.181242,-0.124241 c 0.05903,-0.02015 0.112928,0.0025 0.163703,0.05116 0.04676,0.05685 0.04678,0.117437 0.02484,0.179781 l -0.406332,0.365408 0.0016,0.61096 0.02777,0.01609 0.147624,-0.112546 c 0.06577,-0.04431 0.131547,-0.02877 0.197321,0.02045 0.04525,0.05603 0.04411,0.112058 0.0263,0.168087 l -0.02777,0.0497 -0.371256,0.320096 v 0.628502 h 0.05701 l 0.111082,-0.09501 c 0.07195,-0.06158 0.139605,-0.03282 0.20609,0.02045 0.05728,0.07771 0.04326,0.129021 0.02777,0.179782 z"
     inkscape:label="compensator"
     transform="matrix(3.0033968,0,0,3.0033968,-181.80117,-9.9333029)" />
  <path
     style="fill:#b4cdd0;fill-opacity:0;fill-rule:evenodd;stroke:#b81e1e;stroke-width:0.000130592"
     id="screw_right"
     transform="scale(-1,1)"
     inkscape:label="screw_right"
     sodipodi:type="arc"
     sodipodi:cx="-144.69193"
     sodipodi:cy="30.672478"
     sodipodi:rx="0.039848957"
     sodipodi:ry="0.026163459"
     sodipodi:start="0"
     sodipodi:end="1.3916238"
     sodipodi:arc-type="slice"
     d="m -144.65208,30.672478 a 0.03984896,0.02616346 0 0 1 -0.0327,0.02574 l -0.007,-0.02574 z" />
  <rect
     style="fill:#e1ecec;fill-opacity:0.77;fill-rule:evenodd;stroke:#b81e1e;stroke-width:0.00903172"
     id="finish_right"
     width="70.894104"
     height="2.0347874"
     x="-70.898643"
     y="146.38815"
     inkscape:label="finish_right"
     transform="rotate(-90)" />
  <rect
     style="fill:#e1ecec;fill-opacity:0.77;fill-rule:evenodd;stroke:#b81e1e;stroke-width:0.0103651"
     id="cover_right"
     width="70.869392"
     height="0.12765716"
     x="-70.881844"
     y="146.21254"
     inkscape:label="cover_right"
     transform="rotate(-90)" />
  <path
     style="fill:#4a8db7;fill-opacity:0.768047;fill-rule:evenodd;stroke:#b81e1e;stroke-width:0.0339124"
     d="m 138.00365,70.292138 h 2.11478 v 0.53354 l -0.0969,0.14535 c 0.11316,0.0852 0.23561,0.16427 0.24258,0.32024 -0.0571,-0.0298 -0.28473,0.38663 -0.19413,0.39775 0.0919,0.01 0.30298,0.344 0.20375,0.38803 -0.11116,0.0959 -0.17588,0.2698 -0.23295,0.45592 0.22531,0.0772 0.2522,0.20874 0.2814,0.33956 -0.14999,0.062 -0.26049,0.15696 -0.30065,0.31028 0.17754,0.18086 0.2273,0.27675 0.30065,0.38802 -0.16692,0.1015 -0.22101,0.25155 -0.26182,0.40745 0.18483,0.16061 0.1865,0.26051 0.21337,0.36863 -0.18883,0.0793 -0.2449,0.20673 -0.23295,0.35891 0.17719,0.13905 0.26647,0.2781 0.24257,0.41714 -0.14368,0.0793 -0.28572,0.15929 -0.23261,0.31028 0.24888,0.29568 0.30728,0.27013 0.29102,0.40744 0.002,0.21604 -0.17786,0.24923 -0.29102,0.34924 0.002,0.18451 0.18218,0.29236 0.30064,0.42683 -0.0401,0.24623 -0.23296,0.13572 -0.32023,0.33955 0.0604,0.24988 0.18717,0.26647 0.28141,0.39771 -0.17987,0.11316 -0.2615,0.24922 -0.20376,0.41714 v 0.9022 c 0.28372,1.55549 1.50261,2.04729 2.24088,2.01775 1.18407,-0.28207 1.75827,-0.97419 1.88194,-1.96926 v -0.67907 c 0.12379,-0.10885 0.13806,-0.21038 0.12611,-0.31028 -0.0345,-0.21703 0.0969,-0.081 -0.30065,-0.38803 0.26415,-0.11084 0.28672,-0.25054 0.32985,-0.38804 -0.0919,-0.21271 -0.222,-0.31094 -0.35891,-0.38802 0.048,-0.19513 0.3918,-0.18086 0.36861,-0.41713 -0.0518,-0.14933 -0.26051,-0.14834 -0.32024,-0.31028 0.0638,-0.22932 0.34443,-0.076 0.32024,-0.39773 -0.071,-0.21703 -0.29004,-0.25884 -0.29103,-0.38804 0.0793,-0.29633 0.18118,-0.2522 0.27178,-0.37833 -0.0475,-0.24125 -0.31493,-0.19513 -0.30066,-0.40745 0.0455,-0.19115 0.28606,-0.22897 0.32023,-0.35893 -0.0604,-0.21204 -0.33486,-0.17885 -0.2814,-0.36861 0.0864,-0.13871 0.31726,-0.2532 0.2522,-0.41714 -0.0265,-0.1397 -0.24987,-0.13108 -0.27178,-0.30065 0.0359,-0.14302 0.36566,-0.26515 0.32986,-0.39772 -0.0796,-0.19679 -0.32587,-0.25951 -0.33954,-0.38807 0.0498,-0.2011 0.24126,-0.2522 0.34459,-0.37831 -0.11151,-0.1553 -0.36448,-0.29469 -0.33497,-0.46565 0.10351,-0.0743 0.30729,-0.12643 0.31028,-0.223 0.0232,-0.23959 -0.14868,-0.2844 -0.22301,-0.42682 v -6.49953 c -0.18318,-0.11283 -0.36961,-0.22433 -0.32985,-0.41714 0.27476,-0.38992 0.69275,-0.24092 0.82457,-0.65964 -0.19148,-0.36677 -0.84843,-0.39315 -0.78574,-0.73729 0.0593,-0.62167 0.78324,-0.29699 0.69844,-0.70816 -0.15565,-0.36479 -0.76134,-0.41103 -0.73727,-0.75664 0.18351,-0.32456 0.71125,-0.29767 0.74696,-0.65966 -0.0989,-0.3126 -0.77189,-0.34579 -0.73725,-0.71789 0.19049,-0.37644 0.82774,-0.27908 0.70813,-0.74695 -0.0598,-0.3658 -0.9221,-0.3292 -0.70813,-0.79547 0.24558,-0.18751 0.73549,-0.26913 0.73725,-0.56263 -0.071,-0.48988 -0.89507,-0.47852 -0.72756,-0.81488 0.1135,-0.39384 0.72779,-0.28208 0.71787,-0.67906 -0.0647,-0.30167 -0.87731,-0.38025 -0.74696,-0.74698 0.225,-0.35514 0.72061,-0.31226 0.76638,-0.64022 -0.10162,-0.26515 -0.81692,-0.53033 -0.70818,-0.79548 0.084,-0.39725 0.78422,-0.28771 0.77607,-0.69845 -0.32257,-0.12411 -0.84804,-0.42463 -0.79548,-0.73726 0.13805,-0.42202 0.72028,-0.17422 0.75669,-0.64996 -0.16262,-0.44123 -0.90646,-0.39755 -0.77607,-0.74696 0.2396,-0.5142 0.74102,-0.31393 0.77607,-0.74696 -0.16128,-0.223 -0.93911,-0.39647 -0.76638,-0.66937 0.18583,-0.58598 0.75781,-0.25453 0.75665,-0.72755 -0.22963,-0.25221 -0.85604,-0.3361 -0.68876,-0.75669 0.151,-0.42576 0.79505,-0.20475 0.72759,-0.64995 -0.1782,-0.3826 -0.9259,-0.40495 -0.79548,-0.73724 0.26183,-0.223 0.7746,-0.3961 0.78579,-0.66937 -0.13208,-0.2459 -1.1263,-0.51314 -0.75669,-0.79899 0.17456,-0.47708 0.72254,-0.38972 0.71785,-0.65614 -0.1739,-0.34841 -0.98233,-0.42851 -0.76636,-0.75664 0.19313,-0.38847 0.7957,-0.29734 0.74696,-0.71786 -0.14836,-0.25321 -0.77385,-0.36192 -0.67904,-0.65965 0.11017,-0.40263 0.67299,-0.49114 0.66935,-0.75668 -0.22566,-0.2479 -0.87125,-0.41501 -0.65966,-0.74697 0.14203,-0.42765 0.71024,-0.33228 0.72758,-0.63055 -0.1928,-0.29599 -0.82757,-0.44258 -0.71789,-0.77605 0.22965,-0.23296 0.72639,-0.43002 0.68875,-0.69847 -0.23594,-0.23596 -0.81565,-0.37736 -0.70813,-0.70818 0.11781,-0.33613 0.80145,-0.20441 0.67904,-0.73723 -0.2522,-0.23927 -0.78044,-0.42145 -0.75665,-0.71786 0.19313,-0.33573 0.89413,-0.1417 0.78574,-0.69848 -0.2522,-0.21337 -0.75399,-0.41296 -0.75665,-0.64023 0.17356,-0.47129 0.77057,-0.43589 0.75665,-0.78578 -0.26648,-0.23562 -0.7266,-0.42945 -0.79543,-0.70818 0.23693,-0.39477 0.88231,-0.33814 0.82457,-0.75664 -0.25254,-0.22002 -0.80489,-0.58545 -0.72775,-0.82362 0.0133,-0.34286 0.67625,-0.69734 0.72696,-0.97817 -0.0205,-0.34536 0.0176,0.0256 -0.023,-0.26456 0.0933,-0.11589 -0.15609,-0.46263 -0.25721,-0.71785 -0.18118,-0.28142 -0.43039,-0.42763 -0.45642,-0.70894 0.1908,-0.22001 0.60108,-0.48507 0.5434,-0.80435 -0.12711,-0.26946 -0.60874,-0.417 -0.61116,-0.61113 0.086,-0.46624 0.48495,-0.49269 0.53354,-0.75665 -0.17456,-0.23594 -0.58555,-0.47212 -0.52382,-0.70817 0.0753,-0.43555 0.42035,-0.27178 0.63054,-0.40744 0.17687,-0.0969 0.1772,-0.26979 0.15531,-0.40744 -0.15531,-0.19082 -0.40921,-0.32754 -0.46566,-0.57234 l 0.0484,-3.09456 1.23199,-6.30554 c 0.0541,-0.117145 0.11051,-0.232289 0.29102,-0.222997 0.21141,0.05603 0.36329,0.141699 0.36868,0.30065 v 80.206357 h -1.9402 v -3.98703 c 0.10984,-0.0887 0.21736,-0.1782 0.21337,-0.32986 -0.23528,-0.15465 -0.22764,-0.27709 -0.28142,-0.40741 0.0913,-0.0916 0.26882,-0.12809 0.23297,-0.30065 -0.23263,-0.16725 -0.2542,-0.29734 -0.27178,-0.42686 0.18286,-0.16028 0.2595,-0.27245 0.30065,-0.36861 -0.13705,-0.1261 -0.31857,-0.2522 -0.27178,-0.37834 0.0919,-0.12611 0.27477,-0.24059 0.27178,-0.37831 -0.0902,-0.13806 -0.28075,-0.2927 -0.23296,-0.40745 0.0823,-0.12245 0.25387,-0.23494 0.23296,-0.36865 -0.10053,-0.13275 -0.32785,-0.30331 -0.30065,-0.39772 0.0876,-0.10425 0.24723,-0.12478 0.27178,-0.31029 0.0133,-0.13572 -0.36911,-0.28903 -0.2814,-0.43654 0.0972,-0.12943 0.41614,-0.25851 0.29103,-0.38803 -0.0867,-0.12312 -0.29435,-0.25719 -0.25222,-0.36865 0.10319,-0.12611 0.36222,-0.25221 0.30067,-0.37831 -0.094,-0.1228 -0.38578,-0.21936 -0.28141,-0.36865 0.0873,-0.11316 0.36619,-0.21471 0.2522,-0.33952 -0.10053,-0.13273 -0.36553,-0.30331 -0.30065,-0.39773 0.0969,-0.11647 0.36576,-0.21569 0.29103,-0.34922 l -0.18451,-0.35894 0.02,-0.53354 c -0.1845,-1.17594 -0.6561,-1.99578 -1.75584,-2.0372 -2.04751,-0.0471 -2.01818,1.2014 -2.3185,2.14388 v 0.61117 l -0.0776,0.31028 c 0.18218,-0.0232 0.2293,0.1198 0.30065,0.23296 -0.0166,0.18816 -0.20906,0.2595 -0.32986,0.37834 0.0869,0.12145 0.11183,0.23562 0.29103,0.36862 0.0772,0.13274 -0.16095,0.26515 -0.24259,0.39775 -0.006,0.13473 0.19281,0.29037 0.30066,0.43651 -0.12378,0.0946 -0.29999,0.1437 -0.32986,0.32024 -0.0166,0.17853 0.17223,0.26615 0.26184,0.39772 -0.0852,0.11615 -0.23761,0.12644 -0.2426,0.36866 -0.01,0.19313 0.17756,0.25452 0.27179,0.37834 -0.15365,0.11581 -0.27842,0.23694 -0.29103,0.37831 0.0541,0.11647 0.0332,0.23295 0.25222,0.34923 -0.0298,0.27909 -0.15996,0.25751 -0.26185,0.32024 -8.7e-4,0.1792 0.10852,0.31193 0.26185,0.42682 0.0976,0.19413 -0.16128,0.2459 -0.24259,0.36862 -0.0504,0.17024 0.17555,0.27941 0.27178,0.41716 -0.006,0.18252 -0.16759,0.21239 -0.24258,0.35894 -0.0577,0.12345 0.13108,0.27742 0.20376,0.41714 0.0574,0.17586 -0.14669,0.22099 -0.22302,0.32985 v 0.53354 h -2.03716 v -1.2805 h 0.80514 v -6.93608 l 0.17457,-1.16413 0.74695,-1.54244 v -0.2814 l -0.7315,-1.26704 -0.2094,-1.13877 v -6.9555 l -0.82456,-0.0199 z"
     id="profile_right"
     sodipodi:nodetypes="cccccscccccccccccccccccccccccccccccccccccccccccccccccccccccccccccccccccccccccccccccccccccccccccccccccccccccccccccccccccccccccccccccccccccccccccccccccccccccccccccccccc"
     inkscape:label="profile_right_corner" />
  <path
     style="fill:#e1ecec;fill-opacity:0.77;fill-rule:evenodd;stroke:#b81e1e;stroke-width:0.0108229"
     d="m 148.43597,0.01419169 h 20.93762 l 0,135.63185831 h -23.18193 l 0,-64.637309 h 2.23321 z"
     id="concrete_right"
     inkscape:label="concrete_right"
     sodipodi:nodetypes="ccccccc" />
  <rect
     style="fill:#404242;fill-opacity:0.341246;fill-rule:evenodd;stroke:#b81e1e;stroke-width:0.0185686"
     id="shadow"
     width="108.6935"
     height="0.013923001"
     x="40.630287"
     y="135.42212"
     inkscape:label="shadow" />
  <rect
     style="fill:#b8b8b8;fill-opacity:1;fill-rule:evenodd;stroke:#b81e1e;stroke-width:0.0353238"
     id="concrete_left"
     width="67.096909"
     height="38.671307"
     x="40.863121"
     y="96.807014" />
  <rect
     style="fill:#a39a9a;fill-rule:evenodd;stroke:#b81e1e;stroke-width:0.032998"
     id="finish_left"
     width="65.431473"
     height="24.943287"
     x="40.785812"
     y="71.756935" />
  <rect
     style="fill:#a39a9a;fill-rule:evenodd;stroke:#b81e1e;stroke-width:0.0328156"
     id="cover_left"
     width="65.305283"
     height="4.9671845"
     x="40.8936"
     y="66.77494" />
  <ellipse
     style="opacity:0;fill:none;fill-opacity:0;fill-rule:evenodd;stroke-width:0.00253958;stroke-opacity:0"
     id="bolt_left"
     cx="-71.038002"
     cy="-95.034943"
     rx="0.045000002"
     ry="0.028942173"
     inkscape:label="bolt_left"
     transform="scale(-1)" />
  <path
     style="fill:#5e5e5e;fill-rule:evenodd;stroke:#000000;stroke-width:0.0102192"
     d="M 39.444033,143.16475 H 53.24358 a 0.05222312,0.05222312 135 0 0 0.05222,-0.0522 v -8.6945 h 0.558538 v 1.20644 l -0.04876,0.12467 c 0.02918,0.0399 0.07687,0.0772 0.08294,0.12046 0.0087,0.0448 -0.04803,0.0765 -0.07306,0.11453 0.0219,0.039 0.07484,0.0594 0.06319,0.11849 0.01658,0.0534 -0.03523,0.0726 -0.05332,0.10861 0.01923,0.0401 0.04926,0.0532 0.05529,0.12638 0.01244,0.0596 -0.04343,0.0737 -0.06516,0.11059 0.02463,0.036 0.06631,0.0692 0.07109,0.10861 0.01622,0.0519 -0.04508,0.0715 -0.06911,0.10663 0.0229,0.0444 0.0783,0.0694 0.06714,0.13429 0.01436,0.0329 -0.04258,0.0658 -0.06517,0.0987 0.0273,0.0387 0.07057,0.0358 0.08096,0.11849 0.0036,0.0526 -0.04917,0.0744 -0.08294,0.10663 0.04415,0.0519 0.05788,0.0977 0.06517,0.14218 0.0042,0.039 -0.04068,0.0501 -0.06122,0.075 0.0191,0.0434 0.0683,0.0869 0.05727,0.13033 0.01694,0.0456 -0.04079,0.0764 -0.06122,0.11454 0.02297,0.0405 0.07202,0.0753 0.06517,0.12243 0.0021,0.0363 -0.04969,0.0658 -0.07504,0.0987 l 0.0395,0.11058 0.0039,0.16786 c 0.07061,0.3146 0.219364,0.57169 0.681284,0.59834 0.1672,-0.0739 0.312415,-0.002 0.556873,-0.58847 l -0.0059,-0.21524 0.03555,-0.0612 c -0.02114,-0.042 -0.06354,-0.0414 -0.06319,-0.12638 -0.02765,-0.0369 0.04001,-0.0737 0.06517,-0.11059 -0.03515,-0.0402 -0.06937,-0.0803 -0.07899,-0.12046 0.0055,-0.0563 0.05134,-0.0803 0.07701,-0.12046 -0.02818,-0.0249 -0.06377,-0.0386 -0.07109,-0.0948 -0.002,-0.0382 0.0465,-0.0763 0.07109,-0.11453 -0.02787,-0.0443 -0.07559,-0.0787 -0.07701,-0.13626 -0.0022,-0.0498 0.05792,-0.0685 0.08689,-0.10268 -0.03197,-0.0367 -0.0813,-0.0677 -0.08294,-0.11454 -0.0086,-0.0411 0.0473,-0.0751 0.07109,-0.11256 -0.02313,-0.0406 -0.07099,-0.0318 -0.06911,-0.12243 -0.02031,-0.0268 0.03858,-0.0719 0.06122,-0.10861 -0.02023,-0.0417 -0.06285,-0.0734 -0.05332,-0.12836 -0.01157,-0.0635 0.05134,-0.0711 0.07701,-0.10664 -0.02639,-0.0413 -0.06317,-0.0514 -0.07899,-0.1244 -0.0059,-0.0459 0.03809,-0.0633 0.05727,-0.0948 -0.02576,-0.0417 -0.06033,-0.0799 -0.06911,-0.12836 0.0041,-0.0382 0.05166,-0.0763 0.07899,-0.11453 -0.02367,-0.0204 -0.04034,-0.0479 -0.04542,-0.0869 v -0.0928 h 0.655611 v 0.43839 h -0.260665 v 2.2275 c 0.0031,0.26675 -0.09272,0.4637 -0.215246,0.64179 -0.13715,0.26848 -0.430789,0.37559 -0.805691,0.39889 h -0.58847 v 4.45895 H 39.427266 Z"
     id="profile_left"
     sodipodi:nodetypes="cccccccccccccccccccccccccccccccccccccccccccccccccccccccccccc"
     inkscape:path-effect="#path-effect1-2"
     inkscape:original-d="m 39.444033,143.16475 h 13.85177 v -8.74672 h 0.558538 v 1.20644 l -0.04876,0.12467 c 0.02918,0.0399 0.07687,0.0772 0.08294,0.12046 0.0087,0.0448 -0.04803,0.0765 -0.07306,0.11453 0.0219,0.039 0.07484,0.0594 0.06319,0.11849 0.01658,0.0534 -0.03523,0.0726 -0.05332,0.10861 0.01923,0.0401 0.04926,0.0532 0.05529,0.12638 0.01244,0.0596 -0.04343,0.0737 -0.06516,0.11059 0.02463,0.036 0.06631,0.0692 0.07109,0.10861 0.01622,0.0519 -0.04508,0.0715 -0.06911,0.10663 0.0229,0.0444 0.0783,0.0694 0.06714,0.13429 0.01436,0.0329 -0.04258,0.0658 -0.06517,0.0987 0.0273,0.0387 0.07057,0.0358 0.08096,0.11849 0.0036,0.0526 -0.04917,0.0744 -0.08294,0.10663 0.04415,0.0519 0.05788,0.0977 0.06517,0.14218 0.0042,0.039 -0.04068,0.0501 -0.06122,0.075 0.0191,0.0434 0.0683,0.0869 0.05727,0.13033 0.01694,0.0456 -0.04079,0.0764 -0.06122,0.11454 0.02297,0.0405 0.07202,0.0753 0.06517,0.12243 0.0021,0.0363 -0.04969,0.0658 -0.07504,0.0987 l 0.0395,0.11058 0.0039,0.16786 c 0.07061,0.3146 0.219364,0.57169 0.681284,0.59834 0.1672,-0.0739 0.312415,-0.002 0.556873,-0.58847 l -0.0059,-0.21524 0.03555,-0.0612 c -0.02114,-0.042 -0.06354,-0.0414 -0.06319,-0.12638 -0.02765,-0.0369 0.04001,-0.0737 0.06517,-0.11059 -0.03515,-0.0402 -0.06937,-0.0803 -0.07899,-0.12046 0.0055,-0.0563 0.05134,-0.0803 0.07701,-0.12046 -0.02818,-0.0249 -0.06377,-0.0386 -0.07109,-0.0948 -0.002,-0.0382 0.0465,-0.0763 0.07109,-0.11453 -0.02787,-0.0443 -0.07559,-0.0787 -0.07701,-0.13626 -0.0022,-0.0498 0.05792,-0.0685 0.08689,-0.10268 -0.03197,-0.0367 -0.0813,-0.0677 -0.08294,-0.11454 -0.0086,-0.0411 0.0473,-0.0751 0.07109,-0.11256 -0.02313,-0.0406 -0.07099,-0.0318 -0.06911,-0.12243 -0.02031,-0.0268 0.03858,-0.0719 0.06122,-0.10861 -0.02023,-0.0417 -0.06285,-0.0734 -0.05332,-0.12836 -0.01157,-0.0635 0.05134,-0.0711 0.07701,-0.10664 -0.02639,-0.0413 -0.06317,-0.0514 -0.07899,-0.1244 -0.0059,-0.0459 0.03809,-0.0633 0.05727,-0.0948 -0.02576,-0.0417 -0.06033,-0.0799 -0.06911,-0.12836 0.0041,-0.0382 0.05166,-0.0763 0.07899,-0.11453 -0.02367,-0.0204 -0.04034,-0.0479 -0.04542,-0.0869 v -0.0928 h 0.655611 v 0.43839 h -0.260665 v 2.2275 c 0.0031,0.26675 -0.09272,0.4637 -0.215246,0.64179 -0.13715,0.26848 -0.430789,0.37559 -0.805691,0.39889 h -0.58847 v 4.45895 H 39.427266 Z"
     transform="matrix(3.2211171,0,0,3.2211171,-65.418056,-366.23976)"
     inkscape:label="profile_left" />
</svg>
