<?xml version="1.0" encoding="UTF-8" standalone="no"?>
<!-- Created with Inkscape (http://www.inkscape.org/) -->

<svg
   width="210mm"
   height="297mm"
   viewBox="0 0 210 297"
   version="1.1"
   id="svg1"
   inkscape:version="1.4 (86a8ad7, 2024-10-11)"
   sodipodi:docname="DSHL-50-025.svg"
   xmlns:inkscape="http://www.inkscape.org/namespaces/inkscape"
   xmlns:sodipodi="http://sodipodi.sourceforge.net/DTD/sodipodi-0.dtd"
   xmlns="http://www.w3.org/2000/svg"
   xmlns:svg="http://www.w3.org/2000/svg">
  <sodipodi:namedview
     id="namedview1"
     pagecolor="#ffffff"
     bordercolor="#000000"
     borderopacity="0.25"
     inkscape:showpageshadow="2"
     inkscape:pageopacity="0.0"
     inkscape:pagecheckerboard="0"
     inkscape:deskcolor="#d1d1d1"
     inkscape:document-units="mm"
     inkscape:zoom="1.0467523"
     inkscape:cx="323.85887"
     inkscape:cy="307.14049"
     inkscape:window-width="2560"
     inkscape:window-height="1377"
     inkscape:window-x="-8"
     inkscape:window-y="-8"
     inkscape:window-maximized="1"
     inkscape:current-layer="svg1" />
  <defs
     id="defs1">
    <inkscape:path-effect
       effect="fillet_chamfer"
       id="path-effect1"
       is_visible="true"
       lpeversion="1"
       nodesatellites_param="F,0,0,1,0,0,0,1 @ F,0,0,1,0,0.052223123,0,1 @ F,0,0,1,0,0,0,1 @ F,0,0,1,0,0,0,1 @ F,0,0,1,0,0,0,1 @ F,0,0,1,0,0,0,1 @ F,0,0,1,0,0,0,1 @ F,0,0,1,0,0,0,1 @ F,0,0,1,0,0,0,1 @ F,0,0,1,0,0,0,1 @ F,0,0,1,0,0,0,1 @ F,0,0,1,0,0,0,1 @ F,0,0,1,0,0,0,1 @ F,0,0,1,0,0,0,1 @ F,0,0,1,0,0,0,1 @ F,0,0,1,0,0,0,1 @ F,0,0,1,0,0,0,1 @ F,0,0,1,0,0,0,1 @ F,0,0,1,0,0,0,1 @ F,0,0,1,0,0,0,1 @ F,0,0,1,0,0,0,1 @ F,0,0,1,0,0,0,1 @ F,0,0,1,0,0,0,1 @ F,0,0,1,0,0,0,1 @ F,0,0,1,0,0,0,1 @ F,0,0,1,0,0,0,1 @ F,0,0,1,0,0,0,1 @ F,0,0,1,0,0,0,1 @ F,0,0,1,0,0,0,1 @ F,0,0,1,0,0,0,1 @ F,0,0,1,0,0,0,1 @ F,0,0,1,0,0,0,1 @ F,0,0,1,0,0,0,1 @ F,0,0,1,0,0,0,1 @ F,0,0,1,0,0,0,1 @ F,0,0,1,0,0,0,1 @ F,0,0,1,0,0,0,1 @ F,0,0,1,0,0,0,1 @ F,0,0,1,0,0,0,1 @ F,0,0,1,0,0,0,1 @ F,0,0,1,0,0,0,1 @ F,0,0,1,0,0,0,1 @ F,0,0,1,0,0,0,1 @ F,0,0,1,0,0,0,1 @ F,0,0,1,0,0,0,1 @ F,0,0,1,0,0,0,1 @ F,0,0,1,0,0,0,1 @ F,0,0,1,0,0,0,1 @ F,0,0,1,0,0,0,1 @ F,0,0,1,0,0,0,1 @ F,0,0,1,0,0,0,1 @ F,0,0,1,0,0,0,1 @ F,0,0,1,0,0,0,1 @ F,0,0,1,0,0,0,1 @ F,0,0,1,0,0,0,1 @ F,0,0,1,0,0,0,1 @ F,0,0,1,0,0,0,1 @ F,0,0,1,0,0,0,1 @ F,0,0,1,0,0,0,1"
       radius="0"
       unit="px"
       method="auto"
       mode="F"
       chamfer_steps="1"
       flexible="false"
       use_knot_distance="true"
       apply_no_radius="true"
       apply_with_radius="true"
       only_selected="true"
       hide_knots="false" />
    <inkscape:path-effect
       effect="fillet_chamfer"
       id="path-effect1-2"
       is_visible="true"
       lpeversion="1"
       nodesatellites_param="F,0,0,1,0,0,0,1 @ F,0,0,1,0,0.052223123,0,1 @ F,0,0,1,0,0,0,1 @ F,0,0,1,0,0,0,1 @ F,0,0,1,0,0,0,1 @ F,0,0,1,0,0,0,1 @ F,0,0,1,0,0,0,1 @ F,0,0,1,0,0,0,1 @ F,0,0,1,0,0,0,1 @ F,0,0,1,0,0,0,1 @ F,0,0,1,0,0,0,1 @ F,0,0,1,0,0,0,1 @ F,0,0,1,0,0,0,1 @ F,0,0,1,0,0,0,1 @ F,0,0,1,0,0,0,1 @ F,0,0,1,0,0,0,1 @ F,0,0,1,0,0,0,1 @ F,0,0,1,0,0,0,1 @ F,0,0,1,0,0,0,1 @ F,0,0,1,0,0,0,1 @ F,0,0,1,0,0,0,1 @ F,0,0,1,0,0,0,1 @ F,0,0,1,0,0,0,1 @ F,0,0,1,0,0,0,1 @ F,0,0,1,0,0,0,1 @ F,0,0,1,0,0,0,1 @ F,0,0,1,0,0,0,1 @ F,0,0,1,0,0,0,1 @ F,0,0,1,0,0,0,1 @ F,0,0,1,0,0,0,1 @ F,0,0,1,0,0,0,1 @ F,0,0,1,0,0,0,1 @ F,0,0,1,0,0,0,1 @ F,0,0,1,0,0,0,1 @ F,0,0,1,0,0,0,1 @ F,0,0,1,0,0,0,1 @ F,0,0,1,0,0,0,1 @ F,0,0,1,0,0,0,1 @ F,0,0,1,0,0,0,1 @ F,0,0,1,0,0,0,1 @ F,0,0,1,0,0,0,1 @ F,0,0,1,0,0,0,1 @ F,0,0,1,0,0,0,1 @ F,0,0,1,0,0,0,1 @ F,0,0,1,0,0,0,1 @ F,0,0,1,0,0,0,1 @ F,0,0,1,0,0,0,1 @ F,0,0,1,0,0,0,1 @ F,0,0,1,0,0,0,1 @ F,0,0,1,0,0,0,1 @ F,0,0,1,0,0,0,1 @ F,0,0,1,0,0,0,1 @ F,0,0,1,0,0,0,1 @ F,0,0,1,0,0,0,1 @ F,0,0,1,0,0,0,1 @ F,0,0,1,0,0,0,1 @ F,0,0,1,0,0,0,1 @ F,0,0,1,0,0,0,1 @ F,0,0,1,0,0,0,1"
       radius="0"
       unit="px"
       method="auto"
       mode="F"
       chamfer_steps="1"
       flexible="false"
       use_knot_distance="true"
       apply_no_radius="true"
       apply_with_radius="true"
       only_selected="true"
       hide_knots="false" />
    <inkscape:path-effect
       effect="fillet_chamfer"
       id="path-effect1-2-3"
       is_visible="true"
       lpeversion="1"
       nodesatellites_param="F,0,0,1,0,0,0,1 @ F,0,0,1,0,0.052223123,0,1 @ F,0,0,1,0,0,0,1 @ F,0,0,1,0,0,0,1 @ F,0,0,1,0,0,0,1 @ F,0,0,1,0,0,0,1 @ F,0,0,1,0,0,0,1 @ F,0,0,1,0,0,0,1 @ F,0,0,1,0,0,0,1 @ F,0,0,1,0,0,0,1 @ F,0,0,1,0,0,0,1 @ F,0,0,1,0,0,0,1 @ F,0,0,1,0,0,0,1 @ F,0,0,1,0,0,0,1 @ F,0,0,1,0,0,0,1 @ F,0,0,1,0,0,0,1 @ F,0,0,1,0,0,0,1 @ F,0,0,1,0,0,0,1 @ F,0,0,1,0,0,0,1 @ F,0,0,1,0,0,0,1 @ F,0,0,1,0,0,0,1 @ F,0,0,1,0,0,0,1 @ F,0,0,1,0,0,0,1 @ F,0,0,1,0,0,0,1 @ F,0,0,1,0,0,0,1 @ F,0,0,1,0,0,0,1 @ F,0,0,1,0,0,0,1 @ F,0,0,1,0,0,0,1 @ F,0,0,1,0,0,0,1 @ F,0,0,1,0,0,0,1 @ F,0,0,1,0,0,0,1 @ F,0,0,1,0,0,0,1 @ F,0,0,1,0,0,0,1 @ F,0,0,1,0,0,0,1 @ F,0,0,1,0,0,0,1 @ F,0,0,1,0,0,0,1 @ F,0,0,1,0,0,0,1 @ F,0,0,1,0,0,0,1 @ F,0,0,1,0,0,0,1 @ F,0,0,1,0,0,0,1 @ F,0,0,1,0,0,0,1 @ F,0,0,1,0,0,0,1 @ F,0,0,1,0,0,0,1 @ F,0,0,1,0,0,0,1 @ F,0,0,1,0,0,0,1 @ F,0,0,1,0,0,0,1 @ F,0,0,1,0,0,0,1 @ F,0,0,1,0,0,0,1 @ F,0,0,1,0,0,0,1 @ F,0,0,1,0,0,0,1 @ F,0,0,1,0,0,0,1 @ F,0,0,1,0,0,0,1 @ F,0,0,1,0,0,0,1 @ F,0,0,1,0,0,0,1 @ F,0,0,1,0,0,0,1 @ F,0,0,1,0,0,0,1 @ F,0,0,1,0,0,0,1 @ F,0,0,1,0,0,0,1 @ F,0,0,1,0,0,0,1"
       radius="0"
       unit="px"
       method="auto"
       mode="F"
       chamfer_steps="1"
       flexible="false"
       use_knot_distance="true"
       apply_no_radius="true"
       apply_with_radius="true"
       only_selected="true"
       hide_knots="false" />
    <inkscape:path-effect
       effect="fillet_chamfer"
       id="path-effect1-2-38"
       is_visible="true"
       lpeversion="1"
       nodesatellites_param="F,0,0,1,0,0,0,1 @ F,0,0,1,0,0.052223123,0,1 @ F,0,0,1,0,0,0,1 @ F,0,0,1,0,0,0,1 @ F,0,0,1,0,0,0,1 @ F,0,0,1,0,0,0,1 @ F,0,0,1,0,0,0,1 @ F,0,0,1,0,0,0,1 @ F,0,0,1,0,0,0,1 @ F,0,0,1,0,0,0,1 @ F,0,0,1,0,0,0,1 @ F,0,0,1,0,0,0,1 @ F,0,0,1,0,0,0,1 @ F,0,0,1,0,0,0,1 @ F,0,0,1,0,0,0,1 @ F,0,0,1,0,0,0,1 @ F,0,0,1,0,0,0,1 @ F,0,0,1,0,0,0,1 @ F,0,0,1,0,0,0,1 @ F,0,0,1,0,0,0,1 @ F,0,0,1,0,0,0,1 @ F,0,0,1,0,0,0,1 @ F,0,0,1,0,0,0,1 @ F,0,0,1,0,0,0,1 @ F,0,0,1,0,0,0,1 @ F,0,0,1,0,0,0,1 @ F,0,0,1,0,0,0,1 @ F,0,0,1,0,0,0,1 @ F,0,0,1,0,0,0,1 @ F,0,0,1,0,0,0,1 @ F,0,0,1,0,0,0,1 @ F,0,0,1,0,0,0,1 @ F,0,0,1,0,0,0,1 @ F,0,0,1,0,0,0,1 @ F,0,0,1,0,0,0,1 @ F,0,0,1,0,0,0,1 @ F,0,0,1,0,0,0,1 @ F,0,0,1,0,0,0,1 @ F,0,0,1,0,0,0,1 @ F,0,0,1,0,0,0,1 @ F,0,0,1,0,0,0,1 @ F,0,0,1,0,0,0,1 @ F,0,0,1,0,0,0,1 @ F,0,0,1,0,0,0,1 @ F,0,0,1,0,0,0,1 @ F,0,0,1,0,0,0,1 @ F,0,0,1,0,0,0,1 @ F,0,0,1,0,0,0,1 @ F,0,0,1,0,0,0,1 @ F,0,0,1,0,0,0,1 @ F,0,0,1,0,0,0,1 @ F,0,0,1,0,0,0,1 @ F,0,0,1,0,0,0,1 @ F,0,0,1,0,0,0,1 @ F,0,0,1,0,0,0,1 @ F,0,0,1,0,0,0,1 @ F,0,0,1,0,0,0,1 @ F,0,0,1,0,0,0,1 @ F,0,0,1,0,0,0,1"
       radius="0"
       unit="px"
       method="auto"
       mode="F"
       chamfer_steps="1"
       flexible="false"
       use_knot_distance="true"
       apply_no_radius="true"
       apply_with_radius="true"
       only_selected="true"
       hide_knots="false" />
    <inkscape:path-effect
       effect="fillet_chamfer"
       id="path-effect8-6"
       is_visible="true"
       lpeversion="1"
       nodesatellites_param="F,0,0,1,0,0,0,1 @ F,0,0,1,0,0,0,1 @ F,0,0,1,0,0,0,1 @ F,0,0,1,0,0,0,1 @ F,0,0,1,0,0,0,1 @ F,0,0,1,0,0,0,1 @ F,0,0,1,0,0,0,1 @ F,0,0,1,0,0,0,1 @ F,0,0,1,0,0,0,1 @ F,0,0,1,0,0,0,1 @ F,0,0,1,0,0,0,1 @ F,0,0,1,0,0,0,1 @ F,0,0,1,0,0,0,1 @ F,0,0,1,0,0,0,1 @ F,0,0,1,0,0,0,1 @ F,0,0,1,0,0,0,1 @ F,0,0,1,0,0,0,1 @ F,0,0,1,0,0,0,1 @ F,0,0,1,0,0,0,1 @ F,0,0,1,0,0,0,1 @ F,0,0,1,0,0,0,1 @ F,0,0,1,0,0,0,1 @ F,0,0,1,0,0,0,1 @ F,0,0,1,0,0,0,1 @ F,0,0,1,0,0,0,1 @ F,0,0,1,0,0,0,1 @ F,0,0,1,0,0,0,1 @ F,0,0,1,0,0,0,1 @ F,0,0,1,0,0.055330264,0,1 @ F,0,0,1,0,0,0,1 @ F,0,0,1,0,0,0,1 @ F,0,0,1,0,0,0,1 @ F,0,1,1,0,0.073794047,0,1 @ F,0,0,1,0,0,0,1 @ F,0,0,1,0,0,0,1 @ F,0,0,1,0,0,0,1 @ F,0,0,1,0,0,0,1 @ F,0,0,1,0,0,0,1 @ F,0,0,1,0,0,0,1 @ F,0,0,1,0,0,0,1 @ F,0,0,1,0,0,0,1 @ F,0,0,1,0,0,0,1 @ F,0,0,1,0,0,0,1 @ F,0,0,1,0,0,0,1 @ F,0,0,1,0,0,0,1 @ F,0,0,1,0,0,0,1 @ F,0,0,1,0,0,0,1 @ F,0,0,1,0,0,0,1 @ F,0,0,1,0,0,0,1 @ F,0,0,1,0,0,0,1 @ F,0,0,1,0,0,0,1 @ F,0,0,1,0,0,0,1 @ F,0,0,1,0,0,0,1 @ F,0,0,1,0,0,0,1 @ F,0,0,1,0,0,0,1 @ F,0,0,1,0,0,0,1 @ F,0,0,1,0,0,0,1 @ F,0,0,1,0,0,0,1 @ F,0,0,1,0,0,0,1 @ F,0,0,1,0,0,0,1 @ F,0,0,1,0,0,0,1 @ F,0,0,1,0,0,0,1 @ F,0,0,1,0,0,0,1 @ F,0,0,1,0,0,0,1 @ F,0,0,1,0,0,0,1 @ F,0,0,1,0,0,0,1 @ F,0,0,1,0,0,0,1 @ F,0,0,1,0,0,0,1 @ F,0,0,1,0,0,0,1 @ F,0,0,1,0,0,0,1 @ F,0,0,1,0,0,0,1 @ F,0,0,1,0,0,0,1 @ F,0,0,1,0,0,0,1 @ F,0,0,1,0,0,0,1 @ F,0,0,1,0,0,0,1 @ F,0,0,1,0,0,0,1 @ F,0,0,1,0,0,0,1 @ F,0,0,1,0,0,0,1 @ F,0,0,1,0,0,0,1 @ F,0,0,1,0,0,0,1 @ F,0,0,1,0,0,0,1 @ F,0,0,1,0,0,0,1 @ F,0,0,1,0,0,0,1 @ F,0,0,1,0,0,0,1 @ F,0,0,1,0,0,0,1 @ F,0,0,1,0,0,0,1 @ F,0,0,1,0,0,0,1 @ F,0,0,1,0,0,0,1 @ F,0,0,1,0,0,0,1 @ F,0,0,1,0,0,0,1 @ F,0,0,1,0,0,0,1 @ F,0,0,1,0,0,0,1 @ F,0,0,1,0,0,0,1 @ F,0,0,1,0,0,0,1 @ F,0,0,1,0,0,0,1 @ F,0,0,1,0,0,0,1 @ F,0,0,1,0,0,0,1 @ F,0,0,1,0,0,0,1 @ F,0,0,1,0,0,0,1 @ F,0,0,1,0,0,0,1 @ F,0,0,1,0,0,0,1 @ F,0,0,1,0,0,0,1 @ F,0,0,1,0,0,0,1 @ F,0,0,1,0,0,0,1 @ F,0,0,1,0,0,0,1 @ F,0,0,1,0,0,0,1 @ F,0,0,1,0,0,0,1 @ F,0,0,1,0,0,0,1 @ F,0,0,1,0,0,0,1 @ F,0,0,1,0,0,0,1 @ F,0,0,1,0,0,0,1 @ F,0,0,1,0,0,0,1 @ F,0,0,1,0,0,0,1 @ F,0,0,1,0,0,0,1 @ F,0,0,1,0,0,0,1 @ F,0,0,1,0,0,0,1 @ F,0,0,1,0,0,0,1"
       radius="0"
       unit="px"
       method="auto"
       mode="F"
       chamfer_steps="1"
       flexible="false"
       use_knot_distance="true"
       apply_no_radius="true"
       apply_with_radius="true"
       only_selected="true"
       hide_knots="false" />
  </defs>
  <path
     style="fill:#070707;fill-opacity:0.768047;fill-rule:evenodd;stroke:#b81e1e;stroke-width:0.02997"
     d="M 92.029284,0.11537673 V 1.5490637 c 0,0 -0.009,0.02434 0.0273,0.06364 0.0364,0.03941 0.85777,0.527395 0.85777,0.527395 l 0.009,2.95224 -0.10909,0.03337 -0.51528,-0.412222 c -0.20027,-0.02669 -0.37066,0.0065 -0.491032,0.139421 -0.166138,0.185729 -0.138483,0.352114 -0.0788,0.515275 l 0.13033,0.206111 1.057802,0.894155 v 1.873183 l -0.0205,0.01818 h -0.0698 l -0.5304,-0.375851 c -0.18115,-0.03117 -0.34264,-0.0073 -0.466772,0.121239 -0.189952,0.172942 -0.189013,0.368771 -0.09396,0.5759 l 1.182122,1.0548056 v 1.8762177 l -0.0302,0.02112 h -0.0607 l -0.39099,-0.330384 c -0.14962,-0.06798 -0.40898,-0.159071 -0.612292,0.06059 -0.193794,0.157986 -0.142823,0.347911 -0.0788,0.539535 l 0.09396,0.160654 1.776192,1.506423 1.10027,0.0062 1.78831,-1.521586 c 0.14957,-0.215202 0.222,-0.430408 0.0425,-0.64561 -0.23022,-0.25802 -0.44102,-0.196433 -0.64863,-0.08185 l -0.37585,0.309169 -0.0727,0.0032 -0.0264,-0.02727 -0.003,-1.8792507 1.16696,-1.0366196 c 0.10997,-0.184908 0.12962,-0.369786 -0.0455,-0.554679 -0.19913,-0.160654 -0.39806,-0.228693 -0.5971,-0.08185 l -0.4183,0.312193 h -0.1 v -1.915619 l 1.06997,-0.900214 c 0.1003,-0.191066 0.23755,-0.36412 0.0516,-0.675929 -0.18858,-0.115285 -0.36143,-0.28503 -0.64866,-0.06059 l -0.36674,0.300076 -0.11525,-0.03033 v -1.542809 h 3.600902 l 1.770134,1.730726 c 0.12405,0.141034 0.28212,0.180245 0.45161,0.184878 0.15543,-0.02317 0.30591,-0.04986 0.42738,-0.184878 l 1.77013,-1.733753 h 3.44931 l 1.76408,1.727694 c 0.13168,0.116927 0.27949,0.179247 0.44557,0.181858 0.17978,-0.0024 0.33357,-0.0488 0.43343,-0.187929 l 1.72467,-1.71254 h 3.6434 v 1.542801 l -0.11203,0.0364 -0.51833,-0.418282 c -0.22318,-0.01789 -0.39055,0.03006 -0.488,0.160654 -0.11291,0.09995 -0.1833,0.234119 -0.0698,0.515278 l 0.13637,0.200041 1.04267,0.872939 v 1.876216 l -0.0264,0.03337 -0.0698,-0.01202 -0.51225,-0.375854 c -0.2094,-0.06431 -0.36167,0.03279 -0.50314,0.160654 -0.16394,0.150273 -0.13403,0.344629 -0.0484,0.551647 l 1.17001,1.0517706 0.003,1.8671227 -0.0264,0.02728 -0.0727,-0.01202 -0.4092,-0.32735 c -0.21262,-0.100533 -0.41944,-0.128189 -0.60924,0.06666 -0.14429,0.165258 -0.14458,0.352131 -0.0607,0.551643 l 0.11819,0.148513 1.76711,1.509459 h 1.08205 l 1.78227,-1.515518 c 0.12141,-0.200686 0.28535,-0.392089 0.0545,-0.669861 -0.21614,-0.231949 -0.43243,-0.166872 -0.64863,-0.08487 l -0.37891,0.318261 -0.0757,0.0062 -0.0455,-0.03942 -0.0264,-0.08789 V 9.7334113 l 1.2215,-1.0396436 c 0.0871,-0.180861 0.10265,-0.361707 -0.0607,-0.542558 -0.16569,-0.17259 -0.33139,-0.250513 -0.49709,-0.160654 l -0.46073,0.345538 -0.0607,0.02727 -0.0666,0.0032 -0.0818,-0.08789 v -1.809531 l 1.13666,-0.918403 c 0.18388,-0.224998 0.16013,-0.457709 0.0364,-0.694118 -0.20735,-0.167311 -0.42073,-0.181417 -0.63957,-0.05153 l -0.36372,0.321288 -0.13343,-0.04244 -0.0364,-0.07581 v -2.858278 l 0.93964,-0.557712 -0.003,-1.47005497 h -7.11993 l -1.84588,2.40664697 c -0.0466,0.04593 -0.10587,0.08613 -0.22435,0.100035 -0.093,-0.0062 -0.16364,-0.04569 -0.22435,-0.100035 L 106.9613,0.11905873 h -3.61906 l -1.88227,2.40967297 c -0.0622,0.04091 -0.10176,0.09141 -0.23931,0.100035 -0.1088,-0.0024 -0.17215,-0.05012 -0.22435,-0.109127 L 99.107956,0.11298773 Z"
     id="compensator"
     sodipodi:nodetypes="ccsccccccccccccccccccccccccccccccccccccccccccccccccccccccccccccccccccccccccccccccccccccccccccccccccccccccccccccccccc"
     inkscape:label="compensator" />
  <path
     style="fill:#5e5e5e;fill-rule:evenodd;stroke:#000000;stroke-width:0.0102192"
     d="m 39.42756,149.46573 h 13.81602 a 0.05222312,0.05222312 135 0 0 0.05222,-0.0522 V 134.418 h 0.558538 v 1.20644 l -0.04876,0.12467 c 0.02918,0.0399 0.07687,0.0772 0.08294,0.12046 0.0087,0.0448 -0.04803,0.0765 -0.07306,0.11453 0.0219,0.039 0.07484,0.0594 0.06319,0.11849 0.01658,0.0534 -0.03523,0.0726 -0.05332,0.10861 0.01923,0.0401 0.04926,0.0532 0.05529,0.12638 0.01244,0.0596 -0.04343,0.0737 -0.06516,0.11059 0.02463,0.036 0.06631,0.0692 0.07109,0.10861 0.01622,0.0519 -0.04508,0.0715 -0.06911,0.10663 0.0229,0.0444 0.0783,0.0694 0.06714,0.13429 0.01436,0.0329 -0.04258,0.0658 -0.06517,0.0987 0.0273,0.0387 0.07057,0.0358 0.08096,0.11849 0.0036,0.0526 -0.04917,0.0744 -0.08294,0.10663 0.04415,0.0519 0.05788,0.0977 0.06517,0.14218 0.0042,0.039 -0.04068,0.0501 -0.06122,0.075 0.0191,0.0434 0.0683,0.0869 0.05727,0.13033 0.01694,0.0456 -0.04079,0.0764 -0.06122,0.11454 0.02297,0.0405 0.07202,0.0753 0.06517,0.12243 0.0021,0.0363 -0.04969,0.0658 -0.07504,0.0987 l 0.0395,0.11058 0.0039,0.16786 c 0.07061,0.3146 0.219364,0.57169 0.681284,0.59834 0.1672,-0.0739 0.312415,-0.002 0.556873,-0.58847 l -0.0059,-0.21524 0.03555,-0.0612 c -0.02114,-0.042 -0.06354,-0.0414 -0.06319,-0.12638 -0.02765,-0.0369 0.04001,-0.0737 0.06517,-0.11059 -0.03515,-0.0402 -0.06937,-0.0803 -0.07899,-0.12046 0.0055,-0.0563 0.05134,-0.0803 0.07701,-0.12046 -0.02818,-0.0249 -0.06377,-0.0386 -0.07109,-0.0948 -0.002,-0.0382 0.0465,-0.0763 0.07109,-0.11453 -0.02787,-0.0443 -0.07559,-0.0787 -0.07701,-0.13626 -0.0022,-0.0498 0.05792,-0.0685 0.08689,-0.10268 -0.03197,-0.0367 -0.0813,-0.0677 -0.08294,-0.11454 -0.0086,-0.0411 0.0473,-0.0751 0.07109,-0.11256 -0.02313,-0.0406 -0.07099,-0.0318 -0.06911,-0.12243 -0.02031,-0.0268 0.03858,-0.0719 0.06122,-0.10861 -0.02023,-0.0417 -0.06285,-0.0734 -0.05332,-0.12836 -0.01157,-0.0635 0.05134,-0.0711 0.07701,-0.10664 -0.02639,-0.0413 -0.06317,-0.0514 -0.07899,-0.1244 -0.0059,-0.0459 0.03809,-0.0633 0.05727,-0.0948 -0.02576,-0.0417 -0.06033,-0.0799 -0.06911,-0.12836 0.0041,-0.0382 0.05166,-0.0763 0.07899,-0.11453 -0.02367,-0.0204 -0.04034,-0.0479 -0.04542,-0.0869 v -0.0928 h 0.655611 v 0.43839 h -0.260665 v 2.2275 c 0.0031,0.26675 -0.09272,0.4637 -0.215246,0.64179 -0.13715,0.26848 -0.430789,0.37559 -0.805691,0.39889 h -0.58847 v 10.75691 H 39.427266 Z"
     id="profile_left"
     sodipodi:nodetypes="cccccccccccccccccccccccccccccccccccccccccccccccccccccccccccc"
     inkscape:path-effect="#path-effect1-2"
     inkscape:original-d="M 39.42756,149.46573 H 53.295803 V 134.418 h 0.558538 v 1.20644 l -0.04876,0.12467 c 0.02918,0.0399 0.07687,0.0772 0.08294,0.12046 0.0087,0.0448 -0.04803,0.0765 -0.07306,0.11453 0.0219,0.039 0.07484,0.0594 0.06319,0.11849 0.01658,0.0534 -0.03523,0.0726 -0.05332,0.10861 0.01923,0.0401 0.04926,0.0532 0.05529,0.12638 0.01244,0.0596 -0.04343,0.0737 -0.06516,0.11059 0.02463,0.036 0.06631,0.0692 0.07109,0.10861 0.01622,0.0519 -0.04508,0.0715 -0.06911,0.10663 0.0229,0.0444 0.0783,0.0694 0.06714,0.13429 0.01436,0.0329 -0.04258,0.0658 -0.06517,0.0987 0.0273,0.0387 0.07057,0.0358 0.08096,0.11849 0.0036,0.0526 -0.04917,0.0744 -0.08294,0.10663 0.04415,0.0519 0.05788,0.0977 0.06517,0.14218 0.0042,0.039 -0.04068,0.0501 -0.06122,0.075 0.0191,0.0434 0.0683,0.0869 0.05727,0.13033 0.01694,0.0456 -0.04079,0.0764 -0.06122,0.11454 0.02297,0.0405 0.07202,0.0753 0.06517,0.12243 0.0021,0.0363 -0.04969,0.0658 -0.07504,0.0987 l 0.0395,0.11058 0.0039,0.16786 c 0.07061,0.3146 0.219364,0.57169 0.681284,0.59834 0.1672,-0.0739 0.312415,-0.002 0.556873,-0.58847 l -0.0059,-0.21524 0.03555,-0.0612 c -0.02114,-0.042 -0.06354,-0.0414 -0.06319,-0.12638 -0.02765,-0.0369 0.04001,-0.0737 0.06517,-0.11059 -0.03515,-0.0402 -0.06937,-0.0803 -0.07899,-0.12046 0.0055,-0.0563 0.05134,-0.0803 0.07701,-0.12046 -0.02818,-0.0249 -0.06377,-0.0386 -0.07109,-0.0948 -0.002,-0.0382 0.0465,-0.0763 0.07109,-0.11453 -0.02787,-0.0443 -0.07559,-0.0787 -0.07701,-0.13626 -0.0022,-0.0498 0.05792,-0.0685 0.08689,-0.10268 -0.03197,-0.0367 -0.0813,-0.0677 -0.08294,-0.11454 -0.0086,-0.0411 0.0473,-0.0751 0.07109,-0.11256 -0.02313,-0.0406 -0.07099,-0.0318 -0.06911,-0.12243 -0.02031,-0.0268 0.03858,-0.0719 0.06122,-0.10861 -0.02023,-0.0417 -0.06285,-0.0734 -0.05332,-0.12836 -0.01157,-0.0635 0.05134,-0.0711 0.07701,-0.10664 -0.02639,-0.0413 -0.06317,-0.0514 -0.07899,-0.1244 -0.0059,-0.0459 0.03809,-0.0633 0.05727,-0.0948 -0.02576,-0.0417 -0.06033,-0.0799 -0.06911,-0.12836 0.0041,-0.0382 0.05166,-0.0763 0.07899,-0.11453 -0.02367,-0.0204 -0.04034,-0.0479 -0.04542,-0.0869 v -0.0928 h 0.655611 v 0.43839 h -0.260665 v 2.2275 c 0.0031,0.26675 -0.09272,0.4637 -0.215246,0.64179 -0.13715,0.26848 -0.430789,0.37559 -0.805691,0.39889 h -0.58847 v 10.75691 H 39.427266 Z"
     transform="matrix(3.2211171,0,0,3.2211171,-81.369732,-432.95963)"
     inkscape:label="profile_left" />
  <path
     style="fill:#5e5e5e;fill-rule:evenodd;stroke:#000000;stroke-width:0.0102192"
     d="m 39.42756,149.46573 h 13.81602 a 0.05222312,0.05222312 135 0 0 0.05222,-0.0522 V 134.418 h 0.558538 v 1.20644 l -0.04876,0.12467 c 0.02918,0.0399 0.07687,0.0772 0.08294,0.12046 0.0087,0.0448 -0.04803,0.0765 -0.07306,0.11453 0.0219,0.039 0.07484,0.0594 0.06319,0.11849 0.01658,0.0534 -0.03523,0.0726 -0.05332,0.10861 0.01923,0.0401 0.04926,0.0532 0.05529,0.12638 0.01244,0.0596 -0.04343,0.0737 -0.06516,0.11059 0.02463,0.036 0.06631,0.0692 0.07109,0.10861 0.01622,0.0519 -0.04508,0.0715 -0.06911,0.10663 0.0229,0.0444 0.0783,0.0694 0.06714,0.13429 0.01436,0.0329 -0.04258,0.0658 -0.06517,0.0987 0.0273,0.0387 0.07057,0.0358 0.08096,0.11849 0.0036,0.0526 -0.04917,0.0744 -0.08294,0.10663 0.04415,0.0519 0.05788,0.0977 0.06517,0.14218 0.0042,0.039 -0.04068,0.0501 -0.06122,0.075 0.0191,0.0434 0.0683,0.0869 0.05727,0.13033 0.01694,0.0456 -0.04079,0.0764 -0.06122,0.11454 0.02297,0.0405 0.07202,0.0753 0.06517,0.12243 0.0021,0.0363 -0.04969,0.0658 -0.07504,0.0987 l 0.0395,0.11058 0.0039,0.16786 c 0.07061,0.3146 0.219364,0.57169 0.681284,0.59834 0.1672,-0.0739 0.312415,-0.002 0.556873,-0.58847 l -0.0059,-0.21524 0.03555,-0.0612 c -0.02114,-0.042 -0.06354,-0.0414 -0.06319,-0.12638 -0.02765,-0.0369 0.04001,-0.0737 0.06517,-0.11059 -0.03515,-0.0402 -0.06937,-0.0803 -0.07899,-0.12046 0.0055,-0.0563 0.05134,-0.0803 0.07701,-0.12046 -0.02818,-0.0249 -0.06377,-0.0386 -0.07109,-0.0948 -0.002,-0.0382 0.0465,-0.0763 0.07109,-0.11453 -0.02787,-0.0443 -0.07559,-0.0787 -0.07701,-0.13626 -0.0022,-0.0498 0.05792,-0.0685 0.08689,-0.10268 -0.03197,-0.0367 -0.0813,-0.0677 -0.08294,-0.11454 -0.0086,-0.0411 0.0473,-0.0751 0.07109,-0.11256 -0.02313,-0.0406 -0.07099,-0.0318 -0.06911,-0.12243 -0.02031,-0.0268 0.03858,-0.0719 0.06122,-0.10861 -0.02023,-0.0417 -0.06285,-0.0734 -0.05332,-0.12836 -0.01157,-0.0635 0.05134,-0.0711 0.07701,-0.10664 -0.02639,-0.0413 -0.06317,-0.0514 -0.07899,-0.1244 -0.0059,-0.0459 0.03809,-0.0633 0.05727,-0.0948 -0.02576,-0.0417 -0.06033,-0.0799 -0.06911,-0.12836 0.0041,-0.0382 0.05166,-0.0763 0.07899,-0.11453 -0.02367,-0.0204 -0.04034,-0.0479 -0.04542,-0.0869 v -0.0928 h 0.655611 v 0.43839 h -0.260665 v 2.2275 c 0.0031,0.26675 -0.09272,0.4637 -0.215246,0.64179 -0.13715,0.26848 -0.430789,0.37559 -0.805691,0.39889 h -0.58847 v 10.75691 H 39.427266 Z"
     id="profile_right"
     sodipodi:nodetypes="cccccccccccccccccccccccccccccccccccccccccccccccccccccccccccc"
     inkscape:path-effect="#path-effect1-2-38"
     inkscape:original-d="M 39.42756,149.46573 H 53.295803 V 134.418 h 0.558538 v 1.20644 l -0.04876,0.12467 c 0.02918,0.0399 0.07687,0.0772 0.08294,0.12046 0.0087,0.0448 -0.04803,0.0765 -0.07306,0.11453 0.0219,0.039 0.07484,0.0594 0.06319,0.11849 0.01658,0.0534 -0.03523,0.0726 -0.05332,0.10861 0.01923,0.0401 0.04926,0.0532 0.05529,0.12638 0.01244,0.0596 -0.04343,0.0737 -0.06516,0.11059 0.02463,0.036 0.06631,0.0692 0.07109,0.10861 0.01622,0.0519 -0.04508,0.0715 -0.06911,0.10663 0.0229,0.0444 0.0783,0.0694 0.06714,0.13429 0.01436,0.0329 -0.04258,0.0658 -0.06517,0.0987 0.0273,0.0387 0.07057,0.0358 0.08096,0.11849 0.0036,0.0526 -0.04917,0.0744 -0.08294,0.10663 0.04415,0.0519 0.05788,0.0977 0.06517,0.14218 0.0042,0.039 -0.04068,0.0501 -0.06122,0.075 0.0191,0.0434 0.0683,0.0869 0.05727,0.13033 0.01694,0.0456 -0.04079,0.0764 -0.06122,0.11454 0.02297,0.0405 0.07202,0.0753 0.06517,0.12243 0.0021,0.0363 -0.04969,0.0658 -0.07504,0.0987 l 0.0395,0.11058 0.0039,0.16786 c 0.07061,0.3146 0.219364,0.57169 0.681284,0.59834 0.1672,-0.0739 0.312415,-0.002 0.556873,-0.58847 l -0.0059,-0.21524 0.03555,-0.0612 c -0.02114,-0.042 -0.06354,-0.0414 -0.06319,-0.12638 -0.02765,-0.0369 0.04001,-0.0737 0.06517,-0.11059 -0.03515,-0.0402 -0.06937,-0.0803 -0.07899,-0.12046 0.0055,-0.0563 0.05134,-0.0803 0.07701,-0.12046 -0.02818,-0.0249 -0.06377,-0.0386 -0.07109,-0.0948 -0.002,-0.0382 0.0465,-0.0763 0.07109,-0.11453 -0.02787,-0.0443 -0.07559,-0.0787 -0.07701,-0.13626 -0.0022,-0.0498 0.05792,-0.0685 0.08689,-0.10268 -0.03197,-0.0367 -0.0813,-0.0677 -0.08294,-0.11454 -0.0086,-0.0411 0.0473,-0.0751 0.07109,-0.11256 -0.02313,-0.0406 -0.07099,-0.0318 -0.06911,-0.12243 -0.02031,-0.0268 0.03858,-0.0719 0.06122,-0.10861 -0.02023,-0.0417 -0.06285,-0.0734 -0.05332,-0.12836 -0.01157,-0.0635 0.05134,-0.0711 0.07701,-0.10664 -0.02639,-0.0413 -0.06317,-0.0514 -0.07899,-0.1244 -0.0059,-0.0459 0.03809,-0.0633 0.05727,-0.0948 -0.02576,-0.0417 -0.06033,-0.0799 -0.06911,-0.12836 0.0041,-0.0382 0.05166,-0.0763 0.07899,-0.11453 -0.02367,-0.0204 -0.04034,-0.0479 -0.04542,-0.0869 v -0.0928 h 0.655611 v 0.43839 h -0.260665 v 2.2275 c 0.0031,0.26675 -0.09272,0.4637 -0.215246,0.64179 -0.13715,0.26848 -0.430789,0.37559 -0.805691,0.39889 h -0.58847 v 10.75691 H 39.427266 Z"
     transform="matrix(-3.2211171,0,0,3.2211171,291.60924,-432.95966)"
     inkscape:label="profile_right" />
  <rect
     style="fill:#b8b8b8;fill-opacity:1;fill-rule:evenodd;stroke:#b81e1e;stroke-width:0.0285643"
     id="concrete_right"
     width="69.971436"
     height="24.248436"
     x="118.05421"
     y="50.349983" />
  <rect
     style="fill:#a39a9a;fill-rule:evenodd;stroke:#b81e1e;stroke-width:0.0450953"
     id="finish_right"
     width="67.6408"
     height="45.063812"
     x="120.02116"
     y="5.0788126" />
  <rect
     style="fill:#a39a9a;fill-rule:evenodd;stroke:#b81e1e;stroke-width:0.033401"
     id="cover_right"
     width="67.664902"
     height="4.966599"
     x="120.07098"
     y="0.067734167" />
  <rect
     style="fill:#b8b8b8;fill-opacity:1;fill-rule:evenodd;stroke:#b81e1e;stroke-width:0.028598"
     id="concrete_left"
     width="70.136826"
     height="24.248425"
     x="21.974375"
     y="50.364967" />
  <rect
     style="fill:#a39a9a;fill-rule:evenodd;stroke:#b81e1e;stroke-width:0.0452834"
     id="finish_left"
     width="68.204872"
     height="45.063717"
     x="22.047466"
     y="5.1663141" />
  <rect
     style="fill:#a39a9a;fill-rule:evenodd;stroke:#b81e1e;stroke-width:0.0331613"
     id="cover_left"
     width="68.164658"
     height="4.8596482"
     x="22.078569"
     y="0.21386759" />
  <rect
     style="fill:#404242;fill-opacity:0.341246;fill-rule:evenodd;stroke:#b81e1e;stroke-width:0.0205577"
     id="shadow"
     width="155.4317"
     height="0.011933953"
     x="22.341311"
     y="74.560295"
     inkscape:label="shadow" />
  <ellipse
     style="opacity:0;fill:none;fill-opacity:0;fill-rule:evenodd;stroke-width:0.00253958;stroke-opacity:0"
     id="bolt_left"
     cx="-56.058464"
     cy="-48.586941"
     rx="0.045000002"
     ry="0.028942173"
     inkscape:label="bolt_left"
     transform="scale(-1)" />
  <ellipse
     style="opacity:0;fill:none;fill-opacity:0;fill-rule:evenodd;stroke-width:0.000191947;stroke-opacity:0"
     id="bolt_right"
     cx="154.21883"
     cy="48.589504"
     rx="0.0049418169"
     ry="0.0015055466"
     inkscape:label="bolt_right" />
</svg>
