<?xml version="1.0" encoding="UTF-8" standalone="no"?>
<!-- Created with Inkscape (http://www.inkscape.org/) -->

<svg
   width="210mm"
   height="297mm"
   viewBox="0 0 210 297"
   version="1.1"
   id="svg1"
   inkscape:version="1.4 (86a8ad7, 2024-10-11)"
   sodipodi:docname="DSHL-15-030.svg"
   xmlns:inkscape="http://www.inkscape.org/namespaces/inkscape"
   xmlns:sodipodi="http://sodipodi.sourceforge.net/DTD/sodipodi-0.dtd"
   xmlns="http://www.w3.org/2000/svg"
   xmlns:svg="http://www.w3.org/2000/svg">
  <sodipodi:namedview
     id="namedview1"
     pagecolor="#ffffff"
     bordercolor="#000000"
     borderopacity="0.25"
     inkscape:showpageshadow="2"
     inkscape:pageopacity="0.0"
     inkscape:pagecheckerboard="0"
     inkscape:deskcolor="#d1d1d1"
     inkscape:document-units="mm"
     inkscape:zoom="1.0467522"
     inkscape:cx="458.56124"
     inkscape:cy="61.619167"
     inkscape:window-width="2560"
     inkscape:window-height="1377"
     inkscape:window-x="-8"
     inkscape:window-y="-8"
     inkscape:window-maximized="1"
     inkscape:current-layer="svg1" />
  <defs
     id="defs1">
    <inkscape:path-effect
       effect="fillet_chamfer"
       id="path-effect8"
       is_visible="true"
       lpeversion="1"
       nodesatellites_param="F,0,0,1,0,0,0,1 @ F,0,0,1,0,0,0,1 @ F,0,0,1,0,0,0,1 @ F,0,0,1,0,0,0,1 @ F,0,0,1,0,0,0,1 @ F,0,0,1,0,0,0,1 @ F,0,0,1,0,0,0,1 @ F,0,0,1,0,0,0,1 @ F,0,0,1,0,0,0,1 @ F,0,0,1,0,0,0,1 @ F,0,0,1,0,0,0,1 @ F,0,0,1,0,0,0,1 @ F,0,0,1,0,0,0,1 @ F,0,0,1,0,0,0,1 @ F,0,0,1,0,0,0,1 @ F,0,0,1,0,0,0,1 @ F,0,0,1,0,0,0,1 @ F,0,0,1,0,0,0,1 @ F,0,0,1,0,0,0,1 @ F,0,0,1,0,0,0,1 @ F,0,0,1,0,0,0,1 @ F,0,0,1,0,0,0,1 @ F,0,0,1,0,0,0,1 @ F,0,0,1,0,0,0,1 @ F,0,0,1,0,0,0,1 @ F,0,0,1,0,0,0,1 @ F,0,0,1,0,0,0,1 @ F,0,0,1,0,0,0,1 @ F,0,0,1,0,0.055330264,0,1 @ F,0,0,1,0,0,0,1 @ F,0,0,1,0,0,0,1 @ F,0,0,1,0,0,0,1 @ F,0,1,1,0,0.073794047,0,1 @ F,0,0,1,0,0,0,1 @ F,0,0,1,0,0,0,1 @ F,0,0,1,0,0,0,1 @ F,0,0,1,0,0,0,1 @ F,0,0,1,0,0,0,1 @ F,0,0,1,0,0,0,1 @ F,0,0,1,0,0,0,1 @ F,0,0,1,0,0,0,1 @ F,0,0,1,0,0,0,1 @ F,0,0,1,0,0,0,1 @ F,0,0,1,0,0,0,1 @ F,0,0,1,0,0,0,1 @ F,0,0,1,0,0,0,1 @ F,0,0,1,0,0,0,1 @ F,0,0,1,0,0,0,1 @ F,0,0,1,0,0,0,1 @ F,0,0,1,0,0,0,1 @ F,0,0,1,0,0,0,1 @ F,0,0,1,0,0,0,1 @ F,0,0,1,0,0,0,1 @ F,0,0,1,0,0,0,1 @ F,0,0,1,0,0,0,1 @ F,0,0,1,0,0,0,1 @ F,0,0,1,0,0,0,1 @ F,0,0,1,0,0,0,1 @ F,0,0,1,0,0,0,1 @ F,0,0,1,0,0,0,1 @ F,0,0,1,0,0,0,1 @ F,0,0,1,0,0,0,1 @ F,0,0,1,0,0,0,1 @ F,0,0,1,0,0,0,1 @ F,0,0,1,0,0,0,1 @ F,0,0,1,0,0,0,1 @ F,0,0,1,0,0,0,1 @ F,0,0,1,0,0,0,1 @ F,0,0,1,0,0,0,1 @ F,0,0,1,0,0,0,1 @ F,0,0,1,0,0,0,1 @ F,0,0,1,0,0,0,1 @ F,0,0,1,0,0,0,1 @ F,0,0,1,0,0,0,1 @ F,0,0,1,0,0,0,1 @ F,0,0,1,0,0,0,1 @ F,0,0,1,0,0,0,1 @ F,0,0,1,0,0,0,1 @ F,0,0,1,0,0,0,1 @ F,0,0,1,0,0,0,1 @ F,0,0,1,0,0,0,1 @ F,0,0,1,0,0,0,1 @ F,0,0,1,0,0,0,1 @ F,0,0,1,0,0,0,1 @ F,0,0,1,0,0,0,1 @ F,0,0,1,0,0,0,1 @ F,0,0,1,0,0,0,1 @ F,0,0,1,0,0,0,1 @ F,0,0,1,0,0,0,1 @ F,0,0,1,0,0,0,1 @ F,0,0,1,0,0,0,1 @ F,0,0,1,0,0,0,1 @ F,0,0,1,0,0,0,1 @ F,0,0,1,0,0,0,1 @ F,0,0,1,0,0,0,1 @ F,0,0,1,0,0,0,1 @ F,0,0,1,0,0,0,1 @ F,0,0,1,0,0,0,1 @ F,0,0,1,0,0,0,1 @ F,0,0,1,0,0,0,1 @ F,0,0,1,0,0,0,1 @ F,0,0,1,0,0,0,1 @ F,0,0,1,0,0,0,1 @ F,0,0,1,0,0,0,1 @ F,0,0,1,0,0,0,1 @ F,0,0,1,0,0,0,1 @ F,0,0,1,0,0,0,1 @ F,0,0,1,0,0,0,1 @ F,0,0,1,0,0,0,1 @ F,0,0,1,0,0,0,1 @ F,0,0,1,0,0,0,1 @ F,0,0,1,0,0,0,1 @ F,0,0,1,0,0,0,1 @ F,0,0,1,0,0,0,1 @ F,0,0,1,0,0,0,1 @ F,0,0,1,0,0,0,1 @ F,0,0,1,0,0,0,1"
       radius="0"
       unit="px"
       method="auto"
       mode="F"
       chamfer_steps="1"
       flexible="false"
       use_knot_distance="true"
       apply_no_radius="true"
       apply_with_radius="true"
       only_selected="true"
       hide_knots="false" />
    <inkscape:path-effect
       effect="fillet_chamfer"
       id="path-effect8-6"
       is_visible="true"
       lpeversion="1"
       nodesatellites_param="F,0,0,1,0,0,0,1 @ F,0,0,1,0,0,0,1 @ F,0,0,1,0,0,0,1 @ F,0,0,1,0,0,0,1 @ F,0,0,1,0,0,0,1 @ F,0,0,1,0,0,0,1 @ F,0,0,1,0,0,0,1 @ F,0,0,1,0,0,0,1 @ F,0,0,1,0,0,0,1 @ F,0,0,1,0,0,0,1 @ F,0,0,1,0,0,0,1 @ F,0,0,1,0,0,0,1 @ F,0,0,1,0,0,0,1 @ F,0,0,1,0,0,0,1 @ F,0,0,1,0,0,0,1 @ F,0,0,1,0,0,0,1 @ F,0,0,1,0,0,0,1 @ F,0,0,1,0,0,0,1 @ F,0,0,1,0,0,0,1 @ F,0,0,1,0,0,0,1 @ F,0,0,1,0,0,0,1 @ F,0,0,1,0,0,0,1 @ F,0,0,1,0,0,0,1 @ F,0,0,1,0,0,0,1 @ F,0,0,1,0,0,0,1 @ F,0,0,1,0,0,0,1 @ F,0,0,1,0,0,0,1 @ F,0,0,1,0,0,0,1 @ F,0,0,1,0,0.055330264,0,1 @ F,0,0,1,0,0,0,1 @ F,0,0,1,0,0,0,1 @ F,0,0,1,0,0,0,1 @ F,0,1,1,0,0.073794047,0,1 @ F,0,0,1,0,0,0,1 @ F,0,0,1,0,0,0,1 @ F,0,0,1,0,0,0,1 @ F,0,0,1,0,0,0,1 @ F,0,0,1,0,0,0,1 @ F,0,0,1,0,0,0,1 @ F,0,0,1,0,0,0,1 @ F,0,0,1,0,0,0,1 @ F,0,0,1,0,0,0,1 @ F,0,0,1,0,0,0,1 @ F,0,0,1,0,0,0,1 @ F,0,0,1,0,0,0,1 @ F,0,0,1,0,0,0,1 @ F,0,0,1,0,0,0,1 @ F,0,0,1,0,0,0,1 @ F,0,0,1,0,0,0,1 @ F,0,0,1,0,0,0,1 @ F,0,0,1,0,0,0,1 @ F,0,0,1,0,0,0,1 @ F,0,0,1,0,0,0,1 @ F,0,0,1,0,0,0,1 @ F,0,0,1,0,0,0,1 @ F,0,0,1,0,0,0,1 @ F,0,0,1,0,0,0,1 @ F,0,0,1,0,0,0,1 @ F,0,0,1,0,0,0,1 @ F,0,0,1,0,0,0,1 @ F,0,0,1,0,0,0,1 @ F,0,0,1,0,0,0,1 @ F,0,0,1,0,0,0,1 @ F,0,0,1,0,0,0,1 @ F,0,0,1,0,0,0,1 @ F,0,0,1,0,0,0,1 @ F,0,0,1,0,0,0,1 @ F,0,0,1,0,0,0,1 @ F,0,0,1,0,0,0,1 @ F,0,0,1,0,0,0,1 @ F,0,0,1,0,0,0,1 @ F,0,0,1,0,0,0,1 @ F,0,0,1,0,0,0,1 @ F,0,0,1,0,0,0,1 @ F,0,0,1,0,0,0,1 @ F,0,0,1,0,0,0,1 @ F,0,0,1,0,0,0,1 @ F,0,0,1,0,0,0,1 @ F,0,0,1,0,0,0,1 @ F,0,0,1,0,0,0,1 @ F,0,0,1,0,0,0,1 @ F,0,0,1,0,0,0,1 @ F,0,0,1,0,0,0,1 @ F,0,0,1,0,0,0,1 @ F,0,0,1,0,0,0,1 @ F,0,0,1,0,0,0,1 @ F,0,0,1,0,0,0,1 @ F,0,0,1,0,0,0,1 @ F,0,0,1,0,0,0,1 @ F,0,0,1,0,0,0,1 @ F,0,0,1,0,0,0,1 @ F,0,0,1,0,0,0,1 @ F,0,0,1,0,0,0,1 @ F,0,0,1,0,0,0,1 @ F,0,0,1,0,0,0,1 @ F,0,0,1,0,0,0,1 @ F,0,0,1,0,0,0,1 @ F,0,0,1,0,0,0,1 @ F,0,0,1,0,0,0,1 @ F,0,0,1,0,0,0,1 @ F,0,0,1,0,0,0,1 @ F,0,0,1,0,0,0,1 @ F,0,0,1,0,0,0,1 @ F,0,0,1,0,0,0,1 @ F,0,0,1,0,0,0,1 @ F,0,0,1,0,0,0,1 @ F,0,0,1,0,0,0,1 @ F,0,0,1,0,0,0,1 @ F,0,0,1,0,0,0,1 @ F,0,0,1,0,0,0,1 @ F,0,0,1,0,0,0,1 @ F,0,0,1,0,0,0,1 @ F,0,0,1,0,0,0,1 @ F,0,0,1,0,0,0,1 @ F,0,0,1,0,0,0,1 @ F,0,0,1,0,0,0,1 @ F,0,0,1,0,0,0,1"
       radius="0"
       unit="px"
       method="auto"
       mode="F"
       chamfer_steps="1"
       flexible="false"
       use_knot_distance="true"
       apply_no_radius="true"
       apply_with_radius="true"
       only_selected="true"
       hide_knots="false" />
    <inkscape:path-effect
       effect="fillet_chamfer"
       id="path-effect1"
       is_visible="true"
       lpeversion="1"
       nodesatellites_param="F,0,0,1,0,0,0,1 @ F,0,0,1,0,0,0,1 @ F,0,0,1,0,0,0,1 @ F,0,0,1,0,0,0,1 @ F,0,0,1,0,0,0,1 @ F,0,0,1,0,0,0,1 @ F,0,0,1,0,0,0,1 @ F,0,0,1,0,0,0,1 @ F,0,0,1,0,0,0,1 @ F,0,0,1,0,0,0,1 @ F,0,0,1,0,0,0,1 @ F,0,0,1,0,0,0,1 @ F,0,0,1,0,0,0,1 @ F,0,0,1,0,0,0,1 @ F,0,0,1,0,0,0,1 @ F,0,0,1,0,0,0,1 @ F,0,0,1,0,0,0,1 @ F,0,0,1,0,0,0,1 @ F,0,0,1,0,0,0,1 @ F,0,0,1,0,0,0,1 @ F,0,0,1,0,0,0,1 @ F,0,0,1,0,0,0,1 @ F,0,0,1,0,0,0,1 @ F,0,0,1,0,0,0,1 @ F,0,0,1,0,0,0,1 @ F,0,0,1,0,0,0,1 @ F,0,0,1,0,0,0,1 @ F,0,0,1,0,0,0,1 @ F,0,0,1,0,0,0,1 @ F,0,0,1,0,0,0,1 @ F,0,0,1,0,0,0,1 @ F,0,0,1,0,0,0,1 @ F,0,0,1,0,0,0,1 @ F,0,0,1,0,0,0,1 @ F,0,0,1,0,0,0,1 @ F,0,0,1,0,0,0,1 @ F,0,0,1,0,0,0,1 @ F,0,0,1,0,0,0,1 @ F,0,0,1,0,0,0,1 @ F,0,0,1,0,0,0,1 @ F,0,0,1,0,0,0,1 @ F,0,0,1,0,0,0,1 @ F,0,0,1,0,0,0,1 @ F,0,0,1,0,0,0,1 @ F,0,0,1,0,0,0,1 @ F,0,0,1,0,0,0,1 @ F,0,0,1,0,0,0,1 @ F,0,0,1,0,0,0,1 @ F,0,0,1,0,0,0,1 @ F,0,0,1,0,0,0,1 @ F,0,0,1,0,0,0,1 @ F,0,0,1,0,0,0,1 @ F,0,0,1,0,0,0,1 @ F,0,0,1,0,0,0,1 @ F,0,0,1,0,0,0,1 @ F,0,0,1,0,0,0,1 @ F,0,0,1,0,0,0,1 @ F,0,0,1,0,0,0,1 @ F,0,0,1,0,0,0,1 @ F,0,0,1,0,0,0,1 @ F,0,0,1,0,0,0,1 @ F,0,0,1,0,0,0,1 @ F,0,0,1,0,0,0,1 @ F,0,0,1,0,0,0,1 @ F,0,0,1,0,0,0,1 @ F,0,0,1,0,0,0,1 @ F,0,0,1,0,0,0,1 @ F,0,0,1,0,0,0,1 @ F,0,0,1,0,0,0,1 @ F,0,0,1,0,0,0,1 @ F,0,0,1,0,0,0,1 @ F,0,0,1,0,0,0,1 @ F,0,0,1,0,0,0,1 @ F,0,0,1,0,0,0,1 @ F,0,0,1,0,0,0,1 @ F,0,0,1,0,0,0,1 @ F,0,0,1,0,0,0,1 @ F,0,0,1,0,0,0,1 @ F,0,0,1,0,0,0,1 @ F,0,0,1,0,0,0,1 @ F,0,0,1,0,0,0,1 @ F,0,0,1,0,0,0,1 @ F,0,0,1,0,0,0,1 @ F,0,0,1,0,0,0,1 @ F,0,0,1,0,0,0,1 @ F,0,0,1,0,0,0,1 @ F,0,0,1,0,0,0,1 @ F,0,0,1,0,0,0,1 @ F,0,0,1,0,0,0,1 @ F,0,0,1,0,0,0,1 @ F,0,0,1,0,0,0,1 @ F,0,0,1,0,0,0,1 @ F,0,0,1,0,0,0,1 @ F,0,0,1,0,0,0,1 @ F,0,0,1,0,0,0,1 @ F,0,0,1,0,0,0,1 @ F,0,0,1,0,0,0,1 @ F,0,0,1,0,0,0,1 @ F,0,0,1,0,0,0,1 @ F,0,0,1,0,0,0,1 @ F,0,0,1,0,0,0,1 @ F,0,0,1,0,0,0,1 @ F,0,0,1,0,0,0,1 @ F,0,0,1,0,0,0,1 @ F,0,0,1,0,0,0,1 @ F,0,0,1,0,0,0,1 @ F,0,0,1,0,0,0,1 @ F,0,0,1,0,0,0,1 @ F,0,0,1,0,0,0,1 @ F,0,0,1,0,0,0,1 @ F,0,0,1,0,0,0,1 @ F,0,0,1,0,0,0,1 @ F,0,0,1,0,0,0,1 @ F,0,0,1,0,0,0,1 @ F,0,0,1,0,0,0,1 @ F,0,0,1,0,0,0,1"
       radius="0"
       unit="px"
       method="auto"
       mode="F"
       chamfer_steps="1"
       flexible="false"
       use_knot_distance="true"
       apply_no_radius="true"
       apply_with_radius="true"
       only_selected="true"
       hide_knots="false" />
  </defs>
  <path
     style="fill:#000000;fill-opacity:1;fill-rule:evenodd;stroke:#b81e1e;stroke-width:0.0102192"
     d="m 97.398704,30.071549 -0.360701,-0.0011 -0.630452,-0.542602 c -0.0391,-0.06957 -0.0205,-0.128047 0.01138,-0.183968 0.03789,-0.03446 0.08052,-0.06418 0.159163,-0.05788 l 0.06408,0.03617 0.10232,0.09612 h 0.06098 v -0.639754 l -0.368972,-0.311092 c -0.0552,-0.07122 -0.069,-0.144455 -0.01138,-0.221176 0.04724,-0.04457 0.09986,-0.06085 0.158128,-0.04754 l 0.186037,0.138491 h 0.03514 V 27.7078 l -0.40101,-0.360701 c -0.03664,-0.07033 -0.0069,-0.136897 0.02066,-0.180869 0.04202,-0.05171 0.09794,-0.0617 0.159162,-0.05581 l 0.181902,0.13126 0.02791,0.0011 0.01035,-0.0093 v -0.988055 l -0.302823,-0.187068 v -0.485759 h 2.542418 l 0.629962,0.801057 c 0.02149,0.01751 0.03926,0.03689 0.08185,0.04385 0.03529,-0.01705 0.05852,-0.03411 0.07454,-0.05116 l 0.625572,-0.792204 1.38124,-0.0015 0.63435,0.79805 c 0.0177,0.0213 0.0461,0.03183 0.0775,0.03946 0.0426,-0.0076 0.0589,-0.0239 0.0775,-0.03946 l 0.62704,-0.79805 h 1.36663 l 0.62557,0.786357 c 0.0226,0.02403 0.0477,0.04655 0.0921,0.057 0.0252,-0.0047 0.0491,-0.02163 0.0716,-0.05116 l 0.62851,-0.792203 h 2.53739 v 0.489646 l -0.29817,0.187089 v 0.992446 h 0.038 l 0.17685,-0.128624 c 0.0514,-0.01437 0.1037,-0.0077 0.15786,0.04385 0.0678,0.06139 0.0437,0.122777 0.0322,0.184166 l -0.4078,0.368329 -0.002,0.632886 0.0409,0.0016 0.18124,-0.14324 c 0.0527,-0.01266 0.10675,0.0032 0.16224,0.05116 0.0573,0.06537 0.0409,0.138508 -0.006,0.21486 l -0.37564,0.312788 v 0.632886 l 0.0585,0.0029 0.10086,-0.09354 c 0.0731,-0.05333 0.13489,-0.03393 0.19439,0 0.0874,0.04819 0.0702,0.120524 0.0526,0.192934 l -0.62996,0.559806 h -0.36102 l -0.63727,-0.555421 c -0.0147,-0.07393 -0.0246,-0.146284 0.0365,-0.195858 0.0464,-0.04473 0.0972,-0.04651 0.14908,-0.03654 l 0.14324,0.124241 h 0.0702 v -0.629965 l -0.36248,-0.312788 c -0.0809,-0.08354 -0.0623,-0.156712 -0.0117,-0.226552 0.0489,-0.04776 0.10199,-0.05215 0.1564,-0.04239 l 0.18124,0.138856 h 0.0424 v -0.628502 l -0.40049,-0.361021 -0.0219,-0.07308 c -0.001,-0.05509 0.0226,-0.09865 0.0628,-0.134469 0.0423,-0.03926 0.0912,-0.03915 0.14178,-0.02923 l 0.15055,0.121314 0.0453,0.01315 0.019,-0.03069 v -0.505725 h -1.38709 l -0.58465,0.586113 c -0.0441,0.03696 -0.0943,0.0584 -0.15493,0.05408 -0.0499,-0.0099 -0.10015,-0.0184 -0.1447,-0.04969 l -0.5905,-0.5905 h -1.30524 l -0.60219,0.587576 c -0.0327,0.03082 -0.0788,0.04936 -0.14178,0.05262 -0.0635,-0.003 -0.10888,-0.0266 -0.15347,-0.05116 l -0.58465,-0.589037 h -1.31547 l -0.587569,0.589037 c -0.03516,0.02444 -0.08256,0.04322 -0.153472,0.05116 -0.05647,-3.61e-4 -0.105054,-0.02043 -0.150548,-0.04823 L 99.016062,26.711379 H 97.6353 l 0.0029,0.52034 0.01024,0.01024 0.02339,-0.0029 0.181242,-0.124241 c 0.05903,-0.02015 0.112928,0.0025 0.163703,0.05116 0.04676,0.05685 0.04678,0.117437 0.02484,0.179781 l -0.406332,0.365408 0.0016,0.61096 0.02777,0.01609 0.147624,-0.112546 c 0.06577,-0.04431 0.131547,-0.02877 0.197321,0.02045 0.04525,0.05603 0.04411,0.112058 0.0263,0.168087 l -0.02777,0.0497 -0.371256,0.320096 v 0.628502 h 0.05701 l 0.111082,-0.09501 c 0.07195,-0.06158 0.139605,-0.03282 0.20609,0.02045 0.05728,0.07771 0.04326,0.129021 0.02777,0.179782 z"
     id="compensator"
     sodipodi:nodetypes="ccccccccccccccccccccccccccccccccccccccccccccccccccccccccccccccccccccccccccccccccccccccccccccccccccccccccccccccccccccc"
     inkscape:path-effect="#path-effect1"
     inkscape:original-d="m 97.398704,30.071549 -0.360701,-0.0011 -0.630452,-0.542602 c -0.0391,-0.06957 -0.0205,-0.128047 0.01138,-0.183968 0.03789,-0.03446 0.08052,-0.06418 0.159163,-0.05788 l 0.06408,0.03617 0.10232,0.09612 h 0.06098 v -0.639754 l -0.368972,-0.311092 c -0.0552,-0.07122 -0.069,-0.144455 -0.01138,-0.221176 0.04724,-0.04457 0.09986,-0.06085 0.158128,-0.04754 l 0.186037,0.138491 h 0.03514 V 27.7078 l -0.40101,-0.360701 c -0.03664,-0.07033 -0.0069,-0.136897 0.02066,-0.180869 0.04202,-0.05171 0.09794,-0.0617 0.159162,-0.05581 l 0.181902,0.13126 0.02791,0.0011 0.01035,-0.0093 v -0.988055 l -0.302823,-0.187068 v -0.485759 h 2.542418 l 0.629962,0.801057 c 0.02149,0.01751 0.03926,0.03689 0.08185,0.04385 0.03529,-0.01705 0.05852,-0.03411 0.07454,-0.05116 l 0.625572,-0.792204 1.38124,-0.0015 0.63435,0.79805 c 0.0177,0.0213 0.0461,0.03183 0.0775,0.03946 0.0426,-0.0076 0.0589,-0.0239 0.0775,-0.03946 l 0.62704,-0.79805 h 1.36663 l 0.62557,0.786357 c 0.0226,0.02403 0.0477,0.04655 0.0921,0.057 0.0252,-0.0047 0.0491,-0.02163 0.0716,-0.05116 l 0.62851,-0.792203 h 2.53739 v 0.489646 l -0.29817,0.187089 v 0.992446 h 0.038 l 0.17685,-0.128624 c 0.0514,-0.01437 0.1037,-0.0077 0.15786,0.04385 0.0678,0.06139 0.0437,0.122777 0.0322,0.184166 l -0.4078,0.368329 -0.002,0.632886 0.0409,0.0016 0.18124,-0.14324 c 0.0527,-0.01266 0.10675,0.0032 0.16224,0.05116 0.0573,0.06537 0.0409,0.138508 -0.006,0.21486 l -0.37564,0.312788 v 0.632886 l 0.0585,0.0029 0.10086,-0.09354 c 0.0731,-0.05333 0.13489,-0.03393 0.19439,0 0.0874,0.04819 0.0702,0.120524 0.0526,0.192934 l -0.62996,0.559806 h -0.36102 l -0.63727,-0.555421 c -0.0147,-0.07393 -0.0246,-0.146284 0.0365,-0.195858 0.0464,-0.04473 0.0972,-0.04651 0.14908,-0.03654 l 0.14324,0.124241 h 0.0702 v -0.629965 l -0.36248,-0.312788 c -0.0809,-0.08354 -0.0623,-0.156712 -0.0117,-0.226552 0.0489,-0.04776 0.10199,-0.05215 0.1564,-0.04239 l 0.18124,0.138856 h 0.0424 v -0.628502 l -0.40049,-0.361021 -0.0219,-0.07308 c -0.001,-0.05509 0.0226,-0.09865 0.0628,-0.134469 0.0423,-0.03926 0.0912,-0.03915 0.14178,-0.02923 l 0.15055,0.121314 0.0453,0.01315 0.019,-0.03069 v -0.505725 h -1.38709 l -0.58465,0.586113 c -0.0441,0.03696 -0.0943,0.0584 -0.15493,0.05408 -0.0499,-0.0099 -0.10015,-0.0184 -0.1447,-0.04969 l -0.5905,-0.5905 h -1.30524 l -0.60219,0.587576 c -0.0327,0.03082 -0.0788,0.04936 -0.14178,0.05262 -0.0635,-0.003 -0.10888,-0.0266 -0.15347,-0.05116 l -0.58465,-0.589037 h -1.31547 l -0.587569,0.589037 c -0.03516,0.02444 -0.08256,0.04322 -0.153472,0.05116 -0.05647,-3.61e-4 -0.105054,-0.02043 -0.150548,-0.04823 L 99.016062,26.711379 H 97.6353 l 0.0029,0.52034 0.01024,0.01024 0.02339,-0.0029 0.181242,-0.124241 c 0.05903,-0.02015 0.112928,0.0025 0.163703,0.05116 0.04676,0.05685 0.04678,0.117437 0.02484,0.179781 l -0.406332,0.365408 0.0016,0.61096 0.02777,0.01609 0.147624,-0.112546 c 0.06577,-0.04431 0.131547,-0.02877 0.197321,0.02045 0.04525,0.05603 0.04411,0.112058 0.0263,0.168087 l -0.02777,0.0497 -0.371256,0.320096 v 0.628502 h 0.05701 l 0.111082,-0.09501 c 0.07195,-0.06158 0.139605,-0.03282 0.20609,0.02045 0.05728,0.07771 0.04326,0.129021 0.02777,0.179782 z"
     inkscape:label="compensator"
     transform="matrix(3.0033968,0,0,3.0033968,-202.99646,-76.670014)" />
  <path
     style="fill:#4a8db7;fill-opacity:0.768047;fill-rule:evenodd;stroke:#b81e1e;stroke-width:0.0331886"
     d="M 85.185766,0.10115454 V 13.012695 l -0.165963,0.28775 H 40.299195 v 1.76303 h 49.633558 l 1.919408,-1.53599 0.496804,-1.76556 V 4.9715945 h 0.7642 v -1.27692 h -2.045904 v 0.44145 c 0.0478,0.0698 0.1416,0.14615 0.10913,0.20428 -0.0841,0.0932 -0.26729,0.18674 -0.2517,0.27995 0.013,0.13932 0.30301,0.29229 0.23253,0.41771 -0.0293,0.19551 -0.16465,0.20884 -0.24682,0.31341 0.0163,0.14419 0.20591,0.14354 0.27053,0.36549 -0.006,0.14257 -0.26728,0.24585 -0.25169,0.39875 0.002,0.23091 0.16757,0.26273 0.25169,0.39401 -0.0442,0.17991 -0.29229,0.24032 -0.27053,0.34652 0.0324,0.16596 0.16401,0.23156 0.25169,0.34176 -0.0227,0.13607 -0.24422,0.24195 -0.26598,0.37974 0.10457,0.24228 0.18999,0.23416 0.28482,0.3513 0.006,0.18318 -0.16108,0.26274 -0.24195,0.39398 -0.0195,0.20331 0.2137,0.27476 0.2137,0.42724 -0.0776,0.12016 -0.29846,0.11496 -0.23254,0.36074 0.0792,0.10913 0.26663,0.23806 0.23741,0.32754 -0.006,0.1601 -0.22929,0.21986 -0.24682,0.34178 0.026,0.19129 0.20428,0.2867705 0.23805,0.4120905 -0.0776,0.1127 -0.19031,0.27346 -0.23318,0.33793 0.026,0.1364 0.14387,0.25039 0.2374,0.37026 0.0194,0.10945 -0.0471,0.16628 -0.114,0.22312 v 0.71205 c -0.10911,1.46711 -0.977707,1.86209 -1.950963,2.00794 -1.24035,-0.0497 -1.921096,-0.79857 -2.093389,-2.06964 v -0.63135 l -0.09028,-0.2137 c 0.02272,-0.14647 0.231553,-0.22181 0.218239,-0.37497 -0.07598,-0.11692 -0.220838,-0.15654 -0.227981,-0.3513 -0.01953,-0.19649 0.272802,-0.2036405 0.213694,-0.3845005 -0.06434,-0.11692 -0.208823,-0.23416 -0.189992,-0.35127 -0.01626,-0.13543 0.190638,-0.25884 0.199407,-0.36075 -0.0763,-0.13283 -0.246174,-0.26566 -0.227989,-0.39875 0.0024,-0.18252 0.161092,-0.2439 0.241957,-0.36549 -0.08055,-0.13315 -0.289696,-0.3069 -0.237404,-0.39875 0.02599,-0.11334 0.296512,-0.20103 0.232533,-0.36553 -0.07406,-0.12211 -0.234487,-0.25981 -0.218247,-0.36549 0.0024,-0.10587 0.206232,-0.202 0.204279,-0.31795 -0.06952,-0.12503 -0.224736,-0.25819 -0.204279,-0.37501 0.06952,-0.1312 0.248128,-0.28449 0.208823,-0.39401 -0.07271,-0.14094 -0.251364,-0.27117 -0.218238,-0.42245 0.07111,-0.11562 0.301057,-0.16498 0.213694,-0.34652 -0.07111,-0.11855 -0.226689,-0.2478 -0.213694,-0.35601 0.07925,-0.1075 0.250391,-0.21532 0.237404,-0.32282 -0.08087,-0.13446 -0.302037,-0.26891 -0.241948,-0.40349 0.04289,-0.11075 0.143544,-0.23124 0.128277,-0.33227 V 0.09670454 Z"
     id="profile_left"
     sodipodi:nodetypes="ccccccccccccccccccccccccccccccccccccccccccccccccccccccccccc" />
  <path
     style="fill:#4a8db7;fill-opacity:0.768047;fill-rule:evenodd;stroke:#b81e1e;stroke-width:0.0331886"
     d="M 124.89245,0.02108454 V 12.932625 l 0.16606,0.28774 h 44.72061 v 1.76304 h -49.63356 l -1.91941,-1.53599 -0.49677,-1.76557 V 4.8915245 h -0.76423 v -1.27692 h 2.0459 v 0.44145 c -0.0477,0.0698 -0.14159,0.14614 -0.10918,0.20428 0.084,0.0932 0.26729,0.18674 0.2516,0.27995 -0.0133,0.13932 -0.30298,0.29229 -0.2326,0.41771 0.0302,0.19552 0.16453,0.20883 0.24682,0.31341 -0.0166,0.1442 -0.2059,0.14354 -0.27056,0.36549 0.006,0.14257 0.26741,0.24585 0.25159,0.39875 -0.002,0.23091 -0.16767,0.26273 -0.25159,0.39401 0.0442,0.17992 0.29232,0.24032 0.27056,0.34652 -0.0318,0.16596 -0.16411,0.23156 -0.25156,0.34176 0.023,0.13607 0.24435,0.24195 0.26582,0.37974 -0.10457,0.24228 -0.18989,0.23416 -0.28482,0.35131 -0.006,0.18317 0.16115,0.26273 0.24208,0.39397 0.0202,0.2033 -0.21364,0.27475 -0.21364,0.42724 0.0777,0.12016 0.29837,0.11496 0.23261,0.36074 -0.0791,0.10913 -0.26667,0.23806 -0.23734,0.32754 0.005,0.16011 0.22921,0.21986 0.24682,0.34178 -0.0254,0.19129 -0.20431,0.28677 -0.23792,0.4120905 0.0777,0.1127 0.19018,0.27346 0.23317,0.33792 -0.0266,0.1364 -0.14373,0.2504 -0.23734,0.37027 -0.0205,0.10945 0.047,0.16628 0.11394,0.22312 v 0.71205 c 0.10925,1.4671 0.97773,1.86208 1.95097,2.00794 1.24036,-0.0497 1.92111,-0.79857 2.09338,-2.06965 v -0.63134 l 0.0902,-0.2137 c -0.0227,-0.14647 -0.2315,-0.22182 -0.21837,-0.37498 0.0761,-0.11691 0.22091,-0.15654 0.22785,-0.3513 0.0198,-0.1964805 -0.2728,-0.2036305 -0.21363,-0.3844905 0.0641,-0.11692 0.20882,-0.23415 0.1899,-0.35127 0.0172,-0.13543 -0.19048,-0.25883 -0.19938,-0.36075 0.0763,-0.13283 0.24624,-0.26566 0.22785,-0.39875 -0.003,-0.18252 -0.16118,-0.2439 -0.24208,-0.3655 0.0804,-0.13314 0.28986,-0.3069 0.23734,-0.39874 -0.0263,-0.11334 -0.29645,-0.20103 -0.2326,-0.36553 0.0741,-0.12211 0.23435,-0.25981 0.21835,-0.36549 -0.002,-0.10587 -0.20636,-0.20201 -0.20412,-0.31795 0.0694,-0.12503 0.22477,-0.25819 0.20412,-0.37501 -0.0696,-0.1312 -0.24823,-0.28449 -0.20886,-0.39401 0.0728,-0.14094 0.2514,-0.27117 0.21834,-0.42245 -0.0712,-0.11562 -0.30113,-0.16498 -0.2136,-0.34652 0.0712,-0.11855 0.22681,-0.2478 0.2136,-0.35601 -0.0792,-0.10751 -0.25033,-0.21533 -0.23734,-0.32283 0.0807,-0.13445 0.30216,-0.2689 0.24208,-0.40348 -0.0427,-0.11075 -0.14367,-0.23124 -0.12818,-0.33227 V 0.01663454 Z"
     id="profile_right"
     sodipodi:nodetypes="ccccccccccccccccccccccccccccccccccccccccccccccccccccccccccc"
     inkscape:label="profile_right" />
  <rect
     style="fill:#b8b8b8;fill-opacity:1;fill-rule:evenodd;stroke:#b81e1e;stroke-width:0.0427223"
     id="concrete_right"
     width="69.957275"
     height="54.254299"
     x="120.22379"
     y="15.017604" />
  <rect
     style="fill:#a39a9a;fill-rule:evenodd;stroke:#b81e1e;stroke-width:0.0244747"
     id="finish_right"
     width="65.032791"
     height="13.806242"
     x="125.11391"
     y="1.0484263" />
  <rect
     style="fill:#a39a9a;fill-rule:evenodd;stroke:#b81e1e;stroke-width:0.0127421"
     id="cover_right"
     width="65.183304"
     height="0.75032508"
     x="125.03732"
     y="0.14817297" />
  <rect
     style="fill:#b8b8b8;fill-opacity:1;fill-rule:evenodd;stroke:#b81e1e;stroke-width:0.0427051"
     id="concrete_left"
     width="70.122719"
     height="54.082649"
     x="19.9522"
     y="15.032573" />
  <rect
     style="fill:#a39a9a;fill-rule:evenodd;stroke:#b81e1e;stroke-width:0.0249138"
     id="finish_left"
     width="65.18679"
     height="14.272009"
     x="19.867165"
     y="0.78049719" />
  <rect
     style="fill:#a39a9a;fill-rule:evenodd;stroke:#b81e1e;stroke-width:0.0129142"
     id="cover_left"
     width="65.325188"
     height="0.76904744"
     x="19.779465"
     y="0.026423102" />
  <rect
     style="fill:#404242;fill-opacity:0.341246;fill-rule:evenodd;stroke:#b81e1e;stroke-width:0.0198777"
     id="shadow"
     width="137.48599"
     height="0.01261392"
     x="27.633968"
     y="69.292259"
     inkscape:label="shadow" />
  <ellipse
     style="opacity:0;fill:none;fill-opacity:0;fill-rule:evenodd;stroke-width:0.00368993;stroke-opacity:0"
     id="bolt_left"
     cx="-50.173893"
     cy="-13.375903"
     rx="0.094999999"
     ry="0.028942173"
     inkscape:label="bolt_left"
     transform="scale(-1)" />
  <ellipse
     style="opacity:0;fill:none;fill-opacity:0;fill-rule:evenodd;stroke-width:0.000191947;stroke-opacity:0"
     id="bolt_right"
     cx="160.28426"
     cy="13.277888"
     rx="0.0049418169"
     ry="0.0015055466"
     inkscape:label="bolt_right" />
</svg>
