<?xml version="1.0" encoding="UTF-8" standalone="no"?>
<!-- Created with Inkscape (http://www.inkscape.org/) -->

<svg
   width="210mm"
   height="297mm"
   viewBox="0 0 210 297"
   version="1.1"
   id="svg1"
   inkscape:version="1.4 (86a8ad7, 2024-10-11)"
   sodipodi:docname="DSHL-15-020.svg"
   xmlns:inkscape="http://www.inkscape.org/namespaces/inkscape"
   xmlns:sodipodi="http://sodipodi.sourceforge.net/DTD/sodipodi-0.dtd"
   xmlns="http://www.w3.org/2000/svg"
   xmlns:svg="http://www.w3.org/2000/svg">
  <sodipodi:namedview
     id="namedview1"
     pagecolor="#ffffff"
     bordercolor="#000000"
     borderopacity="0.25"
     inkscape:showpageshadow="2"
     inkscape:pageopacity="0.0"
     inkscape:pagecheckerboard="0"
     inkscape:deskcolor="#d1d1d1"
     inkscape:document-units="mm"
     inkscape:zoom="2.0935045"
     inkscape:cx="363.98298"
     inkscape:cy="51.826973"
     inkscape:window-width="2560"
     inkscape:window-height="1377"
     inkscape:window-x="-8"
     inkscape:window-y="-8"
     inkscape:window-maximized="1"
     inkscape:current-layer="svg1" />
  <defs
     id="defs1">
    <inkscape:path-effect
       effect="fillet_chamfer"
       id="path-effect8"
       is_visible="true"
       lpeversion="1"
       nodesatellites_param="F,0,0,1,0,0,0,1 @ F,0,0,1,0,0,0,1 @ F,0,0,1,0,0,0,1 @ F,0,0,1,0,0,0,1 @ F,0,0,1,0,0,0,1 @ F,0,0,1,0,0,0,1 @ F,0,0,1,0,0,0,1 @ F,0,0,1,0,0,0,1 @ F,0,0,1,0,0,0,1 @ F,0,0,1,0,0,0,1 @ F,0,0,1,0,0,0,1 @ F,0,0,1,0,0,0,1 @ F,0,0,1,0,0,0,1 @ F,0,0,1,0,0,0,1 @ F,0,0,1,0,0,0,1 @ F,0,0,1,0,0,0,1 @ F,0,0,1,0,0,0,1 @ F,0,0,1,0,0,0,1 @ F,0,0,1,0,0,0,1 @ F,0,0,1,0,0,0,1 @ F,0,0,1,0,0,0,1 @ F,0,0,1,0,0,0,1 @ F,0,0,1,0,0,0,1 @ F,0,0,1,0,0,0,1 @ F,0,0,1,0,0,0,1 @ F,0,0,1,0,0,0,1 @ F,0,0,1,0,0,0,1 @ F,0,0,1,0,0,0,1 @ F,0,0,1,0,0.055330264,0,1 @ F,0,0,1,0,0,0,1 @ F,0,0,1,0,0,0,1 @ F,0,0,1,0,0,0,1 @ F,0,1,1,0,0.073794047,0,1 @ F,0,0,1,0,0,0,1 @ F,0,0,1,0,0,0,1 @ F,0,0,1,0,0,0,1 @ F,0,0,1,0,0,0,1 @ F,0,0,1,0,0,0,1 @ F,0,0,1,0,0,0,1 @ F,0,0,1,0,0,0,1 @ F,0,0,1,0,0,0,1 @ F,0,0,1,0,0,0,1 @ F,0,0,1,0,0,0,1 @ F,0,0,1,0,0,0,1 @ F,0,0,1,0,0,0,1 @ F,0,0,1,0,0,0,1 @ F,0,0,1,0,0,0,1 @ F,0,0,1,0,0,0,1 @ F,0,0,1,0,0,0,1 @ F,0,0,1,0,0,0,1 @ F,0,0,1,0,0,0,1 @ F,0,0,1,0,0,0,1 @ F,0,0,1,0,0,0,1 @ F,0,0,1,0,0,0,1 @ F,0,0,1,0,0,0,1 @ F,0,0,1,0,0,0,1 @ F,0,0,1,0,0,0,1 @ F,0,0,1,0,0,0,1 @ F,0,0,1,0,0,0,1 @ F,0,0,1,0,0,0,1 @ F,0,0,1,0,0,0,1 @ F,0,0,1,0,0,0,1 @ F,0,0,1,0,0,0,1 @ F,0,0,1,0,0,0,1 @ F,0,0,1,0,0,0,1 @ F,0,0,1,0,0,0,1 @ F,0,0,1,0,0,0,1 @ F,0,0,1,0,0,0,1 @ F,0,0,1,0,0,0,1 @ F,0,0,1,0,0,0,1 @ F,0,0,1,0,0,0,1 @ F,0,0,1,0,0,0,1 @ F,0,0,1,0,0,0,1 @ F,0,0,1,0,0,0,1 @ F,0,0,1,0,0,0,1 @ F,0,0,1,0,0,0,1 @ F,0,0,1,0,0,0,1 @ F,0,0,1,0,0,0,1 @ F,0,0,1,0,0,0,1 @ F,0,0,1,0,0,0,1 @ F,0,0,1,0,0,0,1 @ F,0,0,1,0,0,0,1 @ F,0,0,1,0,0,0,1 @ F,0,0,1,0,0,0,1 @ F,0,0,1,0,0,0,1 @ F,0,0,1,0,0,0,1 @ F,0,0,1,0,0,0,1 @ F,0,0,1,0,0,0,1 @ F,0,0,1,0,0,0,1 @ F,0,0,1,0,0,0,1 @ F,0,0,1,0,0,0,1 @ F,0,0,1,0,0,0,1 @ F,0,0,1,0,0,0,1 @ F,0,0,1,0,0,0,1 @ F,0,0,1,0,0,0,1 @ F,0,0,1,0,0,0,1 @ F,0,0,1,0,0,0,1 @ F,0,0,1,0,0,0,1 @ F,0,0,1,0,0,0,1 @ F,0,0,1,0,0,0,1 @ F,0,0,1,0,0,0,1 @ F,0,0,1,0,0,0,1 @ F,0,0,1,0,0,0,1 @ F,0,0,1,0,0,0,1 @ F,0,0,1,0,0,0,1 @ F,0,0,1,0,0,0,1 @ F,0,0,1,0,0,0,1 @ F,0,0,1,0,0,0,1 @ F,0,0,1,0,0,0,1 @ F,0,0,1,0,0,0,1 @ F,0,0,1,0,0,0,1 @ F,0,0,1,0,0,0,1 @ F,0,0,1,0,0,0,1 @ F,0,0,1,0,0,0,1 @ F,0,0,1,0,0,0,1 @ F,0,0,1,0,0,0,1 @ F,0,0,1,0,0,0,1"
       radius="0"
       unit="px"
       method="auto"
       mode="F"
       chamfer_steps="1"
       flexible="false"
       use_knot_distance="true"
       apply_no_radius="true"
       apply_with_radius="true"
       only_selected="true"
       hide_knots="false" />
    <inkscape:path-effect
       effect="fillet_chamfer"
       id="path-effect8-6"
       is_visible="true"
       lpeversion="1"
       nodesatellites_param="F,0,0,1,0,0,0,1 @ F,0,0,1,0,0,0,1 @ F,0,0,1,0,0,0,1 @ F,0,0,1,0,0,0,1 @ F,0,0,1,0,0,0,1 @ F,0,0,1,0,0,0,1 @ F,0,0,1,0,0,0,1 @ F,0,0,1,0,0,0,1 @ F,0,0,1,0,0,0,1 @ F,0,0,1,0,0,0,1 @ F,0,0,1,0,0,0,1 @ F,0,0,1,0,0,0,1 @ F,0,0,1,0,0,0,1 @ F,0,0,1,0,0,0,1 @ F,0,0,1,0,0,0,1 @ F,0,0,1,0,0,0,1 @ F,0,0,1,0,0,0,1 @ F,0,0,1,0,0,0,1 @ F,0,0,1,0,0,0,1 @ F,0,0,1,0,0,0,1 @ F,0,0,1,0,0,0,1 @ F,0,0,1,0,0,0,1 @ F,0,0,1,0,0,0,1 @ F,0,0,1,0,0,0,1 @ F,0,0,1,0,0,0,1 @ F,0,0,1,0,0,0,1 @ F,0,0,1,0,0,0,1 @ F,0,0,1,0,0,0,1 @ F,0,0,1,0,0.055330264,0,1 @ F,0,0,1,0,0,0,1 @ F,0,0,1,0,0,0,1 @ F,0,0,1,0,0,0,1 @ F,0,1,1,0,0.073794047,0,1 @ F,0,0,1,0,0,0,1 @ F,0,0,1,0,0,0,1 @ F,0,0,1,0,0,0,1 @ F,0,0,1,0,0,0,1 @ F,0,0,1,0,0,0,1 @ F,0,0,1,0,0,0,1 @ F,0,0,1,0,0,0,1 @ F,0,0,1,0,0,0,1 @ F,0,0,1,0,0,0,1 @ F,0,0,1,0,0,0,1 @ F,0,0,1,0,0,0,1 @ F,0,0,1,0,0,0,1 @ F,0,0,1,0,0,0,1 @ F,0,0,1,0,0,0,1 @ F,0,0,1,0,0,0,1 @ F,0,0,1,0,0,0,1 @ F,0,0,1,0,0,0,1 @ F,0,0,1,0,0,0,1 @ F,0,0,1,0,0,0,1 @ F,0,0,1,0,0,0,1 @ F,0,0,1,0,0,0,1 @ F,0,0,1,0,0,0,1 @ F,0,0,1,0,0,0,1 @ F,0,0,1,0,0,0,1 @ F,0,0,1,0,0,0,1 @ F,0,0,1,0,0,0,1 @ F,0,0,1,0,0,0,1 @ F,0,0,1,0,0,0,1 @ F,0,0,1,0,0,0,1 @ F,0,0,1,0,0,0,1 @ F,0,0,1,0,0,0,1 @ F,0,0,1,0,0,0,1 @ F,0,0,1,0,0,0,1 @ F,0,0,1,0,0,0,1 @ F,0,0,1,0,0,0,1 @ F,0,0,1,0,0,0,1 @ F,0,0,1,0,0,0,1 @ F,0,0,1,0,0,0,1 @ F,0,0,1,0,0,0,1 @ F,0,0,1,0,0,0,1 @ F,0,0,1,0,0,0,1 @ F,0,0,1,0,0,0,1 @ F,0,0,1,0,0,0,1 @ F,0,0,1,0,0,0,1 @ F,0,0,1,0,0,0,1 @ F,0,0,1,0,0,0,1 @ F,0,0,1,0,0,0,1 @ F,0,0,1,0,0,0,1 @ F,0,0,1,0,0,0,1 @ F,0,0,1,0,0,0,1 @ F,0,0,1,0,0,0,1 @ F,0,0,1,0,0,0,1 @ F,0,0,1,0,0,0,1 @ F,0,0,1,0,0,0,1 @ F,0,0,1,0,0,0,1 @ F,0,0,1,0,0,0,1 @ F,0,0,1,0,0,0,1 @ F,0,0,1,0,0,0,1 @ F,0,0,1,0,0,0,1 @ F,0,0,1,0,0,0,1 @ F,0,0,1,0,0,0,1 @ F,0,0,1,0,0,0,1 @ F,0,0,1,0,0,0,1 @ F,0,0,1,0,0,0,1 @ F,0,0,1,0,0,0,1 @ F,0,0,1,0,0,0,1 @ F,0,0,1,0,0,0,1 @ F,0,0,1,0,0,0,1 @ F,0,0,1,0,0,0,1 @ F,0,0,1,0,0,0,1 @ F,0,0,1,0,0,0,1 @ F,0,0,1,0,0,0,1 @ F,0,0,1,0,0,0,1 @ F,0,0,1,0,0,0,1 @ F,0,0,1,0,0,0,1 @ F,0,0,1,0,0,0,1 @ F,0,0,1,0,0,0,1 @ F,0,0,1,0,0,0,1 @ F,0,0,1,0,0,0,1 @ F,0,0,1,0,0,0,1 @ F,0,0,1,0,0,0,1 @ F,0,0,1,0,0,0,1 @ F,0,0,1,0,0,0,1 @ F,0,0,1,0,0,0,1"
       radius="0"
       unit="px"
       method="auto"
       mode="F"
       chamfer_steps="1"
       flexible="false"
       use_knot_distance="true"
       apply_no_radius="true"
       apply_with_radius="true"
       only_selected="true"
       hide_knots="false" />
  </defs>
  <path
     style="fill:#070707;fill-opacity:0.768047;fill-rule:evenodd;stroke:#b81e1e;stroke-width:0.02997"
     d="M 91.848311,0.02386454 V 1.4575545 c 0,0 -0.009,0.0243 0.0273,0.0636 0.0364,0.0394 0.85777,0.52739 0.85777,0.52739 l 0.009,2.95224 -0.10909,0.0334 -0.51528,-0.41222 c -0.20027,-0.0267 -0.37066,0.007 -0.49103,0.13942 -0.16614,0.18573 -0.13849,0.35211 -0.0788,0.51527 l 0.13033,0.20612 1.0578,0.89415 v 1.87318 l -0.0205,0.0182 h -0.0698 l -0.5304,-0.37585 c -0.18115,-0.0312 -0.34264,-0.007 -0.46677,0.12124 -0.18996,0.17294 -0.18902,0.36877 -0.094,0.5759 l 1.18212,1.05481 v 1.8762205 l -0.0302,0.0211 h -0.0607 l -0.39099,-0.33039 c -0.14962,-0.068 -0.40898,-0.15907 -0.61229,0.0606 -0.1938,0.15799 -0.14283,0.34791 -0.0788,0.53954 l 0.094,0.16065 1.77619,1.50642 1.10027,0.006 1.78831,-1.52158 c 0.14957,-0.2152 0.222,-0.43041 0.0425,-0.64561 -0.23022,-0.25802 -0.44102,-0.19644 -0.64863,-0.0819 l -0.37585,0.30917 -0.0727,0.003 -0.0264,-0.0273 -0.003,-1.8792505 1.16696,-1.03662 c 0.10997,-0.18491 0.12962,-0.36979 -0.0455,-0.55468 -0.19913,-0.16066 -0.39806,-0.2287 -0.5971,-0.0818 l -0.4183,0.31219 h -0.1 v -1.91562 l 1.06997,-0.90021 c 0.1003,-0.19107 0.23755,-0.36412 0.0516,-0.67593 -0.18858,-0.11529 -0.36143,-0.28503 -0.64866,-0.0606 l -0.36674,0.30007 -0.11525,-0.0303 v -1.54281 h 3.6009 l 1.770129,1.73073 c 0.12405,0.14103 0.28212,0.18025 0.45161,0.18488 0.15543,-0.0232 0.30591,-0.0499 0.42738,-0.18488 l 1.77013,-1.73375 h 3.44931 l 1.76408,1.72769 c 0.13168,0.11693 0.27949,0.17925 0.44557,0.18186 0.17978,-0.002 0.33357,-0.0488 0.43343,-0.18793 l 1.72467,-1.71254 h 3.6434 v 1.5428 l -0.11203,0.0364 -0.51833,-0.41828 c -0.22318,-0.0179 -0.39055,0.0301 -0.488,0.16065 -0.11291,0.1 -0.1833,0.23412 -0.0698,0.51528 l 0.13637,0.20004 1.04267,0.87294 v 1.87622 l -0.0264,0.0334 -0.0698,-0.012 -0.51225,-0.37586 c -0.2094,-0.0643 -0.36167,0.0328 -0.50314,0.16066 -0.16394,0.15027 -0.13403,0.34463 -0.0484,0.55164 l 1.17001,1.05178 0.003,1.8671205 -0.0264,0.0273 -0.0727,-0.012 -0.4092,-0.32735 c -0.21262,-0.10053 -0.41944,-0.12819 -0.60924,0.0667 -0.14429,0.16526 -0.14458,0.35213 -0.0607,0.55164 l 0.11819,0.14851 1.76711,1.50946 h 1.08205 l 1.78227,-1.51551 c 0.12141,-0.20069 0.28535,-0.39209 0.0545,-0.66987 -0.21614,-0.23194 -0.43243,-0.16687 -0.64863,-0.0849 l -0.37891,0.31827 -0.0757,0.006 -0.0455,-0.0394 -0.0264,-0.0879 V 9.6413945 l 1.2215,-1.03964 c 0.0871,-0.18086 0.10265,-0.36171 -0.0607,-0.54256 -0.16569,-0.17259 -0.33139,-0.25051 -0.49709,-0.16065 l -0.46073,0.34554 -0.0607,0.0273 -0.0666,0.003 -0.0818,-0.0879 v -1.80954 l 1.13666,-0.9184 c 0.18388,-0.225 0.16013,-0.45771 0.0364,-0.69412 -0.20735,-0.16731 -0.42073,-0.18141 -0.63957,-0.0515 l -0.36372,0.32129 -0.13343,-0.0424 -0.0364,-0.0758 v -2.85828 l 0.93964,-0.55771 -0.003,-1.47004996 h -7.11993 l -1.84588,2.40663996 c -0.0466,0.0459 -0.10587,0.0861 -0.22435,0.10004 -0.093,-0.006 -0.16364,-0.0457 -0.22435,-0.10004 l -1.90653,-2.40966996 h -3.61906 l -1.88227,2.40966996 c -0.0622,0.0409 -0.10176,0.0914 -0.23931,0.10004 -0.1088,-0.002 -0.17215,-0.0501 -0.22435,-0.10913 L 98.926981,0.02087454 Z"
     id="compensator"
     sodipodi:nodetypes="ccsccccccccccccccccccccccccccccccccccccccccccccccccccccccccccccccccccccccccccccccccccccccccccccccccccccccccccccccccc"
     inkscape:label="compensator" />
  <path
     style="fill:#4a8db7;fill-opacity:0.768047;fill-rule:evenodd;stroke:#b81e1e;stroke-width:0.0331886"
     d="M 90.135771,0.10115454 V 13.012695 l -0.165963,0.28775 H 45.2492 v 1.76303 h 49.633558 l 1.919408,-1.53599 0.496804,-1.76556 V 4.9715945 h 0.7642 v -1.27692 h -2.045904 v 0.44145 c 0.0478,0.0698 0.1416,0.14615 0.10913,0.20428 -0.0841,0.0932 -0.26729,0.18674 -0.2517,0.27995 0.013,0.13932 0.30301,0.29229 0.23253,0.41771 -0.0293,0.19551 -0.16465,0.20884 -0.24682,0.31341 0.0163,0.14419 0.20591,0.14354 0.27053,0.36549 -0.006,0.14257 -0.26728,0.24585 -0.25169,0.39875 0.002,0.23091 0.16757,0.26273 0.25169,0.39401 -0.0442,0.17991 -0.29229,0.24032 -0.27053,0.34652 0.0324,0.16596 0.16401,0.23156 0.25169,0.34176 -0.0227,0.13607 -0.24422,0.24195 -0.26598,0.37974 0.10457,0.24228 0.18999,0.23416 0.28482,0.3513 0.006,0.18318 -0.16108,0.26274 -0.24195,0.39398 -0.0195,0.20331 0.2137,0.27476 0.2137,0.42724 -0.0776,0.12016 -0.29846,0.11496 -0.23254,0.36074 0.0792,0.10913 0.26663,0.23806 0.23741,0.32754 -0.006,0.1601 -0.22929,0.21986 -0.24682,0.34178 0.026,0.19129 0.20428,0.2867705 0.23805,0.4120905 -0.0776,0.1127 -0.19031,0.27346 -0.23318,0.33793 0.026,0.1364 0.14387,0.25039 0.2374,0.37026 0.0194,0.10945 -0.0471,0.16628 -0.114,0.22312 v 0.71205 c -0.10911,1.46711 -0.977707,1.86209 -1.950963,2.00794 -1.24035,-0.0497 -1.921096,-0.79857 -2.093389,-2.06964 v -0.63135 l -0.09028,-0.2137 c 0.02272,-0.14647 0.231553,-0.22181 0.218239,-0.37497 -0.07598,-0.11692 -0.220838,-0.15654 -0.227981,-0.3513 -0.01953,-0.19649 0.272802,-0.2036405 0.213694,-0.3845005 -0.06434,-0.11692 -0.208823,-0.23416 -0.189992,-0.35127 -0.01626,-0.13543 0.190638,-0.25884 0.199407,-0.36075 -0.0763,-0.13283 -0.246174,-0.26566 -0.227989,-0.39875 0.0024,-0.18252 0.161092,-0.2439 0.241957,-0.36549 -0.08055,-0.13315 -0.289696,-0.3069 -0.237404,-0.39875 0.02599,-0.11334 0.296512,-0.20103 0.232533,-0.36553 -0.07406,-0.12211 -0.234487,-0.25981 -0.218247,-0.36549 0.0024,-0.10587 0.206232,-0.202 0.204279,-0.31795 -0.06952,-0.12503 -0.224736,-0.25819 -0.204279,-0.37501 0.06952,-0.1312 0.248128,-0.28449 0.208823,-0.39401 -0.07271,-0.14094 -0.251364,-0.27117 -0.218238,-0.42245 0.07111,-0.11562 0.301057,-0.16498 0.213694,-0.34652 -0.07111,-0.11855 -0.226689,-0.2478 -0.213694,-0.35601 0.07925,-0.1075 0.250391,-0.21532 0.237404,-0.32282 -0.08087,-0.13446 -0.302037,-0.26891 -0.241948,-0.40349 0.04289,-0.11075 0.143544,-0.23124 0.128277,-0.33227 V 0.09670454 Z"
     id="profile_left"
     sodipodi:nodetypes="ccccccccccccccccccccccccccccccccccccccccccccccccccccccccccc" />
  <path
     style="fill:#4a8db7;fill-opacity:0.768047;fill-rule:evenodd;stroke:#b81e1e;stroke-width:0.0331886"
     d="M 119.94244,0.02108454 V 12.932625 l 0.16606,0.28774 h 44.72061 v 1.76304 h -49.63356 l -1.91941,-1.53599 -0.49677,-1.76557 V 4.8915245 h -0.76423 v -1.27692 h 2.0459 v 0.44145 c -0.0477,0.0698 -0.14159,0.14614 -0.10918,0.20428 0.084,0.0932 0.26729,0.18674 0.2516,0.27995 -0.0133,0.13932 -0.30298,0.29229 -0.2326,0.41771 0.0302,0.19552 0.16453,0.20883 0.24682,0.31341 -0.0166,0.1442 -0.2059,0.14354 -0.27056,0.36549 0.006,0.14257 0.26741,0.24585 0.25159,0.39875 -0.002,0.23091 -0.16767,0.26273 -0.25159,0.39401 0.0442,0.17992 0.29232,0.24032 0.27056,0.34652 -0.0318,0.16596 -0.16411,0.23156 -0.25156,0.34176 0.023,0.13607 0.24435,0.24195 0.26582,0.37974 -0.10457,0.24228 -0.18989,0.23416 -0.28482,0.35131 -0.006,0.18317 0.16115,0.26273 0.24208,0.39397 0.0202,0.2033 -0.21364,0.27475 -0.21364,0.42724 0.0777,0.12016 0.29837,0.11496 0.23261,0.36074 -0.0791,0.10913 -0.26667,0.23806 -0.23734,0.32754 0.005,0.16011 0.22921,0.21986 0.24682,0.34178 -0.0254,0.19129 -0.20431,0.28677 -0.23792,0.4120905 0.0777,0.1127 0.19018,0.27346 0.23317,0.33792 -0.0266,0.1364 -0.14373,0.2504 -0.23734,0.37027 -0.0205,0.10945 0.047,0.16628 0.11394,0.22312 v 0.71205 c 0.10925,1.4671 0.97773,1.86208 1.95097,2.00794 1.24036,-0.0497 1.92111,-0.79857 2.09338,-2.06965 v -0.63134 l 0.0902,-0.2137 c -0.0227,-0.14647 -0.2315,-0.22182 -0.21837,-0.37498 0.0761,-0.11691 0.22091,-0.15654 0.22785,-0.3513 0.0198,-0.1964805 -0.2728,-0.2036305 -0.21363,-0.3844905 0.0641,-0.11692 0.20882,-0.23415 0.1899,-0.35127 0.0172,-0.13543 -0.19048,-0.25883 -0.19938,-0.36075 0.0763,-0.13283 0.24624,-0.26566 0.22785,-0.39875 -0.003,-0.18252 -0.16118,-0.2439 -0.24208,-0.3655 0.0804,-0.13314 0.28986,-0.3069 0.23734,-0.39874 -0.0263,-0.11334 -0.29645,-0.20103 -0.2326,-0.36553 0.0741,-0.12211 0.23435,-0.25981 0.21835,-0.36549 -0.002,-0.10587 -0.20636,-0.20201 -0.20412,-0.31795 0.0694,-0.12503 0.22477,-0.25819 0.20412,-0.37501 -0.0696,-0.1312 -0.24823,-0.28449 -0.20886,-0.39401 0.0728,-0.14094 0.2514,-0.27117 0.21834,-0.42245 -0.0712,-0.11562 -0.30113,-0.16498 -0.2136,-0.34652 0.0712,-0.11855 0.22681,-0.2478 0.2136,-0.35601 -0.0792,-0.10751 -0.25033,-0.21533 -0.23734,-0.32283 0.0807,-0.13445 0.30216,-0.2689 0.24208,-0.40348 -0.0427,-0.11075 -0.14367,-0.23124 -0.12818,-0.33227 V 0.01663454 Z"
     id="profile_right"
     sodipodi:nodetypes="ccccccccccccccccccccccccccccccccccccccccccccccccccccccccccc"
     inkscape:label="profile_right" />
  <rect
     style="fill:#b8b8b8;fill-opacity:1;fill-rule:evenodd;stroke:#b81e1e;stroke-width:0.0427223"
     id="concrete_right"
     width="69.957275"
     height="54.254299"
     x="115.27378"
     y="15.017604" />
  <rect
     style="fill:#a39a9a;fill-rule:evenodd;stroke:#b81e1e;stroke-width:0.0244747"
     id="finish_right"
     width="65.032791"
     height="13.806242"
     x="120.16391"
     y="1.0484263" />
  <rect
     style="fill:#a39a9a;fill-rule:evenodd;stroke:#b81e1e;stroke-width:0.0127421"
     id="cover_right"
     width="65.183304"
     height="0.75032508"
     x="120.08731"
     y="0.14817297" />
  <rect
     style="fill:#b8b8b8;fill-opacity:1;fill-rule:evenodd;stroke:#b81e1e;stroke-width:0.0427051"
     id="concrete_left"
     width="70.122719"
     height="54.082649"
     x="24.902212"
     y="15.032573" />
  <rect
     style="fill:#a39a9a;fill-rule:evenodd;stroke:#b81e1e;stroke-width:0.0249138"
     id="finish_left"
     width="65.18679"
     height="14.272009"
     x="24.817175"
     y="0.78049719" />
  <rect
     style="fill:#a39a9a;fill-rule:evenodd;stroke:#b81e1e;stroke-width:0.0129142"
     id="cover_left"
     width="65.325188"
     height="0.76904744"
     x="24.729475"
     y="0.026423099" />
  <rect
     style="fill:#404242;fill-opacity:0.341246;fill-rule:evenodd;stroke:#b81e1e;stroke-width:0.0198777"
     id="shadow"
     width="137.48599"
     height="0.01261392"
     x="32.583973"
     y="69.292259"
     inkscape:label="shadow" />
  <ellipse
     style="opacity:0;fill:none;fill-opacity:0;fill-rule:evenodd;stroke-width:0.00368993;stroke-opacity:0"
     id="bolt_left"
     cx="-55.123871"
     cy="-13.375903"
     rx="0.094999999"
     ry="0.028942173"
     inkscape:label="bolt_left"
     transform="scale(-1)" />
  <ellipse
     style="opacity:0;fill:none;fill-opacity:0;fill-rule:evenodd;stroke-width:0.000191947;stroke-opacity:0"
     id="bolt_right"
     cx="155.33424"
     cy="13.277888"
     rx="0.0049418169"
     ry="0.0015055466"
     inkscape:label="bolt_right" />
</svg>
