<?xml version="1.0" encoding="UTF-8" standalone="no"?>
<!-- Created with Inkscape (http://www.inkscape.org/) -->

<svg
   width="210mm"
   height="297mm"
   viewBox="0 0 210 297"
   version="1.1"
   id="svg1"
   inkscape:version="1.4 (86a8ad7, 2024-10-11)"
   sodipodi:docname="DSHL-30-025-corner.svg"
   xmlns:inkscape="http://www.inkscape.org/namespaces/inkscape"
   xmlns:sodipodi="http://sodipodi.sourceforge.net/DTD/sodipodi-0.dtd"
   xmlns="http://www.w3.org/2000/svg"
   xmlns:svg="http://www.w3.org/2000/svg">
  <sodipodi:namedview
     id="namedview1"
     pagecolor="#ffffff"
     bordercolor="#000000"
     borderopacity="0.25"
     inkscape:showpageshadow="2"
     inkscape:pageopacity="0.0"
     inkscape:pagecheckerboard="0"
     inkscape:deskcolor="#d1d1d1"
     inkscape:document-units="mm"
     inkscape:zoom="0.7401656"
     inkscape:cx="383.69792"
     inkscape:cy="34.45175"
     inkscape:window-width="2560"
     inkscape:window-height="1377"
     inkscape:window-x="-8"
     inkscape:window-y="-8"
     inkscape:window-maximized="1"
     inkscape:current-layer="svg1" />
  <defs
     id="defs1">
    <inkscape:path-effect
       effect="fillet_chamfer"
       id="path-effect1"
       is_visible="true"
       lpeversion="1"
       nodesatellites_param="F,0,0,1,0,0,0,1 @ F,0,0,1,0,0,0,1 @ F,0,0,1,0,0,0,1 @ F,0,0,1,0,0,0,1 @ F,0,0,1,0,0,0,1 @ F,0,0,1,0,0,0,1 @ F,0,0,1,0,0,0,1 @ F,0,0,1,0,0,0,1 @ F,0,0,1,0,0,0,1 @ F,0,0,1,0,0,0,1 @ F,0,0,1,0,0,0,1 @ F,0,0,1,0,0,0,1 @ F,0,0,1,0,0,0,1 @ F,0,0,1,0,0,0,1 @ F,0,0,1,0,0,0,1 @ F,0,0,1,0,0,0,1 @ F,0,0,1,0,0,0,1 @ F,0,0,1,0,0,0,1 @ F,0,0,1,0,0,0,1 @ F,0,0,1,0,0,0,1 @ F,0,0,1,0,0,0,1 @ F,0,0,1,0,0,0,1 @ F,0,0,1,0,0,0,1 @ F,0,0,1,0,0,0,1 @ F,0,0,1,0,0,0,1 @ F,0,0,1,0,0,0,1 @ F,0,0,1,0,0,0,1 @ F,0,0,1,0,0,0,1 @ F,0,0,1,0,0,0,1 @ F,0,0,1,0,0,0,1 @ F,0,0,1,0,0,0,1 @ F,0,0,1,0,0,0,1 @ F,0,0,1,0,0,0,1 @ F,0,0,1,0,0,0,1 @ F,0,0,1,0,0,0,1 @ F,0,0,1,0,0,0,1 @ F,0,0,1,0,0,0,1 @ F,0,0,1,0,0,0,1 @ F,0,0,1,0,0,0,1 @ F,0,0,1,0,0,0,1 @ F,0,0,1,0,0,0,1 @ F,0,0,1,0,0,0,1 @ F,0,0,1,0,0,0,1 @ F,0,0,1,0,0,0,1 @ F,0,0,1,0,0,0,1 @ F,0,0,1,0,0,0,1 @ F,0,0,1,0,0,0,1 @ F,0,0,1,0,0,0,1 @ F,0,0,1,0,0,0,1 @ F,0,0,1,0,0,0,1 @ F,0,0,1,0,0,0,1 @ F,0,0,1,0,0,0,1 @ F,0,0,1,0,0,0,1 @ F,0,0,1,0,0,0,1 @ F,0,0,1,0,0,0,1 @ F,0,0,1,0,0,0,1 @ F,0,0,1,0,0,0,1 @ F,0,0,1,0,0,0,1 @ F,0,0,1,0,0,0,1 @ F,0,0,1,0,0,0,1 @ F,0,0,1,0,0,0,1 @ F,0,0,1,0,0,0,1 @ F,0,0,1,0,0,0,1 @ F,0,0,1,0,0,0,1 @ F,0,0,1,0,0,0,1 @ F,0,0,1,0,0,0,1 @ F,0,0,1,0,0,0,1 @ F,0,0,1,0,0,0,1 @ F,0,0,1,0,0,0,1 @ F,0,0,1,0,0,0,1 @ F,0,0,1,0,0,0,1 @ F,0,0,1,0,0,0,1 @ F,0,0,1,0,0,0,1 @ F,0,0,1,0,0,0,1 @ F,0,0,1,0,0,0,1 @ F,0,0,1,0,0,0,1 @ F,0,0,1,0,0,0,1 @ F,0,0,1,0,0,0,1 @ F,0,0,1,0,0,0,1 @ F,0,0,1,0,0,0,1 @ F,0,0,1,0,0,0,1 @ F,0,0,1,0,0,0,1 @ F,0,0,1,0,0,0,1 @ F,0,0,1,0,0,0,1 @ F,0,0,1,0,0,0,1 @ F,0,0,1,0,0,0,1 @ F,0,0,1,0,0,0,1 @ F,0,0,1,0,0,0,1 @ F,0,0,1,0,0,0,1 @ F,0,0,1,0,0,0,1 @ F,0,0,1,0,0,0,1 @ F,0,0,1,0,0,0,1 @ F,0,0,1,0,0,0,1 @ F,0,0,1,0,0,0,1 @ F,0,0,1,0,0,0,1 @ F,0,0,1,0,0,0,1 @ F,0,0,1,0,0,0,1 @ F,0,0,1,0,0,0,1 @ F,0,0,1,0,0,0,1 @ F,0,0,1,0,0,0,1 @ F,0,0,1,0,0,0,1 @ F,0,0,1,0,0,0,1 @ F,0,0,1,0,0,0,1 @ F,0,0,1,0,0,0,1 @ F,0,0,1,0,0,0,1 @ F,0,0,1,0,0,0,1 @ F,0,0,1,0,0,0,1 @ F,0,0,1,0,0,0,1 @ F,0,0,1,0,0,0,1 @ F,0,0,1,0,0,0,1 @ F,0,0,1,0,0,0,1 @ F,0,0,1,0,0,0,1 @ F,0,0,1,0,0,0,1 @ F,0,0,1,0,0,0,1 @ F,0,0,1,0,0,0,1 @ F,0,0,1,0,0,0,1"
       radius="0"
       unit="px"
       method="auto"
       mode="F"
       chamfer_steps="1"
       flexible="false"
       use_knot_distance="true"
       apply_no_radius="true"
       apply_with_radius="true"
       only_selected="true"
       hide_knots="false" />
    <inkscape:path-effect
       effect="fillet_chamfer"
       id="path-effect8-6"
       is_visible="true"
       lpeversion="1"
       nodesatellites_param="F,0,0,1,0,0,0,1 @ F,0,0,1,0,0,0,1 @ F,0,0,1,0,0,0,1 @ F,0,0,1,0,0,0,1 @ F,0,0,1,0,0,0,1 @ F,0,0,1,0,0,0,1 @ F,0,0,1,0,0,0,1 @ F,0,0,1,0,0,0,1 @ F,0,0,1,0,0,0,1 @ F,0,0,1,0,0,0,1 @ F,0,0,1,0,0,0,1 @ F,0,0,1,0,0,0,1 @ F,0,0,1,0,0,0,1 @ F,0,0,1,0,0,0,1 @ F,0,0,1,0,0,0,1 @ F,0,0,1,0,0,0,1 @ F,0,0,1,0,0,0,1 @ F,0,0,1,0,0,0,1 @ F,0,0,1,0,0,0,1 @ F,0,0,1,0,0,0,1 @ F,0,0,1,0,0,0,1 @ F,0,0,1,0,0,0,1 @ F,0,0,1,0,0,0,1 @ F,0,0,1,0,0,0,1 @ F,0,0,1,0,0,0,1 @ F,0,0,1,0,0,0,1 @ F,0,0,1,0,0,0,1 @ F,0,0,1,0,0,0,1 @ F,0,0,1,0,0.055330264,0,1 @ F,0,0,1,0,0,0,1 @ F,0,0,1,0,0,0,1 @ F,0,0,1,0,0,0,1 @ F,0,1,1,0,0.073794047,0,1 @ F,0,0,1,0,0,0,1 @ F,0,0,1,0,0,0,1 @ F,0,0,1,0,0,0,1 @ F,0,0,1,0,0,0,1 @ F,0,0,1,0,0,0,1 @ F,0,0,1,0,0,0,1 @ F,0,0,1,0,0,0,1 @ F,0,0,1,0,0,0,1 @ F,0,0,1,0,0,0,1 @ F,0,0,1,0,0,0,1 @ F,0,0,1,0,0,0,1 @ F,0,0,1,0,0,0,1 @ F,0,0,1,0,0,0,1 @ F,0,0,1,0,0,0,1 @ F,0,0,1,0,0,0,1 @ F,0,0,1,0,0,0,1 @ F,0,0,1,0,0,0,1 @ F,0,0,1,0,0,0,1 @ F,0,0,1,0,0,0,1 @ F,0,0,1,0,0,0,1 @ F,0,0,1,0,0,0,1 @ F,0,0,1,0,0,0,1 @ F,0,0,1,0,0,0,1 @ F,0,0,1,0,0,0,1 @ F,0,0,1,0,0,0,1 @ F,0,0,1,0,0,0,1 @ F,0,0,1,0,0,0,1 @ F,0,0,1,0,0,0,1 @ F,0,0,1,0,0,0,1 @ F,0,0,1,0,0,0,1 @ F,0,0,1,0,0,0,1 @ F,0,0,1,0,0,0,1 @ F,0,0,1,0,0,0,1 @ F,0,0,1,0,0,0,1 @ F,0,0,1,0,0,0,1 @ F,0,0,1,0,0,0,1 @ F,0,0,1,0,0,0,1 @ F,0,0,1,0,0,0,1 @ F,0,0,1,0,0,0,1 @ F,0,0,1,0,0,0,1 @ F,0,0,1,0,0,0,1 @ F,0,0,1,0,0,0,1 @ F,0,0,1,0,0,0,1 @ F,0,0,1,0,0,0,1 @ F,0,0,1,0,0,0,1 @ F,0,0,1,0,0,0,1 @ F,0,0,1,0,0,0,1 @ F,0,0,1,0,0,0,1 @ F,0,0,1,0,0,0,1 @ F,0,0,1,0,0,0,1 @ F,0,0,1,0,0,0,1 @ F,0,0,1,0,0,0,1 @ F,0,0,1,0,0,0,1 @ F,0,0,1,0,0,0,1 @ F,0,0,1,0,0,0,1 @ F,0,0,1,0,0,0,1 @ F,0,0,1,0,0,0,1 @ F,0,0,1,0,0,0,1 @ F,0,0,1,0,0,0,1 @ F,0,0,1,0,0,0,1 @ F,0,0,1,0,0,0,1 @ F,0,0,1,0,0,0,1 @ F,0,0,1,0,0,0,1 @ F,0,0,1,0,0,0,1 @ F,0,0,1,0,0,0,1 @ F,0,0,1,0,0,0,1 @ F,0,0,1,0,0,0,1 @ F,0,0,1,0,0,0,1 @ F,0,0,1,0,0,0,1 @ F,0,0,1,0,0,0,1 @ F,0,0,1,0,0,0,1 @ F,0,0,1,0,0,0,1 @ F,0,0,1,0,0,0,1 @ F,0,0,1,0,0,0,1 @ F,0,0,1,0,0,0,1 @ F,0,0,1,0,0,0,1 @ F,0,0,1,0,0,0,1 @ F,0,0,1,0,0,0,1 @ F,0,0,1,0,0,0,1 @ F,0,0,1,0,0,0,1 @ F,0,0,1,0,0,0,1 @ F,0,0,1,0,0,0,1 @ F,0,0,1,0,0,0,1 @ F,0,0,1,0,0,0,1"
       radius="0"
       unit="px"
       method="auto"
       mode="F"
       chamfer_steps="1"
       flexible="false"
       use_knot_distance="true"
       apply_no_radius="true"
       apply_with_radius="true"
       only_selected="true"
       hide_knots="false" />
    <inkscape:path-effect
       effect="fillet_chamfer"
       id="path-effect1-2"
       is_visible="true"
       lpeversion="1"
       nodesatellites_param="F,0,0,1,0,0,0,1 @ F,0,0,1,0,0.052223123,0,1 @ F,0,0,1,0,0,0,1 @ F,0,0,1,0,0,0,1 @ F,0,0,1,0,0,0,1 @ F,0,0,1,0,0,0,1 @ F,0,0,1,0,0,0,1 @ F,0,0,1,0,0,0,1 @ F,0,0,1,0,0,0,1 @ F,0,0,1,0,0,0,1 @ F,0,0,1,0,0,0,1 @ F,0,0,1,0,0,0,1 @ F,0,0,1,0,0,0,1 @ F,0,0,1,0,0,0,1 @ F,0,0,1,0,0,0,1 @ F,0,0,1,0,0,0,1 @ F,0,0,1,0,0,0,1 @ F,0,0,1,0,0,0,1 @ F,0,0,1,0,0,0,1 @ F,0,0,1,0,0,0,1 @ F,0,0,1,0,0,0,1 @ F,0,0,1,0,0,0,1 @ F,0,0,1,0,0,0,1 @ F,0,0,1,0,0,0,1 @ F,0,0,1,0,0,0,1 @ F,0,0,1,0,0,0,1 @ F,0,0,1,0,0,0,1 @ F,0,0,1,0,0,0,1 @ F,0,0,1,0,0,0,1 @ F,0,0,1,0,0,0,1 @ F,0,0,1,0,0,0,1 @ F,0,0,1,0,0,0,1 @ F,0,0,1,0,0,0,1 @ F,0,0,1,0,0,0,1 @ F,0,0,1,0,0,0,1 @ F,0,0,1,0,0,0,1 @ F,0,0,1,0,0,0,1 @ F,0,0,1,0,0,0,1 @ F,0,0,1,0,0,0,1 @ F,0,0,1,0,0,0,1 @ F,0,0,1,0,0,0,1 @ F,0,0,1,0,0,0,1 @ F,0,0,1,0,0,0,1 @ F,0,0,1,0,0,0,1 @ F,0,0,1,0,0,0,1 @ F,0,0,1,0,0,0,1 @ F,0,0,1,0,0,0,1 @ F,0,0,1,0,0,0,1 @ F,0,0,1,0,0,0,1 @ F,0,0,1,0,0,0,1 @ F,0,0,1,0,0,0,1 @ F,0,0,1,0,0,0,1 @ F,0,0,1,0,0,0,1 @ F,0,0,1,0,0,0,1 @ F,0,0,1,0,0,0,1 @ F,0,0,1,0,0,0,1 @ F,0,0,1,0,0,0,1 @ F,0,0,1,0,0,0,1 @ F,0,0,1,0,0,0,1"
       radius="0"
       unit="px"
       method="auto"
       mode="F"
       chamfer_steps="1"
       flexible="false"
       use_knot_distance="true"
       apply_no_radius="true"
       apply_with_radius="true"
       only_selected="true"
       hide_knots="false" />
    <inkscape:path-effect
       effect="fillet_chamfer"
       id="path-effect8"
       is_visible="true"
       lpeversion="1"
       nodesatellites_param="F,0,0,1,0,0,0,1 @ F,0,0,1,0,0,0,1 @ F,0,0,1,0,0,0,1 @ F,0,0,1,0,0,0,1 @ F,0,0,1,0,0,0,1 @ F,0,0,1,0,0,0,1 @ F,0,0,1,0,0,0,1 @ F,0,0,1,0,0,0,1 @ F,0,0,1,0,0,0,1 @ F,0,0,1,0,0,0,1 @ F,0,0,1,0,0,0,1 @ F,0,0,1,0,0,0,1 @ F,0,0,1,0,0,0,1 @ F,0,0,1,0,0,0,1 @ F,0,0,1,0,0,0,1 @ F,0,0,1,0,0,0,1 @ F,0,0,1,0,0,0,1 @ F,0,0,1,0,0,0,1 @ F,0,0,1,0,0,0,1 @ F,0,0,1,0,0,0,1 @ F,0,0,1,0,0,0,1 @ F,0,0,1,0,0,0,1 @ F,0,0,1,0,0,0,1 @ F,0,0,1,0,0,0,1 @ F,0,0,1,0,0,0,1 @ F,0,0,1,0,0,0,1 @ F,0,0,1,0,0,0,1 @ F,0,0,1,0,0,0,1 @ F,0,0,1,0,0.055330264,0,1 @ F,0,0,1,0,0,0,1 @ F,0,0,1,0,0,0,1 @ F,0,0,1,0,0,0,1 @ F,0,1,1,0,0.073794047,0,1 @ F,0,0,1,0,0,0,1 @ F,0,0,1,0,0,0,1 @ F,0,0,1,0,0,0,1 @ F,0,0,1,0,0,0,1 @ F,0,0,1,0,0,0,1 @ F,0,0,1,0,0,0,1 @ F,0,0,1,0,0,0,1 @ F,0,0,1,0,0,0,1 @ F,0,0,1,0,0,0,1 @ F,0,0,1,0,0,0,1 @ F,0,0,1,0,0,0,1 @ F,0,0,1,0,0,0,1 @ F,0,0,1,0,0,0,1 @ F,0,0,1,0,0,0,1 @ F,0,0,1,0,0,0,1 @ F,0,0,1,0,0,0,1 @ F,0,0,1,0,0,0,1 @ F,0,0,1,0,0,0,1 @ F,0,0,1,0,0,0,1 @ F,0,0,1,0,0,0,1 @ F,0,0,1,0,0,0,1 @ F,0,0,1,0,0,0,1 @ F,0,0,1,0,0,0,1 @ F,0,0,1,0,0,0,1 @ F,0,0,1,0,0,0,1 @ F,0,0,1,0,0,0,1 @ F,0,0,1,0,0,0,1 @ F,0,0,1,0,0,0,1 @ F,0,0,1,0,0,0,1 @ F,0,0,1,0,0,0,1 @ F,0,0,1,0,0,0,1 @ F,0,0,1,0,0,0,1 @ F,0,0,1,0,0,0,1 @ F,0,0,1,0,0,0,1 @ F,0,0,1,0,0,0,1 @ F,0,0,1,0,0,0,1 @ F,0,0,1,0,0,0,1 @ F,0,0,1,0,0,0,1 @ F,0,0,1,0,0,0,1 @ F,0,0,1,0,0,0,1 @ F,0,0,1,0,0,0,1 @ F,0,0,1,0,0,0,1 @ F,0,0,1,0,0,0,1 @ F,0,0,1,0,0,0,1 @ F,0,0,1,0,0,0,1 @ F,0,0,1,0,0,0,1 @ F,0,0,1,0,0,0,1 @ F,0,0,1,0,0,0,1 @ F,0,0,1,0,0,0,1 @ F,0,0,1,0,0,0,1 @ F,0,0,1,0,0,0,1 @ F,0,0,1,0,0,0,1 @ F,0,0,1,0,0,0,1 @ F,0,0,1,0,0,0,1 @ F,0,0,1,0,0,0,1 @ F,0,0,1,0,0,0,1 @ F,0,0,1,0,0,0,1 @ F,0,0,1,0,0,0,1 @ F,0,0,1,0,0,0,1 @ F,0,0,1,0,0,0,1 @ F,0,0,1,0,0,0,1 @ F,0,0,1,0,0,0,1 @ F,0,0,1,0,0,0,1 @ F,0,0,1,0,0,0,1 @ F,0,0,1,0,0,0,1 @ F,0,0,1,0,0,0,1 @ F,0,0,1,0,0,0,1 @ F,0,0,1,0,0,0,1 @ F,0,0,1,0,0,0,1 @ F,0,0,1,0,0,0,1 @ F,0,0,1,0,0,0,1 @ F,0,0,1,0,0,0,1 @ F,0,0,1,0,0,0,1 @ F,0,0,1,0,0,0,1 @ F,0,0,1,0,0,0,1 @ F,0,0,1,0,0,0,1 @ F,0,0,1,0,0,0,1 @ F,0,0,1,0,0,0,1 @ F,0,0,1,0,0,0,1 @ F,0,0,1,0,0,0,1 @ F,0,0,1,0,0,0,1 @ F,0,0,1,0,0,0,1 @ F,0,0,1,0,0,0,1 @ F,0,0,1,0,0,0,1"
       radius="0"
       unit="px"
       method="auto"
       mode="F"
       chamfer_steps="1"
       flexible="false"
       use_knot_distance="true"
       apply_no_radius="true"
       apply_with_radius="true"
       only_selected="true"
       hide_knots="false" />
  </defs>
  <path
     style="fill:#070707;fill-opacity:0.768047;fill-rule:evenodd;stroke:#b81e1e;stroke-width:0.02997"
     d="m 112.96955,66.808376 v 1.433687 c 0,0 -0.009,0.02434 0.0273,0.06364 0.0364,0.03941 0.85777,0.527395 0.85777,0.527395 l 0.009,2.95224 -0.10909,0.03337 -0.51528,-0.412222 c -0.20027,-0.02669 -0.37066,0.0065 -0.49104,0.139421 -0.16613,0.185729 -0.13848,0.352114 -0.0788,0.515275 l 0.13033,0.206111 1.05781,0.894155 v 1.873183 l -0.0205,0.01818 h -0.0698 l -0.5304,-0.375851 c -0.18115,-0.03117 -0.34264,-0.0073 -0.46678,0.121239 -0.18995,0.172942 -0.18901,0.368771 -0.094,0.5759 l 1.18213,1.054806 v 1.876218 l -0.0302,0.02112 h -0.0607 l -0.39099,-0.330384 c -0.14962,-0.06798 -0.40898,-0.159071 -0.6123,0.06059 -0.19379,0.157986 -0.14282,0.347911 -0.0788,0.539535 l 0.094,0.160654 1.7762,1.506423 1.10027,0.0062 1.78831,-1.521586 c 0.14957,-0.215202 0.222,-0.430408 0.0425,-0.64561 -0.23022,-0.25802 -0.44102,-0.196433 -0.64863,-0.08185 l -0.37585,0.309169 -0.0727,0.0032 -0.0264,-0.02727 -0.003,-1.879251 1.16696,-1.03662 c 0.10997,-0.184908 0.12962,-0.369786 -0.0455,-0.554679 -0.19913,-0.160654 -0.39806,-0.228693 -0.5971,-0.08185 l -0.4183,0.312193 h -0.1 v -1.915619 l 1.06997,-0.900214 c 0.1003,-0.191066 0.23755,-0.36412 0.0516,-0.675929 -0.18858,-0.115285 -0.36143,-0.28503 -0.64866,-0.06059 l -0.36674,0.300076 -0.11525,-0.03033 v -1.542809 h 3.6009 l 1.77013,1.730726 c 0.12405,0.141034 0.28212,0.180245 0.45161,0.184878 0.15543,-0.02317 0.30591,-0.04986 0.42738,-0.184878 l 1.77013,-1.733753 h 3.44931 l 1.76408,1.727694 c 0.13168,0.116927 0.27949,0.179247 0.44557,0.181858 0.17978,-0.0024 0.33357,-0.0488 0.43343,-0.187929 l 1.72467,-1.71254 h 3.6434 v 1.542801 l -0.11203,0.0364 -0.51833,-0.418282 c -0.22318,-0.01789 -0.39055,0.03006 -0.488,0.160654 -0.11291,0.09995 -0.1833,0.234119 -0.0698,0.515278 l 0.13637,0.200041 1.04267,0.872939 v 1.876216 l -0.0264,0.03337 -0.0698,-0.01202 -0.51225,-0.375854 c -0.2094,-0.06431 -0.36167,0.03279 -0.50314,0.160654 -0.16394,0.150273 -0.13403,0.344629 -0.0484,0.551647 l 1.17001,1.051771 0.003,1.867123 -0.0264,0.02728 -0.0727,-0.01202 -0.4092,-0.32735 c -0.21262,-0.100533 -0.41944,-0.128189 -0.60924,0.06666 -0.14429,0.165258 -0.14458,0.352131 -0.0607,0.551643 l 0.11819,0.148513 1.76711,1.509459 h 1.08205 l 1.78227,-1.515518 c 0.12141,-0.200686 0.28535,-0.392089 0.0545,-0.669861 -0.21614,-0.231949 -0.43243,-0.166872 -0.64863,-0.08487 l -0.37891,0.318261 -0.0757,0.0062 -0.0455,-0.03942 -0.0264,-0.08789 v -1.773162 l 1.2215,-1.039644 c 0.0871,-0.180861 0.10265,-0.361707 -0.0607,-0.542558 -0.16569,-0.17259 -0.33139,-0.250513 -0.49709,-0.160654 l -0.46073,0.345538 -0.0607,0.02727 -0.0666,0.0032 -0.0818,-0.08789 v -1.809531 l 1.13666,-0.918403 c 0.18388,-0.224998 0.16013,-0.457709 0.0364,-0.694118 -0.20735,-0.167311 -0.42073,-0.181417 -0.63957,-0.05153 l -0.36372,0.321288 -0.13343,-0.04244 -0.0364,-0.07581 v -2.858278 l 0.93964,-0.557712 -0.003,-1.470055 h -7.11993 l -1.84588,2.406647 c -0.0466,0.04593 -0.10587,0.08613 -0.22435,0.100035 -0.093,-0.0062 -0.16364,-0.04569 -0.22435,-0.100035 l -1.90653,-2.409673 h -3.61906 l -1.88227,2.409673 c -0.0622,0.04091 -0.10176,0.09141 -0.23931,0.100035 -0.1088,-0.0024 -0.17215,-0.05012 -0.22435,-0.109127 l -1.88835,-2.406652 z"
     id="compensator"
     sodipodi:nodetypes="ccsccccccccccccccccccccccccccccccccccccccccccccccccccccccccccccccccccccccccccccccccccccccccccccccccccccccccccccccccc"
     inkscape:label="compensator" />
  <path
     style="fill:#b4cdd0;fill-opacity:0;fill-rule:evenodd;stroke:#b81e1e;stroke-width:0.000130592"
     id="screw_right"
     transform="scale(-1,1)"
     inkscape:label="screw_right"
     sodipodi:type="arc"
     sodipodi:cx="-139.74191"
     sodipodi:cy="30.67247"
     sodipodi:rx="0.039848957"
     sodipodi:ry="0.026163459"
     sodipodi:start="0"
     sodipodi:end="1.3916238"
     sodipodi:arc-type="slice"
     d="m -139.70206,30.67247 a 0.03984896,0.02616346 0 0 1 -0.0328,0.02575 l -0.007,-0.02575 z" />
  <rect
     style="fill:#e1ecec;fill-opacity:0.77;fill-rule:evenodd;stroke:#b81e1e;stroke-width:0.00900043"
     id="finish_right"
     width="70.40258"
     height="2.0348172"
     x="-70.407104"
     y="141.43813"
     inkscape:label="finish_right"
     transform="rotate(-90)" />
  <rect
     style="fill:#e1ecec;fill-opacity:0.77;fill-rule:evenodd;stroke:#b81e1e;stroke-width:0.0103292"
     id="cover_right"
     width="70.378044"
     height="0.12765904"
     x="-70.390427"
     y="141.26251"
     inkscape:label="cover_right"
     transform="rotate(-90)" />
  <path
     style="fill:#4a8db7;fill-opacity:0.768047;fill-rule:evenodd;stroke:#b81e1e;stroke-width:0.0339124"
     d="m 133.05364,70.292137 h 2.11478 v 0.53354 l -0.0969,0.14535 c 0.11316,0.0852 0.23561,0.16427 0.24258,0.32024 -0.0571,-0.0298 -0.28473,0.38663 -0.19413,0.39775 0.0919,0.01 0.30298,0.344 0.20375,0.38803 -0.11116,0.0959 -0.17588,0.2698 -0.23295,0.45592 0.22531,0.0772 0.2522,0.20874 0.2814,0.33956 -0.14999,0.062 -0.26049,0.15696 -0.30065,0.31028 0.17754,0.18086 0.2273,0.27675 0.30065,0.38802 -0.16692,0.1015 -0.22101,0.25155 -0.26182,0.40745 0.18483,0.16061 0.1865,0.26051 0.21337,0.36863 -0.18883,0.0793 -0.2449,0.20673 -0.23295,0.35891 0.17719,0.13905 0.26647,0.2781 0.24257,0.41714 -0.14368,0.0793 -0.28572,0.15929 -0.23261,0.31028 0.24888,0.29568 0.30728,0.27013 0.29102,0.40744 0.002,0.21604 -0.17786,0.24923 -0.29102,0.34924 0.002,0.18451 0.18218,0.29236 0.30064,0.42683 -0.0401,0.24623 -0.23296,0.13572 -0.32023,0.33955 0.0604,0.24988 0.18717,0.26647 0.28141,0.39771 -0.17987,0.11316 -0.2615,0.24922 -0.20376,0.41714 v 0.9022 c 0.28372,1.55549 1.50261,2.04729 2.24088,2.01775 1.18407,-0.28207 1.75827,-0.97419 1.88194,-1.96926 v -0.67907 c 0.12379,-0.10885 0.13806,-0.21038 0.12611,-0.31028 -0.0345,-0.21703 0.0969,-0.081 -0.30065,-0.38803 0.26415,-0.11084 0.28672,-0.25054 0.32985,-0.38804 -0.0919,-0.21271 -0.222,-0.31094 -0.35891,-0.38802 0.048,-0.19513 0.3918,-0.18086 0.36861,-0.41713 -0.0518,-0.14933 -0.26051,-0.14834 -0.32024,-0.31028 0.0638,-0.22932 0.34443,-0.076 0.32024,-0.39773 -0.071,-0.21703 -0.29004,-0.25884 -0.29103,-0.38804 0.0793,-0.29633 0.18118,-0.2522 0.27178,-0.37833 -0.0475,-0.24125 -0.31493,-0.19513 -0.30066,-0.40745 0.0455,-0.19115 0.28606,-0.22897 0.32023,-0.35893 -0.0604,-0.21204 -0.33486,-0.17885 -0.2814,-0.36861 0.0864,-0.13871 0.31726,-0.2532 0.2522,-0.41714 -0.0265,-0.1397 -0.24987,-0.13108 -0.27178,-0.30065 0.0359,-0.14302 0.36566,-0.26515 0.32986,-0.39772 -0.0796,-0.19679 -0.32587,-0.25951 -0.33954,-0.38807 0.0498,-0.2011 0.24126,-0.2522 0.34459,-0.37831 -0.11151,-0.1553 -0.36448,-0.29469 -0.33497,-0.46565 0.10351,-0.0743 0.30729,-0.12643 0.31028,-0.223 0.0232,-0.23959 -0.14868,-0.2844 -0.22301,-0.42682 v -6.49953 c -0.18318,-0.11283 -0.36961,-0.22433 -0.32985,-0.41714 0.27476,-0.38992 0.69275,-0.24092 0.82457,-0.65964 -0.19148,-0.36677 -0.84843,-0.39315 -0.78574,-0.73729 0.0593,-0.62167 0.78324,-0.29699 0.69844,-0.70816 -0.15565,-0.36479 -0.76134,-0.41103 -0.73727,-0.75664 0.18351,-0.32456 0.71125,-0.29767 0.74696,-0.65966 -0.0989,-0.3126 -0.77189,-0.34579 -0.73725,-0.71789 0.19049,-0.37644 0.82774,-0.27908 0.70813,-0.74695 -0.0598,-0.3658 -0.9221,-0.3292 -0.70813,-0.79547 0.24558,-0.18751 0.73549,-0.26913 0.73725,-0.56263 -0.071,-0.48988 -0.89507,-0.47852 -0.72756,-0.81488 0.1135,-0.39384 0.72779,-0.28208 0.71787,-0.67906 -0.0647,-0.30167 -0.87731,-0.38025 -0.74696,-0.74698 0.225,-0.35514 0.72061,-0.31226 0.76638,-0.64022 -0.10162,-0.26515 -0.81692,-0.53033 -0.70818,-0.79548 0.084,-0.39725 0.78422,-0.28771 0.77607,-0.69845 -0.32257,-0.12411 -0.84804,-0.42463 -0.79548,-0.73726 0.13805,-0.42202 0.72028,-0.17422 0.75669,-0.64996 -0.16262,-0.44123 -0.90646,-0.39755 -0.77607,-0.74696 0.2396,-0.5142 0.74102,-0.31393 0.77607,-0.74696 -0.16128,-0.223 -0.93911,-0.39647 -0.76638,-0.66937 0.18583,-0.58598 0.75781,-0.25453 0.75665,-0.72755 -0.22963,-0.25221 -0.85604,-0.3361 -0.68876,-0.75669 0.151,-0.42576 0.79505,-0.20475 0.72759,-0.64995 -0.1782,-0.3826 -0.9259,-0.40495 -0.79548,-0.73724 0.26183,-0.223 0.7746,-0.3961 0.78579,-0.66937 -0.13208,-0.2459 -1.1263,-0.51314 -0.75669,-0.79899 0.17456,-0.47708 0.72254,-0.38972 0.71785,-0.65614 -0.1739,-0.34841 -0.98233,-0.42851 -0.76636,-0.75664 0.19313,-0.38847 0.7957,-0.29734 0.74696,-0.71786 -0.14836,-0.25321 -0.77385,-0.36192 -0.67904,-0.65965 0.11017,-0.40263 0.67299,-0.49114 0.66935,-0.75668 -0.22566,-0.2479 -0.87125,-0.41501 -0.65966,-0.74697 0.14203,-0.42765 0.71024,-0.33228 0.72758,-0.63055 -0.1928,-0.29599 -0.82757,-0.44258 -0.71789,-0.77605 0.22965,-0.23296 0.72639,-0.43002 0.68875,-0.69847 -0.23594,-0.23596 -0.81565,-0.37736 -0.70813,-0.70818 0.11781,-0.33613 0.80145,-0.20441 0.67904,-0.73723 -0.2522,-0.23927 -0.78044,-0.42145 -0.75665,-0.71786 0.19313,-0.33573 0.89413,-0.1417 0.78574,-0.69848 -0.2522,-0.21337 -0.75399,-0.41296 -0.75665,-0.64023 0.17356,-0.47129 0.77057,-0.43589 0.75665,-0.78578 -0.26648,-0.23562 -0.7266,-0.42945 -0.79543,-0.70818 0.23693,-0.39477 0.88231,-0.33814 0.82457,-0.75664 -0.25254,-0.22002 -0.80489,-0.58545 -0.72775,-0.82362 0.0133,-0.34286 0.67625,-0.69734 0.72696,-0.97817 -0.0205,-0.34536 0.0176,0.0256 -0.023,-0.26456 0.0933,-0.11589 -0.15609,-0.46263 -0.25721,-0.71785 -0.18118,-0.28142 -0.43039,-0.42763 -0.45642,-0.70894 0.1908,-0.22001 0.60108,-0.48507 0.5434,-0.80435 -0.12711,-0.26946 -0.60874,-0.417 -0.61116,-0.61113 0.086,-0.46624 0.48495,-0.49269 0.53354,-0.75665 -0.17456,-0.23594 -0.58555,-0.47212 -0.52382,-0.70817 0.0753,-0.43555 0.42035,-0.27178 0.63054,-0.40744 0.17687,-0.0969 0.1772,-0.26979 0.15531,-0.40744 -0.15531,-0.19082 -0.40921,-0.32754 -0.46566,-0.57234 l 0.0484,-3.09456 1.23199,-6.305544 c 0.0541,-0.117145 0.11051,-0.232289 0.29102,-0.222997 0.21141,0.05603 0.36329,0.141699 0.36868,0.30065 v 80.206361 h -1.9402 v -3.98703 c 0.10984,-0.0887 0.21736,-0.1782 0.21337,-0.32986 -0.23528,-0.15465 -0.22764,-0.27709 -0.28142,-0.40741 0.0913,-0.0916 0.26882,-0.12809 0.23297,-0.30065 -0.23263,-0.16725 -0.2542,-0.29734 -0.27178,-0.42686 0.18286,-0.16028 0.2595,-0.27245 0.30065,-0.36861 -0.13705,-0.1261 -0.31857,-0.2522 -0.27178,-0.37834 0.0919,-0.12611 0.27477,-0.24059 0.27178,-0.37831 -0.0902,-0.13806 -0.28075,-0.2927 -0.23296,-0.40745 0.0823,-0.12245 0.25387,-0.23494 0.23296,-0.36865 -0.10053,-0.13275 -0.32785,-0.30331 -0.30065,-0.39772 0.0876,-0.10425 0.24723,-0.12478 0.27178,-0.31029 0.0133,-0.13572 -0.36911,-0.28903 -0.2814,-0.43654 0.0972,-0.12943 0.41614,-0.25851 0.29103,-0.38803 -0.0867,-0.12312 -0.29435,-0.25719 -0.25222,-0.36865 0.10319,-0.12611 0.36222,-0.25221 0.30067,-0.37831 -0.094,-0.1228 -0.38578,-0.21936 -0.28141,-0.36865 0.0873,-0.11316 0.36619,-0.21471 0.2522,-0.33952 -0.10053,-0.13273 -0.36553,-0.30331 -0.30065,-0.39773 0.0969,-0.11647 0.36576,-0.21569 0.29103,-0.34922 l -0.18451,-0.35894 0.02,-0.53354 c -0.1845,-1.17594 -0.6561,-1.99578 -1.75584,-2.0372 -2.04751,-0.0471 -2.01818,1.2014 -2.3185,2.14388 v 0.61117 l -0.0776,0.31028 c 0.18218,-0.0232 0.2293,0.1198 0.30065,0.23296 -0.0166,0.18816 -0.20906,0.2595 -0.32986,0.37834 0.0869,0.12145 0.11183,0.23562 0.29103,0.36862 0.0772,0.13274 -0.16095,0.26515 -0.24259,0.39775 -0.006,0.13473 0.19281,0.29037 0.30066,0.43651 -0.12378,0.0946 -0.29999,0.1437 -0.32986,0.32024 -0.0166,0.17853 0.17223,0.26615 0.26184,0.39772 -0.0852,0.11615 -0.23761,0.12644 -0.2426,0.36866 -0.01,0.19313 0.17756,0.25452 0.27179,0.37834 -0.15365,0.11581 -0.27842,0.23694 -0.29103,0.37831 0.0541,0.11647 0.0332,0.23295 0.25222,0.34923 -0.0298,0.27909 -0.15996,0.25751 -0.26185,0.32024 -8.7e-4,0.1792 0.10852,0.31193 0.26185,0.42682 0.0976,0.19413 -0.16128,0.2459 -0.24259,0.36862 -0.0504,0.17024 0.17555,0.27941 0.27178,0.41716 -0.006,0.18252 -0.16759,0.21239 -0.24258,0.35894 -0.0577,0.12345 0.13108,0.27742 0.20376,0.41714 0.0574,0.17586 -0.14669,0.22099 -0.22302,0.32985 v 0.53354 h -2.03716 v -1.2805 h 0.80514 v -6.93608 l 0.17457,-1.16413 0.74695,-1.54244 v -0.2814 l -0.7315,-1.26704 -0.2094,-1.13877 v -6.9555 l -0.82456,-0.0199 z"
     id="profile_right"
     sodipodi:nodetypes="cccccscccccccccccccccccccccccccccccccccccccccccccccccccccccccccccccccccccccccccccccccccccccccccccccccccccccccccccccccccccccccccccccccccccccccccccccccccccccccccccccccc"
     inkscape:label="profile_right_corner" />
  <path
     style="fill:#e1ecec;fill-opacity:0.77;fill-rule:evenodd;stroke:#b81e1e;stroke-width:0.0108229"
     d="m 143.48596,0.01418645 h 20.93762 V 135.77242 h -23.18193 l 0,-65.139692 h 2.23321 z"
     id="concrete_right"
     inkscape:label="concrete_right"
     sodipodi:nodetypes="ccccccc" />
  <rect
     style="fill:#404242;fill-opacity:0.341246;fill-rule:evenodd;stroke:#b81e1e;stroke-width:0.0185686"
     id="shadow"
     width="108.6935"
     height="0.013923001"
     x="45.580288"
     y="135.52234"
     inkscape:label="shadow" />
  <rect
     style="fill:#b8b8b8;fill-opacity:1;fill-rule:evenodd;stroke:#b81e1e;stroke-width:0.0353238"
     id="concrete_left"
     width="67.096909"
     height="38.671307"
     x="45.813122"
     y="96.907272" />
  <rect
     style="fill:#a39a9a;fill-rule:evenodd;stroke:#b81e1e;stroke-width:0.032998"
     id="finish_left"
     width="65.431473"
     height="24.943287"
     x="45.735813"
     y="71.857193" />
  <rect
     style="fill:#a39a9a;fill-rule:evenodd;stroke:#b81e1e;stroke-width:0.0328156"
     id="cover_left"
     width="65.305283"
     height="4.9671845"
     x="45.843601"
     y="66.875198" />
  <ellipse
     style="opacity:0;fill:none;fill-opacity:0;fill-rule:evenodd;stroke-width:0.00368993;stroke-opacity:0"
     id="bolt_left"
     cx="-76.038315"
     cy="-95.135201"
     rx="0.094999999"
     ry="0.028942173"
     inkscape:label="bolt_left"
     transform="scale(-1)" />
  <path
     style="fill:#5e5e5e;fill-rule:evenodd;stroke:#000000;stroke-width:0.0102192"
     d="M 39.444033,143.16475 H 53.24358 a 0.05222312,0.05222312 135 0 0 0.05222,-0.0522 v -8.6945 h 0.558538 v 1.20644 l -0.04876,0.12467 c 0.02918,0.0399 0.07687,0.0772 0.08294,0.12046 0.0087,0.0448 -0.04803,0.0765 -0.07306,0.11453 0.0219,0.039 0.07484,0.0594 0.06319,0.11849 0.01658,0.0534 -0.03523,0.0726 -0.05332,0.10861 0.01923,0.0401 0.04926,0.0532 0.05529,0.12638 0.01244,0.0596 -0.04343,0.0737 -0.06516,0.11059 0.02463,0.036 0.06631,0.0692 0.07109,0.10861 0.01622,0.0519 -0.04508,0.0715 -0.06911,0.10663 0.0229,0.0444 0.0783,0.0694 0.06714,0.13429 0.01436,0.0329 -0.04258,0.0658 -0.06517,0.0987 0.0273,0.0387 0.07057,0.0358 0.08096,0.11849 0.0036,0.0526 -0.04917,0.0744 -0.08294,0.10663 0.04415,0.0519 0.05788,0.0977 0.06517,0.14218 0.0042,0.039 -0.04068,0.0501 -0.06122,0.075 0.0191,0.0434 0.0683,0.0869 0.05727,0.13033 0.01694,0.0456 -0.04079,0.0764 -0.06122,0.11454 0.02297,0.0405 0.07202,0.0753 0.06517,0.12243 0.0021,0.0363 -0.04969,0.0658 -0.07504,0.0987 l 0.0395,0.11058 0.0039,0.16786 c 0.07061,0.3146 0.219364,0.57169 0.681284,0.59834 0.1672,-0.0739 0.312415,-0.002 0.556873,-0.58847 l -0.0059,-0.21524 0.03555,-0.0612 c -0.02114,-0.042 -0.06354,-0.0414 -0.06319,-0.12638 -0.02765,-0.0369 0.04001,-0.0737 0.06517,-0.11059 -0.03515,-0.0402 -0.06937,-0.0803 -0.07899,-0.12046 0.0055,-0.0563 0.05134,-0.0803 0.07701,-0.12046 -0.02818,-0.0249 -0.06377,-0.0386 -0.07109,-0.0948 -0.002,-0.0382 0.0465,-0.0763 0.07109,-0.11453 -0.02787,-0.0443 -0.07559,-0.0787 -0.07701,-0.13626 -0.0022,-0.0498 0.05792,-0.0685 0.08689,-0.10268 -0.03197,-0.0367 -0.0813,-0.0677 -0.08294,-0.11454 -0.0086,-0.0411 0.0473,-0.0751 0.07109,-0.11256 -0.02313,-0.0406 -0.07099,-0.0318 -0.06911,-0.12243 -0.02031,-0.0268 0.03858,-0.0719 0.06122,-0.10861 -0.02023,-0.0417 -0.06285,-0.0734 -0.05332,-0.12836 -0.01157,-0.0635 0.05134,-0.0711 0.07701,-0.10664 -0.02639,-0.0413 -0.06317,-0.0514 -0.07899,-0.1244 -0.0059,-0.0459 0.03809,-0.0633 0.05727,-0.0948 -0.02576,-0.0417 -0.06033,-0.0799 -0.06911,-0.12836 0.0041,-0.0382 0.05166,-0.0763 0.07899,-0.11453 -0.02367,-0.0204 -0.04034,-0.0479 -0.04542,-0.0869 v -0.0928 h 0.655611 v 0.43839 h -0.260665 v 2.2275 c 0.0031,0.26675 -0.09272,0.4637 -0.215246,0.64179 -0.13715,0.26848 -0.430789,0.37559 -0.805691,0.39889 h -0.58847 v 4.45895 H 39.427266 Z"
     id="profile_left"
     sodipodi:nodetypes="cccccccccccccccccccccccccccccccccccccccccccccccccccccccccccc"
     inkscape:path-effect="#path-effect1-2"
     inkscape:original-d="m 39.444033,143.16475 h 13.85177 v -8.74672 h 0.558538 v 1.20644 l -0.04876,0.12467 c 0.02918,0.0399 0.07687,0.0772 0.08294,0.12046 0.0087,0.0448 -0.04803,0.0765 -0.07306,0.11453 0.0219,0.039 0.07484,0.0594 0.06319,0.11849 0.01658,0.0534 -0.03523,0.0726 -0.05332,0.10861 0.01923,0.0401 0.04926,0.0532 0.05529,0.12638 0.01244,0.0596 -0.04343,0.0737 -0.06516,0.11059 0.02463,0.036 0.06631,0.0692 0.07109,0.10861 0.01622,0.0519 -0.04508,0.0715 -0.06911,0.10663 0.0229,0.0444 0.0783,0.0694 0.06714,0.13429 0.01436,0.0329 -0.04258,0.0658 -0.06517,0.0987 0.0273,0.0387 0.07057,0.0358 0.08096,0.11849 0.0036,0.0526 -0.04917,0.0744 -0.08294,0.10663 0.04415,0.0519 0.05788,0.0977 0.06517,0.14218 0.0042,0.039 -0.04068,0.0501 -0.06122,0.075 0.0191,0.0434 0.0683,0.0869 0.05727,0.13033 0.01694,0.0456 -0.04079,0.0764 -0.06122,0.11454 0.02297,0.0405 0.07202,0.0753 0.06517,0.12243 0.0021,0.0363 -0.04969,0.0658 -0.07504,0.0987 l 0.0395,0.11058 0.0039,0.16786 c 0.07061,0.3146 0.219364,0.57169 0.681284,0.59834 0.1672,-0.0739 0.312415,-0.002 0.556873,-0.58847 l -0.0059,-0.21524 0.03555,-0.0612 c -0.02114,-0.042 -0.06354,-0.0414 -0.06319,-0.12638 -0.02765,-0.0369 0.04001,-0.0737 0.06517,-0.11059 -0.03515,-0.0402 -0.06937,-0.0803 -0.07899,-0.12046 0.0055,-0.0563 0.05134,-0.0803 0.07701,-0.12046 -0.02818,-0.0249 -0.06377,-0.0386 -0.07109,-0.0948 -0.002,-0.0382 0.0465,-0.0763 0.07109,-0.11453 -0.02787,-0.0443 -0.07559,-0.0787 -0.07701,-0.13626 -0.0022,-0.0498 0.05792,-0.0685 0.08689,-0.10268 -0.03197,-0.0367 -0.0813,-0.0677 -0.08294,-0.11454 -0.0086,-0.0411 0.0473,-0.0751 0.07109,-0.11256 -0.02313,-0.0406 -0.07099,-0.0318 -0.06911,-0.12243 -0.02031,-0.0268 0.03858,-0.0719 0.06122,-0.10861 -0.02023,-0.0417 -0.06285,-0.0734 -0.05332,-0.12836 -0.01157,-0.0635 0.05134,-0.0711 0.07701,-0.10664 -0.02639,-0.0413 -0.06317,-0.0514 -0.07899,-0.1244 -0.0059,-0.0459 0.03809,-0.0633 0.05727,-0.0948 -0.02576,-0.0417 -0.06033,-0.0799 -0.06911,-0.12836 0.0041,-0.0382 0.05166,-0.0763 0.07899,-0.11453 -0.02367,-0.0204 -0.04034,-0.0479 -0.04542,-0.0869 v -0.0928 h 0.655611 v 0.43839 h -0.260665 v 2.2275 c 0.0031,0.26675 -0.09272,0.4637 -0.215246,0.64179 -0.13715,0.26848 -0.430789,0.37559 -0.805691,0.39889 h -0.58847 v 4.45895 H 39.427266 Z"
     transform="matrix(3.2211171,0,0,3.2211171,-60.468036,-366.13951)"
     inkscape:label="profile_left" />
</svg>
