<?xml version="1.0" encoding="UTF-8" standalone="no"?>
<!-- Created with Inkscape (http://www.inkscape.org/) -->

<svg
   width="210mm"
   height="297mm"
   viewBox="0 0 210 297"
   version="1.1"
   id="svg1"
   inkscape:version="1.4 (86a8ad7, 2024-10-11)"
   sodipodi:docname="DSHL-15-015-corner.svg"
   xmlns:inkscape="http://www.inkscape.org/namespaces/inkscape"
   xmlns:sodipodi="http://sodipodi.sourceforge.net/DTD/sodipodi-0.dtd"
   xmlns="http://www.w3.org/2000/svg"
   xmlns:svg="http://www.w3.org/2000/svg">
  <sodipodi:namedview
     id="namedview1"
     pagecolor="#ffffff"
     bordercolor="#000000"
     borderopacity="0.25"
     inkscape:showpageshadow="2"
     inkscape:pageopacity="0.0"
     inkscape:pagecheckerboard="0"
     inkscape:deskcolor="#d1d1d1"
     inkscape:document-units="mm"
     inkscape:zoom="1.4803312"
     inkscape:cx="428.95805"
     inkscape:cy="230.01609"
     inkscape:window-width="2560"
     inkscape:window-height="1377"
     inkscape:window-x="-8"
     inkscape:window-y="-8"
     inkscape:window-maximized="1"
     inkscape:current-layer="svg1" />
  <defs
     id="defs1">
    <inkscape:path-effect
       effect="fillet_chamfer"
       id="path-effect1"
       is_visible="true"
       lpeversion="1"
       nodesatellites_param="F,0,0,1,0,0,0,1 @ F,0,0,1,0,0,0,1 @ F,0,0,1,0,0,0,1 @ F,0,0,1,0,0,0,1 @ F,0,0,1,0,0,0,1 @ F,0,0,1,0,0,0,1 @ F,0,0,1,0,0,0,1 @ F,0,0,1,0,0,0,1 @ F,0,0,1,0,0,0,1 @ F,0,0,1,0,0,0,1 @ F,0,0,1,0,0,0,1 @ F,0,0,1,0,0,0,1 @ F,0,0,1,0,0,0,1 @ F,0,0,1,0,0,0,1 @ F,0,0,1,0,0,0,1 @ F,0,0,1,0,0,0,1 @ F,0,0,1,0,0,0,1 @ F,0,0,1,0,0,0,1 @ F,0,0,1,0,0,0,1 @ F,0,0,1,0,0,0,1 @ F,0,0,1,0,0,0,1 @ F,0,0,1,0,0,0,1 @ F,0,0,1,0,0,0,1 @ F,0,0,1,0,0,0,1 @ F,0,0,1,0,0,0,1 @ F,0,0,1,0,0,0,1 @ F,0,0,1,0,0,0,1 @ F,0,0,1,0,0,0,1 @ F,0,0,1,0,0,0,1 @ F,0,0,1,0,0,0,1 @ F,0,0,1,0,0,0,1 @ F,0,0,1,0,0,0,1 @ F,0,0,1,0,0,0,1 @ F,0,0,1,0,0,0,1 @ F,0,0,1,0,0,0,1 @ F,0,0,1,0,0,0,1 @ F,0,0,1,0,0,0,1 @ F,0,0,1,0,0,0,1 @ F,0,0,1,0,0,0,1 @ F,0,0,1,0,0,0,1 @ F,0,0,1,0,0,0,1 @ F,0,0,1,0,0,0,1 @ F,0,0,1,0,0,0,1 @ F,0,0,1,0,0,0,1 @ F,0,0,1,0,0,0,1 @ F,0,0,1,0,0,0,1 @ F,0,0,1,0,0,0,1 @ F,0,0,1,0,0,0,1 @ F,0,0,1,0,0,0,1 @ F,0,0,1,0,0,0,1 @ F,0,0,1,0,0,0,1 @ F,0,0,1,0,0,0,1 @ F,0,0,1,0,0,0,1 @ F,0,0,1,0,0,0,1 @ F,0,0,1,0,0,0,1 @ F,0,0,1,0,0,0,1 @ F,0,0,1,0,0,0,1 @ F,0,0,1,0,0,0,1 @ F,0,0,1,0,0,0,1 @ F,0,0,1,0,0,0,1 @ F,0,0,1,0,0,0,1 @ F,0,0,1,0,0,0,1 @ F,0,0,1,0,0,0,1 @ F,0,0,1,0,0,0,1 @ F,0,0,1,0,0,0,1 @ F,0,0,1,0,0,0,1 @ F,0,0,1,0,0,0,1 @ F,0,0,1,0,0,0,1 @ F,0,0,1,0,0,0,1 @ F,0,0,1,0,0,0,1 @ F,0,0,1,0,0,0,1 @ F,0,0,1,0,0,0,1 @ F,0,0,1,0,0,0,1 @ F,0,0,1,0,0,0,1 @ F,0,0,1,0,0,0,1 @ F,0,0,1,0,0,0,1 @ F,0,0,1,0,0,0,1 @ F,0,0,1,0,0,0,1 @ F,0,0,1,0,0,0,1 @ F,0,0,1,0,0,0,1 @ F,0,0,1,0,0,0,1 @ F,0,0,1,0,0,0,1 @ F,0,0,1,0,0,0,1 @ F,0,0,1,0,0,0,1 @ F,0,0,1,0,0,0,1 @ F,0,0,1,0,0,0,1 @ F,0,0,1,0,0,0,1 @ F,0,0,1,0,0,0,1 @ F,0,0,1,0,0,0,1 @ F,0,0,1,0,0,0,1 @ F,0,0,1,0,0,0,1 @ F,0,0,1,0,0,0,1 @ F,0,0,1,0,0,0,1 @ F,0,0,1,0,0,0,1 @ F,0,0,1,0,0,0,1 @ F,0,0,1,0,0,0,1 @ F,0,0,1,0,0,0,1 @ F,0,0,1,0,0,0,1 @ F,0,0,1,0,0,0,1 @ F,0,0,1,0,0,0,1 @ F,0,0,1,0,0,0,1 @ F,0,0,1,0,0,0,1 @ F,0,0,1,0,0,0,1 @ F,0,0,1,0,0,0,1 @ F,0,0,1,0,0,0,1 @ F,0,0,1,0,0,0,1 @ F,0,0,1,0,0,0,1 @ F,0,0,1,0,0,0,1 @ F,0,0,1,0,0,0,1 @ F,0,0,1,0,0,0,1 @ F,0,0,1,0,0,0,1 @ F,0,0,1,0,0,0,1 @ F,0,0,1,0,0,0,1 @ F,0,0,1,0,0,0,1 @ F,0,0,1,0,0,0,1 @ F,0,0,1,0,0,0,1"
       radius="0"
       unit="px"
       method="auto"
       mode="F"
       chamfer_steps="1"
       flexible="false"
       use_knot_distance="true"
       apply_no_radius="true"
       apply_with_radius="true"
       only_selected="true"
       hide_knots="false" />
    <inkscape:path-effect
       effect="fillet_chamfer"
       id="path-effect8-6"
       is_visible="true"
       lpeversion="1"
       nodesatellites_param="F,0,0,1,0,0,0,1 @ F,0,0,1,0,0,0,1 @ F,0,0,1,0,0,0,1 @ F,0,0,1,0,0,0,1 @ F,0,0,1,0,0,0,1 @ F,0,0,1,0,0,0,1 @ F,0,0,1,0,0,0,1 @ F,0,0,1,0,0,0,1 @ F,0,0,1,0,0,0,1 @ F,0,0,1,0,0,0,1 @ F,0,0,1,0,0,0,1 @ F,0,0,1,0,0,0,1 @ F,0,0,1,0,0,0,1 @ F,0,0,1,0,0,0,1 @ F,0,0,1,0,0,0,1 @ F,0,0,1,0,0,0,1 @ F,0,0,1,0,0,0,1 @ F,0,0,1,0,0,0,1 @ F,0,0,1,0,0,0,1 @ F,0,0,1,0,0,0,1 @ F,0,0,1,0,0,0,1 @ F,0,0,1,0,0,0,1 @ F,0,0,1,0,0,0,1 @ F,0,0,1,0,0,0,1 @ F,0,0,1,0,0,0,1 @ F,0,0,1,0,0,0,1 @ F,0,0,1,0,0,0,1 @ F,0,0,1,0,0,0,1 @ F,0,0,1,0,0.055330264,0,1 @ F,0,0,1,0,0,0,1 @ F,0,0,1,0,0,0,1 @ F,0,0,1,0,0,0,1 @ F,0,1,1,0,0.073794047,0,1 @ F,0,0,1,0,0,0,1 @ F,0,0,1,0,0,0,1 @ F,0,0,1,0,0,0,1 @ F,0,0,1,0,0,0,1 @ F,0,0,1,0,0,0,1 @ F,0,0,1,0,0,0,1 @ F,0,0,1,0,0,0,1 @ F,0,0,1,0,0,0,1 @ F,0,0,1,0,0,0,1 @ F,0,0,1,0,0,0,1 @ F,0,0,1,0,0,0,1 @ F,0,0,1,0,0,0,1 @ F,0,0,1,0,0,0,1 @ F,0,0,1,0,0,0,1 @ F,0,0,1,0,0,0,1 @ F,0,0,1,0,0,0,1 @ F,0,0,1,0,0,0,1 @ F,0,0,1,0,0,0,1 @ F,0,0,1,0,0,0,1 @ F,0,0,1,0,0,0,1 @ F,0,0,1,0,0,0,1 @ F,0,0,1,0,0,0,1 @ F,0,0,1,0,0,0,1 @ F,0,0,1,0,0,0,1 @ F,0,0,1,0,0,0,1 @ F,0,0,1,0,0,0,1 @ F,0,0,1,0,0,0,1 @ F,0,0,1,0,0,0,1 @ F,0,0,1,0,0,0,1 @ F,0,0,1,0,0,0,1 @ F,0,0,1,0,0,0,1 @ F,0,0,1,0,0,0,1 @ F,0,0,1,0,0,0,1 @ F,0,0,1,0,0,0,1 @ F,0,0,1,0,0,0,1 @ F,0,0,1,0,0,0,1 @ F,0,0,1,0,0,0,1 @ F,0,0,1,0,0,0,1 @ F,0,0,1,0,0,0,1 @ F,0,0,1,0,0,0,1 @ F,0,0,1,0,0,0,1 @ F,0,0,1,0,0,0,1 @ F,0,0,1,0,0,0,1 @ F,0,0,1,0,0,0,1 @ F,0,0,1,0,0,0,1 @ F,0,0,1,0,0,0,1 @ F,0,0,1,0,0,0,1 @ F,0,0,1,0,0,0,1 @ F,0,0,1,0,0,0,1 @ F,0,0,1,0,0,0,1 @ F,0,0,1,0,0,0,1 @ F,0,0,1,0,0,0,1 @ F,0,0,1,0,0,0,1 @ F,0,0,1,0,0,0,1 @ F,0,0,1,0,0,0,1 @ F,0,0,1,0,0,0,1 @ F,0,0,1,0,0,0,1 @ F,0,0,1,0,0,0,1 @ F,0,0,1,0,0,0,1 @ F,0,0,1,0,0,0,1 @ F,0,0,1,0,0,0,1 @ F,0,0,1,0,0,0,1 @ F,0,0,1,0,0,0,1 @ F,0,0,1,0,0,0,1 @ F,0,0,1,0,0,0,1 @ F,0,0,1,0,0,0,1 @ F,0,0,1,0,0,0,1 @ F,0,0,1,0,0,0,1 @ F,0,0,1,0,0,0,1 @ F,0,0,1,0,0,0,1 @ F,0,0,1,0,0,0,1 @ F,0,0,1,0,0,0,1 @ F,0,0,1,0,0,0,1 @ F,0,0,1,0,0,0,1 @ F,0,0,1,0,0,0,1 @ F,0,0,1,0,0,0,1 @ F,0,0,1,0,0,0,1 @ F,0,0,1,0,0,0,1 @ F,0,0,1,0,0,0,1 @ F,0,0,1,0,0,0,1 @ F,0,0,1,0,0,0,1 @ F,0,0,1,0,0,0,1 @ F,0,0,1,0,0,0,1 @ F,0,0,1,0,0,0,1"
       radius="0"
       unit="px"
       method="auto"
       mode="F"
       chamfer_steps="1"
       flexible="false"
       use_knot_distance="true"
       apply_no_radius="true"
       apply_with_radius="true"
       only_selected="true"
       hide_knots="false" />
  </defs>
  <path
     style="fill:#000000;fill-opacity:0.768047;fill-rule:evenodd;stroke:#b81e1e;stroke-width:0.0288789"
     d="m 115.87325,67.225816 v 1.36689 l 0.94629,0.49068 v 2.72208 l -0.10512,0.0467 -0.41768,-0.27454 -0.29791,-0.0876 -0.28621,0.15481 -0.11106,0.30667 0.14327,0.31252 1.08065,0.88497 v 1.65896 l -0.11389,0.11973 -0.0673,-0.0322 -0.33004,-0.27454 c 0,0 -0.26281,-0.0905 -0.29206,-0.0905 -0.0291,0 -0.30082,0.1402 -0.30082,0.1402 l -0.12858,0.31543 0.14327,0.30375 1.08941,0.88789 -0.003,1.6648 -0.0141,0.0642 -0.10795,0.0467 -0.0642,-0.0234 -0.33295,-0.27745 -0.28624,-0.0935 -0.31544,0.16063 -0.10795,0.34756 0.16052,0.27163 1.73781,1.44574 h 1.06606 l 1.74949,-1.45743 0.14328,-0.23365 -0.0904,-0.38845 -0.28034,-0.14896 -0.33589,0.0934 -0.31834,0.28332 -0.0732,0.0293 -0.1023,-0.0497 -0.0254,-0.0789 v -1.6676 l 1.0865,-0.87329 0.15175,-0.29499 -0.11106,-0.33005 -0.26592,-0.14019 -0.33004,0.0934 -0.34757,0.28915 -0.0641,0.0147 -0.0848,-0.0438 -0.035,-0.0671 v -1.67075 l 1.0865,-0.88206 0.14892,-0.29499 -0.10795,-0.31835 -0.25999,-0.14896 -0.3505,0.0876 -0.31834,0.24535 -0.0789,0.0322 -0.0992,-0.0235 -0.0169,-0.0671 v -0.99012 h 4.01889 v 3.80859 c 0.25038,1.81901 1.3655,2.56027 3.0492,2.71041 1.4145,-0.38512 2.45637,-1.10782 2.55271,-2.68704 v -3.8378 h 4.02472 l 0.006,1.01057 -0.008,0.0555 -0.0992,0.0116 -0.0876,-0.0293 -0.34171,-0.24241 -0.28033,-0.0876 -0.28624,0.14895 -0.12265,0.30959 0.15175,0.31252 1.07482,0.87913 v 1.66479 l -0.0198,0.0671 -0.0904,0.0438 -0.0817,-0.0175 -0.32125,-0.29207 -0.295,-0.0876 -0.31543,0.16066 -0.0992,0.2979 0.15176,0.31837 1.07191,0.88204 v 1.65896 l -0.0322,0.0555 -0.076,0.0555 -0.0701,-0.0175 -0.33589,-0.28623 -0.29497,-0.0993 -0.30961,0.15187 -0.0992,0.35924 0.14299,0.27748 1.75243,1.45159 h 1.07482 l 1.72905,-1.46327 0.18115,-0.23659 0.0113,-0.0409 -0.15486,-0.34757 -0.26875,-0.14311 -0.33589,0.0905 -0.31249,0.27163 -0.0701,0.0263 -0.076,-0.0322 -0.0554,-0.0935 v -1.64728 l 1.09234,-0.8908 0.18708,-0.28916 -0.14611,-0.30959 -0.2744,-0.15771 -0.33004,0.0905 -0.32419,0.27748 -0.076,0.0292 -0.0729,-0.0438 -0.0585,-0.0818 v -1.65604 l 1.10405,-0.89957 0.16927,-0.28331 -0.1461,-0.30667 -0.26592,-0.15481 -0.33587,0.0876 -0.33295,0.24241 -0.0848,0.0234 -0.0526,-0.0147 -0.0585,-0.0671 v -2.71333 l 0.92002,-0.47608 0.035,-0.0526 -0.006,-1.27342 -0.041,-0.0497 h -4.31678 l -0.0379,0.038 -0.11671,0.35925 -0.041,0.038 -0.1023,0.003 -0.0613,-0.0438 -0.076,-0.36509 -0.0438,-0.0293 h -4.52417 l -0.041,0.0555 v 7.31343 c -0.069,0.38488 -0.19018,0.73323 -0.76521,0.76523 -0.47413,-0.0677 -0.71539,-0.31263 -0.77109,-0.78276 v -7.28422 l -0.041,-0.0701 h -4.52709 c -0.054,0.16481 -0.0624,0.44479 -0.22777,0.43811 -0.16023,-0.008 -0.14921,-0.2672 -0.25122,-0.43226 z"
     id="compensator"
     sodipodi:nodetypes="cccccccccccccccscccccccccccccccccccccccccccccccccccccccccccccccccccccccccccccccccccccccccccccccccccccccccccccccccccccccccccccccccccccccccccccccccccccccc"
     inkscape:label="compensator" />
  <path
     style="fill:#b4cdd0;fill-opacity:0;fill-rule:evenodd;stroke:#b81e1e;stroke-width:0.000130592"
     id="screw_right"
     transform="scale(-1,1)"
     inkscape:label="screw_right"
     sodipodi:type="arc"
     sodipodi:cx="-136.69189"
     sodipodi:cy="30.672443"
     sodipodi:rx="0.039848957"
     sodipodi:ry="0.026163459"
     sodipodi:start="0"
     sodipodi:end="1.3916238"
     sodipodi:arc-type="slice"
     d="m -136.65205,30.672443 a 0.03984896,0.02616346 0 0 1 -0.0327,0.02574 l -0.007,-0.02574 z" />
  <rect
     style="fill:#e1ecec;fill-opacity:0.77;fill-rule:evenodd;stroke:#b81e1e;stroke-width:0.00966604"
     id="finish_right"
     width="81.225288"
     height="2.0341825"
     x="-81.230118"
     y="138.3884"
     inkscape:label="finish_right"
     transform="rotate(-90)" />
  <rect
     style="fill:#e1ecec;fill-opacity:0.77;fill-rule:evenodd;stroke:#b81e1e;stroke-width:0.011093"
     id="cover_right"
     width="81.196983"
     height="0.12761921"
     x="-81.210876"
     y="138.21283"
     inkscape:label="cover_right"
     transform="rotate(-90)" />
  <path
     style="fill:#4a8db7;fill-opacity:0.768047;fill-rule:evenodd;stroke:#b81e1e;stroke-width:0.0339124"
     d="m 130.00363,70.292106 h 2.11478 v 0.53354 l -0.0969,0.14535 c 0.11316,0.0852 0.23561,0.16427 0.24258,0.32024 -0.0571,-0.0298 -0.28473,0.38663 -0.19413,0.39775 0.0919,0.01 0.30298,0.344 0.20375,0.38803 -0.11116,0.0959 -0.17588,0.2698 -0.23295,0.45592 0.22531,0.0772 0.2522,0.20874 0.2814,0.33956 -0.14999,0.062 -0.26049,0.15696 -0.30065,0.31028 0.17754,0.18086 0.2273,0.27675 0.30065,0.38802 -0.16692,0.1015 -0.22101,0.25155 -0.26182,0.40745 0.18483,0.16061 0.1865,0.26051 0.21337,0.36863 -0.18883,0.0793 -0.2449,0.20673 -0.23295,0.35891 0.17719,0.13905 0.26647,0.2781 0.24257,0.41714 -0.14368,0.0793 -0.28572,0.15929 -0.23261,0.31028 0.24888,0.29568 0.30728,0.27013 0.29102,0.40744 0.002,0.21604 -0.17786,0.24923 -0.29102,0.34924 0.002,0.18451 0.18218,0.29236 0.30064,0.42683 -0.0401,0.24623 -0.23296,0.13572 -0.32023,0.33955 0.0604,0.24988 0.18717,0.26647 0.28141,0.39771 -0.17987,0.11316 -0.2615,0.24922 -0.20376,0.41714 v 0.9022 c 0.28372,1.55549 1.50261,2.04729 2.24088,2.01775 1.18407,-0.28207 1.75827,-0.97419 1.88194,-1.96926 v -0.67907 c 0.12379,-0.10885 0.13806,-0.21038 0.12611,-0.31028 -0.0345,-0.21703 0.0969,-0.081 -0.30065,-0.38803 0.26415,-0.11084 0.28672,-0.25054 0.32985,-0.38804 -0.0919,-0.21271 -0.222,-0.31094 -0.35891,-0.38802 0.048,-0.19513 0.3918,-0.18086 0.36861,-0.41713 -0.0518,-0.14933 -0.26051,-0.14834 -0.32024,-0.31028 0.0638,-0.22932 0.34443,-0.076 0.32024,-0.39773 -0.071,-0.21703 -0.29004,-0.25884 -0.29103,-0.38804 0.0793,-0.29633 0.18118,-0.2522 0.27178,-0.37833 -0.0475,-0.24125 -0.31493,-0.19513 -0.30066,-0.40745 0.0455,-0.19115 0.28606,-0.22897 0.32023,-0.35893 -0.0604,-0.21204 -0.33486,-0.17885 -0.2814,-0.36861 0.0864,-0.13871 0.31726,-0.2532 0.2522,-0.41714 -0.0265,-0.1397 -0.24987,-0.13108 -0.27178,-0.30065 0.0359,-0.14302 0.36566,-0.26515 0.32986,-0.39772 -0.0796,-0.19679 -0.32587,-0.25951 -0.33954,-0.38807 0.0498,-0.2011 0.24126,-0.2522 0.34459,-0.37831 -0.11151,-0.1553 -0.36448,-0.29469 -0.33497,-0.46565 0.10351,-0.0743 0.30729,-0.12643 0.31028,-0.223 0.0232,-0.23959 -0.14868,-0.2844 -0.22301,-0.42682 v -6.49953 c -0.18318,-0.11283 -0.36961,-0.22433 -0.32985,-0.41714 0.27476,-0.38992 0.69275,-0.24092 0.82457,-0.65964 -0.19148,-0.36677 -0.84843,-0.39315 -0.78574,-0.73729 0.0593,-0.62167 0.78324,-0.29699 0.69844,-0.70816 -0.15565,-0.36479 -0.76134,-0.41103 -0.73727,-0.75664 0.18351,-0.32456 0.71125,-0.29767 0.74696,-0.65966 -0.0989,-0.3126 -0.77189,-0.34579 -0.73725,-0.71789 0.19049,-0.37644 0.82774,-0.27908 0.70813,-0.74695 -0.0598,-0.3658 -0.9221,-0.3292 -0.70813,-0.79547 0.24558,-0.18751 0.73549,-0.26913 0.73725,-0.56263 -0.071,-0.48988 -0.89507,-0.47852 -0.72756,-0.81488 0.1135,-0.39384 0.72779,-0.28208 0.71787,-0.67906 -0.0647,-0.30167 -0.87731,-0.38025 -0.74696,-0.74698 0.225,-0.35514 0.72061,-0.31226 0.76638,-0.64022 -0.10162,-0.26515 -0.81692,-0.53033 -0.70818,-0.79548 0.084,-0.39725 0.78422,-0.28771 0.77607,-0.69845 -0.32257,-0.12411 -0.84804,-0.42463 -0.79548,-0.73726 0.13805,-0.42202 0.72028,-0.17422 0.75669,-0.64996 -0.16262,-0.44123 -0.90646,-0.39755 -0.77607,-0.74696 0.2396,-0.5142 0.74102,-0.31393 0.77607,-0.74696 -0.16128,-0.223 -0.93911,-0.39647 -0.76638,-0.66937 0.18583,-0.58598 0.75781,-0.25453 0.75665,-0.72755 -0.22963,-0.25221 -0.85604,-0.3361 -0.68876,-0.75669 0.151,-0.42576 0.79505,-0.20475 0.72759,-0.64995 -0.1782,-0.3826 -0.9259,-0.40495 -0.79548,-0.73724 0.26183,-0.223 0.7746,-0.3961 0.78579,-0.66937 -0.13208,-0.2459 -1.1263,-0.51314 -0.75669,-0.79899 0.17456,-0.47708 0.72254,-0.38972 0.71785,-0.65614 -0.1739,-0.34841 -0.98233,-0.42851 -0.76636,-0.75664 0.19313,-0.38847 0.7957,-0.29734 0.74696,-0.71786 -0.14836,-0.25321 -0.77385,-0.36192 -0.67904,-0.65965 0.11017,-0.40263 0.67299,-0.49114 0.66935,-0.75668 -0.22566,-0.2479 -0.87125,-0.41501 -0.65966,-0.74697 0.14203,-0.42765 0.71024,-0.33228 0.72758,-0.63055 -0.1928,-0.29599 -0.82757,-0.44258 -0.71789,-0.77605 0.22965,-0.23296 0.72639,-0.43002 0.68875,-0.69847 -0.23594,-0.23596 -0.81565,-0.37736 -0.70813,-0.70818 0.11781,-0.33613 0.80145,-0.20441 0.67904,-0.73723 -0.2522,-0.23927 -0.78044,-0.42145 -0.75665,-0.71786 0.19313,-0.33573 0.89413,-0.1417 0.78574,-0.69848 -0.2522,-0.21337 -0.75399,-0.41296 -0.75665,-0.64023 0.17356,-0.47129 0.77057,-0.43589 0.75665,-0.78578 -0.26648,-0.23562 -0.7266,-0.42945 -0.79543,-0.70818 0.23693,-0.39477 0.88231,-0.33814 0.82457,-0.75664 -0.25254,-0.22002 -0.80489,-0.58545 -0.72775,-0.82362 0.0133,-0.34286 0.67625,-0.69734 0.72696,-0.97817 -0.0205,-0.34536 0.0176,0.0256 -0.023,-0.26456 0.0933,-0.11589 -0.15609,-0.46263 -0.25721,-0.71785 -0.18118,-0.28142 -0.43039,-0.42763 -0.45642,-0.70894 0.1908,-0.22001 0.60108,-0.48507 0.5434,-0.80435 -0.12711,-0.26946 -0.60874,-0.417 -0.61116,-0.61113 0.086,-0.46624 0.48495,-0.49269 0.53354,-0.75665 -0.17456,-0.23594 -0.58555,-0.47212 -0.52382,-0.70817 0.0753,-0.43555 0.42035,-0.27178 0.63054,-0.40744 0.17687,-0.0969 0.1772,-0.26979 0.15531,-0.40744 -0.15531,-0.19082 -0.40921,-0.32754 -0.46566,-0.57234 l 0.0484,-3.09456 1.23199,-6.305541 c 0.0541,-0.117145 0.11051,-0.232289 0.29102,-0.222997 0.21141,0.05603 0.36329,0.141699 0.36868,0.30065 v 80.206358 h -1.9402 v -3.98703 c 0.10984,-0.0887 0.21736,-0.1782 0.21337,-0.32986 -0.23528,-0.15465 -0.22764,-0.27709 -0.28142,-0.40741 0.0913,-0.0916 0.26882,-0.12809 0.23297,-0.30065 -0.23263,-0.16725 -0.2542,-0.29734 -0.27178,-0.42686 0.18286,-0.16028 0.2595,-0.27245 0.30065,-0.36861 -0.13705,-0.1261 -0.31857,-0.2522 -0.27178,-0.37834 0.0919,-0.12611 0.27477,-0.24059 0.27178,-0.37831 -0.0902,-0.13806 -0.28075,-0.2927 -0.23296,-0.40745 0.0823,-0.12245 0.25387,-0.23494 0.23296,-0.36865 -0.10053,-0.13275 -0.32785,-0.30331 -0.30065,-0.39772 0.0876,-0.10425 0.24723,-0.12478 0.27178,-0.31029 0.0133,-0.13572 -0.36911,-0.28903 -0.2814,-0.43654 0.0972,-0.12943 0.41614,-0.25851 0.29103,-0.38803 -0.0867,-0.12312 -0.29435,-0.25719 -0.25222,-0.36865 0.10319,-0.12611 0.36222,-0.25221 0.30067,-0.37831 -0.094,-0.1228 -0.38578,-0.21936 -0.28141,-0.36865 0.0873,-0.11316 0.36619,-0.21471 0.2522,-0.33952 -0.10053,-0.13273 -0.36553,-0.30331 -0.30065,-0.39773 0.0969,-0.11647 0.36576,-0.21569 0.29103,-0.34922 l -0.18451,-0.35894 0.02,-0.53354 c -0.1845,-1.17594 -0.6561,-1.99578 -1.75584,-2.0372 -2.04751,-0.0471 -2.01818,1.2014 -2.3185,2.14388 v 0.61117 l -0.0776,0.31028 c 0.18218,-0.0232 0.2293,0.1198 0.30065,0.23296 -0.0166,0.18816 -0.20906,0.2595 -0.32986,0.37834 0.0869,0.12145 0.11183,0.23562 0.29103,0.36862 0.0772,0.13274 -0.16095,0.26515 -0.24259,0.39775 -0.006,0.13473 0.19281,0.29037 0.30066,0.43651 -0.12378,0.0946 -0.29999,0.1437 -0.32986,0.32024 -0.0166,0.17853 0.17223,0.26615 0.26184,0.39772 -0.0852,0.11615 -0.23761,0.12644 -0.2426,0.36866 -0.01,0.19313 0.17756,0.25452 0.27179,0.37834 -0.15365,0.11581 -0.27842,0.23694 -0.29103,0.37831 0.0541,0.11647 0.0332,0.23295 0.25222,0.34923 -0.0298,0.27909 -0.15996,0.25751 -0.26185,0.32024 -8.7e-4,0.1792 0.10852,0.31193 0.26185,0.42682 0.0976,0.19413 -0.16128,0.2459 -0.24259,0.36862 -0.0504,0.17024 0.17555,0.27941 0.27178,0.41716 -0.006,0.18252 -0.16759,0.21239 -0.24258,0.35894 -0.0577,0.12345 0.13108,0.27742 0.20376,0.41714 0.0574,0.17586 -0.14669,0.22099 -0.22302,0.32985 v 0.53354 h -2.03716 v -1.2805 h 0.80514 v -6.93608 l 0.17457,-1.16413 0.74695,-1.54244 v -0.2814 l -0.7315,-1.26704 -0.2094,-1.13877 v -6.9555 l -0.82456,-0.0199 z"
     id="profile_right"
     sodipodi:nodetypes="cccccscccccccccccccccccccccccccccccccccccccccccccccccccccccccccccccccccccccccccccccccccccccccccccccccccccccccccccccccccccccccccccccccccccccccccccccccccccccccccccccccc"
     inkscape:label="profile_right_corner" />
  <path
     style="fill:#e1ecec;fill-opacity:0.77;fill-rule:evenodd;stroke:#b81e1e;stroke-width:0.0108229"
     d="m 140.43595,0.01415888 h 20.93762 V 135.77239 H 138.19164 V 81.245736 h 2.23321 z"
     id="concrete_right"
     inkscape:label="concrete_right"
     sodipodi:nodetypes="ccccccc" />
  <rect
     style="fill:#404242;fill-opacity:0.341246;fill-rule:evenodd;stroke:#b81e1e;stroke-width:0.0185686"
     id="shadow"
     width="108.6935"
     height="0.013923001"
     x="48.630302"
     y="135.82201"
     inkscape:label="shadow" />
  <path
     style="fill:#4a8db7;fill-opacity:0.768047;fill-rule:evenodd;stroke:#b81e1e;stroke-width:0.0331886"
     d="m 114.10041,66.860506 v 12.91154 l -0.16596,0.28775 H 69.21384 v 1.76303 h 49.63356 l 1.91941,-1.53599 0.49681,-1.76556 v -6.79033 h 0.7642 v -1.27692 h -2.04591 v 0.44145 c 0.0478,0.0698 0.1416,0.14615 0.10913,0.20428 -0.0841,0.0932 -0.26729,0.18674 -0.2517,0.27995 0.013,0.13932 0.30301,0.29229 0.23253,0.41771 -0.0293,0.19551 -0.16465,0.20884 -0.24682,0.31341 0.0163,0.14419 0.20591,0.14354 0.27053,0.36549 -0.006,0.14257 -0.26728,0.24585 -0.25169,0.39875 0.002,0.23091 0.16757,0.26273 0.25169,0.39401 -0.0442,0.17991 -0.29229,0.24032 -0.27053,0.34652 0.0324,0.16596 0.16401,0.23156 0.25169,0.34176 -0.0227,0.13607 -0.24422,0.24195 -0.26598,0.37974 0.10457,0.24228 0.18999,0.23416 0.28482,0.3513 0.006,0.18318 -0.16108,0.26274 -0.24195,0.39398 -0.0195,0.20331 0.2137,0.27476 0.2137,0.42724 -0.0776,0.12016 -0.29846,0.11496 -0.23254,0.36074 0.0792,0.10913 0.26663,0.23806 0.23741,0.32754 -0.006,0.1601 -0.22929,0.21986 -0.24682,0.34178 0.026,0.19129 0.20428,0.28677 0.23805,0.41209 -0.0776,0.1127 -0.19031,0.27346 -0.23318,0.33793 0.026,0.1364 0.14387,0.25039 0.2374,0.37026 0.0194,0.10945 -0.0471,0.16628 -0.114,0.22312 v 0.71205 c -0.10911,1.46711 -0.97771,1.86209 -1.95097,2.00794 -1.24035,-0.0497 -1.92109,-0.79857 -2.09338,-2.06964 v -0.63135 l -0.0903,-0.2137 c 0.0227,-0.14647 0.23155,-0.22181 0.21823,-0.37497 -0.076,-0.11692 -0.22083,-0.15654 -0.22798,-0.3513 -0.0195,-0.19649 0.27281,-0.20364 0.2137,-0.3845 -0.0643,-0.11692 -0.20883,-0.23416 -0.18999,-0.35127 -0.0163,-0.13543 0.19063,-0.25884 0.1994,-0.36075 -0.0763,-0.13283 -0.24617,-0.26566 -0.22799,-0.39875 0.002,-0.18252 0.1611,-0.2439 0.24196,-0.36549 -0.0806,-0.13315 -0.2897,-0.3069 -0.2374,-0.39875 0.026,-0.11334 0.29651,-0.20103 0.23253,-0.36553 -0.0741,-0.12211 -0.23449,-0.25981 -0.21825,-0.36549 0.002,-0.10587 0.20623,-0.202 0.20428,-0.31795 -0.0695,-0.12503 -0.22473,-0.25819 -0.20428,-0.37501 0.0695,-0.1312 0.24813,-0.28449 0.20883,-0.39401 -0.0727,-0.14094 -0.25137,-0.27117 -0.21824,-0.42245 0.0711,-0.11562 0.30105,-0.16498 0.21369,-0.34652 -0.0711,-0.11855 -0.22669,-0.2478 -0.21369,-0.35601 0.0793,-0.1075 0.25039,-0.21532 0.2374,-0.32282 -0.0809,-0.13446 -0.30204,-0.26891 -0.24195,-0.40349 0.0429,-0.11075 0.14355,-0.23124 0.12828,-0.33227 v -3.84499 z"
     id="profile_left"
     sodipodi:nodetypes="ccccccccccccccccccccccccccccccccccccccccccccccccccccccccccc" />
  <rect
     style="fill:#b8b8b8;fill-opacity:1;fill-rule:evenodd;stroke:#b81e1e;stroke-width:0.0427051"
     id="concrete_left"
     width="70.122719"
     height="54.082649"
     x="48.866825"
     y="81.791901" />
  <rect
     style="fill:#a39a9a;fill-rule:evenodd;stroke:#b81e1e;stroke-width:0.0249138"
     id="finish_left"
     width="65.18679"
     height="14.272009"
     x="48.781788"
     y="67.539825" />
  <rect
     style="fill:#a39a9a;fill-rule:evenodd;stroke:#b81e1e;stroke-width:0.0129142"
     id="cover_left"
     width="65.325188"
     height="0.76904744"
     x="48.694088"
     y="66.785751" />
  <ellipse
     style="opacity:0;fill:none;fill-opacity:0;fill-rule:evenodd;stroke-width:0.00368993;stroke-opacity:0"
     id="bolt_left"
     cx="-79.088356"
     cy="-80.135239"
     rx="0.094999999"
     ry="0.028942173"
     inkscape:label="bolt_left"
     transform="scale(-1)" />
</svg>
