<?xml version="1.0" encoding="UTF-8" standalone="no"?>
<!-- Created with Inkscape (http://www.inkscape.org/) -->

<svg
   width="210mm"
   height="297mm"
   viewBox="0 0 210 297"
   version="1.1"
   id="svg1"
   inkscape:version="1.4 (86a8ad7, 2024-10-11)"
   sodipodi:docname="DSHL-15-015.svg"
   xmlns:inkscape="http://www.inkscape.org/namespaces/inkscape"
   xmlns:sodipodi="http://sodipodi.sourceforge.net/DTD/sodipodi-0.dtd"
   xmlns="http://www.w3.org/2000/svg"
   xmlns:svg="http://www.w3.org/2000/svg">
  <sodipodi:namedview
     id="namedview1"
     pagecolor="#ffffff"
     bordercolor="#000000"
     borderopacity="0.25"
     inkscape:showpageshadow="2"
     inkscape:pageopacity="0.0"
     inkscape:pagecheckerboard="0"
     inkscape:deskcolor="#d1d1d1"
     inkscape:document-units="mm"
     inkscape:zoom="0.7401656"
     inkscape:cx="429.63358"
     inkscape:cy="258.72588"
     inkscape:window-width="2560"
     inkscape:window-height="1377"
     inkscape:window-x="-8"
     inkscape:window-y="-8"
     inkscape:window-maximized="1"
     inkscape:current-layer="svg1" />
  <defs
     id="defs1">
    <inkscape:path-effect
       effect="fillet_chamfer"
       id="path-effect8"
       is_visible="true"
       lpeversion="1"
       nodesatellites_param="F,0,0,1,0,0,0,1 @ F,0,0,1,0,0,0,1 @ F,0,0,1,0,0,0,1 @ F,0,0,1,0,0,0,1 @ F,0,0,1,0,0,0,1 @ F,0,0,1,0,0,0,1 @ F,0,0,1,0,0,0,1 @ F,0,0,1,0,0,0,1 @ F,0,0,1,0,0,0,1 @ F,0,0,1,0,0,0,1 @ F,0,0,1,0,0,0,1 @ F,0,0,1,0,0,0,1 @ F,0,0,1,0,0,0,1 @ F,0,0,1,0,0,0,1 @ F,0,0,1,0,0,0,1 @ F,0,0,1,0,0,0,1 @ F,0,0,1,0,0,0,1 @ F,0,0,1,0,0,0,1 @ F,0,0,1,0,0,0,1 @ F,0,0,1,0,0,0,1 @ F,0,0,1,0,0,0,1 @ F,0,0,1,0,0,0,1 @ F,0,0,1,0,0,0,1 @ F,0,0,1,0,0,0,1 @ F,0,0,1,0,0,0,1 @ F,0,0,1,0,0,0,1 @ F,0,0,1,0,0,0,1 @ F,0,0,1,0,0,0,1 @ F,0,0,1,0,0.055330264,0,1 @ F,0,0,1,0,0,0,1 @ F,0,0,1,0,0,0,1 @ F,0,0,1,0,0,0,1 @ F,0,1,1,0,0.073794047,0,1 @ F,0,0,1,0,0,0,1 @ F,0,0,1,0,0,0,1 @ F,0,0,1,0,0,0,1 @ F,0,0,1,0,0,0,1 @ F,0,0,1,0,0,0,1 @ F,0,0,1,0,0,0,1 @ F,0,0,1,0,0,0,1 @ F,0,0,1,0,0,0,1 @ F,0,0,1,0,0,0,1 @ F,0,0,1,0,0,0,1 @ F,0,0,1,0,0,0,1 @ F,0,0,1,0,0,0,1 @ F,0,0,1,0,0,0,1 @ F,0,0,1,0,0,0,1 @ F,0,0,1,0,0,0,1 @ F,0,0,1,0,0,0,1 @ F,0,0,1,0,0,0,1 @ F,0,0,1,0,0,0,1 @ F,0,0,1,0,0,0,1 @ F,0,0,1,0,0,0,1 @ F,0,0,1,0,0,0,1 @ F,0,0,1,0,0,0,1 @ F,0,0,1,0,0,0,1 @ F,0,0,1,0,0,0,1 @ F,0,0,1,0,0,0,1 @ F,0,0,1,0,0,0,1 @ F,0,0,1,0,0,0,1 @ F,0,0,1,0,0,0,1 @ F,0,0,1,0,0,0,1 @ F,0,0,1,0,0,0,1 @ F,0,0,1,0,0,0,1 @ F,0,0,1,0,0,0,1 @ F,0,0,1,0,0,0,1 @ F,0,0,1,0,0,0,1 @ F,0,0,1,0,0,0,1 @ F,0,0,1,0,0,0,1 @ F,0,0,1,0,0,0,1 @ F,0,0,1,0,0,0,1 @ F,0,0,1,0,0,0,1 @ F,0,0,1,0,0,0,1 @ F,0,0,1,0,0,0,1 @ F,0,0,1,0,0,0,1 @ F,0,0,1,0,0,0,1 @ F,0,0,1,0,0,0,1 @ F,0,0,1,0,0,0,1 @ F,0,0,1,0,0,0,1 @ F,0,0,1,0,0,0,1 @ F,0,0,1,0,0,0,1 @ F,0,0,1,0,0,0,1 @ F,0,0,1,0,0,0,1 @ F,0,0,1,0,0,0,1 @ F,0,0,1,0,0,0,1 @ F,0,0,1,0,0,0,1 @ F,0,0,1,0,0,0,1 @ F,0,0,1,0,0,0,1 @ F,0,0,1,0,0,0,1 @ F,0,0,1,0,0,0,1 @ F,0,0,1,0,0,0,1 @ F,0,0,1,0,0,0,1 @ F,0,0,1,0,0,0,1 @ F,0,0,1,0,0,0,1 @ F,0,0,1,0,0,0,1 @ F,0,0,1,0,0,0,1 @ F,0,0,1,0,0,0,1 @ F,0,0,1,0,0,0,1 @ F,0,0,1,0,0,0,1 @ F,0,0,1,0,0,0,1 @ F,0,0,1,0,0,0,1 @ F,0,0,1,0,0,0,1 @ F,0,0,1,0,0,0,1 @ F,0,0,1,0,0,0,1 @ F,0,0,1,0,0,0,1 @ F,0,0,1,0,0,0,1 @ F,0,0,1,0,0,0,1 @ F,0,0,1,0,0,0,1 @ F,0,0,1,0,0,0,1 @ F,0,0,1,0,0,0,1 @ F,0,0,1,0,0,0,1 @ F,0,0,1,0,0,0,1 @ F,0,0,1,0,0,0,1 @ F,0,0,1,0,0,0,1 @ F,0,0,1,0,0,0,1 @ F,0,0,1,0,0,0,1 @ F,0,0,1,0,0,0,1"
       radius="0"
       unit="px"
       method="auto"
       mode="F"
       chamfer_steps="1"
       flexible="false"
       use_knot_distance="true"
       apply_no_radius="true"
       apply_with_radius="true"
       only_selected="true"
       hide_knots="false" />
    <inkscape:path-effect
       effect="fillet_chamfer"
       id="path-effect8-6"
       is_visible="true"
       lpeversion="1"
       nodesatellites_param="F,0,0,1,0,0,0,1 @ F,0,0,1,0,0,0,1 @ F,0,0,1,0,0,0,1 @ F,0,0,1,0,0,0,1 @ F,0,0,1,0,0,0,1 @ F,0,0,1,0,0,0,1 @ F,0,0,1,0,0,0,1 @ F,0,0,1,0,0,0,1 @ F,0,0,1,0,0,0,1 @ F,0,0,1,0,0,0,1 @ F,0,0,1,0,0,0,1 @ F,0,0,1,0,0,0,1 @ F,0,0,1,0,0,0,1 @ F,0,0,1,0,0,0,1 @ F,0,0,1,0,0,0,1 @ F,0,0,1,0,0,0,1 @ F,0,0,1,0,0,0,1 @ F,0,0,1,0,0,0,1 @ F,0,0,1,0,0,0,1 @ F,0,0,1,0,0,0,1 @ F,0,0,1,0,0,0,1 @ F,0,0,1,0,0,0,1 @ F,0,0,1,0,0,0,1 @ F,0,0,1,0,0,0,1 @ F,0,0,1,0,0,0,1 @ F,0,0,1,0,0,0,1 @ F,0,0,1,0,0,0,1 @ F,0,0,1,0,0,0,1 @ F,0,0,1,0,0.055330264,0,1 @ F,0,0,1,0,0,0,1 @ F,0,0,1,0,0,0,1 @ F,0,0,1,0,0,0,1 @ F,0,1,1,0,0.073794047,0,1 @ F,0,0,1,0,0,0,1 @ F,0,0,1,0,0,0,1 @ F,0,0,1,0,0,0,1 @ F,0,0,1,0,0,0,1 @ F,0,0,1,0,0,0,1 @ F,0,0,1,0,0,0,1 @ F,0,0,1,0,0,0,1 @ F,0,0,1,0,0,0,1 @ F,0,0,1,0,0,0,1 @ F,0,0,1,0,0,0,1 @ F,0,0,1,0,0,0,1 @ F,0,0,1,0,0,0,1 @ F,0,0,1,0,0,0,1 @ F,0,0,1,0,0,0,1 @ F,0,0,1,0,0,0,1 @ F,0,0,1,0,0,0,1 @ F,0,0,1,0,0,0,1 @ F,0,0,1,0,0,0,1 @ F,0,0,1,0,0,0,1 @ F,0,0,1,0,0,0,1 @ F,0,0,1,0,0,0,1 @ F,0,0,1,0,0,0,1 @ F,0,0,1,0,0,0,1 @ F,0,0,1,0,0,0,1 @ F,0,0,1,0,0,0,1 @ F,0,0,1,0,0,0,1 @ F,0,0,1,0,0,0,1 @ F,0,0,1,0,0,0,1 @ F,0,0,1,0,0,0,1 @ F,0,0,1,0,0,0,1 @ F,0,0,1,0,0,0,1 @ F,0,0,1,0,0,0,1 @ F,0,0,1,0,0,0,1 @ F,0,0,1,0,0,0,1 @ F,0,0,1,0,0,0,1 @ F,0,0,1,0,0,0,1 @ F,0,0,1,0,0,0,1 @ F,0,0,1,0,0,0,1 @ F,0,0,1,0,0,0,1 @ F,0,0,1,0,0,0,1 @ F,0,0,1,0,0,0,1 @ F,0,0,1,0,0,0,1 @ F,0,0,1,0,0,0,1 @ F,0,0,1,0,0,0,1 @ F,0,0,1,0,0,0,1 @ F,0,0,1,0,0,0,1 @ F,0,0,1,0,0,0,1 @ F,0,0,1,0,0,0,1 @ F,0,0,1,0,0,0,1 @ F,0,0,1,0,0,0,1 @ F,0,0,1,0,0,0,1 @ F,0,0,1,0,0,0,1 @ F,0,0,1,0,0,0,1 @ F,0,0,1,0,0,0,1 @ F,0,0,1,0,0,0,1 @ F,0,0,1,0,0,0,1 @ F,0,0,1,0,0,0,1 @ F,0,0,1,0,0,0,1 @ F,0,0,1,0,0,0,1 @ F,0,0,1,0,0,0,1 @ F,0,0,1,0,0,0,1 @ F,0,0,1,0,0,0,1 @ F,0,0,1,0,0,0,1 @ F,0,0,1,0,0,0,1 @ F,0,0,1,0,0,0,1 @ F,0,0,1,0,0,0,1 @ F,0,0,1,0,0,0,1 @ F,0,0,1,0,0,0,1 @ F,0,0,1,0,0,0,1 @ F,0,0,1,0,0,0,1 @ F,0,0,1,0,0,0,1 @ F,0,0,1,0,0,0,1 @ F,0,0,1,0,0,0,1 @ F,0,0,1,0,0,0,1 @ F,0,0,1,0,0,0,1 @ F,0,0,1,0,0,0,1 @ F,0,0,1,0,0,0,1 @ F,0,0,1,0,0,0,1 @ F,0,0,1,0,0,0,1 @ F,0,0,1,0,0,0,1 @ F,0,0,1,0,0,0,1 @ F,0,0,1,0,0,0,1 @ F,0,0,1,0,0,0,1 @ F,0,0,1,0,0,0,1"
       radius="0"
       unit="px"
       method="auto"
       mode="F"
       chamfer_steps="1"
       flexible="false"
       use_knot_distance="true"
       apply_no_radius="true"
       apply_with_radius="true"
       only_selected="true"
       hide_knots="false" />
  </defs>
  <path
     style="fill:#000000;fill-opacity:0.768047;fill-rule:evenodd;stroke:#b81e1e;stroke-width:0.0288789"
     d="M 94.954956,0.13615924 V 1.5030512 l 0.94629,0.490675 v 2.722089 l -0.10512,0.04674 -0.41768,-0.274541 -0.29791,-0.08763 -0.28621,0.154805 -0.11106,0.306675 0.14327,0.312516 1.08065,0.884969 v 1.6589587 l -0.11389,0.119735 -0.0673,-0.03216 -0.33004,-0.274541 c 0,0 -0.26281,-0.09054 -0.29206,-0.09054 -0.0291,0 -0.30082,0.140196 -0.30082,0.140196 l -0.12858,0.315432 0.14327,0.303753 1.08941,0.88789 -0.003,1.6647981 -0.0141,0.06423 -0.10795,0.04674 -0.0642,-0.02345 -0.33295,-0.277452 -0.28624,-0.09345 -0.31544,0.160627 -0.10795,0.34756 0.16052,0.271631 1.73781,1.445744 h 1.06606 l 1.74949,-1.45743 0.14328,-0.233649 -0.0904,-0.388452 -0.28034,-0.148956 -0.33589,0.09345 -0.31834,0.283313 -0.0732,0.02925 -0.1023,-0.04965 -0.0254,-0.07887 V 9.0764559 l 1.0865,-0.873289 0.15175,-0.294989 -0.11106,-0.330043 -0.26592,-0.140195 -0.33004,0.09345 -0.34757,0.289149 -0.0641,0.01469 -0.0848,-0.0438 -0.035,-0.06714 V 6.0535372 l 1.0865,-0.882052 0.14892,-0.29499 -0.10795,-0.318354 -0.25999,-0.148956 -0.3505,0.08763 -0.31834,0.245349 -0.0789,0.03216 -0.0992,-0.02346 -0.0169,-0.06714 v -0.990119 h 4.018894 v 3.8085897 c 0.25038,1.819001 1.3655,2.5602651 3.0492,2.7104101 1.4145,-0.3851261 2.45637,-1.1078231 2.55271,-2.6870421 V 3.6877582 h 4.02472 l 0.006,1.010568 -0.008,0.05547 -0.0992,0.01159 -0.0876,-0.02925 -0.34171,-0.24241 -0.28033,-0.08763 -0.28624,0.148956 -0.12265,0.309591 0.15175,0.312516 1.07482,0.87913 v 1.6647957 l -0.0198,0.06714 -0.0904,0.0438 -0.0817,-0.01752 -0.32125,-0.292073 -0.295,-0.08763 -0.31543,0.160655 -0.0992,0.297906 0.15176,0.318363 1.07191,0.882046 v 1.6589561 l -0.0322,0.05547 -0.076,0.05547 -0.0701,-0.01752 -0.33589,-0.286226 -0.29497,-0.0993 -0.30961,0.151867 -0.0992,0.359245 0.14299,0.27748 1.75243,1.451583 h 1.07482 l 1.72905,-1.463271 0.18115,-0.236588 0.0113,-0.04089 -0.15486,-0.347569 -0.26875,-0.143106 -0.33589,0.09054 -0.31249,0.27163 -0.0701,0.02628 -0.076,-0.03216 -0.0554,-0.09345 V 9.0849329 l 1.09234,-0.890807 0.18708,-0.289151 -0.14611,-0.309591 -0.2744,-0.157716 -0.33004,0.09054 -0.32419,0.27748 -0.076,0.02925 -0.0729,-0.04383 -0.0585,-0.08178 V 6.0532942 l 1.10405,-0.899578 0.16927,-0.283302 -0.1461,-0.306677 -0.26592,-0.154806 -0.33587,0.08763 -0.33295,0.24241 -0.0848,0.02345 -0.0526,-0.01469 -0.0585,-0.06714 v -2.713335 l 0.92002,-0.476074 0.035,-0.05256 -0.006,-1.27342096 -0.041,-0.04965 h -4.31678 l -0.0379,0.03798 -0.11671,0.359246 -0.041,0.03798 -0.1023,0.0031 -0.0613,-0.04383 -0.076,-0.365087 -0.0438,-0.02925 h -4.52417 l -0.041,0.05547 V 7.4845919 c -0.069,0.384874 -0.19018,0.733229 -0.76521,0.765224 -0.47413,-0.06765 -0.71539,-0.312629 -0.77109,-0.782751 V 0.18284024 l -0.041,-0.07005 h -4.527094 c -0.054,0.164809 -0.0624,0.444787 -0.22777,0.438107 -0.16023,-0.0082 -0.14921,-0.267194 -0.25122,-0.432257 z"
     id="compensator"
     sodipodi:nodetypes="cccccccccccccccscccccccccccccccccccccccccccccccccccccccccccccccccccccccccccccccccccccccccccccccccccccccccccccccccccccccccccccccccccccccccccccccccccccccc"
     inkscape:label="compensator" />
  <path
     style="fill:#4a8db7;fill-opacity:0.768047;fill-rule:evenodd;stroke:#b81e1e;stroke-width:0.0331886"
     d="M 93.085788,0.10115454 V 13.012695 l -0.165963,0.28775 H 48.199217 v 1.76303 h 49.633558 l 1.919408,-1.53599 0.496807,-1.76556 V 4.9715945 h 0.7642 v -1.27692 h -2.045907 v 0.44145 c 0.0478,0.0698 0.1416,0.14615 0.10913,0.20428 -0.0841,0.0932 -0.26729,0.18674 -0.2517,0.27995 0.013,0.13932 0.30301,0.29229 0.23253,0.41771 -0.0293,0.19551 -0.16465,0.20884 -0.24682,0.31341 0.0163,0.14419 0.20591,0.14354 0.27053,0.36549 -0.006,0.14257 -0.26728,0.24585 -0.25169,0.39875 0.002,0.23091 0.16757,0.26273 0.25169,0.39401 -0.0442,0.17991 -0.29229,0.24032 -0.27053,0.34652 0.0324,0.16596 0.16401,0.23156 0.25169,0.34176 -0.0227,0.13607 -0.24422,0.24195 -0.26598,0.37974 0.10457,0.24228 0.18999,0.23416 0.28482,0.3513 0.006,0.18318 -0.16108,0.26274 -0.24195,0.39398 -0.0195,0.20331 0.2137,0.27476 0.2137,0.42724 -0.0776,0.12016 -0.29846,0.11496 -0.23254,0.36074 0.0792,0.10913 0.26663,0.23806 0.23741,0.32754 -0.006,0.1601 -0.22929,0.21986 -0.24682,0.34178 0.026,0.19129 0.20428,0.2867705 0.23805,0.4120905 -0.0776,0.1127 -0.19031,0.27346 -0.23318,0.33793 0.026,0.1364 0.14387,0.25039 0.2374,0.37026 0.0194,0.10945 -0.0471,0.16628 -0.114,0.22312 v 0.71205 c -0.10911,1.46711 -0.977707,1.86209 -1.950963,2.00794 -1.24035,-0.0497 -1.921096,-0.79857 -2.093389,-2.06964 v -0.63135 l -0.09028,-0.2137 c 0.02272,-0.14647 0.231553,-0.22181 0.218239,-0.37497 -0.07598,-0.11692 -0.220838,-0.15654 -0.227981,-0.3513 -0.01953,-0.19649 0.272802,-0.2036405 0.213694,-0.3845005 -0.06434,-0.11692 -0.208823,-0.23416 -0.189992,-0.35127 -0.01626,-0.13543 0.190638,-0.25884 0.199407,-0.36075 -0.0763,-0.13283 -0.246174,-0.26566 -0.227989,-0.39875 0.0024,-0.18252 0.161092,-0.2439 0.241957,-0.36549 -0.08055,-0.13315 -0.289696,-0.3069 -0.237404,-0.39875 0.02599,-0.11334 0.296512,-0.20103 0.232533,-0.36553 -0.07406,-0.12211 -0.234487,-0.25981 -0.218247,-0.36549 0.0024,-0.10587 0.206232,-0.202 0.204279,-0.31795 -0.06952,-0.12503 -0.224736,-0.25819 -0.204279,-0.37501 0.06952,-0.1312 0.248128,-0.28449 0.208823,-0.39401 -0.07271,-0.14094 -0.251364,-0.27117 -0.218238,-0.42245 0.07111,-0.11562 0.301057,-0.16498 0.213694,-0.34652 -0.07111,-0.11855 -0.226689,-0.2478 -0.213694,-0.35601 0.07925,-0.1075 0.250391,-0.21532 0.237404,-0.32282 -0.08087,-0.13446 -0.302037,-0.26891 -0.241948,-0.40349 0.04289,-0.11075 0.143544,-0.23124 0.128277,-0.33227 V 0.09670454 Z"
     id="profile_left"
     sodipodi:nodetypes="ccccccccccccccccccccccccccccccccccccccccccccccccccccccccccc" />
  <path
     style="fill:#4a8db7;fill-opacity:0.768047;fill-rule:evenodd;stroke:#b81e1e;stroke-width:0.0331886"
     d="M 116.99242,0.02108454 V 12.932625 l 0.16606,0.28774 h 44.72061 v 1.76304 h -49.63356 l -1.91941,-1.53599 -0.49677,-1.76557 V 4.8915245 h -0.76423 v -1.27692 h 2.0459 v 0.44145 c -0.0477,0.0698 -0.14159,0.14614 -0.10918,0.20428 0.084,0.0932 0.26729,0.18674 0.2516,0.27995 -0.0133,0.13932 -0.30298,0.29229 -0.2326,0.41771 0.0302,0.19552 0.16453,0.20883 0.24682,0.31341 -0.0166,0.1442 -0.2059,0.14354 -0.27056,0.36549 0.006,0.14257 0.26741,0.24585 0.25159,0.39875 -0.002,0.23091 -0.16767,0.26273 -0.25159,0.39401 0.0442,0.17992 0.29232,0.24032 0.27056,0.34652 -0.0318,0.16596 -0.16411,0.23156 -0.25156,0.34176 0.023,0.13607 0.24435,0.24195 0.26582,0.37974 -0.10457,0.24228 -0.18989,0.23416 -0.28482,0.35131 -0.006,0.18317 0.16115,0.26273 0.24208,0.39397 0.0202,0.2033 -0.21364,0.27475 -0.21364,0.42724 0.0777,0.12016 0.29837,0.11496 0.23261,0.36074 -0.0791,0.10913 -0.26667,0.23806 -0.23734,0.32754 0.005,0.16011 0.22921,0.21986 0.24682,0.34178 -0.0254,0.19129 -0.20431,0.28677 -0.23792,0.4120905 0.0777,0.1127 0.19018,0.27346 0.23317,0.33792 -0.0266,0.1364 -0.14373,0.2504 -0.23734,0.37027 -0.0205,0.10945 0.047,0.16628 0.11394,0.22312 v 0.71205 c 0.10925,1.4671 0.97773,1.86208 1.95097,2.00794 1.24036,-0.0497 1.92111,-0.79857 2.09338,-2.06965 v -0.63134 l 0.0902,-0.2137 c -0.0227,-0.14647 -0.2315,-0.22182 -0.21837,-0.37498 0.0761,-0.11691 0.22091,-0.15654 0.22785,-0.3513 0.0198,-0.1964805 -0.2728,-0.2036305 -0.21363,-0.3844905 0.0641,-0.11692 0.20882,-0.23415 0.1899,-0.35127 0.0172,-0.13543 -0.19048,-0.25883 -0.19938,-0.36075 0.0763,-0.13283 0.24624,-0.26566 0.22785,-0.39875 -0.003,-0.18252 -0.16118,-0.2439 -0.24208,-0.3655 0.0804,-0.13314 0.28986,-0.3069 0.23734,-0.39874 -0.0263,-0.11334 -0.29645,-0.20103 -0.2326,-0.36553 0.0741,-0.12211 0.23435,-0.25981 0.21835,-0.36549 -0.002,-0.10587 -0.20636,-0.20201 -0.20412,-0.31795 0.0694,-0.12503 0.22477,-0.25819 0.20412,-0.37501 -0.0696,-0.1312 -0.24823,-0.28449 -0.20886,-0.39401 0.0728,-0.14094 0.2514,-0.27117 0.21834,-0.42245 -0.0712,-0.11562 -0.30113,-0.16498 -0.2136,-0.34652 0.0712,-0.11855 0.22681,-0.2478 0.2136,-0.35601 -0.0792,-0.10751 -0.25033,-0.21533 -0.23734,-0.32283 0.0807,-0.13445 0.30216,-0.2689 0.24208,-0.40348 -0.0427,-0.11075 -0.14367,-0.23124 -0.12818,-0.33227 V 0.01663454 Z"
     id="profile_right"
     sodipodi:nodetypes="ccccccccccccccccccccccccccccccccccccccccccccccccccccccccccc"
     inkscape:label="profile_right" />
  <rect
     style="fill:#b8b8b8;fill-opacity:1;fill-rule:evenodd;stroke:#b81e1e;stroke-width:0.0427223"
     id="concrete_right"
     width="69.957275"
     height="54.254299"
     x="112.32376"
     y="15.017604" />
  <rect
     style="fill:#a39a9a;fill-rule:evenodd;stroke:#b81e1e;stroke-width:0.0244747"
     id="finish_right"
     width="65.032791"
     height="13.806242"
     x="117.21389"
     y="1.0484263" />
  <rect
     style="fill:#a39a9a;fill-rule:evenodd;stroke:#b81e1e;stroke-width:0.0127421"
     id="cover_right"
     width="65.183304"
     height="0.75032508"
     x="117.13729"
     y="0.14817297" />
  <rect
     style="fill:#b8b8b8;fill-opacity:1;fill-rule:evenodd;stroke:#b81e1e;stroke-width:0.0427051"
     id="concrete_left"
     width="70.122719"
     height="54.082649"
     x="27.852232"
     y="15.032573" />
  <rect
     style="fill:#a39a9a;fill-rule:evenodd;stroke:#b81e1e;stroke-width:0.0249138"
     id="finish_left"
     width="65.18679"
     height="14.272009"
     x="27.767195"
     y="0.78049719" />
  <rect
     style="fill:#a39a9a;fill-rule:evenodd;stroke:#b81e1e;stroke-width:0.0129142"
     id="cover_left"
     width="65.325188"
     height="0.76904744"
     x="27.679495"
     y="0.026423102" />
  <rect
     style="fill:#404242;fill-opacity:0.341246;fill-rule:evenodd;stroke:#b81e1e;stroke-width:0.0198777"
     id="shadow"
     width="137.48599"
     height="0.01261392"
     x="35.533974"
     y="69.292259"
     inkscape:label="shadow" />
  <ellipse
     style="opacity:0;fill:none;fill-opacity:0;fill-rule:evenodd;stroke-width:0.00368993;stroke-opacity:0"
     id="bolt_left"
     cx="-58.073864"
     cy="-13.375903"
     rx="0.094999999"
     ry="0.028942173"
     inkscape:label="bolt_left"
     transform="scale(-1)" />
  <ellipse
     style="opacity:0;fill:none;fill-opacity:0;fill-rule:evenodd;stroke-width:0.000191947;stroke-opacity:0"
     id="bolt_right"
     cx="152.38423"
     cy="13.277888"
     rx="0.0049418169"
     ry="0.0015055466"
     inkscape:label="bolt_right" />
</svg>
