<?xml version="1.0" encoding="UTF-8" standalone="no"?>
<!-- Created with Inkscape (http://www.inkscape.org/) -->

<svg
   width="210mm"
   height="297mm"
   viewBox="0 0 210 297"
   version="1.1"
   id="svg1"
   inkscape:version="1.4 (86a8ad7, 2024-10-11)"
   sodipodi:docname="DSHL-30-035.svg"
   xmlns:inkscape="http://www.inkscape.org/namespaces/inkscape"
   xmlns:sodipodi="http://sodipodi.sourceforge.net/DTD/sodipodi-0.dtd"
   xmlns="http://www.w3.org/2000/svg"
   xmlns:svg="http://www.w3.org/2000/svg">
  <sodipodi:namedview
     id="namedview1"
     pagecolor="#ffffff"
     bordercolor="#000000"
     borderopacity="0.25"
     inkscape:showpageshadow="2"
     inkscape:pageopacity="0.0"
     inkscape:pagecheckerboard="0"
     inkscape:deskcolor="#d1d1d1"
     inkscape:document-units="mm"
     inkscape:zoom="1.4803312"
     inkscape:cx="504.61679"
     inkscape:cy="197.59091"
     inkscape:window-width="2560"
     inkscape:window-height="1377"
     inkscape:window-x="-8"
     inkscape:window-y="-8"
     inkscape:window-maximized="1"
     inkscape:current-layer="svg1" />
  <defs
     id="defs1">
    <inkscape:path-effect
       effect="fillet_chamfer"
       id="path-effect1"
       is_visible="true"
       lpeversion="1"
       nodesatellites_param="F,0,0,1,0,0,0,1 @ F,0,0,1,0,0.052223123,0,1 @ F,0,0,1,0,0,0,1 @ F,0,0,1,0,0,0,1 @ F,0,0,1,0,0,0,1 @ F,0,0,1,0,0,0,1 @ F,0,0,1,0,0,0,1 @ F,0,0,1,0,0,0,1 @ F,0,0,1,0,0,0,1 @ F,0,0,1,0,0,0,1 @ F,0,0,1,0,0,0,1 @ F,0,0,1,0,0,0,1 @ F,0,0,1,0,0,0,1 @ F,0,0,1,0,0,0,1 @ F,0,0,1,0,0,0,1 @ F,0,0,1,0,0,0,1 @ F,0,0,1,0,0,0,1 @ F,0,0,1,0,0,0,1 @ F,0,0,1,0,0,0,1 @ F,0,0,1,0,0,0,1 @ F,0,0,1,0,0,0,1 @ F,0,0,1,0,0,0,1 @ F,0,0,1,0,0,0,1 @ F,0,0,1,0,0,0,1 @ F,0,0,1,0,0,0,1 @ F,0,0,1,0,0,0,1 @ F,0,0,1,0,0,0,1 @ F,0,0,1,0,0,0,1 @ F,0,0,1,0,0,0,1 @ F,0,0,1,0,0,0,1 @ F,0,0,1,0,0,0,1 @ F,0,0,1,0,0,0,1 @ F,0,0,1,0,0,0,1 @ F,0,0,1,0,0,0,1 @ F,0,0,1,0,0,0,1 @ F,0,0,1,0,0,0,1 @ F,0,0,1,0,0,0,1 @ F,0,0,1,0,0,0,1 @ F,0,0,1,0,0,0,1 @ F,0,0,1,0,0,0,1 @ F,0,0,1,0,0,0,1 @ F,0,0,1,0,0,0,1 @ F,0,0,1,0,0,0,1 @ F,0,0,1,0,0,0,1 @ F,0,0,1,0,0,0,1 @ F,0,0,1,0,0,0,1 @ F,0,0,1,0,0,0,1 @ F,0,0,1,0,0,0,1 @ F,0,0,1,0,0,0,1 @ F,0,0,1,0,0,0,1 @ F,0,0,1,0,0,0,1 @ F,0,0,1,0,0,0,1 @ F,0,0,1,0,0,0,1 @ F,0,0,1,0,0,0,1 @ F,0,0,1,0,0,0,1 @ F,0,0,1,0,0,0,1 @ F,0,0,1,0,0,0,1 @ F,0,0,1,0,0,0,1 @ F,0,0,1,0,0,0,1"
       radius="0"
       unit="px"
       method="auto"
       mode="F"
       chamfer_steps="1"
       flexible="false"
       use_knot_distance="true"
       apply_no_radius="true"
       apply_with_radius="true"
       only_selected="true"
       hide_knots="false" />
    <inkscape:path-effect
       effect="fillet_chamfer"
       id="path-effect1-2"
       is_visible="true"
       lpeversion="1"
       nodesatellites_param="F,0,0,1,0,0,0,1 @ F,0,0,1,0,0.052223123,0,1 @ F,0,0,1,0,0,0,1 @ F,0,0,1,0,0,0,1 @ F,0,0,1,0,0,0,1 @ F,0,0,1,0,0,0,1 @ F,0,0,1,0,0,0,1 @ F,0,0,1,0,0,0,1 @ F,0,0,1,0,0,0,1 @ F,0,0,1,0,0,0,1 @ F,0,0,1,0,0,0,1 @ F,0,0,1,0,0,0,1 @ F,0,0,1,0,0,0,1 @ F,0,0,1,0,0,0,1 @ F,0,0,1,0,0,0,1 @ F,0,0,1,0,0,0,1 @ F,0,0,1,0,0,0,1 @ F,0,0,1,0,0,0,1 @ F,0,0,1,0,0,0,1 @ F,0,0,1,0,0,0,1 @ F,0,0,1,0,0,0,1 @ F,0,0,1,0,0,0,1 @ F,0,0,1,0,0,0,1 @ F,0,0,1,0,0,0,1 @ F,0,0,1,0,0,0,1 @ F,0,0,1,0,0,0,1 @ F,0,0,1,0,0,0,1 @ F,0,0,1,0,0,0,1 @ F,0,0,1,0,0,0,1 @ F,0,0,1,0,0,0,1 @ F,0,0,1,0,0,0,1 @ F,0,0,1,0,0,0,1 @ F,0,0,1,0,0,0,1 @ F,0,0,1,0,0,0,1 @ F,0,0,1,0,0,0,1 @ F,0,0,1,0,0,0,1 @ F,0,0,1,0,0,0,1 @ F,0,0,1,0,0,0,1 @ F,0,0,1,0,0,0,1 @ F,0,0,1,0,0,0,1 @ F,0,0,1,0,0,0,1 @ F,0,0,1,0,0,0,1 @ F,0,0,1,0,0,0,1 @ F,0,0,1,0,0,0,1 @ F,0,0,1,0,0,0,1 @ F,0,0,1,0,0,0,1 @ F,0,0,1,0,0,0,1 @ F,0,0,1,0,0,0,1 @ F,0,0,1,0,0,0,1 @ F,0,0,1,0,0,0,1 @ F,0,0,1,0,0,0,1 @ F,0,0,1,0,0,0,1 @ F,0,0,1,0,0,0,1 @ F,0,0,1,0,0,0,1 @ F,0,0,1,0,0,0,1 @ F,0,0,1,0,0,0,1 @ F,0,0,1,0,0,0,1 @ F,0,0,1,0,0,0,1 @ F,0,0,1,0,0,0,1"
       radius="0"
       unit="px"
       method="auto"
       mode="F"
       chamfer_steps="1"
       flexible="false"
       use_knot_distance="true"
       apply_no_radius="true"
       apply_with_radius="true"
       only_selected="true"
       hide_knots="false" />
    <inkscape:path-effect
       effect="fillet_chamfer"
       id="path-effect1-2-3"
       is_visible="true"
       lpeversion="1"
       nodesatellites_param="F,0,0,1,0,0,0,1 @ F,0,0,1,0,0.052223123,0,1 @ F,0,0,1,0,0,0,1 @ F,0,0,1,0,0,0,1 @ F,0,0,1,0,0,0,1 @ F,0,0,1,0,0,0,1 @ F,0,0,1,0,0,0,1 @ F,0,0,1,0,0,0,1 @ F,0,0,1,0,0,0,1 @ F,0,0,1,0,0,0,1 @ F,0,0,1,0,0,0,1 @ F,0,0,1,0,0,0,1 @ F,0,0,1,0,0,0,1 @ F,0,0,1,0,0,0,1 @ F,0,0,1,0,0,0,1 @ F,0,0,1,0,0,0,1 @ F,0,0,1,0,0,0,1 @ F,0,0,1,0,0,0,1 @ F,0,0,1,0,0,0,1 @ F,0,0,1,0,0,0,1 @ F,0,0,1,0,0,0,1 @ F,0,0,1,0,0,0,1 @ F,0,0,1,0,0,0,1 @ F,0,0,1,0,0,0,1 @ F,0,0,1,0,0,0,1 @ F,0,0,1,0,0,0,1 @ F,0,0,1,0,0,0,1 @ F,0,0,1,0,0,0,1 @ F,0,0,1,0,0,0,1 @ F,0,0,1,0,0,0,1 @ F,0,0,1,0,0,0,1 @ F,0,0,1,0,0,0,1 @ F,0,0,1,0,0,0,1 @ F,0,0,1,0,0,0,1 @ F,0,0,1,0,0,0,1 @ F,0,0,1,0,0,0,1 @ F,0,0,1,0,0,0,1 @ F,0,0,1,0,0,0,1 @ F,0,0,1,0,0,0,1 @ F,0,0,1,0,0,0,1 @ F,0,0,1,0,0,0,1 @ F,0,0,1,0,0,0,1 @ F,0,0,1,0,0,0,1 @ F,0,0,1,0,0,0,1 @ F,0,0,1,0,0,0,1 @ F,0,0,1,0,0,0,1 @ F,0,0,1,0,0,0,1 @ F,0,0,1,0,0,0,1 @ F,0,0,1,0,0,0,1 @ F,0,0,1,0,0,0,1 @ F,0,0,1,0,0,0,1 @ F,0,0,1,0,0,0,1 @ F,0,0,1,0,0,0,1 @ F,0,0,1,0,0,0,1 @ F,0,0,1,0,0,0,1 @ F,0,0,1,0,0,0,1 @ F,0,0,1,0,0,0,1 @ F,0,0,1,0,0,0,1 @ F,0,0,1,0,0,0,1"
       radius="0"
       unit="px"
       method="auto"
       mode="F"
       chamfer_steps="1"
       flexible="false"
       use_knot_distance="true"
       apply_no_radius="true"
       apply_with_radius="true"
       only_selected="true"
       hide_knots="false" />
    <inkscape:path-effect
       effect="fillet_chamfer"
       id="path-effect1-2-38"
       is_visible="true"
       lpeversion="1"
       nodesatellites_param="F,0,0,1,0,0,0,1 @ F,0,0,1,0,0.052223123,0,1 @ F,0,0,1,0,0,0,1 @ F,0,0,1,0,0,0,1 @ F,0,0,1,0,0,0,1 @ F,0,0,1,0,0,0,1 @ F,0,0,1,0,0,0,1 @ F,0,0,1,0,0,0,1 @ F,0,0,1,0,0,0,1 @ F,0,0,1,0,0,0,1 @ F,0,0,1,0,0,0,1 @ F,0,0,1,0,0,0,1 @ F,0,0,1,0,0,0,1 @ F,0,0,1,0,0,0,1 @ F,0,0,1,0,0,0,1 @ F,0,0,1,0,0,0,1 @ F,0,0,1,0,0,0,1 @ F,0,0,1,0,0,0,1 @ F,0,0,1,0,0,0,1 @ F,0,0,1,0,0,0,1 @ F,0,0,1,0,0,0,1 @ F,0,0,1,0,0,0,1 @ F,0,0,1,0,0,0,1 @ F,0,0,1,0,0,0,1 @ F,0,0,1,0,0,0,1 @ F,0,0,1,0,0,0,1 @ F,0,0,1,0,0,0,1 @ F,0,0,1,0,0,0,1 @ F,0,0,1,0,0,0,1 @ F,0,0,1,0,0,0,1 @ F,0,0,1,0,0,0,1 @ F,0,0,1,0,0,0,1 @ F,0,0,1,0,0,0,1 @ F,0,0,1,0,0,0,1 @ F,0,0,1,0,0,0,1 @ F,0,0,1,0,0,0,1 @ F,0,0,1,0,0,0,1 @ F,0,0,1,0,0,0,1 @ F,0,0,1,0,0,0,1 @ F,0,0,1,0,0,0,1 @ F,0,0,1,0,0,0,1 @ F,0,0,1,0,0,0,1 @ F,0,0,1,0,0,0,1 @ F,0,0,1,0,0,0,1 @ F,0,0,1,0,0,0,1 @ F,0,0,1,0,0,0,1 @ F,0,0,1,0,0,0,1 @ F,0,0,1,0,0,0,1 @ F,0,0,1,0,0,0,1 @ F,0,0,1,0,0,0,1 @ F,0,0,1,0,0,0,1 @ F,0,0,1,0,0,0,1 @ F,0,0,1,0,0,0,1 @ F,0,0,1,0,0,0,1 @ F,0,0,1,0,0,0,1 @ F,0,0,1,0,0,0,1 @ F,0,0,1,0,0,0,1 @ F,0,0,1,0,0,0,1 @ F,0,0,1,0,0,0,1"
       radius="0"
       unit="px"
       method="auto"
       mode="F"
       chamfer_steps="1"
       flexible="false"
       use_knot_distance="true"
       apply_no_radius="true"
       apply_with_radius="true"
       only_selected="true"
       hide_knots="false" />
    <inkscape:path-effect
       effect="fillet_chamfer"
       id="path-effect8-6"
       is_visible="true"
       lpeversion="1"
       nodesatellites_param="F,0,0,1,0,0,0,1 @ F,0,0,1,0,0,0,1 @ F,0,0,1,0,0,0,1 @ F,0,0,1,0,0,0,1 @ F,0,0,1,0,0,0,1 @ F,0,0,1,0,0,0,1 @ F,0,0,1,0,0,0,1 @ F,0,0,1,0,0,0,1 @ F,0,0,1,0,0,0,1 @ F,0,0,1,0,0,0,1 @ F,0,0,1,0,0,0,1 @ F,0,0,1,0,0,0,1 @ F,0,0,1,0,0,0,1 @ F,0,0,1,0,0,0,1 @ F,0,0,1,0,0,0,1 @ F,0,0,1,0,0,0,1 @ F,0,0,1,0,0,0,1 @ F,0,0,1,0,0,0,1 @ F,0,0,1,0,0,0,1 @ F,0,0,1,0,0,0,1 @ F,0,0,1,0,0,0,1 @ F,0,0,1,0,0,0,1 @ F,0,0,1,0,0,0,1 @ F,0,0,1,0,0,0,1 @ F,0,0,1,0,0,0,1 @ F,0,0,1,0,0,0,1 @ F,0,0,1,0,0,0,1 @ F,0,0,1,0,0,0,1 @ F,0,0,1,0,0.055330264,0,1 @ F,0,0,1,0,0,0,1 @ F,0,0,1,0,0,0,1 @ F,0,0,1,0,0,0,1 @ F,0,1,1,0,0.073794047,0,1 @ F,0,0,1,0,0,0,1 @ F,0,0,1,0,0,0,1 @ F,0,0,1,0,0,0,1 @ F,0,0,1,0,0,0,1 @ F,0,0,1,0,0,0,1 @ F,0,0,1,0,0,0,1 @ F,0,0,1,0,0,0,1 @ F,0,0,1,0,0,0,1 @ F,0,0,1,0,0,0,1 @ F,0,0,1,0,0,0,1 @ F,0,0,1,0,0,0,1 @ F,0,0,1,0,0,0,1 @ F,0,0,1,0,0,0,1 @ F,0,0,1,0,0,0,1 @ F,0,0,1,0,0,0,1 @ F,0,0,1,0,0,0,1 @ F,0,0,1,0,0,0,1 @ F,0,0,1,0,0,0,1 @ F,0,0,1,0,0,0,1 @ F,0,0,1,0,0,0,1 @ F,0,0,1,0,0,0,1 @ F,0,0,1,0,0,0,1 @ F,0,0,1,0,0,0,1 @ F,0,0,1,0,0,0,1 @ F,0,0,1,0,0,0,1 @ F,0,0,1,0,0,0,1 @ F,0,0,1,0,0,0,1 @ F,0,0,1,0,0,0,1 @ F,0,0,1,0,0,0,1 @ F,0,0,1,0,0,0,1 @ F,0,0,1,0,0,0,1 @ F,0,0,1,0,0,0,1 @ F,0,0,1,0,0,0,1 @ F,0,0,1,0,0,0,1 @ F,0,0,1,0,0,0,1 @ F,0,0,1,0,0,0,1 @ F,0,0,1,0,0,0,1 @ F,0,0,1,0,0,0,1 @ F,0,0,1,0,0,0,1 @ F,0,0,1,0,0,0,1 @ F,0,0,1,0,0,0,1 @ F,0,0,1,0,0,0,1 @ F,0,0,1,0,0,0,1 @ F,0,0,1,0,0,0,1 @ F,0,0,1,0,0,0,1 @ F,0,0,1,0,0,0,1 @ F,0,0,1,0,0,0,1 @ F,0,0,1,0,0,0,1 @ F,0,0,1,0,0,0,1 @ F,0,0,1,0,0,0,1 @ F,0,0,1,0,0,0,1 @ F,0,0,1,0,0,0,1 @ F,0,0,1,0,0,0,1 @ F,0,0,1,0,0,0,1 @ F,0,0,1,0,0,0,1 @ F,0,0,1,0,0,0,1 @ F,0,0,1,0,0,0,1 @ F,0,0,1,0,0,0,1 @ F,0,0,1,0,0,0,1 @ F,0,0,1,0,0,0,1 @ F,0,0,1,0,0,0,1 @ F,0,0,1,0,0,0,1 @ F,0,0,1,0,0,0,1 @ F,0,0,1,0,0,0,1 @ F,0,0,1,0,0,0,1 @ F,0,0,1,0,0,0,1 @ F,0,0,1,0,0,0,1 @ F,0,0,1,0,0,0,1 @ F,0,0,1,0,0,0,1 @ F,0,0,1,0,0,0,1 @ F,0,0,1,0,0,0,1 @ F,0,0,1,0,0,0,1 @ F,0,0,1,0,0,0,1 @ F,0,0,1,0,0,0,1 @ F,0,0,1,0,0,0,1 @ F,0,0,1,0,0,0,1 @ F,0,0,1,0,0,0,1 @ F,0,0,1,0,0,0,1 @ F,0,0,1,0,0,0,1 @ F,0,0,1,0,0,0,1 @ F,0,0,1,0,0,0,1 @ F,0,0,1,0,0,0,1 @ F,0,0,1,0,0,0,1 @ F,0,0,1,0,0,0,1"
       radius="0"
       unit="px"
       method="auto"
       mode="F"
       chamfer_steps="1"
       flexible="false"
       use_knot_distance="true"
       apply_no_radius="true"
       apply_with_radius="true"
       only_selected="true"
       hide_knots="false" />
    <inkscape:path-effect
       effect="fillet_chamfer"
       id="path-effect1-28"
       is_visible="true"
       lpeversion="1"
       nodesatellites_param="F,0,0,1,0,0,0,1 @ F,0,0,1,0,0,0,1 @ F,0,0,1,0,0,0,1 @ F,0,0,1,0,0,0,1 @ F,0,0,1,0,0,0,1 @ F,0,0,1,0,0,0,1 @ F,0,0,1,0,0,0,1 @ F,0,0,1,0,0,0,1 @ F,0,0,1,0,0,0,1 @ F,0,0,1,0,0,0,1 @ F,0,0,1,0,0,0,1 @ F,0,0,1,0,0,0,1 @ F,0,0,1,0,0,0,1 @ F,0,0,1,0,0,0,1 @ F,0,0,1,0,0,0,1 @ F,0,0,1,0,0,0,1 @ F,0,0,1,0,0,0,1 @ F,0,0,1,0,0,0,1 @ F,0,0,1,0,0,0,1 @ F,0,0,1,0,0,0,1 @ F,0,0,1,0,0,0,1 @ F,0,0,1,0,0,0,1 @ F,0,0,1,0,0,0,1 @ F,0,0,1,0,0,0,1 @ F,0,0,1,0,0,0,1 @ F,0,0,1,0,0,0,1 @ F,0,0,1,0,0,0,1 @ F,0,0,1,0,0,0,1 @ F,0,0,1,0,0,0,1 @ F,0,0,1,0,0,0,1 @ F,0,0,1,0,0,0,1 @ F,0,0,1,0,0,0,1 @ F,0,0,1,0,0,0,1 @ F,0,0,1,0,0,0,1 @ F,0,0,1,0,0,0,1 @ F,0,0,1,0,0,0,1 @ F,0,0,1,0,0,0,1 @ F,0,0,1,0,0,0,1 @ F,0,0,1,0,0,0,1 @ F,0,0,1,0,0,0,1 @ F,0,0,1,0,0,0,1 @ F,0,0,1,0,0,0,1 @ F,0,0,1,0,0,0,1 @ F,0,0,1,0,0,0,1 @ F,0,0,1,0,0,0,1 @ F,0,0,1,0,0,0,1 @ F,0,0,1,0,0,0,1 @ F,0,0,1,0,0,0,1 @ F,0,0,1,0,0,0,1 @ F,0,0,1,0,0,0,1 @ F,0,0,1,0,0,0,1 @ F,0,0,1,0,0,0,1 @ F,0,0,1,0,0,0,1 @ F,0,0,1,0,0,0,1 @ F,0,0,1,0,0,0,1 @ F,0,0,1,0,0,0,1 @ F,0,0,1,0,0,0,1 @ F,0,0,1,0,0,0,1 @ F,0,0,1,0,0,0,1 @ F,0,0,1,0,0,0,1 @ F,0,0,1,0,0,0,1 @ F,0,0,1,0,0,0,1 @ F,0,0,1,0,0,0,1 @ F,0,0,1,0,0,0,1 @ F,0,0,1,0,0,0,1 @ F,0,0,1,0,0,0,1 @ F,0,0,1,0,0,0,1 @ F,0,0,1,0,0,0,1 @ F,0,0,1,0,0,0,1 @ F,0,0,1,0,0,0,1 @ F,0,0,1,0,0,0,1 @ F,0,0,1,0,0,0,1 @ F,0,0,1,0,0,0,1 @ F,0,0,1,0,0,0,1 @ F,0,0,1,0,0,0,1 @ F,0,0,1,0,0,0,1 @ F,0,0,1,0,0,0,1 @ F,0,0,1,0,0,0,1 @ F,0,0,1,0,0,0,1 @ F,0,0,1,0,0,0,1 @ F,0,0,1,0,0,0,1 @ F,0,0,1,0,0,0,1 @ F,0,0,1,0,0,0,1 @ F,0,0,1,0,0,0,1 @ F,0,0,1,0,0,0,1 @ F,0,0,1,0,0,0,1 @ F,0,0,1,0,0,0,1 @ F,0,0,1,0,0,0,1 @ F,0,0,1,0,0,0,1 @ F,0,0,1,0,0,0,1 @ F,0,0,1,0,0,0,1 @ F,0,0,1,0,0,0,1 @ F,0,0,1,0,0,0,1 @ F,0,0,1,0,0,0,1 @ F,0,0,1,0,0,0,1 @ F,0,0,1,0,0,0,1 @ F,0,0,1,0,0,0,1 @ F,0,0,1,0,0,0,1 @ F,0,0,1,0,0,0,1 @ F,0,0,1,0,0,0,1 @ F,0,0,1,0,0,0,1 @ F,0,0,1,0,0,0,1 @ F,0,0,1,0,0,0,1 @ F,0,0,1,0,0,0,1 @ F,0,0,1,0,0,0,1 @ F,0,0,1,0,0,0,1 @ F,0,0,1,0,0,0,1 @ F,0,0,1,0,0,0,1 @ F,0,0,1,0,0,0,1 @ F,0,0,1,0,0,0,1 @ F,0,0,1,0,0,0,1 @ F,0,0,1,0,0,0,1 @ F,0,0,1,0,0,0,1 @ F,0,0,1,0,0,0,1 @ F,0,0,1,0,0,0,1 @ F,0,0,1,0,0,0,1"
       radius="0"
       unit="px"
       method="auto"
       mode="F"
       chamfer_steps="1"
       flexible="false"
       use_knot_distance="true"
       apply_no_radius="true"
       apply_with_radius="true"
       only_selected="true"
       hide_knots="false" />
    <inkscape:path-effect
       effect="fillet_chamfer"
       id="path-effect1-2-4"
       is_visible="true"
       lpeversion="1"
       nodesatellites_param="F,0,0,1,0,0,0,1 @ F,0,0,1,0,0.052223123,0,1 @ F,0,0,1,0,0,0,1 @ F,0,0,1,0,0,0,1 @ F,0,0,1,0,0,0,1 @ F,0,0,1,0,0,0,1 @ F,0,0,1,0,0,0,1 @ F,0,0,1,0,0,0,1 @ F,0,0,1,0,0,0,1 @ F,0,0,1,0,0,0,1 @ F,0,0,1,0,0,0,1 @ F,0,0,1,0,0,0,1 @ F,0,0,1,0,0,0,1 @ F,0,0,1,0,0,0,1 @ F,0,0,1,0,0,0,1 @ F,0,0,1,0,0,0,1 @ F,0,0,1,0,0,0,1 @ F,0,0,1,0,0,0,1 @ F,0,0,1,0,0,0,1 @ F,0,0,1,0,0,0,1 @ F,0,0,1,0,0,0,1 @ F,0,0,1,0,0,0,1 @ F,0,0,1,0,0,0,1 @ F,0,0,1,0,0,0,1 @ F,0,0,1,0,0,0,1 @ F,0,0,1,0,0,0,1 @ F,0,0,1,0,0,0,1 @ F,0,0,1,0,0,0,1 @ F,0,0,1,0,0,0,1 @ F,0,0,1,0,0,0,1 @ F,0,0,1,0,0,0,1 @ F,0,0,1,0,0,0,1 @ F,0,0,1,0,0,0,1 @ F,0,0,1,0,0,0,1 @ F,0,0,1,0,0,0,1 @ F,0,0,1,0,0,0,1 @ F,0,0,1,0,0,0,1 @ F,0,0,1,0,0,0,1 @ F,0,0,1,0,0,0,1 @ F,0,0,1,0,0,0,1 @ F,0,0,1,0,0,0,1 @ F,0,0,1,0,0,0,1 @ F,0,0,1,0,0,0,1 @ F,0,0,1,0,0,0,1 @ F,0,0,1,0,0,0,1 @ F,0,0,1,0,0,0,1 @ F,0,0,1,0,0,0,1 @ F,0,0,1,0,0,0,1 @ F,0,0,1,0,0,0,1 @ F,0,0,1,0,0,0,1 @ F,0,0,1,0,0,0,1 @ F,0,0,1,0,0,0,1 @ F,0,0,1,0,0,0,1 @ F,0,0,1,0,0,0,1 @ F,0,0,1,0,0,0,1 @ F,0,0,1,0,0,0,1 @ F,0,0,1,0,0,0,1 @ F,0,0,1,0,0,0,1 @ F,0,0,1,0,0,0,1"
       radius="0"
       unit="px"
       method="auto"
       mode="F"
       chamfer_steps="1"
       flexible="false"
       use_knot_distance="true"
       apply_no_radius="true"
       apply_with_radius="true"
       only_selected="true"
       hide_knots="false" />
    <inkscape:path-effect
       effect="fillet_chamfer"
       id="path-effect1-2-3-6"
       is_visible="true"
       lpeversion="1"
       nodesatellites_param="F,0,0,1,0,0,0,1 @ F,0,0,1,0,0.052223123,0,1 @ F,0,0,1,0,0,0,1 @ F,0,0,1,0,0,0,1 @ F,0,0,1,0,0,0,1 @ F,0,0,1,0,0,0,1 @ F,0,0,1,0,0,0,1 @ F,0,0,1,0,0,0,1 @ F,0,0,1,0,0,0,1 @ F,0,0,1,0,0,0,1 @ F,0,0,1,0,0,0,1 @ F,0,0,1,0,0,0,1 @ F,0,0,1,0,0,0,1 @ F,0,0,1,0,0,0,1 @ F,0,0,1,0,0,0,1 @ F,0,0,1,0,0,0,1 @ F,0,0,1,0,0,0,1 @ F,0,0,1,0,0,0,1 @ F,0,0,1,0,0,0,1 @ F,0,0,1,0,0,0,1 @ F,0,0,1,0,0,0,1 @ F,0,0,1,0,0,0,1 @ F,0,0,1,0,0,0,1 @ F,0,0,1,0,0,0,1 @ F,0,0,1,0,0,0,1 @ F,0,0,1,0,0,0,1 @ F,0,0,1,0,0,0,1 @ F,0,0,1,0,0,0,1 @ F,0,0,1,0,0,0,1 @ F,0,0,1,0,0,0,1 @ F,0,0,1,0,0,0,1 @ F,0,0,1,0,0,0,1 @ F,0,0,1,0,0,0,1 @ F,0,0,1,0,0,0,1 @ F,0,0,1,0,0,0,1 @ F,0,0,1,0,0,0,1 @ F,0,0,1,0,0,0,1 @ F,0,0,1,0,0,0,1 @ F,0,0,1,0,0,0,1 @ F,0,0,1,0,0,0,1 @ F,0,0,1,0,0,0,1 @ F,0,0,1,0,0,0,1 @ F,0,0,1,0,0,0,1 @ F,0,0,1,0,0,0,1 @ F,0,0,1,0,0,0,1 @ F,0,0,1,0,0,0,1 @ F,0,0,1,0,0,0,1 @ F,0,0,1,0,0,0,1 @ F,0,0,1,0,0,0,1 @ F,0,0,1,0,0,0,1 @ F,0,0,1,0,0,0,1 @ F,0,0,1,0,0,0,1 @ F,0,0,1,0,0,0,1 @ F,0,0,1,0,0,0,1 @ F,0,0,1,0,0,0,1 @ F,0,0,1,0,0,0,1 @ F,0,0,1,0,0,0,1 @ F,0,0,1,0,0,0,1 @ F,0,0,1,0,0,0,1"
       radius="0"
       unit="px"
       method="auto"
       mode="F"
       chamfer_steps="1"
       flexible="false"
       use_knot_distance="true"
       apply_no_radius="true"
       apply_with_radius="true"
       only_selected="true"
       hide_knots="false" />
  </defs>
  <path
     style="fill:#000000;fill-opacity:1;fill-rule:evenodd;stroke:#b81e1e;stroke-width:0.0102192"
     d="m 97.398704,30.071549 -0.360701,-0.0011 -0.630452,-0.542602 c -0.0391,-0.06957 -0.0205,-0.128047 0.01138,-0.183968 0.03789,-0.03446 0.08052,-0.06418 0.159163,-0.05788 l 0.06408,0.03617 0.10232,0.09612 h 0.06098 v -0.639754 l -0.368972,-0.311092 c -0.0552,-0.07122 -0.069,-0.144455 -0.01138,-0.221176 0.04724,-0.04457 0.09986,-0.06085 0.158128,-0.04754 l 0.186037,0.138491 h 0.03514 V 27.7078 l -0.40101,-0.360701 c -0.03664,-0.07033 -0.0069,-0.136897 0.02066,-0.180869 0.04202,-0.05171 0.09794,-0.0617 0.159162,-0.05581 l 0.181902,0.13126 0.02791,0.0011 0.01035,-0.0093 v -0.988055 l -0.302823,-0.187068 v -0.485759 h 2.542418 l 0.629962,0.801057 c 0.02149,0.01751 0.03926,0.03689 0.08185,0.04385 0.03529,-0.01705 0.05852,-0.03411 0.07454,-0.05116 l 0.625572,-0.792204 1.38124,-0.0015 0.63435,0.79805 c 0.0177,0.0213 0.0461,0.03183 0.0775,0.03946 0.0426,-0.0076 0.0589,-0.0239 0.0775,-0.03946 l 0.62704,-0.79805 h 1.36663 l 0.62557,0.786357 c 0.0226,0.02403 0.0477,0.04655 0.0921,0.057 0.0252,-0.0047 0.0491,-0.02163 0.0716,-0.05116 l 0.62851,-0.792203 h 2.53739 v 0.489646 l -0.29817,0.187089 v 0.992446 h 0.038 l 0.17685,-0.128624 c 0.0514,-0.01437 0.1037,-0.0077 0.15786,0.04385 0.0678,0.06139 0.0437,0.122777 0.0322,0.184166 l -0.4078,0.368329 -0.002,0.632886 0.0409,0.0016 0.18124,-0.14324 c 0.0527,-0.01266 0.10675,0.0032 0.16224,0.05116 0.0573,0.06537 0.0409,0.138508 -0.006,0.21486 l -0.37564,0.312788 v 0.632886 l 0.0585,0.0029 0.10086,-0.09354 c 0.0731,-0.05333 0.13489,-0.03393 0.19439,0 0.0874,0.04819 0.0702,0.120524 0.0526,0.192934 l -0.62996,0.559806 h -0.36102 l -0.63727,-0.555421 c -0.0147,-0.07393 -0.0246,-0.146284 0.0365,-0.195858 0.0464,-0.04473 0.0972,-0.04651 0.14908,-0.03654 l 0.14324,0.124241 h 0.0702 v -0.629965 l -0.36248,-0.312788 c -0.0809,-0.08354 -0.0623,-0.156712 -0.0117,-0.226552 0.0489,-0.04776 0.10199,-0.05215 0.1564,-0.04239 l 0.18124,0.138856 h 0.0424 v -0.628502 l -0.40049,-0.361021 -0.0219,-0.07308 c -0.001,-0.05509 0.0226,-0.09865 0.0628,-0.134469 0.0423,-0.03926 0.0912,-0.03915 0.14178,-0.02923 l 0.15055,0.121314 0.0453,0.01315 0.019,-0.03069 v -0.505725 h -1.38709 l -0.58465,0.586113 c -0.0441,0.03696 -0.0943,0.0584 -0.15493,0.05408 -0.0499,-0.0099 -0.10015,-0.0184 -0.1447,-0.04969 l -0.5905,-0.5905 h -1.30524 l -0.60219,0.587576 c -0.0327,0.03082 -0.0788,0.04936 -0.14178,0.05262 -0.0635,-0.003 -0.10888,-0.0266 -0.15347,-0.05116 l -0.58465,-0.589037 h -1.31547 l -0.587569,0.589037 c -0.03516,0.02444 -0.08256,0.04322 -0.153472,0.05116 -0.05647,-3.61e-4 -0.105054,-0.02043 -0.150548,-0.04823 L 99.016062,26.711379 H 97.6353 l 0.0029,0.52034 0.01024,0.01024 0.02339,-0.0029 0.181242,-0.124241 c 0.05903,-0.02015 0.112928,0.0025 0.163703,0.05116 0.04676,0.05685 0.04678,0.117437 0.02484,0.179781 l -0.406332,0.365408 0.0016,0.61096 0.02777,0.01609 0.147624,-0.112546 c 0.06577,-0.04431 0.131547,-0.02877 0.197321,0.02045 0.04525,0.05603 0.04411,0.112058 0.0263,0.168087 l -0.02777,0.0497 -0.371256,0.320096 v 0.628502 h 0.05701 l 0.111082,-0.09501 c 0.07195,-0.06158 0.139605,-0.03282 0.20609,0.02045 0.05728,0.07771 0.04326,0.129021 0.02777,0.179782 z"
     id="compensator"
     sodipodi:nodetypes="ccccccccccccccccccccccccccccccccccccccccccccccccccccccccccccccccccccccccccccccccccccccccccccccccccccccccccccccccccccc"
     inkscape:path-effect="#path-effect1-28"
     inkscape:original-d="m 97.398704,30.071549 -0.360701,-0.0011 -0.630452,-0.542602 c -0.0391,-0.06957 -0.0205,-0.128047 0.01138,-0.183968 0.03789,-0.03446 0.08052,-0.06418 0.159163,-0.05788 l 0.06408,0.03617 0.10232,0.09612 h 0.06098 v -0.639754 l -0.368972,-0.311092 c -0.0552,-0.07122 -0.069,-0.144455 -0.01138,-0.221176 0.04724,-0.04457 0.09986,-0.06085 0.158128,-0.04754 l 0.186037,0.138491 h 0.03514 V 27.7078 l -0.40101,-0.360701 c -0.03664,-0.07033 -0.0069,-0.136897 0.02066,-0.180869 0.04202,-0.05171 0.09794,-0.0617 0.159162,-0.05581 l 0.181902,0.13126 0.02791,0.0011 0.01035,-0.0093 v -0.988055 l -0.302823,-0.187068 v -0.485759 h 2.542418 l 0.629962,0.801057 c 0.02149,0.01751 0.03926,0.03689 0.08185,0.04385 0.03529,-0.01705 0.05852,-0.03411 0.07454,-0.05116 l 0.625572,-0.792204 1.38124,-0.0015 0.63435,0.79805 c 0.0177,0.0213 0.0461,0.03183 0.0775,0.03946 0.0426,-0.0076 0.0589,-0.0239 0.0775,-0.03946 l 0.62704,-0.79805 h 1.36663 l 0.62557,0.786357 c 0.0226,0.02403 0.0477,0.04655 0.0921,0.057 0.0252,-0.0047 0.0491,-0.02163 0.0716,-0.05116 l 0.62851,-0.792203 h 2.53739 v 0.489646 l -0.29817,0.187089 v 0.992446 h 0.038 l 0.17685,-0.128624 c 0.0514,-0.01437 0.1037,-0.0077 0.15786,0.04385 0.0678,0.06139 0.0437,0.122777 0.0322,0.184166 l -0.4078,0.368329 -0.002,0.632886 0.0409,0.0016 0.18124,-0.14324 c 0.0527,-0.01266 0.10675,0.0032 0.16224,0.05116 0.0573,0.06537 0.0409,0.138508 -0.006,0.21486 l -0.37564,0.312788 v 0.632886 l 0.0585,0.0029 0.10086,-0.09354 c 0.0731,-0.05333 0.13489,-0.03393 0.19439,0 0.0874,0.04819 0.0702,0.120524 0.0526,0.192934 l -0.62996,0.559806 h -0.36102 l -0.63727,-0.555421 c -0.0147,-0.07393 -0.0246,-0.146284 0.0365,-0.195858 0.0464,-0.04473 0.0972,-0.04651 0.14908,-0.03654 l 0.14324,0.124241 h 0.0702 v -0.629965 l -0.36248,-0.312788 c -0.0809,-0.08354 -0.0623,-0.156712 -0.0117,-0.226552 0.0489,-0.04776 0.10199,-0.05215 0.1564,-0.04239 l 0.18124,0.138856 h 0.0424 v -0.628502 l -0.40049,-0.361021 -0.0219,-0.07308 c -0.001,-0.05509 0.0226,-0.09865 0.0628,-0.134469 0.0423,-0.03926 0.0912,-0.03915 0.14178,-0.02923 l 0.15055,0.121314 0.0453,0.01315 0.019,-0.03069 v -0.505725 h -1.38709 l -0.58465,0.586113 c -0.0441,0.03696 -0.0943,0.0584 -0.15493,0.05408 -0.0499,-0.0099 -0.10015,-0.0184 -0.1447,-0.04969 l -0.5905,-0.5905 h -1.30524 l -0.60219,0.587576 c -0.0327,0.03082 -0.0788,0.04936 -0.14178,0.05262 -0.0635,-0.003 -0.10888,-0.0266 -0.15347,-0.05116 l -0.58465,-0.589037 h -1.31547 l -0.587569,0.589037 c -0.03516,0.02444 -0.08256,0.04322 -0.153472,0.05116 -0.05647,-3.61e-4 -0.105054,-0.02043 -0.150548,-0.04823 L 99.016062,26.711379 H 97.6353 l 0.0029,0.52034 0.01024,0.01024 0.02339,-0.0029 0.181242,-0.124241 c 0.05903,-0.02015 0.112928,0.0025 0.163703,0.05116 0.04676,0.05685 0.04678,0.117437 0.02484,0.179781 l -0.406332,0.365408 0.0016,0.61096 0.02777,0.01609 0.147624,-0.112546 c 0.06577,-0.04431 0.131547,-0.02877 0.197321,0.02045 0.04525,0.05603 0.04411,0.112058 0.0263,0.168087 l -0.02777,0.0497 -0.371256,0.320096 v 0.628502 h 0.05701 l 0.111082,-0.09501 c 0.07195,-0.06158 0.139605,-0.03282 0.20609,0.02045 0.05728,0.07771 0.04326,0.129021 0.02777,0.179782 z"
     inkscape:label="compensator"
     transform="matrix(3.0033968,0,0,3.0033968,-202.83616,-76.719036)" />
  <rect
     style="fill:#b8b8b8;fill-opacity:1;fill-rule:evenodd;stroke:#b81e1e;stroke-width:0.0386646"
     id="concrete_right"
     width="69.961334"
     height="44.435112"
     x="123.00929"
     y="30.156137" />
  <rect
     style="fill:#a39a9a;fill-rule:evenodd;stroke:#b81e1e;stroke-width:0.0335064"
     id="finish_right"
     width="67.65239"
     height="24.874063"
     x="124.96539"
     y="5.0708938" />
  <rect
     style="fill:#a39a9a;fill-rule:evenodd;stroke:#b81e1e;stroke-width:0.033401"
     id="cover_right"
     width="67.664902"
     height="4.966599"
     x="125.02101"
     y="0.065606512" />
  <rect
     style="fill:#b8b8b8;fill-opacity:1;fill-rule:evenodd;stroke:#b81e1e;stroke-width:0.0387102"
     id="concrete_left"
     width="70.126717"
     height="44.435089"
     x="17.029394"
     y="30.171122" />
  <rect
     style="fill:#a39a9a;fill-rule:evenodd;stroke:#b81e1e;stroke-width:0.0336958"
     id="finish_left"
     width="68.216461"
     height="24.947567"
     x="17.091637"
     y="5.1583953" />
  <rect
     style="fill:#a39a9a;fill-rule:evenodd;stroke:#b81e1e;stroke-width:0.0331613"
     id="cover_left"
     width="68.164658"
     height="4.8596482"
     x="17.128532"
     y="0.21173994" />
  <rect
     style="fill:#404242;fill-opacity:0.341246;fill-rule:evenodd;stroke:#b81e1e;stroke-width:0.0205577"
     id="shadow"
     width="155.4317"
     height="0.011933953"
     x="17.391273"
     y="74.558174"
     inkscape:label="shadow" />
  <ellipse
     style="opacity:0;fill:none;fill-opacity:0;fill-rule:evenodd;stroke-width:0.000721082;stroke-opacity:0"
     id="bolt_left"
     cx="51.05846"
     cy="28.334879"
     rx="0.0049999999"
     ry="0.021"
     inkscape:label="bolt_left" />
  <ellipse
     style="opacity:0;fill:none;fill-opacity:0;fill-rule:evenodd;stroke-width:0.000191947;stroke-opacity:0"
     id="bolt_right"
     cx="159.16887"
     cy="28.287378"
     rx="0.0049418169"
     ry="0.0015055466"
     inkscape:label="bolt_right" />
  <path
     style="fill:#5e5e5e;fill-rule:evenodd;stroke:#000000;stroke-width:0.0102192"
     d="M 39.444033,143.16475 H 53.24358 a 0.05222312,0.05222312 135 0 0 0.05222,-0.0522 v -8.6945 h 0.558538 v 1.20644 l -0.04876,0.12467 c 0.02918,0.0399 0.07687,0.0772 0.08294,0.12046 0.0087,0.0448 -0.04803,0.0765 -0.07306,0.11453 0.0219,0.039 0.07484,0.0594 0.06319,0.11849 0.01658,0.0534 -0.03523,0.0726 -0.05332,0.10861 0.01923,0.0401 0.04926,0.0532 0.05529,0.12638 0.01244,0.0596 -0.04343,0.0737 -0.06516,0.11059 0.02463,0.036 0.06631,0.0692 0.07109,0.10861 0.01622,0.0519 -0.04508,0.0715 -0.06911,0.10663 0.0229,0.0444 0.0783,0.0694 0.06714,0.13429 0.01436,0.0329 -0.04258,0.0658 -0.06517,0.0987 0.0273,0.0387 0.07057,0.0358 0.08096,0.11849 0.0036,0.0526 -0.04917,0.0744 -0.08294,0.10663 0.04415,0.0519 0.05788,0.0977 0.06517,0.14218 0.0042,0.039 -0.04068,0.0501 -0.06122,0.075 0.0191,0.0434 0.0683,0.0869 0.05727,0.13033 0.01694,0.0456 -0.04079,0.0764 -0.06122,0.11454 0.02297,0.0405 0.07202,0.0753 0.06517,0.12243 0.0021,0.0363 -0.04969,0.0658 -0.07504,0.0987 l 0.0395,0.11058 0.0039,0.16786 c 0.07061,0.3146 0.219364,0.57169 0.681284,0.59834 0.1672,-0.0739 0.312415,-0.002 0.556873,-0.58847 l -0.0059,-0.21524 0.03555,-0.0612 c -0.02114,-0.042 -0.06354,-0.0414 -0.06319,-0.12638 -0.02765,-0.0369 0.04001,-0.0737 0.06517,-0.11059 -0.03515,-0.0402 -0.06937,-0.0803 -0.07899,-0.12046 0.0055,-0.0563 0.05134,-0.0803 0.07701,-0.12046 -0.02818,-0.0249 -0.06377,-0.0386 -0.07109,-0.0948 -0.002,-0.0382 0.0465,-0.0763 0.07109,-0.11453 -0.02787,-0.0443 -0.07559,-0.0787 -0.07701,-0.13626 -0.0022,-0.0498 0.05792,-0.0685 0.08689,-0.10268 -0.03197,-0.0367 -0.0813,-0.0677 -0.08294,-0.11454 -0.0086,-0.0411 0.0473,-0.0751 0.07109,-0.11256 -0.02313,-0.0406 -0.07099,-0.0318 -0.06911,-0.12243 -0.02031,-0.0268 0.03858,-0.0719 0.06122,-0.10861 -0.02023,-0.0417 -0.06285,-0.0734 -0.05332,-0.12836 -0.01157,-0.0635 0.05134,-0.0711 0.07701,-0.10664 -0.02639,-0.0413 -0.06317,-0.0514 -0.07899,-0.1244 -0.0059,-0.0459 0.03809,-0.0633 0.05727,-0.0948 -0.02576,-0.0417 -0.06033,-0.0799 -0.06911,-0.12836 0.0041,-0.0382 0.05166,-0.0763 0.07899,-0.11453 -0.02367,-0.0204 -0.04034,-0.0479 -0.04542,-0.0869 v -0.0928 h 0.655611 v 0.43839 h -0.260665 v 2.2275 c 0.0031,0.26675 -0.09272,0.4637 -0.215246,0.64179 -0.13715,0.26848 -0.430789,0.37559 -0.805691,0.39889 h -0.58847 v 4.45895 H 39.427266 Z"
     id="profile_left"
     sodipodi:nodetypes="cccccccccccccccccccccccccccccccccccccccccccccccccccccccccccc"
     inkscape:path-effect="#path-effect1-2-4"
     inkscape:original-d="m 39.444033,143.16475 h 13.85177 v -8.74672 h 0.558538 v 1.20644 l -0.04876,0.12467 c 0.02918,0.0399 0.07687,0.0772 0.08294,0.12046 0.0087,0.0448 -0.04803,0.0765 -0.07306,0.11453 0.0219,0.039 0.07484,0.0594 0.06319,0.11849 0.01658,0.0534 -0.03523,0.0726 -0.05332,0.10861 0.01923,0.0401 0.04926,0.0532 0.05529,0.12638 0.01244,0.0596 -0.04343,0.0737 -0.06516,0.11059 0.02463,0.036 0.06631,0.0692 0.07109,0.10861 0.01622,0.0519 -0.04508,0.0715 -0.06911,0.10663 0.0229,0.0444 0.0783,0.0694 0.06714,0.13429 0.01436,0.0329 -0.04258,0.0658 -0.06517,0.0987 0.0273,0.0387 0.07057,0.0358 0.08096,0.11849 0.0036,0.0526 -0.04917,0.0744 -0.08294,0.10663 0.04415,0.0519 0.05788,0.0977 0.06517,0.14218 0.0042,0.039 -0.04068,0.0501 -0.06122,0.075 0.0191,0.0434 0.0683,0.0869 0.05727,0.13033 0.01694,0.0456 -0.04079,0.0764 -0.06122,0.11454 0.02297,0.0405 0.07202,0.0753 0.06517,0.12243 0.0021,0.0363 -0.04969,0.0658 -0.07504,0.0987 l 0.0395,0.11058 0.0039,0.16786 c 0.07061,0.3146 0.219364,0.57169 0.681284,0.59834 0.1672,-0.0739 0.312415,-0.002 0.556873,-0.58847 l -0.0059,-0.21524 0.03555,-0.0612 c -0.02114,-0.042 -0.06354,-0.0414 -0.06319,-0.12638 -0.02765,-0.0369 0.04001,-0.0737 0.06517,-0.11059 -0.03515,-0.0402 -0.06937,-0.0803 -0.07899,-0.12046 0.0055,-0.0563 0.05134,-0.0803 0.07701,-0.12046 -0.02818,-0.0249 -0.06377,-0.0386 -0.07109,-0.0948 -0.002,-0.0382 0.0465,-0.0763 0.07109,-0.11453 -0.02787,-0.0443 -0.07559,-0.0787 -0.07701,-0.13626 -0.0022,-0.0498 0.05792,-0.0685 0.08689,-0.10268 -0.03197,-0.0367 -0.0813,-0.0677 -0.08294,-0.11454 -0.0086,-0.0411 0.0473,-0.0751 0.07109,-0.11256 -0.02313,-0.0406 -0.07099,-0.0318 -0.06911,-0.12243 -0.02031,-0.0268 0.03858,-0.0719 0.06122,-0.10861 -0.02023,-0.0417 -0.06285,-0.0734 -0.05332,-0.12836 -0.01157,-0.0635 0.05134,-0.0711 0.07701,-0.10664 -0.02639,-0.0413 -0.06317,-0.0514 -0.07899,-0.1244 -0.0059,-0.0459 0.03809,-0.0633 0.05727,-0.0948 -0.02576,-0.0417 -0.06033,-0.0799 -0.06911,-0.12836 0.0041,-0.0382 0.05166,-0.0763 0.07899,-0.11453 -0.02367,-0.0204 -0.04034,-0.0479 -0.04542,-0.0869 v -0.0928 h 0.655611 v 0.43839 h -0.260665 v 2.2275 c 0.0031,0.26675 -0.09272,0.4637 -0.215246,0.64179 -0.13715,0.26848 -0.430789,0.37559 -0.805691,0.39889 h -0.58847 v 4.45895 H 39.427266 Z"
     transform="matrix(3.2211171,0,0,3.2211171,-86.207278,-432.85552)"
     inkscape:label="profile_left" />
  <path
     style="fill:#5e5e5e;fill-rule:evenodd;stroke:#000000;stroke-width:0.0102192"
     d="M 39.444033,143.16475 H 53.24358 a 0.05222312,0.05222312 135 0 0 0.05222,-0.0522 v -8.6945 h 0.558538 v 1.20644 l -0.04876,0.12467 c 0.02918,0.0399 0.07687,0.0772 0.08294,0.12046 0.0087,0.0448 -0.04803,0.0765 -0.07306,0.11453 0.0219,0.039 0.07484,0.0594 0.06319,0.11849 0.01658,0.0534 -0.03523,0.0726 -0.05332,0.10861 0.01923,0.0401 0.04926,0.0532 0.05529,0.12638 0.01244,0.0596 -0.04343,0.0737 -0.06516,0.11059 0.02463,0.036 0.06631,0.0692 0.07109,0.10861 0.01622,0.0519 -0.04508,0.0715 -0.06911,0.10663 0.0229,0.0444 0.0783,0.0694 0.06714,0.13429 0.01436,0.0329 -0.04258,0.0658 -0.06517,0.0987 0.0273,0.0387 0.07057,0.0358 0.08096,0.11849 0.0036,0.0526 -0.04917,0.0744 -0.08294,0.10663 0.04415,0.0519 0.05788,0.0977 0.06517,0.14218 0.0042,0.039 -0.04068,0.0501 -0.06122,0.075 0.0191,0.0434 0.0683,0.0869 0.05727,0.13033 0.01694,0.0456 -0.04079,0.0764 -0.06122,0.11454 0.02297,0.0405 0.07202,0.0753 0.06517,0.12243 0.0021,0.0363 -0.04969,0.0658 -0.07504,0.0987 l 0.0395,0.11058 0.0039,0.16786 c 0.07061,0.3146 0.219364,0.57169 0.681284,0.59834 0.1672,-0.0739 0.312415,-0.002 0.556873,-0.58847 l -0.0059,-0.21524 0.03555,-0.0612 c -0.02114,-0.042 -0.06354,-0.0414 -0.06319,-0.12638 -0.02765,-0.0369 0.04001,-0.0737 0.06517,-0.11059 -0.03515,-0.0402 -0.06937,-0.0803 -0.07899,-0.12046 0.0055,-0.0563 0.05134,-0.0803 0.07701,-0.12046 -0.02818,-0.0249 -0.06377,-0.0386 -0.07109,-0.0948 -0.002,-0.0382 0.0465,-0.0763 0.07109,-0.11453 -0.02787,-0.0443 -0.07559,-0.0787 -0.07701,-0.13626 -0.0022,-0.0498 0.05792,-0.0685 0.08689,-0.10268 -0.03197,-0.0367 -0.0813,-0.0677 -0.08294,-0.11454 -0.0086,-0.0411 0.0473,-0.0751 0.07109,-0.11256 -0.02313,-0.0406 -0.07099,-0.0318 -0.06911,-0.12243 -0.02031,-0.0268 0.03858,-0.0719 0.06122,-0.10861 -0.02023,-0.0417 -0.06285,-0.0734 -0.05332,-0.12836 -0.01157,-0.0635 0.05134,-0.0711 0.07701,-0.10664 -0.02639,-0.0413 -0.06317,-0.0514 -0.07899,-0.1244 -0.0059,-0.0459 0.03809,-0.0633 0.05727,-0.0948 -0.02576,-0.0417 -0.06033,-0.0799 -0.06911,-0.12836 0.0041,-0.0382 0.05166,-0.0763 0.07899,-0.11453 -0.02367,-0.0204 -0.04034,-0.0479 -0.04542,-0.0869 v -0.0928 h 0.655611 v 0.43839 h -0.260665 v 2.2275 c 0.0031,0.26675 -0.09272,0.4637 -0.215246,0.64179 -0.13715,0.26848 -0.430789,0.37559 -0.805691,0.39889 h -0.58847 v 4.45895 H 39.427266 Z"
     id="profile_right"
     sodipodi:nodetypes="cccccccccccccccccccccccccccccccccccccccccccccccccccccccccccc"
     inkscape:path-effect="#path-effect1-2-3-6"
     inkscape:original-d="m 39.444033,143.16475 h 13.85177 v -8.74672 h 0.558538 v 1.20644 l -0.04876,0.12467 c 0.02918,0.0399 0.07687,0.0772 0.08294,0.12046 0.0087,0.0448 -0.04803,0.0765 -0.07306,0.11453 0.0219,0.039 0.07484,0.0594 0.06319,0.11849 0.01658,0.0534 -0.03523,0.0726 -0.05332,0.10861 0.01923,0.0401 0.04926,0.0532 0.05529,0.12638 0.01244,0.0596 -0.04343,0.0737 -0.06516,0.11059 0.02463,0.036 0.06631,0.0692 0.07109,0.10861 0.01622,0.0519 -0.04508,0.0715 -0.06911,0.10663 0.0229,0.0444 0.0783,0.0694 0.06714,0.13429 0.01436,0.0329 -0.04258,0.0658 -0.06517,0.0987 0.0273,0.0387 0.07057,0.0358 0.08096,0.11849 0.0036,0.0526 -0.04917,0.0744 -0.08294,0.10663 0.04415,0.0519 0.05788,0.0977 0.06517,0.14218 0.0042,0.039 -0.04068,0.0501 -0.06122,0.075 0.0191,0.0434 0.0683,0.0869 0.05727,0.13033 0.01694,0.0456 -0.04079,0.0764 -0.06122,0.11454 0.02297,0.0405 0.07202,0.0753 0.06517,0.12243 0.0021,0.0363 -0.04969,0.0658 -0.07504,0.0987 l 0.0395,0.11058 0.0039,0.16786 c 0.07061,0.3146 0.219364,0.57169 0.681284,0.59834 0.1672,-0.0739 0.312415,-0.002 0.556873,-0.58847 l -0.0059,-0.21524 0.03555,-0.0612 c -0.02114,-0.042 -0.06354,-0.0414 -0.06319,-0.12638 -0.02765,-0.0369 0.04001,-0.0737 0.06517,-0.11059 -0.03515,-0.0402 -0.06937,-0.0803 -0.07899,-0.12046 0.0055,-0.0563 0.05134,-0.0803 0.07701,-0.12046 -0.02818,-0.0249 -0.06377,-0.0386 -0.07109,-0.0948 -0.002,-0.0382 0.0465,-0.0763 0.07109,-0.11453 -0.02787,-0.0443 -0.07559,-0.0787 -0.07701,-0.13626 -0.0022,-0.0498 0.05792,-0.0685 0.08689,-0.10268 -0.03197,-0.0367 -0.0813,-0.0677 -0.08294,-0.11454 -0.0086,-0.0411 0.0473,-0.0751 0.07109,-0.11256 -0.02313,-0.0406 -0.07099,-0.0318 -0.06911,-0.12243 -0.02031,-0.0268 0.03858,-0.0719 0.06122,-0.10861 -0.02023,-0.0417 -0.06285,-0.0734 -0.05332,-0.12836 -0.01157,-0.0635 0.05134,-0.0711 0.07701,-0.10664 -0.02639,-0.0413 -0.06317,-0.0514 -0.07899,-0.1244 -0.0059,-0.0459 0.03809,-0.0633 0.05727,-0.0948 -0.02576,-0.0417 -0.06033,-0.0799 -0.06911,-0.12836 0.0041,-0.0382 0.05166,-0.0763 0.07899,-0.11453 -0.02367,-0.0204 -0.04034,-0.0479 -0.04542,-0.0869 v -0.0928 h 0.655611 v 0.43839 h -0.260665 v 2.2275 c 0.0031,0.26675 -0.09272,0.4637 -0.215246,0.64179 -0.13715,0.26848 -0.430789,0.37559 -0.805691,0.39889 h -0.58847 v 4.45895 H 39.427266 Z"
     transform="matrix(-3.2211171,0,0,3.2211171,296.63817,-432.95976)"
     inkscape:label="profile_right" />
</svg>
