<?xml version="1.0" encoding="UTF-8" standalone="no"?>
<!-- Created with Inkscape (http://www.inkscape.org/) -->

<svg
   width="210mm"
   height="297mm"
   viewBox="0 0 210 297"
   version="1.1"
   id="svg1"
   inkscape:version="1.4 (86a8ad7, 2024-10-11)"
   sodipodi:docname="DSHL-15-010.svg"
   xmlns:inkscape="http://www.inkscape.org/namespaces/inkscape"
   xmlns:sodipodi="http://sodipodi.sourceforge.net/DTD/sodipodi-0.dtd"
   xmlns="http://www.w3.org/2000/svg"
   xmlns:svg="http://www.w3.org/2000/svg">
  <sodipodi:namedview
     id="namedview1"
     pagecolor="#ffffff"
     bordercolor="#000000"
     borderopacity="0.25"
     inkscape:showpageshadow="2"
     inkscape:pageopacity="0.0"
     inkscape:pagecheckerboard="0"
     inkscape:deskcolor="#d1d1d1"
     inkscape:document-units="mm"
     inkscape:zoom="1.0467522"
     inkscape:cx="269.40473"
     inkscape:cy="-60.663831"
     inkscape:window-width="2560"
     inkscape:window-height="1377"
     inkscape:window-x="-8"
     inkscape:window-y="-8"
     inkscape:window-maximized="1"
     inkscape:current-layer="svg1" />
  <defs
     id="defs1">
    <inkscape:path-effect
       effect="fillet_chamfer"
       id="path-effect8"
       is_visible="true"
       lpeversion="1"
       nodesatellites_param="F,0,0,1,0,0,0,1 @ F,0,0,1,0,0,0,1 @ F,0,0,1,0,0,0,1 @ F,0,0,1,0,0,0,1 @ F,0,0,1,0,0,0,1 @ F,0,0,1,0,0,0,1 @ F,0,0,1,0,0,0,1 @ F,0,0,1,0,0,0,1 @ F,0,0,1,0,0,0,1 @ F,0,0,1,0,0,0,1 @ F,0,0,1,0,0,0,1 @ F,0,0,1,0,0,0,1 @ F,0,0,1,0,0,0,1 @ F,0,0,1,0,0,0,1 @ F,0,0,1,0,0,0,1 @ F,0,0,1,0,0,0,1 @ F,0,0,1,0,0,0,1 @ F,0,0,1,0,0,0,1 @ F,0,0,1,0,0,0,1 @ F,0,0,1,0,0,0,1 @ F,0,0,1,0,0,0,1 @ F,0,0,1,0,0,0,1 @ F,0,0,1,0,0,0,1 @ F,0,0,1,0,0,0,1 @ F,0,0,1,0,0,0,1 @ F,0,0,1,0,0,0,1 @ F,0,0,1,0,0,0,1 @ F,0,0,1,0,0,0,1 @ F,0,0,1,0,0.055330264,0,1 @ F,0,0,1,0,0,0,1 @ F,0,0,1,0,0,0,1 @ F,0,0,1,0,0,0,1 @ F,0,1,1,0,0.073794047,0,1 @ F,0,0,1,0,0,0,1 @ F,0,0,1,0,0,0,1 @ F,0,0,1,0,0,0,1 @ F,0,0,1,0,0,0,1 @ F,0,0,1,0,0,0,1 @ F,0,0,1,0,0,0,1 @ F,0,0,1,0,0,0,1 @ F,0,0,1,0,0,0,1 @ F,0,0,1,0,0,0,1 @ F,0,0,1,0,0,0,1 @ F,0,0,1,0,0,0,1 @ F,0,0,1,0,0,0,1 @ F,0,0,1,0,0,0,1 @ F,0,0,1,0,0,0,1 @ F,0,0,1,0,0,0,1 @ F,0,0,1,0,0,0,1 @ F,0,0,1,0,0,0,1 @ F,0,0,1,0,0,0,1 @ F,0,0,1,0,0,0,1 @ F,0,0,1,0,0,0,1 @ F,0,0,1,0,0,0,1 @ F,0,0,1,0,0,0,1 @ F,0,0,1,0,0,0,1 @ F,0,0,1,0,0,0,1 @ F,0,0,1,0,0,0,1 @ F,0,0,1,0,0,0,1 @ F,0,0,1,0,0,0,1 @ F,0,0,1,0,0,0,1 @ F,0,0,1,0,0,0,1 @ F,0,0,1,0,0,0,1 @ F,0,0,1,0,0,0,1 @ F,0,0,1,0,0,0,1 @ F,0,0,1,0,0,0,1 @ F,0,0,1,0,0,0,1 @ F,0,0,1,0,0,0,1 @ F,0,0,1,0,0,0,1 @ F,0,0,1,0,0,0,1 @ F,0,0,1,0,0,0,1 @ F,0,0,1,0,0,0,1 @ F,0,0,1,0,0,0,1 @ F,0,0,1,0,0,0,1 @ F,0,0,1,0,0,0,1 @ F,0,0,1,0,0,0,1 @ F,0,0,1,0,0,0,1 @ F,0,0,1,0,0,0,1 @ F,0,0,1,0,0,0,1 @ F,0,0,1,0,0,0,1 @ F,0,0,1,0,0,0,1 @ F,0,0,1,0,0,0,1 @ F,0,0,1,0,0,0,1 @ F,0,0,1,0,0,0,1 @ F,0,0,1,0,0,0,1 @ F,0,0,1,0,0,0,1 @ F,0,0,1,0,0,0,1 @ F,0,0,1,0,0,0,1 @ F,0,0,1,0,0,0,1 @ F,0,0,1,0,0,0,1 @ F,0,0,1,0,0,0,1 @ F,0,0,1,0,0,0,1 @ F,0,0,1,0,0,0,1 @ F,0,0,1,0,0,0,1 @ F,0,0,1,0,0,0,1 @ F,0,0,1,0,0,0,1 @ F,0,0,1,0,0,0,1 @ F,0,0,1,0,0,0,1 @ F,0,0,1,0,0,0,1 @ F,0,0,1,0,0,0,1 @ F,0,0,1,0,0,0,1 @ F,0,0,1,0,0,0,1 @ F,0,0,1,0,0,0,1 @ F,0,0,1,0,0,0,1 @ F,0,0,1,0,0,0,1 @ F,0,0,1,0,0,0,1 @ F,0,0,1,0,0,0,1 @ F,0,0,1,0,0,0,1 @ F,0,0,1,0,0,0,1 @ F,0,0,1,0,0,0,1 @ F,0,0,1,0,0,0,1 @ F,0,0,1,0,0,0,1 @ F,0,0,1,0,0,0,1 @ F,0,0,1,0,0,0,1 @ F,0,0,1,0,0,0,1 @ F,0,0,1,0,0,0,1 @ F,0,0,1,0,0,0,1"
       radius="0"
       unit="px"
       method="auto"
       mode="F"
       chamfer_steps="1"
       flexible="false"
       use_knot_distance="true"
       apply_no_radius="true"
       apply_with_radius="true"
       only_selected="true"
       hide_knots="false" />
    <inkscape:path-effect
       effect="fillet_chamfer"
       id="path-effect8-6"
       is_visible="true"
       lpeversion="1"
       nodesatellites_param="F,0,0,1,0,0,0,1 @ F,0,0,1,0,0,0,1 @ F,0,0,1,0,0,0,1 @ F,0,0,1,0,0,0,1 @ F,0,0,1,0,0,0,1 @ F,0,0,1,0,0,0,1 @ F,0,0,1,0,0,0,1 @ F,0,0,1,0,0,0,1 @ F,0,0,1,0,0,0,1 @ F,0,0,1,0,0,0,1 @ F,0,0,1,0,0,0,1 @ F,0,0,1,0,0,0,1 @ F,0,0,1,0,0,0,1 @ F,0,0,1,0,0,0,1 @ F,0,0,1,0,0,0,1 @ F,0,0,1,0,0,0,1 @ F,0,0,1,0,0,0,1 @ F,0,0,1,0,0,0,1 @ F,0,0,1,0,0,0,1 @ F,0,0,1,0,0,0,1 @ F,0,0,1,0,0,0,1 @ F,0,0,1,0,0,0,1 @ F,0,0,1,0,0,0,1 @ F,0,0,1,0,0,0,1 @ F,0,0,1,0,0,0,1 @ F,0,0,1,0,0,0,1 @ F,0,0,1,0,0,0,1 @ F,0,0,1,0,0,0,1 @ F,0,0,1,0,0.055330264,0,1 @ F,0,0,1,0,0,0,1 @ F,0,0,1,0,0,0,1 @ F,0,0,1,0,0,0,1 @ F,0,1,1,0,0.073794047,0,1 @ F,0,0,1,0,0,0,1 @ F,0,0,1,0,0,0,1 @ F,0,0,1,0,0,0,1 @ F,0,0,1,0,0,0,1 @ F,0,0,1,0,0,0,1 @ F,0,0,1,0,0,0,1 @ F,0,0,1,0,0,0,1 @ F,0,0,1,0,0,0,1 @ F,0,0,1,0,0,0,1 @ F,0,0,1,0,0,0,1 @ F,0,0,1,0,0,0,1 @ F,0,0,1,0,0,0,1 @ F,0,0,1,0,0,0,1 @ F,0,0,1,0,0,0,1 @ F,0,0,1,0,0,0,1 @ F,0,0,1,0,0,0,1 @ F,0,0,1,0,0,0,1 @ F,0,0,1,0,0,0,1 @ F,0,0,1,0,0,0,1 @ F,0,0,1,0,0,0,1 @ F,0,0,1,0,0,0,1 @ F,0,0,1,0,0,0,1 @ F,0,0,1,0,0,0,1 @ F,0,0,1,0,0,0,1 @ F,0,0,1,0,0,0,1 @ F,0,0,1,0,0,0,1 @ F,0,0,1,0,0,0,1 @ F,0,0,1,0,0,0,1 @ F,0,0,1,0,0,0,1 @ F,0,0,1,0,0,0,1 @ F,0,0,1,0,0,0,1 @ F,0,0,1,0,0,0,1 @ F,0,0,1,0,0,0,1 @ F,0,0,1,0,0,0,1 @ F,0,0,1,0,0,0,1 @ F,0,0,1,0,0,0,1 @ F,0,0,1,0,0,0,1 @ F,0,0,1,0,0,0,1 @ F,0,0,1,0,0,0,1 @ F,0,0,1,0,0,0,1 @ F,0,0,1,0,0,0,1 @ F,0,0,1,0,0,0,1 @ F,0,0,1,0,0,0,1 @ F,0,0,1,0,0,0,1 @ F,0,0,1,0,0,0,1 @ F,0,0,1,0,0,0,1 @ F,0,0,1,0,0,0,1 @ F,0,0,1,0,0,0,1 @ F,0,0,1,0,0,0,1 @ F,0,0,1,0,0,0,1 @ F,0,0,1,0,0,0,1 @ F,0,0,1,0,0,0,1 @ F,0,0,1,0,0,0,1 @ F,0,0,1,0,0,0,1 @ F,0,0,1,0,0,0,1 @ F,0,0,1,0,0,0,1 @ F,0,0,1,0,0,0,1 @ F,0,0,1,0,0,0,1 @ F,0,0,1,0,0,0,1 @ F,0,0,1,0,0,0,1 @ F,0,0,1,0,0,0,1 @ F,0,0,1,0,0,0,1 @ F,0,0,1,0,0,0,1 @ F,0,0,1,0,0,0,1 @ F,0,0,1,0,0,0,1 @ F,0,0,1,0,0,0,1 @ F,0,0,1,0,0,0,1 @ F,0,0,1,0,0,0,1 @ F,0,0,1,0,0,0,1 @ F,0,0,1,0,0,0,1 @ F,0,0,1,0,0,0,1 @ F,0,0,1,0,0,0,1 @ F,0,0,1,0,0,0,1 @ F,0,0,1,0,0,0,1 @ F,0,0,1,0,0,0,1 @ F,0,0,1,0,0,0,1 @ F,0,0,1,0,0,0,1 @ F,0,0,1,0,0,0,1 @ F,0,0,1,0,0,0,1 @ F,0,0,1,0,0,0,1 @ F,0,0,1,0,0,0,1 @ F,0,0,1,0,0,0,1 @ F,0,0,1,0,0,0,1 @ F,0,0,1,0,0,0,1"
       radius="0"
       unit="px"
       method="auto"
       mode="F"
       chamfer_steps="1"
       flexible="false"
       use_knot_distance="true"
       apply_no_radius="true"
       apply_with_radius="true"
       only_selected="true"
       hide_knots="false" />
  </defs>
  <path
     style="fill:#4a8db7;fill-opacity:0.768047;fill-rule:evenodd;stroke:#b81e1e;stroke-width:0.0331886"
     d="M 95.03589,0.10115454 V 13.012695 l -0.165963,0.28775 H 50.149319 v 1.76303 h 49.633558 l 1.919413,-1.53599 0.49681,-1.76556 V 4.9715945 h 0.7642 v -1.27692 h -2.04591 v 0.44145 c 0.0478,0.0698 0.1416,0.14615 0.10913,0.20428 -0.0841,0.0932 -0.26729,0.18674 -0.2517,0.27995 0.013,0.13932 0.30301,0.29229 0.23253,0.41771 -0.0293,0.19551 -0.16465,0.20884 -0.24682,0.31341 0.0163,0.14419 0.20591,0.14354 0.27053,0.36549 -0.006,0.14257 -0.26728,0.24585 -0.25169,0.39875 0.002,0.23091 0.16757,0.26273 0.25169,0.39401 -0.0442,0.17991 -0.29229,0.24032 -0.27053,0.34652 0.0324,0.16596 0.16401,0.23156 0.25169,0.34176 -0.0227,0.13607 -0.24422,0.24195 -0.26598,0.37974 0.10457,0.24228 0.18999,0.23416 0.28482,0.3513 0.006,0.18318 -0.16108,0.26274 -0.24195,0.39398 -0.0195,0.20331 0.2137,0.27476 0.2137,0.42724 -0.0776,0.12016 -0.29846,0.11496 -0.23254,0.36074 0.0792,0.10913 0.26663,0.23806 0.23741,0.32754 -0.006,0.1601 -0.22929,0.21986 -0.24682,0.34178 0.026,0.19129 0.20428,0.2867705 0.23805,0.4120905 -0.0776,0.1127 -0.19031,0.27346 -0.23318,0.33793 0.026,0.1364 0.14387,0.25039 0.2374,0.37026 0.0194,0.10945 -0.0471,0.16628 -0.114,0.22312 v 0.71205 c -0.10911,1.46711 -0.977712,1.86209 -1.950968,2.00794 -1.24035,-0.0497 -1.921096,-0.79857 -2.093389,-2.06964 v -0.63135 l -0.09028,-0.2137 c 0.02272,-0.14647 0.231553,-0.22181 0.218239,-0.37497 -0.07598,-0.11692 -0.220838,-0.15654 -0.227981,-0.3513 -0.01953,-0.19649 0.272802,-0.2036405 0.213694,-0.3845005 -0.06434,-0.11692 -0.208823,-0.23416 -0.189992,-0.35127 -0.01626,-0.13543 0.190638,-0.25884 0.199407,-0.36075 -0.0763,-0.13283 -0.246174,-0.26566 -0.227989,-0.39875 0.0024,-0.18252 0.161092,-0.2439 0.241957,-0.36549 -0.08055,-0.13315 -0.289696,-0.3069 -0.237404,-0.39875 0.02599,-0.11334 0.296512,-0.20103 0.232533,-0.36553 -0.07406,-0.12211 -0.234487,-0.25981 -0.218247,-0.36549 0.0024,-0.10587 0.206232,-0.202 0.204279,-0.31795 -0.06952,-0.12503 -0.224736,-0.25819 -0.204279,-0.37501 0.06952,-0.1312 0.248128,-0.28449 0.208823,-0.39401 -0.07271,-0.14094 -0.251364,-0.27117 -0.218238,-0.42245 0.07111,-0.11562 0.301057,-0.16498 0.213694,-0.34652 -0.07111,-0.11855 -0.226689,-0.2478 -0.213694,-0.35601 0.07925,-0.1075 0.250391,-0.21532 0.237404,-0.32282 -0.08087,-0.13446 -0.302037,-0.26891 -0.241948,-0.40349 0.04289,-0.11075 0.143544,-0.23124 0.128277,-0.33227 V 0.09670454 Z"
     id="profile_left"
     sodipodi:nodetypes="ccccccccccccccccccccccccccccccccccccccccccccccccccccccccccc" />
  <path
     style="fill:#4a8db7;fill-opacity:0.768047;fill-rule:evenodd;stroke:#b81e1e;stroke-width:0.0331886"
     d="M 115.0423,0.02108454 V 12.932625 l 0.16606,0.28774 h 44.72061 v 1.76304 h -49.63356 l -1.91941,-1.53599 -0.49677,-1.76557 V 4.8915245 H 107.115 v -1.27692 h 2.0459 v 0.44145 c -0.0477,0.0698 -0.14159,0.14614 -0.10918,0.20428 0.084,0.0932 0.26729,0.18674 0.2516,0.27995 -0.0133,0.13932 -0.30298,0.29229 -0.2326,0.41771 0.0302,0.19552 0.16453,0.20883 0.24682,0.31341 -0.0166,0.1442 -0.2059,0.14354 -0.27056,0.36549 0.006,0.14257 0.26741,0.24585 0.25159,0.39875 -0.002,0.23091 -0.16767,0.26273 -0.25159,0.39401 0.0442,0.17992 0.29232,0.24032 0.27056,0.34652 -0.0318,0.16596 -0.16411,0.23156 -0.25156,0.34176 0.023,0.13607 0.24435,0.24195 0.26582,0.37974 -0.10457,0.24228 -0.18989,0.23416 -0.28482,0.35131 -0.006,0.18317 0.16115,0.26273 0.24208,0.39397 0.0202,0.2033 -0.21364,0.27475 -0.21364,0.42724 0.0777,0.12016 0.29837,0.11496 0.23261,0.36074 -0.0791,0.10913 -0.26667,0.23806 -0.23734,0.32754 0.005,0.16011 0.22921,0.21986 0.24682,0.34178 -0.0254,0.19129 -0.20431,0.28677 -0.23792,0.4120905 0.0777,0.1127 0.19018,0.27346 0.23317,0.33792 -0.0266,0.1364 -0.14373,0.2504 -0.23734,0.37027 -0.0205,0.10945 0.047,0.16628 0.11394,0.22312 v 0.71205 c 0.10925,1.4671 0.97773,1.86208 1.95097,2.00794 1.24036,-0.0497 1.92111,-0.79857 2.09338,-2.06965 v -0.63134 l 0.0902,-0.2137 c -0.0227,-0.14647 -0.2315,-0.22182 -0.21837,-0.37498 0.0761,-0.11691 0.22091,-0.15654 0.22785,-0.3513 0.0198,-0.1964805 -0.2728,-0.2036305 -0.21363,-0.3844905 0.0641,-0.11692 0.20882,-0.23415 0.1899,-0.35127 0.0172,-0.13543 -0.19048,-0.25883 -0.19938,-0.36075 0.0763,-0.13283 0.24624,-0.26566 0.22785,-0.39875 -0.003,-0.18252 -0.16118,-0.2439 -0.24208,-0.3655 0.0804,-0.13314 0.28986,-0.3069 0.23734,-0.39874 -0.0263,-0.11334 -0.29645,-0.20103 -0.2326,-0.36553 0.0741,-0.12211 0.23435,-0.25981 0.21835,-0.36549 -0.002,-0.10587 -0.20636,-0.20201 -0.20412,-0.31795 0.0694,-0.12503 0.22477,-0.25819 0.20412,-0.37501 -0.0696,-0.1312 -0.24823,-0.28449 -0.20886,-0.39401 0.0728,-0.14094 0.2514,-0.27117 0.21834,-0.42245 -0.0712,-0.11562 -0.30113,-0.16498 -0.2136,-0.34652 0.0712,-0.11855 0.22681,-0.2478 0.2136,-0.35601 -0.0792,-0.10751 -0.25033,-0.21533 -0.23734,-0.32283 0.0807,-0.13445 0.30216,-0.2689 0.24208,-0.40348 -0.0427,-0.11075 -0.14367,-0.23124 -0.12818,-0.33227 V 0.01663454 Z"
     id="profile_right"
     sodipodi:nodetypes="ccccccccccccccccccccccccccccccccccccccccccccccccccccccccccc"
     inkscape:label="profile_right" />
  <rect
     style="fill:#b8b8b8;fill-opacity:1;fill-rule:evenodd;stroke:#b81e1e;stroke-width:0.0427223"
     id="concrete_right"
     width="69.957275"
     height="54.254299"
     x="110.37365"
     y="15.017604" />
  <rect
     style="fill:#a39a9a;fill-rule:evenodd;stroke:#b81e1e;stroke-width:0.0244747"
     id="finish_right"
     width="65.032791"
     height="13.806242"
     x="115.26379"
     y="1.0484263" />
  <rect
     style="fill:#a39a9a;fill-rule:evenodd;stroke:#b81e1e;stroke-width:0.0127421"
     id="cover_right"
     width="65.183304"
     height="0.75032508"
     x="115.18718"
     y="0.14817297" />
  <rect
     style="fill:#b8b8b8;fill-opacity:1;fill-rule:evenodd;stroke:#b81e1e;stroke-width:0.0427051"
     id="concrete_left"
     width="70.122719"
     height="54.082649"
     x="29.80234"
     y="15.032573" />
  <rect
     style="fill:#a39a9a;fill-rule:evenodd;stroke:#b81e1e;stroke-width:0.0249138"
     id="finish_left"
     width="65.18679"
     height="14.272009"
     x="29.717302"
     y="0.78049719" />
  <rect
     style="fill:#a39a9a;fill-rule:evenodd;stroke:#b81e1e;stroke-width:0.0129142"
     id="cover_left"
     width="65.325188"
     height="0.76904744"
     x="29.629602"
     y="0.026423099" />
  <rect
     style="fill:#404242;fill-opacity:0.341246;fill-rule:evenodd;stroke:#b81e1e;stroke-width:0.0198777"
     id="shadow"
     width="137.48599"
     height="0.01261392"
     x="37.683979"
     y="69.292259"
     inkscape:label="shadow" />
  <ellipse
     style="opacity:0;fill:none;fill-opacity:0;fill-rule:evenodd;stroke-width:0.00368993;stroke-opacity:0"
     id="bolt_left"
     cx="-60.023941"
     cy="-13.375903"
     rx="0.094999999"
     ry="0.028942173"
     inkscape:label="bolt_left"
     transform="scale(-1)" />
  <ellipse
     style="opacity:0;fill:none;fill-opacity:0;fill-rule:evenodd;stroke-width:0.000191947;stroke-opacity:0"
     id="bolt_right"
     cx="150.4341"
     cy="13.277888"
     rx="0.0049418169"
     ry="0.0015055466"
     inkscape:label="bolt_right" />
  <path
     style="fill:#000000;fill-opacity:0.768047;fill-rule:evenodd;stroke:#b81e1e;stroke-width:0.0102192"
     d="m 99.765031,34.588372 -0.383804,0.0062 -0.633489,-0.52105 c -0.0419,-0.03069 -0.04152,-0.08253 -0.05262,-0.128622 -0.0033,-0.04093 -0.0061,-0.08185 0.01754,-0.122777 0.03663,-0.05044 0.08736,-0.06326 0.140319,-0.07016 0.0838,0.02473 0.167599,0.07149 0.251399,0.140317 l 0.03508,-0.02339 v -0.630613 l -0.39406,-0.336931 -0.05788,-0.117821 0.04134,-0.12609 0.107487,-0.04961 0.124024,0.03307 0.144693,0.101285 0.03307,-0.03307 v -0.63252 l -0.396875,-0.345197 -0.05581,-0.101288 0.04341,-0.130222 0.101286,-0.05375 0.128156,0.03927 0.115755,0.101285 0.04754,0.0041 0.02066,-0.04134 v -1.016992 l -0.331049,-0.191132 v -0.5065 l 2.113337,-0.0051 a 0.11428779,0.11428779 25.695681 0 1 0.0898,0.04319 l 0.63737,0.802107 0.0765,0.02894 0.0971,-0.03514 0.60596,-0.782936 a 0.15042819,0.15042819 153.86928 0 1 0.11896,-0.05836 h 2.09042 v 0.520899 l -0.3306,0.190926 v 1.010071 l 0.0309,0.04547 0.1447,-0.109553 0.12195,-0.03927 0.10749,0.04754 0.0475,0.14056 -0.0537,0.101285 -0.39481,0.338997 v 0.632521 c 0.004,0.01447 0.0188,0.02894 0.0331,0.04341 l 0.0289,-0.01447 0.12196,-0.09715 c 0.0351,-0.02124 0.0703,-0.02346 0.10542,-0.02894 0.0369,-2.92e-4 0.0775,0.02103 0.11989,0.05374 0.0245,0.04272 0.0353,0.08544 0.0434,0.128159 -0.0138,0.03995 -0.0373,0.07503 -0.062,0.109554 l -0.39687,0.338997 v 0.620117 l 0.031,0.04134 0.15503,-0.107487 c 0.0297,-0.01718 0.0536,-0.03671 0.10956,-0.04341 0.076,0.02549 0.0978,0.05099 0.12609,0.07648 l 0.0331,0.107487 c 0.001,0.03927 -0.0242,0.07855 -0.0496,0.117822 l -0.63665,0.537435 h -0.38861 l -0.62632,-0.535366 c -0.0368,-0.03294 -0.053,-0.07613 -0.0682,-0.119891 -0.002,-0.01875 0.01,-0.05843 0.0351,-0.115755 0.0382,-0.03021 0.0783,-0.05451 0.12196,-0.06821 0.12509,0.04654 0.19047,0.106347 0.26871,0.163298 0.0281,-0.01436 0.0299,-0.03399 0.031,-0.05374 v -0.62217 l -0.39274,-0.347266 -0.062,-0.09509 c 8.8e-4,-0.04886 0.0159,-0.09301 0.0331,-0.136424 0.037,-0.01974 0.0624,-0.04526 0.13022,-0.04961 0.0667,0.0072 0.0853,0.02052 0.10956,0.03307 l 0.10335,0.09302 c 0.0179,0.01107 0.0347,0.02761 0.0579,0.01241 l 0.0165,-0.03307 V 32.07247 l -0.38654,-0.332796 -0.0599,-0.09715 c -0.0111,-0.04479 0.007,-0.08957 0.0289,-0.134358 0.0629,-0.0495 0.10383,-0.06761 0.12816,-0.06201 0.0559,7.9e-4 0.0799,0.02067 0.10955,0.03721 l 0.10542,0.09302 0.0599,0.01035 0.0104,-0.03721 v -0.527101 h -0.93638 l -0.62425,0.632519 c -0.0338,0.0337 -0.0943,0.04077 -0.15503,0.04754 -0.0579,0.0023 -0.10677,-0.01125 -0.14263,-0.04754 l -0.63872,-0.630452 h -0.94257 v 0.531233 c 0.004,0.02931 0.0189,0.03675 0.0393,0.03307 l 0.13849,-0.105418 c 0.0299,-0.015 0.0583,-0.03081 0.10956,-0.03514 0.021,0.003 0.12712,0.04178 0.11782,0.04961 0.0237,0.01035 0.0711,0.134361 0.0537,0.134361 -6.3e-4,0.03238 -0.0264,0.06477 -0.0599,0.09715 l -0.39894,0.345199 v 0.644922 l 0.0372,0.03514 0.0289,-0.01447 c 0.0357,-0.03238 0.0655,-0.06477 0.12196,-0.09715 0.0584,-0.0384 0.071,-0.03103 0.0992,-0.03927 0.0955,0.01791 0.0894,0.03583 0.12609,0.05374 0.0379,0.04881 0.0343,0.0907 0.0413,0.134358 -0.009,0.03376 -0.0398,0.06752 -0.0641,0.101285 l -0.38654,0.347266 v 0.628385 l 0.0227,0.03721 0.15916,-0.105421 c 0.0197,-0.02527 0.0547,-0.04295 0.10749,-0.05168 0.0488,0.0177 0.0987,0.03409 0.12609,0.07855 0.0261,0.03721 0.0365,0.07442 0.0351,0.111622 -0.004,0.04129 -0.0325,0.07783 -0.0641,0.113687 z"
     id="compensator"
     sodipodi:nodetypes="cccccccccccccccccccccccccccccccccccccccccccccccccccccccccccccccccccccccccccccccccccccccccccccccccccccccccccccccccccccc"
     inkscape:path-effect="#path-effect8-6"
     inkscape:original-d="m 99.765031,34.588372 -0.383804,0.0062 -0.633489,-0.52105 c -0.0419,-0.03069 -0.04152,-0.08253 -0.05262,-0.128622 -0.0033,-0.04093 -0.0061,-0.08185 0.01754,-0.122777 0.03663,-0.05044 0.08736,-0.06326 0.140319,-0.07016 0.0838,0.02473 0.167599,0.07149 0.251399,0.140317 l 0.03508,-0.02339 v -0.630613 l -0.39406,-0.336931 -0.05788,-0.117821 0.04134,-0.12609 0.107487,-0.04961 0.124024,0.03307 0.144693,0.101285 0.03307,-0.03307 v -0.63252 l -0.396875,-0.345197 -0.05581,-0.101288 0.04341,-0.130222 0.101286,-0.05375 0.128156,0.03927 0.115755,0.101285 0.04754,0.0041 0.02066,-0.04134 v -1.016992 l -0.331049,-0.191132 v -0.5065 l 2.168667,-0.0052 0.67179,0.845426 0.0765,0.02894 0.0971,-0.03514 0.65113,-0.841293 h 2.16421 v 0.520899 l -0.3306,0.190926 v 1.010071 l 0.0309,0.04547 0.1447,-0.109553 0.12195,-0.03927 0.10749,0.04754 0.0475,0.14056 -0.0537,0.101285 -0.39481,0.338997 v 0.632521 c 0.004,0.01447 0.0188,0.02894 0.0331,0.04341 l 0.0289,-0.01447 0.12196,-0.09715 c 0.0351,-0.02124 0.0703,-0.02346 0.10542,-0.02894 0.0369,-2.92e-4 0.0775,0.02103 0.11989,0.05374 0.0245,0.04272 0.0353,0.08544 0.0434,0.128159 -0.0138,0.03995 -0.0373,0.07503 -0.062,0.109554 l -0.39687,0.338997 v 0.620117 l 0.031,0.04134 0.15503,-0.107487 c 0.0297,-0.01718 0.0536,-0.03671 0.10956,-0.04341 0.076,0.02549 0.0978,0.05099 0.12609,0.07648 l 0.0331,0.107487 c 0.001,0.03927 -0.0242,0.07855 -0.0496,0.117822 l -0.63665,0.537435 h -0.38861 l -0.62632,-0.535366 c -0.0368,-0.03294 -0.053,-0.07613 -0.0682,-0.119891 -0.002,-0.01875 0.01,-0.05843 0.0351,-0.115755 0.0382,-0.03021 0.0783,-0.05451 0.12196,-0.06821 0.12509,0.04654 0.19047,0.106347 0.26871,0.163298 0.0281,-0.01436 0.0299,-0.03399 0.031,-0.05374 v -0.62217 l -0.39274,-0.347266 -0.062,-0.09509 c 8.8e-4,-0.04886 0.0159,-0.09301 0.0331,-0.136424 0.037,-0.01974 0.0624,-0.04526 0.13022,-0.04961 0.0667,0.0072 0.0853,0.02052 0.10956,0.03307 l 0.10335,0.09302 c 0.0179,0.01107 0.0347,0.02761 0.0579,0.01241 l 0.0165,-0.03307 V 32.07247 l -0.38654,-0.332796 -0.0599,-0.09715 c -0.0111,-0.04479 0.007,-0.08957 0.0289,-0.134358 0.0629,-0.0495 0.10383,-0.06761 0.12816,-0.06201 0.0559,7.9e-4 0.0799,0.02067 0.10955,0.03721 l 0.10542,0.09302 0.0599,0.01035 0.0104,-0.03721 v -0.527101 h -0.93638 l -0.62425,0.632519 c -0.0338,0.0337 -0.0943,0.04077 -0.15503,0.04754 -0.0579,0.0023 -0.10677,-0.01125 -0.14263,-0.04754 l -0.63872,-0.630452 h -0.94257 v 0.531233 c 0.004,0.02931 0.0189,0.03675 0.0393,0.03307 l 0.13849,-0.105418 c 0.0299,-0.015 0.0583,-0.03081 0.10956,-0.03514 0.021,0.003 0.12712,0.04178 0.11782,0.04961 0.0237,0.01035 0.0711,0.134361 0.0537,0.134361 -6.3e-4,0.03238 -0.0264,0.06477 -0.0599,0.09715 l -0.39894,0.345199 v 0.644922 l 0.0372,0.03514 0.0289,-0.01447 c 0.0357,-0.03238 0.0655,-0.06477 0.12196,-0.09715 0.0584,-0.0384 0.071,-0.03103 0.0992,-0.03927 0.0955,0.01791 0.0894,0.03583 0.12609,0.05374 0.0379,0.04881 0.0343,0.0907 0.0413,0.134358 -0.009,0.03376 -0.0398,0.06752 -0.0641,0.101285 l -0.38654,0.347266 v 0.628385 l 0.0227,0.03721 0.15916,-0.105421 c 0.0197,-0.02527 0.0547,-0.04295 0.10749,-0.05168 0.0488,0.0177 0.0987,0.03409 0.12609,0.07855 0.0261,0.03721 0.0365,0.07442 0.0351,0.111622 -0.004,0.04129 -0.0325,0.07783 -0.0641,0.113687 z"
     inkscape:label="compensator"
     transform="matrix(2.7905069,0,0,2.7905069,-178.66653,-83.102253)" />
</svg>
